ISO-10303-21;
HEADER;
FILE_DESCRIPTION (( 'STEP AP203' ),
    '1' );
FILE_NAME ('Battery CNHL 6S 2200mAh.step',
    '2026-09-29T04:50:23',
    ( '' ),
    ( '' ),
    '',
    '',
    '' );
FILE_SCHEMA (( 'CONFIG_CONTROL_DESIGN' ));
ENDSEC;

DATA;
#1 = EDGE_CURVE ( 'NONE', #222, #83, #160, .T. ) ;
#2 = PERSON_AND_ORGANIZATION ( #150, #137 ) ;
#3 = DATE_AND_TIME ( #99, #173 ) ;
#4 = ORIENTED_EDGE ( 'NONE', *, *, #236, .T. ) ;
#5 = AXIS2_PLACEMENT_3D ( 'NONE', #107, #71, #193 ) ;
#6 = ORIENTED_EDGE ( 'NONE', *, *, #223, .F. ) ;
#7 = UNCERTAINTY_MEASURE_WITH_UNIT (LENGTH_MEASURE( 1.000000000000000082E-05 ), #35, 'distance_accuracy_value', 'NONE');
#8 = ORIENTED_EDGE ( 'NONE', *, *, #119, .T. ) ;
#9 = LINE ( 'NONE', #86, #82 ) ;
#10 = ORIENTED_EDGE ( 'NONE', *, *, #169, .T. ) ;
#11 = EDGE_LOOP ( 'NONE', ( #172, #66, #10, #46 ) ) ;
#12 = ORIENTED_EDGE ( 'NONE', *, *, #169, .F. ) ;
#13 = LOCAL_TIME ( 17, 50, 23.00000000000000000, #234 ) ;
#14 = CARTESIAN_POINT ( 'NONE',  ( 0.000000000000000000, 0.000000000000000000, -18.00000000000000000 ) ) ;
#15 = EDGE_CURVE ( 'NONE', #222, #108, #104, .T. ) ;
#16 = CARTESIAN_POINT ( 'NONE',  ( -17.50000000000000000, 158.0000000000000000, 37.00000000000000711 ) ) ;
#17 = APPROVAL_STATUS ( 'not_yet_approved' ) ;
#18 = APPROVAL_PERSON_ORGANIZATION ( #24, #154, #40 ) ;
#19 = LINE ( 'NONE', #111, #28 ) ;
#20 = VECTOR ( 'NONE', #143, 1000.000000000000000 ) ;
#21 = MECHANICAL_CONTEXT ( 'NONE', #133, 'mechanical' ) ;
#22 = COORDINATED_UNIVERSAL_TIME_OFFSET ( 12, 0, .AHEAD. ) ;
#23 = ADVANCED_FACE ( 'NONE', ( #144 ), #88, .F. ) ;
#24 = PERSON_AND_ORGANIZATION ( #150, #137 ) ;
#25 = DESIGN_CONTEXT ( 'detailed design', #130, 'design' ) ;
#26 = VERTEX_POINT ( 'NONE', #176 ) ;
#27 = CC_DESIGN_APPROVAL ( #132, ( #65 ) ) ;
#28 = VECTOR ( 'NONE', #181, 1000.000000000000000 ) ;
#29 = CC_DESIGN_PERSON_AND_ORGANIZATION_ASSIGNMENT ( #2, #98, ( #49 ) ) ;
#30 = FACE_OUTER_BOUND ( 'NONE', #11, .T. ) ;
#31 = FACE_OUTER_BOUND ( 'NONE', #186, .T. ) ;
#32 = PLANE ( 'NONE',  #5 ) ;
#33 = CARTESIAN_POINT ( 'NONE',  ( 17.50000000000000000, 266.0000000000000000, 37.00000000000000711 ) ) ;
#34 = ORIENTED_EDGE ( 'NONE', *, *, #15, .F. ) ;
#35 =( LENGTH_UNIT ( ) NAMED_UNIT ( * ) SI_UNIT ( .MILLI., .METRE. ) );
#36 = ADVANCED_FACE ( 'NONE', ( #30 ), #32, .F. ) ;
#37 = PERSON_AND_ORGANIZATION_ROLE ( 'design_owner' ) ;
#38 = ADVANCED_FACE ( 'NONE', ( #31 ), #84, .F. ) ;
#39 = CARTESIAN_POINT ( 'NONE',  ( 17.50000000000000000, 158.0000000000000000, 37.00000000000000711 ) ) ;
#40 = APPROVAL_ROLE ( '' ) ;
#41 = PERSON_AND_ORGANIZATION ( #150, #137 ) ;
#42 = EDGE_CURVE ( 'NONE', #26, #222, #224, .T. ) ;
#43 = APPROVAL_STATUS ( 'not_yet_approved' ) ;
#44 = VERTEX_POINT ( 'NONE', #206 ) ;
#45 = CARTESIAN_POINT ( 'NONE',  ( -17.50000000000000000, 266.0000000000000000, 37.00000000000000711 ) ) ;
#46 = ORIENTED_EDGE ( 'NONE', *, *, #42, .T. ) ;
#47 = DIRECTION ( 'NONE',  ( 1.000000000000000000, 0.000000000000000000, 0.000000000000000000 ) ) ;
#48 = LINE ( 'NONE', #33, #190 ) ;
#49 = SECURITY_CLASSIFICATION ( '', '', #64 ) ;
#50 = VECTOR ( 'NONE', #135, 1000.000000000000000 ) ;
#51 = DIRECTION ( 'NONE',  ( -0.000000000000000000, -0.000000000000000000, -1.000000000000000000 ) ) ;
#52 = PLANE ( 'NONE',  #57 ) ;
#53 = PERSON_AND_ORGANIZATION_ROLE ( 'creator' ) ;
#54 = DIRECTION ( 'NONE',  ( 0.000000000000000000, 0.000000000000000000, 1.000000000000000000 ) ) ;
#55 = DIRECTION ( 'NONE',  ( 0.000000000000000000, 1.000000000000000000, 0.000000000000000000 ) ) ;
#56 = APPROVAL_DATE_TIME ( #165, #132 ) ;
#57 = AXIS2_PLACEMENT_3D ( 'NONE', #14, #182, #202 ) ;
#58 = APPROVAL_DATE_TIME ( #152, #154 ) ;
#59 = CALENDAR_DATE ( 2026, 29, 9 ) ;
#60 = ORIENTED_EDGE ( 'NONE', *, *, #15, .T. ) ;
#61 = PRODUCT_RELATED_PRODUCT_CATEGORY ( 'detail', '', ( #192 ) ) ;
#62 = AXIS2_PLACEMENT_3D ( 'NONE', #164, #55, #112 ) ;
#63 = APPROVAL_ROLE ( '' ) ;
#64 = SECURITY_CLASSIFICATION_LEVEL ( 'unclassified' ) ;
#65 = PRODUCT_DEFINITION ( 'UNKNOWN', '', #124, #25 ) ;
#66 = ORIENTED_EDGE ( 'NONE', *, *, #68, .T. ) ;
#67 = DIRECTION ( 'NONE',  ( -0.000000000000000000, -0.000000000000000000, -1.000000000000000000 ) ) ;
#68 = EDGE_CURVE ( 'NONE', #83, #175, #87, .T. ) ;
#69 = ORIENTED_EDGE ( 'NONE', *, *, #68, .F. ) ;
#70 = DIRECTION ( 'NONE',  ( 1.000000000000000000, 0.000000000000000000, 0.000000000000000000 ) ) ;
#71 = DIRECTION ( 'NONE',  ( 0.000000000000000000, 0.000000000000000000, -1.000000000000000000 ) ) ;
#72 =( GEOMETRIC_REPRESENTATION_CONTEXT ( 3 ) GLOBAL_UNCERTAINTY_ASSIGNED_CONTEXT ( ( #7 ) ) GLOBAL_UNIT_ASSIGNED_CONTEXT ( ( #35, #94, #149 ) ) REPRESENTATION_CONTEXT ( 'NONE', 'WORKASPACE' ) );
#73 = DIRECTION ( 'NONE',  ( -0.000000000000000000, -0.000000000000000000, -1.000000000000000000 ) ) ;
#74 = APPLICATION_PROTOCOL_DEFINITION ( 'international standard', 'config_control_design', 1994, #133 ) ;
#75 = LINE ( 'NONE', #16, #215 ) ;
#76 = CARTESIAN_POINT ( 'NONE',  ( -17.50000000000000000, 158.0000000000000000, -18.00000000000000000 ) ) ;
#77 = CALENDAR_DATE ( 2026, 29, 9 ) ;
#78 = EDGE_CURVE ( 'NONE', #142, #108, #9, .T. ) ;
#79 = ORIENTED_EDGE ( 'NONE', *, *, #213, .T. ) ;
#80 = DATE_AND_TIME ( #59, #183 ) ;
#81 = ADVANCED_FACE ( 'NONE', ( #207 ), #196, .F. ) ;
#82 = VECTOR ( 'NONE', #159, 1000.000000000000000 ) ;
#83 = VERTEX_POINT ( 'NONE', #227 ) ;
#84 = PLANE ( 'NONE',  #163 ) ;
#85 = EDGE_CURVE ( 'NONE', #89, #44, #125, .T. ) ;
#86 = CARTESIAN_POINT ( 'NONE',  ( -17.50000000000000000, 266.0000000000000000, -18.00000000000000000 ) ) ;
#87 = LINE ( 'NONE', #177, #103 ) ;
#88 = PLANE ( 'NONE',  #126 ) ;
#89 = VERTEX_POINT ( 'NONE', #145 ) ;
#90 = CC_DESIGN_PERSON_AND_ORGANIZATION_ASSIGNMENT ( #216, #171, ( #124 ) ) ;
#91 = AXIS2_PLACEMENT_3D ( 'NONE', #195, #180, #178 ) ;
#92 = FACE_OUTER_BOUND ( 'NONE', #123, .T. ) ;
#93 = CARTESIAN_POINT ( 'NONE',  ( 17.50000000000000000, 158.0000000000000000, 37.00000000000000711 ) ) ;
#94 =( NAMED_UNIT ( * ) PLANE_ANGLE_UNIT ( ) SI_UNIT ( $, .RADIAN. ) );
#95 = APPROVAL_PERSON_ORGANIZATION ( #185, #132, #131 ) ;
#96 = CALENDAR_DATE ( 2026, 29, 9 ) ;
#97 = APPROVAL ( #43, 'UNSPECIFIED' ) ;
#98 = PERSON_AND_ORGANIZATION_ROLE ( 'classification_officer' ) ;
#99 = CALENDAR_DATE ( 2026, 29, 9 ) ;
#100 = CALENDAR_DATE ( 2026, 29, 9 ) ;
#101 = ORIENTED_EDGE ( 'NONE', *, *, #78, .F. ) ;
#102 = CC_DESIGN_APPROVAL ( #97, ( #49 ) ) ;
#103 = VECTOR ( 'NONE', #47, 1000.000000000000000 ) ;
#104 = LINE ( 'NONE', #45, #139 ) ;
#105 = ADVANCED_BREP_SHAPE_REPRESENTATION ( 'Battery CNHL 6S 2200mAh', ( #194, #204 ), #72 ) ;
#106 = CARTESIAN_POINT ( 'NONE',  ( -17.50000000000000000, 266.0000000000000000, 37.00000000000000711 ) ) ;
#107 = CARTESIAN_POINT ( 'NONE',  ( 0.000000000000000000, 0.000000000000000000, 37.00000000000000711 ) ) ;
#108 = VERTEX_POINT ( 'NONE', #208 ) ;
#109 = CC_DESIGN_PERSON_AND_ORGANIZATION_ASSIGNMENT ( #200, #37, ( #192 ) ) ;
#110 = CARTESIAN_POINT ( 'NONE',  ( -17.50000000000000000, 158.0000000000000000, -18.00000000000000000 ) ) ;
#111 = CARTESIAN_POINT ( 'NONE',  ( 17.50000000000000000, 158.0000000000000000, -18.00000000000000000 ) ) ;
#112 = DIRECTION ( 'NONE',  ( 0.000000000000000000, -0.000000000000000000, 1.000000000000000000 ) ) ;
#113 = CC_DESIGN_SECURITY_CLASSIFICATION ( #49, ( #124 ) ) ;
#114 = APPROVAL_STATUS ( 'not_yet_approved' ) ;
#115 = SHAPE_DEFINITION_REPRESENTATION ( #121, #105 ) ;
#116 = ORIENTED_EDGE ( 'NONE', *, *, #223, .T. ) ;
#117 = APPROVAL_DATE_TIME ( #3, #97 ) ;
#118 = ORIENTED_EDGE ( 'NONE', *, *, #127, .F. ) ;
#119 = EDGE_CURVE ( 'NONE', #26, #142, #48, .T. ) ;
#120 = CARTESIAN_POINT ( 'NONE',  ( 17.50000000000000000, 158.0000000000000000, 37.00000000000000711 ) ) ;
#121 = PRODUCT_DEFINITION_SHAPE ( 'NONE', 'NONE',  #65 ) ;
#122 = ORIENTED_EDGE ( 'NONE', *, *, #119, .F. ) ;
#123 = EDGE_LOOP ( 'NONE', ( #118, #101, #179, #189 ) ) ;
#124 = PRODUCT_DEFINITION_FORMATION_WITH_SPECIFIED_SOURCE ( 'ANY', '', #192, .NOT_KNOWN. ) ;
#125 = LINE ( 'NONE', #110, #230 ) ;
#126 = AXIS2_PLACEMENT_3D ( 'NONE', #120, #191, #226 ) ;
#127 = EDGE_CURVE ( 'NONE', #108, #89, #161, .T. ) ;
#128 = DIRECTION ( 'NONE',  ( 0.000000000000000000, 0.000000000000000000, -1.000000000000000000 ) ) ;
#129 = PLANE ( 'NONE',  #62 ) ;
#130 = APPLICATION_CONTEXT ( 'configuration controlled 3d designs of mechanical parts and assemblies' ) ;
#131 = APPROVAL_ROLE ( '' ) ;
#132 = APPROVAL ( #17, 'UNSPECIFIED' ) ;
#133 = APPLICATION_CONTEXT ( 'configuration controlled 3d designs of mechanical parts and assemblies' ) ;
#134 = APPLICATION_PROTOCOL_DEFINITION ( 'international standard', 'config_control_design', 1994, #130 ) ;
#135 = DIRECTION ( 'NONE',  ( -0.000000000000000000, -1.000000000000000000, -0.000000000000000000 ) ) ;
#136 = CARTESIAN_POINT ( 'NONE',  ( -17.50000000000000000, 266.0000000000000000, 37.00000000000000711 ) ) ;
#137 = ORGANIZATION ( 'UNSPECIFIED', 'UNSPECIFIED', '' ) ;
#138 = CC_DESIGN_PERSON_AND_ORGANIZATION_ASSIGNMENT ( #219, #187, ( #124 ) ) ;
#139 = VECTOR ( 'NONE', #67, 1000.000000000000000 ) ;
#140 = ORIENTED_EDGE ( 'NONE', *, *, #42, .F. ) ;
#141 = ADVANCED_FACE ( 'NONE', ( #92 ), #52, .T. ) ;
#142 = VERTEX_POINT ( 'NONE', #231 ) ;
#143 = DIRECTION ( 'NONE',  ( -1.000000000000000000, -0.000000000000000000, -0.000000000000000000 ) ) ;
#144 = FACE_OUTER_BOUND ( 'NONE', #221, .T. ) ;
#145 = CARTESIAN_POINT ( 'NONE',  ( -17.50000000000000000, 158.0000000000000000, -18.00000000000000000 ) ) ;
#146 = DIRECTION ( 'NONE',  ( 1.000000000000000000, 0.000000000000000000, 0.000000000000000000 ) ) ;
#147 = DIRECTION ( 'NONE',  ( 0.000000000000000000, 1.000000000000000000, 0.000000000000000000 ) ) ;
#148 = CARTESIAN_POINT ( 'NONE',  ( 0.000000000000000000, 0.000000000000000000, 0.000000000000000000 ) ) ;
#149 =( NAMED_UNIT ( * ) SI_UNIT ( $, .STERADIAN. ) SOLID_ANGLE_UNIT ( ) );
#150 = PERSON ( 'UNSPECIFIED', 'UNSPECIFIED', 'UNSPECIFIED', ('UNSPECIFIED'), ('UNSPECIFIED'), ('UNSPECIFIED') ) ;
#151 = LOCAL_TIME ( 17, 50, 23.00000000000000000, #170 ) ;
#152 = DATE_AND_TIME ( #100, #151 ) ;
#153 = ORIENTED_EDGE ( 'NONE', *, *, #127, .T. ) ;
#154 = APPROVAL ( #114, 'UNSPECIFIED' ) ;
#155 = VECTOR ( 'NONE', #147, 1000.000000000000000 ) ;
#156 = CLOSED_SHELL ( 'NONE', ( #38, #166, #23, #81, #36, #141 ) ) ;
#157 = ORIENTED_EDGE ( 'NONE', *, *, #213, .F. ) ;
#158 = CARTESIAN_POINT ( 'NONE',  ( -17.50000000000000000, 158.0000000000000000, 37.00000000000000711 ) ) ;
#159 = DIRECTION ( 'NONE',  ( -1.000000000000000000, -0.000000000000000000, -0.000000000000000000 ) ) ;
#160 = LINE ( 'NONE', #228, #203 ) ;
#161 = LINE ( 'NONE', #76, #50 ) ;
#162 = DIRECTION ( 'NONE',  ( -0.000000000000000000, -1.000000000000000000, -0.000000000000000000 ) ) ;
#163 = AXIS2_PLACEMENT_3D ( 'NONE', #158, #146, #128 ) ;
#164 = CARTESIAN_POINT ( 'NONE',  ( -17.50000000000000000, 158.0000000000000000, 37.00000000000000711 ) ) ;
#165 = DATE_AND_TIME ( #77, #220 ) ;
#166 = ADVANCED_FACE ( 'NONE', ( #201 ), #129, .F. ) ;
#167 = LINE ( 'NONE', #233, #174 ) ;
#168 = DATE_TIME_ROLE ( 'classification_date' ) ;
#169 = EDGE_CURVE ( 'NONE', #175, #26, #199, .T. ) ;
#170 = COORDINATED_UNIVERSAL_TIME_OFFSET ( 12, 0, .AHEAD. ) ;
#171 = PERSON_AND_ORGANIZATION_ROLE ( 'design_supplier' ) ;
#172 = ORIENTED_EDGE ( 'NONE', *, *, #1, .T. ) ;
#173 = LOCAL_TIME ( 17, 50, 23.00000000000000000, #22 ) ;
#174 = VECTOR ( 'NONE', #235, 1000.000000000000000 ) ;
#175 = VERTEX_POINT ( 'NONE', #93 ) ;
#176 = CARTESIAN_POINT ( 'NONE',  ( 17.50000000000000000, 266.0000000000000000, 37.00000000000000711 ) ) ;
#177 = CARTESIAN_POINT ( 'NONE',  ( -17.50000000000000000, 158.0000000000000000, 37.00000000000000711 ) ) ;
#178 = DIRECTION ( 'NONE',  ( 0.000000000000000000, -0.000000000000000000, -1.000000000000000000 ) ) ;
#179 = ORIENTED_EDGE ( 'NONE', *, *, #236, .F. ) ;
#180 = DIRECTION ( 'NONE',  ( 0.000000000000000000, -1.000000000000000000, 0.000000000000000000 ) ) ;
#181 = DIRECTION ( 'NONE',  ( 0.000000000000000000, 1.000000000000000000, 0.000000000000000000 ) ) ;
#182 = DIRECTION ( 'NONE',  ( 0.000000000000000000, 0.000000000000000000, -1.000000000000000000 ) ) ;
#183 = LOCAL_TIME ( 17, 50, 23.00000000000000000, #188 ) ;
#184 = CC_DESIGN_APPROVAL ( #154, ( #124 ) ) ;
#185 = PERSON_AND_ORGANIZATION ( #150, #137 ) ;
#186 = EDGE_LOOP ( 'NONE', ( #153, #6, #229, #60 ) ) ;
#187 = PERSON_AND_ORGANIZATION_ROLE ( 'creator' ) ;
#188 = COORDINATED_UNIVERSAL_TIME_OFFSET ( 12, 0, .AHEAD. ) ;
#189 = ORIENTED_EDGE ( 'NONE', *, *, #85, .F. ) ;
#190 = VECTOR ( 'NONE', #51, 1000.000000000000000 ) ;
#191 = DIRECTION ( 'NONE',  ( -1.000000000000000000, 0.000000000000000000, 0.000000000000000000 ) ) ;
#192 = PRODUCT ( 'Battery CNHL 6S 2200mAh', 'Battery CNHL 6S 2200mAh', '', ( #21 ) ) ;
#193 = DIRECTION ( 'NONE',  ( -1.000000000000000000, 0.000000000000000000, -0.000000000000000000 ) ) ;
#194 = MANIFOLD_SOLID_BREP ( 'Boss-Extrude1', #156 ) ;
#195 = CARTESIAN_POINT ( 'NONE',  ( -17.50000000000000000, 266.0000000000000000, 37.00000000000000711 ) ) ;
#196 = PLANE ( 'NONE',  #91 ) ;
#197 = EDGE_LOOP ( 'NONE', ( #217, #157, #69, #116 ) ) ;
#198 = CC_DESIGN_DATE_AND_TIME_ASSIGNMENT ( #237, #218, ( #65 ) ) ;
#199 = LINE ( 'NONE', #39, #155 ) ;
#200 = PERSON_AND_ORGANIZATION ( #150, #137 ) ;
#201 = FACE_OUTER_BOUND ( 'NONE', #197, .T. ) ;
#202 = DIRECTION ( 'NONE',  ( -1.000000000000000000, 0.000000000000000000, -0.000000000000000000 ) ) ;
#203 = VECTOR ( 'NONE', #162, 1000.000000000000000 ) ;
#204 = AXIS2_PLACEMENT_3D ( 'NONE', #148, #54, #214 ) ;
#205 = ORIENTED_EDGE ( 'NONE', *, *, #78, .T. ) ;
#206 = CARTESIAN_POINT ( 'NONE',  ( 17.50000000000000000, 158.0000000000000000, -18.00000000000000000 ) ) ;
#207 = FACE_OUTER_BOUND ( 'NONE', #209, .T. ) ;
#208 = CARTESIAN_POINT ( 'NONE',  ( -17.50000000000000000, 266.0000000000000000, -18.00000000000000000 ) ) ;
#209 = EDGE_LOOP ( 'NONE', ( #205, #34, #140, #8 ) ) ;
#210 = APPROVAL_PERSON_ORGANIZATION ( #41, #97, #63 ) ;
#211 = PERSON_AND_ORGANIZATION ( #150, #137 ) ;
#212 = COORDINATED_UNIVERSAL_TIME_OFFSET ( 12, 0, .AHEAD. ) ;
#213 = EDGE_CURVE ( 'NONE', #175, #44, #167, .T. ) ;
#214 = DIRECTION ( 'NONE',  ( 1.000000000000000000, 0.000000000000000000, 0.000000000000000000 ) ) ;
#215 = VECTOR ( 'NONE', #73, 1000.000000000000000 ) ;
#216 = PERSON_AND_ORGANIZATION ( #150, #137 ) ;
#217 = ORIENTED_EDGE ( 'NONE', *, *, #85, .T. ) ;
#218 = DATE_TIME_ROLE ( 'creation_date' ) ;
#219 = PERSON_AND_ORGANIZATION ( #150, #137 ) ;
#220 = LOCAL_TIME ( 17, 50, 23.00000000000000000, #212 ) ;
#221 = EDGE_LOOP ( 'NONE', ( #4, #122, #12, #79 ) ) ;
#222 = VERTEX_POINT ( 'NONE', #136 ) ;
#223 = EDGE_CURVE ( 'NONE', #83, #89, #75, .T. ) ;
#224 = LINE ( 'NONE', #106, #20 ) ;
#225 = CC_DESIGN_DATE_AND_TIME_ASSIGNMENT ( #80, #168, ( #49 ) ) ;
#226 = DIRECTION ( 'NONE',  ( 0.000000000000000000, 0.000000000000000000, 1.000000000000000000 ) ) ;
#227 = CARTESIAN_POINT ( 'NONE',  ( -17.50000000000000000, 158.0000000000000000, 37.00000000000000711 ) ) ;
#228 = CARTESIAN_POINT ( 'NONE',  ( -17.50000000000000000, 158.0000000000000000, 37.00000000000000711 ) ) ;
#229 = ORIENTED_EDGE ( 'NONE', *, *, #1, .F. ) ;
#230 = VECTOR ( 'NONE', #70, 1000.000000000000000 ) ;
#231 = CARTESIAN_POINT ( 'NONE',  ( 17.50000000000000000, 266.0000000000000000, -18.00000000000000000 ) ) ;
#232 = CC_DESIGN_PERSON_AND_ORGANIZATION_ASSIGNMENT ( #211, #53, ( #65 ) ) ;
#233 = CARTESIAN_POINT ( 'NONE',  ( 17.50000000000000000, 158.0000000000000000, 37.00000000000000711 ) ) ;
#234 = COORDINATED_UNIVERSAL_TIME_OFFSET ( 12, 0, .AHEAD. ) ;
#235 = DIRECTION ( 'NONE',  ( -0.000000000000000000, -0.000000000000000000, -1.000000000000000000 ) ) ;
#236 = EDGE_CURVE ( 'NONE', #44, #142, #19, .T. ) ;
#237 = DATE_AND_TIME ( #96, #13 ) ;
ENDSEC;
END-ISO-10303-21;
