ISO-10303-21;
HEADER;
FILE_DESCRIPTION (( 'STEP AP203' ),
    '1' );
FILE_NAME ('Harness - VTX Antenna Coax.step',
    '2026-09-29T04:50:24',
    ( '' ),
    ( '' ),
    '',
    '',
    '' );
FILE_SCHEMA (( 'CONFIG_CONTROL_DESIGN' ));
ENDSEC;

DATA;
#1 = DIRECTION ( 'NONE',  ( 0.000000000000000000, 0.000000000000000000, 1.000000000000000000 ) ) ;
#2 = ADVANCED_FACE ( 'NONE', ( #146 ), #738, .T. ) ;
#3 = ORIENTED_EDGE ( 'NONE', *, *, #284, .F. ) ;
#4 = PERSON_AND_ORGANIZATION ( #158, #495 ) ;
#5 = VERTEX_POINT ( 'NONE', #911 ) ;
#6 = EDGE_CURVE ( 'NONE', #53, #270, #689, .T. ) ;
#7 = AXIS2_PLACEMENT_3D ( 'NONE', #973, #556, #224 ) ;
#8 = AXIS2_PLACEMENT_3D ( 'NONE', #385, #831, #576 ) ;
#9 = AXIS2_PLACEMENT_3D ( 'NONE', #617, #707, #538 ) ;
#10 = CIRCLE ( 'NONE', #254, 0.6000000000000033085 ) ;
#11 = VECTOR ( 'NONE', #931, 1000.000000000000000 ) ;
#12 = ADVANCED_BREP_SHAPE_REPRESENTATION ( 'Harness - VTX Antenna Coax', ( #474, #168 ), #968 ) ;
#13 = APPROVAL_STATUS ( 'not_yet_approved' ) ;
#14 = ORIENTED_EDGE ( 'NONE', *, *, #227, .T. ) ;
#15 = EDGE_CURVE ( 'NONE', #161, #406, #1074, .T. ) ;
#16 = CARTESIAN_POINT ( 'NONE',  ( -32.99999999999999289, 306.0000000000000000, -5.000000000000000000 ) ) ;
#17 = CC_DESIGN_PERSON_AND_ORGANIZATION_ASSIGNMENT ( #4, #277, ( #596 ) ) ;
#18 = LINE ( 'NONE', #609, #342 ) ;
#19 = COORDINATED_UNIVERSAL_TIME_OFFSET ( 12, 0, .AHEAD. ) ;
#20 = ORIENTED_EDGE ( 'NONE', *, *, #566, .T. ) ;
#21 = CARTESIAN_POINT ( 'NONE',  ( 1.560000000000005826, 309.0000000000000000, -5.599999999999999645 ) ) ;
#22 = COORDINATED_UNIVERSAL_TIME_OFFSET ( 12, 0, .AHEAD. ) ;
#23 = ORIENTED_EDGE ( 'NONE', *, *, #976, .F. ) ;
#24 = DIRECTION ( 'NONE',  ( 1.000000000000000000, 0.000000000000000000, 0.000000000000000000 ) ) ;
#25 = TOROIDAL_SURFACE ( 'NONE', #405, 2.000000000000000888, 0.5999999999999998668 ) ;
#26 = CARTESIAN_POINT ( 'NONE',  ( -33.00000000000000000, 90.50000000000000000, -1.000000000000003331 ) ) ;
#27 = DIRECTION ( 'NONE',  ( -1.000000000000000000, -0.000000000000000000, -0.000000000000000000 ) ) ;
#28 = ORIENTED_EDGE ( 'NONE', *, *, #899, .T. ) ;
#29 = ORIENTED_EDGE ( 'NONE', *, *, #701, .T. ) ;
#30 = DIRECTION ( 'NONE',  ( 0.000000000000000000, 1.000000000000000000, 0.000000000000000000 ) ) ;
#31 = CYLINDRICAL_SURFACE ( 'NONE', #1060, 0.5999999999999998668 ) ;
#32 = EDGE_CURVE ( 'NONE', #874, #306, #493, .T. ) ;
#33 = CARTESIAN_POINT ( 'NONE',  ( -32.99999999999997158, 309.0000000000000000, -5.599999999999999645 ) ) ;
#34 = ORIENTED_EDGE ( 'NONE', *, *, #114, .F. ) ;
#35 = ORIENTED_EDGE ( 'NONE', *, *, #189, .F. ) ;
#36 = CARTESIAN_POINT ( 'NONE',  ( 2.100000000000000089, 299.5000000000000000, -3.499999999999999556 ) ) ;
#37 = CARTESIAN_POINT ( 'NONE',  ( -36.00000000000000000, 290.8758872388292502, -1.000000000000000000 ) ) ;
#38 = DIRECTION ( 'NONE',  ( -1.000000000000000000, 0.000000000000000000, -0.000000000000000000 ) ) ;
#39 = ORIENTED_EDGE ( 'NONE', *, *, #784, .T. ) ;
#40 = CARTESIAN_POINT ( 'NONE',  ( -32.99999999999997158, 309.0000000000000000, -5.000000000000000000 ) ) ;
#41 = ADVANCED_FACE ( 'NONE', ( #228 ), #641, .T. ) ;
#42 = DIRECTION ( 'NONE',  ( 0.000000000000000000, -1.000000000000000000, 0.000000000000000000 ) ) ;
#43 = DIRECTION ( 'NONE',  ( 0.000000000000000000, -1.000000000000000000, 0.000000000000000000 ) ) ;
#44 = CIRCLE ( 'NONE', #184, 0.5999999999999998668 ) ;
#45 = DIRECTION ( 'NONE',  ( 0.000000000000000000, 1.000000000000000000, 0.000000000000000000 ) ) ;
#46 = AXIS2_PLACEMENT_3D ( 'NONE', #1082, #916, #822 ) ;
#47 = CIRCLE ( 'NONE', #81, 3.600000000000005862 ) ;
#48 = VERTEX_POINT ( 'NONE', #412 ) ;
#49 = AXIS2_PLACEMENT_3D ( 'NONE', #84, #894, #60 ) ;
#50 = FACE_OUTER_BOUND ( 'NONE', #96, .T. ) ;
#51 = CARTESIAN_POINT ( 'NONE',  ( 0.000000000000000000, 86.90000000000000568, -0.4000000000000000222 ) ) ;
#52 = PLANE ( 'NONE',  #917 ) ;
#53 = VERTEX_POINT ( 'NONE', #994 ) ;
#54 = CARTESIAN_POINT ( 'NONE',  ( 0.000000000000000000, 86.90000000000000568, -0.4000000000000000222 ) ) ;
#55 = CARTESIAN_POINT ( 'NONE',  ( 3.559999999999999609, 307.0000000000000000, -5.000000000000000000 ) ) ;
#56 = EDGE_CURVE ( 'NONE', #719, #1067, #169, .T. ) ;
#57 = ORIENTED_EDGE ( 'NONE', *, *, #579, .T. ) ;
#58 = FACE_OUTER_BOUND ( 'NONE', #587, .T. ) ;
#59 = DIRECTION ( 'NONE',  ( 0.000000000000000000, 0.000000000000000000, 1.000000000000000000 ) ) ;
#60 = DIRECTION ( 'NONE',  ( 1.000000000000000000, 0.000000000000000000, 0.000000000000000000 ) ) ;
#61 = ORIENTED_EDGE ( 'NONE', *, *, #294, .T. ) ;
#62 = CIRCLE ( 'NONE', #1019, 0.5999999999999998668 ) ;
#63 = AXIS2_PLACEMENT_3D ( 'NONE', #359, #601, #673 ) ;
#64 = DIRECTION ( 'NONE',  ( -1.000000000000000000, -0.000000000000000000, 0.000000000000000000 ) ) ;
#65 = FACE_OUTER_BOUND ( 'NONE', #243, .T. ) ;
#66 = EDGE_CURVE ( 'NONE', #97, #503, #919, .T. ) ;
#67 = ORIENTED_EDGE ( 'NONE', *, *, #524, .T. ) ;
#68 = CARTESIAN_POINT ( 'NONE',  ( 3.559999999999999609, 307.0000000000000000, -5.599999999999999645 ) ) ;
#69 = CARTESIAN_POINT ( 'NONE',  ( -36.00000000000000000, 289.2042648059006069, -4.633961810714293250 ) ) ;
#70 = CARTESIAN_POINT ( 'NONE',  ( 2.100000000000000089, 302.5000000000000000, -3.499999999999999556 ) ) ;
#71 = ORIENTED_EDGE ( 'NONE', *, *, #830, .T. ) ;
#72 = EDGE_CURVE ( 'NONE', #230, #686, #447, .T. ) ;
#73 = DIRECTION ( 'NONE',  ( 0.000000000000000000, -0.9084904526785733125, 0.4179056082321471188 ) ) ;
#74 = PRODUCT_DEFINITION_SHAPE ( 'NONE', 'NONE',  #596 ) ;
#75 = CARTESIAN_POINT ( 'NONE',  ( -36.00000000000000000, 279.1241127611707498, -1.000000000000003553 ) ) ;
#76 = ORIENTED_EDGE ( 'NONE', *, *, #651, .T. ) ;
#77 = LINE ( 'NONE', #162, #983 ) ;
#78 = ORIENTED_EDGE ( 'NONE', *, *, #215, .T. ) ;
#79 = AXIS2_PLACEMENT_3D ( 'NONE', #558, #720, #145 ) ;
#80 = DIRECTION ( 'NONE',  ( 0.000000000000000000, 0.000000000000000000, 1.000000000000000000 ) ) ;
#81 = AXIS2_PLACEMENT_3D ( 'NONE', #861, #594, #840 ) ;
#82 = DIRECTION ( 'NONE',  ( 0.000000000000000000, 0.9084904526785735346, -0.4179056082321471743 ) ) ;
#83 = CIRCLE ( 'NONE', #971, 0.6000000000000033085 ) ;
#84 = CARTESIAN_POINT ( 'NONE',  ( -32.99999999999999289, 93.50000000000000000, -0.4000000000000000222 ) ) ;
#85 = ORIENTED_EDGE ( 'NONE', *, *, #200, .F. ) ;
#86 = CARTESIAN_POINT ( 'NONE',  ( -33.00000000000000000, 89.89999999999999147, -0.4000000000000000222 ) ) ;
#87 = ORIENTED_EDGE ( 'NONE', *, *, #784, .F. ) ;
#88 = FACE_OUTER_BOUND ( 'NONE', #788, .T. ) ;
#89 = EDGE_CURVE ( 'NONE', #798, #491, #652, .T. ) ;
#90 = CYLINDRICAL_SURFACE ( 'NONE', #660, 0.5999999999999998668 ) ;
#91 = ADVANCED_FACE ( 'NONE', ( #58 ), #232, .T. ) ;
#92 = EDGE_LOOP ( 'NONE', ( #151, #593, #712, #345, #23, #1033 ) ) ;
#93 = ORIENTED_EDGE ( 'NONE', *, *, #242, .T. ) ;
#94 = DIRECTION ( 'NONE',  ( 0.000000000000000000, -1.000000000000000000, 0.000000000000000000 ) ) ;
#95 = CARTESIAN_POINT ( 'NONE',  ( -32.99999999999997158, 309.0000000000000000, -5.000000000000000000 ) ) ;
#96 = EDGE_LOOP ( 'NONE', ( #854, #198 ) ) ;
#97 = VERTEX_POINT ( 'NONE', #1076 ) ;
#98 = DIRECTION ( 'NONE',  ( -1.000000000000000000, 0.000000000000000000, 0.000000000000000000 ) ) ;
#99 = AXIS2_PLACEMENT_3D ( 'NONE', #195, #887, #631 ) ;
#100 = TOROIDAL_SURFACE ( 'NONE', #1073, 3.000000000000002665, 0.5999999999999998668 ) ;
#101 = ORIENTED_EDGE ( 'NONE', *, *, #787, .T. ) ;
#102 = DATE_AND_TIME ( #509, #779 ) ;
#103 = EDGE_LOOP ( 'NONE', ( #780, #297, #167, #251, #199, #654 ) ) ;
#104 = EDGE_CURVE ( 'NONE', #329, #112, #582, .T. ) ;
#105 = DIRECTION ( 'NONE',  ( 0.000000000000000000, 0.000000000000000000, 1.000000000000000000 ) ) ;
#106 = CARTESIAN_POINT ( 'NONE',  ( 0.000000000000000000, 89.00000000000000000, -1.000000000000003331 ) ) ;
#107 = COORDINATED_UNIVERSAL_TIME_OFFSET ( 12, 0, .AHEAD. ) ;
#108 = ORIENTED_EDGE ( 'NONE', *, *, #932, .T. ) ;
#109 = LINE ( 'NONE', #440, #904 ) ;
#110 = CARTESIAN_POINT ( 'NONE',  ( 4.160000000000000142, 307.0000000000000000, -5.000000000000000000 ) ) ;
#111 = LINE ( 'NONE', #449, #207 ) ;
#112 = VERTEX_POINT ( 'NONE', #722 ) ;
#113 = DIRECTION ( 'NONE',  ( 0.000000000000000000, -0.9084904526785733125, 0.4179056082321471188 ) ) ;
#114 = EDGE_CURVE ( 'NONE', #770, #263, #621, .T. ) ;
#115 = CIRCLE ( 'NONE', #721, 0.5999999999999998668 ) ;
#116 = CARTESIAN_POINT ( 'NONE',  ( -36.00000000000000000, 306.0000000000000568, -4.400000000000000355 ) ) ;
#117 = AXIS2_PLACEMENT_3D ( 'NONE', #809, #328, #746 ) ;
#118 = DIRECTION ( 'NONE',  ( 0.000000000000000000, 0.000000000000000000, 1.000000000000000000 ) ) ;
#119 = AXIS2_PLACEMENT_3D ( 'NONE', #37, #368, #706 ) ;
#120 = ORIENTED_EDGE ( 'NONE', *, *, #671, .F. ) ;
#121 = DIRECTION ( 'NONE',  ( 1.000000000000000000, 0.000000000000000000, 0.000000000000000000 ) ) ;
#122 = CARTESIAN_POINT ( 'NONE',  ( -33.00000000000000000, 90.50000000000000000, 0.2000000000000032863 ) ) ;
#123 = ADVANCED_FACE ( 'NONE', ( #308 ), #154, .T. ) ;
#124 = CARTESIAN_POINT ( 'NONE',  ( -1.499999999999999778, 89.00000000000000000, -0.3999999999999999667 ) ) ;
#125 = VERTEX_POINT ( 'NONE', #1069 ) ;
#126 = EDGE_CURVE ( 'NONE', #503, #135, #317, .T. ) ;
#127 = ORIENTED_EDGE ( 'NONE', *, *, #945, .T. ) ;
#128 = CARTESIAN_POINT ( 'NONE',  ( -1.499999999999999778, 89.00000000000000000, -0.4000000000000000222 ) ) ;
#129 = CARTESIAN_POINT ( 'NONE',  ( -32.99999999999999289, 306.0000000000000000, -5.000000000000000000 ) ) ;
#130 = DIRECTION ( 'NONE',  ( 1.000000000000000000, 0.000000000000000000, 0.000000000000000000 ) ) ;
#131 = AXIS2_PLACEMENT_3D ( 'NONE', #375, #280, #947 ) ;
#132 = CARTESIAN_POINT ( 'NONE',  ( -33.00000000000000000, 90.50000000000000000, -0.4000000000000000222 ) ) ;
#133 = TOROIDAL_SURFACE ( 'NONE', #740, 3.000000000000002665, 0.6000000000000033085 ) ;
#134 = CIRCLE ( 'NONE', #567, 1.400000000000001021 ) ;
#135 = VERTEX_POINT ( 'NONE', #655 ) ;
#136 = ADVANCED_FACE ( 'NONE', ( #159 ), #938, .T. ) ;
#137 = CIRCLE ( 'NONE', #222, 0.6000000000000033085 ) ;
#138 = ADVANCED_FACE ( 'NONE', ( #490 ), #133, .T. ) ;
#139 = CARTESIAN_POINT ( 'NONE',  ( 3.559999999999999609, 307.0000000000000000, -5.000000000000000000 ) ) ;
#140 = DIRECTION ( 'NONE',  ( 0.000000000000000000, -1.000000000000000000, 0.000000000000000000 ) ) ;
#141 = EDGE_LOOP ( 'NONE', ( #1017, #1055, #443, #57 ) ) ;
#142 = CYLINDRICAL_SURFACE ( 'NONE', #483, 0.6000000000000033085 ) ;
#143 = DIRECTION ( 'NONE',  ( 0.000000000000000000, 0.000000000000000000, 1.000000000000000000 ) ) ;
#144 = ORIENTED_EDGE ( 'NONE', *, *, #542, .T. ) ;
#145 = DIRECTION ( 'NONE',  ( 1.000000000000000000, 0.000000000000000000, 0.000000000000000000 ) ) ;
#146 = FACE_OUTER_BOUND ( 'NONE', #208, .T. ) ;
#147 = EDGE_CURVE ( 'NONE', #5, #1012, #273, .T. ) ;
#148 = DIRECTION ( 'NONE',  ( 0.000000000000000000, -1.000000000000000000, 0.000000000000000000 ) ) ;
#149 = FACE_OUTER_BOUND ( 'NONE', #103, .T. ) ;
#150 = AXIS2_PLACEMENT_3D ( 'NONE', #211, #219, #38 ) ;
#151 = ORIENTED_EDGE ( 'NONE', *, *, #325, .T. ) ;
#152 = FACE_OUTER_BOUND ( 'NONE', #396, .T. ) ;
#153 = AXIS2_PLACEMENT_3D ( 'NONE', #748, #572, #823 ) ;
#154 = CYLINDRICAL_SURFACE ( 'NONE', #322, 0.5999999999999998668 ) ;
#155 = PRODUCT ( 'Harness - VTX Antenna Coax', 'Harness - VTX Antenna Coax', '', ( #1021 ) ) ;
#156 = VERTEX_POINT ( 'NONE', #341 ) ;
#157 = EDGE_CURVE ( 'NONE', #125, #156, #10, .T. ) ;
#158 = PERSON ( 'UNSPECIFIED', 'UNSPECIFIED', 'UNSPECIFIED', ('UNSPECIFIED'), ('UNSPECIFIED'), ('UNSPECIFIED') ) ;
#159 = FACE_OUTER_BOUND ( 'NONE', #690, .T. ) ;
#160 = DIRECTION ( 'NONE',  ( 0.000000000000000000, -1.000000000000000000, 0.000000000000000000 ) ) ;
#161 = VERTEX_POINT ( 'NONE', #589 ) ;
#162 = CARTESIAN_POINT ( 'NONE',  ( 2.100000000000000089, 299.5000000000000000, -3.499999999999999556 ) ) ;
#163 = EDGE_CURVE ( 'NONE', #329, #1071, #47, .T. ) ;
#164 = CARTESIAN_POINT ( 'NONE',  ( -36.00000000000000000, 290.8758872388292502, -1.000000000000000000 ) ) ;
#165 = VERTEX_POINT ( 'NONE', #845 ) ;
#166 = DIRECTION ( 'NONE',  ( 0.000000000000000000, -0.4179056082321596644, -0.9084904526785675394 ) ) ;
#167 = ORIENTED_EDGE ( 'NONE', *, *, #500, .F. ) ;
#168 = AXIS2_PLACEMENT_3D ( 'NONE', #825, #192, #933 ) ;
#169 = CIRCLE ( 'NONE', #952, 0.5999999999999998668 ) ;
#170 = DIRECTION ( 'NONE',  ( 0.000000000000000000, 0.000000000000000000, 1.000000000000000000 ) ) ;
#171 = CIRCLE ( 'NONE', #390, 4.600000000000002309 ) ;
#172 = FACE_OUTER_BOUND ( 'NONE', #245, .T. ) ;
#173 = ORIENTED_EDGE ( 'NONE', *, *, #1053, .F. ) ;
#174 = PERSON_AND_ORGANIZATION ( #158, #495 ) ;
#175 = ORIENTED_EDGE ( 'NONE', *, *, #977, .T. ) ;
#176 = CARTESIAN_POINT ( 'NONE',  ( -0.6000000000000033085, 89.00000000000000000, -0.3999999999999999667 ) ) ;
#177 = DIRECTION ( 'NONE',  ( 0.000000000000000000, -1.000000000000000000, 0.000000000000000000 ) ) ;
#178 = ORIENTED_EDGE ( 'NONE', *, *, #439, .F. ) ;
#179 = DIRECTION ( 'NONE',  ( 0.000000000000000000, 0.000000000000000000, 1.000000000000000000 ) ) ;
#180 = FACE_OUTER_BOUND ( 'NONE', #281, .T. ) ;
#181 = ORIENTED_EDGE ( 'NONE', *, *, #371, .T. ) ;
#182 = PERSON_AND_ORGANIZATION_ROLE ( 'classification_officer' ) ;
#183 = ORIENTED_EDGE ( 'NONE', *, *, #361, .T. ) ;
#184 = AXIS2_PLACEMENT_3D ( 'NONE', #231, #838, #244 ) ;
#185 = DIRECTION ( 'NONE',  ( 1.000000000000000000, 0.000000000000000000, 0.000000000000000000 ) ) ;
#186 = CIRCLE ( 'NONE', #63, 0.5999999999999998668 ) ;
#187 = APPROVAL_DATE_TIME ( #1011, #527 ) ;
#188 = ORIENTED_EDGE ( 'NONE', *, *, #566, .F. ) ;
#189 = EDGE_CURVE ( 'NONE', #913, #967, #534, .T. ) ;
#190 = CYLINDRICAL_SURFACE ( 'NONE', #986, 0.6000000000000069722 ) ;
#191 = LINE ( 'NONE', #441, #11 ) ;
#192 = DIRECTION ( 'NONE',  ( 0.000000000000000000, 0.000000000000000000, 1.000000000000000000 ) ) ;
#193 = VERTEX_POINT ( 'NONE', #332 ) ;
#194 = ORIENTED_EDGE ( 'NONE', *, *, #600, .F. ) ;
#195 = CARTESIAN_POINT ( 'NONE',  ( -32.99999999999997158, 309.0000000000000000, -5.000000000000000000 ) ) ;
#196 = CARTESIAN_POINT ( 'NONE',  ( 7.347880794884159672E-17, 86.90000000000000568, 0.2000000000000032863 ) ) ;
#197 = CARTESIAN_POINT ( 'NONE',  ( -36.00000000000000000, 280.7957351940993931, -0.7660381892856948927 ) ) ;
#198 = ORIENTED_EDGE ( 'NONE', *, *, #242, .F. ) ;
#199 = ORIENTED_EDGE ( 'NONE', *, *, #683, .T. ) ;
#200 = EDGE_CURVE ( 'NONE', #165, #982, #678, .T. ) ;
#201 = DIRECTION ( 'NONE',  ( -1.000000000000000000, 0.000000000000000000, 0.000000000000000000 ) ) ;
#202 = CARTESIAN_POINT ( 'NONE',  ( 2.100000000000000089, 299.5000000000000000, -6.500000000000000000 ) ) ;
#203 = APPROVAL_PERSON_ORGANIZATION ( #1087, #1015, #344 ) ;
#204 = ADVANCED_FACE ( 'NONE', ( #88 ), #374, .T. ) ;
#205 = AXIS2_PLACEMENT_3D ( 'NONE', #16, #1026, #185 ) ;
#206 = DIRECTION ( 'NONE',  ( 1.000000000000000000, 0.000000000000000000, 0.000000000000000000 ) ) ;
#207 = VECTOR ( 'NONE', #804, 1000.000000000000000 ) ;
#208 = EDGE_LOOP ( 'NONE', ( #732, #181, #78, #962, #336, #849 ) ) ;
#209 = CARTESIAN_POINT ( 'NONE',  ( 5.100000000000000533, 299.5000000000000000, -3.499999999999999556 ) ) ;
#210 = DIRECTION ( 'NONE',  ( 0.000000000000000000, -1.000000000000000000, 0.000000000000000000 ) ) ;
#211 = CARTESIAN_POINT ( 'NONE',  ( 0.000000000000000000, 0.000000000000000000, -3.499999999999999556 ) ) ;
#212 = DIRECTION ( 'NONE',  ( 0.000000000000000000, 0.000000000000000000, 1.000000000000000000 ) ) ;
#213 = ADVANCED_FACE ( 'NONE', ( #771 ), #255, .T. ) ;
#214 = EDGE_LOOP ( 'NONE', ( #941, #1042, #14, #890, #996, #188 ) ) ;
#215 = EDGE_CURVE ( 'NONE', #775, #53, #238, .T. ) ;
#216 = CARTESIAN_POINT ( 'NONE',  ( -33.00000000000000000, 90.50000000000000000, 0.2000000000000032863 ) ) ;
#217 = DIRECTION ( 'NONE',  ( 0.000000000000000000, 0.000000000000000000, 1.000000000000000000 ) ) ;
#218 = CIRCLE ( 'NONE', #131, 0.6000000000000033085 ) ;
#219 = DIRECTION ( 'NONE',  ( 0.000000000000000000, 0.000000000000000000, -1.000000000000000000 ) ) ;
#220 = AXIS2_PLACEMENT_3D ( 'NONE', #428, #420, #179 ) ;
#221 = ORIENTED_EDGE ( 'NONE', *, *, #6, .T. ) ;
#222 = AXIS2_PLACEMENT_3D ( 'NONE', #279, #612, #946 ) ;
#223 = DIRECTION ( 'NONE',  ( 0.000000000000000000, 1.000000000000000000, 0.000000000000000000 ) ) ;
#224 = DIRECTION ( 'NONE',  ( 0.000000000000000000, 0.000000000000000000, 1.000000000000000000 ) ) ;
#225 = ORIENTED_EDGE ( 'NONE', *, *, #439, .T. ) ;
#226 = DIRECTION ( 'NONE',  ( 0.000000000000000000, -0.9084904526785733125, 0.4179056082321470633 ) ) ;
#227 = EDGE_CURVE ( 'NONE', #406, #819, #511, .T. ) ;
#228 = FACE_OUTER_BOUND ( 'NONE', #573, .T. ) ;
#229 = CARTESIAN_POINT ( 'NONE',  ( -32.99999999999999289, 306.0000000000000000, -5.000000000000000000 ) ) ;
#230 = VERTEX_POINT ( 'NONE', #176 ) ;
#231 = CARTESIAN_POINT ( 'NONE',  ( 1.560000000000005826, 309.0000000000000568, -5.000000000000000000 ) ) ;
#232 = CYLINDRICAL_SURFACE ( 'NONE', #8, 0.6000000000000033085 ) ;
#233 = EDGE_CURVE ( 'NONE', #135, #638, #171, .T. ) ;
#234 = CARTESIAN_POINT ( 'NONE',  ( -36.00000000000000000, 279.1241127611707498, -0.3999999999999923617 ) ) ;
#235 = AXIS2_PLACEMENT_3D ( 'NONE', #645, #307, #487 ) ;
#236 = ORIENTED_EDGE ( 'NONE', *, *, #1008, .T. ) ;
#237 = DIRECTION ( 'NONE',  ( -1.000000000000000000, 0.000000000000000000, 0.000000000000000000 ) ) ;
#238 = CIRCLE ( 'NONE', #220, 0.6000000000000033085 ) ;
#239 = DIRECTION ( 'NONE',  ( 0.000000000000000000, 0.000000000000000000, 1.000000000000000000 ) ) ;
#240 = CARTESIAN_POINT ( 'NONE',  ( 2.100000000000000089, 299.5000000000000000, -6.500000000000000000 ) ) ;
#241 = DIRECTION ( 'NONE',  ( 0.000000000000000000, 0.9084904526785700929, -0.4179056082321543908 ) ) ;
#242 = EDGE_CURVE ( 'NONE', #525, #260, #920, .T. ) ;
#243 = EDGE_LOOP ( 'NONE', ( #649, #1051, #144, #682 ) ) ;
#244 = DIRECTION ( 'NONE',  ( 0.000000000000000000, 0.000000000000000000, 1.000000000000000000 ) ) ;
#245 = EDGE_LOOP ( 'NONE', ( #700, #282, #906, #843 ) ) ;
#246 = ADVANCED_FACE ( 'NONE', ( #684 ), #611, .F. ) ;
#247 = CARTESIAN_POINT ( 'NONE',  ( 3.559999999999999609, 307.0000000000000000, -5.000000000000000000 ) ) ;
#248 = CARTESIAN_POINT ( 'NONE',  ( 2.100000000000000089, 302.5000000000000000, -3.499999999999999556 ) ) ;
#249 = ORIENTED_EDGE ( 'NONE', *, *, #126, .F. ) ;
#250 = PERSON_AND_ORGANIZATION_ROLE ( 'creator' ) ;
#251 = ORIENTED_EDGE ( 'NONE', *, *, #114, .T. ) ;
#252 = CLOSED_SHELL ( 'NONE', ( #477, #138, #554, #41, #347, #658, #213, #2, #999, #261, #324, #715, #123, #826, #637, #246, #535, #834, #910, #734, #821, #987, #1010, #403, #91, #897, #1020, #136, #394, #204, #434, #575, #455 ) ) ;
#253 = CIRCLE ( 'NONE', #9, 0.5999999999999998668 ) ;
#254 = AXIS2_PLACEMENT_3D ( 'NONE', #355, #98, #170 ) ;
#255 = CYLINDRICAL_SURFACE ( 'NONE', #410, 0.6000000000000033085 ) ;
#256 = CIRCLE ( 'NONE', #954, 0.6000000000000033085 ) ;
#257 = CC_DESIGN_PERSON_AND_ORGANIZATION_ASSIGNMENT ( #585, #269, ( #515 ) ) ;
#258 = FACE_OUTER_BOUND ( 'NONE', #592, .T. ) ;
#259 = ORIENTED_EDGE ( 'NONE', *, *, #925, .T. ) ;
#260 = VERTEX_POINT ( 'NONE', #435 ) ;
#261 = ADVANCED_FACE ( 'NONE', ( #607 ), #190, .T. ) ;
#262 = DIRECTION ( 'NONE',  ( 0.000000000000000000, -1.000000000000000000, 0.000000000000000000 ) ) ;
#263 = VERTEX_POINT ( 'NONE', #523 ) ;
#264 = SECURITY_CLASSIFICATION_LEVEL ( 'unclassified' ) ;
#265 = ORIENTED_EDGE ( 'NONE', *, *, #304, .F. ) ;
#266 = CARTESIAN_POINT ( 'NONE',  ( 5.100000000000000533, 299.5000000000000000, -3.499999999999999556 ) ) ;
#267 = DIRECTION ( 'NONE',  ( 0.000000000000000000, 0.000000000000000000, 1.000000000000000000 ) ) ;
#268 = EDGE_CURVE ( 'NONE', #452, #331, #109, .T. ) ;
#269 = PERSON_AND_ORGANIZATION_ROLE ( 'design_supplier' ) ;
#270 = VERTEX_POINT ( 'NONE', #692 ) ;
#271 = CIRCLE ( 'NONE', #463, 0.5999999999999998668 ) ;
#272 = DIRECTION ( 'NONE',  ( 0.000000000000000000, -0.4179056082321596644, -0.9084904526785675394 ) ) ;
#273 = CIRCLE ( 'NONE', #884, 3.399999999999995914 ) ;
#274 = TOROIDAL_SURFACE ( 'NONE', #305, 3.000000000000002665, 0.5999999999999998668 ) ;
#275 = CIRCLE ( 'NONE', #836, 0.5999999999999998668 ) ;
#276 = DIRECTION ( 'NONE',  ( -1.000000000000000000, 0.000000000000000000, 0.000000000000000000 ) ) ;
#277 = PERSON_AND_ORGANIZATION_ROLE ( 'creator' ) ;
#278 = CARTESIAN_POINT ( 'NONE',  ( -36.00000000000000000, 279.1241127611707498, -4.400000000000000355 ) ) ;
#279 = CARTESIAN_POINT ( 'NONE',  ( 0.000000000000000000, 89.00000000000000000, -0.4000000000000000222 ) ) ;
#280 = DIRECTION ( 'NONE',  ( -1.000000000000000000, 0.000000000000000000, 0.000000000000000000 ) ) ;
#281 = EDGE_LOOP ( 'NONE', ( #745, #108, #259, #901, #743 ) ) ;
#282 = ORIENTED_EDGE ( 'NONE', *, *, #579, .F. ) ;
#283 = LINE ( 'NONE', #36, #516 ) ;
#284 = EDGE_CURVE ( 'NONE', #798, #452, #283, .T. ) ;
#285 = DIRECTION ( 'NONE',  ( 0.000000000000000000, 0.000000000000000000, 1.000000000000000000 ) ) ;
#286 = DIRECTION ( 'NONE',  ( 0.000000000000000000, 0.4179056082321596088, 0.9084904526785677614 ) ) ;
#287 = EDGE_LOOP ( 'NONE', ( #320, #39, #768, #702, #194 ) ) ;
#288 = CARTESIAN_POINT ( 'NONE',  ( 5.100000000000000533, 302.5000000000000000, -6.500000000000000000 ) ) ;
#289 = CIRCLE ( 'NONE', #565, 0.6000000000000070832 ) ;
#290 = DIRECTION ( 'NONE',  ( 0.000000000000000000, 0.000000000000000000, 1.000000000000000000 ) ) ;
#291 = AXIS2_PLACEMENT_3D ( 'NONE', #627, #210, #972 ) ;
#292 = DIRECTION ( 'NONE',  ( 0.000000000000000000, 0.000000000000000000, 1.000000000000000000 ) ) ;
#293 = CIRCLE ( 'NONE', #568, 0.6000000000000033085 ) ;
#294 = EDGE_CURVE ( 'NONE', #97, #5, #526, .T. ) ;
#295 = FACE_OUTER_BOUND ( 'NONE', #478, .T. ) ;
#296 = CARTESIAN_POINT ( 'NONE',  ( -36.00000000000000000, 289.2042648059006069, -4.633961810714293250 ) ) ;
#297 = ORIENTED_EDGE ( 'NONE', *, *, #891, .F. ) ;
#298 = DIRECTION ( 'NONE',  ( 0.000000000000000000, 0.000000000000000000, 1.000000000000000000 ) ) ;
#299 = FACE_OUTER_BOUND ( 'NONE', #1086, .T. ) ;
#300 = ORIENTED_EDGE ( 'NONE', *, *, #268, .F. ) ;
#301 = DIRECTION ( 'NONE',  ( 0.000000000000000000, 0.000000000000000000, 1.000000000000000000 ) ) ;
#302 = VECTOR ( 'NONE', #1068, 1000.000000000000000 ) ;
#303 = CARTESIAN_POINT ( 'NONE',  ( -36.00000000000000000, 280.7957351940993931, -0.7660381892856948927 ) ) ;
#304 = EDGE_CURVE ( 'NONE', #331, #306, #1036, .T. ) ;
#305 = AXIS2_PLACEMENT_3D ( 'NONE', #548, #301, #783 ) ;
#306 = VERTEX_POINT ( 'NONE', #288 ) ;
#307 = DIRECTION ( 'NONE',  ( 0.000000000000000000, -1.000000000000000000, 0.000000000000000000 ) ) ;
#308 = FACE_OUTER_BOUND ( 'NONE', #562, .T. ) ;
#309 = FACE_OUTER_BOUND ( 'NONE', #365, .T. ) ;
#310 = DIRECTION ( 'NONE',  ( -1.000000000000000000, 0.000000000000000000, 0.000000000000000000 ) ) ;
#311 = ORIENTED_EDGE ( 'NONE', *, *, #817, .F. ) ;
#312 = DIRECTION ( 'NONE',  ( -1.000000000000000000, 0.000000000000000000, 0.000000000000000000 ) ) ;
#313 = EDGE_CURVE ( 'NONE', #491, #874, #446, .T. ) ;
#314 = EDGE_CURVE ( 'NONE', #112, #770, #762, .T. ) ;
#315 = CARTESIAN_POINT ( 'NONE',  ( -33.00000000000000000, 90.50000000000000000, -0.4000000000000000222 ) ) ;
#316 = ORIENTED_EDGE ( 'NONE', *, *, #163, .T. ) ;
#317 = LINE ( 'NONE', #907, #800 ) ;
#318 = DIRECTION ( 'NONE',  ( -1.000000000000000000, 0.000000000000000000, 0.000000000000000000 ) ) ;
#319 = AXIS2_PLACEMENT_3D ( 'NONE', #442, #460, #714 ) ;
#320 = ORIENTED_EDGE ( 'NONE', *, *, #542, .F. ) ;
#321 = DIRECTION ( 'NONE',  ( -0.000000000000000000, -1.000000000000000000, -0.000000000000000000 ) ) ;
#322 = AXIS2_PLACEMENT_3D ( 'NONE', #488, #400, #735 ) ;
#323 = VECTOR ( 'NONE', #27, 1000.000000000000000 ) ;
#324 = ADVANCED_FACE ( 'NONE', ( #453 ), #697, .T. ) ;
#325 = EDGE_CURVE ( 'NONE', #610, #913, #339, .T. ) ;
#326 = VERTEX_POINT ( 'NONE', #789 ) ;
#327 = ORIENTED_EDGE ( 'NONE', *, *, #104, .F. ) ;
#328 = DIRECTION ( 'NONE',  ( 0.000000000000000000, 1.000000000000000000, 0.000000000000000000 ) ) ;
#329 = VERTEX_POINT ( 'NONE', #949 ) ;
#330 = CALENDAR_DATE ( 2026, 29, 9 ) ;
#331 = VERTEX_POINT ( 'NONE', #533 ) ;
#332 = CARTESIAN_POINT ( 'NONE',  ( -33.00000000000000000, 90.50000000000000000, -1.000000000000003331 ) ) ;
#333 = DIRECTION ( 'NONE',  ( -1.000000000000000000, 0.000000000000000000, 0.000000000000000000 ) ) ;
#334 = EDGE_LOOP ( 'NONE', ( #173, #837, #265, #300 ) ) ;
#335 = APPROVAL_ROLE ( '' ) ;
#336 = ORIENTED_EDGE ( 'NONE', *, *, #632, .F. ) ;
#337 = EDGE_CURVE ( 'NONE', #343, #444, #134, .T. ) ;
#338 = LOCAL_TIME ( 17, 50, 24.00000000000000000, #107 ) ;
#339 = CIRCLE ( 'NONE', #659, 0.5999999999999998668 ) ;
#340 = APPROVAL_PERSON_ORGANIZATION ( #1006, #471, #335 ) ;
#341 = CARTESIAN_POINT ( 'NONE',  ( -1.500000000000001332, 89.89999999999999147, -0.3999999999999999667 ) ) ;
#342 = VECTOR ( 'NONE', #937, 1000.000000000000000 ) ;
#343 = VERTEX_POINT ( 'NONE', #703 ) ;
#344 = APPROVAL_ROLE ( '' ) ;
#345 = ORIENTED_EDGE ( 'NONE', *, *, #507, .F. ) ;
#346 = DIRECTION ( 'NONE',  ( 0.000000000000000000, 1.000000000000000000, 0.000000000000000000 ) ) ;
#347 = ADVANCED_FACE ( 'NONE', ( #876 ), #274, .T. ) ;
#348 = PLANE ( 'NONE',  #1043 ) ;
#349 = ORIENTED_EDGE ( 'NONE', *, *, #157, .T. ) ;
#350 = SHAPE_DEFINITION_REPRESENTATION ( #74, #12 ) ;
#351 = ORIENTED_EDGE ( 'NONE', *, *, #628, .T. ) ;
#352 = DIRECTION ( 'NONE',  ( 0.000000000000000000, 0.000000000000000000, 1.000000000000000000 ) ) ;
#353 = LINE ( 'NONE', #26, #536 ) ;
#354 = DATE_AND_TIME ( #860, #549 ) ;
#355 = CARTESIAN_POINT ( 'NONE',  ( -1.500000000000001332, 90.50000000000000000, -0.4000000000000000222 ) ) ;
#356 = VECTOR ( 'NONE', #130, 1000.000000000000000 ) ;
#357 = EDGE_CURVE ( 'NONE', #863, #610, #498, .T. ) ;
#358 = AXIS2_PLACEMENT_3D ( 'NONE', #132, #797, #867 ) ;
#359 = CARTESIAN_POINT ( 'NONE',  ( -36.00000000000000000, 306.0000000000000568, -5.000000000000000000 ) ) ;
#360 = CARTESIAN_POINT ( 'NONE',  ( -36.00000000000000000, 290.8758872388292502, -5.000000000000000000 ) ) ;
#361 = EDGE_CURVE ( 'NONE', #1067, #343, #708, .T. ) ;
#362 = CARTESIAN_POINT ( 'NONE',  ( -36.00000000000000000, 288.9535214409613104, -5.179056082321440435 ) ) ;
#363 = CARTESIAN_POINT ( 'NONE',  ( -33.00000000000000000, 90.50000000000000000, -0.4000000000000000222 ) ) ;
#364 = CARTESIAN_POINT ( 'NONE',  ( 2.100000000000000089, 299.5000000000000000, -3.499999999999999556 ) ) ;
#365 = EDGE_LOOP ( 'NONE', ( #991, #71, #666, #20, #668, #496 ) ) ;
#366 = ORIENTED_EDGE ( 'NONE', *, *, #976, .T. ) ;
#367 = CARTESIAN_POINT ( 'NONE',  ( -36.00000000000000000, 93.50000000000000000, -0.4000000000000000222 ) ) ;
#368 = DIRECTION ( 'NONE',  ( -1.000000000000000000, -0.000000000000000000, 0.000000000000000000 ) ) ;
#369 = CARTESIAN_POINT ( 'NONE',  ( -36.00000000000000000, 306.0000000000000568, -4.400000000000000355 ) ) ;
#370 = ORIENTED_EDGE ( 'NONE', *, *, #233, .F. ) ;
#371 = EDGE_CURVE ( 'NONE', #433, #775, #698, .T. ) ;
#372 = AXIS2_PLACEMENT_3D ( 'NONE', #1056, #407, #909 ) ;
#373 = CARTESIAN_POINT ( 'NONE',  ( 7.347880794884159672E-17, 89.00000000000000000, 0.2000000000000032863 ) ) ;
#374 = TOROIDAL_SURFACE ( 'NONE', #869, 1.500000000000001332, 0.6000000000000033085 ) ;
#375 = CARTESIAN_POINT ( 'NONE',  ( -1.500000000000001332, 90.50000000000000000, -0.4000000000000000222 ) ) ;
#376 = TOROIDAL_SURFACE ( 'NONE', #905, 2.000000000000000888, 0.5999999999999998668 ) ;
#377 = ORIENTED_EDGE ( 'NONE', *, *, #215, .F. ) ;
#378 = DIRECTION ( 'NONE',  ( -1.000000000000000000, 0.000000000000000000, 0.000000000000000000 ) ) ;
#379 = EDGE_CURVE ( 'NONE', #686, #525, #892, .T. ) ;
#380 = DIRECTION ( 'NONE',  ( 0.000000000000000000, 0.000000000000000000, -1.000000000000000000 ) ) ;
#381 = ORIENTED_EDGE ( 'NONE', *, *, #1045, .F. ) ;
#382 = CARTESIAN_POINT ( 'NONE',  ( -36.00000000000000000, 290.8758872388292502, -4.399999999999996803 ) ) ;
#383 = CARTESIAN_POINT ( 'NONE',  ( -36.00000000000000000, 306.0000000000000568, -5.000000000000000000 ) ) ;
#384 = ORIENTED_EDGE ( 'NONE', *, *, #157, .F. ) ;
#385 = CARTESIAN_POINT ( 'NONE',  ( -36.00000000000000000, 279.1241127611707498, -0.4000000000000001887 ) ) ;
#386 = AXIS2_PLACEMENT_3D ( 'NONE', #978, #663, #903 ) ;
#387 = CIRCLE ( 'NONE', #7, 0.5999999999999998668 ) ;
#388 = EDGE_CURVE ( 'NONE', #193, #1071, #624, .T. ) ;
#389 = DIRECTION ( 'NONE',  ( 0.000000000000000000, 0.000000000000000000, 1.000000000000000000 ) ) ;
#390 = AXIS2_PLACEMENT_3D ( 'NONE', #278, #505, #850 ) ;
#391 = LINE ( 'NONE', #75, #988 ) ;
#392 = CIRCLE ( 'NONE', #1003, 0.6000000000000033085 ) ;
#393 = VERTEX_POINT ( 'NONE', #872 ) ;
#394 = ADVANCED_FACE ( 'NONE', ( #640 ), #464, .T. ) ;
#395 = DIRECTION ( 'NONE',  ( 0.000000000000000000, 1.000000000000000000, 0.000000000000000000 ) ) ;
#396 = EDGE_LOOP ( 'NONE', ( #249, #875, #61, #28 ) ) ;
#397 =( NAMED_UNIT ( * ) SI_UNIT ( $, .STERADIAN. ) SOLID_ANGLE_UNIT ( ) );
#398 = EDGE_CURVE ( 'NONE', #1012, #638, #691, .T. ) ;
#399 = CC_DESIGN_PERSON_AND_ORGANIZATION_ASSIGNMENT ( #174, #182, ( #763 ) ) ;
#400 = DIRECTION ( 'NONE',  ( 0.000000000000000000, 1.000000000000000000, 0.000000000000000000 ) ) ;
#401 = ORIENTED_EDGE ( 'NONE', *, *, #462, .T. ) ;
#402 = CARTESIAN_POINT ( 'NONE',  ( 1.560000000000000275, 307.0000000000000000, -5.000000000000000000 ) ) ;
#403 = ADVANCED_FACE ( 'NONE', ( #295 ), #31, .T. ) ;
#404 = DIRECTION ( 'NONE',  ( -1.000000000000000000, -0.000000000000000000, 0.000000000000000000 ) ) ;
#405 = AXIS2_PLACEMENT_3D ( 'NONE', #402, #729, #820 ) ;
#406 = VERTEX_POINT ( 'NONE', #959 ) ;
#407 = DIRECTION ( 'NONE',  ( 0.000000000000000000, 1.000000000000000000, 0.000000000000000000 ) ) ;
#408 = CC_DESIGN_APPROVAL ( #527, ( #515 ) ) ;
#409 = ORIENTED_EDGE ( 'NONE', *, *, #1024, .T. ) ;
#410 = AXIS2_PLACEMENT_3D ( 'NONE', #930, #926, #935 ) ;
#411 = TOROIDAL_SURFACE ( 'NONE', #153, 3.999999999999999112, 0.6000000000000033085 ) ;
#412 = CARTESIAN_POINT ( 'NONE',  ( 3.559999999999999609, 307.0000000000000000, -4.400000000000000355 ) ) ;
#413 = DIRECTION ( 'NONE',  ( -1.000000000000000000, 0.000000000000000000, -0.000000000000000000 ) ) ;
#414 = EDGE_LOOP ( 'NONE', ( #922, #221, #546, #67, #755, #384 ) ) ;
#415 = VERTEX_POINT ( 'NONE', #382 ) ;
#416 = DIRECTION ( 'NONE',  ( 0.000000000000000000, 0.000000000000000000, -1.000000000000000000 ) ) ;
#417 = CARTESIAN_POINT ( 'NONE',  ( 7.347880794884159672E-17, 89.00000000000000000, 0.2000000000000032863 ) ) ;
#418 = ORIENTED_EDGE ( 'NONE', *, *, #294, .F. ) ;
#419 = EDGE_LOOP ( 'NONE', ( #327, #316, #461, #175, #34, #764 ) ) ;
#420 = DIRECTION ( 'NONE',  ( -1.000000000000000000, 0.000000000000000000, 0.000000000000000000 ) ) ;
#421 = CARTESIAN_POINT ( 'NONE',  ( 1.560000000000000275, 307.0000000000000000, -5.000000000000000000 ) ) ;
#422 = ORIENTED_EDGE ( 'NONE', *, *, #1084, .F. ) ;
#423 = DATE_AND_TIME ( #330, #338 ) ;
#424 = AXIS2_PLACEMENT_3D ( 'NONE', #229, #143, #1062 ) ;
#425 = ORIENTED_EDGE ( 'NONE', *, *, #830, .F. ) ;
#426 = EDGE_CURVE ( 'NONE', #415, #982, #256, .T. ) ;
#427 = VECTOR ( 'NONE', #113, 1000.000000000000227 ) ;
#428 = CARTESIAN_POINT ( 'NONE',  ( -1.500000000000001332, 90.50000000000000000, -0.4000000000000000222 ) ) ;
#429 = AXIS2_PLACEMENT_3D ( 'NONE', #296, #1050, #960 ) ;
#430 = DIRECTION ( 'NONE',  ( 0.000000000000000000, 0.000000000000000000, 1.000000000000000000 ) ) ;
#431 = ORIENTED_EDGE ( 'NONE', *, *, #878, .T. ) ;
#432 = PERSON_AND_ORGANIZATION ( #158, #495 ) ;
#433 = VERTEX_POINT ( 'NONE', #216 ) ;
#434 = ADVANCED_FACE ( 'NONE', ( #555 ), #142, .T. ) ;
#435 = CARTESIAN_POINT ( 'NONE',  ( 0.000000000000000000, 86.90000000000000568, -1.000000000000003331 ) ) ;
#436 = CARTESIAN_POINT ( 'NONE',  ( -33.00000000000000000, 90.50000000000000000, -0.4000000000000000222 ) ) ;
#437 = DATE_AND_TIME ( #504, #1040 ) ;
#438 = ORIENTED_EDGE ( 'NONE', *, *, #6, .F. ) ;
#439 = EDGE_CURVE ( 'NONE', #415, #503, #642, .T. ) ;
#440 = CARTESIAN_POINT ( 'NONE',  ( 2.100000000000000089, 299.5000000000000000, -6.500000000000000000 ) ) ;
#441 = CARTESIAN_POINT ( 'NONE',  ( 3.559999999999999609, 302.5000000000000000, -5.599999999999999645 ) ) ;
#442 = CARTESIAN_POINT ( 'NONE',  ( 1.560000000000005826, 309.0000000000000568, -5.000000000000000000 ) ) ;
#443 = ORIENTED_EDGE ( 'NONE', *, *, #313, .F. ) ;
#444 = VERTEX_POINT ( 'NONE', #950 ) ;
#445 = CIRCLE ( 'NONE', #1057, 0.6000000000000033085 ) ;
#446 = LINE ( 'NONE', #209, #1041 ) ;
#447 = CIRCLE ( 'NONE', #117, 0.6000000000000033085 ) ;
#448 = AXIS2_PLACEMENT_3D ( 'NONE', #367, #782, #540 ) ;
#449 = CARTESIAN_POINT ( 'NONE',  ( -36.00000000000000000, 279.1241127611707498, 0.2000000000000031197 ) ) ;
#450 = ORIENTED_EDGE ( 'NONE', *, *, #945, .F. ) ;
#451 = CC_DESIGN_PERSON_AND_ORGANIZATION_ASSIGNMENT ( #669, #1016, ( #155 ) ) ;
#452 = VERTEX_POINT ( 'NONE', #202 ) ;
#453 = FACE_OUTER_BOUND ( 'NONE', #989, .T. ) ;
#454 = DIRECTION ( 'NONE',  ( 0.000000000000000000, 1.000000000000000000, 0.000000000000000000 ) ) ;
#455 = ADVANCED_FACE ( 'NONE', ( #50 ), #537, .F. ) ;
#456 = CARTESIAN_POINT ( 'NONE',  ( 2.100000000000000089, 302.5000000000000000, -3.499999999999999556 ) ) ;
#457 = ORIENTED_EDGE ( 'NONE', *, *, #899, .F. ) ;
#458 = CARTESIAN_POINT ( 'NONE',  ( 5.100000000000000533, 299.5000000000000000, -6.500000000000000000 ) ) ;
#459 = DIRECTION ( 'NONE',  ( -1.000000000000000000, 0.000000000000000000, 0.000000000000000000 ) ) ;
#460 = DIRECTION ( 'NONE',  ( -1.000000000000000000, -4.336808689942013792E-16, 0.000000000000000000 ) ) ;
#461 = ORIENTED_EDGE ( 'NONE', *, *, #772, .T. ) ;
#462 = EDGE_CURVE ( 'NONE', #982, #97, #1077, .T. ) ;
#463 = AXIS2_PLACEMENT_3D ( 'NONE', #383, #148, #1083 ) ;
#464 = CYLINDRICAL_SURFACE ( 'NONE', #291, 0.6000000000000033085 ) ;
#465 = CARTESIAN_POINT ( 'NONE',  ( 1.560000000000005826, 309.0000000000000568, -5.000000000000000000 ) ) ;
#466 = AXIS2_PLACEMENT_3D ( 'NONE', #470, #223, #1044 ) ;
#467 = FACE_OUTER_BOUND ( 'NONE', #1034, .T. ) ;
#468 = CIRCLE ( 'NONE', #499, 0.6000000000000033085 ) ;
#469 = ORIENTED_EDGE ( 'NONE', *, *, #864, .T. ) ;
#470 = CARTESIAN_POINT ( 'NONE',  ( -36.00000000000000000, 279.1241127611707498, -0.3999999999999923617 ) ) ;
#471 = APPROVAL ( #848, 'UNSPECIFIED' ) ;
#472 = FACE_OUTER_BOUND ( 'NONE', #334, .T. ) ;
#473 = EDGE_LOOP ( 'NONE', ( #1081, #974, #676, #808, #349, #469 ) ) ;
#474 = MANIFOLD_SOLID_BREP ( 'Sweep4', #252 ) ;
#475 = DIRECTION ( 'NONE',  ( -0.000000000000000000, -0.000000000000000000, -1.000000000000000000 ) ) ;
#476 = DIRECTION ( 'NONE',  ( -1.000000000000000000, 0.000000000000000000, 0.000000000000000000 ) ) ;
#477 = ADVANCED_FACE ( 'NONE', ( #1037 ), #741, .T. ) ;
#478 = EDGE_LOOP ( 'NONE', ( #120, #431, #882, #450, #512 ) ) ;
#479 = CARTESIAN_POINT ( 'NONE',  ( 0.000000000000000000, 89.00000000000000000, -1.000000000000003331 ) ) ;
#480 = DIRECTION ( 'NONE',  ( 0.000000000000000000, 0.000000000000000000, -1.000000000000000000 ) ) ;
#481 = VECTOR ( 'NONE', #571, 1000.000000000000000 ) ;
#482 = CARTESIAN_POINT ( 'NONE',  ( -36.00000000000000000, 306.0000000000000568, -5.000000000000000000 ) ) ;
#483 = AXIS2_PLACEMENT_3D ( 'NONE', #363, #790, #803 ) ;
#484 = DIRECTION ( 'NONE',  ( 0.000000000000000000, 0.000000000000000000, 1.000000000000000000 ) ) ;
#485 = VECTOR ( 'NONE', #957, 1000.000000000000000 ) ;
#486 = ORIENTED_EDGE ( 'NONE', *, *, #628, .F. ) ;
#487 = DIRECTION ( 'NONE',  ( 0.000000000000000000, 0.000000000000000000, -1.000000000000000000 ) ) ;
#488 = CARTESIAN_POINT ( 'NONE',  ( 3.559999999999999609, 302.5000000000000000, -5.000000000000000000 ) ) ;
#489 = ORIENTED_EDGE ( 'NONE', *, *, #878, .F. ) ;
#490 = FACE_OUTER_BOUND ( 'NONE', #419, .T. ) ;
#491 = VERTEX_POINT ( 'NONE', #877 ) ;
#492 =( NAMED_UNIT ( * ) PLANE_ANGLE_UNIT ( ) SI_UNIT ( $, .RADIAN. ) );
#493 = LINE ( 'NONE', #1065, #1001 ) ;
#494 = DIRECTION ( 'NONE',  ( 0.000000000000000000, 0.000000000000000000, 1.000000000000000000 ) ) ;
#495 = ORGANIZATION ( 'UNSPECIFIED', 'UNSPECIFIED', '' ) ;
#496 = ORIENTED_EDGE ( 'NONE', *, *, #701, .F. ) ;
#497 = ORIENTED_EDGE ( 'NONE', *, *, #1058, .F. ) ;
#498 = CIRCLE ( 'NONE', #99, 0.5999999999999998668 ) ;
#499 = AXIS2_PLACEMENT_3D ( 'NONE', #1066, #1014, #921 ) ;
#500 = EDGE_CURVE ( 'NONE', #770, #598, #724, .T. ) ;
#501 = DIRECTION ( 'NONE',  ( 0.000000000000000000, 0.000000000000000000, 1.000000000000000000 ) ) ;
#502 = DIRECTION ( 'NONE',  ( 1.000000000000000000, 0.000000000000000000, 0.000000000000000000 ) ) ;
#503 = VERTEX_POINT ( 'NONE', #796 ) ;
#504 = CALENDAR_DATE ( 2026, 29, 9 ) ;
#505 = DIRECTION ( 'NONE',  ( 1.000000000000000000, 0.000000000000000000, 0.000000000000000000 ) ) ;
#506 = EDGE_CURVE ( 'NONE', #578, #161, #550, .T. ) ;
#507 = EDGE_CURVE ( 'NONE', #1047, #529, #677, .T. ) ;
#508 = EDGE_LOOP ( 'NONE', ( #311, #604, #618, #418 ) ) ;
#509 = CALENDAR_DATE ( 2026, 29, 9 ) ;
#510 = ORIENTED_EDGE ( 'NONE', *, *, #32, .T. ) ;
#511 = LINE ( 'NONE', #21, #855 ) ;
#512 = ORIENTED_EDGE ( 'NONE', *, *, #361, .F. ) ;
#513 = AXIS2_PLACEMENT_3D ( 'NONE', #914, #226, #166 ) ;
#514 = ORIENTED_EDGE ( 'NONE', *, *, #846, .T. ) ;
#515 = PRODUCT_DEFINITION_FORMATION_WITH_SPECIFIED_SOURCE ( 'ANY', '', #155, .NOT_KNOWN. ) ;
#516 = VECTOR ( 'NONE', #865, 1000.000000000000000 ) ;
#517 = DIRECTION ( 'NONE',  ( -1.000000000000000000, 0.000000000000000000, 0.000000000000000000 ) ) ;
#518 = AXIS2_PLACEMENT_3D ( 'NONE', #1049, #43, #711 ) ;
#519 = CARTESIAN_POINT ( 'NONE',  ( 2.100000000000000089, 299.5000000000000000, -3.499999999999999556 ) ) ;
#520 = DATE_TIME_ROLE ( 'creation_date' ) ;
#521 = EDGE_LOOP ( 'NONE', ( #1079, #489 ) ) ;
#522 = EDGE_CURVE ( 'NONE', #260, #525, #766, .T. ) ;
#523 = CARTESIAN_POINT ( 'NONE',  ( -33.00000000000000000, 91.09999999999999432, -0.4000000000000000777 ) ) ;
#524 = EDGE_CURVE ( 'NONE', #1005, #230, #137, .T. ) ;
#525 = VERTEX_POINT ( 'NONE', #196 ) ;
#526 = LINE ( 'NONE', #362, #427 ) ;
#527 = APPROVAL ( #13, 'UNSPECIFIED' ) ;
#528 = PLANE ( 'NONE',  #150 ) ;
#529 = VERTEX_POINT ( 'NONE', #116 ) ;
#530 = ORIENTED_EDGE ( 'NONE', *, *, #639, .F. ) ;
#531 = AXIS2_PLACEMENT_3D ( 'NONE', #164, #64, #239 ) ;
#532 = AXIS2_PLACEMENT_3D ( 'NONE', #197, #951, #286 ) ;
#533 = CARTESIAN_POINT ( 'NONE',  ( 5.100000000000000533, 299.5000000000000000, -6.500000000000000000 ) ) ;
#534 = CIRCLE ( 'NONE', #205, 3.600000000000002309 ) ;
#535 = ADVANCED_FACE ( 'NONE', ( #1031, #818 ), #912, .F. ) ;
#536 = VECTOR ( 'NONE', #595, 1000.000000000000000 ) ;
#537 = PLANE ( 'NONE',  #940 ) ;
#538 = DIRECTION ( 'NONE',  ( 0.000000000000000000, 0.000000000000000000, 1.000000000000000000 ) ) ;
#539 = ORIENTED_EDGE ( 'NONE', *, *, #704, .F. ) ;
#540 = DIRECTION ( 'NONE',  ( 0.000000000000000000, 0.000000000000000000, 1.000000000000000000 ) ) ;
#541 = DIRECTION ( 'NONE',  ( 0.000000000000000000, 0.000000000000000000, 1.000000000000000000 ) ) ;
#542 = EDGE_CURVE ( 'NONE', #638, #1012, #392, .T. ) ;
#543 = ORIENTED_EDGE ( 'NONE', *, *, #925, .F. ) ;
#544 = CARTESIAN_POINT ( 'NONE',  ( 3.559999999999999609, 302.5000000000000000, -5.000000000000000000 ) ) ;
#545 = DIRECTION ( 'NONE',  ( -0.000000000000000000, -0.000000000000000000, -1.000000000000000000 ) ) ;
#546 = ORIENTED_EDGE ( 'NONE', *, *, #639, .T. ) ;
#547 = CIRCLE ( 'NONE', #79, 2.600000000000000533 ) ;
#548 = CARTESIAN_POINT ( 'NONE',  ( -32.99999999999999289, 306.0000000000000000, -5.000000000000000000 ) ) ;
#549 = LOCAL_TIME ( 17, 50, 24.00000000000000000, #602 ) ;
#550 = CIRCLE ( 'NONE', #886, 0.5999999999999998668 ) ;
#551 = CARTESIAN_POINT ( 'NONE',  ( -32.99999999999997158, 308.4000000000000341, -5.000000000000000000 ) ) ;
#552 = TOROIDAL_SURFACE ( 'NONE', #49, 3.000000000000002665, 0.6000000000000033085 ) ;
#553 = ORIENTED_EDGE ( 'NONE', *, *, #72, .T. ) ;
#554 = ADVANCED_FACE ( 'NONE', ( #65 ), #411, .T. ) ;
#555 = FACE_OUTER_BOUND ( 'NONE', #473, .T. ) ;
#556 = DIRECTION ( 'NONE',  ( 0.000000000000000000, 1.000000000000000000, 0.000000000000000000 ) ) ;
#557 = ORIENTED_EDGE ( 'NONE', *, *, #749, .T. ) ;
#558 = CARTESIAN_POINT ( 'NONE',  ( 1.560000000000000275, 307.0000000000000000, -5.000000000000000000 ) ) ;
#559 = DIRECTION ( 'NONE',  ( 1.000000000000000000, 0.000000000000000000, 0.000000000000000000 ) ) ;
#560 = DIRECTION ( 'NONE',  ( 0.000000000000000000, 0.4179056082321596088, 0.9084904526785677614 ) ) ;
#561 = DIRECTION ( 'NONE',  ( 0.000000000000000000, -0.000000000000000000, -1.000000000000000000 ) ) ;
#562 = EDGE_LOOP ( 'NONE', ( #236, #728, #1028, #824, #497 ) ) ;
#563 = FACE_OUTER_BOUND ( 'NONE', #670, .T. ) ;
#564 = DIRECTION ( 'NONE',  ( 1.000000000000000000, 0.000000000000000000, 0.000000000000000000 ) ) ;
#565 = AXIS2_PLACEMENT_3D ( 'NONE', #303, #82, #560 ) ;
#566 = EDGE_CURVE ( 'NONE', #578, #610, #828, .T. ) ;
#567 = AXIS2_PLACEMENT_3D ( 'NONE', #956, #871, #121 ) ;
#568 = AXIS2_PLACEMENT_3D ( 'NONE', #679, #927, #267 ) ;
#569 = ORIENTED_EDGE ( 'NONE', *, *, #147, .T. ) ;
#570 = APPLICATION_PROTOCOL_DEFINITION ( 'international standard', 'config_control_design', 1994, #833 ) ;
#571 = DIRECTION ( 'NONE',  ( 1.000000000000000000, 0.000000000000000000, 0.000000000000000000 ) ) ;
#572 = DIRECTION ( 'NONE',  ( 1.000000000000000000, 0.000000000000000000, 0.000000000000000000 ) ) ;
#573 = EDGE_LOOP ( 'NONE', ( #829, #401, #614, #178 ) ) ;
#574 = LINE ( 'NONE', #990, #799 ) ;
#575 = ADVANCED_FACE ( 'NONE', ( #149 ), #552, .T. ) ;
#576 = DIRECTION ( 'NONE',  ( 0.000000000000000000, 0.000000000000000000, -1.000000000000000000 ) ) ;
#577 = DIRECTION ( 'NONE',  ( 0.000000000000000000, 1.000000000000000000, 0.000000000000000000 ) ) ;
#578 = VERTEX_POINT ( 'NONE', #908 ) ;
#579 = EDGE_CURVE ( 'NONE', #491, #331, #1085, .T. ) ;
#580 = CARTESIAN_POINT ( 'NONE',  ( -32.99999999999999289, 93.50000000000000000, -0.4000000000000000777 ) ) ;
#581 = DIRECTION ( 'NONE',  ( -1.000000000000000000, 0.000000000000000000, 0.000000000000000000 ) ) ;
#582 = CIRCLE ( 'NONE', #46, 0.6000000000000033085 ) ;
#583 = AXIS2_PLACEMENT_3D ( 'NONE', #747, #1054, #413 ) ;
#584 = ORIENTED_EDGE ( 'NONE', *, *, #651, .F. ) ;
#585 = PERSON_AND_ORGANIZATION ( #158, #495 ) ;
#586 = AXIS2_PLACEMENT_3D ( 'NONE', #69, #241, #730 ) ;
#587 = EDGE_LOOP ( 'NONE', ( #87, #948, #630, #1088, #928 ) ) ;
#588 = AXIS2_PLACEMENT_3D ( 'NONE', #139, #717, #298 ) ;
#589 = CARTESIAN_POINT ( 'NONE',  ( 1.560000000000005604, 309.5999999999999659, -5.000000000000000000 ) ) ;
#590 = EDGE_CURVE ( 'NONE', #53, #125, #83, .T. ) ;
#591 = DIRECTION ( 'NONE',  ( 0.000000000000000000, 1.000000000000000000, 0.000000000000000000 ) ) ;
#592 = EDGE_LOOP ( 'NONE', ( #619, #895, #644, #381, #754, #127 ) ) ;
#593 = ORIENTED_EDGE ( 'NONE', *, *, #189, .T. ) ;
#594 = DIRECTION ( 'NONE',  ( 0.000000000000000000, 0.000000000000000000, 1.000000000000000000 ) ) ;
#595 = DIRECTION ( 'NONE',  ( 1.000000000000000000, 0.000000000000000000, 0.000000000000000000 ) ) ;
#596 = PRODUCT_DEFINITION ( 'UNKNOWN', '', #515, #963 ) ;
#597 = APPROVAL_STATUS ( 'not_yet_approved' ) ;
#598 = VERTEX_POINT ( 'NONE', #667 ) ;
#599 = CARTESIAN_POINT ( 'NONE',  ( -36.00000000000000000, 306.0000000000000568, -5.599999999999999645 ) ) ;
#600 = EDGE_CURVE ( 'NONE', #1012, #598, #391, .T. ) ;
#601 = DIRECTION ( 'NONE',  ( 0.000000000000000000, -1.000000000000000000, 0.000000000000000000 ) ) ;
#602 = COORDINATED_UNIVERSAL_TIME_OFFSET ( 12, 0, .AHEAD. ) ;
#603 = CIRCLE ( 'NONE', #424, 2.400000000000003020 ) ;
#604 = ORIENTED_EDGE ( 'NONE', *, *, #126, .T. ) ;
#605 = AXIS2_PLACEMENT_3D ( 'NONE', #827, #404, #776 ) ;
#606 = AXIS2_PLACEMENT_3D ( 'NONE', #266, #517, #105 ) ;
#607 = FACE_OUTER_BOUND ( 'NONE', #508, .T. ) ;
#608 = CIRCLE ( 'NONE', #429, 0.6000000000000053069 ) ;
#609 = CARTESIAN_POINT ( 'NONE',  ( 2.100000000000000089, 302.5000000000000000, -3.499999999999999556 ) ) ;
#610 = VERTEX_POINT ( 'NONE', #731 ) ;
#611 = PLANE ( 'NONE',  #606 ) ;
#612 = DIRECTION ( 'NONE',  ( 0.000000000000000000, 1.000000000000000000, 0.000000000000000000 ) ) ;
#613 = LINE ( 'NONE', #369, #936 ) ;
#614 = ORIENTED_EDGE ( 'NONE', *, *, #66, .T. ) ;
#615 = DIRECTION ( 'NONE',  ( 0.000000000000000000, 0.000000000000000000, 1.000000000000000000 ) ) ;
#616 = DIRECTION ( 'NONE',  ( 0.000000000000000000, 0.000000000000000000, 1.000000000000000000 ) ) ;
#617 = CARTESIAN_POINT ( 'NONE',  ( 3.559999999999999609, 302.5000000000000000, -5.000000000000000000 ) ) ;
#618 = ORIENTED_EDGE ( 'NONE', *, *, #866, .T. ) ;
#619 = ORIENTED_EDGE ( 'NONE', *, *, #961, .T. ) ;
#620 = AXIS2_PLACEMENT_3D ( 'NONE', #898, #807, #647 ) ;
#621 = CIRCLE ( 'NONE', #657, 2.399999999999999467 ) ;
#622 = AXIS2_PLACEMENT_3D ( 'NONE', #360, #45, #778 ) ;
#623 = DIRECTION ( 'NONE',  ( 0.000000000000000000, 1.000000000000000000, 0.000000000000000000 ) ) ;
#624 = CIRCLE ( 'NONE', #675, 0.6000000000000033085 ) ;
#625 = LOCAL_TIME ( 17, 50, 24.00000000000000000, #681 ) ;
#626 = CIRCLE ( 'NONE', #1078, 0.8999999999999978018 ) ;
#627 = CARTESIAN_POINT ( 'NONE',  ( 0.000000000000000000, 89.00000000000000000, -0.4000000000000000222 ) ) ;
#628 = EDGE_CURVE ( 'NONE', #686, #270, #468, .T. ) ;
#629 = FACE_OUTER_BOUND ( 'NONE', #661, .T. ) ;
#630 = ORIENTED_EDGE ( 'NONE', *, *, #600, .T. ) ;
#631 = DIRECTION ( 'NONE',  ( 0.000000000000000000, 0.000000000000000000, 1.000000000000000000 ) ) ;
#632 = EDGE_CURVE ( 'NONE', #193, #125, #353, .T. ) ;
#633 = LINE ( 'NONE', #456, #485 ) ;
#634 = PRODUCT_RELATED_PRODUCT_CATEGORY ( 'detail', '', ( #155 ) ) ;
#635 = ORIENTED_EDGE ( 'NONE', *, *, #1035, .T. ) ;
#636 = DIRECTION ( 'NONE',  ( -0.000000000000000000, -0.000000000000000000, -1.000000000000000000 ) ) ;
#637 = ADVANCED_FACE ( 'NONE', ( #172 ), #348, .F. ) ;
#638 = VERTEX_POINT ( 'NONE', #773 ) ;
#639 = EDGE_CURVE ( 'NONE', #270, #1005, #293, .T. ) ;
#640 = FACE_OUTER_BOUND ( 'NONE', #955, .T. ) ;
#641 = TOROIDAL_SURFACE ( 'NONE', #531, 4.000000000000007994, 0.6000000000000033085 ) ;
#642 = CIRCLE ( 'NONE', #781, 3.400000000000004796 ) ;
#643 = CARTESIAN_POINT ( 'NONE',  ( -32.99999999999997158, 309.5999999999999659, -5.000000000000000000 ) ) ;
#644 = ORIENTED_EDGE ( 'NONE', *, *, #506, .F. ) ;
#645 = CARTESIAN_POINT ( 'NONE',  ( -36.00000000000000000, 279.1241127611707498, -0.4000000000000001887 ) ) ;
#646 = DIRECTION ( 'NONE',  ( -0.000000000000000000, -0.000000000000000000, -1.000000000000000000 ) ) ;
#647 = DIRECTION ( 'NONE',  ( 0.000000000000000000, 0.000000000000000000, -1.000000000000000000 ) ) ;
#648 = CARTESIAN_POINT ( 'NONE',  ( 5.100000000000000533, 299.5000000000000000, -3.499999999999999556 ) ) ;
#649 = ORIENTED_EDGE ( 'NONE', *, *, #866, .F. ) ;
#650 = CYLINDRICAL_SURFACE ( 'NONE', #235, 0.6000000000000033085 ) ;
#651 = EDGE_CURVE ( 'NONE', #1005, #260, #688, .T. ) ;
#652 = LINE ( 'NONE', #981, #481 ) ;
#653 = CARTESIAN_POINT ( 'NONE',  ( -1.500000000000001332, 90.50000000000000000, -0.4000000000000000222 ) ) ;
#654 = ORIENTED_EDGE ( 'NONE', *, *, #388, .T. ) ;
#655 = CARTESIAN_POINT ( 'NONE',  ( -36.00000000000000000, 281.0464785590386896, -0.2209439176785494008 ) ) ;
#656 = AXIS2_PLACEMENT_3D ( 'NONE', #482, #140, #389 ) ;
#657 = AXIS2_PLACEMENT_3D ( 'NONE', #580, #1061, #564 ) ;
#658 = ADVANCED_FACE ( 'NONE', ( #258 ), #376, .T. ) ;
#659 = AXIS2_PLACEMENT_3D ( 'NONE', #40, #201, #615 ) ;
#660 = AXIS2_PLACEMENT_3D ( 'NONE', #685, #333, #862 ) ;
#661 = EDGE_LOOP ( 'NONE', ( #370, #457, #569, #934 ) ) ;
#662 = CARTESIAN_POINT ( 'NONE',  ( -35.39999999999999858, 306.0000000000000568, -5.000000000000000000 ) ) ;
#663 = DIRECTION ( 'NONE',  ( -1.000000000000000000, -4.336808689942013792E-16, 0.000000000000000000 ) ) ;
#664 = ORIENTED_EDGE ( 'NONE', *, *, #507, .T. ) ;
#665 = CYLINDRICAL_SURFACE ( 'NONE', #1002, 0.5999999999999998668 ) ;
#666 = ORIENTED_EDGE ( 'NONE', *, *, #1045, .T. ) ;
#667 = CARTESIAN_POINT ( 'NONE',  ( -36.00000000000000000, 93.50000000000000000, -1.000000000000003331 ) ) ;
#668 = ORIENTED_EDGE ( 'NONE', *, *, #357, .F. ) ;
#669 = PERSON_AND_ORGANIZATION ( #158, #495 ) ;
#670 = EDGE_LOOP ( 'NONE', ( #422, #792, #183, #839, #425, #811 ) ) ;
#671 = EDGE_CURVE ( 'NONE', #924, #1067, #191, .T. ) ;
#672 = DIRECTION ( 'NONE',  ( -1.000000000000000000, 0.000000000000000000, 0.000000000000000000 ) ) ;
#673 = DIRECTION ( 'NONE',  ( 0.000000000000000000, 0.000000000000000000, 1.000000000000000000 ) ) ;
#674 = ORIENTED_EDGE ( 'NONE', *, *, #727, .F. ) ;
#675 = AXIS2_PLACEMENT_3D ( 'NONE', #710, #459, #212 ) ;
#676 = ORIENTED_EDGE ( 'NONE', *, *, #388, .F. ) ;
#677 = CIRCLE ( 'NONE', #518, 0.5999999999999998668 ) ;
#678 = LINE ( 'NONE', #599, #815 ) ;
#679 = CARTESIAN_POINT ( 'NONE',  ( 0.000000000000000000, 89.00000000000000000, -0.4000000000000000222 ) ) ;
#680 = ORIENTED_EDGE ( 'NONE', *, *, #864, .F. ) ;
#681 = COORDINATED_UNIVERSAL_TIME_OFFSET ( 12, 0, .AHEAD. ) ;
#682 = ORIENTED_EDGE ( 'NONE', *, *, #147, .F. ) ;
#683 = EDGE_CURVE ( 'NONE', #263, #193, #816, .T. ) ;
#684 = FACE_OUTER_BOUND ( 'NONE', #141, .T. ) ;
#685 = CARTESIAN_POINT ( 'NONE',  ( 1.560000000000005826, 309.0000000000000000, -5.000000000000000000 ) ) ;
#686 = VERTEX_POINT ( 'NONE', #417 ) ;
#687 = CARTESIAN_POINT ( 'NONE',  ( -36.00000000000000000, 289.2042648059006069, -4.633961810714293250 ) ) ;
#688 = LINE ( 'NONE', #106, #742 ) ;
#689 = CIRCLE ( 'NONE', #1059, 2.100000000000004530 ) ;
#690 = EDGE_LOOP ( 'NONE', ( #786, #805, #225, #856 ) ) ;
#691 = CIRCLE ( 'NONE', #466, 0.6000000000000033085 ) ;
#692 = CARTESIAN_POINT ( 'NONE',  ( 0.6000000000000040856, 89.00000000000000000, -0.4000000000000000222 ) ) ;
#693 = AXIS2_PLACEMENT_3D ( 'NONE', #436, #276, #1 ) ;
#694 = DIRECTION ( 'NONE',  ( -1.000000000000000000, -4.336808689942013792E-16, 0.000000000000000000 ) ) ;
#695 = DIRECTION ( 'NONE',  ( 0.000000000000000000, -1.000000000000000000, 0.000000000000000000 ) ) ;
#696 = ORIENTED_EDGE ( 'NONE', *, *, #704, .T. ) ;
#697 = CYLINDRICAL_SURFACE ( 'NONE', #801, 0.5999999999999998668 ) ;
#698 = LINE ( 'NONE', #122, #356 ) ;
#699 = CARTESIAN_POINT ( 'NONE',  ( 5.100000000000000533, 302.5000000000000000, -3.499999999999999556 ) ) ;
#700 = ORIENTED_EDGE ( 'NONE', *, *, #268, .T. ) ;
#701 = EDGE_CURVE ( 'NONE', #819, #863, #275, .T. ) ;
#702 = ORIENTED_EDGE ( 'NONE', *, *, #500, .T. ) ;
#703 = CARTESIAN_POINT ( 'NONE',  ( 2.959999999999999964, 307.0000000000000000, -5.000000000000000000 ) ) ;
#704 = EDGE_CURVE ( 'NONE', #736, #326, #18, .T. ) ;
#705 = APPLICATION_CONTEXT ( 'configuration controlled 3d designs of mechanical parts and assemblies' ) ;
#706 = DIRECTION ( 'NONE',  ( 0.000000000000000000, 0.000000000000000000, 1.000000000000000000 ) ) ;
#707 = DIRECTION ( 'NONE',  ( 0.000000000000000000, 1.000000000000000000, 0.000000000000000000 ) ) ;
#708 = CIRCLE ( 'NONE', #588, 0.5999999999999998668 ) ;
#709 = AXIS2_PLACEMENT_3D ( 'NONE', #51, #888, #965 ) ;
#710 = CARTESIAN_POINT ( 'NONE',  ( -33.00000000000000000, 90.50000000000000000, -0.4000000000000000222 ) ) ;
#711 = DIRECTION ( 'NONE',  ( 0.000000000000000000, 0.000000000000000000, 1.000000000000000000 ) ) ;
#712 = ORIENTED_EDGE ( 'NONE', *, *, #932, .F. ) ;
#713 = CARTESIAN_POINT ( 'NONE',  ( -36.00000000000000000, 93.50000000000000000, -0.4000000000000000222 ) ) ;
#714 = DIRECTION ( 'NONE',  ( 0.000000000000000000, 0.000000000000000000, 1.000000000000000000 ) ) ;
#715 = ADVANCED_FACE ( 'NONE', ( #841 ), #90, .T. ) ;
#716 = ORIENTED_EDGE ( 'NONE', *, *, #765, .T. ) ;
#717 = DIRECTION ( 'NONE',  ( 0.000000000000000000, 1.000000000000000000, 0.000000000000000000 ) ) ;
#718 = DIRECTION ( 'NONE',  ( 0.000000000000000000, 0.000000000000000000, 1.000000000000000000 ) ) ;
#719 = VERTEX_POINT ( 'NONE', #110 ) ;
#720 = DIRECTION ( 'NONE',  ( 0.000000000000000000, 0.000000000000000000, 1.000000000000000000 ) ) ;
#721 = AXIS2_PLACEMENT_3D ( 'NONE', #55, #893, #718 ) ;
#722 = CARTESIAN_POINT ( 'NONE',  ( -36.00000000000000000, 93.50000000000000000, 0.2000000000000032863 ) ) ;
#723 = AXIS2_PLACEMENT_3D ( 'NONE', #767, #346, #352 ) ;
#724 = CIRCLE ( 'NONE', #1022, 0.6000000000000033085 ) ;
#725 = CARTESIAN_POINT ( 'NONE',  ( -36.00000000000000000, 290.8758872388292502, -5.600000000000003197 ) ) ;
#726 = DIRECTION ( 'NONE',  ( 0.000000000000000000, -1.000000000000000000, 0.000000000000000000 ) ) ;
#727 = EDGE_CURVE ( 'NONE', #165, #1047, #186, .T. ) ;
#728 = ORIENTED_EDGE ( 'NONE', *, *, #671, .T. ) ;
#729 = DIRECTION ( 'NONE',  ( 0.000000000000000000, 0.000000000000000000, 1.000000000000000000 ) ) ;
#730 = DIRECTION ( 'NONE',  ( 0.000000000000000000, 0.4179056082321608301, 0.9084904526785670953 ) ) ;
#731 = CARTESIAN_POINT ( 'NONE',  ( -32.99999999999997158, 309.0000000000000000, -4.400000000000000355 ) ) ;
#732 = ORIENTED_EDGE ( 'NONE', *, *, #977, .F. ) ;
#733 = DIRECTION ( 'NONE',  ( 0.000000000000000000, 0.000000000000000000, 1.000000000000000000 ) ) ;
#734 = ADVANCED_FACE ( 'NONE', ( #180 ), #777, .T. ) ;
#735 = DIRECTION ( 'NONE',  ( 0.000000000000000000, 0.000000000000000000, 1.000000000000000000 ) ) ;
#736 = VERTEX_POINT ( 'NONE', #248 ) ;
#737 = CARTESIAN_POINT ( 'NONE',  ( -32.99999999999997158, 309.0000000000000000, -5.000000000000000000 ) ) ;
#738 = CYLINDRICAL_SURFACE ( 'NONE', #984, 0.6000000000000033085 ) ;
#739 = CIRCLE ( 'NONE', #622, 0.6000000000000033085 ) ;
#740 = AXIS2_PLACEMENT_3D ( 'NONE', #1000, #501, #943 ) ;
#741 = TOROIDAL_SURFACE ( 'NONE', #885, 1.500000000000001332, 0.6000000000000033085 ) ;
#742 = VECTOR ( 'NONE', #262, 1000.000000000000000 ) ;
#743 = ORIENTED_EDGE ( 'NONE', *, *, #858, .T. ) ;
#744 = LINE ( 'NONE', #240, #302 ) ;
#745 = ORIENTED_EDGE ( 'NONE', *, *, #846, .F. ) ;
#746 = DIRECTION ( 'NONE',  ( 0.000000000000000000, 0.000000000000000000, 1.000000000000000000 ) ) ;
#747 = CARTESIAN_POINT ( 'NONE',  ( 0.000000000000000000, 0.000000000000000000, -6.500000000000000000 ) ) ;
#748 = CARTESIAN_POINT ( 'NONE',  ( -36.00000000000000000, 279.1241127611707498, -4.400000000000000355 ) ) ;
#749 = EDGE_CURVE ( 'NONE', #306, #326, #759, .T. ) ;
#750 = EDGE_LOOP ( 'NONE', ( #35, #409, #29, #366, #674, #543 ) ) ;
#751 = APPROVAL_DATE_TIME ( #102, #1015 ) ;
#752 = ORIENTED_EDGE ( 'NONE', *, *, #522, .T. ) ;
#753 = DIRECTION ( 'NONE',  ( 0.000000000000000000, 0.000000000000000000, 1.000000000000000000 ) ) ;
#754 = ORIENTED_EDGE ( 'NONE', *, *, #337, .F. ) ;
#755 = ORIENTED_EDGE ( 'NONE', *, *, #787, .F. ) ;
#756 = CC_DESIGN_DATE_AND_TIME_ASSIGNMENT ( #354, #769, ( #763 ) ) ;
#757 = DIRECTION ( 'NONE',  ( 1.000000000000000000, 0.000000000000000000, 0.000000000000000000 ) ) ;
#758 = CIRCLE ( 'NONE', #532, 0.6000000000000070832 ) ;
#759 = LINE ( 'NONE', #852, #323 ) ;
#760 = ORIENTED_EDGE ( 'NONE', *, *, #379, .T. ) ;
#761 = APPLICATION_PROTOCOL_DEFINITION ( 'international standard', 'config_control_design', 1994, #705 ) ;
#762 = CIRCLE ( 'NONE', #448, 0.6000000000000033085 ) ;
#763 = SECURITY_CLASSIFICATION ( '', '', #264 ) ;
#764 = ORIENTED_EDGE ( 'NONE', *, *, #314, .F. ) ;
#765 = EDGE_CURVE ( 'NONE', #874, #736, #633, .T. ) ;
#766 = CIRCLE ( 'NONE', #709, 0.6000000000000033085 ) ;
#767 = CARTESIAN_POINT ( 'NONE',  ( 0.000000000000000000, 86.90000000000000568, -0.4000000000000000222 ) ) ;
#768 = ORIENTED_EDGE ( 'NONE', *, *, #314, .T. ) ;
#769 = DATE_TIME_ROLE ( 'classification_date' ) ;
#770 = VERTEX_POINT ( 'NONE', #785 ) ;
#771 = FACE_OUTER_BOUND ( 'NONE', #793, .T. ) ;
#772 = EDGE_CURVE ( 'NONE', #1071, #433, #942, .T. ) ;
#773 = CARTESIAN_POINT ( 'NONE',  ( -36.00000000000000000, 279.1241127611707498, 0.2000000000000109468 ) ) ;
#774 = APPROVAL_DATE_TIME ( #437, #471 ) ;
#775 = VERTEX_POINT ( 'NONE', #966 ) ;
#776 = DIRECTION ( 'NONE',  ( 0.000000000000000000, 0.000000000000000000, 1.000000000000000000 ) ) ;
#777 = CYLINDRICAL_SURFACE ( 'NONE', #802, 0.5999999999999998668 ) ;
#778 = DIRECTION ( 'NONE',  ( 0.000000000000000000, 0.000000000000000000, 1.000000000000000000 ) ) ;
#779 = LOCAL_TIME ( 17, 50, 24.00000000000000000, #22 ) ;
#780 = ORIENTED_EDGE ( 'NONE', *, *, #163, .F. ) ;
#781 = AXIS2_PLACEMENT_3D ( 'NONE', #881, #1030, #285 ) ;
#782 = DIRECTION ( 'NONE',  ( 0.000000000000000000, 1.000000000000000000, 0.000000000000000000 ) ) ;
#783 = DIRECTION ( 'NONE',  ( 1.000000000000000000, 0.000000000000000000, 0.000000000000000000 ) ) ;
#784 = EDGE_CURVE ( 'NONE', #638, #112, #111, .T. ) ;
#785 = CARTESIAN_POINT ( 'NONE',  ( -35.39999999999999147, 93.50000000000000000, -0.4000000000000000777 ) ) ;
#786 = ORIENTED_EDGE ( 'NONE', *, *, #462, .F. ) ;
#787 = EDGE_CURVE ( 'NONE', #156, #230, #626, .T. ) ;
#788 = EDGE_LOOP ( 'NONE', ( #438, #377, #680, #101, #553, #351 ) ) ;
#789 = CARTESIAN_POINT ( 'NONE',  ( 2.100000000000000089, 302.5000000000000000, -6.500000000000000000 ) ) ;
#790 = DIRECTION ( 'NONE',  ( 1.000000000000000000, 0.000000000000000000, 0.000000000000000000 ) ) ;
#791 = DIRECTION ( 'NONE',  ( 1.000000000000000000, 0.000000000000000000, 0.000000000000000000 ) ) ;
#792 = ORIENTED_EDGE ( 'NONE', *, *, #56, .T. ) ;
#793 = EDGE_LOOP ( 'NONE', ( #486, #760, #93, #584, #530 ) ) ;
#794 = DIRECTION ( 'NONE',  ( 0.000000000000000000, -1.000000000000000000, 0.000000000000000000 ) ) ;
#795 = CARTESIAN_POINT ( 'NONE',  ( -36.00000000000000000, 290.8758872388292502, -5.000000000000000000 ) ) ;
#796 = CARTESIAN_POINT ( 'NONE',  ( -36.00000000000000000, 289.4550081708399034, -4.088867539107144289 ) ) ;
#797 = DIRECTION ( 'NONE',  ( -1.000000000000000000, 0.000000000000000000, 0.000000000000000000 ) ) ;
#798 = VERTEX_POINT ( 'NONE', #1046 ) ;
#799 = VECTOR ( 'NONE', #812, 1000.000000000000000 ) ;
#800 = VECTOR ( 'NONE', #73, 1000.000000000000227 ) ;
#801 = AXIS2_PLACEMENT_3D ( 'NONE', #1029, #794, #944 ) ;
#802 = AXIS2_PLACEMENT_3D ( 'NONE', #1004, #177, #995 ) ;
#803 = DIRECTION ( 'NONE',  ( 0.000000000000000000, 0.000000000000000000, -1.000000000000000000 ) ) ;
#804 = DIRECTION ( 'NONE',  ( 0.000000000000000000, -1.000000000000000000, 0.000000000000000000 ) ) ;
#805 = ORIENTED_EDGE ( 'NONE', *, *, #426, .F. ) ;
#806 = DIRECTION ( 'NONE',  ( 0.000000000000000000, 1.000000000000000000, 0.000000000000000000 ) ) ;
#807 = DIRECTION ( 'NONE',  ( 1.000000000000000000, 0.000000000000000000, 0.000000000000000000 ) ) ;
#808 = ORIENTED_EDGE ( 'NONE', *, *, #632, .T. ) ;
#809 = CARTESIAN_POINT ( 'NONE',  ( 0.000000000000000000, 89.00000000000000000, -0.4000000000000000222 ) ) ;
#810 = CARTESIAN_POINT ( 'NONE',  ( -33.00000000000000000, 90.50000000000000000, -0.4000000000000000222 ) ) ;
#811 = ORIENTED_EDGE ( 'NONE', *, *, #15, .F. ) ;
#812 = DIRECTION ( 'NONE',  ( 0.000000000000000000, 1.000000000000000000, 0.000000000000000000 ) ) ;
#813 = CC_DESIGN_APPROVAL ( #1015, ( #596 ) ) ;
#814 = CARTESIAN_POINT ( 'NONE',  ( -1.499999999999999778, 89.00000000000000000, -0.4000000000000000222 ) ) ;
#815 = VECTOR ( 'NONE', #94, 1000.000000000000000 ) ;
#816 = CIRCLE ( 'NONE', #693, 0.6000000000000033085 ) ;
#817 = EDGE_CURVE ( 'NONE', #503, #97, #608, .T. ) ;
#818 = FACE_OUTER_BOUND ( 'NONE', #915, .T. ) ;
#819 = VERTEX_POINT ( 'NONE', #33 ) ;
#820 = DIRECTION ( 'NONE',  ( 1.000000000000000000, 0.000000000000000000, 0.000000000000000000 ) ) ;
#821 = ADVANCED_FACE ( 'NONE', ( #1032 ), #100, .T. ) ;
#822 = DIRECTION ( 'NONE',  ( 0.000000000000000000, 0.000000000000000000, 1.000000000000000000 ) ) ;
#823 = DIRECTION ( 'NONE',  ( 0.000000000000000000, 0.000000000000000000, -1.000000000000000000 ) ) ;
#824 = ORIENTED_EDGE ( 'NONE', *, *, #961, .F. ) ;
#825 = CARTESIAN_POINT ( 'NONE',  ( 0.000000000000000000, 0.000000000000000000, 0.000000000000000000 ) ) ;
#826 = ADVANCED_FACE ( 'NONE', ( #467 ), #52, .F. ) ;
#827 = CARTESIAN_POINT ( 'NONE',  ( -36.00000000000000000, 290.8758872388292502, -1.000000000000000000 ) ) ;
#828 = LINE ( 'NONE', #900, #857 ) ;
#829 = ORIENTED_EDGE ( 'NONE', *, *, #858, .F. ) ;
#830 = EDGE_CURVE ( 'NONE', #406, #444, #902, .T. ) ;
#831 = DIRECTION ( 'NONE',  ( 0.000000000000000000, -1.000000000000000000, 0.000000000000000000 ) ) ;
#832 = CARTESIAN_POINT ( 'NONE',  ( -36.59999999999999432, 306.0000000000000568, -5.000000000000000000 ) ) ;
#833 = APPLICATION_CONTEXT ( 'configuration controlled 3d designs of mechanical parts and assemblies' ) ;
#834 = ADVANCED_FACE ( 'NONE', ( #299 ), #528, .F. ) ;
#835 = VECTOR ( 'NONE', #30, 1000.000000000000000 ) ;
#836 = AXIS2_PLACEMENT_3D ( 'NONE', #95, #581, #430 ) ;
#837 = ORIENTED_EDGE ( 'NONE', *, *, #749, .F. ) ;
#838 = DIRECTION ( 'NONE',  ( -1.000000000000000000, -4.336808689942013792E-16, 0.000000000000000000 ) ) ;
#839 = ORIENTED_EDGE ( 'NONE', *, *, #337, .T. ) ;
#840 = DIRECTION ( 'NONE',  ( 1.000000000000000000, 0.000000000000000000, 0.000000000000000000 ) ) ;
#841 = FACE_OUTER_BOUND ( 'NONE', #214, .T. ) ;
#842 = CC_DESIGN_PERSON_AND_ORGANIZATION_ASSIGNMENT ( #432, #250, ( #515 ) ) ;
#843 = ORIENTED_EDGE ( 'NONE', *, *, #284, .T. ) ;
#844 = ORIENTED_EDGE ( 'NONE', *, *, #72, .F. ) ;
#845 = CARTESIAN_POINT ( 'NONE',  ( -36.00000000000000000, 306.0000000000000568, -5.599999999999999645 ) ) ;
#846 = EDGE_CURVE ( 'NONE', #529, #415, #613, .T. ) ;
#847 = DIRECTION ( 'NONE',  ( 0.000000000000000000, -0.000000000000000000, 1.000000000000000000 ) ) ;
#848 = APPROVAL_STATUS ( 'not_yet_approved' ) ;
#849 = ORIENTED_EDGE ( 'NONE', *, *, #683, .F. ) ;
#850 = DIRECTION ( 'NONE',  ( 0.000000000000000000, 0.000000000000000000, -1.000000000000000000 ) ) ;
#851 = CIRCLE ( 'NONE', #372, 0.5999999999999998668 ) ;
#852 = CARTESIAN_POINT ( 'NONE',  ( 2.100000000000000089, 302.5000000000000000, -6.500000000000000000 ) ) ;
#853 = CC_DESIGN_SECURITY_CLASSIFICATION ( #763, ( #515 ) ) ;
#854 = ORIENTED_EDGE ( 'NONE', *, *, #522, .F. ) ;
#855 = VECTOR ( 'NONE', #1013, 1000.000000000000000 ) ;
#856 = ORIENTED_EDGE ( 'NONE', *, *, #817, .T. ) ;
#857 = VECTOR ( 'NONE', #310, 1000.000000000000000 ) ;
#858 = EDGE_CURVE ( 'NONE', #982, #415, #739, .T. ) ;
#859 = CARTESIAN_POINT ( 'NONE',  ( -1.499999999999999778, 89.00000000000000000, -0.4000000000000000222 ) ) ;
#860 = CALENDAR_DATE ( 2026, 29, 9 ) ;
#861 = CARTESIAN_POINT ( 'NONE',  ( -32.99999999999999289, 93.50000000000000000, -0.4000000000000000222 ) ) ;
#862 = DIRECTION ( 'NONE',  ( 0.000000000000000000, 0.000000000000000000, 1.000000000000000000 ) ) ;
#863 = VERTEX_POINT ( 'NONE', #551 ) ;
#864 = EDGE_CURVE ( 'NONE', #156, #775, #218, .T. ) ;
#865 = DIRECTION ( 'NONE',  ( -0.000000000000000000, -0.000000000000000000, -1.000000000000000000 ) ) ;
#866 = EDGE_CURVE ( 'NONE', #135, #5, #758, .T. ) ;
#867 = DIRECTION ( 'NONE',  ( 0.000000000000000000, 0.000000000000000000, 1.000000000000000000 ) ) ;
#868 = TOROIDAL_SURFACE ( 'NONE', #620, 3.999999999999999112, 0.6000000000000033085 ) ;
#869 = AXIS2_PLACEMENT_3D ( 'NONE', #859, #1009, #672 ) ;
#870 = AXIS2_PLACEMENT_3D ( 'NONE', #70, #726, #561 ) ;
#871 = DIRECTION ( 'NONE',  ( 0.000000000000000000, 0.000000000000000000, 1.000000000000000000 ) ) ;
#872 = CARTESIAN_POINT ( 'NONE',  ( 3.559999999999999609, 302.5000000000000000, -4.400000000000000355 ) ) ;
#873 = CARTESIAN_POINT ( 'NONE',  ( -36.00000000000000000, 93.50000000000000000, -0.4000000000000000222 ) ) ;
#874 = VERTEX_POINT ( 'NONE', #699 ) ;
#875 = ORIENTED_EDGE ( 'NONE', *, *, #66, .F. ) ;
#876 = FACE_OUTER_BOUND ( 'NONE', #92, .T. ) ;
#877 = CARTESIAN_POINT ( 'NONE',  ( 5.100000000000000533, 299.5000000000000000, -3.499999999999999556 ) ) ;
#878 = EDGE_CURVE ( 'NONE', #924, #393, #253, .T. ) ;
#879 = ORIENTED_EDGE ( 'NONE', *, *, #524, .F. ) ;
#880 = UNCERTAINTY_MEASURE_WITH_UNIT (LENGTH_MEASURE( 1.000000000000000082E-05 ), #975, 'distance_accuracy_value', 'NONE');
#881 = CARTESIAN_POINT ( 'NONE',  ( -36.00000000000000000, 290.8758872388292502, -1.000000000000000000 ) ) ;
#882 = ORIENTED_EDGE ( 'NONE', *, *, #1058, .T. ) ;
#883 = AXIS2_PLACEMENT_3D ( 'NONE', #810, #476, #59 ) ;
#884 = AXIS2_PLACEMENT_3D ( 'NONE', #1089, #757, #416 ) ;
#885 = AXIS2_PLACEMENT_3D ( 'NONE', #128, #636, #378 ) ;
#886 = AXIS2_PLACEMENT_3D ( 'NONE', #465, #694, #217 ) ;
#887 = DIRECTION ( 'NONE',  ( -1.000000000000000000, 0.000000000000000000, 0.000000000000000000 ) ) ;
#888 = DIRECTION ( 'NONE',  ( 0.000000000000000000, 1.000000000000000000, 0.000000000000000000 ) ) ;
#889 = CARTESIAN_POINT ( 'NONE',  ( 3.559999999999999609, 302.5000000000000000, -5.599999999999999645 ) ) ;
#890 = ORIENTED_EDGE ( 'NONE', *, *, #1024, .F. ) ;
#891 = EDGE_CURVE ( 'NONE', #598, #329, #445, .T. ) ;
#892 = LINE ( 'NONE', #373, #970 ) ;
#893 = DIRECTION ( 'NONE',  ( 0.000000000000000000, 1.000000000000000000, 0.000000000000000000 ) ) ;
#894 = DIRECTION ( 'NONE',  ( 0.000000000000000000, 0.000000000000000000, 1.000000000000000000 ) ) ;
#895 = ORIENTED_EDGE ( 'NONE', *, *, #1084, .T. ) ;
#896 = FACE_OUTER_BOUND ( 'NONE', #287, .T. ) ;
#897 = ADVANCED_FACE ( 'NONE', ( #629 ), #868, .T. ) ;
#898 = CARTESIAN_POINT ( 'NONE',  ( -36.00000000000000000, 279.1241127611707498, -4.400000000000000355 ) ) ;
#899 = EDGE_CURVE ( 'NONE', #5, #135, #289, .T. ) ;
#900 = CARTESIAN_POINT ( 'NONE',  ( 1.560000000000005826, 309.0000000000000000, -4.400000000000000355 ) ) ;
#901 = ORIENTED_EDGE ( 'NONE', *, *, #200, .T. ) ;
#902 = CIRCLE ( 'NONE', #319, 0.5999999999999998668 ) ;
#903 = DIRECTION ( 'NONE',  ( 0.000000000000000000, 0.000000000000000000, 1.000000000000000000 ) ) ;
#904 = VECTOR ( 'NONE', #24, 1000.000000000000000 ) ;
#905 = AXIS2_PLACEMENT_3D ( 'NONE', #421, #753, #502 ) ;
#906 = ORIENTED_EDGE ( 'NONE', *, *, #89, .F. ) ;
#907 = CARTESIAN_POINT ( 'NONE',  ( -36.00000000000000000, 289.4550081708399034, -4.088867539107146065 ) ) ;
#908 = CARTESIAN_POINT ( 'NONE',  ( 1.560000000000005826, 309.0000000000000568, -4.400000000000000355 ) ) ;
#909 = DIRECTION ( 'NONE',  ( 0.000000000000000000, 0.000000000000000000, 1.000000000000000000 ) ) ;
#910 = ADVANCED_FACE ( 'NONE', ( #472 ), #979, .T. ) ;
#911 = CARTESIAN_POINT ( 'NONE',  ( -36.00000000000000000, 280.5449918291600966, -1.311132460892850293 ) ) ;
#912 = PLANE ( 'NONE',  #870 ) ;
#913 = VERTEX_POINT ( 'NONE', #643 ) ;
#914 = CARTESIAN_POINT ( 'NONE',  ( -36.00000000000000000, 289.2042648059006069, -4.633961810714293250 ) ) ;
#915 = EDGE_LOOP ( 'NONE', ( #557, #539, #929, #510 ) ) ;
#916 = DIRECTION ( 'NONE',  ( 0.000000000000000000, 1.000000000000000000, 0.000000000000000000 ) ) ;
#917 = AXIS2_PLACEMENT_3D ( 'NONE', #364, #791, #380 ) ;
#918 = CC_DESIGN_DATE_AND_TIME_ASSIGNMENT ( #423, #520, ( #596 ) ) ;
#919 = CIRCLE ( 'NONE', #586, 0.6000000000000053069 ) ;
#920 = CIRCLE ( 'NONE', #723, 0.6000000000000033085 ) ;
#921 = DIRECTION ( 'NONE',  ( 0.000000000000000000, 0.000000000000000000, 1.000000000000000000 ) ) ;
#922 = ORIENTED_EDGE ( 'NONE', *, *, #590, .F. ) ;
#923 = CALENDAR_DATE ( 2026, 29, 9 ) ;
#924 = VERTEX_POINT ( 'NONE', #889 ) ;
#925 = EDGE_CURVE ( 'NONE', #967, #165, #271, .T. ) ;
#926 = DIRECTION ( 'NONE',  ( 0.000000000000000000, -1.000000000000000000, 0.000000000000000000 ) ) ;
#927 = DIRECTION ( 'NONE',  ( 0.000000000000000000, 1.000000000000000000, 0.000000000000000000 ) ) ;
#928 = ORIENTED_EDGE ( 'NONE', *, *, #104, .T. ) ;
#929 = ORIENTED_EDGE ( 'NONE', *, *, #765, .F. ) ;
#930 = CARTESIAN_POINT ( 'NONE',  ( 0.000000000000000000, 89.00000000000000000, -0.4000000000000000222 ) ) ;
#931 = DIRECTION ( 'NONE',  ( 0.000000000000000000, 1.000000000000000000, 0.000000000000000000 ) ) ;
#932 = EDGE_CURVE ( 'NONE', #529, #967, #953, .T. ) ;
#933 = DIRECTION ( 'NONE',  ( 1.000000000000000000, 0.000000000000000000, 0.000000000000000000 ) ) ;
#934 = ORIENTED_EDGE ( 'NONE', *, *, #398, .T. ) ;
#935 = DIRECTION ( 'NONE',  ( 0.000000000000000000, 0.000000000000000000, -1.000000000000000000 ) ) ;
#936 = VECTOR ( 'NONE', #695, 1000.000000000000000 ) ;
#937 = DIRECTION ( 'NONE',  ( -0.000000000000000000, -0.000000000000000000, -1.000000000000000000 ) ) ;
#938 = TOROIDAL_SURFACE ( 'NONE', #605, 4.000000000000007994, 0.6000000000000033085 ) ;
#939 = PERSON_AND_ORGANIZATION ( #158, #495 ) ;
#940 = AXIS2_PLACEMENT_3D ( 'NONE', #54, #454, #290 ) ;
#941 = ORIENTED_EDGE ( 'NONE', *, *, #506, .T. ) ;
#942 = CIRCLE ( 'NONE', #358, 0.6000000000000033085 ) ;
#943 = DIRECTION ( 'NONE',  ( 1.000000000000000000, 0.000000000000000000, 0.000000000000000000 ) ) ;
#944 = DIRECTION ( 'NONE',  ( 0.000000000000000000, 0.000000000000000000, -1.000000000000000000 ) ) ;
#945 = EDGE_CURVE ( 'NONE', #343, #48, #115, .T. ) ;
#946 = DIRECTION ( 'NONE',  ( 0.000000000000000000, 0.000000000000000000, 1.000000000000000000 ) ) ;
#947 = DIRECTION ( 'NONE',  ( 0.000000000000000000, 0.000000000000000000, 1.000000000000000000 ) ) ;
#948 = ORIENTED_EDGE ( 'NONE', *, *, #398, .F. ) ;
#949 = CARTESIAN_POINT ( 'NONE',  ( -36.60000000000000142, 93.50000000000000000, -0.4000000000000000222 ) ) ;
#950 = CARTESIAN_POINT ( 'NONE',  ( 1.560000000000006048, 308.4000000000000909, -5.000000000000000000 ) ) ;
#951 = DIRECTION ( 'NONE',  ( 0.000000000000000000, 0.9084904526785735346, -0.4179056082321471743 ) ) ;
#952 = AXIS2_PLACEMENT_3D ( 'NONE', #247, #395, #80 ) ;
#953 = CIRCLE ( 'NONE', #656, 0.5999999999999998668 ) ;
#954 = AXIS2_PLACEMENT_3D ( 'NONE', #795, #806, #616 ) ;
#955 = EDGE_LOOP ( 'NONE', ( #980, #844, #879, #76, #752 ) ) ;
#956 = CARTESIAN_POINT ( 'NONE',  ( 1.560000000000000275, 307.0000000000000000, -5.000000000000000000 ) ) ;
#957 = DIRECTION ( 'NONE',  ( -1.000000000000000000, -0.000000000000000000, -0.000000000000000000 ) ) ;
#958 = ORIENTED_EDGE ( 'NONE', *, *, #1035, .F. ) ;
#959 = CARTESIAN_POINT ( 'NONE',  ( 1.560000000000005826, 309.0000000000000000, -5.599999999999999645 ) ) ;
#960 = DIRECTION ( 'NONE',  ( 0.000000000000000000, 0.4179056082321608301, 0.9084904526785670953 ) ) ;
#961 = EDGE_CURVE ( 'NONE', #48, #719, #387, .T. ) ;
#962 = ORIENTED_EDGE ( 'NONE', *, *, #590, .T. ) ;
#963 = DESIGN_CONTEXT ( 'detailed design', #705, 'design' ) ;
#964 = DIRECTION ( 'NONE',  ( 0.000000000000000000, 0.000000000000000000, 1.000000000000000000 ) ) ;
#965 = DIRECTION ( 'NONE',  ( 0.000000000000000000, 0.000000000000000000, 1.000000000000000000 ) ) ;
#966 = CARTESIAN_POINT ( 'NONE',  ( -1.500000000000001332, 90.50000000000000000, 0.2000000000000032863 ) ) ;
#967 = VERTEX_POINT ( 'NONE', #832 ) ;
#968 =( GEOMETRIC_REPRESENTATION_CONTEXT ( 3 ) GLOBAL_UNCERTAINTY_ASSIGNED_CONTEXT ( ( #880 ) ) GLOBAL_UNIT_ASSIGNED_CONTEXT ( ( #975, #492, #397 ) ) REPRESENTATION_CONTEXT ( 'NONE', 'WORKASPACE' ) );
#969 = APPROVAL_PERSON_ORGANIZATION ( #939, #527, #997 ) ;
#970 = VECTOR ( 'NONE', #42, 1000.000000000000000 ) ;
#971 = AXIS2_PLACEMENT_3D ( 'NONE', #653, #318, #484 ) ;
#972 = DIRECTION ( 'NONE',  ( 0.000000000000000000, 0.000000000000000000, -1.000000000000000000 ) ) ;
#973 = CARTESIAN_POINT ( 'NONE',  ( 3.559999999999999609, 307.0000000000000000, -5.000000000000000000 ) ) ;
#974 = ORIENTED_EDGE ( 'NONE', *, *, #772, .F. ) ;
#975 =( LENGTH_UNIT ( ) NAMED_UNIT ( * ) SI_UNIT ( .MILLI., .METRE. ) );
#976 = EDGE_CURVE ( 'NONE', #863, #1047, #603, .T. ) ;
#977 = EDGE_CURVE ( 'NONE', #433, #263, #1038, .T. ) ;
#978 = CARTESIAN_POINT ( 'NONE',  ( 1.560000000000005826, 309.0000000000000568, -5.000000000000000000 ) ) ;
#979 = PLANE ( 'NONE',  #583 ) ;
#980 = ORIENTED_EDGE ( 'NONE', *, *, #379, .F. ) ;
#981 = CARTESIAN_POINT ( 'NONE',  ( 2.100000000000000089, 299.5000000000000000, -3.499999999999999556 ) ) ;
#982 = VERTEX_POINT ( 'NONE', #725 ) ;
#983 = VECTOR ( 'NONE', #321, 1000.000000000000000 ) ;
#984 = AXIS2_PLACEMENT_3D ( 'NONE', #315, #559, #480 ) ;
#985 = DIRECTION ( 'NONE',  ( -1.000000000000000000, 0.000000000000000000, 0.000000000000000000 ) ) ;
#986 = AXIS2_PLACEMENT_3D ( 'NONE', #687, #1018, #272 ) ;
#987 = ADVANCED_FACE ( 'NONE', ( #309 ), #665, .T. ) ;
#988 = VECTOR ( 'NONE', #160, 1000.000000000000000 ) ;
#989 = EDGE_LOOP ( 'NONE', ( #1063, #664, #514, #1007, #85 ) ) ;
#990 = CARTESIAN_POINT ( 'NONE',  ( 3.559999999999999609, 302.5000000000000000, -4.400000000000000355 ) ) ;
#991 = ORIENTED_EDGE ( 'NONE', *, *, #227, .F. ) ;
#992 = CARTESIAN_POINT ( 'NONE',  ( -36.00000000000000000, 279.1241127611707498, -0.9999999999999956701 ) ) ;
#993 = ORIENTED_EDGE ( 'NONE', *, *, #89, .T. ) ;
#994 = CARTESIAN_POINT ( 'NONE',  ( -1.500000000000001332, 91.09999999999999432, -0.4000000000000000222 ) ) ;
#995 = DIRECTION ( 'NONE',  ( 0.000000000000000000, 0.000000000000000000, -1.000000000000000000 ) ) ;
#996 = ORIENTED_EDGE ( 'NONE', *, *, #325, .F. ) ;
#997 = APPROVAL_ROLE ( '' ) ;
#998 = ORIENTED_EDGE ( 'NONE', *, *, #313, .T. ) ;
#999 = ADVANCED_FACE ( 'NONE', ( #896 ), #650, .T. ) ;
#1000 = CARTESIAN_POINT ( 'NONE',  ( -32.99999999999999289, 93.50000000000000000, -0.4000000000000000222 ) ) ;
#1001 = VECTOR ( 'NONE', #646, 1000.000000000000000 ) ;
#1002 = AXIS2_PLACEMENT_3D ( 'NONE', #1072, #237, #733 ) ;
#1003 = AXIS2_PLACEMENT_3D ( 'NONE', #234, #577, #494 ) ;
#1004 = CARTESIAN_POINT ( 'NONE',  ( -36.00000000000000000, 306.0000000000000568, -5.000000000000000000 ) ) ;
#1005 = VERTEX_POINT ( 'NONE', #479 ) ;
#1006 = PERSON_AND_ORGANIZATION ( #158, #495 ) ;
#1007 = ORIENTED_EDGE ( 'NONE', *, *, #426, .T. ) ;
#1008 = EDGE_CURVE ( 'NONE', #393, #924, #851, .T. ) ;
#1009 = DIRECTION ( 'NONE',  ( -0.000000000000000000, -0.000000000000000000, -1.000000000000000000 ) ) ;
#1010 = ADVANCED_FACE ( 'NONE', ( #563 ), #25, .T. ) ;
#1011 = DATE_AND_TIME ( #923, #625 ) ;
#1012 = VERTEX_POINT ( 'NONE', #992 ) ;
#1013 = DIRECTION ( 'NONE',  ( -1.000000000000000000, 0.000000000000000000, 0.000000000000000000 ) ) ;
#1014 = DIRECTION ( 'NONE',  ( 0.000000000000000000, 1.000000000000000000, 0.000000000000000000 ) ) ;
#1015 = APPROVAL ( #597, 'UNSPECIFIED' ) ;
#1016 = PERSON_AND_ORGANIZATION_ROLE ( 'design_owner' ) ;
#1017 = ORIENTED_EDGE ( 'NONE', *, *, #304, .T. ) ;
#1018 = DIRECTION ( 'NONE',  ( 0.000000000000000000, -0.9084904526785733125, 0.4179056082321470633 ) ) ;
#1019 = AXIS2_PLACEMENT_3D ( 'NONE', #737, #312, #1080 ) ;
#1020 = ADVANCED_FACE ( 'NONE', ( #152 ), #1064, .T. ) ;
#1021 = MECHANICAL_CONTEXT ( 'NONE', #833, 'mechanical' ) ;
#1022 = AXIS2_PLACEMENT_3D ( 'NONE', #713, #1048, #964 ) ;
#1023 = VECTOR ( 'NONE', #1070, 1000.000000000000000 ) ;
#1024 = EDGE_CURVE ( 'NONE', #913, #819, #62, .T. ) ;
#1025 = ORIENTED_EDGE ( 'NONE', *, *, #1053, .T. ) ;
#1026 = DIRECTION ( 'NONE',  ( 0.000000000000000000, 0.000000000000000000, 1.000000000000000000 ) ) ;
#1027 = DIRECTION ( 'NONE',  ( -1.000000000000000000, 0.000000000000000000, 0.000000000000000000 ) ) ;
#1028 = ORIENTED_EDGE ( 'NONE', *, *, #56, .F. ) ;
#1029 = CARTESIAN_POINT ( 'NONE',  ( -36.00000000000000000, 306.0000000000000568, -5.000000000000000000 ) ) ;
#1030 = DIRECTION ( 'NONE',  ( -1.000000000000000000, -0.000000000000000000, 0.000000000000000000 ) ) ;
#1031 = FACE_BOUND ( 'NONE', #521, .T. ) ;
#1032 = FACE_OUTER_BOUND ( 'NONE', #750, .T. ) ;
#1033 = ORIENTED_EDGE ( 'NONE', *, *, #357, .T. ) ;
#1034 = EDGE_LOOP ( 'NONE', ( #1025, #3, #958, #696 ) ) ;
#1035 = EDGE_CURVE ( 'NONE', #736, #798, #77, .T. ) ;
#1036 = LINE ( 'NONE', #458, #835 ) ;
#1037 = FACE_OUTER_BOUND ( 'NONE', #414, .T. ) ;
#1038 = CIRCLE ( 'NONE', #883, 0.6000000000000033085 ) ;
#1039 = DIRECTION ( 'NONE',  ( 0.000000000000000000, 1.000000000000000000, 0.000000000000000000 ) ) ;
#1040 = LOCAL_TIME ( 17, 50, 24.00000000000000000, #19 ) ;
#1041 = VECTOR ( 'NONE', #623, 1000.000000000000000 ) ;
#1042 = ORIENTED_EDGE ( 'NONE', *, *, #15, .T. ) ;
#1043 = AXIS2_PLACEMENT_3D ( 'NONE', #519, #591, #847 ) ;
#1044 = DIRECTION ( 'NONE',  ( 0.000000000000000000, 0.000000000000000000, 1.000000000000000000 ) ) ;
#1045 = EDGE_CURVE ( 'NONE', #444, #578, #44, .T. ) ;
#1046 = CARTESIAN_POINT ( 'NONE',  ( 2.100000000000000089, 299.5000000000000000, -3.499999999999999556 ) ) ;
#1047 = VERTEX_POINT ( 'NONE', #662 ) ;
#1048 = DIRECTION ( 'NONE',  ( 0.000000000000000000, 1.000000000000000000, 0.000000000000000000 ) ) ;
#1049 = CARTESIAN_POINT ( 'NONE',  ( -36.00000000000000000, 306.0000000000000568, -5.000000000000000000 ) ) ;
#1050 = DIRECTION ( 'NONE',  ( 0.000000000000000000, 0.9084904526785700929, -0.4179056082321543908 ) ) ;
#1051 = ORIENTED_EDGE ( 'NONE', *, *, #233, .T. ) ;
#1052 = DIRECTION ( 'NONE',  ( 0.000000000000000000, 1.000000000000000000, 0.000000000000000000 ) ) ;
#1053 = EDGE_CURVE ( 'NONE', #326, #452, #744, .T. ) ;
#1054 = DIRECTION ( 'NONE',  ( 0.000000000000000000, 0.000000000000000000, -1.000000000000000000 ) ) ;
#1055 = ORIENTED_EDGE ( 'NONE', *, *, #32, .F. ) ;
#1056 = CARTESIAN_POINT ( 'NONE',  ( 3.559999999999999609, 302.5000000000000000, -5.000000000000000000 ) ) ;
#1057 = AXIS2_PLACEMENT_3D ( 'NONE', #873, #1039, #292 ) ;
#1058 = EDGE_CURVE ( 'NONE', #393, #48, #574, .T. ) ;
#1059 = AXIS2_PLACEMENT_3D ( 'NONE', #814, #475, #985 ) ;
#1060 = AXIS2_PLACEMENT_3D ( 'NONE', #544, #1052, #541 ) ;
#1061 = DIRECTION ( 'NONE',  ( 0.000000000000000000, 0.000000000000000000, 1.000000000000000000 ) ) ;
#1062 = DIRECTION ( 'NONE',  ( 1.000000000000000000, 0.000000000000000000, 0.000000000000000000 ) ) ;
#1063 = ORIENTED_EDGE ( 'NONE', *, *, #727, .T. ) ;
#1064 = CYLINDRICAL_SURFACE ( 'NONE', #513, 0.6000000000000069722 ) ;
#1065 = CARTESIAN_POINT ( 'NONE',  ( 5.100000000000000533, 302.5000000000000000, -3.499999999999999556 ) ) ;
#1066 = CARTESIAN_POINT ( 'NONE',  ( 0.000000000000000000, 89.00000000000000000, -0.4000000000000000222 ) ) ;
#1067 = VERTEX_POINT ( 'NONE', #68 ) ;
#1068 = DIRECTION ( 'NONE',  ( -0.000000000000000000, -1.000000000000000000, -0.000000000000000000 ) ) ;
#1069 = CARTESIAN_POINT ( 'NONE',  ( -1.500000000000001332, 90.50000000000000000, -1.000000000000003331 ) ) ;
#1070 = DIRECTION ( 'NONE',  ( -0.000000000000000000, -0.000000000000000000, -1.000000000000000000 ) ) ;
#1071 = VERTEX_POINT ( 'NONE', #86 ) ;
#1072 = CARTESIAN_POINT ( 'NONE',  ( 1.560000000000005826, 309.0000000000000000, -5.000000000000000000 ) ) ;
#1073 = AXIS2_PLACEMENT_3D ( 'NONE', #129, #118, #206 ) ;
#1074 = CIRCLE ( 'NONE', #386, 0.5999999999999998668 ) ;
#1075 = CC_DESIGN_APPROVAL ( #471, ( #763 ) ) ;
#1076 = CARTESIAN_POINT ( 'NONE',  ( -36.00000000000000000, 288.9535214409613104, -5.179056082321442211 ) ) ;
#1077 = CIRCLE ( 'NONE', #119, 4.600000000000011191 ) ;
#1078 = AXIS2_PLACEMENT_3D ( 'NONE', #124, #545, #1027 ) ;
#1079 = ORIENTED_EDGE ( 'NONE', *, *, #1008, .F. ) ;
#1080 = DIRECTION ( 'NONE',  ( 0.000000000000000000, 0.000000000000000000, 1.000000000000000000 ) ) ;
#1081 = ORIENTED_EDGE ( 'NONE', *, *, #371, .F. ) ;
#1082 = CARTESIAN_POINT ( 'NONE',  ( -36.00000000000000000, 93.50000000000000000, -0.4000000000000000222 ) ) ;
#1083 = DIRECTION ( 'NONE',  ( 0.000000000000000000, 0.000000000000000000, 1.000000000000000000 ) ) ;
#1084 = EDGE_CURVE ( 'NONE', #719, #161, #547, .T. ) ;
#1085 = LINE ( 'NONE', #648, #1023 ) ;
#1086 = EDGE_LOOP ( 'NONE', ( #635, #993, #998, #716 ) ) ;
#1087 = PERSON_AND_ORGANIZATION ( #158, #495 ) ;
#1088 = ORIENTED_EDGE ( 'NONE', *, *, #891, .T. ) ;
#1089 = CARTESIAN_POINT ( 'NONE',  ( -36.00000000000000000, 279.1241127611707498, -4.400000000000000355 ) ) ;
ENDSEC;
END-ISO-10303-21;
