ISO-10303-21;
HEADER;
FILE_DESCRIPTION (( 'STEP AP203' ),
    '1' );
FILE_NAME ('Harness - VTX Power UART.step',
    '2026-09-29T04:50:24',
    ( '' ),
    ( '' ),
    '',
    '',
    '' );
FILE_SCHEMA (( 'CONFIG_CONTROL_DESIGN' ));
ENDSEC;

DATA;
#1 = AXIS2_PLACEMENT_3D ( 'NONE', #842, #1128, #137 ) ;
#2 = LINE ( 'NONE', #397, #408 ) ;
#3 = CARTESIAN_POINT ( 'NONE',  ( 32.99999999999997158, 262.5000000000000000, -10.24999999999999822 ) ) ;
#4 = DIRECTION ( 'NONE',  ( 0.000000000000000000, 1.000000000000000000, 0.000000000000000000 ) ) ;
#5 = EDGE_CURVE ( 'NONE', #396, #1223, #426, .T. ) ;
#6 = DIRECTION ( 'NONE',  ( 0.000000000000000000, 0.000000000000000000, 1.000000000000000000 ) ) ;
#7 = PERSON ( 'UNSPECIFIED', 'UNSPECIFIED', 'UNSPECIFIED', ('UNSPECIFIED'), ('UNSPECIFIED'), ('UNSPECIFIED') ) ;
#8 = ORIENTED_EDGE ( 'NONE', *, *, #957, .F. ) ;
#9 = DIRECTION ( 'NONE',  ( -0.000000000000000000, -0.000000000000000000, -1.000000000000000000 ) ) ;
#10 = CARTESIAN_POINT ( 'NONE',  ( 31.00000000000000000, 87.50000000000000000, -3.550000000000000266 ) ) ;
#11 = CARTESIAN_POINT ( 'NONE',  ( 3.700000000000000178, 93.35000000000000853, -1.199999999999999734 ) ) ;
#12 = ADVANCED_FACE ( 'NONE', ( #1245 ), #114, .T. ) ;
#13 = DIRECTION ( 'NONE',  ( 0.000000000000000000, 0.000000000000000000, 1.000000000000000000 ) ) ;
#14 = ORIENTED_EDGE ( 'NONE', *, *, #1269, .F. ) ;
#15 = FACE_OUTER_BOUND ( 'NONE', #359, .T. ) ;
#16 = APPROVAL_DATE_TIME ( #434, #762 ) ;
#17 = DIRECTION ( 'NONE',  ( 1.000000000000000000, 0.000000000000000000, 0.000000000000000000 ) ) ;
#18 = DIRECTION ( 'NONE',  ( 1.000000000000000000, 0.000000000000000000, 0.000000000000000000 ) ) ;
#19 = VERTEX_POINT ( 'NONE', #618 ) ;
#20 = CIRCLE ( 'NONE', #363, 3.250000000000002665 ) ;
#21 = CIRCLE ( 'NONE', #1111, 1.250000000000001110 ) ;
#22 = CIRCLE ( 'NONE', #636, 1.250000000000001110 ) ;
#23 = CARTESIAN_POINT ( 'NONE',  ( 3.700000000000000178, 89.30000000000001137, -1.199999999999999734 ) ) ;
#24 = VECTOR ( 'NONE', #393, 1000.000000000000000 ) ;
#25 = CARTESIAN_POINT ( 'NONE',  ( 31.00000000000000000, 86.25000000000000000, -2.299999999999999822 ) ) ;
#26 = AXIS2_PLACEMENT_3D ( 'NONE', #654, #548, #954 ) ;
#27 = FACE_OUTER_BOUND ( 'NONE', #884, .T. ) ;
#28 = ORIENTED_EDGE ( 'NONE', *, *, #136, .T. ) ;
#29 = DIRECTION ( 'NONE',  ( -1.000000000000000000, 0.000000000000000000, -0.000000000000000000 ) ) ;
#30 = EDGE_CURVE ( 'NONE', #279, #170, #1035, .T. ) ;
#31 = CARTESIAN_POINT ( 'NONE',  ( 10.80000000000000071, 89.30000000000001137, -1.199999999999999734 ) ) ;
#32 = ORIENTED_EDGE ( 'NONE', *, *, #1250, .F. ) ;
#33 = PLANE ( 'NONE',  #362 ) ;
#34 = PERSON_AND_ORGANIZATION ( #7, #193 ) ;
#35 = EDGE_CURVE ( 'NONE', #949, #493, #1218, .T. ) ;
#36 = CARTESIAN_POINT ( 'NONE',  ( 8.750000000000000000, 89.00000000000000000, -2.299999999999999822 ) ) ;
#37 = VERTEX_POINT ( 'NONE', #615 ) ;
#38 = FACE_OUTER_BOUND ( 'NONE', #1286, .T. ) ;
#39 = CIRCLE ( 'NONE', #958, 1.250000000000001110 ) ;
#40 = CIRCLE ( 'NONE', #598, 1.250000000000000222 ) ;
#41 = DIRECTION ( 'NONE',  ( 0.000000000000000000, 0.000000000000000000, 1.000000000000000000 ) ) ;
#42 = AXIS2_PLACEMENT_3D ( 'NONE', #1154, #950, #848 ) ;
#43 = CIRCLE ( 'NONE', #453, 1.250000000000000222 ) ;
#44 = CARTESIAN_POINT ( 'NONE',  ( -2.399999999999999911, 265.1999999999999886, -10.09999999999999964 ) ) ;
#45 = EDGE_CURVE ( 'NONE', #626, #261, #39, .T. ) ;
#46 = ORIENTED_EDGE ( 'NONE', *, *, #779, .F. ) ;
#47 = DIRECTION ( 'NONE',  ( 0.000000000000000000, 1.000000000000000000, 0.000000000000000000 ) ) ;
#48 = ORIENTED_EDGE ( 'NONE', *, *, #614, .F. ) ;
#49 = DIRECTION ( 'NONE',  ( -0.000000000000000000, -0.000000000000000000, -1.000000000000000000 ) ) ;
#50 = EDGE_CURVE ( 'NONE', #787, #330, #148, .T. ) ;
#51 = ORIENTED_EDGE ( 'NONE', *, *, #74, .T. ) ;
#52 = LINE ( 'NONE', #464, #390 ) ;
#53 = CARTESIAN_POINT ( 'NONE',  ( 35.00000000000000000, 260.5000000000000000, -11.50000000000000000 ) ) ;
#54 = ORIENTED_EDGE ( 'NONE', *, *, #62, .F. ) ;
#55 = ADVANCED_FACE ( 'NONE', ( #905 ), #696, .F. ) ;
#56 = CARTESIAN_POINT ( 'NONE',  ( 1.500000000000001332, 262.5000000000000000, -11.50000000000000000 ) ) ;
#57 = CARTESIAN_POINT ( 'NONE',  ( 35.00000000000000000, 260.5000000000000000, -11.50000000000000000 ) ) ;
#58 = VERTEX_POINT ( 'NONE', #370 ) ;
#59 = LINE ( 'NONE', #473, #154 ) ;
#60 = CARTESIAN_POINT ( 'NONE',  ( 8.750000000000000000, 89.00000000000000000, -2.299999999999999822 ) ) ;
#61 = ORIENTED_EDGE ( 'NONE', *, *, #1284, .T. ) ;
#62 = EDGE_CURVE ( 'NONE', #800, #243, #632, .T. ) ;
#63 = CIRCLE ( 'NONE', #1025, 1.250000000000000222 ) ;
#64 = AXIS2_PLACEMENT_3D ( 'NONE', #867, #378, #41 ) ;
#65 = DATE_AND_TIME ( #671, #445 ) ;
#66 = ORIENTED_EDGE ( 'NONE', *, *, #336, .F. ) ;
#67 = CIRCLE ( 'NONE', #619, 4.749999999999999112 ) ;
#68 = CARTESIAN_POINT ( 'NONE',  ( 0.000000000000000000, 0.000000000000000000, -1.199999999999999734 ) ) ;
#69 = DIRECTION ( 'NONE',  ( 0.000000000000000000, 1.000000000000000000, 0.000000000000000000 ) ) ;
#70 = ORIENTED_EDGE ( 'NONE', *, *, #558, .F. ) ;
#71 = CARTESIAN_POINT ( 'NONE',  ( 31.00000000000000000, 87.50000000000000000, -1.049999999999999822 ) ) ;
#72 = LINE ( 'NONE', #1285, #173 ) ;
#73 = VERTEX_POINT ( 'NONE', #462 ) ;
#74 = EDGE_CURVE ( 'NONE', #1133, #1264, #475, .T. ) ;
#75 = CARTESIAN_POINT ( 'NONE',  ( 35.00000000000000000, 91.50000000000001421, -2.299999999999999822 ) ) ;
#76 = ORIENTED_EDGE ( 'NONE', *, *, #1239, .T. ) ;
#77 = CARTESIAN_POINT ( 'NONE',  ( 0.000000000000000000, 264.0000000000000000, -11.50000000000000000 ) ) ;
#78 = ORIENTED_EDGE ( 'NONE', *, *, #579, .T. ) ;
#79 = CYLINDRICAL_SURFACE ( 'NONE', #987, 1.250000000000001110 ) ;
#80 = DIRECTION ( 'NONE',  ( -1.000000000000000000, 0.000000000000000000, 0.000000000000000000 ) ) ;
#81 = VERTEX_POINT ( 'NONE', #984 ) ;
#82 = VERTEX_POINT ( 'NONE', #172 ) ;
#83 = AXIS2_PLACEMENT_3D ( 'NONE', #412, #1080, #820 ) ;
#84 = DIRECTION ( 'NONE',  ( 0.000000000000000000, 1.000000000000000000, 0.000000000000000000 ) ) ;
#85 = CARTESIAN_POINT ( 'NONE',  ( 35.00000000000000000, 250.0353346981404457, -5.500000000000000000 ) ) ;
#86 = VECTOR ( 'NONE', #348, 1000.000000000000000 ) ;
#87 = EDGE_LOOP ( 'NONE', ( #810, #428, #1099, #502, #466, #1306 ) ) ;
#88 = CIRCLE ( 'NONE', #685, 2.750000000000002665 ) ;
#89 = ADVANCED_FACE ( 'NONE', ( #375 ), #186, .T. ) ;
#90 = AXIS2_PLACEMENT_3D ( 'NONE', #1134, #722, #219 ) ;
#91 = ORIENTED_EDGE ( 'NONE', *, *, #366, .F. ) ;
#92 = AXIS2_PLACEMENT_3D ( 'NONE', #915, #410, #383 ) ;
#93 = FACE_OUTER_BOUND ( 'NONE', #221, .T. ) ;
#94 = FACE_OUTER_BOUND ( 'NONE', #992, .T. ) ;
#95 = CARTESIAN_POINT ( 'NONE',  ( 10.80000000000000071, 93.35000000000000853, -1.199999999999999734 ) ) ;
#96 = ADVANCED_FACE ( 'NONE', ( #457 ), #1174, .T. ) ;
#97 = EDGE_LOOP ( 'NONE', ( #1121, #185, #621, #914, #777 ) ) ;
#98 = CARTESIAN_POINT ( 'NONE',  ( 7.250000000000000000, 89.00000000000000000, -1.049999999999999822 ) ) ;
#99 = CC_DESIGN_DATE_AND_TIME_ASSIGNMENT ( #951, #222, ( #611 ) ) ;
#100 = CARTESIAN_POINT ( 'NONE',  ( 35.00000000000000000, 91.50000000000001421, -1.049999999999999822 ) ) ;
#101 = VERTEX_POINT ( 'NONE', #975 ) ;
#102 = DIRECTION ( 'NONE',  ( -1.000000000000000000, -0.000000000000000000, 0.000000000000000000 ) ) ;
#103 = LINE ( 'NONE', #3, #104 ) ;
#104 = VECTOR ( 'NONE', #608, 1000.000000000000000 ) ;
#105 = EDGE_CURVE ( 'NONE', #374, #1133, #1148, .T. ) ;
#106 = CARTESIAN_POINT ( 'NONE',  ( 36.25000000000000711, 260.5000000000000000, -11.50000000000000000 ) ) ;
#107 = DIRECTION ( 'NONE',  ( -1.000000000000000000, 0.000000000000000000, 0.000000000000000000 ) ) ;
#108 = ORIENTED_EDGE ( 'NONE', *, *, #1216, .T. ) ;
#109 = VECTOR ( 'NONE', #713, 1000.000000000000000 ) ;
#110 = VECTOR ( 'NONE', #1184, 1000.000000000000000 ) ;
#111 = CARTESIAN_POINT ( 'NONE',  ( 0.000000000000000000, 0.000000000000000000, -3.399999999999999911 ) ) ;
#112 = PERSON_AND_ORGANIZATION ( #7, #193 ) ;
#113 = EDGE_CURVE ( 'NONE', #449, #559, #63, .T. ) ;
#114 = PLANE ( 'NONE',  #315 ) ;
#115 = EDGE_CURVE ( 'NONE', #974, #81, #404, .T. ) ;
#116 = ORIENTED_EDGE ( 'NONE', *, *, #287, .F. ) ;
#117 = DIRECTION ( 'NONE',  ( 0.000000000000000000, 1.000000000000000000, 0.000000000000000000 ) ) ;
#118 = CARTESIAN_POINT ( 'NONE',  ( 35.00000000000000000, 233.9646653018595828, -2.299999999999999822 ) ) ;
#119 = CARTESIAN_POINT ( 'NONE',  ( 7.250000000000000000, 89.30000000000001137, -1.049999999999999822 ) ) ;
#120 = DIRECTION ( 'NONE',  ( 0.000000000000000000, 1.000000000000000000, 0.000000000000000000 ) ) ;
#121 = ORIENTED_EDGE ( 'NONE', *, *, #1182, .T. ) ;
#122 = CARTESIAN_POINT ( 'NONE',  ( 1.530808498934193050E-16, 264.0000000000000000, -12.75000000000000178 ) ) ;
#123 = CARTESIAN_POINT ( 'NONE',  ( 8.749999999999994671, 87.50000000000000000, -2.299999999999999822 ) ) ;
#124 = CC_DESIGN_APPROVAL ( #1009, ( #1118 ) ) ;
#125 = DIRECTION ( 'NONE',  ( 0.000000000000000000, -0.000000000000000000, 1.000000000000000000 ) ) ;
#126 = EDGE_LOOP ( 'NONE', ( #1297, #400, #1260, #715 ) ) ;
#127 = VECTOR ( 'NONE', #776, 1000.000000000000000 ) ;
#128 = AXIS2_PLACEMENT_3D ( 'NONE', #524, #935, #17 ) ;
#129 = DIRECTION ( 'NONE',  ( -0.000000000000000000, -0.000000000000000000, -1.000000000000000000 ) ) ;
#130 = EDGE_CURVE ( 'NONE', #170, #421, #1197, .T. ) ;
#131 = AXIS2_PLACEMENT_3D ( 'NONE', #1044, #129, #947 ) ;
#132 = AXIS2_PLACEMENT_3D ( 'NONE', #595, #702, #1093 ) ;
#133 = LINE ( 'NONE', #665, #885 ) ;
#134 = DIRECTION ( 'NONE',  ( -1.000000000000000000, 0.000000000000000000, 0.000000000000000000 ) ) ;
#135 = ORIENTED_EDGE ( 'NONE', *, *, #492, .T. ) ;
#136 = EDGE_CURVE ( 'NONE', #1264, #863, #703, .T. ) ;
#137 = DIRECTION ( 'NONE',  ( 0.000000000000000000, 0.000000000000000000, 1.000000000000000000 ) ) ;
#138 = COORDINATED_UNIVERSAL_TIME_OFFSET ( 12, 0, .AHEAD. ) ;
#139 = LINE ( 'NONE', #730, #255 ) ;
#140 = DIRECTION ( 'NONE',  ( -1.000000000000000000, 0.000000000000000000, 0.000000000000000000 ) ) ;
#141 = ORIENTED_EDGE ( 'NONE', *, *, #164, .F. ) ;
#142 = FACE_OUTER_BOUND ( 'NONE', #828, .T. ) ;
#143 = EDGE_CURVE ( 'NONE', #58, #19, #977, .T. ) ;
#144 = DIRECTION ( 'NONE',  ( 0.000000000000000000, -1.000000000000000000, 0.000000000000000000 ) ) ;
#145 = LINE ( 'NONE', #530, #814 ) ;
#146 = VERTEX_POINT ( 'NONE', #1077 ) ;
#147 = CARTESIAN_POINT ( 'NONE',  ( 35.00000000000000000, 233.9646653018595828, -2.299999999999999822 ) ) ;
#148 = CIRCLE ( 'NONE', #850, 2.750000000000002665 ) ;
#149 = ORIENTED_EDGE ( 'NONE', *, *, #1109, .T. ) ;
#150 = AXIS2_PLACEMENT_3D ( 'NONE', #156, #134, #442 ) ;
#151 = DIRECTION ( 'NONE',  ( -1.000000000000000000, 0.000000000000000000, 0.000000000000000000 ) ) ;
#152 = ADVANCED_FACE ( 'NONE', ( #759 ), #1185, .F. ) ;
#153 = VECTOR ( 'NONE', #912, 1000.000000000000000 ) ;
#154 = VECTOR ( 'NONE', #562, 1000.000000000000000 ) ;
#155 = FACE_OUTER_BOUND ( 'NONE', #291, .T. ) ;
#156 = CARTESIAN_POINT ( 'NONE',  ( 32.99999999999997158, 262.5000000000000000, -11.50000000000000000 ) ) ;
#157 = ORIENTED_EDGE ( 'NONE', *, *, #1021, .F. ) ;
#158 = EDGE_CURVE ( 'NONE', #371, #382, #21, .T. ) ;
#159 = ORIENTED_EDGE ( 'NONE', *, *, #244, .F. ) ;
#160 = DIRECTION ( 'NONE',  ( 0.000000000000000000, 0.000000000000000000, 1.000000000000000000 ) ) ;
#161 = ORIENTED_EDGE ( 'NONE', *, *, #1244, .F. ) ;
#162 = DIRECTION ( 'NONE',  ( 0.000000000000000000, 1.000000000000000000, 0.000000000000000000 ) ) ;
#163 = ORIENTED_EDGE ( 'NONE', *, *, #30, .F. ) ;
#164 = EDGE_CURVE ( 'NONE', #19, #1086, #878, .T. ) ;
#165 = ORIENTED_EDGE ( 'NONE', *, *, #771, .F. ) ;
#166 = CARTESIAN_POINT ( 'NONE',  ( 8.749999999999994671, 87.50000000000000000, -2.299999999999999822 ) ) ;
#167 = DIRECTION ( 'NONE',  ( -1.000000000000000000, 0.000000000000000000, -0.000000000000000000 ) ) ;
#168 = VERTEX_POINT ( 'NONE', #669 ) ;
#169 = CARTESIAN_POINT ( 'NONE',  ( 35.00000000000000000, 237.6152545638023810, -3.538361832248503092 ) ) ;
#170 = VERTEX_POINT ( 'NONE', #1085 ) ;
#171 = EDGE_CURVE ( 'NONE', #437, #205, #1177, .T. ) ;
#172 = CARTESIAN_POINT ( 'NONE',  ( 3.700000000000000178, 89.30000000000001137, -3.399999999999999911 ) ) ;
#173 = VECTOR ( 'NONE', #922, 1000.000000000000000 ) ;
#174 = FACE_OUTER_BOUND ( 'NONE', #1186, .T. ) ;
#175 = CARTESIAN_POINT ( 'NONE',  ( 7.843717104351896729, 89.30000000000001137, -3.399999999999999911 ) ) ;
#176 = ORIENTED_EDGE ( 'NONE', *, *, #520, .F. ) ;
#177 = APPROVAL ( #180, 'UNSPECIFIED' ) ;
#178 = TOROIDAL_SURFACE ( 'NONE', #920, 1.500000000000001332, 1.250000000000001110 ) ;
#179 = AXIS2_PLACEMENT_3D ( 'NONE', #979, #565, #467 ) ;
#180 = APPROVAL_STATUS ( 'not_yet_approved' ) ;
#181 = ORIENTED_EDGE ( 'NONE', *, *, #1021, .T. ) ;
#182 = AXIS2_PLACEMENT_3D ( 'NONE', #1258, #160, #347 ) ;
#183 = CARTESIAN_POINT ( 'NONE',  ( 7.250000000000000000, 89.00000000000000000, -3.550000000000000266 ) ) ;
#184 = VERTEX_POINT ( 'NONE', #175 ) ;
#185 = ORIENTED_EDGE ( 'NONE', *, *, #422, .T. ) ;
#186 = PLANE ( 'NONE',  #1126 ) ;
#187 = ORIENTED_EDGE ( 'NONE', *, *, #336, .T. ) ;
#188 = CARTESIAN_POINT ( 'NONE',  ( 32.99999999999997158, 262.5000000000000000, -11.50000000000000000 ) ) ;
#189 = ADVANCED_FACE ( 'NONE', ( #356 ), #178, .T. ) ;
#190 = LINE ( 'NONE', #11, #429 ) ;
#191 = ORIENTED_EDGE ( 'NONE', *, *, #164, .T. ) ;
#192 = ORIENTED_EDGE ( 'NONE', *, *, #381, .F. ) ;
#193 = ORGANIZATION ( 'UNSPECIFIED', 'UNSPECIFIED', '' ) ;
#194 = DIRECTION ( 'NONE',  ( 0.000000000000000000, 0.000000000000000000, 1.000000000000000000 ) ) ;
#195 = ADVANCED_FACE ( 'NONE', ( #571 ), #338, .T. ) ;
#196 = PLANE ( 'NONE',  #959 ) ;
#197 = AXIS2_PLACEMENT_3D ( 'NONE', #68, #1105, #695 ) ;
#198 = VECTOR ( 'NONE', #1023, 1000.000000000000000 ) ;
#199 = AXIS2_PLACEMENT_3D ( 'NONE', #188, #1106, #211 ) ;
#200 = ORIENTED_EDGE ( 'NONE', *, *, #698, .T. ) ;
#201 = EDGE_CURVE ( 'NONE', #229, #677, #88, .T. ) ;
#202 = AXIS2_PLACEMENT_3D ( 'NONE', #851, #334, #749 ) ;
#203 = DIRECTION ( 'NONE',  ( 0.000000000000000000, 0.000000000000000000, 1.000000000000000000 ) ) ;
#204 = DIRECTION ( 'NONE',  ( -1.000000000000000000, 0.000000000000000000, 0.000000000000000000 ) ) ;
#205 = VERTEX_POINT ( 'NONE', #1289 ) ;
#206 = DIRECTION ( 'NONE',  ( -1.000000000000000000, 0.000000000000000000, 0.000000000000000000 ) ) ;
#207 = FACE_OUTER_BOUND ( 'NONE', #1091, .T. ) ;
#208 = CARTESIAN_POINT ( 'NONE',  ( 2.399999999999999911, 265.1999999999999886, -10.09999999999999964 ) ) ;
#209 = EDGE_LOOP ( 'NONE', ( #380, #990, #1181, #1095, #1257 ) ) ;
#210 = EDGE_CURVE ( 'NONE', #1247, #73, #1263, .T. ) ;
#211 = DIRECTION ( 'NONE',  ( 0.000000000000000000, 0.000000000000000000, 1.000000000000000000 ) ) ;
#212 = PERSON_AND_ORGANIZATION ( #7, #193 ) ;
#213 = CARTESIAN_POINT ( 'NONE',  ( 32.99999999999997158, 262.5000000000000000, -11.50000000000000000 ) ) ;
#214 = DIRECTION ( 'NONE',  ( 0.000000000000000000, 0.000000000000000000, -1.000000000000000000 ) ) ;
#215 = ORIENTED_EDGE ( 'NONE', *, *, #1129, .F. ) ;
#216 = VECTOR ( 'NONE', #351, 1000.000000000000000 ) ;
#217 = CIRCLE ( 'NONE', #199, 1.250000000000001110 ) ;
#218 = CIRCLE ( 'NONE', #554, 1.250000000000000222 ) ;
#219 = DIRECTION ( 'NONE',  ( 0.000000000000000000, -0.000000000000000000, 1.000000000000000000 ) ) ;
#220 = SHAPE_DEFINITION_REPRESENTATION ( #1158, #545 ) ;
#221 = EDGE_LOOP ( 'NONE', ( #163, #569, #76, #745 ) ) ;
#222 = DATE_TIME_ROLE ( 'classification_date' ) ;
#223 = DIRECTION ( 'NONE',  ( 0.000000000000000000, 0.000000000000000000, 1.000000000000000000 ) ) ;
#224 = DIRECTION ( 'NONE',  ( 0.000000000000000000, 1.000000000000000000, 0.000000000000000000 ) ) ;
#225 = APPLICATION_CONTEXT ( 'configuration controlled 3d designs of mechanical parts and assemblies' ) ;
#226 = EDGE_CURVE ( 'NONE', #237, #37, #1094, .T. ) ;
#227 = DIRECTION ( 'NONE',  ( 0.000000000000000000, 1.000000000000000000, 0.000000000000000000 ) ) ;
#228 = CARTESIAN_POINT ( 'NONE',  ( 32.99999999999997158, 262.5000000000000000, -10.24999999999999822 ) ) ;
#229 = VERTEX_POINT ( 'NONE', #944 ) ;
#230 = CARTESIAN_POINT ( 'NONE',  ( 35.00000000000000000, 91.50000000000001421, -2.299999999999999822 ) ) ;
#231 = ORIENTED_EDGE ( 'NONE', *, *, #998, .F. ) ;
#232 = DIRECTION ( 'NONE',  ( 0.000000000000000000, -1.000000000000000000, 0.000000000000000000 ) ) ;
#233 = CIRCLE ( 'NONE', #985, 1.249999999999995781 ) ;
#234 = DIRECTION ( 'NONE',  ( 1.000000000000000000, 0.000000000000000000, 0.000000000000000000 ) ) ;
#235 = VECTOR ( 'NONE', #1312, 1000.000000000000000 ) ;
#236 = DIRECTION ( 'NONE',  ( 0.000000000000000000, 0.6084315436571305913, 0.7936063612919197485 ) ) ;
#237 = VERTEX_POINT ( 'NONE', #754 ) ;
#238 = ADVANCED_FACE ( 'NONE', ( #27 ), #862, .F. ) ;
#239 = CYLINDRICAL_SURFACE ( 'NONE', #301, 1.249999999999995115 ) ;
#240 = PERSON_AND_ORGANIZATION_ROLE ( 'creator' ) ;
#241 = CYLINDRICAL_SURFACE ( 'NONE', #1063, 1.250000000000001110 ) ;
#242 = CARTESIAN_POINT ( 'NONE',  ( 33.00000000000000000, 260.5000000000000000, -11.50000000000000000 ) ) ;
#243 = VERTEX_POINT ( 'NONE', #228 ) ;
#244 = EDGE_CURVE ( 'NONE', #205, #146, #145, .T. ) ;
#245 = DIRECTION ( 'NONE',  ( 0.000000000000000000, 0.7936063612919156407, -0.6084315436571361424 ) ) ;
#246 = DIRECTION ( 'NONE',  ( -0.000000000000000000, -0.000000000000000000, -1.000000000000000000 ) ) ;
#247 = TOROIDAL_SURFACE ( 'NONE', #700, 2.000000000000001776, 1.250000000000001110 ) ;
#248 = ORIENTED_EDGE ( 'NONE', *, *, #430, .T. ) ;
#249 = DIRECTION ( 'NONE',  ( 0.000000000000000000, 0.000000000000000000, 1.000000000000000000 ) ) ;
#250 = DIRECTION ( 'NONE',  ( -1.000000000000000000, 0.000000000000000000, 0.000000000000000000 ) ) ;
#251 = AXIS2_PLACEMENT_3D ( 'NONE', #53, #369, #989 ) ;
#252 = DIRECTION ( 'NONE',  ( 0.000000000000000000, -0.000000000000000000, -1.000000000000000000 ) ) ;
#253 = ORIENTED_EDGE ( 'NONE', *, *, #1152, .F. ) ;
#254 = PRODUCT ( 'Harness - VTX Power UART', 'Harness - VTX Power UART', '', ( #718 ) ) ;
#255 = VECTOR ( 'NONE', #224, 1000.000000000000000 ) ;
#256 = DIRECTION ( 'NONE',  ( -1.000000000000000000, -0.000000000000000000, -0.000000000000000000 ) ) ;
#257 = AXIS2_PLACEMENT_3D ( 'NONE', #612, #1229, #1038 ) ;
#258 = AXIS2_PLACEMENT_3D ( 'NONE', #736, #420, #6 ) ;
#259 = ADVANCED_FACE ( 'NONE', ( #961 ), #436, .T. ) ;
#260 = LINE ( 'NONE', #44, #1013 ) ;
#261 = VERTEX_POINT ( 'NONE', #642 ) ;
#262 = ORIENTED_EDGE ( 'NONE', *, *, #1207, .T. ) ;
#263 = DIRECTION ( 'NONE',  ( 0.000000000000000000, 0.000000000000000000, 1.000000000000000000 ) ) ;
#264 = ORIENTED_EDGE ( 'NONE', *, *, #1250, .T. ) ;
#265 = FACE_OUTER_BOUND ( 'NONE', #1074, .T. ) ;
#266 = APPROVAL_DATE_TIME ( #65, #1009 ) ;
#267 = ORIENTED_EDGE ( 'NONE', *, *, #1269, .T. ) ;
#268 = DIRECTION ( 'NONE',  ( 0.000000000000000000, 0.000000000000000000, 1.000000000000000000 ) ) ;
#269 = EDGE_CURVE ( 'NONE', #559, #857, #300, .T. ) ;
#270 = CARTESIAN_POINT ( 'NONE',  ( -2.399999999999999911, 269.5000000000000000, -12.90000000000000036 ) ) ;
#271 = DIRECTION ( 'NONE',  ( -1.000000000000000000, 0.000000000000000000, 0.000000000000000000 ) ) ;
#272 = VERTEX_POINT ( 'NONE', #329 ) ;
#273 = CYLINDRICAL_SURFACE ( 'NONE', #1113, 1.250000000000000222 ) ;
#274 = DATE_AND_TIME ( #373, #424 ) ;
#275 = ADVANCED_FACE ( 'NONE', ( #744 ), #448, .T. ) ;
#276 = VERTEX_POINT ( 'NONE', #537 ) ;
#277 = CIRCLE ( 'NONE', #789, 1.250000000000001110 ) ;
#278 = DIRECTION ( 'NONE',  ( 1.000000000000000000, 0.000000000000000000, 0.000000000000000000 ) ) ;
#279 = VERTEX_POINT ( 'NONE', #1252 ) ;
#280 = VECTOR ( 'NONE', #468, 1000.000000000000000 ) ;
#281 = LINE ( 'NONE', #859, #924 ) ;
#282 = AXIS2_PLACEMENT_3D ( 'NONE', #731, #655, #1139 ) ;
#283 = CARTESIAN_POINT ( 'NONE',  ( 6.656282895648104159, 89.30000000000001137, -3.399999999999999911 ) ) ;
#284 = ORIENTED_EDGE ( 'NONE', *, *, #327, .F. ) ;
#285 = VECTOR ( 'NONE', #1195, 1000.000000000000000 ) ;
#286 = VERTEX_POINT ( 'NONE', #557 ) ;
#287 = EDGE_CURVE ( 'NONE', #866, #764, #852, .T. ) ;
#288 = LINE ( 'NONE', #1114, #24 ) ;
#289 = DIRECTION ( 'NONE',  ( -0.000000000000000000, -0.000000000000000000, -1.000000000000000000 ) ) ;
#290 = ORIENTED_EDGE ( 'NONE', *, *, #1081, .T. ) ;
#291 = EDGE_LOOP ( 'NONE', ( #46, #760, #689, #870, #1283, #187, #483 ) ) ;
#292 = EDGE_CURVE ( 'NONE', #857, #261, #344, .T. ) ;
#293 = CARTESIAN_POINT ( 'NONE',  ( 3.700000000000000178, 89.30000000000001137, -1.199999999999999734 ) ) ;
#294 = DIRECTION ( 'NONE',  ( 0.000000000000000000, -0.000000000000000000, -1.000000000000000000 ) ) ;
#295 = ORIENTED_EDGE ( 'NONE', *, *, #1043, .F. ) ;
#296 = LINE ( 'NONE', #607, #767 ) ;
#297 = CARTESIAN_POINT ( 'NONE',  ( 1.500000000000001332, 263.7500000000000568, -11.50000000000000000 ) ) ;
#298 = AXIS2_PLACEMENT_3D ( 'NONE', #676, #69, #384 ) ;
#299 = EDGE_CURVE ( 'NONE', #243, #471, #318, .T. ) ;
#300 = CIRCLE ( 'NONE', #904, 1.250000000000000222 ) ;
#301 = AXIS2_PLACEMENT_3D ( 'NONE', #576, #245, #481 ) ;
#302 = ORIENTED_EDGE ( 'NONE', *, *, #937, .T. ) ;
#303 = AXIS2_PLACEMENT_3D ( 'NONE', #242, #1047, #772 ) ;
#304 = DIRECTION ( 'NONE',  ( -1.000000000000000000, 0.000000000000000000, 0.000000000000000000 ) ) ;
#305 =( LENGTH_UNIT ( ) NAMED_UNIT ( * ) SI_UNIT ( .MILLI., .METRE. ) );
#306 = LINE ( 'NONE', #1116, #1045 ) ;
#307 = DIRECTION ( 'NONE',  ( 0.000000000000000000, 0.000000000000000000, 1.000000000000000000 ) ) ;
#308 = ORIENTED_EDGE ( 'NONE', *, *, #105, .T. ) ;
#309 = CARTESIAN_POINT ( 'NONE',  ( 3.700000000000000178, 89.30000000000001137, -3.399999999999999911 ) ) ;
#310 = DIRECTION ( 'NONE',  ( 0.000000000000000000, -1.000000000000000000, 0.000000000000000000 ) ) ;
#311 = ORIENTED_EDGE ( 'NONE', *, *, #422, .F. ) ;
#312 = CARTESIAN_POINT ( 'NONE',  ( 2.399999999999999911, 265.1999999999999886, -10.09999999999999964 ) ) ;
#313 = LOCAL_TIME ( 17, 50, 24.00000000000000000, #138 ) ;
#314 = DIRECTION ( 'NONE',  ( 0.000000000000000000, 1.000000000000000000, 0.000000000000000000 ) ) ;
#315 = AXIS2_PLACEMENT_3D ( 'NONE', #735, #214, #822 ) ;
#316 = CARTESIAN_POINT ( 'NONE',  ( 7.250000000000000000, 89.30000000000001137, -2.299999999999999822 ) ) ;
#317 = ORIENTED_EDGE ( 'NONE', *, *, #539, .F. ) ;
#318 = CIRCLE ( 'NONE', #855, 1.250000000000001110 ) ;
#319 = AXIS2_PLACEMENT_3D ( 'NONE', #293, #921, #498 ) ;
#320 = AXIS2_PLACEMENT_3D ( 'NONE', #1262, #350, #1270 ) ;
#321 = CARTESIAN_POINT ( 'NONE',  ( 0.000000000000000000, 265.1999999999999886, -11.50000000000000000 ) ) ;
#322 = ADVANCED_FACE ( 'NONE', ( #207 ), #196, .F. ) ;
#323 = CARTESIAN_POINT ( 'NONE',  ( 7.250000000000000000, 89.00000000000000000, -2.299999999999999822 ) ) ;
#324 = ORIENTED_EDGE ( 'NONE', *, *, #667, .F. ) ;
#325 = FACE_OUTER_BOUND ( 'NONE', #209, .T. ) ;
#326 = SECURITY_CLASSIFICATION_LEVEL ( 'unclassified' ) ;
#327 = EDGE_CURVE ( 'NONE', #205, #101, #190, .T. ) ;
#328 = EDGE_CURVE ( 'NONE', #392, #1110, #692, .T. ) ;
#329 = CARTESIAN_POINT ( 'NONE',  ( 7.250000000000000000, 89.30000000000001137, -3.550000000000000266 ) ) ;
#330 = VERTEX_POINT ( 'NONE', #1226 ) ;
#331 = FACE_OUTER_BOUND ( 'NONE', #684, .T. ) ;
#332 = DIRECTION ( 'NONE',  ( -0.000000000000000000, -0.000000000000000000, -1.000000000000000000 ) ) ;
#333 = CC_DESIGN_SECURITY_CLASSIFICATION ( #611, ( #1317 ) ) ;
#334 = DIRECTION ( 'NONE',  ( 0.000000000000000000, 0.7936063612919156407, -0.6084315436571361424 ) ) ;
#335 = CARTESIAN_POINT ( 'NONE',  ( -2.399999999999999911, 265.1999999999999886, -12.90000000000000036 ) ) ;
#336 = EDGE_CURVE ( 'NONE', #1078, #229, #40, .T. ) ;
#337 = ORIENTED_EDGE ( 'NONE', *, *, #1129, .T. ) ;
#338 = TOROIDAL_SURFACE ( 'NONE', #1089, 6.000000000000000000, 1.250000000000001110 ) ;
#339 = AXIS2_PLACEMENT_3D ( 'NONE', #361, #555, #874 ) ;
#340 = DIRECTION ( 'NONE',  ( 0.000000000000000000, 0.000000000000000000, -1.000000000000000000 ) ) ;
#341 = DATE_AND_TIME ( #1243, #1194 ) ;
#342 = AXIS2_PLACEMENT_3D ( 'NONE', #321, #117, #522 ) ;
#343 = EDGE_CURVE ( 'NONE', #272, #1078, #803, .T. ) ;
#344 = LINE ( 'NONE', #100, #766 ) ;
#345 = ORIENTED_EDGE ( 'NONE', *, *, #784, .F. ) ;
#346 = ORIENTED_EDGE ( 'NONE', *, *, #843, .T. ) ;
#347 = DIRECTION ( 'NONE',  ( 1.000000000000000000, 0.000000000000000000, 0.000000000000000000 ) ) ;
#348 = DIRECTION ( 'NONE',  ( 1.000000000000000000, 0.000000000000000000, 0.000000000000000000 ) ) ;
#349 = ORIENTED_EDGE ( 'NONE', *, *, #45, .T. ) ;
#350 = DIRECTION ( 'NONE',  ( 0.000000000000000000, 0.000000000000000000, 1.000000000000000000 ) ) ;
#351 = DIRECTION ( 'NONE',  ( 0.000000000000000000, 1.000000000000000000, 0.000000000000000000 ) ) ;
#352 = ORIENTED_EDGE ( 'NONE', *, *, #130, .T. ) ;
#353 = DIRECTION ( 'NONE',  ( 0.000000000000000000, 1.000000000000000000, 0.000000000000000000 ) ) ;
#354 = ORIENTED_EDGE ( 'NONE', *, *, #1016, .F. ) ;
#355 = CARTESIAN_POINT ( 'NONE',  ( 0.000000000000000000, 264.0000000000000000, -11.50000000000000000 ) ) ;
#356 = FACE_OUTER_BOUND ( 'NONE', #1065, .T. ) ;
#357 = VECTOR ( 'NONE', #120, 1000.000000000000000 ) ;
#358 = AXIS2_PLACEMENT_3D ( 'NONE', #1011, #232, #252 ) ;
#359 = EDGE_LOOP ( 'NONE', ( #1209, #549, #1000, #900, #1031, #157 ) ) ;
#360 = CIRCLE ( 'NONE', #1304, 1.250000000000001110 ) ;
#361 = CARTESIAN_POINT ( 'NONE',  ( 31.00000000000000000, 87.50000000000000000, -2.299999999999999822 ) ) ;
#362 = AXIS2_PLACEMENT_3D ( 'NONE', #23, #433, #837 ) ;
#363 = AXIS2_PLACEMENT_3D ( 'NONE', #970, #675, #864 ) ;
#364 = DIRECTION ( 'NONE',  ( 1.000000000000000000, 0.000000000000000000, 0.000000000000000000 ) ) ;
#365 = EDGE_LOOP ( 'NONE', ( #872, #531, #586, #1125, #1303 ) ) ;
#366 = EDGE_CURVE ( 'NONE', #146, #82, #599, .T. ) ;
#367 = EDGE_LOOP ( 'NONE', ( #508, #895, #409, #836 ) ) ;
#368 = DIRECTION ( 'NONE',  ( 0.000000000000000000, 0.000000000000000000, 1.000000000000000000 ) ) ;
#369 = DIRECTION ( 'NONE',  ( 0.000000000000000000, 1.000000000000000000, 0.000000000000000000 ) ) ;
#370 = CARTESIAN_POINT ( 'NONE',  ( 0.000000000000000000, 264.0000000000000000, -10.24999999999999822 ) ) ;
#371 = VERTEX_POINT ( 'NONE', #297 ) ;
#372 = ADVANCED_FACE ( 'NONE', ( #931 ), #451, .T. ) ;
#373 = CALENDAR_DATE ( 2026, 29, 9 ) ;
#374 = VERTEX_POINT ( 'NONE', #106 ) ;
#375 = FACE_OUTER_BOUND ( 'NONE', #635, .T. ) ;
#376 = ORIENTED_EDGE ( 'NONE', *, *, #525, .F. ) ;
#377 = ORIENTED_EDGE ( 'NONE', *, *, #269, .T. ) ;
#378 = DIRECTION ( 'NONE',  ( 0.000000000000000000, 1.000000000000000000, 0.000000000000000000 ) ) ;
#379 = COORDINATED_UNIVERSAL_TIME_OFFSET ( 12, 0, .AHEAD. ) ;
#380 = ORIENTED_EDGE ( 'NONE', *, *, #539, .T. ) ;
#381 = EDGE_CURVE ( 'NONE', #787, #276, #942, .T. ) ;
#382 = VERTEX_POINT ( 'NONE', #798 ) ;
#383 = DIRECTION ( 'NONE',  ( 0.000000000000000000, 0.6084315436571309244, 0.7936063612919194155 ) ) ;
#384 = DIRECTION ( 'NONE',  ( 0.000000000000000000, 0.000000000000000000, 1.000000000000000000 ) ) ;
#385 = ORIENTED_EDGE ( 'NONE', *, *, #1200, .T. ) ;
#386 = CARTESIAN_POINT ( 'NONE',  ( 33.75000000000000000, 91.50000000000001421, -2.299999999999999822 ) ) ;
#387 = CIRCLE ( 'NONE', #550, 1.249999999999995337 ) ;
#388 = CIRCLE ( 'NONE', #1150, 1.250000000000000222 ) ;
#389 = ORIENTED_EDGE ( 'NONE', *, *, #113, .T. ) ;
#390 = VECTOR ( 'NONE', #1281, 1000.000000000000000 ) ;
#391 = EDGE_CURVE ( 'NONE', #471, #1104, #1199, .T. ) ;
#392 = VERTEX_POINT ( 'NONE', #499 ) ;
#393 = DIRECTION ( 'NONE',  ( -1.000000000000000000, -0.000000000000000000, -0.000000000000000000 ) ) ;
#394 = PRODUCT_RELATED_PRODUCT_CATEGORY ( 'detail', '', ( #254 ) ) ;
#395 = DIRECTION ( 'NONE',  ( 0.000000000000000000, 0.000000000000000000, -1.000000000000000000 ) ) ;
#396 = VERTEX_POINT ( 'NONE', #512 ) ;
#397 = CARTESIAN_POINT ( 'NONE',  ( 3.700000000000000178, 89.30000000000001137, -1.199999999999999734 ) ) ;
#398 = EDGE_CURVE ( 'NONE', #1233, #955, #399, .T. ) ;
#399 = LINE ( 'NONE', #707, #1236 ) ;
#400 = ORIENTED_EDGE ( 'NONE', *, *, #681, .F. ) ;
#401 = LINE ( 'NONE', #309, #235 ) ;
#402 = EDGE_CURVE ( 'NONE', #170, #396, #387, .T. ) ;
#403 = CARTESIAN_POINT ( 'NONE',  ( 1.500000000000001332, 262.5000000000000000, -11.50000000000000000 ) ) ;
#404 = CIRCLE ( 'NONE', #742, 1.250000000000001110 ) ;
#405 = CIRCLE ( 'NONE', #880, 1.250000000000000222 ) ;
#406 = CARTESIAN_POINT ( 'NONE',  ( 1.530808498934193050E-16, 265.1999999999999886, -12.75000000000000178 ) ) ;
#407 = CC_DESIGN_DATE_AND_TIME_ASSIGNMENT ( #274, #679, ( #1118 ) ) ;
#408 = VECTOR ( 'NONE', #411, 1000.000000000000000 ) ;
#409 = ORIENTED_EDGE ( 'NONE', *, *, #5, .T. ) ;
#410 = DIRECTION ( 'NONE',  ( 0.000000000000000000, 0.7936063612919156407, -0.6084315436571361424 ) ) ;
#411 = DIRECTION ( 'NONE',  ( 1.000000000000000000, 0.000000000000000000, 0.000000000000000000 ) ) ;
#412 = CARTESIAN_POINT ( 'NONE',  ( 0.000000000000000000, 0.000000000000000000, 0.000000000000000000 ) ) ;
#413 = CARTESIAN_POINT ( 'NONE',  ( 35.00000000000000000, 250.0353346981404457, -11.50000000000000888 ) ) ;
#414 = DIRECTION ( 'NONE',  ( 0.000000000000000000, 0.000000000000000000, -1.000000000000000000 ) ) ;
#415 = CARTESIAN_POINT ( 'NONE',  ( 35.00000000000000000, 260.5000000000000000, -12.75000000000000178 ) ) ;
#416 = ORIENTED_EDGE ( 'NONE', *, *, #366, .T. ) ;
#417 = CARTESIAN_POINT ( 'NONE',  ( 35.00000000000000000, 91.50000000000001421, -1.049999999999999822 ) ) ;
#418 = COORDINATED_UNIVERSAL_TIME_OFFSET ( 12, 0, .AHEAD. ) ;
#419 = CARTESIAN_POINT ( 'NONE',  ( 35.00000000000000000, 91.50000000000001421, -3.550000000000000266 ) ) ;
#420 = DIRECTION ( 'NONE',  ( -1.000000000000000000, 0.000000000000000000, 0.000000000000000000 ) ) ;
#421 = VERTEX_POINT ( 'NONE', #1102 ) ;
#422 = EDGE_CURVE ( 'NONE', #81, #330, #22, .T. ) ;
#423 = FACE_OUTER_BOUND ( 'NONE', #962, .T. ) ;
#424 = LOCAL_TIME ( 17, 50, 24.00000000000000000, #418 ) ;
#425 = VECTOR ( 'NONE', #968, 1000.000000000000000 ) ;
#426 = CIRCLE ( 'NONE', #811, 4.750000000000009770 ) ;
#427 = CARTESIAN_POINT ( 'NONE',  ( 32.99999999999997158, 262.5000000000000000, -12.75000000000000178 ) ) ;
#428 = ORIENTED_EDGE ( 'NONE', *, *, #381, .T. ) ;
#429 = VECTOR ( 'NONE', #289, 1000.000000000000000 ) ;
#430 = EDGE_CURVE ( 'NONE', #286, #672, #306, .T. ) ;
#431 = TOROIDAL_SURFACE ( 'NONE', #533, 6.000000000000010658, 1.250000000000001110 ) ;
#432 = CIRCLE ( 'NONE', #965, 1.250000000000001110 ) ;
#433 = DIRECTION ( 'NONE',  ( 0.000000000000000000, 1.000000000000000000, 0.000000000000000000 ) ) ;
#434 = DATE_AND_TIME ( #628, #809 ) ;
#435 = EDGE_CURVE ( 'NONE', #421, #1223, #360, .T. ) ;
#436 = CYLINDRICAL_SURFACE ( 'NONE', #282, 1.250000000000000222 ) ;
#437 = VERTEX_POINT ( 'NONE', #95 ) ;
#438 = FACE_OUTER_BOUND ( 'NONE', #367, .T. ) ;
#439 = CARTESIAN_POINT ( 'NONE',  ( 0.000000000000000000, 264.0000000000000000, -11.50000000000000000 ) ) ;
#440 = ADVANCED_FACE ( 'NONE', ( #504 ), #725, .T. ) ;
#441 = DIRECTION ( 'NONE',  ( 0.000000000000000000, 1.000000000000000000, 0.000000000000000000 ) ) ;
#442 = DIRECTION ( 'NONE',  ( 0.000000000000000000, 0.000000000000000000, 1.000000000000000000 ) ) ;
#443 = ORIENTED_EDGE ( 'NONE', *, *, #1016, .T. ) ;
#444 = DIRECTION ( 'NONE',  ( 0.000000000000000000, 1.000000000000000000, 0.000000000000000000 ) ) ;
#445 = LOCAL_TIME ( 17, 50, 24.00000000000000000, #893 ) ;
#446 = ADVANCED_FACE ( 'NONE', ( #1018 ), #241, .T. ) ;
#447 = DIRECTION ( 'NONE',  ( 0.000000000000000000, 1.000000000000000000, 0.000000000000000000 ) ) ;
#448 = CYLINDRICAL_SURFACE ( 'NONE', #150, 1.250000000000001110 ) ;
#449 = VERTEX_POINT ( 'NONE', #419 ) ;
#450 = AXIS2_PLACEMENT_3D ( 'NONE', #85, #908, #395 ) ;
#451 = TOROIDAL_SURFACE ( 'NONE', #450, 6.000000000000010658, 1.250000000000001110 ) ;
#452 = DIRECTION ( 'NONE',  ( 0.000000000000000000, 0.000000000000000000, -1.000000000000000000 ) ) ;
#453 = AXIS2_PLACEMENT_3D ( 'NONE', #796, #1101, #203 ) ;
#454 = DIRECTION ( 'NONE',  ( 0.000000000000000000, 0.7936063612919164179, -0.6084315436571350322 ) ) ;
#455 = FACE_OUTER_BOUND ( 'NONE', #461, .T. ) ;
#456 = DESIGN_CONTEXT ( 'detailed design', #225, 'design' ) ;
#457 = FACE_OUTER_BOUND ( 'NONE', #919, .T. ) ;
#458 = CARTESIAN_POINT ( 'NONE',  ( 3.700000000000000178, 89.30000000000001137, -3.399999999999999911 ) ) ;
#459 = VERTEX_POINT ( 'NONE', #25 ) ;
#460 = CARTESIAN_POINT ( 'NONE',  ( -2.399999999999999911, 265.1999999999999886, -10.09999999999999964 ) ) ;
#461 = EDGE_LOOP ( 'NONE', ( #792, #804, #1037, #1024 ) ) ;
#462 = CARTESIAN_POINT ( 'NONE',  ( 10.80000000000000071, 93.35000000000000853, -3.399999999999999911 ) ) ;
#463 = ADVANCED_FACE ( 'NONE', ( #624 ), #827, .T. ) ;
#464 = CARTESIAN_POINT ( 'NONE',  ( 35.00000000000000000, 255.5000000000000000, -10.24999999999999822 ) ) ;
#465 = CARTESIAN_POINT ( 'NONE',  ( 3.700000000000000178, 93.35000000000000853, -1.199999999999999734 ) ) ;
#466 = ORIENTED_EDGE ( 'NONE', *, *, #1284, .F. ) ;
#467 = DIRECTION ( 'NONE',  ( 0.000000000000000000, 0.000000000000000000, -1.000000000000000000 ) ) ;
#468 = DIRECTION ( 'NONE',  ( 0.000000000000000000, 0.7936063612919156407, -0.6084315436571361424 ) ) ;
#469 = LINE ( 'NONE', #1259, #657 ) ;
#470 = ORIENTED_EDGE ( 'NONE', *, *, #171, .T. ) ;
#471 = VERTEX_POINT ( 'NONE', #1131 ) ;
#472 = EDGE_CURVE ( 'NONE', #764, #1233, #139, .T. ) ;
#473 = CARTESIAN_POINT ( 'NONE',  ( 3.700000000000000178, 89.30000000000001137, -3.399999999999999911 ) ) ;
#474 = CARTESIAN_POINT ( 'NONE',  ( 35.00000000000000000, 233.9646653018595828, -8.300000000000000711 ) ) ;
#475 = CIRCLE ( 'NONE', #1008, 1.250000000000001110 ) ;
#476 = ORIENTED_EDGE ( 'NONE', *, *, #201, .T. ) ;
#477 = CIRCLE ( 'NONE', #64, 1.250000000000001110 ) ;
#478 = DIRECTION ( 'NONE',  ( 0.000000000000000000, 0.6084315436571305913, 0.7936063612919197485 ) ) ;
#479 = APPROVAL_ROLE ( '' ) ;
#480 = ORIENTED_EDGE ( 'NONE', *, *, #579, .F. ) ;
#481 = DIRECTION ( 'NONE',  ( 0.000000000000000000, 0.6084315436571309244, 0.7936063612919194155 ) ) ;
#482 = DIRECTION ( 'NONE',  ( 0.000000000000000000, 0.000000000000000000, 1.000000000000000000 ) ) ;
#483 = ORIENTED_EDGE ( 'NONE', *, *, #1043, .T. ) ;
#484 = DIRECTION ( 'NONE',  ( 0.000000000000000000, 1.000000000000000000, 0.000000000000000000 ) ) ;
#485 = EDGE_CURVE ( 'NONE', #168, #677, #1112, .T. ) ;
#486 = ORIENTED_EDGE ( 'NONE', *, *, #485, .F. ) ;
#487 = ORIENTED_EDGE ( 'NONE', *, *, #1261, .T. ) ;
#488 = CARTESIAN_POINT ( 'NONE',  ( 8.749999999999994671, 87.50000000000000000, -2.299999999999999822 ) ) ;
#489 = DIRECTION ( 'NONE',  ( 0.000000000000000000, 0.000000000000000000, 1.000000000000000000 ) ) ;
#490 = ORIENTED_EDGE ( 'NONE', *, *, #50, .T. ) ;
#491 = PLANE ( 'NONE',  #319 ) ;
#492 = EDGE_CURVE ( 'NONE', #37, #437, #542, .T. ) ;
#493 = VERTEX_POINT ( 'NONE', #119 ) ;
#494 = CIRCLE ( 'NONE', #1231, 1.249999999999995781 ) ;
#495 = EDGE_LOOP ( 'NONE', ( #354, #14, #1146, #643, #302, #389 ) ) ;
#496 = AXIS2_PLACEMENT_3D ( 'NONE', #57, #447, #743 ) ;
#497 = AXIS2_PLACEMENT_3D ( 'NONE', #1299, #1271, #167 ) ;
#498 = DIRECTION ( 'NONE',  ( 0.000000000000000000, 0.000000000000000000, -1.000000000000000000 ) ) ;
#499 = CARTESIAN_POINT ( 'NONE',  ( -2.399999999999999911, 269.5000000000000000, -10.09999999999999964 ) ) ;
#500 = ORIENTED_EDGE ( 'NONE', *, *, #1003, .F. ) ;
#501 = CIRCLE ( 'NONE', #496, 1.250000000000001110 ) ;
#502 = ORIENTED_EDGE ( 'NONE', *, *, #667, .T. ) ;
#503 = CYLINDRICAL_SURFACE ( 'NONE', #92, 1.249999999999995115 ) ;
#504 = FACE_OUTER_BOUND ( 'NONE', #495, .T. ) ;
#505 = ORIENTED_EDGE ( 'NONE', *, *, #566, .T. ) ;
#506 = CARTESIAN_POINT ( 'NONE',  ( 32.99999999999997158, 262.5000000000000000, -11.50000000000000000 ) ) ;
#507 = CC_DESIGN_PERSON_AND_ORGANIZATION_ASSIGNMENT ( #212, #613, ( #254 ) ) ;
#508 = ORIENTED_EDGE ( 'NONE', *, *, #130, .F. ) ;
#509 = FACE_OUTER_BOUND ( 'NONE', #1290, .T. ) ;
#510 = DIRECTION ( 'NONE',  ( 0.000000000000000000, 1.000000000000000000, 0.000000000000000000 ) ) ;
#511 = DIRECTION ( 'NONE',  ( 0.000000000000000000, 1.000000000000000000, 0.000000000000000000 ) ) ;
#512 = CARTESIAN_POINT ( 'NONE',  ( 35.00000000000000000, 247.1452848657690140, -9.269630216136610201 ) ) ;
#513 = AXIS2_PLACEMENT_3D ( 'NONE', #1073, #1268, #774 ) ;
#514 = AXIS2_PLACEMENT_3D ( 'NONE', #56, #886, #778 ) ;
#515 = TOROIDAL_SURFACE ( 'NONE', #182, 4.000000000000003553, 1.250000000000000222 ) ;
#516 = ORIENTED_EDGE ( 'NONE', *, *, #664, .F. ) ;
#517 = CARTESIAN_POINT ( 'NONE',  ( 35.00000000000000000, 91.50000000000001421, -3.550000000000000266 ) ) ;
#518 = PERSON_AND_ORGANIZATION_ROLE ( 'creator' ) ;
#519 = CARTESIAN_POINT ( 'NONE',  ( -2.399999999999999911, 269.5000000000000000, -10.09999999999999964 ) ) ;
#520 = EDGE_CURVE ( 'NONE', #521, #666, #705, .T. ) ;
#521 = VERTEX_POINT ( 'NONE', #832 ) ;
#522 = DIRECTION ( 'NONE',  ( 0.000000000000000000, 0.000000000000000000, 1.000000000000000000 ) ) ;
#523 = PERSON_AND_ORGANIZATION_ROLE ( 'design_supplier' ) ;
#524 = CARTESIAN_POINT ( 'NONE',  ( 31.00000000000000355, 91.50000000000000000, -2.299999999999999822 ) ) ;
#525 = EDGE_CURVE ( 'NONE', #1005, #1078, #405, .T. ) ;
#526 = ORIENTED_EDGE ( 'NONE', *, *, #980, .T. ) ;
#527 = CARTESIAN_POINT ( 'NONE',  ( -2.399999999999999911, 265.1999999999999886, -12.90000000000000036 ) ) ;
#528 = PERSON_AND_ORGANIZATION ( #7, #193 ) ;
#529 =( GEOMETRIC_REPRESENTATION_CONTEXT ( 3 ) GLOBAL_UNCERTAINTY_ASSIGNED_CONTEXT ( ( #1171 ) ) GLOBAL_UNIT_ASSIGNED_CONTEXT ( ( #305, #780, #1225 ) ) REPRESENTATION_CONTEXT ( 'NONE', 'WORKASPACE' ) );
#530 = CARTESIAN_POINT ( 'NONE',  ( 3.700000000000000178, 89.30000000000001137, -1.199999999999999734 ) ) ;
#531 = ORIENTED_EDGE ( 'NONE', *, *, #435, .T. ) ;
#532 = AXIS2_PLACEMENT_3D ( 'NONE', #123, #952, #1034 ) ;
#533 = AXIS2_PLACEMENT_3D ( 'NONE', #1147, #234, #1050 ) ;
#534 = CIRCLE ( 'NONE', #303, 0.7500000000000006661 ) ;
#535 = DIRECTION ( 'NONE',  ( 0.000000000000000000, -1.000000000000000000, 0.000000000000000000 ) ) ;
#536 = CARTESIAN_POINT ( 'NONE',  ( 35.00000000000000000, 250.0353346981404457, -10.25000000000000711 ) ) ;
#537 = CARTESIAN_POINT ( 'NONE',  ( 1.500000000000001332, 262.5000000000000000, -10.24999999999999822 ) ) ;
#538 = ORIENTED_EDGE ( 'NONE', *, *, #625, .T. ) ;
#539 = EDGE_CURVE ( 'NONE', #1223, #421, #477, .T. ) ;
#540 = PLANE ( 'NONE',  #795 ) ;
#541 = CALENDAR_DATE ( 2026, 29, 9 ) ;
#542 = LINE ( 'NONE', #838, #1276 ) ;
#543 = DIRECTION ( 'NONE',  ( 0.000000000000000000, 0.000000000000000000, 1.000000000000000000 ) ) ;
#544 = ORIENTED_EDGE ( 'NONE', *, *, #1167, .T. ) ;
#545 = ADVANCED_BREP_SHAPE_REPRESENTATION ( 'Harness - VTX Power UART', ( #688, #83 ), #529 ) ;
#546 = DIRECTION ( 'NONE',  ( 0.000000000000000000, 0.000000000000000000, 1.000000000000000000 ) ) ;
#547 = PERSON_AND_ORGANIZATION ( #7, #193 ) ;
#548 = DIRECTION ( 'NONE',  ( 0.000000000000000000, 1.000000000000000000, 0.000000000000000000 ) ) ;
#549 = ORIENTED_EDGE ( 'NONE', *, *, #566, .F. ) ;
#550 = AXIS2_PLACEMENT_3D ( 'NONE', #1318, #604, #1222 ) ;
#551 = VECTOR ( 'NONE', #729, 1000.000000000000000 ) ;
#552 = PLANE ( 'NONE',  #1173 ) ;
#553 = ORIENTED_EDGE ( 'NONE', *, *, #605, .T. ) ;
#554 = AXIS2_PLACEMENT_3D ( 'NONE', #948, #441, #556 ) ;
#555 = DIRECTION ( 'NONE',  ( -1.000000000000000000, 0.000000000000000000, 0.000000000000000000 ) ) ;
#556 = DIRECTION ( 'NONE',  ( 0.000000000000000000, 0.000000000000000000, 1.000000000000000000 ) ) ;
#557 = CARTESIAN_POINT ( 'NONE',  ( 2.399999999999999911, 265.1999999999999886, -10.09999999999999964 ) ) ;
#558 = EDGE_CURVE ( 'NONE', #1060, #279, #233, .T. ) ;
#559 = VERTEX_POINT ( 'NONE', #1070 ) ;
#560 = DIRECTION ( 'NONE',  ( -1.000000000000000000, 0.000000000000000000, 0.000000000000000000 ) ) ;
#561 = ORIENTED_EDGE ( 'NONE', *, *, #1228, .T. ) ;
#562 = DIRECTION ( 'NONE',  ( 1.000000000000000000, 0.000000000000000000, 0.000000000000000000 ) ) ;
#563 = DIRECTION ( 'NONE',  ( 0.000000000000000000, 0.000000000000000000, -1.000000000000000000 ) ) ;
#564 = ORIENTED_EDGE ( 'NONE', *, *, #328, .F. ) ;
#565 = DIRECTION ( 'NONE',  ( 0.000000000000000000, -1.000000000000000000, 0.000000000000000000 ) ) ;
#566 = EDGE_CURVE ( 'NONE', #73, #101, #1079, .T. ) ;
#567 = ORIENTED_EDGE ( 'NONE', *, *, #158, .T. ) ;
#568 = CARTESIAN_POINT ( 'NONE',  ( 32.99999999999997158, 262.5000000000000000, -11.50000000000000000 ) ) ;
#569 = ORIENTED_EDGE ( 'NONE', *, *, #1244, .T. ) ;
#570 = CARTESIAN_POINT ( 'NONE',  ( 8.750000000000000000, 89.00000000000000000, -2.299999999999999822 ) ) ;
#571 = FACE_OUTER_BOUND ( 'NONE', #755, .T. ) ;
#572 = ORIENTED_EDGE ( 'NONE', *, *, #629, .T. ) ;
#573 = CC_DESIGN_PERSON_AND_ORGANIZATION_ASSIGNMENT ( #934, #939, ( #611 ) ) ;
#574 = DIRECTION ( 'NONE',  ( 0.000000000000000000, 0.000000000000000000, 1.000000000000000000 ) ) ;
#575 = ORIENTED_EDGE ( 'NONE', *, *, #472, .F. ) ;
#576 = CARTESIAN_POINT ( 'NONE',  ( 35.00000000000000000, 237.6152545638023810, -3.538361832248503092 ) ) ;
#577 = DIRECTION ( 'NONE',  ( -1.000000000000000000, -0.000000000000000000, 0.000000000000000000 ) ) ;
#578 = VERTEX_POINT ( 'NONE', #71 ) ;
#579 = EDGE_CURVE ( 'NONE', #1104, #382, #281, .T. ) ;
#580 = VECTOR ( 'NONE', #256, 1000.000000000000000 ) ;
#581 = VECTOR ( 'NONE', #444, 1000.000000000000000 ) ;
#582 = CARTESIAN_POINT ( 'NONE',  ( 33.00000000000000000, 260.5000000000000000, -11.50000000000000000 ) ) ;
#583 = ORIENTED_EDGE ( 'NONE', *, *, #171, .F. ) ;
#584 = ORIENTED_EDGE ( 'NONE', *, *, #391, .T. ) ;
#585 = DIRECTION ( 'NONE',  ( 0.000000000000000000, 0.000000000000000000, 1.000000000000000000 ) ) ;
#586 = ORIENTED_EDGE ( 'NONE', *, *, #1036, .T. ) ;
#587 = ADVANCED_FACE ( 'NONE', ( #1273 ), #663, .T. ) ;
#588 = DIRECTION ( 'NONE',  ( 0.000000000000000000, 0.000000000000000000, 1.000000000000000000 ) ) ;
#589 = ORIENTED_EDGE ( 'NONE', *, *, #210, .T. ) ;
#590 = ORIENTED_EDGE ( 'NONE', *, *, #741, .F. ) ;
#591 = CARTESIAN_POINT ( 'NONE',  ( 7.250000000000000000, 89.30000000000001137, -2.299999999999999822 ) ) ;
#592 = CARTESIAN_POINT ( 'NONE',  ( 0.000000000000000000, 264.0000000000000000, -11.50000000000000000 ) ) ;
#593 = ORIENTED_EDGE ( 'NONE', *, *, #771, .T. ) ;
#594 = ORIENTED_EDGE ( 'NONE', *, *, #779, .T. ) ;
#595 = CARTESIAN_POINT ( 'NONE',  ( 7.250000000000000000, 89.30000000000001137, -2.299999999999999822 ) ) ;
#596 = AXIS2_PLACEMENT_3D ( 'NONE', #1058, #144, #860 ) ;
#597 = CARTESIAN_POINT ( 'NONE',  ( 8.750000000000000000, 89.00000000000000000, -2.299999999999999822 ) ) ;
#598 = AXIS2_PLACEMENT_3D ( 'NONE', #609, #1004, #1120 ) ;
#599 = LINE ( 'NONE', #616, #109 ) ;
#600 = AXIS2_PLACEMENT_3D ( 'NONE', #890, #966, #775 ) ;
#601 = CIRCLE ( 'NONE', #907, 1.250000000000000222 ) ;
#602 = ORIENTED_EDGE ( 'NONE', *, *, #391, .F. ) ;
#603 = DIRECTION ( 'NONE',  ( 0.000000000000000000, 0.000000000000000000, 1.000000000000000000 ) ) ;
#604 = DIRECTION ( 'NONE',  ( 0.000000000000000000, 0.7936063612919156407, -0.6084315436571361424 ) ) ;
#605 = EDGE_CURVE ( 'NONE', #521, #1311, #746, .T. ) ;
#606 = ORIENTED_EDGE ( 'NONE', *, *, #485, .T. ) ;
#607 = CARTESIAN_POINT ( 'NONE',  ( 2.399999999999999911, 269.5000000000000000, -10.09999999999999964 ) ) ;
#608 = DIRECTION ( 'NONE',  ( -1.000000000000000000, 0.000000000000000000, 0.000000000000000000 ) ) ;
#609 = CARTESIAN_POINT ( 'NONE',  ( 7.250000000000000000, 89.00000000000000000, -2.299999999999999822 ) ) ;
#610 = EDGE_LOOP ( 'NONE', ( #181, #670, #1140, #416 ) ) ;
#611 = SECURITY_CLASSIFICATION ( '', '', #326 ) ;
#612 = CARTESIAN_POINT ( 'NONE',  ( 35.00000000000000000, 91.50000000000001421, -2.299999999999999822 ) ) ;
#613 = PERSON_AND_ORGANIZATION_ROLE ( 'design_owner' ) ;
#614 = EDGE_CURVE ( 'NONE', #276, #371, #1090, .T. ) ;
#615 = CARTESIAN_POINT ( 'NONE',  ( 10.80000000000000071, 89.30000000000001137, -1.199999999999999734 ) ) ;
#616 = CARTESIAN_POINT ( 'NONE',  ( 3.700000000000000178, 89.30000000000001137, -1.199999999999999734 ) ) ;
#617 = AXIS2_PLACEMENT_3D ( 'NONE', #506, #918, #1208 ) ;
#618 = CARTESIAN_POINT ( 'NONE',  ( 0.000000000000000000, 265.1999999999999886, -10.24999999999999822 ) ) ;
#619 = AXIS2_PLACEMENT_3D ( 'NONE', #916, #102, #603 ) ;
#620 = AXIS2_PLACEMENT_3D ( 'NONE', #1017, #206, #1122 ) ;
#621 = ORIENTED_EDGE ( 'NONE', *, *, #1039, .T. ) ;
#622 = CARTESIAN_POINT ( 'NONE',  ( 35.00000000000000000, 260.5000000000000000, -10.24999999999999822 ) ) ;
#623 = ADVANCED_FACE ( 'NONE', ( #265 ), #273, .T. ) ;
#624 = FACE_OUTER_BOUND ( 'NONE', #1320, .T. ) ;
#625 = EDGE_CURVE ( 'NONE', #1287, #184, #1166, .T. ) ;
#626 = VERTEX_POINT ( 'NONE', #812 ) ;
#627 = CARTESIAN_POINT ( 'NONE',  ( 32.99999999999997158, 261.2500000000000000, -11.50000000000000000 ) ) ;
#628 = CALENDAR_DATE ( 2026, 29, 9 ) ;
#629 = EDGE_CURVE ( 'NONE', #1104, #800, #217, .T. ) ;
#630 = EDGE_LOOP ( 'NONE', ( #750, #584, #78, #982, #48, #1217 ) ) ;
#631 = CARTESIAN_POINT ( 'NONE',  ( 1.499999999999999778, 264.0000000000000000, -11.50000000000000000 ) ) ;
#632 = CIRCLE ( 'NONE', #1169, 1.250000000000001110 ) ;
#633 = DIRECTION ( 'NONE',  ( 0.000000000000000000, 0.000000000000000000, 1.000000000000000000 ) ) ;
#634 = DIRECTION ( 'NONE',  ( 0.000000000000000000, -1.000000000000000000, 0.000000000000000000 ) ) ;
#635 = EDGE_LOOP ( 'NONE', ( #799, #561, #538 ) ) ;
#636 = AXIS2_PLACEMENT_3D ( 'NONE', #592, #1309, #699 ) ;
#637 = AXIS2_PLACEMENT_3D ( 'NONE', #997, #898, #691 ) ;
#638 = CARTESIAN_POINT ( 'NONE',  ( 7.250000000000000000, 89.30000000000001137, -1.049999999999999822 ) ) ;
#639 = EDGE_CURVE ( 'NONE', #261, #1060, #1030, .T. ) ;
#640 = DIRECTION ( 'NONE',  ( 1.000000000000000000, 0.000000000000000000, 0.000000000000000000 ) ) ;
#641 = CARTESIAN_POINT ( 'NONE',  ( 10.80000000000000071, 89.30000000000001137, -3.399999999999999911 ) ) ;
#642 = CARTESIAN_POINT ( 'NONE',  ( 35.00000000000000000, 233.9646653018595828, -1.049999999999998934 ) ) ;
#643 = ORIENTED_EDGE ( 'NONE', *, *, #520, .T. ) ;
#644 = DIRECTION ( 'NONE',  ( 0.000000000000000000, 0.000000000000000000, 1.000000000000000000 ) ) ;
#645 = COORDINATED_UNIVERSAL_TIME_OFFSET ( 12, 0, .AHEAD. ) ;
#646 = LINE ( 'NONE', #868, #86 ) ;
#647 = DIRECTION ( 'NONE',  ( 1.000000000000000000, 0.000000000000000000, 0.000000000000000000 ) ) ;
#648 = ORIENTED_EDGE ( 'NONE', *, *, #738, .T. ) ;
#649 = FACE_OUTER_BOUND ( 'NONE', #824, .T. ) ;
#650 = ORIENTED_EDGE ( 'NONE', *, *, #716, .T. ) ;
#651 = CARTESIAN_POINT ( 'NONE',  ( 3.700000000000000178, 93.35000000000000853, -3.399999999999999911 ) ) ;
#652 = AXIS2_PLACEMENT_3D ( 'NONE', #1051, #140, #543 ) ;
#653 = ADVANCED_FACE ( 'NONE', ( #94 ), #1305, .T. ) ;
#654 = CARTESIAN_POINT ( 'NONE',  ( 35.00000000000000000, 91.50000000000001421, -2.299999999999999822 ) ) ;
#655 = DIRECTION ( 'NONE',  ( 1.000000000000000000, 0.000000000000000000, 0.000000000000000000 ) ) ;
#656 = ORIENTED_EDGE ( 'NONE', *, *, #343, .F. ) ;
#657 = VECTOR ( 'NONE', #973, 1000.000000000000000 ) ;
#658 = CIRCLE ( 'NONE', #257, 1.250000000000000222 ) ;
#659 = CARTESIAN_POINT ( 'NONE',  ( 8.500000000000000000, 89.00000000000000000, -2.299999999999999822 ) ) ;
#660 = DIRECTION ( 'NONE',  ( 0.000000000000000000, 1.000000000000000000, 0.000000000000000000 ) ) ;
#661 = ORIENTED_EDGE ( 'NONE', *, *, #115, .T. ) ;
#662 = CIRCLE ( 'NONE', #727, 1.250000000000000222 ) ;
#663 = CYLINDRICAL_SURFACE ( 'NONE', #179, 1.250000000000000222 ) ;
#664 = EDGE_CURVE ( 'NONE', #493, #237, #708, .T. ) ;
#665 = CARTESIAN_POINT ( 'NONE',  ( -2.399999999999999911, 269.5000000000000000, -10.09999999999999964 ) ) ;
#666 = VERTEX_POINT ( 'NONE', #386 ) ;
#667 = EDGE_CURVE ( 'NONE', #371, #974, #1092, .T. ) ;
#668 = ORIENTED_EDGE ( 'NONE', *, *, #226, .T. ) ;
#669 = CARTESIAN_POINT ( 'NONE',  ( 8.749999999999994671, 87.50000000000000000, -3.550000000000000266 ) ) ;
#670 = ORIENTED_EDGE ( 'NONE', *, *, #1221, .T. ) ;
#671 = CALENDAR_DATE ( 2026, 29, 9 ) ;
#672 = VERTEX_POINT ( 'NONE', #704 ) ;
#673 = EDGE_CURVE ( 'NONE', #672, #392, #288, .T. ) ;
#674 = DIRECTION ( 'NONE',  ( 0.000000000000000000, 1.000000000000000000, 0.000000000000000000 ) ) ;
#675 = DIRECTION ( 'NONE',  ( 0.000000000000000000, 0.000000000000000000, 1.000000000000000000 ) ) ;
#676 = CARTESIAN_POINT ( 'NONE',  ( 0.000000000000000000, 265.1999999999999886, -11.50000000000000000 ) ) ;
#677 = VERTEX_POINT ( 'NONE', #1308 ) ;
#678 = CIRCLE ( 'NONE', #652, 1.250000000000001110 ) ;
#679 = DATE_TIME_ROLE ( 'creation_date' ) ;
#680 = EDGE_LOOP ( 'NONE', ( #996, #877, #648, #967 ) ) ;
#681 = EDGE_CURVE ( 'NONE', #672, #1233, #296, .T. ) ;
#682 = DIRECTION ( 'NONE',  ( 0.000000000000000000, 1.000000000000000000, 0.000000000000000000 ) ) ;
#683 = DIRECTION ( 'NONE',  ( 0.000000000000000000, 0.000000000000000000, 1.000000000000000000 ) ) ;
#684 = EDGE_LOOP ( 'NONE', ( #589, #215, #1117, #121 ) ) ;
#685 = AXIS2_PLACEMENT_3D ( 'NONE', #60, #891, #865 ) ;
#686 = DIRECTION ( 'NONE',  ( 0.000000000000000000, 1.000000000000000000, 0.000000000000000000 ) ) ;
#687 = AXIS2_PLACEMENT_3D ( 'NONE', #570, #249, #858 ) ;
#688 = MANIFOLD_SOLID_BREP ( 'Sweep3', #983 ) ;
#689 = ORIENTED_EDGE ( 'NONE', *, *, #1221, .F. ) ;
#690 = ORIENTED_EDGE ( 'NONE', *, *, #525, .T. ) ;
#691 = DIRECTION ( 'NONE',  ( 0.000000000000000000, 0.000000000000000000, 1.000000000000000000 ) ) ;
#692 = LINE ( 'NONE', #1215, #198 ) ;
#693 = VERTEX_POINT ( 'NONE', #98 ) ;
#694 = VERTEX_POINT ( 'NONE', #1119 ) ;
#695 = DIRECTION ( 'NONE',  ( -1.000000000000000000, 0.000000000000000000, -0.000000000000000000 ) ) ;
#696 = PLANE ( 'NONE',  #358 ) ;
#697 = DIRECTION ( 'NONE',  ( -1.000000000000000000, 0.000000000000000000, 0.000000000000000000 ) ) ;
#698 = EDGE_CURVE ( 'NONE', #578, #521, #43, .T. ) ;
#699 = DIRECTION ( 'NONE',  ( 0.000000000000000000, 0.000000000000000000, 1.000000000000000000 ) ) ;
#700 = AXIS2_PLACEMENT_3D ( 'NONE', #582, #588, #1302 ) ;
#701 = ORIENTED_EDGE ( 'NONE', *, *, #1200, .F. ) ;
#702 = DIRECTION ( 'NONE',  ( 0.000000000000000000, 1.000000000000000000, 0.000000000000000000 ) ) ;
#703 = CIRCLE ( 'NONE', #251, 1.250000000000001110 ) ;
#704 = CARTESIAN_POINT ( 'NONE',  ( 2.399999999999999911, 269.5000000000000000, -10.09999999999999964 ) ) ;
#705 = CIRCLE ( 'NONE', #128, 2.750000000000005773 ) ;
#706 = EDGE_CURVE ( 'NONE', #1110, #286, #1022, .T. ) ;
#707 = CARTESIAN_POINT ( 'NONE',  ( -2.399999999999999911, 269.5000000000000000, -12.90000000000000036 ) ) ;
#708 = CIRCLE ( 'NONE', #963, 1.250000000000000222 ) ;
#709 = CIRCLE ( 'NONE', #132, 1.250000000000000222 ) ;
#710 = ORIENTED_EDGE ( 'NONE', *, *, #62, .T. ) ;
#711 = DIRECTION ( 'NONE',  ( -0.000000000000000000, -0.000000000000000000, -1.000000000000000000 ) ) ;
#712 = CARTESIAN_POINT ( 'NONE',  ( 33.75000000000000000, 260.5000000000000000, -11.50000000000000000 ) ) ;
#713 = DIRECTION ( 'NONE',  ( -0.000000000000000000, -0.000000000000000000, -1.000000000000000000 ) ) ;
#714 = PLANE ( 'NONE',  #940 ) ;
#715 = ORIENTED_EDGE ( 'NONE', *, *, #825, .T. ) ;
#716 = EDGE_CURVE ( 'NONE', #626, #279, #67, .T. ) ;
#717 = DIRECTION ( 'NONE',  ( 0.000000000000000000, 1.000000000000000000, 0.000000000000000000 ) ) ;
#718 = MECHANICAL_CONTEXT ( 'NONE', #1310, 'mechanical' ) ;
#719 = DIRECTION ( 'NONE',  ( 0.000000000000000000, 1.000000000000000000, 0.000000000000000000 ) ) ;
#720 = ORIENTED_EDGE ( 'NONE', *, *, #706, .T. ) ;
#721 = ADVANCED_FACE ( 'NONE', ( #819 ), #79, .T. ) ;
#722 = DIRECTION ( 'NONE',  ( 0.000000000000000000, 1.000000000000000000, 0.000000000000000000 ) ) ;
#723 = DIRECTION ( 'NONE',  ( 0.000000000000000000, 0.000000000000000000, 1.000000000000000000 ) ) ;
#724 = CC_DESIGN_PERSON_AND_ORGANIZATION_ASSIGNMENT ( #547, #240, ( #1317 ) ) ;
#725 = TOROIDAL_SURFACE ( 'NONE', #1149, 4.000000000000003553, 1.250000000000000222 ) ;
#726 = AXIS2_PLACEMENT_3D ( 'NONE', #802, #1220, #304 ) ;
#727 = AXIS2_PLACEMENT_3D ( 'NONE', #1084, #768, #1176 ) ;
#728 = ORIENTED_EDGE ( 'NONE', *, *, #784, .T. ) ;
#729 = DIRECTION ( 'NONE',  ( -0.000000000000000000, -1.000000000000000000, -0.000000000000000000 ) ) ;
#730 = CARTESIAN_POINT ( 'NONE',  ( 2.399999999999999911, 265.1999999999999886, -12.90000000000000036 ) ) ;
#731 = CARTESIAN_POINT ( 'NONE',  ( 8.749999999999994671, 87.50000000000000000, -2.299999999999999822 ) ) ;
#732 = ORIENTED_EDGE ( 'NONE', *, *, #1179, .T. ) ;
#733 = FACE_OUTER_BOUND ( 'NONE', #87, .T. ) ;
#734 = APPROVAL_DATE_TIME ( #341, #177 ) ;
#735 = CARTESIAN_POINT ( 'NONE',  ( 0.000000000000000000, 0.000000000000000000, -12.90000000000000036 ) ) ;
#736 = CARTESIAN_POINT ( 'NONE',  ( 31.00000000000000000, 87.50000000000000000, -2.299999999999999822 ) ) ;
#737 = ORIENTED_EDGE ( 'NONE', *, *, #853, .F. ) ;
#738 = EDGE_CURVE ( 'NONE', #184, #1247, #401, .T. ) ;
#739 = CARTESIAN_POINT ( 'NONE',  ( 35.00000000000000000, 233.9646653018595828, -8.300000000000000711 ) ) ;
#740 = CIRCLE ( 'NONE', #847, 1.250000000000000222 ) ;
#741 = EDGE_CURVE ( 'NONE', #1314, #694, #1204, .T. ) ;
#742 = AXIS2_PLACEMENT_3D ( 'NONE', #77, #660, #489 ) ;
#743 = DIRECTION ( 'NONE',  ( 0.000000000000000000, 0.000000000000000000, 1.000000000000000000 ) ) ;
#744 = FACE_OUTER_BOUND ( 'NONE', #630, .T. ) ;
#745 = ORIENTED_EDGE ( 'NONE', *, *, #402, .F. ) ;
#746 = CIRCLE ( 'NONE', #339, 1.250000000000000222 ) ;
#747 = TOROIDAL_SURFACE ( 'NONE', #600, 2.000000000000001776, 1.250000000000001110 ) ;
#748 = DIRECTION ( 'NONE',  ( 0.000000000000000000, 0.000000000000000000, 1.000000000000000000 ) ) ;
#749 = DIRECTION ( 'NONE',  ( 0.000000000000000000, 0.6084315436571308133, 0.7936063612919196375 ) ) ;
#750 = ORIENTED_EDGE ( 'NONE', *, *, #299, .T. ) ;
#751 = ADVANCED_FACE ( 'NONE', ( #509 ), #491, .F. ) ;
#752 = CARTESIAN_POINT ( 'NONE',  ( 1.250000000000001110, 264.0000000000000000, -11.50000000000000000 ) ) ;
#753 = CARTESIAN_POINT ( 'NONE',  ( 7.250000000000000000, 89.30000000000001137, -2.299999999999999822 ) ) ;
#754 = CARTESIAN_POINT ( 'NONE',  ( 7.843717104351896729, 89.30000000000001137, -1.200000000000000178 ) ) ;
#755 = EDGE_LOOP ( 'NONE', ( #978, #1172, #650, #70 ) ) ;
#756 = ORIENTED_EDGE ( 'NONE', *, *, #113, .F. ) ;
#757 = EDGE_CURVE ( 'NONE', #949, #237, #2, .T. ) ;
#758 = CARTESIAN_POINT ( 'NONE',  ( 7.250000000000000000, 89.30000000000001137, -2.299999999999999822 ) ) ;
#759 = FACE_OUTER_BOUND ( 'NONE', #1300, .T. ) ;
#760 = ORIENTED_EDGE ( 'NONE', *, *, #35, .F. ) ;
#761 = DIRECTION ( 'NONE',  ( 0.000000000000000000, 0.000000000000000000, 1.000000000000000000 ) ) ;
#762 = APPROVAL ( #1056, 'UNSPECIFIED' ) ;
#763 = CARTESIAN_POINT ( 'NONE',  ( 2.399999999999999911, 269.5000000000000000, -12.90000000000000036 ) ) ;
#764 = VERTEX_POINT ( 'NONE', #806 ) ;
#765 = AXIS2_PLACEMENT_3D ( 'NONE', #758, #1076, #263 ) ;
#766 = VECTOR ( 'NONE', #719, 1000.000000000000000 ) ;
#767 = VECTOR ( 'NONE', #711, 1000.000000000000000 ) ;
#768 = DIRECTION ( 'NONE',  ( 0.000000000000000000, 1.000000000000000000, 0.000000000000000000 ) ) ;
#769 = EDGE_LOOP ( 'NONE', ( #544, #352, #317, #1015 ) ) ;
#770 = CIRCLE ( 'NONE', #202, 1.249999999999995337 ) ;
#771 = EDGE_CURVE ( 'NONE', #677, #1314, #388, .T. ) ;
#772 = DIRECTION ( 'NONE',  ( 1.000000000000000000, 0.000000000000000000, 0.000000000000000000 ) ) ;
#773 = ORIENTED_EDGE ( 'NONE', *, *, #45, .F. ) ;
#774 = DIRECTION ( 'NONE',  ( 0.000000000000000000, 0.000000000000000000, 1.000000000000000000 ) ) ;
#775 = DIRECTION ( 'NONE',  ( 1.000000000000000000, 0.000000000000000000, 0.000000000000000000 ) ) ;
#776 = DIRECTION ( 'NONE',  ( 0.000000000000000000, 1.000000000000000000, 0.000000000000000000 ) ) ;
#777 = ORIENTED_EDGE ( 'NONE', *, *, #873, .F. ) ;
#778 = DIRECTION ( 'NONE',  ( 0.000000000000000000, 0.000000000000000000, 1.000000000000000000 ) ) ;
#779 = EDGE_CURVE ( 'NONE', #493, #693, #1214, .T. ) ;
#780 =( NAMED_UNIT ( * ) PLANE_ANGLE_UNIT ( ) SI_UNIT ( $, .RADIAN. ) );
#781 = ORIENTED_EDGE ( 'NONE', *, *, #757, .F. ) ;
#782 = DIRECTION ( 'NONE',  ( 0.000000000000000000, 0.000000000000000000, 1.000000000000000000 ) ) ;
#783 = ORIENTED_EDGE ( 'NONE', *, *, #673, .T. ) ;
#784 = EDGE_CURVE ( 'NONE', #449, #626, #1026, .T. ) ;
#785 = CARTESIAN_POINT ( 'NONE',  ( 10.80000000000000071, 89.30000000000001137, -1.199999999999999734 ) ) ;
#786 = CARTESIAN_POINT ( 'NONE',  ( 10.80000000000000071, 89.30000000000001137, -3.399999999999999911 ) ) ;
#787 = VERTEX_POINT ( 'NONE', #1237 ) ;
#788 = CARTESIAN_POINT ( 'NONE',  ( 35.00000000000000000, 91.50000000000001421, -2.299999999999999822 ) ) ;
#789 = AXIS2_PLACEMENT_3D ( 'NONE', #790, #510, #1196 ) ;
#790 = CARTESIAN_POINT ( 'NONE',  ( 0.000000000000000000, 264.0000000000000000, -11.50000000000000000 ) ) ;
#791 = ORIENTED_EDGE ( 'NONE', *, *, #328, .T. ) ;
#792 = ORIENTED_EDGE ( 'NONE', *, *, #287, .T. ) ;
#793 = VECTOR ( 'NONE', #991, 1000.000000000000000 ) ;
#794 = EDGE_LOOP ( 'NONE', ( #295, #476, #593, #994, #8, #909 ) ) ;
#795 = AXIS2_PLACEMENT_3D ( 'NONE', #111, #340, #29 ) ;
#796 = CARTESIAN_POINT ( 'NONE',  ( 31.00000000000000000, 87.50000000000000000, -2.299999999999999822 ) ) ;
#797 = AXIS2_PLACEMENT_3D ( 'NONE', #316, #227, #125 ) ;
#798 = CARTESIAN_POINT ( 'NONE',  ( 1.500000000000001332, 262.5000000000000000, -12.75000000000000178 ) ) ;
#799 = ORIENTED_EDGE ( 'NONE', *, *, #1054, .T. ) ;
#800 = VERTEX_POINT ( 'NONE', #627 ) ;
#801 = EDGE_CURVE ( 'NONE', #693, #1005, #1130, .T. ) ;
#802 = CARTESIAN_POINT ( 'NONE',  ( 1.499999999999999778, 264.0000000000000000, -11.50000000000000000 ) ) ;
#803 = LINE ( 'NONE', #1029, #1028 ) ;
#804 = ORIENTED_EDGE ( 'NONE', *, *, #825, .F. ) ;
#805 = ADVANCED_FACE ( 'NONE', ( #325 ), #1254, .T. ) ;
#806 = CARTESIAN_POINT ( 'NONE',  ( 2.399999999999999911, 265.1999999999999886, -12.90000000000000036 ) ) ;
#807 = DIRECTION ( 'NONE',  ( 0.000000000000000000, -1.000000000000000000, 0.000000000000000000 ) ) ;
#808 = ADVANCED_FACE ( 'NONE', ( #15 ), #540, .T. ) ;
#809 = LOCAL_TIME ( 17, 50, 24.00000000000000000, #645 ) ;
#810 = ORIENTED_EDGE ( 'NONE', *, *, #50, .F. ) ;
#811 = AXIS2_PLACEMENT_3D ( 'NONE', #972, #1272, #414 ) ;
#812 = CARTESIAN_POINT ( 'NONE',  ( 35.00000000000000000, 233.9646653018595828, -3.550000000000001155 ) ) ;
#813 = CARTESIAN_POINT ( 'NONE',  ( 31.00000000000000000, 87.50000000000000000, -2.299999999999999822 ) ) ;
#814 = VECTOR ( 'NONE', #840, 1000.000000000000000 ) ;
#815 = DIRECTION ( 'NONE',  ( 0.000000000000000000, 0.000000000000000000, 1.000000000000000000 ) ) ;
#816 = TOROIDAL_SURFACE ( 'NONE', #131, 1.500000000000001332, 1.250000000000001110 ) ;
#817 = ADVANCED_FACE ( 'NONE', ( #423 ), #1066, .T. ) ;
#818 = EDGE_LOOP ( 'NONE', ( #505, #284, #583, #337 ) ) ;
#819 = FACE_OUTER_BOUND ( 'NONE', #365, .T. ) ;
#820 = DIRECTION ( 'NONE',  ( 1.000000000000000000, 0.000000000000000000, 0.000000000000000000 ) ) ;
#821 = DIRECTION ( 'NONE',  ( 0.000000000000000000, 0.000000000000000000, 1.000000000000000000 ) ) ;
#822 = DIRECTION ( 'NONE',  ( -1.000000000000000000, 0.000000000000000000, -0.000000000000000000 ) ) ;
#823 = EDGE_CURVE ( 'NONE', #81, #1086, #1141, .T. ) ;
#824 = EDGE_LOOP ( 'NONE', ( #590, #108, #200, #553, #1157, #1278 ) ) ;
#825 = EDGE_CURVE ( 'NONE', #286, #764, #933, .T. ) ;
#826 = FACE_OUTER_BOUND ( 'NONE', #610, .T. ) ;
#827 = CYLINDRICAL_SURFACE ( 'NONE', #1010, 1.250000000000001110 ) ;
#828 = EDGE_LOOP ( 'NONE', ( #1103, #443, #377, #346, #176, #1198 ) ) ;
#829 = APPROVAL_PERSON_ORGANIZATION ( #112, #1009, #479 ) ;
#830 = DIRECTION ( 'NONE',  ( -1.000000000000000000, -0.000000000000000000, 0.000000000000000000 ) ) ;
#831 = AXIS2_PLACEMENT_3D ( 'NONE', #753, #353, #876 ) ;
#832 = CARTESIAN_POINT ( 'NONE',  ( 31.00000000000000000, 88.75000000000000000, -2.299999999999999822 ) ) ;
#833 = VECTOR ( 'NONE', #18, 1000.000000000000000 ) ;
#834 = AXIS2_PLACEMENT_3D ( 'NONE', #739, #830, #748 ) ;
#835 = CIRCLE ( 'NONE', #1132, 1.250000000000001110 ) ;
#836 = ORIENTED_EDGE ( 'NONE', *, *, #435, .F. ) ;
#837 = DIRECTION ( 'NONE',  ( 0.000000000000000000, -0.000000000000000000, 1.000000000000000000 ) ) ;
#838 = CARTESIAN_POINT ( 'NONE',  ( 10.80000000000000071, 89.30000000000001137, -1.199999999999999734 ) ) ;
#839 = LINE ( 'NONE', #1319, #357 ) ;
#840 = DIRECTION ( 'NONE',  ( -0.000000000000000000, -1.000000000000000000, -0.000000000000000000 ) ) ;
#841 = ORIENTED_EDGE ( 'NONE', *, *, #801, .T. ) ;
#842 = CARTESIAN_POINT ( 'NONE',  ( 35.00000000000000000, 255.5000000000000000, -11.50000000000000000 ) ) ;
#843 = EDGE_CURVE ( 'NONE', #857, #666, #658, .T. ) ;
#844 = DIRECTION ( 'NONE',  ( 0.000000000000000000, 1.000000000000000000, 0.000000000000000000 ) ) ;
#845 = CYLINDRICAL_SURFACE ( 'NONE', #596, 1.250000000000000222 ) ;
#846 = EDGE_LOOP ( 'NONE', ( #516, #594, #841, #690, #656, #1191, #500 ) ) ;
#847 = AXIS2_PLACEMENT_3D ( 'NONE', #813, #80, #899 ) ;
#848 = DIRECTION ( 'NONE',  ( 0.000000000000000000, 0.000000000000000000, 1.000000000000000000 ) ) ;
#849 = DIRECTION ( 'NONE',  ( -1.000000000000000000, 0.000000000000000000, 0.000000000000000000 ) ) ;
#850 = AXIS2_PLACEMENT_3D ( 'NONE', #631, #332, #849 ) ;
#851 = CARTESIAN_POINT ( 'NONE',  ( 35.00000000000000000, 246.3847454361975906, -10.26163816775149584 ) ) ;
#852 = LINE ( 'NONE', #335, #833 ) ;
#853 = EDGE_CURVE ( 'NONE', #955, #866, #929, .T. ) ;
#854 = ORIENTED_EDGE ( 'NONE', *, *, #1315, .T. ) ;
#855 = AXIS2_PLACEMENT_3D ( 'NONE', #213, #204, #821 ) ;
#856 = AXIS2_PLACEMENT_3D ( 'NONE', #597, #1301, #1001 ) ;
#857 = VERTEX_POINT ( 'NONE', #417 ) ;
#858 = DIRECTION ( 'NONE',  ( 1.000000000000000000, 0.000000000000000000, 0.000000000000000000 ) ) ;
#859 = CARTESIAN_POINT ( 'NONE',  ( 32.99999999999997158, 262.5000000000000000, -12.75000000000000178 ) ) ;
#860 = DIRECTION ( 'NONE',  ( 0.000000000000000000, 0.000000000000000000, -1.000000000000000000 ) ) ;
#861 = ADVANCED_FACE ( 'NONE', ( #826 ), #1248, .F. ) ;
#862 = PLANE ( 'NONE',  #1127 ) ;
#863 = VERTEX_POINT ( 'NONE', #622 ) ;
#864 = DIRECTION ( 'NONE',  ( 1.000000000000000000, 0.000000000000000000, 0.000000000000000000 ) ) ;
#865 = DIRECTION ( 'NONE',  ( 1.000000000000000000, 0.000000000000000000, 0.000000000000000000 ) ) ;
#866 = VERTEX_POINT ( 'NONE', #1032 ) ;
#867 = CARTESIAN_POINT ( 'NONE',  ( 35.00000000000000000, 250.0353346981404457, -11.50000000000000888 ) ) ;
#868 = CARTESIAN_POINT ( 'NONE',  ( 8.749999999999994671, 87.50000000000000000, -1.049999999999999822 ) ) ;
#869 = CARTESIAN_POINT ( 'NONE',  ( 3.700000000000000178, 89.30000000000001137, -1.199999999999999734 ) ) ;
#870 = ORIENTED_EDGE ( 'NONE', *, *, #1228, .F. ) ;
#871 = CARTESIAN_POINT ( 'NONE',  ( 6.656282895648105047, 89.30000000000001137, -1.199999999999999734 ) ) ;
#872 = ORIENTED_EDGE ( 'NONE', *, *, #1100, .F. ) ;
#873 = EDGE_CURVE ( 'NONE', #1086, #19, #1012, .T. ) ;
#874 = DIRECTION ( 'NONE',  ( 0.000000000000000000, 0.000000000000000000, 1.000000000000000000 ) ) ;
#875 = APPROVAL_PERSON_ORGANIZATION ( #34, #762, #1033 ) ;
#876 = DIRECTION ( 'NONE',  ( 0.000000000000000000, 0.000000000000000000, 1.000000000000000000 ) ) ;
#877 = ORIENTED_EDGE ( 'NONE', *, *, #1003, .T. ) ;
#878 = CIRCLE ( 'NONE', #298, 1.250000000000001110 ) ;
#879 = CARTESIAN_POINT ( 'NONE',  ( 35.00000000000000000, 260.5000000000000000, -11.50000000000000000 ) ) ;
#880 = AXIS2_PLACEMENT_3D ( 'NONE', #323, #686, #574 ) ;
#881 = CIRCLE ( 'NONE', #1219, 1.250000000000000222 ) ;
#882 = DIRECTION ( 'NONE',  ( 0.000000000000000000, 0.000000000000000000, 1.000000000000000000 ) ) ;
#883 = CARTESIAN_POINT ( 'NONE',  ( 35.00000000000000000, 250.0353346981404457, -5.500000000000000000 ) ) ;
#884 = EDGE_LOOP ( 'NONE', ( #1227, #253, #564, #732 ) ) ;
#885 = VECTOR ( 'NONE', #49, 1000.000000000000000 ) ;
#886 = DIRECTION ( 'NONE',  ( -1.000000000000000000, 0.000000000000000000, 0.000000000000000000 ) ) ;
#887 = PERSON_AND_ORGANIZATION ( #7, #193 ) ;
#888 = ORIENTED_EDGE ( 'NONE', *, *, #1167, .F. ) ;
#889 = ADVANCED_FACE ( 'NONE', ( #938 ), #33, .F. ) ;
#890 = CARTESIAN_POINT ( 'NONE',  ( 33.00000000000000000, 260.5000000000000000, -11.50000000000000000 ) ) ;
#891 = DIRECTION ( 'NONE',  ( 0.000000000000000000, 0.000000000000000000, 1.000000000000000000 ) ) ;
#892 = ORIENTED_EDGE ( 'NONE', *, *, #823, .T. ) ;
#893 = COORDINATED_UNIVERSAL_TIME_OFFSET ( 12, 0, .AHEAD. ) ;
#894 = ORIENTED_EDGE ( 'NONE', *, *, #269, .F. ) ;
#895 = ORIENTED_EDGE ( 'NONE', *, *, #402, .T. ) ;
#896 = CARTESIAN_POINT ( 'NONE',  ( 1.500000000000001332, 262.5000000000000000, -11.50000000000000000 ) ) ;
#897 = ORIENTED_EDGE ( 'NONE', *, *, #35, .T. ) ;
#898 = DIRECTION ( 'NONE',  ( -1.000000000000000000, -0.000000000000000000, 0.000000000000000000 ) ) ;
#899 = DIRECTION ( 'NONE',  ( 0.000000000000000000, 0.000000000000000000, 1.000000000000000000 ) ) ;
#900 = ORIENTED_EDGE ( 'NONE', *, *, #738, .F. ) ;
#901 = ADVANCED_FACE ( 'NONE', ( #733 ), #816, .T. ) ;
#902 = EDGE_LOOP ( 'NONE', ( #737, #1256, #575, #116 ) ) ;
#903 = AXIS2_PLACEMENT_3D ( 'NONE', #879, #1183, #268 ) ;
#904 = AXIS2_PLACEMENT_3D ( 'NONE', #230, #634, #1052 ) ;
#905 = FACE_OUTER_BOUND ( 'NONE', #818, .T. ) ;
#906 = CARTESIAN_POINT ( 'NONE',  ( 8.749999999999994671, 87.50000000000000000, -2.299999999999999822 ) ) ;
#907 = AXIS2_PLACEMENT_3D ( 'NONE', #488, #995, #307 ) ;
#908 = DIRECTION ( 'NONE',  ( 1.000000000000000000, 0.000000000000000000, 0.000000000000000000 ) ) ;
#909 = ORIENTED_EDGE ( 'NONE', *, *, #801, .F. ) ;
#910 = ADVANCED_FACE ( 'NONE', ( #438 ), #431, .T. ) ;
#911 = ORIENTED_EDGE ( 'NONE', *, *, #957, .T. ) ;
#912 = DIRECTION ( 'NONE',  ( 1.000000000000000000, 0.000000000000000000, 0.000000000000000000 ) ) ;
#913 = ADVANCED_FACE ( 'NONE', ( #331 ), #552, .F. ) ;
#914 = ORIENTED_EDGE ( 'NONE', *, *, #143, .T. ) ;
#915 = CARTESIAN_POINT ( 'NONE',  ( 35.00000000000000000, 237.6152545638023810, -3.538361832248503092 ) ) ;
#916 = CARTESIAN_POINT ( 'NONE',  ( 35.00000000000000000, 233.9646653018595828, -8.300000000000000711 ) ) ;
#917 = ADVANCED_FACE ( 'NONE', ( #1068 ), #747, .T. ) ;
#918 = DIRECTION ( 'NONE',  ( -1.000000000000000000, 0.000000000000000000, 0.000000000000000000 ) ) ;
#919 = EDGE_LOOP ( 'NONE', ( #480, #572, #710, #487, #192, #32 ) ) ;
#920 = AXIS2_PLACEMENT_3D ( 'NONE', #1164, #1192, #250 ) ;
#921 = DIRECTION ( 'NONE',  ( 1.000000000000000000, 0.000000000000000000, 0.000000000000000000 ) ) ;
#922 = DIRECTION ( 'NONE',  ( 1.000000000000000000, 0.000000000000000000, 0.000000000000000000 ) ) ;
#923 = ADVANCED_FACE ( 'NONE', ( #38 ), #239, .T. ) ;
#924 = VECTOR ( 'NONE', #151, 1000.000000000000000 ) ;
#925 = DIRECTION ( 'NONE',  ( -1.000000000000000000, -0.000000000000000000, -0.000000000000000000 ) ) ;
#926 = AXIS2_PLACEMENT_3D ( 'NONE', #166, #976, #452 ) ;
#927 = CARTESIAN_POINT ( 'NONE',  ( -2.399999999999999911, 265.1999999999999886, -10.09999999999999964 ) ) ;
#928 = ORIENTED_EDGE ( 'NONE', *, *, #673, .F. ) ;
#929 = LINE ( 'NONE', #527, #551 ) ;
#930 = APPLICATION_PROTOCOL_DEFINITION ( 'international standard', 'config_control_design', 1994, #1310 ) ;
#931 = FACE_OUTER_BOUND ( 'NONE', #769, .T. ) ;
#932 = EDGE_LOOP ( 'NONE', ( #999, #165, #486, #854, #267, #149 ) ) ;
#933 = LINE ( 'NONE', #312, #1046 ) ;
#934 = PERSON_AND_ORGANIZATION ( #7, #193 ) ;
#935 = DIRECTION ( 'NONE',  ( 0.000000000000000000, 0.000000000000000000, 1.000000000000000000 ) ) ;
#936 = ORIENTED_EDGE ( 'NONE', *, *, #1179, .F. ) ;
#937 = EDGE_CURVE ( 'NONE', #666, #449, #881, .T. ) ;
#938 = FACE_OUTER_BOUND ( 'NONE', #680, .T. ) ;
#939 = PERSON_AND_ORGANIZATION_ROLE ( 'classification_officer' ) ;
#940 = AXIS2_PLACEMENT_3D ( 'NONE', #208, #107, #13 ) ;
#941 = AXIS2_PLACEMENT_3D ( 'NONE', #1292, #511, #223 ) ;
#942 = CIRCLE ( 'NONE', #1202, 1.250000000000001110 ) ;
#943 = VECTOR ( 'NONE', #246, 1000.000000000000000 ) ;
#944 = CARTESIAN_POINT ( 'NONE',  ( 6.000000000000000000, 89.00000000000000000, -2.299999999999999822 ) ) ;
#945 = ORIENTED_EDGE ( 'NONE', *, *, #299, .F. ) ;
#946 = ADVANCED_FACE ( 'NONE', ( #649 ), #1163, .T. ) ;
#947 = DIRECTION ( 'NONE',  ( -1.000000000000000000, 0.000000000000000000, 0.000000000000000000 ) ) ;
#948 = CARTESIAN_POINT ( 'NONE',  ( 7.250000000000000000, 89.30000000000001137, -2.299999999999999822 ) ) ;
#949 = VERTEX_POINT ( 'NONE', #871 ) ;
#950 = DIRECTION ( 'NONE',  ( 0.000000000000000000, 1.000000000000000000, 0.000000000000000000 ) ) ;
#951 = DATE_AND_TIME ( #541, #313 ) ;
#952 = DIRECTION ( 'NONE',  ( -1.000000000000000000, 0.000000000000000000, 0.000000000000000000 ) ) ;
#953 = ADVANCED_FACE ( 'NONE', ( #142 ), #515, .T. ) ;
#954 = DIRECTION ( 'NONE',  ( 0.000000000000000000, 0.000000000000000000, 1.000000000000000000 ) ) ;
#955 = VERTEX_POINT ( 'NONE', #270 ) ;
#956 = DIRECTION ( 'NONE',  ( -1.000000000000000000, 0.000000000000000000, 0.000000000000000000 ) ) ;
#957 = EDGE_CURVE ( 'NONE', #1005, #694, #1255, .T. ) ;
#958 = AXIS2_PLACEMENT_3D ( 'NONE', #118, #1265, #1057 ) ;
#959 = AXIS2_PLACEMENT_3D ( 'NONE', #519, #807, #294 ) ;
#960 = LINE ( 'NONE', #31, #943 ) ;
#961 = FACE_OUTER_BOUND ( 'NONE', #932, .T. ) ;
#962 = EDGE_LOOP ( 'NONE', ( #349, #1210, #161, #1203 ) ) ;
#963 = AXIS2_PLACEMENT_3D ( 'NONE', #591, #84, #1206 ) ;
#964 = CC_DESIGN_PERSON_AND_ORGANIZATION_ASSIGNMENT ( #528, #523, ( #1317 ) ) ;
#965 = AXIS2_PLACEMENT_3D ( 'NONE', #147, #47, #644 ) ;
#966 = DIRECTION ( 'NONE',  ( 0.000000000000000000, 0.000000000000000000, 1.000000000000000000 ) ) ;
#967 = ORIENTED_EDGE ( 'NONE', *, *, #1182, .F. ) ;
#968 = DIRECTION ( 'NONE',  ( 0.000000000000000000, 0.7936063612919156407, -0.6084315436571361424 ) ) ;
#969 = ORIENTED_EDGE ( 'NONE', *, *, #292, .T. ) ;
#970 = CARTESIAN_POINT ( 'NONE',  ( 33.00000000000000000, 260.5000000000000000, -11.50000000000000000 ) ) ;
#971 = DIRECTION ( 'NONE',  ( -1.000000000000000000, -0.000000000000000000, -0.000000000000000000 ) ) ;
#972 = CARTESIAN_POINT ( 'NONE',  ( 35.00000000000000000, 250.0353346981404457, -5.500000000000000000 ) ) ;
#973 = DIRECTION ( 'NONE',  ( 1.000000000000000000, 0.000000000000000000, 0.000000000000000000 ) ) ;
#974 = VERTEX_POINT ( 'NONE', #752 ) ;
#975 = CARTESIAN_POINT ( 'NONE',  ( 3.700000000000000178, 93.35000000000000853, -3.399999999999999911 ) ) ;
#976 = DIRECTION ( 'NONE',  ( 1.000000000000000000, 0.000000000000000000, 0.000000000000000000 ) ) ;
#977 = LINE ( 'NONE', #1282, #127 ) ;
#978 = ORIENTED_EDGE ( 'NONE', *, *, #639, .F. ) ;
#979 = CARTESIAN_POINT ( 'NONE',  ( 7.250000000000000000, 89.30000000000001137, -2.299999999999999822 ) ) ;
#980 = EDGE_CURVE ( 'NONE', #101, #82, #1061, .T. ) ;
#981 = CARTESIAN_POINT ( 'NONE',  ( 8.749999999999994671, 87.50000000000000000, -1.049999999999999822 ) ) ;
#982 = ORIENTED_EDGE ( 'NONE', *, *, #158, .F. ) ;
#983 = CLOSED_SHELL ( 'NONE', ( #372, #817, #953, #1138, #189, #917, #923, #623, #946, #587, #463, #275, #805, #238, #1189, #1096, #322, #152, #12, #446, #901, #96, #1293, #721, #889, #751, #861, #913, #55, #1049, #808, #1135, #1155, #440, #259, #653, #1234, #89, #910, #1075, #195 ) ) ;
#984 = CARTESIAN_POINT ( 'NONE',  ( 1.530808498934193050E-16, 264.0000000000000000, -12.75000000000000178 ) ) ;
#985 = AXIS2_PLACEMENT_3D ( 'NONE', #169, #454, #478 ) ;
#986 = EDGE_CURVE ( 'NONE', #261, #626, #432, .T. ) ;
#987 = AXIS2_PLACEMENT_3D ( 'NONE', #1224, #717, #1316 ) ;
#988 = PLANE ( 'NONE',  #197 ) ;
#989 = DIRECTION ( 'NONE',  ( 0.000000000000000000, 0.000000000000000000, 1.000000000000000000 ) ) ;
#990 = ORIENTED_EDGE ( 'NONE', *, *, #1100, .T. ) ;
#991 = DIRECTION ( 'NONE',  ( 1.000000000000000000, 0.000000000000000000, 0.000000000000000000 ) ) ;
#992 = EDGE_LOOP ( 'NONE', ( #1213, #66, #376, #911, #290, #606 ) ) ;
#993 = CARTESIAN_POINT ( 'NONE',  ( 35.00000000000000000, 260.5000000000000000, -11.50000000000000000 ) ) ;
#994 = ORIENTED_EDGE ( 'NONE', *, *, #741, .T. ) ;
#995 = DIRECTION ( 'NONE',  ( -1.000000000000000000, 0.000000000000000000, 0.000000000000000000 ) ) ;
#996 = ORIENTED_EDGE ( 'NONE', *, *, #226, .F. ) ;
#997 = CARTESIAN_POINT ( 'NONE',  ( 35.00000000000000000, 233.9646653018595828, -8.300000000000000711 ) ) ;
#998 = EDGE_CURVE ( 'NONE', #374, #471, #20, .T. ) ;
#999 = ORIENTED_EDGE ( 'NONE', *, *, #1216, .F. ) ;
#1000 = ORIENTED_EDGE ( 'NONE', *, *, #210, .F. ) ;
#1001 = DIRECTION ( 'NONE',  ( 1.000000000000000000, 0.000000000000000000, 0.000000000000000000 ) ) ;
#1002 = CC_DESIGN_APPROVAL ( #762, ( #611 ) ) ;
#1003 = EDGE_CURVE ( 'NONE', #237, #184, #1240, .T. ) ;
#1004 = DIRECTION ( 'NONE',  ( 0.000000000000000000, 1.000000000000000000, 0.000000000000000000 ) ) ;
#1005 = VERTEX_POINT ( 'NONE', #659 ) ;
#1006 = ORIENTED_EDGE ( 'NONE', *, *, #998, .T. ) ;
#1007 = CIRCLE ( 'NONE', #831, 1.250000000000000222 ) ;
#1008 = AXIS2_PLACEMENT_3D ( 'NONE', #993, #674, #782 ) ;
#1009 = APPROVAL ( #1187, 'UNSPECIFIED' ) ;
#1010 = AXIS2_PLACEMENT_3D ( 'NONE', #1230, #314, #723 ) ;
#1011 = CARTESIAN_POINT ( 'NONE',  ( 3.700000000000000178, 93.35000000000000853, -1.199999999999999734 ) ) ;
#1012 = CIRCLE ( 'NONE', #342, 1.250000000000001110 ) ;
#1013 = VECTOR ( 'NONE', #1180, 1000.000000000000000 ) ;
#1014 = DIRECTION ( 'NONE',  ( 0.000000000000000000, 0.000000000000000000, 1.000000000000000000 ) ) ;
#1015 = ORIENTED_EDGE ( 'NONE', *, *, #5, .F. ) ;
#1016 = EDGE_CURVE ( 'NONE', #459, #559, #1280, .T. ) ;
#1017 = CARTESIAN_POINT ( 'NONE',  ( 8.749999999999994671, 87.50000000000000000, -2.299999999999999822 ) ) ;
#1018 = FACE_OUTER_BOUND ( 'NONE', #97, .T. ) ;
#1019 = CARTESIAN_POINT ( 'NONE',  ( 10.80000000000000071, 93.35000000000000853, -1.199999999999999734 ) ) ;
#1020 = ORIENTED_EDGE ( 'NONE', *, *, #843, .F. ) ;
#1021 = EDGE_CURVE ( 'NONE', #82, #1287, #59, .T. ) ;
#1022 = LINE ( 'NONE', #1211, #153 ) ;
#1023 = DIRECTION ( 'NONE',  ( -0.000000000000000000, -1.000000000000000000, -0.000000000000000000 ) ) ;
#1024 = ORIENTED_EDGE ( 'NONE', *, *, #1152, .T. ) ;
#1025 = AXIS2_PLACEMENT_3D ( 'NONE', #75, #1296, #585 ) ;
#1026 = LINE ( 'NONE', #517, #581 ) ;
#1027 = APPLICATION_PROTOCOL_DEFINITION ( 'international standard', 'config_control_design', 1994, #225 ) ;
#1028 = VECTOR ( 'NONE', #310, 1000.000000000000000 ) ;
#1029 = CARTESIAN_POINT ( 'NONE',  ( 7.250000000000000000, 89.30000000000001137, -3.550000000000000266 ) ) ;
#1030 = CIRCLE ( 'NONE', #637, 7.250000000000000888 ) ;
#1031 = ORIENTED_EDGE ( 'NONE', *, *, #625, .F. ) ;
#1032 = CARTESIAN_POINT ( 'NONE',  ( -2.399999999999999911, 265.1999999999999886, -12.90000000000000036 ) ) ;
#1033 = APPROVAL_ROLE ( '' ) ;
#1034 = DIRECTION ( 'NONE',  ( 0.000000000000000000, 0.000000000000000000, 1.000000000000000000 ) ) ;
#1035 = LINE ( 'NONE', #1136, #280 ) ;
#1036 = EDGE_CURVE ( 'NONE', #1223, #863, #52, .T. ) ;
#1037 = ORIENTED_EDGE ( 'NONE', *, *, #706, .F. ) ;
#1038 = DIRECTION ( 'NONE',  ( 0.000000000000000000, 0.000000000000000000, 1.000000000000000000 ) ) ;
#1039 = EDGE_CURVE ( 'NONE', #330, #58, #835, .T. ) ;
#1040 = FACE_OUTER_BOUND ( 'NONE', #126, .T. ) ;
#1041 = ORIENTED_EDGE ( 'NONE', *, *, #398, .T. ) ;
#1042 = CC_DESIGN_APPROVAL ( #177, ( #1317 ) ) ;
#1043 = EDGE_CURVE ( 'NONE', #229, #693, #662, .T. ) ;
#1044 = CARTESIAN_POINT ( 'NONE',  ( 1.499999999999999778, 264.0000000000000000, -11.50000000000000000 ) ) ;
#1045 = VECTOR ( 'NONE', #4, 1000.000000000000000 ) ;
#1046 = VECTOR ( 'NONE', #9, 1000.000000000000000 ) ;
#1047 = DIRECTION ( 'NONE',  ( 0.000000000000000000, 0.000000000000000000, 1.000000000000000000 ) ) ;
#1048 = ORIENTED_EDGE ( 'NONE', *, *, #664, .T. ) ;
#1049 = ADVANCED_FACE ( 'NONE', ( #174 ), #988, .F. ) ;
#1050 = DIRECTION ( 'NONE',  ( 0.000000000000000000, 0.000000000000000000, -1.000000000000000000 ) ) ;
#1051 = CARTESIAN_POINT ( 'NONE',  ( 1.500000000000001332, 262.5000000000000000, -11.50000000000000000 ) ) ;
#1052 = DIRECTION ( 'NONE',  ( 0.000000000000000000, 0.000000000000000000, 1.000000000000000000 ) ) ;
#1053 = ORIENTED_EDGE ( 'NONE', *, *, #986, .F. ) ;
#1054 = EDGE_CURVE ( 'NONE', #184, #272, #709, .T. ) ;
#1055 = DIRECTION ( 'NONE',  ( 0.000000000000000000, 1.000000000000000000, 0.000000000000000000 ) ) ;
#1056 = APPROVAL_STATUS ( 'not_yet_approved' ) ;
#1057 = DIRECTION ( 'NONE',  ( 0.000000000000000000, 0.000000000000000000, 1.000000000000000000 ) ) ;
#1058 = CARTESIAN_POINT ( 'NONE',  ( 7.250000000000000000, 89.30000000000001137, -2.299999999999999822 ) ) ;
#1059 = DIRECTION ( 'NONE',  ( 0.000000000000000000, 0.000000000000000000, -1.000000000000000000 ) ) ;
#1060 = VERTEX_POINT ( 'NONE', #1298 ) ;
#1061 = LINE ( 'NONE', #458, #110 ) ;
#1062 = EDGE_LOOP ( 'NONE', ( #345, #1082, #1020, #969, #773 ) ) ;
#1063 = AXIS2_PLACEMENT_3D ( 'NONE', #439, #844, #1249 ) ;
#1064 = FACE_OUTER_BOUND ( 'NONE', #1062, .T. ) ;
#1065 = EDGE_LOOP ( 'NONE', ( #264, #490, #311, #1253, #324, #567 ) ) ;
#1066 = TOROIDAL_SURFACE ( 'NONE', #834, 6.000000000000000000, 1.250000000000001110 ) ;
#1067 = TOROIDAL_SURFACE ( 'NONE', #1307, 1.500000000000001332, 1.250000000000000222 ) ;
#1068 = FACE_OUTER_BOUND ( 'NONE', #1178, .T. ) ;
#1069 = ORIENTED_EDGE ( 'NONE', *, *, #1239, .F. ) ;
#1070 = CARTESIAN_POINT ( 'NONE',  ( 36.25000000000000711, 91.50000000000001421, -2.299999999999999822 ) ) ;
#1071 = CYLINDRICAL_SURFACE ( 'NONE', #26, 1.250000000000000222 ) ;
#1072 = ORIENTED_EDGE ( 'NONE', *, *, #143, .F. ) ;
#1073 = CARTESIAN_POINT ( 'NONE',  ( 32.99999999999997158, 262.5000000000000000, -11.50000000000000000 ) ) ;
#1074 = EDGE_LOOP ( 'NONE', ( #756, #728, #1053, #1162, #894 ) ) ;
#1075 = ADVANCED_FACE ( 'NONE', ( #93 ), #503, .T. ) ;
#1076 = DIRECTION ( 'NONE',  ( 0.000000000000000000, 1.000000000000000000, 0.000000000000000000 ) ) ;
#1077 = CARTESIAN_POINT ( 'NONE',  ( 3.700000000000000178, 89.30000000000001137, -1.199999999999999734 ) ) ;
#1078 = VERTEX_POINT ( 'NONE', #183 ) ;
#1079 = LINE ( 'NONE', #651, #580 ) ;
#1080 = DIRECTION ( 'NONE',  ( 0.000000000000000000, 0.000000000000000000, 1.000000000000000000 ) ) ;
#1081 = EDGE_CURVE ( 'NONE', #694, #168, #601, .T. ) ;
#1082 = ORIENTED_EDGE ( 'NONE', *, *, #937, .F. ) ;
#1083 = DIRECTION ( 'NONE',  ( 0.000000000000000000, -0.000000000000000000, 1.000000000000000000 ) ) ;
#1084 = CARTESIAN_POINT ( 'NONE',  ( 7.250000000000000000, 89.00000000000000000, -2.299999999999999822 ) ) ;
#1085 = CARTESIAN_POINT ( 'NONE',  ( 35.00000000000000000, 245.6242060066261956, -11.25364611936639037 ) ) ;
#1086 = VERTEX_POINT ( 'NONE', #406 ) ;
#1087 = PERSON_AND_ORGANIZATION ( #7, #193 ) ;
#1088 = ORIENTED_EDGE ( 'NONE', *, *, #681, .T. ) ;
#1089 = AXIS2_PLACEMENT_3D ( 'NONE', #474, #577, #482 ) ;
#1090 = CIRCLE ( 'NONE', #514, 1.250000000000001110 ) ;
#1091 = EDGE_LOOP ( 'NONE', ( #1041, #936, #928, #1088 ) ) ;
#1092 = CIRCLE ( 'NONE', #726, 0.2500000000000002220 ) ;
#1093 = DIRECTION ( 'NONE',  ( 0.000000000000000000, 0.000000000000000000, 1.000000000000000000 ) ) ;
#1094 = LINE ( 'NONE', #869, #793 ) ;
#1095 = ORIENTED_EDGE ( 'NONE', *, *, #1145, .F. ) ;
#1096 = ADVANCED_FACE ( 'NONE', ( #1040 ), #714, .F. ) ;
#1097 = FACE_OUTER_BOUND ( 'NONE', #1165, .T. ) ;
#1098 = ORIENTED_EDGE ( 'NONE', *, *, #30, .T. ) ;
#1099 = ORIENTED_EDGE ( 'NONE', *, *, #614, .T. ) ;
#1100 = EDGE_CURVE ( 'NONE', #421, #1133, #839, .T. ) ;
#1101 = DIRECTION ( 'NONE',  ( -1.000000000000000000, 0.000000000000000000, 0.000000000000000000 ) ) ;
#1102 = CARTESIAN_POINT ( 'NONE',  ( 35.00000000000000000, 250.0353346981404457, -12.75000000000000888 ) ) ;
#1103 = ORIENTED_EDGE ( 'NONE', *, *, #1109, .F. ) ;
#1104 = VERTEX_POINT ( 'NONE', #427 ) ;
#1105 = DIRECTION ( 'NONE',  ( 0.000000000000000000, 0.000000000000000000, -1.000000000000000000 ) ) ;
#1106 = DIRECTION ( 'NONE',  ( -1.000000000000000000, 0.000000000000000000, 0.000000000000000000 ) ) ;
#1107 = APPROVAL_PERSON_ORGANIZATION ( #1087, #177, #1294 ) ;
#1108 = DIRECTION ( 'NONE',  ( 0.000000000000000000, 1.000000000000000000, 0.000000000000000000 ) ) ;
#1109 = EDGE_CURVE ( 'NONE', #459, #578, #1235, .T. ) ;
#1110 = VERTEX_POINT ( 'NONE', #927 ) ;
#1111 = AXIS2_PLACEMENT_3D ( 'NONE', #896, #271, #683 ) ;
#1112 = CIRCLE ( 'NONE', #532, 1.250000000000000222 ) ;
#1113 = AXIS2_PLACEMENT_3D ( 'NONE', #788, #484, #761 ) ;
#1114 = CARTESIAN_POINT ( 'NONE',  ( -2.399999999999999911, 269.5000000000000000, -10.09999999999999964 ) ) ;
#1115 = AXIS2_PLACEMENT_3D ( 'NONE', #460, #162, #1156 ) ;
#1116 = CARTESIAN_POINT ( 'NONE',  ( 2.399999999999999911, 265.1999999999999886, -10.09999999999999964 ) ) ;
#1117 = ORIENTED_EDGE ( 'NONE', *, *, #492, .F. ) ;
#1118 = PRODUCT_DEFINITION ( 'UNKNOWN', '', #1317, #456 ) ;
#1119 = CARTESIAN_POINT ( 'NONE',  ( 8.749999999999994671, 88.75000000000000000, -2.299999999999999822 ) ) ;
#1120 = DIRECTION ( 'NONE',  ( 0.000000000000000000, 0.000000000000000000, 1.000000000000000000 ) ) ;
#1121 = ORIENTED_EDGE ( 'NONE', *, *, #823, .F. ) ;
#1122 = DIRECTION ( 'NONE',  ( 0.000000000000000000, 0.000000000000000000, 1.000000000000000000 ) ) ;
#1123 = DIRECTION ( 'NONE',  ( 0.000000000000000000, 0.000000000000000000, 1.000000000000000000 ) ) ;
#1124 = FACE_OUTER_BOUND ( 'NONE', #1193, .T. ) ;
#1125 = ORIENTED_EDGE ( 'NONE', *, *, #136, .F. ) ;
#1126 = AXIS2_PLACEMENT_3D ( 'NONE', #1190, #682, #1083 ) ;
#1127 = AXIS2_PLACEMENT_3D ( 'NONE', #1144, #647, #1059 ) ;
#1128 = DIRECTION ( 'NONE',  ( 0.000000000000000000, 1.000000000000000000, 0.000000000000000000 ) ) ;
#1129 = EDGE_CURVE ( 'NONE', #437, #73, #1246, .T. ) ;
#1130 = CIRCLE ( 'NONE', #42, 1.250000000000000222 ) ;
#1131 = CARTESIAN_POINT ( 'NONE',  ( 32.99999999999997158, 263.7500000000000568, -11.50000000000000000 ) ) ;
#1132 = AXIS2_PLACEMENT_3D ( 'NONE', #355, #1055, #368 ) ;
#1133 = VERTEX_POINT ( 'NONE', #415 ) ;
#1134 = CARTESIAN_POINT ( 'NONE',  ( 3.700000000000000178, 89.30000000000001137, -1.199999999999999734 ) ) ;
#1135 = ADVANCED_FACE ( 'NONE', ( #1124 ), #1232, .T. ) ;
#1136 = CARTESIAN_POINT ( 'NONE',  ( 35.00000000000000000, 236.8547151342309860, -4.530369783863398503 ) ) ;
#1137 = DIRECTION ( 'NONE',  ( -0.000000000000000000, -0.000000000000000000, -1.000000000000000000 ) ) ;
#1138 = ADVANCED_FACE ( 'NONE', ( #1143 ), #1067, .T. ) ;
#1139 = DIRECTION ( 'NONE',  ( 0.000000000000000000, 0.000000000000000000, -1.000000000000000000 ) ) ;
#1140 = ORIENTED_EDGE ( 'NONE', *, *, #1207, .F. ) ;
#1141 = LINE ( 'NONE', #122, #1238 ) ;
#1142 = DIRECTION ( 'NONE',  ( 0.000000000000000000, 1.000000000000000000, 0.000000000000000000 ) ) ;
#1143 = FACE_OUTER_BOUND ( 'NONE', #794, .T. ) ;
#1144 = CARTESIAN_POINT ( 'NONE',  ( -2.399999999999999911, 265.1999999999999886, -10.09999999999999964 ) ) ;
#1145 = EDGE_CURVE ( 'NONE', #863, #374, #501, .T. ) ;
#1146 = ORIENTED_EDGE ( 'NONE', *, *, #605, .F. ) ;
#1147 = CARTESIAN_POINT ( 'NONE',  ( 35.00000000000000000, 250.0353346981404457, -5.500000000000000000 ) ) ;
#1148 = CIRCLE ( 'NONE', #903, 1.250000000000001110 ) ;
#1149 = AXIS2_PLACEMENT_3D ( 'NONE', #1313, #1123, #640 ) ;
#1150 = AXIS2_PLACEMENT_3D ( 'NONE', #906, #697, #194 ) ;
#1151 = DIRECTION ( 'NONE',  ( 0.000000000000000000, 0.7936063612919164179, -0.6084315436571350322 ) ) ;
#1152 = EDGE_CURVE ( 'NONE', #1110, #866, #260, .T. ) ;
#1153 = ORIENTED_EDGE ( 'NONE', *, *, #327, .T. ) ;
#1154 = CARTESIAN_POINT ( 'NONE',  ( 7.250000000000000000, 89.00000000000000000, -2.299999999999999822 ) ) ;
#1155 = ADVANCED_FACE ( 'NONE', ( #1064 ), #1071, .T. ) ;
#1156 = DIRECTION ( 'NONE',  ( 0.000000000000000000, -0.000000000000000000, 1.000000000000000000 ) ) ;
#1157 = ORIENTED_EDGE ( 'NONE', *, *, #1315, .F. ) ;
#1158 = PRODUCT_DEFINITION_SHAPE ( 'NONE', 'NONE',  #1118 ) ;
#1159 = ORIENTED_EDGE ( 'NONE', *, *, #873, .T. ) ;
#1160 = CARTESIAN_POINT ( 'NONE',  ( 35.00000000000000000, 91.50000000000001421, -2.299999999999999822 ) ) ;
#1161 = CARTESIAN_POINT ( 'NONE',  ( 35.00000000000000000, 238.3757939933738044, -2.546353880633607680 ) ) ;
#1162 = ORIENTED_EDGE ( 'NONE', *, *, #292, .F. ) ;
#1163 = CYLINDRICAL_SURFACE ( 'NONE', #926, 1.250000000000000222 ) ;
#1164 = CARTESIAN_POINT ( 'NONE',  ( 1.499999999999999778, 264.0000000000000000, -11.50000000000000000 ) ) ;
#1165 = EDGE_LOOP ( 'NONE', ( #231, #308, #51, #385, #1205, #602 ) ) ;
#1166 = LINE ( 'NONE', #1291, #285 ) ;
#1167 = EDGE_CURVE ( 'NONE', #396, #170, #770, .T. ) ;
#1168 = VECTOR ( 'NONE', #1137, 1000.000000000000000 ) ;
#1169 = AXIS2_PLACEMENT_3D ( 'NONE', #568, #560, #1201 ) ;
#1170 = CARTESIAN_POINT ( 'NONE',  ( 35.00000000000000000, 237.6152545638023810, -3.538361832248503092 ) ) ;
#1171 = UNCERTAINTY_MEASURE_WITH_UNIT (LENGTH_MEASURE( 1.000000000000000082E-05 ), #305, 'distance_accuracy_value', 'NONE');
#1172 = ORIENTED_EDGE ( 'NONE', *, *, #986, .T. ) ;
#1173 = AXIS2_PLACEMENT_3D ( 'NONE', #785, #956, #882 ) ;
#1174 = CYLINDRICAL_SURFACE ( 'NONE', #513, 1.250000000000001110 ) ;
#1175 = ORIENTED_EDGE ( 'NONE', *, *, #757, .T. ) ;
#1176 = DIRECTION ( 'NONE',  ( 0.000000000000000000, 0.000000000000000000, 1.000000000000000000 ) ) ;
#1177 = LINE ( 'NONE', #465, #1321 ) ;
#1178 = EDGE_LOOP ( 'NONE', ( #1241, #1006, #945, #54, #701, #28 ) ) ;
#1179 = EDGE_CURVE ( 'NONE', #392, #955, #133, .T. ) ;
#1180 = DIRECTION ( 'NONE',  ( -0.000000000000000000, -0.000000000000000000, -1.000000000000000000 ) ) ;
#1181 = ORIENTED_EDGE ( 'NONE', *, *, #105, .F. ) ;
#1182 = EDGE_CURVE ( 'NONE', #37, #1247, #960, .T. ) ;
#1183 = DIRECTION ( 'NONE',  ( 0.000000000000000000, 1.000000000000000000, 0.000000000000000000 ) ) ;
#1184 = DIRECTION ( 'NONE',  ( -0.000000000000000000, -1.000000000000000000, -0.000000000000000000 ) ) ;
#1185 = PLANE ( 'NONE',  #497 ) ;
#1186 = EDGE_LOOP ( 'NONE', ( #1295, #262, #1175, #668, #135, #470 ) ) ;
#1187 = APPROVAL_STATUS ( 'not_yet_approved' ) ;
#1188 = EDGE_LOOP ( 'NONE', ( #191, #1159 ) ) ;
#1189 = ADVANCED_FACE ( 'NONE', ( #1277, #455 ), #1266, .F. ) ;
#1190 = CARTESIAN_POINT ( 'NONE',  ( 7.250000000000000000, 89.30000000000001137, -2.299999999999999822 ) ) ;
#1191 = ORIENTED_EDGE ( 'NONE', *, *, #1054, .F. ) ;
#1192 = DIRECTION ( 'NONE',  ( -0.000000000000000000, -0.000000000000000000, -1.000000000000000000 ) ) ;
#1193 = EDGE_LOOP ( 'NONE', ( #781, #897, #1048 ) ) ;
#1194 = LOCAL_TIME ( 17, 50, 24.00000000000000000, #379 ) ;
#1195 = DIRECTION ( 'NONE',  ( 1.000000000000000000, 0.000000000000000000, 0.000000000000000000 ) ) ;
#1196 = DIRECTION ( 'NONE',  ( 0.000000000000000000, 0.000000000000000000, 1.000000000000000000 ) ) ;
#1197 = CIRCLE ( 'NONE', #1274, 7.250000000000011546 ) ;
#1198 = ORIENTED_EDGE ( 'NONE', *, *, #698, .F. ) ;
#1199 = CIRCLE ( 'NONE', #617, 1.250000000000001110 ) ;
#1200 = EDGE_CURVE ( 'NONE', #1264, #800, #534, .T. ) ;
#1201 = DIRECTION ( 'NONE',  ( 0.000000000000000000, 0.000000000000000000, 1.000000000000000000 ) ) ;
#1202 = AXIS2_PLACEMENT_3D ( 'NONE', #403, #1212, #815 ) ;
#1203 = ORIENTED_EDGE ( 'NONE', *, *, #716, .F. ) ;
#1204 = CIRCLE ( 'NONE', #620, 1.250000000000000222 ) ;
#1205 = ORIENTED_EDGE ( 'NONE', *, *, #629, .F. ) ;
#1206 = DIRECTION ( 'NONE',  ( 0.000000000000000000, 0.000000000000000000, 1.000000000000000000 ) ) ;
#1207 = EDGE_CURVE ( 'NONE', #146, #949, #469, .T. ) ;
#1208 = DIRECTION ( 'NONE',  ( 0.000000000000000000, 0.000000000000000000, 1.000000000000000000 ) ) ;
#1209 = ORIENTED_EDGE ( 'NONE', *, *, #980, .F. ) ;
#1210 = ORIENTED_EDGE ( 'NONE', *, *, #639, .T. ) ;
#1211 = CARTESIAN_POINT ( 'NONE',  ( -2.399999999999999911, 265.1999999999999886, -10.09999999999999964 ) ) ;
#1212 = DIRECTION ( 'NONE',  ( -1.000000000000000000, 0.000000000000000000, 0.000000000000000000 ) ) ;
#1213 = ORIENTED_EDGE ( 'NONE', *, *, #201, .F. ) ;
#1214 = LINE ( 'NONE', #638, #1279 ) ;
#1215 = CARTESIAN_POINT ( 'NONE',  ( -2.399999999999999911, 265.1999999999999886, -10.09999999999999964 ) ) ;
#1216 = EDGE_CURVE ( 'NONE', #1314, #578, #646, .T. ) ;
#1217 = ORIENTED_EDGE ( 'NONE', *, *, #1261, .F. ) ;
#1218 = CIRCLE ( 'NONE', #941, 1.250000000000000222 ) ;
#1219 = AXIS2_PLACEMENT_3D ( 'NONE', #1160, #1288, #546 ) ;
#1220 = DIRECTION ( 'NONE',  ( -0.000000000000000000, -0.000000000000000000, -1.000000000000000000 ) ) ;
#1221 = EDGE_CURVE ( 'NONE', #1287, #949, #1007, .T. ) ;
#1222 = DIRECTION ( 'NONE',  ( 0.000000000000000000, 0.6084315436571308133, 0.7936063612919196375 ) ) ;
#1223 = VERTEX_POINT ( 'NONE', #536 ) ;
#1224 = CARTESIAN_POINT ( 'NONE',  ( 35.00000000000000000, 255.5000000000000000, -11.50000000000000000 ) ) ;
#1225 =( NAMED_UNIT ( * ) SI_UNIT ( $, .STERADIAN. ) SOLID_ANGLE_UNIT ( ) );
#1226 = CARTESIAN_POINT ( 'NONE',  ( -1.250000000000001998, 264.0000000000000000, -11.50000000000000000 ) ) ;
#1227 = ORIENTED_EDGE ( 'NONE', *, *, #853, .T. ) ;
#1228 = EDGE_CURVE ( 'NONE', #272, #1287, #218, .T. ) ;
#1229 = DIRECTION ( 'NONE',  ( 0.000000000000000000, -1.000000000000000000, 0.000000000000000000 ) ) ;
#1230 = CARTESIAN_POINT ( 'NONE',  ( 0.000000000000000000, 264.0000000000000000, -11.50000000000000000 ) ) ;
#1231 = AXIS2_PLACEMENT_3D ( 'NONE', #1170, #1151, #236 ) ;
#1232 = PLANE ( 'NONE',  #797 ) ;
#1233 = VERTEX_POINT ( 'NONE', #763 ) ;
#1234 = ADVANCED_FACE ( 'NONE', ( #155 ), #845, .T. ) ;
#1235 = CIRCLE ( 'NONE', #258, 1.250000000000000222 ) ;
#1236 = VECTOR ( 'NONE', #925, 1000.000000000000000 ) ;
#1237 = CARTESIAN_POINT ( 'NONE',  ( 1.500000000000001332, 261.2500000000000000, -11.50000000000000000 ) ) ;
#1238 = VECTOR ( 'NONE', #1242, 1000.000000000000000 ) ;
#1239 = EDGE_CURVE ( 'NONE', #1060, #396, #1251, .T. ) ;
#1240 = CIRCLE ( 'NONE', #765, 1.250000000000000222 ) ;
#1241 = ORIENTED_EDGE ( 'NONE', *, *, #1145, .T. ) ;
#1242 = DIRECTION ( 'NONE',  ( 0.000000000000000000, 1.000000000000000000, 0.000000000000000000 ) ) ;
#1243 = CALENDAR_DATE ( 2026, 29, 9 ) ;
#1244 = EDGE_CURVE ( 'NONE', #279, #1060, #494, .T. ) ;
#1245 = FACE_OUTER_BOUND ( 'NONE', #902, .T. ) ;
#1246 = LINE ( 'NONE', #1019, #1168 ) ;
#1247 = VERTEX_POINT ( 'NONE', #641 ) ;
#1248 = PLANE ( 'NONE',  #90 ) ;
#1249 = DIRECTION ( 'NONE',  ( 0.000000000000000000, 0.000000000000000000, 1.000000000000000000 ) ) ;
#1250 = EDGE_CURVE ( 'NONE', #382, #787, #678, .T. ) ;
#1251 = LINE ( 'NONE', #1161, #425 ) ;
#1252 = CARTESIAN_POINT ( 'NONE',  ( 35.00000000000000000, 236.8547151342309860, -4.530369783863394950 ) ) ;
#1253 = ORIENTED_EDGE ( 'NONE', *, *, #115, .F. ) ;
#1254 = CYLINDRICAL_SURFACE ( 'NONE', #1, 1.250000000000001110 ) ;
#1255 = CIRCLE ( 'NONE', #687, 0.2500000000000002220 ) ;
#1256 = ORIENTED_EDGE ( 'NONE', *, *, #398, .F. ) ;
#1257 = ORIENTED_EDGE ( 'NONE', *, *, #1036, .F. ) ;
#1258 = CARTESIAN_POINT ( 'NONE',  ( 31.00000000000000355, 91.50000000000000000, -2.299999999999999822 ) ) ;
#1259 = CARTESIAN_POINT ( 'NONE',  ( 3.700000000000000178, 89.30000000000001137, -1.199999999999999734 ) ) ;
#1260 = ORIENTED_EDGE ( 'NONE', *, *, #430, .F. ) ;
#1261 = EDGE_CURVE ( 'NONE', #243, #276, #103, .T. ) ;
#1262 = CARTESIAN_POINT ( 'NONE',  ( 31.00000000000000355, 91.50000000000000000, -2.299999999999999822 ) ) ;
#1263 = LINE ( 'NONE', #786, #216 ) ;
#1264 = VERTEX_POINT ( 'NONE', #712 ) ;
#1265 = DIRECTION ( 'NONE',  ( 0.000000000000000000, 1.000000000000000000, 0.000000000000000000 ) ) ;
#1266 = PLANE ( 'NONE',  #1115 ) ;
#1267 = ORIENTED_EDGE ( 'NONE', *, *, #558, .T. ) ;
#1268 = DIRECTION ( 'NONE',  ( -1.000000000000000000, 0.000000000000000000, 0.000000000000000000 ) ) ;
#1269 = EDGE_CURVE ( 'NONE', #1311, #459, #740, .T. ) ;
#1270 = DIRECTION ( 'NONE',  ( 1.000000000000000000, 0.000000000000000000, 0.000000000000000000 ) ) ;
#1271 = DIRECTION ( 'NONE',  ( 0.000000000000000000, 0.000000000000000000, -1.000000000000000000 ) ) ;
#1272 = DIRECTION ( 'NONE',  ( 1.000000000000000000, 0.000000000000000000, 0.000000000000000000 ) ) ;
#1273 = FACE_OUTER_BOUND ( 'NONE', #846, .T. ) ;
#1274 = AXIS2_PLACEMENT_3D ( 'NONE', #883, #278, #563 ) ;
#1275 = CC_DESIGN_PERSON_AND_ORGANIZATION_ASSIGNMENT ( #887, #518, ( #1118 ) ) ;
#1276 = VECTOR ( 'NONE', #1142, 1000.000000000000000 ) ;
#1277 = FACE_BOUND ( 'NONE', #1188, .T. ) ;
#1278 = ORIENTED_EDGE ( 'NONE', *, *, #1081, .F. ) ;
#1279 = VECTOR ( 'NONE', #535, 1000.000000000000000 ) ;
#1280 = CIRCLE ( 'NONE', #320, 5.250000000000000888 ) ;
#1281 = DIRECTION ( 'NONE',  ( 0.000000000000000000, 1.000000000000000000, 0.000000000000000000 ) ) ;
#1282 = CARTESIAN_POINT ( 'NONE',  ( 0.000000000000000000, 264.0000000000000000, -10.24999999999999822 ) ) ;
#1283 = ORIENTED_EDGE ( 'NONE', *, *, #343, .T. ) ;
#1284 = EDGE_CURVE ( 'NONE', #58, #974, #277, .T. ) ;
#1285 = CARTESIAN_POINT ( 'NONE',  ( 8.749999999999994671, 87.50000000000000000, -3.550000000000000266 ) ) ;
#1286 = EDGE_LOOP ( 'NONE', ( #1267, #1098, #888, #1069 ) ) ;
#1287 = VERTEX_POINT ( 'NONE', #283 ) ;
#1288 = DIRECTION ( 'NONE',  ( 0.000000000000000000, -1.000000000000000000, 0.000000000000000000 ) ) ;
#1289 = CARTESIAN_POINT ( 'NONE',  ( 3.700000000000000178, 93.35000000000000853, -1.199999999999999734 ) ) ;
#1290 = EDGE_LOOP ( 'NONE', ( #526, #91, #159, #1153 ) ) ;
#1291 = CARTESIAN_POINT ( 'NONE',  ( 3.700000000000000178, 89.30000000000001137, -3.399999999999999911 ) ) ;
#1292 = CARTESIAN_POINT ( 'NONE',  ( 7.250000000000000000, 89.30000000000001137, -2.299999999999999822 ) ) ;
#1293 = ADVANCED_FACE ( 'NONE', ( #1097 ), #247, .T. ) ;
#1294 = APPROVAL_ROLE ( '' ) ;
#1295 = ORIENTED_EDGE ( 'NONE', *, *, #244, .T. ) ;
#1296 = DIRECTION ( 'NONE',  ( 0.000000000000000000, -1.000000000000000000, 0.000000000000000000 ) ) ;
#1297 = ORIENTED_EDGE ( 'NONE', *, *, #472, .T. ) ;
#1298 = CARTESIAN_POINT ( 'NONE',  ( 35.00000000000000000, 238.3757939933738044, -2.546353880633611677 ) ) ;
#1299 = CARTESIAN_POINT ( 'NONE',  ( 0.000000000000000000, 0.000000000000000000, -10.09999999999999964 ) ) ;
#1300 = EDGE_LOOP ( 'NONE', ( #791, #720, #248, #783 ) ) ;
#1301 = DIRECTION ( 'NONE',  ( 0.000000000000000000, 0.000000000000000000, 1.000000000000000000 ) ) ;
#1302 = DIRECTION ( 'NONE',  ( 1.000000000000000000, 0.000000000000000000, 0.000000000000000000 ) ) ;
#1303 = ORIENTED_EDGE ( 'NONE', *, *, #74, .F. ) ;
#1304 = AXIS2_PLACEMENT_3D ( 'NONE', #413, #1108, #1014 ) ;
#1305 = TOROIDAL_SURFACE ( 'NONE', #856, 1.500000000000001332, 1.250000000000000222 ) ;
#1306 = ORIENTED_EDGE ( 'NONE', *, *, #1039, .F. ) ;
#1307 = AXIS2_PLACEMENT_3D ( 'NONE', #36, #633, #364 ) ;
#1308 = CARTESIAN_POINT ( 'NONE',  ( 8.749999999999994671, 86.25000000000000000, -2.299999999999999822 ) ) ;
#1309 = DIRECTION ( 'NONE',  ( 0.000000000000000000, 1.000000000000000000, 0.000000000000000000 ) ) ;
#1310 = APPLICATION_CONTEXT ( 'configuration controlled 3d designs of mechanical parts and assemblies' ) ;
#1311 = VERTEX_POINT ( 'NONE', #10 ) ;
#1312 = DIRECTION ( 'NONE',  ( 1.000000000000000000, 0.000000000000000000, 0.000000000000000000 ) ) ;
#1313 = CARTESIAN_POINT ( 'NONE',  ( 31.00000000000000355, 91.50000000000000000, -2.299999999999999822 ) ) ;
#1314 = VERTEX_POINT ( 'NONE', #981 ) ;
#1315 = EDGE_CURVE ( 'NONE', #168, #1311, #72, .T. ) ;
#1316 = DIRECTION ( 'NONE',  ( 0.000000000000000000, 0.000000000000000000, 1.000000000000000000 ) ) ;
#1317 = PRODUCT_DEFINITION_FORMATION_WITH_SPECIFIED_SOURCE ( 'ANY', '', #254, .NOT_KNOWN. ) ;
#1318 = CARTESIAN_POINT ( 'NONE',  ( 35.00000000000000000, 246.3847454361975906, -10.26163816775149584 ) ) ;
#1319 = CARTESIAN_POINT ( 'NONE',  ( 35.00000000000000000, 255.5000000000000000, -12.75000000000000178 ) ) ;
#1320 = EDGE_LOOP ( 'NONE', ( #61, #661, #892, #141, #1072 ) ) ;
#1321 = VECTOR ( 'NONE', #971, 1000.000000000000000 ) ;
ENDSEC;
END-ISO-10303-21;
