ISO-10303-21;
HEADER;
FILE_DESCRIPTION (( 'STEP AP203' ),
    '1' );
FILE_NAME ('Harness - GPS Cable.step',
    '2026-09-29T04:50:25',
    ( '' ),
    ( '' ),
    '',
    '',
    '' );
FILE_SCHEMA (( 'CONFIG_CONTROL_DESIGN' ));
ENDSEC;

DATA;
#1 = ORIENTED_EDGE ( 'NONE', *, *, #76, .F. ) ;
#2 = AXIS2_PLACEMENT_3D ( 'NONE', #176, #619, #472 ) ;
#3 = VECTOR ( 'NONE', #405, 1000.000000000000000 ) ;
#4 = ORIENTED_EDGE ( 'NONE', *, *, #135, .F. ) ;
#5 = VECTOR ( 'NONE', #228, 1000.000000000000000 ) ;
#6 = AXIS2_PLACEMENT_3D ( 'NONE', #108, #393, #886 ) ;
#7 = CC_DESIGN_PERSON_AND_ORGANIZATION_ASSIGNMENT ( #508, #12, ( #749 ) ) ;
#8 = ORIENTED_EDGE ( 'NONE', *, *, #114, .F. ) ;
#9 = ORIENTED_EDGE ( 'NONE', *, *, #574, .F. ) ;
#10 = FACE_OUTER_BOUND ( 'NONE', #156, .T. ) ;
#11 = ADVANCED_FACE ( 'NONE', ( #242 ), #865, .T. ) ;
#12 = PERSON_AND_ORGANIZATION_ROLE ( 'creator' ) ;
#13 = CARTESIAN_POINT ( 'NONE',  ( -1.500000000000000000, 386.1999999999999886, 25.79858701345978744 ) ) ;
#14 = DIRECTION ( 'NONE',  ( 1.000000000000000000, 0.000000000000000000, 0.000000000000000000 ) ) ;
#15 = ORIENTED_EDGE ( 'NONE', *, *, #856, .T. ) ;
#16 = LINE ( 'NONE', #297, #5 ) ;
#17 = CARTESIAN_POINT ( 'NONE',  ( 0.000000000000000000, 132.0000000000000000, 35.00000000000000000 ) ) ;
#18 = DIRECTION ( 'NONE',  ( 0.000000000000000000, 0.000000000000000000, -1.000000000000000000 ) ) ;
#19 = EDGE_LOOP ( 'NONE', ( #432, #665, #294, #285 ) ) ;
#20 = DIRECTION ( 'NONE',  ( 0.000000000000000000, 1.000000000000000000, 0.000000000000000000 ) ) ;
#21 = CIRCLE ( 'NONE', #735, 4.500000000000000888 ) ;
#22 = APPROVAL_STATUS ( 'not_yet_approved' ) ;
#23 = EDGE_LOOP ( 'NONE', ( #587, #755, #763, #339 ) ) ;
#24 = DIRECTION ( 'NONE',  ( 0.000000000000000000, 0.000000000000000000, -1.000000000000000000 ) ) ;
#25 = ORIENTED_EDGE ( 'NONE', *, *, #249, .F. ) ;
#26 = DIRECTION ( 'NONE',  ( 0.000000000000000000, -0.000000000000000000, 1.000000000000000000 ) ) ;
#27 = EDGE_LOOP ( 'NONE', ( #651, #906, #793, #153 ) ) ;
#28 = DIRECTION ( 'NONE',  ( 0.000000000000000000, 0.000000000000000000, -1.000000000000000000 ) ) ;
#29 = DIRECTION ( 'NONE',  ( 1.000000000000000000, 0.000000000000000000, 0.000000000000000000 ) ) ;
#30 = ORIENTED_EDGE ( 'NONE', *, *, #283, .T. ) ;
#31 = ADVANCED_FACE ( 'NONE', ( #372 ), #161, .T. ) ;
#32 = FACE_OUTER_BOUND ( 'NONE', #150, .T. ) ;
#33 = ORIENTED_EDGE ( 'NONE', *, *, #683, .T. ) ;
#34 = ORIENTED_EDGE ( 'NONE', *, *, #875, .T. ) ;
#35 = CARTESIAN_POINT ( 'NONE',  ( -1.836970198721029934E-16, 368.8910689958312332, 33.00000000000000000 ) ) ;
#36 = CARTESIAN_POINT ( 'NONE',  ( 0.000000000000000000, 386.1999999999999886, 25.79858701345978744 ) ) ;
#37 = ORIENTED_EDGE ( 'NONE', *, *, #479, .F. ) ;
#38 = DIRECTION ( 'NONE',  ( -0.000000000000000000, -0.000000000000000000, -1.000000000000000000 ) ) ;
#39 = EDGE_CURVE ( 'NONE', #359, #782, #713, .T. ) ;
#40 = CIRCLE ( 'NONE', #627, 1.500000000000000000 ) ;
#41 = LOCAL_TIME ( 17, 50, 25.00000000000000000, #764 ) ;
#42 = CYLINDRICAL_SURFACE ( 'NONE', #625, 1.500000000000000444 ) ;
#43 = DIRECTION ( 'NONE',  ( 0.000000000000000000, 0.000000000000000000, 1.000000000000000000 ) ) ;
#44 = CARTESIAN_POINT ( 'NONE',  ( -2.999999999999999112, 132.0000000000000000, 4.999999999999999112 ) ) ;
#45 = ADVANCED_FACE ( 'NONE', ( #311 ), #586, .T. ) ;
#46 = UNCERTAINTY_MEASURE_WITH_UNIT (LENGTH_MEASURE( 1.000000000000000082E-05 ), #143, 'distance_accuracy_value', 'NONE');
#47 = DIRECTION ( 'NONE',  ( 1.000000000000000000, 0.000000000000000000, 0.000000000000000000 ) ) ;
#48 = CYLINDRICAL_SURFACE ( 'NONE', #414, 1.500000000000000000 ) ;
#49 = CARTESIAN_POINT ( 'NONE',  ( -10.99999999999999645, 129.0000000000000000, 6.500000000000000000 ) ) ;
#50 = CC_DESIGN_PERSON_AND_ORGANIZATION_ASSIGNMENT ( #712, #775, ( #164 ) ) ;
#51 = CARTESIAN_POINT ( 'NONE',  ( 1.500000000000000000, 132.0000000000000000, 35.00000000000000000 ) ) ;
#52 = AXIS2_PLACEMENT_3D ( 'NONE', #36, #666, #29 ) ;
#53 = AXIS2_PLACEMENT_3D ( 'NONE', #818, #741, #201 ) ;
#54 = PLANE ( 'NONE',  #302 ) ;
#55 = CARTESIAN_POINT ( 'NONE',  ( 0.000000000000000000, 132.0000000000000000, 35.00000000000000000 ) ) ;
#56 = CARTESIAN_POINT ( 'NONE',  ( 1.500000000000000000, 132.0000000000000000, 35.00000000000000000 ) ) ;
#57 = EDGE_CURVE ( 'NONE', #494, #519, #423, .T. ) ;
#58 = CARTESIAN_POINT ( 'NONE',  ( 0.000000000000000000, 386.1999999999999886, 19.50000000000000000 ) ) ;
#59 = VERTEX_POINT ( 'NONE', #305 ) ;
#60 = CARTESIAN_POINT ( 'NONE',  ( -12.49999999999999645, 129.0000000000000000, 6.500000000000000000 ) ) ;
#61 = DIRECTION ( 'NONE',  ( 0.000000000000000000, 1.000000000000000000, 0.000000000000000000 ) ) ;
#62 = CARTESIAN_POINT ( 'NONE',  ( 0.000000000000000000, 368.8910689958312332, 40.99999999999997868 ) ) ;
#63 = DIRECTION ( 'NONE',  ( 1.000000000000000000, 0.000000000000000000, 0.000000000000000000 ) ) ;
#64 = CARTESIAN_POINT ( 'NONE',  ( 1.836970198721029934E-16, 375.3059826341302028, 40.00705951260346183 ) ) ;
#65 = CIRCLE ( 'NONE', #52, 1.500000000000000000 ) ;
#66 = VECTOR ( 'NONE', #680, 1000.000000000000000 ) ;
#67 = EDGE_LOOP ( 'NONE', ( #779, #411, #700, #832 ) ) ;
#68 = APPROVAL_PERSON_ORGANIZATION ( #521, #435, #240 ) ;
#69 = EDGE_CURVE ( 'NONE', #367, #629, #347, .T. ) ;
#70 =( NAMED_UNIT ( * ) PLANE_ANGLE_UNIT ( ) SI_UNIT ( $, .RADIAN. ) );
#71 = ORIENTED_EDGE ( 'NONE', *, *, #361, .T. ) ;
#72 = ORIENTED_EDGE ( 'NONE', *, *, #299, .F. ) ;
#73 = DATE_AND_TIME ( #631, #203 ) ;
#74 = ORIENTED_EDGE ( 'NONE', *, *, #400, .T. ) ;
#75 = VERTEX_POINT ( 'NONE', #13 ) ;
#76 = EDGE_CURVE ( 'NONE', #209, #841, #600, .T. ) ;
#77 = VERTEX_POINT ( 'NONE', #727 ) ;
#78 = VERTEX_POINT ( 'NONE', #589 ) ;
#79 = CIRCLE ( 'NONE', #394, 1.500000000000000444 ) ;
#80 = ORIENTED_EDGE ( 'NONE', *, *, #723, .T. ) ;
#81 = ADVANCED_FACE ( 'NONE', ( #522, #781 ), #526, .F. ) ;
#82 = CIRCLE ( 'NONE', #484, 1.500000000000000444 ) ;
#83 = CARTESIAN_POINT ( 'NONE',  ( 0.000000000000000000, 384.5762703359467878, 29.48651307272476174 ) ) ;
#84 = CIRCLE ( 'NONE', #677, 1.499999999999999556 ) ;
#85 = CALENDAR_DATE ( 2026, 29, 9 ) ;
#86 = DIRECTION ( 'NONE',  ( 0.000000000000000000, 0.000000000000000000, 1.000000000000000000 ) ) ;
#87 = ORIENTED_EDGE ( 'NONE', *, *, #469, .T. ) ;
#88 = CYLINDRICAL_SURFACE ( 'NONE', #335, 1.500000000000016875 ) ;
#89 = CARTESIAN_POINT ( 'NONE',  ( -9.500000000000001776, 129.0000000000000000, 6.500000000000000000 ) ) ;
#90 = ORIENTED_EDGE ( 'NONE', *, *, #396, .T. ) ;
#91 = DIRECTION ( 'NONE',  ( 0.000000000000000000, -1.000000000000000000, 0.000000000000000000 ) ) ;
#92 = CARTESIAN_POINT ( 'NONE',  ( 0.000000000000000000, 386.1999999999999886, 19.50000000000000000 ) ) ;
#93 = DIRECTION ( 'NONE',  ( 1.000000000000000000, 0.000000000000000000, 1.445602896647339163E-16 ) ) ;
#94 = CARTESIAN_POINT ( 'NONE',  ( 0.000000000000000000, 374.2931015333461460, 38.90068169482396598 ) ) ;
#95 = ORIENTED_EDGE ( 'NONE', *, *, #381, .F. ) ;
#96 = CARTESIAN_POINT ( 'NONE',  ( -1.836970198721029934E-16, 138.0000000000000000, 35.00000000000000000 ) ) ;
#97 = CIRCLE ( 'NONE', #614, 9.500000000000035527 ) ;
#98 = CIRCLE ( 'NONE', #227, 6.500000000000005329 ) ;
#99 = AXIS2_PLACEMENT_3D ( 'NONE', #624, #897, #136 ) ;
#100 = ADVANCED_FACE ( 'NONE', ( #798 ), #42, .T. ) ;
#101 = DIRECTION ( 'NONE',  ( -0.000000000000000000, -1.000000000000000000, -0.000000000000000000 ) ) ;
#102 = DIRECTION ( 'NONE',  ( 0.000000000000000000, 0.000000000000000000, -1.000000000000000000 ) ) ;
#103 = PLANE ( 'NONE',  #157 ) ;
#104 = CARTESIAN_POINT ( 'NONE',  ( -12.49999999999999645, 129.0000000000000000, 4.999999999999999112 ) ) ;
#105 = CARTESIAN_POINT ( 'NONE',  ( -2.999999999999999556, 132.0000000000000000, 9.500000000000000000 ) ) ;
#106 = CARTESIAN_POINT ( 'NONE',  ( -5.000000000000000000, 388.0000000000000000, 19.50000000000000000 ) ) ;
#107 = ORIENTED_EDGE ( 'NONE', *, *, #634, .T. ) ;
#108 = CARTESIAN_POINT ( 'NONE',  ( -12.49999999999999645, 129.0000000000000000, 6.500000000000000000 ) ) ;
#109 = ADVANCED_FACE ( 'NONE', ( #802 ), #462, .T. ) ;
#110 = CARTESIAN_POINT ( 'NONE',  ( 0.000000000000000000, 384.5762703359467878, 29.48651307272476174 ) ) ;
#111 = DIRECTION ( 'NONE',  ( 0.000000000000000000, 0.000000000000000000, 1.000000000000000000 ) ) ;
#112 = VERTEX_POINT ( 'NONE', #811 ) ;
#113 = DIRECTION ( 'NONE',  ( 0.000000000000000000, 0.000000000000000000, -1.000000000000000000 ) ) ;
#114 = EDGE_CURVE ( 'NONE', #827, #112, #123, .T. ) ;
#115 = AXIS2_PLACEMENT_3D ( 'NONE', #313, #18, #295 ) ;
#116 = CC_DESIGN_APPROVAL ( #408, ( #749 ) ) ;
#117 = CARTESIAN_POINT ( 'NONE',  ( -12.49999999999999645, 108.5000000000000142, 6.500000000000000000 ) ) ;
#118 = DIRECTION ( 'NONE',  ( 0.000000000000000000, 0.000000000000000000, -1.000000000000000000 ) ) ;
#119 = DIRECTION ( 'NONE',  ( 0.000000000000000000, 0.000000000000000000, 1.000000000000000000 ) ) ;
#120 = ADVANCED_FACE ( 'NONE', ( #545 ), #789, .T. ) ;
#121 = DIRECTION ( 'NONE',  ( 0.000000000000000000, -1.000000000000000000, 0.000000000000000000 ) ) ;
#122 = ADVANCED_FACE ( 'NONE', ( #480 ), #54, .F. ) ;
#123 = LINE ( 'NONE', #874, #3 ) ;
#124 = FACE_OUTER_BOUND ( 'NONE', #23, .T. ) ;
#125 = DIRECTION ( 'NONE',  ( 0.000000000000000000, 0.000000000000000000, 1.000000000000000000 ) ) ;
#126 = ORIENTED_EDGE ( 'NONE', *, *, #469, .F. ) ;
#127 = CIRCLE ( 'NONE', #746, 1.500000000000000000 ) ;
#128 = VECTOR ( 'NONE', #378, 1000.000000000000000 ) ;
#129 = CARTESIAN_POINT ( 'NONE',  ( 1.836970198721029934E-16, 385.5891514367308446, 30.59289089050425048 ) ) ;
#130 = LOCAL_TIME ( 17, 50, 25.00000000000000000, #762 ) ;
#131 = DIRECTION ( 'NONE',  ( 0.000000000000000000, 0.000000000000000000, 1.000000000000000000 ) ) ;
#132 = DIRECTION ( 'NONE',  ( 0.000000000000000000, 0.000000000000000000, -1.000000000000000000 ) ) ;
#133 = CARTESIAN_POINT ( 'NONE',  ( 0.000000000000000000, 132.0000000000000000, 35.00000000000000000 ) ) ;
#134 = APPLICATION_CONTEXT ( 'configuration controlled 3d designs of mechanical parts and assemblies' ) ;
#135 = EDGE_CURVE ( 'NONE', #782, #827, #456, .T. ) ;
#136 = DIRECTION ( 'NONE',  ( 0.000000000000000000, 0.000000000000000000, -1.000000000000000000 ) ) ;
#137 = AXIS2_PLACEMENT_3D ( 'NONE', #94, #724, #374 ) ;
#138 = AXIS2_PLACEMENT_3D ( 'NONE', #55, #486, #750 ) ;
#139 = ORIENTED_EDGE ( 'NONE', *, *, #598, .F. ) ;
#140 = ORIENTED_EDGE ( 'NONE', *, *, #622, .T. ) ;
#141 = AXIS2_PLACEMENT_3D ( 'NONE', #265, #743, #682 ) ;
#142 = CARTESIAN_POINT ( 'NONE',  ( -14.00000000000000178, 129.0000000000000000, 6.500000000000000000 ) ) ;
#143 =( LENGTH_UNIT ( ) NAMED_UNIT ( * ) SI_UNIT ( .MILLI., .METRE. ) );
#144 = ORIENTED_EDGE ( 'NONE', *, *, #551, .T. ) ;
#145 = ORIENTED_EDGE ( 'NONE', *, *, #330, .F. ) ;
#146 = ORIENTED_EDGE ( 'NONE', *, *, #870, .T. ) ;
#147 = DIRECTION ( 'NONE',  ( 0.000000000000000000, 0.000000000000000000, 1.000000000000000000 ) ) ;
#148 = EDGE_CURVE ( 'NONE', #667, #359, #859, .T. ) ;
#149 = EDGE_LOOP ( 'NONE', ( #333, #72, #718, #15, #327, #524 ) ) ;
#150 = EDGE_LOOP ( 'NONE', ( #145, #126, #568, #296, #460 ) ) ;
#151 = DIRECTION ( 'NONE',  ( 0.000000000000000000, 0.000000000000000000, -1.000000000000000000 ) ) ;
#152 = CARTESIAN_POINT ( 'NONE',  ( 0.000000000000000000, 0.000000000000000000, 0.000000000000000000 ) ) ;
#153 = ORIENTED_EDGE ( 'NONE', *, *, #753, .F. ) ;
#154 = VERTEX_POINT ( 'NONE', #717 ) ;
#155 = VECTOR ( 'NONE', #256, 1000.000000000000000 ) ;
#156 = EDGE_LOOP ( 'NONE', ( #565, #701, #214, #428, #867 ) ) ;
#157 = AXIS2_PLACEMENT_3D ( 'NONE', #158, #20, #26 ) ;
#158 = CARTESIAN_POINT ( 'NONE',  ( -5.000000000000000000, 384.5000000000000000, 19.50000000000000000 ) ) ;
#159 = LOCAL_TIME ( 17, 50, 25.00000000000000000, #726 ) ;
#160 = PERSON_AND_ORGANIZATION ( #812, #379 ) ;
#161 = CYLINDRICAL_SURFACE ( 'NONE', #392, 1.500000000000000000 ) ;
#162 = VERTEX_POINT ( 'NONE', #800 ) ;
#163 = CARTESIAN_POINT ( 'NONE',  ( 0.000000000000000000, 138.0000000000000000, 40.99999999999997868 ) ) ;
#164 = PRODUCT_DEFINITION ( 'UNKNOWN', '', #749, #806 ) ;
#165 = EDGE_LOOP ( 'NONE', ( #198, #618, #501, #451, #576 ) ) ;
#166 = VERTEX_POINT ( 'NONE', #778 ) ;
#167 = DIRECTION ( 'NONE',  ( 0.000000000000000000, 0.000000000000000000, -1.000000000000000000 ) ) ;
#168 = EDGE_CURVE ( 'NONE', #879, #434, #334, .T. ) ;
#169 = CARTESIAN_POINT ( 'NONE',  ( 0.000000000000000000, 0.000000000000000000, 17.10000000000000142 ) ) ;
#170 = DIRECTION ( 'NONE',  ( 1.000000000000000000, 0.000000000000000000, 0.000000000000000000 ) ) ;
#171 = DIRECTION ( 'NONE',  ( 0.000000000000000000, 0.000000000000000000, -1.000000000000000000 ) ) ;
#172 = ORIENTED_EDGE ( 'NONE', *, *, #539, .F. ) ;
#173 = DIRECTION ( 'NONE',  ( 1.000000000000000000, 0.000000000000000000, 0.000000000000000000 ) ) ;
#174 = AXIS2_PLACEMENT_3D ( 'NONE', #674, #803, #794 ) ;
#175 = CIRCLE ( 'NONE', #286, 1.500000000000000000 ) ;
#176 = CARTESIAN_POINT ( 'NONE',  ( 0.000000000000000000, 0.000000000000000000, 19.50000000000000000 ) ) ;
#177 = ADVANCED_FACE ( 'NONE', ( #184 ), #301, .F. ) ;
#178 = DIRECTION ( 'NONE',  ( 0.000000000000000000, 0.000000000000000000, -1.000000000000000000 ) ) ;
#179 = LINE ( 'NONE', #390, #437 ) ;
#180 = ORIENTED_EDGE ( 'NONE', *, *, #330, .T. ) ;
#181 = DIRECTION ( 'NONE',  ( 0.000000000000000000, -1.000000000000000000, 0.000000000000000000 ) ) ;
#182 = EDGE_CURVE ( 'NONE', #703, #769, #65, .T. ) ;
#183 = LINE ( 'NONE', #455, #155 ) ;
#184 = FACE_OUTER_BOUND ( 'NONE', #438, .T. ) ;
#185 = EDGE_LOOP ( 'NONE', ( #458, #840 ) ) ;
#186 = DIRECTION ( 'NONE',  ( 1.000000000000000000, 0.000000000000000000, 0.000000000000000000 ) ) ;
#187 = DIRECTION ( 'NONE',  ( 0.000000000000000000, 1.000000000000000000, 0.000000000000000000 ) ) ;
#188 = CARTESIAN_POINT ( 'NONE',  ( 0.000000000000000000, 386.1999999999999886, 25.79858701345978744 ) ) ;
#189 = TOROIDAL_SURFACE ( 'NONE', #558, 8.000000000000035527, 1.500000000000000000 ) ;
#190 = VECTOR ( 'NONE', #597, 1000.000000000000000 ) ;
#191 = LINE ( 'NONE', #129, #675 ) ;
#192 = DIRECTION ( 'NONE',  ( 0.000000000000000000, 1.000000000000000000, 0.000000000000000000 ) ) ;
#193 = DIRECTION ( 'NONE',  ( 0.000000000000000000, 1.000000000000000000, 0.000000000000000000 ) ) ;
#194 = EDGE_LOOP ( 'NONE', ( #238, #30, #351, #1, #218 ) ) ;
#195 = EDGE_CURVE ( 'NONE', #838, #860, #199, .T. ) ;
#196 = DIRECTION ( 'NONE',  ( 0.000000000000000000, 0.000000000000000000, -1.000000000000000000 ) ) ;
#197 = DIRECTION ( 'NONE',  ( -1.000000000000000000, 0.000000000000000000, 0.000000000000000000 ) ) ;
#198 = ORIENTED_EDGE ( 'NONE', *, *, #479, .T. ) ;
#199 = CIRCLE ( 'NONE', #115, 1.500000000000000000 ) ;
#200 = CIRCLE ( 'NONE', #6, 1.500000000000000444 ) ;
#201 = DIRECTION ( 'NONE',  ( 0.000000000000000000, 0.000000000000000000, -1.000000000000000000 ) ) ;
#202 = LINE ( 'NONE', #552, #424 ) ;
#203 = LOCAL_TIME ( 17, 50, 25.00000000000000000, #640 ) ;
#204 = EDGE_CURVE ( 'NONE', #75, #703, #348, .T. ) ;
#205 = FACE_OUTER_BOUND ( 'NONE', #219, .T. ) ;
#206 = EDGE_CURVE ( 'NONE', #59, #642, #179, .T. ) ;
#207 = CARTESIAN_POINT ( 'NONE',  ( 0.000000000000000000, 138.0000000000000000, 39.49999999999997868 ) ) ;
#208 = ORIENTED_EDGE ( 'NONE', *, *, #530, .T. ) ;
#209 = VERTEX_POINT ( 'NONE', #602 ) ;
#210 = EDGE_CURVE ( 'NONE', #376, #848, #862, .T. ) ;
#211 = APPROVAL_ROLE ( '' ) ;
#212 = AXIS2_PLACEMENT_3D ( 'NONE', #889, #607, #196 ) ;
#213 = CIRCLE ( 'NONE', #395, 4.500000000000031974 ) ;
#214 = ORIENTED_EDGE ( 'NONE', *, *, #195, .F. ) ;
#215 = ORIENTED_EDGE ( 'NONE', *, *, #856, .F. ) ;
#216 = CARTESIAN_POINT ( 'NONE',  ( -5.000000000000000000, 384.5000000000000000, 19.50000000000000000 ) ) ;
#217 = ADVANCED_FACE ( 'NONE', ( #847 ), #307, .T. ) ;
#218 = ORIENTED_EDGE ( 'NONE', *, *, #831, .F. ) ;
#219 = EDGE_LOOP ( 'NONE', ( #450, #364, #901, #222 ) ) ;
#220 = CARTESIAN_POINT ( 'NONE',  ( 0.000000000000000000, 368.8910689958312332, 39.49999999999997868 ) ) ;
#221 = DATE_AND_TIME ( #645, #41 ) ;
#222 = ORIENTED_EDGE ( 'NONE', *, *, #728, .F. ) ;
#223 = LINE ( 'NONE', #705, #190 ) ;
#224 = ORIENTED_EDGE ( 'NONE', *, *, #417, .T. ) ;
#225 = AXIS2_PLACEMENT_3D ( 'NONE', #881, #324, #329 ) ;
#226 = ORIENTED_EDGE ( 'NONE', *, *, #496, .F. ) ;
#227 = AXIS2_PLACEMENT_3D ( 'NONE', #346, #894, #834 ) ;
#228 = DIRECTION ( 'NONE',  ( 0.000000000000000000, -1.000000000000000000, 0.000000000000000000 ) ) ;
#229 =( GEOMETRIC_REPRESENTATION_CONTEXT ( 3 ) GLOBAL_UNCERTAINTY_ASSIGNED_CONTEXT ( ( #46 ) ) GLOBAL_UNIT_ASSIGNED_CONTEXT ( ( #143, #70, #425 ) ) REPRESENTATION_CONTEXT ( 'NONE', 'WORKASPACE' ) );
#230 = DIRECTION ( 'NONE',  ( 0.000000000000000000, 0.000000000000000000, 1.000000000000000000 ) ) ;
#231 = CARTESIAN_POINT ( 'NONE',  ( 0.000000000000000000, 386.1999999999999886, 19.50000000000000000 ) ) ;
#232 = ORIENTED_EDGE ( 'NONE', *, *, #148, .F. ) ;
#233 = EDGE_CURVE ( 'NONE', #838, #796, #332, .T. ) ;
#234 = DIRECTION ( 'NONE',  ( 0.000000000000000000, -0.6752540671893716429, -0.7375852118529842016 ) ) ;
#235 = SHAPE_DEFINITION_REPRESENTATION ( #821, #421 ) ;
#236 = ORIENTED_EDGE ( 'NONE', *, *, #505, .F. ) ;
#237 = DIRECTION ( 'NONE',  ( 1.000000000000000000, 0.000000000000000000, 0.000000000000000000 ) ) ;
#238 = ORIENTED_EDGE ( 'NONE', *, *, #875, .F. ) ;
#239 = CARTESIAN_POINT ( 'NONE',  ( -5.000000000000000000, 384.5000000000000000, 17.10000000000000142 ) ) ;
#240 = APPROVAL_ROLE ( '' ) ;
#241 = PRODUCT_RELATED_PRODUCT_CATEGORY ( 'detail', '', ( #419 ) ) ;
#242 = FACE_OUTER_BOUND ( 'NONE', #635, .T. ) ;
#243 = CARTESIAN_POINT ( 'NONE',  ( -9.499999999999998224, 132.0000000000000000, 6.500000000000000000 ) ) ;
#244 = CARTESIAN_POINT ( 'NONE',  ( -5.000000000000000000, 384.5000000000000000, 19.50000000000000000 ) ) ;
#245 = VERTEX_POINT ( 'NONE', #872 ) ;
#246 = CARTESIAN_POINT ( 'NONE',  ( -5.000000000000000000, 384.5000000000000000, 19.50000000000000000 ) ) ;
#247 = CIRCLE ( 'NONE', #174, 3.500000000000003109 ) ;
#248 = AXIS2_PLACEMENT_3D ( 'NONE', #715, #783, #167 ) ;
#249 = EDGE_CURVE ( 'NONE', #209, #629, #828, .T. ) ;
#250 = CARTESIAN_POINT ( 'NONE',  ( 0.000000000000000000, 383.5633892351626741, 28.38013525494525169 ) ) ;
#251 = VERTEX_POINT ( 'NONE', #745 ) ;
#252 = DIRECTION ( 'NONE',  ( 0.000000000000000000, 0.000000000000000000, -1.000000000000000000 ) ) ;
#253 = LINE ( 'NONE', #312, #497 ) ;
#254 = DIRECTION ( 'NONE',  ( 0.000000000000000000, -1.000000000000000000, 0.000000000000000000 ) ) ;
#255 = CARTESIAN_POINT ( 'NONE',  ( -12.49999999999999645, 108.5000000000000142, 4.999999999999999112 ) ) ;
#256 = DIRECTION ( 'NONE',  ( 0.000000000000000000, 1.000000000000000000, 0.000000000000000000 ) ) ;
#257 = CYLINDRICAL_SURFACE ( 'NONE', #757, 1.500000000000001332 ) ;
#258 = AXIS2_PLACEMENT_3D ( 'NONE', #317, #647, #660 ) ;
#259 = CIRCLE ( 'NONE', #638, 6.500000000000033751 ) ;
#260 = AXIS2_PLACEMENT_3D ( 'NONE', #809, #192, #474 ) ;
#261 = CIRCLE ( 'NONE', #761, 1.500000000000000000 ) ;
#262 = AXIS2_PLACEMENT_3D ( 'NONE', #737, #119, #409 ) ;
#263 = DIRECTION ( 'NONE',  ( 1.000000000000000000, 0.000000000000000000, 0.000000000000000000 ) ) ;
#264 = CARTESIAN_POINT ( 'NONE',  ( -12.49999999999999645, 129.0000000000000000, 8.000000000000000000 ) ) ;
#265 = CARTESIAN_POINT ( 'NONE',  ( 0.000000000000000000, 138.0000000000000000, 35.00000000000000000 ) ) ;
#266 = EDGE_CURVE ( 'NONE', #251, #282, #416, .T. ) ;
#267 = CARTESIAN_POINT ( 'NONE',  ( 0.000000000000000000, 132.0000000000000000, 35.00000000000000000 ) ) ;
#268 = DIRECTION ( 'NONE',  ( 0.000000000000000000, 0.000000000000000000, 1.000000000000000000 ) ) ;
#269 = CYLINDRICAL_SURFACE ( 'NONE', #53, 1.500000000000000444 ) ;
#270 = DIRECTION ( 'NONE',  ( 0.000000000000000000, 0.000000000000000000, 1.000000000000000000 ) ) ;
#271 = CLOSED_SHELL ( 'NONE', ( #343, #570, #697, #315, #120, #542, #657, #109, #273, #747, #11, #628, #672, #509, #177, #81, #45, #31, #836, #340, #892, #217, #790, #817, #699, #593, #100, #491, #122 ) ) ;
#272 = VECTOR ( 'NONE', #523, 1000.000000000000000 ) ;
#273 = ADVANCED_FACE ( 'NONE', ( #407 ), #734, .T. ) ;
#274 = VECTOR ( 'NONE', #385, 1000.000000000000000 ) ;
#275 = CARTESIAN_POINT ( 'NONE',  ( -2.999999999999999556, 132.0000000000000000, 9.500000000000000000 ) ) ;
#276 = CC_DESIGN_APPROVAL ( #435, ( #641 ) ) ;
#277 = LINE ( 'NONE', #488, #560 ) ;
#278 = ORIENTED_EDGE ( 'NONE', *, *, #554, .T. ) ;
#279 = ORIENTED_EDGE ( 'NONE', *, *, #233, .F. ) ;
#280 = CC_DESIGN_DATE_AND_TIME_ASSIGNMENT ( #904, #281, ( #641 ) ) ;
#281 = DATE_TIME_ROLE ( 'classification_date' ) ;
#282 = VERTEX_POINT ( 'NONE', #547 ) ;
#283 = EDGE_CURVE ( 'NONE', #300, #162, #326, .T. ) ;
#284 = AXIS2_PLACEMENT_3D ( 'NONE', #117, #679, #24 ) ;
#285 = ORIENTED_EDGE ( 'NONE', *, *, #711, .F. ) ;
#286 = AXIS2_PLACEMENT_3D ( 'NONE', #719, #842, #292 ) ;
#287 = EDGE_LOOP ( 'NONE', ( #489, #556, #9, #805 ) ) ;
#288 = DIRECTION ( 'NONE',  ( 0.000000000000000000, 0.000000000000000000, 1.000000000000000000 ) ) ;
#289 = APPROVAL_STATUS ( 'not_yet_approved' ) ;
#290 = VERTEX_POINT ( 'NONE', #544 ) ;
#291 = ORIENTED_EDGE ( 'NONE', *, *, #310, .F. ) ;
#292 = DIRECTION ( 'NONE',  ( 1.000000000000000000, 0.000000000000000000, 0.000000000000000000 ) ) ;
#293 = PERSON_AND_ORGANIZATION_ROLE ( 'design_supplier' ) ;
#294 = ORIENTED_EDGE ( 'NONE', *, *, #810, .F. ) ;
#295 = DIRECTION ( 'NONE',  ( 1.000000000000000000, 0.000000000000000000, 0.000000000000000000 ) ) ;
#296 = ORIENTED_EDGE ( 'NONE', *, *, #496, .T. ) ;
#297 = CARTESIAN_POINT ( 'NONE',  ( 1.836970198721029934E-16, 368.8910689958312332, 42.49999999999998579 ) ) ;
#298 = PERSON_AND_ORGANIZATION ( #812, #379 ) ;
#299 = EDGE_CURVE ( 'NONE', #519, #367, #79, .T. ) ;
#300 = VERTEX_POINT ( 'NONE', #264 ) ;
#301 = PLANE ( 'NONE',  #656 ) ;
#302 = AXIS2_PLACEMENT_3D ( 'NONE', #869, #187, #171 ) ;
#303 = EDGE_LOOP ( 'NONE', ( #431, #180, #308, #512, #350 ) ) ;
#304 = AXIS2_PLACEMENT_3D ( 'NONE', #668, #443, #849 ) ;
#305 = CARTESIAN_POINT ( 'NONE',  ( -1.500000000000000000, 132.0000000000000000, 35.00000000000000000 ) ) ;
#306 = CARTESIAN_POINT ( 'NONE',  ( -2.999999999999999112, 132.0000000000000000, 6.500000000000000000 ) ) ;
#307 = CYLINDRICAL_SURFACE ( 'NONE', #773, 1.500000000000016875 ) ;
#308 = ORIENTED_EDGE ( 'NONE', *, *, #299, .T. ) ;
#309 = DIRECTION ( 'NONE',  ( 1.000000000000000000, 0.000000000000000000, 0.000000000000000000 ) ) ;
#310 = EDGE_CURVE ( 'NONE', #376, #769, #202, .T. ) ;
#311 = FACE_OUTER_BOUND ( 'NONE', #27, .T. ) ;
#312 = CARTESIAN_POINT ( 'NONE',  ( 5.000000000000000000, 388.0000000000000000, 19.50000000000000000 ) ) ;
#313 = CARTESIAN_POINT ( 'NONE',  ( 0.000000000000000000, 132.0000000000000000, 35.00000000000000000 ) ) ;
#314 = DIRECTION ( 'NONE',  ( -1.000000000000000000, 0.000000000000000000, 0.000000000000000000 ) ) ;
#315 = ADVANCED_FACE ( 'NONE', ( #487 ), #189, .T. ) ;
#316 = ORIENTED_EDGE ( 'NONE', *, *, #233, .T. ) ;
#317 = CARTESIAN_POINT ( 'NONE',  ( -9.499999999999998224, 132.0000000000000000, 6.500000000000000000 ) ) ;
#318 = DIRECTION ( 'NONE',  ( 0.000000000000000000, 0.000000000000000000, -1.000000000000000000 ) ) ;
#319 = DIRECTION ( 'NONE',  ( 0.000000000000000000, 0.000000000000000000, -1.000000000000000000 ) ) ;
#320 = ORIENTED_EDGE ( 'NONE', *, *, #634, .F. ) ;
#321 = VECTOR ( 'NONE', #132, 1000.000000000000000 ) ;
#322 = AXIS2_PLACEMENT_3D ( 'NONE', #275, #890, #331 ) ;
#323 = AXIS2_PLACEMENT_3D ( 'NONE', #345, #826, #63 ) ;
#324 = DIRECTION ( 'NONE',  ( 0.000000000000000000, 0.000000000000000000, -1.000000000000000000 ) ) ;
#325 = LINE ( 'NONE', #527, #684 ) ;
#326 = LINE ( 'NONE', #621, #483 ) ;
#327 = ORIENTED_EDGE ( 'NONE', *, *, #831, .T. ) ;
#328 = CARTESIAN_POINT ( 'NONE',  ( -9.499999999999998224, 133.5000000000000000, 6.500000000000000000 ) ) ;
#329 = DIRECTION ( 'NONE',  ( -1.000000000000000000, 0.000000000000000000, 0.000000000000000000 ) ) ;
#330 = EDGE_CURVE ( 'NONE', #154, #519, #398, .T. ) ;
#331 = DIRECTION ( 'NONE',  ( 0.000000000000000000, 0.000000000000000000, 1.000000000000000000 ) ) ;
#332 = LINE ( 'NONE', #56, #321 ) ;
#333 = ORIENTED_EDGE ( 'NONE', *, *, #69, .F. ) ;
#334 = CIRCLE ( 'NONE', #137, 1.500000000000000000 ) ;
#335 = AXIS2_PLACEMENT_3D ( 'NONE', #83, #360, #234 ) ;
#336 = AXIS2_PLACEMENT_3D ( 'NONE', #352, #845, #825 ) ;
#337 = DIRECTION ( 'NONE',  ( 0.000000000000000000, 0.000000000000000000, -1.000000000000000000 ) ) ;
#338 = CARTESIAN_POINT ( 'NONE',  ( 0.000000000000000000, 130.5000000000000000, 35.00000000000000000 ) ) ;
#339 = ORIENTED_EDGE ( 'NONE', *, *, #850, .F. ) ;
#340 = ADVANCED_FACE ( 'NONE', ( #877 ), #257, .T. ) ;
#341 = DIRECTION ( 'NONE',  ( 1.000000000000000000, 0.000000000000000000, 0.000000000000000000 ) ) ;
#342 = DIRECTION ( 'NONE',  ( 0.000000000000000000, 0.000000000000000000, -1.000000000000000000 ) ) ;
#343 = ADVANCED_FACE ( 'NONE', ( #852 ), #584, .T. ) ;
#344 = PLANE ( 'NONE',  #685 ) ;
#345 = CARTESIAN_POINT ( 'NONE',  ( 0.000000000000000000, 384.5762703359467878, 29.48651307272476174 ) ) ;
#346 = CARTESIAN_POINT ( 'NONE',  ( 0.000000000000000000, 381.1999999999999886, 25.79858701345978744 ) ) ;
#347 = CIRCLE ( 'NONE', #514, 4.500000000000003553 ) ;
#348 = CIRCLE ( 'NONE', #357, 1.500000000000000000 ) ;
#349 = CIRCLE ( 'NONE', #138, 1.500000000000000000 ) ;
#350 = ORIENTED_EDGE ( 'NONE', *, *, #449, .F. ) ;
#351 = ORIENTED_EDGE ( 'NONE', *, *, #429, .T. ) ;
#352 = CARTESIAN_POINT ( 'NONE',  ( 0.000000000000000000, 138.0000000000000000, 35.00000000000000000 ) ) ;
#353 = ORIENTED_EDGE ( 'NONE', *, *, #563, .F. ) ;
#354 = EDGE_CURVE ( 'NONE', #777, #648, #843, .T. ) ;
#355 = ORIENTED_EDGE ( 'NONE', *, *, #723, .F. ) ;
#356 = DIRECTION ( 'NONE',  ( 0.000000000000000000, 0.000000000000000000, -1.000000000000000000 ) ) ;
#357 = AXIS2_PLACEMENT_3D ( 'NONE', #795, #662, #535 ) ;
#358 = CIRCLE ( 'NONE', #863, 1.500000000000000000 ) ;
#359 = VERTEX_POINT ( 'NONE', #808 ) ;
#360 = DIRECTION ( 'NONE',  ( 0.000000000000000000, -0.7375852118529923063, 0.6752540671893628721 ) ) ;
#361 = EDGE_CURVE ( 'NONE', #380, #692, #880, .T. ) ;
#362 = DATE_AND_TIME ( #85, #130 ) ;
#363 = DIRECTION ( 'NONE',  ( -1.000000000000000000, 0.000000000000000000, 0.000000000000000000 ) ) ;
#364 = ORIENTED_EDGE ( 'NONE', *, *, #168, .T. ) ;
#365 = LINE ( 'NONE', #239, #413 ) ;
#366 = EDGE_CURVE ( 'NONE', #112, #251, #183, .T. ) ;
#367 = VERTEX_POINT ( 'NONE', #328 ) ;
#368 = DIRECTION ( 'NONE',  ( 1.000000000000000000, 0.000000000000000000, 0.000000000000000000 ) ) ;
#369 = ORIENTED_EDGE ( 'NONE', *, *, #689, .T. ) ;
#370 = LINE ( 'NONE', #220, #128 ) ;
#371 = AXIS2_PLACEMENT_3D ( 'NONE', #231, #111, #14 ) ;
#372 = FACE_OUTER_BOUND ( 'NONE', #633, .T. ) ;
#373 = CARTESIAN_POINT ( 'NONE',  ( -9.500000000000001776, 129.0000000000000000, 6.500000000000000000 ) ) ;
#374 = DIRECTION ( 'NONE',  ( 1.000000000000000000, 0.000000000000000000, 0.000000000000000000 ) ) ;
#375 = AXIS2_PLACEMENT_3D ( 'NONE', #267, #337, #263 ) ;
#376 = VERTEX_POINT ( 'NONE', #866 ) ;
#377 = AXIS2_PLACEMENT_3D ( 'NONE', #664, #91, #644 ) ;
#378 = DIRECTION ( 'NONE',  ( 0.000000000000000000, -1.000000000000000000, 0.000000000000000000 ) ) ;
#379 = ORGANIZATION ( 'UNSPECIFIED', 'UNSPECIFIED', '' ) ;
#380 = VERTEX_POINT ( 'NONE', #250 ) ;
#381 = EDGE_CURVE ( 'NONE', #434, #851, #259, .T. ) ;
#382 = DIRECTION ( 'NONE',  ( 0.000000000000000000, 0.000000000000000000, -1.000000000000000000 ) ) ;
#383 = DIRECTION ( 'NONE',  ( 0.000000000000000000, -0.000000000000000000, -1.000000000000000000 ) ) ;
#384 = ORIENTED_EDGE ( 'NONE', *, *, #206, .F. ) ;
#385 = DIRECTION ( 'NONE',  ( -0.000000000000000000, -1.000000000000000000, -0.000000000000000000 ) ) ;
#386 = ORIENTED_EDGE ( 'NONE', *, *, #551, .F. ) ;
#387 = DIRECTION ( 'NONE',  ( -1.000000000000000000, 0.000000000000000000, 0.000000000000000000 ) ) ;
#388 = LINE ( 'NONE', #246, #604 ) ;
#389 = CARTESIAN_POINT ( 'NONE',  ( -12.49999999999999645, 108.5000000000000142, 6.500000000000000000 ) ) ;
#390 = CARTESIAN_POINT ( 'NONE',  ( -1.500000000000000000, 132.0000000000000000, 35.00000000000000000 ) ) ;
#391 = ORIENTED_EDGE ( 'NONE', *, *, #888, .T. ) ;
#392 = AXIS2_PLACEMENT_3D ( 'NONE', #17, #445, #363 ) ;
#393 = DIRECTION ( 'NONE',  ( 0.000000000000000000, 1.000000000000000000, 0.000000000000000000 ) ) ;
#394 = AXIS2_PLACEMENT_3D ( 'NONE', #819, #742, #883 ) ;
#395 = AXIS2_PLACEMENT_3D ( 'NONE', #96, #309, #151 ) ;
#396 = EDGE_CURVE ( 'NONE', #841, #162, #599, .T. ) ;
#397 = DIRECTION ( 'NONE',  ( 0.000000000000000000, 0.000000000000000000, 1.000000000000000000 ) ) ;
#398 = LINE ( 'NONE', #44, #759 ) ;
#399 = FACE_OUTER_BOUND ( 'NONE', #646, .T. ) ;
#400 = EDGE_CURVE ( 'NONE', #667, #251, #253, .T. ) ;
#401 = CARTESIAN_POINT ( 'NONE',  ( -9.499999999999998224, 132.0000000000000000, 4.999999999999999112 ) ) ;
#402 = CARTESIAN_POINT ( 'NONE',  ( -5.000000000000000000, 388.0000000000000000, 17.10000000000000142 ) ) ;
#403 = DIRECTION ( 'NONE',  ( 0.000000000000000000, 0.000000000000000000, 1.000000000000000000 ) ) ;
#404 = ORIENTED_EDGE ( 'NONE', *, *, #740, .F. ) ;
#405 = DIRECTION ( 'NONE',  ( -0.000000000000000000, -0.000000000000000000, -1.000000000000000000 ) ) ;
#406 = CARTESIAN_POINT ( 'NONE',  ( 5.000000000000000000, 384.5000000000000000, 19.50000000000000000 ) ) ;
#407 = FACE_OUTER_BOUND ( 'NONE', #19, .T. ) ;
#408 = APPROVAL ( #575, 'UNSPECIFIED' ) ;
#409 = DIRECTION ( 'NONE',  ( 1.000000000000000000, 0.000000000000000000, 0.000000000000000000 ) ) ;
#410 = AXIS2_PLACEMENT_3D ( 'NONE', #169, #595, #846 ) ;
#411 = ORIENTED_EDGE ( 'NONE', *, *, #135, .T. ) ;
#412 = AXIS2_PLACEMENT_3D ( 'NONE', #731, #473, #671 ) ;
#413 = VECTOR ( 'NONE', #525, 1000.000000000000000 ) ;
#414 = AXIS2_PLACEMENT_3D ( 'NONE', #58, #403, #186 ) ;
#415 = DIRECTION ( 'NONE',  ( 0.000000000000000000, -0.7375852118529921952, 0.6752540671893628721 ) ) ;
#416 = LINE ( 'NONE', #402, #548 ) ;
#417 = EDGE_CURVE ( 'NONE', #879, #77, #97, .T. ) ;
#418 = LINE ( 'NONE', #882, #498 ) ;
#419 = PRODUCT ( 'Harness - GPS Cable', 'Harness - GPS Cable', '', ( #650 ) ) ;
#420 = CARTESIAN_POINT ( 'NONE',  ( -1.500000000000000000, 132.0000000000000000, 9.500000000000000000 ) ) ;
#421 = ADVANCED_BREP_SHAPE_REPRESENTATION ( 'Harness - GPS Cable', ( #485, #616 ), #229 ) ;
#422 = ORIENTED_EDGE ( 'NONE', *, *, #691, .T. ) ;
#423 = CIRCLE ( 'NONE', #258, 1.500000000000000444 ) ;
#424 = VECTOR ( 'NONE', #268, 1000.000000000000000 ) ;
#425 =( NAMED_UNIT ( * ) SI_UNIT ( $, .STERADIAN. ) SOLID_ANGLE_UNIT ( ) );
#426 = AXIS2_PLACEMENT_3D ( 'NONE', #477, #557, #341 ) ;
#427 = ORIENTED_EDGE ( 'NONE', *, *, #683, .F. ) ;
#428 = ORIENTED_EDGE ( 'NONE', *, *, #636, .F. ) ;
#429 = EDGE_CURVE ( 'NONE', #162, #841, #720, .T. ) ;
#430 = APPROVAL_DATE_TIME ( #362, #770 ) ;
#431 = ORIENTED_EDGE ( 'NONE', *, *, #475, .F. ) ;
#432 = ORIENTED_EDGE ( 'NONE', *, *, #564, .T. ) ;
#433 = DATE_TIME_ROLE ( 'creation_date' ) ;
#434 = VERTEX_POINT ( 'NONE', #543 ) ;
#435 = APPROVAL ( #22, 'UNSPECIFIED' ) ;
#436 = CARTESIAN_POINT ( 'NONE',  ( 0.000000000000000000, 386.1999999999999886, 25.79858701345978744 ) ) ;
#437 = VECTOR ( 'NONE', #319, 1000.000000000000000 ) ;
#438 = EDGE_LOOP ( 'NONE', ( #902, #427, #232, #74 ) ) ;
#439 = AXIS2_PLACEMENT_3D ( 'NONE', #216, #626, #630 ) ;
#440 = ORIENTED_EDGE ( 'NONE', *, *, #728, .T. ) ;
#441 = ORIENTED_EDGE ( 'NONE', *, *, #76, .T. ) ;
#442 = EDGE_CURVE ( 'NONE', #703, #380, #247, .T. ) ;
#443 = DIRECTION ( 'NONE',  ( 1.000000000000000000, 0.000000000000000000, 0.000000000000000000 ) ) ;
#444 = PERSON_AND_ORGANIZATION_ROLE ( 'classification_officer' ) ;
#445 = DIRECTION ( 'NONE',  ( 0.000000000000000000, 0.000000000000000000, -1.000000000000000000 ) ) ;
#446 = ORIENTED_EDGE ( 'NONE', *, *, #888, .F. ) ;
#447 = FACE_OUTER_BOUND ( 'NONE', #693, .T. ) ;
#448 = DATE_AND_TIME ( #655, #159 ) ;
#449 = EDGE_CURVE ( 'NONE', #245, #608, #325, .T. ) ;
#450 = ORIENTED_EDGE ( 'NONE', *, *, #417, .F. ) ;
#451 = ORIENTED_EDGE ( 'NONE', *, *, #442, .F. ) ;
#452 = FACE_OUTER_BOUND ( 'NONE', #767, .T. ) ;
#453 = AXIS2_PLACEMENT_3D ( 'NONE', #389, #729, #382 ) ;
#454 = CARTESIAN_POINT ( 'NONE',  ( -5.000000000000000000, 384.5000000000000000, 19.50000000000000000 ) ) ;
#455 = CARTESIAN_POINT ( 'NONE',  ( 5.000000000000000000, 384.5000000000000000, 17.10000000000000142 ) ) ;
#456 = LINE ( 'NONE', #244, #732 ) ;
#457 = CIRCLE ( 'NONE', #844, 1.500000000000000000 ) ;
#458 = ORIENTED_EDGE ( 'NONE', *, *, #396, .F. ) ;
#459 = CYLINDRICAL_SURFACE ( 'NONE', #658, 1.500000000000000444 ) ;
#460 = ORIENTED_EDGE ( 'NONE', *, *, #57, .T. ) ;
#461 = DIRECTION ( 'NONE',  ( -0.000000000000000000, -0.000000000000000000, -1.000000000000000000 ) ) ;
#462 = CYLINDRICAL_SURFACE ( 'NONE', #225, 1.500000000000000000 ) ;
#463 = CARTESIAN_POINT ( 'NONE',  ( 0.000000000000000000, 368.8910689958312332, 33.00000000000000000 ) ) ;
#464 = ORIENTED_EDGE ( 'NONE', *, *, #564, .F. ) ;
#465 = CC_DESIGN_PERSON_AND_ORGANIZATION_ASSIGNMENT ( #160, #444, ( #641 ) ) ;
#466 = DIRECTION ( 'NONE',  ( 0.000000000000000000, -1.000000000000000000, 0.000000000000000000 ) ) ;
#467 = DIRECTION ( 'NONE',  ( 1.000000000000000000, 0.000000000000000000, 0.000000000000000000 ) ) ;
#468 = AXIS2_PLACEMENT_3D ( 'NONE', #110, #661, #799 ) ;
#469 = EDGE_CURVE ( 'NONE', #245, #154, #694, .T. ) ;
#470 = AXIS2_PLACEMENT_3D ( 'NONE', #243, #534, #178 ) ;
#471 = APPROVAL_PERSON_ORGANIZATION ( #298, #770, #211 ) ;
#472 = DIRECTION ( 'NONE',  ( -1.000000000000000000, 0.000000000000000000, -0.000000000000000000 ) ) ;
#473 = DIRECTION ( 'NONE',  ( 0.000000000000000000, -1.000000000000000000, 0.000000000000000000 ) ) ;
#474 = DIRECTION ( 'NONE',  ( 0.000000000000000000, 0.000000000000000000, -1.000000000000000000 ) ) ;
#475 = EDGE_CURVE ( 'NONE', #154, #245, #673, .T. ) ;
#476 = DIRECTION ( 'NONE',  ( 0.000000000000000000, 0.000000000000000000, -1.000000000000000000 ) ) ;
#477 = CARTESIAN_POINT ( 'NONE',  ( 0.000000000000000000, 132.0000000000000000, 9.500000000000000000 ) ) ;
#478 = EDGE_LOOP ( 'NONE', ( #580, #854, #25, #441, #90 ) ) ;
#479 = EDGE_CURVE ( 'NONE', #769, #166, #127, .T. ) ;
#480 = FACE_OUTER_BOUND ( 'NONE', #185, .T. ) ;
#481 = DIRECTION ( 'NONE',  ( 0.000000000000000000, 1.000000000000000000, 0.000000000000000000 ) ) ;
#482 = DIRECTION ( 'NONE',  ( 0.000000000000000000, -0.6752540671893716429, -0.7375852118529842016 ) ) ;
#483 = VECTOR ( 'NONE', #254, 1000.000000000000000 ) ;
#484 = AXIS2_PLACEMENT_3D ( 'NONE', #739, #878, #113 ) ;
#485 = MANIFOLD_SOLID_BREP ( 'Sweep7', #271 ) ;
#486 = DIRECTION ( 'NONE',  ( 0.000000000000000000, 0.000000000000000000, -1.000000000000000000 ) ) ;
#487 = FACE_OUTER_BOUND ( 'NONE', #518, .T. ) ;
#488 = CARTESIAN_POINT ( 'NONE',  ( -1.500000000000000000, 386.1999999999999886, 19.50000000000000000 ) ) ;
#489 = ORIENTED_EDGE ( 'NONE', *, *, #366, .T. ) ;
#490 = CYLINDRICAL_SURFACE ( 'NONE', #639, 1.500000000000000444 ) ;
#491 = ADVANCED_FACE ( 'NONE', ( #546 ), #706, .T. ) ;
#492 = COORDINATED_UNIVERSAL_TIME_OFFSET ( 12, 0, .AHEAD. ) ;
#493 = ORIENTED_EDGE ( 'NONE', *, *, #780, .F. ) ;
#494 = VERTEX_POINT ( 'NONE', #858 ) ;
#495 = CARTESIAN_POINT ( 'NONE',  ( -9.499999999999998224, 132.0000000000000000, 8.000000000000000000 ) ) ;
#496 = EDGE_CURVE ( 'NONE', #608, #494, #707, .T. ) ;
#497 = VECTOR ( 'NONE', #461, 1000.000000000000000 ) ;
#498 = VECTOR ( 'NONE', #555, 1000.000000000000114 ) ;
#499 = DIRECTION ( 'NONE',  ( 1.000000000000000000, 0.000000000000000000, 0.000000000000000000 ) ) ;
#500 = TOROIDAL_SURFACE ( 'NONE', #99, 8.000000000000035527, 1.500000000000000000 ) ;
#501 = ORIENTED_EDGE ( 'NONE', *, *, #361, .F. ) ;
#502 = DIRECTION ( 'NONE',  ( 0.000000000000000000, 0.000000000000000000, 1.000000000000000000 ) ) ;
#503 = PERSON_AND_ORGANIZATION ( #812, #379 ) ;
#504 = EDGE_LOOP ( 'NONE', ( #653, #632, #422, #829, #816 ) ) ;
#505 = EDGE_CURVE ( 'NONE', #796, #154, #21, .T. ) ;
#506 = ORIENTED_EDGE ( 'NONE', *, *, #751, .F. ) ;
#507 = CARTESIAN_POINT ( 'NONE',  ( 1.836970198721029934E-16, 385.5891514367308446, 30.59289089050427179 ) ) ;
#508 = PERSON_AND_ORGANIZATION ( #812, #379 ) ;
#509 = ADVANCED_FACE ( 'NONE', ( #815 ), #344, .F. ) ;
#510 = ORIENTED_EDGE ( 'NONE', *, *, #210, .T. ) ;
#511 = VERTEX_POINT ( 'NONE', #49 ) ;
#512 = ORIENTED_EDGE ( 'NONE', *, *, #740, .T. ) ;
#513 = CARTESIAN_POINT ( 'NONE',  ( -1.836970198721028208E-16, 384.6999999999999886, 25.79858701345978744 ) ) ;
#514 = AXIS2_PLACEMENT_3D ( 'NONE', #89, #230, #722 ) ;
#515 = APPLICATION_PROTOCOL_DEFINITION ( 'international standard', 'config_control_design', 1994, #134 ) ;
#516 = AXIS2_PLACEMENT_3D ( 'NONE', #62, #891, #342 ) ;
#517 = TOROIDAL_SURFACE ( 'NONE', #322, 3.000000000000000000, 1.500000000000000000 ) ;
#518 = EDGE_LOOP ( 'NONE', ( #581, #224, #464, #95 ) ) ;
#519 = VERTEX_POINT ( 'NONE', #401 ) ;
#520 = CARTESIAN_POINT ( 'NONE',  ( -5.000000000000000000, 384.5000000000000000, 19.50000000000000000 ) ) ;
#521 = PERSON_AND_ORGANIZATION ( #812, #379 ) ;
#522 = FACE_BOUND ( 'NONE', #537, .T. ) ;
#523 = DIRECTION ( 'NONE',  ( -1.000000000000000000, -0.000000000000000000, -0.000000000000000000 ) ) ;
#524 = ORIENTED_EDGE ( 'NONE', *, *, #249, .T. ) ;
#525 = DIRECTION ( 'NONE',  ( 1.000000000000000000, 0.000000000000000000, 0.000000000000000000 ) ) ;
#526 = PLANE ( 'NONE',  #2 ) ;
#527 = CARTESIAN_POINT ( 'NONE',  ( -2.999999999999999112, 132.0000000000000000, 8.000000000000000000 ) ) ;
#528 = EDGE_LOOP ( 'NONE', ( #369, #716, #837, #33 ) ) ;
#529 = CARTESIAN_POINT ( 'NONE',  ( 1.500000000000000000, 132.0000000000000000, 9.500000000000000000 ) ) ;
#530 = EDGE_CURVE ( 'NONE', #59, #290, #884, .T. ) ;
#531 = VECTOR ( 'NONE', #857, 1000.000000000000000 ) ;
#532 = AXIS2_PLACEMENT_3D ( 'NONE', #596, #93, #871 ) ;
#533 = DIRECTION ( 'NONE',  ( 1.000000000000000000, 0.000000000000000000, 0.000000000000000000 ) ) ;
#534 = DIRECTION ( 'NONE',  ( 1.000000000000000000, 0.000000000000000000, 0.000000000000000000 ) ) ;
#535 = DIRECTION ( 'NONE',  ( 1.000000000000000000, 0.000000000000000000, 0.000000000000000000 ) ) ;
#536 = TOROIDAL_SURFACE ( 'NONE', #248, 5.000000000000004441, 1.500000000000000000 ) ;
#537 = EDGE_LOOP ( 'NONE', ( #676, #386 ) ) ;
#538 = CARTESIAN_POINT ( 'NONE',  ( 5.000000000000000000, 384.5000000000000000, 19.50000000000000000 ) ) ;
#539 = EDGE_CURVE ( 'NONE', #642, #796, #774, .T. ) ;
#540 = DIRECTION ( 'NONE',  ( 1.000000000000000000, 0.000000000000000000, 0.000000000000000000 ) ) ;
#541 = ORIENTED_EDGE ( 'NONE', *, *, #354, .F. ) ;
#542 = ADVANCED_FACE ( 'NONE', ( #813 ), #269, .T. ) ;
#543 = CARTESIAN_POINT ( 'NONE',  ( 0.000000000000000000, 373.2802204325620892, 37.79430387704446304 ) ) ;
#544 = CARTESIAN_POINT ( 'NONE',  ( -1.836970198721028208E-16, 133.5000000000000000, 35.00000000000000000 ) ) ;
#545 = FACE_OUTER_BOUND ( 'NONE', #165, .T. ) ;
#546 = FACE_OUTER_BOUND ( 'NONE', #149, .T. ) ;
#547 = CARTESIAN_POINT ( 'NONE',  ( -5.000000000000000000, 388.0000000000000000, 17.10000000000000142 ) ) ;
#548 = VECTOR ( 'NONE', #681, 1000.000000000000000 ) ;
#549 = AXIS2_PLACEMENT_3D ( 'NONE', #133, #356, #900 ) ;
#550 = CC_DESIGN_SECURITY_CLASSIFICATION ( #641, ( #749 ) ) ;
#551 = EDGE_CURVE ( 'NONE', #848, #376, #40, .T. ) ;
#552 = CARTESIAN_POINT ( 'NONE',  ( 1.500000000000000000, 386.1999999999999886, 19.50000000000000000 ) ) ;
#553 = CARTESIAN_POINT ( 'NONE',  ( -2.999999999999999556, 132.0000000000000000, 9.500000000000000000 ) ) ;
#554 = EDGE_CURVE ( 'NONE', #860, #59, #349, .T. ) ;
#555 = DIRECTION ( 'NONE',  ( 0.000000000000000000, -0.7375852118529921952, 0.6752540671893628721 ) ) ;
#556 = ORIENTED_EDGE ( 'NONE', *, *, #400, .F. ) ;
#557 = DIRECTION ( 'NONE',  ( 0.000000000000000000, 0.000000000000000000, 1.000000000000000000 ) ) ;
#558 = AXIS2_PLACEMENT_3D ( 'NONE', #804, #467, #118 ) ;
#559 = FACE_OUTER_BOUND ( 'NONE', #528, .T. ) ;
#560 = VECTOR ( 'NONE', #502, 1000.000000000000000 ) ;
#561 = CIRCLE ( 'NONE', #323, 1.500000000000000000 ) ;
#562 = LINE ( 'NONE', #406, #66 ) ;
#563 = EDGE_CURVE ( 'NONE', #380, #434, #418, .T. ) ;
#564 = EDGE_CURVE ( 'NONE', #851, #77, #457, .T. ) ;
#565 = ORIENTED_EDGE ( 'NONE', *, *, #810, .T. ) ;
#566 = DIRECTION ( 'NONE',  ( 1.000000000000000000, 0.000000000000000000, 0.000000000000000000 ) ) ;
#567 = PERSON_AND_ORGANIZATION_ROLE ( 'design_owner' ) ;
#568 = ORIENTED_EDGE ( 'NONE', *, *, #449, .T. ) ;
#569 = AXIS2_PLACEMENT_3D ( 'NONE', #876, #43, #601 ) ;
#570 = ADVANCED_FACE ( 'NONE', ( #124 ), #517, .T. ) ;
#571 = CIRCLE ( 'NONE', #791, 1.500000000000000444 ) ;
#572 = ORIENTED_EDGE ( 'NONE', *, *, #168, .F. ) ;
#573 = CARTESIAN_POINT ( 'NONE',  ( 5.000000000000000000, 388.0000000000000000, 19.50000000000000000 ) ) ;
#574 = EDGE_CURVE ( 'NONE', #827, #667, #562, .T. ) ;
#575 = APPROVAL_STATUS ( 'not_yet_approved' ) ;
#576 = ORIENTED_EDGE ( 'NONE', *, *, #182, .T. ) ;
#577 = ORIENTED_EDGE ( 'NONE', *, *, #204, .T. ) ;
#578 = CARTESIAN_POINT ( 'NONE',  ( 1.500000000000000000, 386.1999999999999886, 25.79858701345978744 ) ) ;
#579 = SECURITY_CLASSIFICATION_LEVEL ( 'unclassified' ) ;
#580 = ORIENTED_EDGE ( 'NONE', *, *, #283, .F. ) ;
#581 = ORIENTED_EDGE ( 'NONE', *, *, #751, .T. ) ;
#582 = DIRECTION ( 'NONE',  ( 0.000000000000000000, 0.000000000000000000, 1.000000000000000000 ) ) ;
#583 = PERSON_AND_ORGANIZATION ( #812, #379 ) ;
#584 = TOROIDAL_SURFACE ( 'NONE', #569, 3.000000000000002665, 1.500000000000000444 ) ;
#585 = AXIS2_PLACEMENT_3D ( 'NONE', #760, #270, #566 ) ;
#586 = PLANE ( 'NONE',  #410 ) ;
#587 = ORIENTED_EDGE ( 'NONE', *, *, #622, .F. ) ;
#588 = CARTESIAN_POINT ( 'NONE',  ( -9.499999999999998224, 132.0000000000000000, 6.500000000000000000 ) ) ;
#589 = CARTESIAN_POINT ( 'NONE',  ( -5.000000000000000000, 384.5000000000000000, 17.10000000000000142 ) ) ;
#590 = DIRECTION ( 'NONE',  ( 0.000000000000000000, 0.000000000000000000, 1.000000000000000000 ) ) ;
#591 = CARTESIAN_POINT ( 'NONE',  ( 0.000000000000000000, 384.5762703359467878, 29.48651307272476174 ) ) ;
#592 = EDGE_LOOP ( 'NONE', ( #493, #440, #787, #541 ) ) ;
#593 = ADVANCED_FACE ( 'NONE', ( #613 ), #748, .T. ) ;
#594 = CARTESIAN_POINT ( 'NONE',  ( -5.000000000000000000, 384.5000000000000000, 17.10000000000000142 ) ) ;
#595 = DIRECTION ( 'NONE',  ( 0.000000000000000000, 0.000000000000000000, -1.000000000000000000 ) ) ;
#596 = CARTESIAN_POINT ( 'NONE',  ( -2.999999999999999112, 132.0000000000000000, 6.500000000000000000 ) ) ;
#597 = DIRECTION ( 'NONE',  ( -0.000000000000000000, -0.000000000000000000, -1.000000000000000000 ) ) ;
#598 = EDGE_CURVE ( 'NONE', #692, #879, #191, .T. ) ;
#599 = CIRCLE ( 'NONE', #284, 1.500000000000000444 ) ;
#600 = LINE ( 'NONE', #104, #531 ) ;
#601 = DIRECTION ( 'NONE',  ( 1.000000000000000000, 0.000000000000000000, 0.000000000000000000 ) ) ;
#602 = CARTESIAN_POINT ( 'NONE',  ( -12.49999999999999645, 129.0000000000000000, 4.999999999999999112 ) ) ;
#603 = ORIENTED_EDGE ( 'NONE', *, *, #195, .T. ) ;
#604 = VECTOR ( 'NONE', #38, 1000.000000000000000 ) ;
#605 = CARTESIAN_POINT ( 'NONE',  ( -12.49999999999999645, 129.0000000000000000, 6.500000000000000000 ) ) ;
#606 = EDGE_CURVE ( 'NONE', #166, #692, #98, .T. ) ;
#607 = DIRECTION ( 'NONE',  ( 1.000000000000000000, 0.000000000000000000, 0.000000000000000000 ) ) ;
#608 = VERTEX_POINT ( 'NONE', #495 ) ;
#609 = DIRECTION ( 'NONE',  ( 1.000000000000000000, 0.000000000000000000, 1.445602896647339163E-16 ) ) ;
#610 = DIRECTION ( 'NONE',  ( -1.000000000000000000, 0.000000000000000000, 0.000000000000000000 ) ) ;
#611 = CC_DESIGN_PERSON_AND_ORGANIZATION_ASSIGNMENT ( #583, #293, ( #749 ) ) ;
#612 = APPLICATION_CONTEXT ( 'configuration controlled 3d designs of mechanical parts and assemblies' ) ;
#613 = FACE_OUTER_BOUND ( 'NONE', #643, .T. ) ;
#614 = AXIS2_PLACEMENT_3D ( 'NONE', #463, #170, #102 ) ;
#615 = CIRCLE ( 'NONE', #585, 1.500000000000000000 ) ;
#616 = AXIS2_PLACEMENT_3D ( 'NONE', #152, #147, #499 ) ;
#617 = CARTESIAN_POINT ( 'NONE',  ( -2.999999999999999556, 132.0000000000000000, 9.500000000000000000 ) ) ;
#618 = ORIENTED_EDGE ( 'NONE', *, *, #606, .T. ) ;
#619 = DIRECTION ( 'NONE',  ( 0.000000000000000000, 0.000000000000000000, -1.000000000000000000 ) ) ;
#620 = DIRECTION ( 'NONE',  ( 0.000000000000000000, 0.000000000000000000, 1.000000000000000000 ) ) ;
#621 = CARTESIAN_POINT ( 'NONE',  ( -12.49999999999999645, 129.0000000000000000, 8.000000000000000000 ) ) ;
#622 = EDGE_CURVE ( 'NONE', #796, #642, #615, .T. ) ;
#623 = CARTESIAN_POINT ( 'NONE',  ( 0.000000000000000000, 368.8910689958312332, 41.00000000000003553 ) ) ;
#624 = CARTESIAN_POINT ( 'NONE',  ( 0.000000000000000000, 368.8910689958312332, 33.00000000000000000 ) ) ;
#625 = AXIS2_PLACEMENT_3D ( 'NONE', #60, #181, #476 ) ;
#626 = DIRECTION ( 'NONE',  ( 1.000000000000000000, 0.000000000000000000, 0.000000000000000000 ) ) ;
#627 = AXIS2_PLACEMENT_3D ( 'NONE', #738, #131, #896 ) ;
#628 = ADVANCED_FACE ( 'NONE', ( #559 ), #823, .F. ) ;
#629 = VERTEX_POINT ( 'NONE', #142 ) ;
#630 = DIRECTION ( 'NONE',  ( 0.000000000000000000, 0.000000000000000000, -1.000000000000000000 ) ) ;
#631 = CALENDAR_DATE ( 2026, 29, 9 ) ;
#632 = ORIENTED_EDGE ( 'NONE', *, *, #354, .T. ) ;
#633 = EDGE_LOOP ( 'NONE', ( #279, #603, #278, #714, #765 ) ) ;
#634 = EDGE_CURVE ( 'NONE', #848, #75, #277, .T. ) ;
#635 = EDGE_LOOP ( 'NONE', ( #510, #107, #355, #37, #291 ) ) ;
#636 = EDGE_CURVE ( 'NONE', #290, #838, #830, .T. ) ;
#637 = FACE_OUTER_BOUND ( 'NONE', #303, .T. ) ;
#638 = AXIS2_PLACEMENT_3D ( 'NONE', #35, #540, #786 ) ;
#639 = AXIS2_PLACEMENT_3D ( 'NONE', #752, #903, #288 ) ;
#640 = COORDINATED_UNIVERSAL_TIME_OFFSET ( 12, 0, .AHEAD. ) ;
#641 = SECURITY_CLASSIFICATION ( '', '', #579 ) ;
#642 = VERTEX_POINT ( 'NONE', #420 ) ;
#643 = EDGE_LOOP ( 'NONE', ( #236, #172, #785, #87 ) ) ;
#644 = DIRECTION ( 'NONE',  ( 1.000000000000000000, 0.000000000000000000, 0.000000000000000000 ) ) ;
#645 = CALENDAR_DATE ( 2026, 29, 9 ) ;
#646 = EDGE_LOOP ( 'NONE', ( #320, #144, #833, #670, #824 ) ) ;
#647 = DIRECTION ( 'NONE',  ( 1.000000000000000000, 0.000000000000000000, 0.000000000000000000 ) ) ;
#648 = VERTEX_POINT ( 'NONE', #207 ) ;
#649 = CARTESIAN_POINT ( 'NONE',  ( 1.836970198721028208E-16, 138.0000000000000000, 42.49999999999998579 ) ) ;
#650 = MECHANICAL_CONTEXT ( 'NONE', #134, 'mechanical' ) ;
#651 = ORIENTED_EDGE ( 'NONE', *, *, #689, .F. ) ;
#652 = DIRECTION ( 'NONE',  ( 0.000000000000000000, -1.000000000000000000, 0.000000000000000000 ) ) ;
#653 = ORIENTED_EDGE ( 'NONE', *, *, #905, .F. ) ;
#654 = FACE_OUTER_BOUND ( 'NONE', #704, .T. ) ;
#655 = CALENDAR_DATE ( 2026, 29, 9 ) ;
#656 = AXIS2_PLACEMENT_3D ( 'NONE', #106, #652, #383 ) ;
#657 = ADVANCED_FACE ( 'NONE', ( #637 ), #490, .T. ) ;
#658 = AXIS2_PLACEMENT_3D ( 'NONE', #855, #314, #582 ) ;
#659 = CIRCLE ( 'NONE', #864, 1.500000000000000444 ) ;
#660 = DIRECTION ( 'NONE',  ( 0.000000000000000000, 0.000000000000000000, -1.000000000000000000 ) ) ;
#661 = DIRECTION ( 'NONE',  ( 0.000000000000000000, -0.7375852118529971913, 0.6752540671893575430 ) ) ;
#662 = DIRECTION ( 'NONE',  ( 0.000000000000000000, 0.000000000000000000, 1.000000000000000000 ) ) ;
#663 = EDGE_LOOP ( 'NONE', ( #139, #391, #709, #572 ) ) ;
#664 = CARTESIAN_POINT ( 'NONE',  ( 0.000000000000000000, 368.8910689958312332, 41.00000000000003553 ) ) ;
#665 = ORIENTED_EDGE ( 'NONE', *, *, #780, .T. ) ;
#666 = DIRECTION ( 'NONE',  ( 0.000000000000000000, 0.000000000000000000, 1.000000000000000000 ) ) ;
#667 = VERTEX_POINT ( 'NONE', #573 ) ;
#668 = CARTESIAN_POINT ( 'NONE',  ( 0.000000000000000000, 138.0000000000000000, 35.00000000000000000 ) ) ;
#669 = CC_DESIGN_PERSON_AND_ORGANIZATION_ASSIGNMENT ( #503, #567, ( #419 ) ) ;
#670 = ORIENTED_EDGE ( 'NONE', *, *, #182, .F. ) ;
#671 = DIRECTION ( 'NONE',  ( 1.000000000000000000, 0.000000000000000000, 0.000000000000000000 ) ) ;
#672 = ADVANCED_FACE ( 'NONE', ( #654 ), #103, .F. ) ;
#673 = CIRCLE ( 'NONE', #532, 1.500000000000000444 ) ;
#674 = CARTESIAN_POINT ( 'NONE',  ( -1.836970198721029934E-16, 381.1999999999999886, 25.79858701345978744 ) ) ;
#675 = VECTOR ( 'NONE', #415, 1000.000000000000114 ) ;
#676 = ORIENTED_EDGE ( 'NONE', *, *, #210, .F. ) ;
#677 = AXIS2_PLACEMENT_3D ( 'NONE', #553, #193, #125 ) ;
#678 = FACE_OUTER_BOUND ( 'NONE', #504, .T. ) ;
#679 = DIRECTION ( 'NONE',  ( 0.000000000000000000, 1.000000000000000000, 0.000000000000000000 ) ) ;
#680 = DIRECTION ( 'NONE',  ( 0.000000000000000000, 1.000000000000000000, 0.000000000000000000 ) ) ;
#681 = DIRECTION ( 'NONE',  ( -1.000000000000000000, -0.000000000000000000, -0.000000000000000000 ) ) ;
#682 = DIRECTION ( 'NONE',  ( 0.000000000000000000, 0.000000000000000000, -1.000000000000000000 ) ) ;
#683 = EDGE_CURVE ( 'NONE', #359, #282, #223, .T. ) ;
#684 = VECTOR ( 'NONE', #387, 1000.000000000000000 ) ;
#685 = AXIS2_PLACEMENT_3D ( 'NONE', #893, #197, #688 ) ;
#686 = ORIENTED_EDGE ( 'NONE', *, *, #606, .F. ) ;
#687 = APPROVAL_PERSON_ORGANIZATION ( #835, #408, #907 ) ;
#688 = DIRECTION ( 'NONE',  ( 0.000000000000000000, 0.000000000000000000, 1.000000000000000000 ) ) ;
#689 = EDGE_CURVE ( 'NONE', #282, #78, #839, .T. ) ;
#690 = DIRECTION ( 'NONE',  ( 1.000000000000000000, 0.000000000000000000, 0.000000000000000000 ) ) ;
#691 = EDGE_CURVE ( 'NONE', #648, #290, #213, .T. ) ;
#692 = VERTEX_POINT ( 'NONE', #507 ) ;
#693 = EDGE_LOOP ( 'NONE', ( #71, #758, #506, #353 ) ) ;
#694 = CIRCLE ( 'NONE', #807, 1.500000000000000444 ) ;
#695 = TOROIDAL_SURFACE ( 'NONE', #304, 6.000000000000032863, 1.500000000000000000 ) ;
#696 = APPLICATION_PROTOCOL_DEFINITION ( 'international standard', 'config_control_design', 1994, #612 ) ;
#697 = ADVANCED_FACE ( 'NONE', ( #10 ), #695, .T. ) ;
#698 = ORIENTED_EDGE ( 'NONE', *, *, #636, .T. ) ;
#699 = ADVANCED_FACE ( 'NONE', ( #32 ), #459, .T. ) ;
#700 = ORIENTED_EDGE ( 'NONE', *, *, #574, .T. ) ;
#701 = ORIENTED_EDGE ( 'NONE', *, *, #905, .T. ) ;
#702 = APPROVAL_DATE_TIME ( #73, #408 ) ;
#703 = VERTEX_POINT ( 'NONE', #513 ) ;
#704 = EDGE_LOOP ( 'NONE', ( #801, #8, #4, #146 ) ) ;
#705 = CARTESIAN_POINT ( 'NONE',  ( -5.000000000000000000, 388.0000000000000000, 19.50000000000000000 ) ) ;
#706 = TOROIDAL_SURFACE ( 'NONE', #820, 3.000000000000002665, 1.500000000000000444 ) ;
#707 = CIRCLE ( 'NONE', #470, 1.500000000000000444 ) ;
#708 = EDGE_LOOP ( 'NONE', ( #208, #698, #316, #140, #384 ) ) ;
#709 = ORIENTED_EDGE ( 'NONE', *, *, #563, .T. ) ;
#710 = DIRECTION ( 'NONE',  ( 1.000000000000000000, 0.000000000000000000, 0.000000000000000000 ) ) ;
#711 = EDGE_CURVE ( 'NONE', #851, #648, #370, .T. ) ;
#712 = PERSON_AND_ORGANIZATION ( #812, #379 ) ;
#713 = LINE ( 'NONE', #454, #895 ) ;
#714 = ORIENTED_EDGE ( 'NONE', *, *, #206, .T. ) ;
#715 = CARTESIAN_POINT ( 'NONE',  ( 0.000000000000000000, 381.1999999999999886, 25.79858701345978744 ) ) ;
#716 = ORIENTED_EDGE ( 'NONE', *, *, #870, .F. ) ;
#717 = CARTESIAN_POINT ( 'NONE',  ( -2.999999999999998668, 132.0000000000000000, 4.999999999999999112 ) ) ;
#718 = ORIENTED_EDGE ( 'NONE', *, *, #57, .F. ) ;
#719 = CARTESIAN_POINT ( 'NONE',  ( 0.000000000000000000, 374.2931015333461460, 38.90068169482396598 ) ) ;
#720 = CIRCLE ( 'NONE', #453, 1.500000000000000444 ) ;
#721 = APPROVAL_DATE_TIME ( #448, #435 ) ;
#722 = DIRECTION ( 'NONE',  ( 1.000000000000000000, 0.000000000000000000, 0.000000000000000000 ) ) ;
#723 = EDGE_CURVE ( 'NONE', #166, #75, #261, .T. ) ;
#724 = DIRECTION ( 'NONE',  ( 0.000000000000000000, -0.7375852118529923063, 0.6752540671893628721 ) ) ;
#725 = DIRECTION ( 'NONE',  ( 0.000000000000000000, 0.000000000000000000, 1.000000000000000000 ) ) ;
#726 = COORDINATED_UNIVERSAL_TIME_OFFSET ( 12, 0, .AHEAD. ) ;
#727 = CARTESIAN_POINT ( 'NONE',  ( 1.836970198721096248E-16, 368.8910689958312332, 42.50000000000003553 ) ) ;
#728 = EDGE_CURVE ( 'NONE', #77, #851, #898, .T. ) ;
#729 = DIRECTION ( 'NONE',  ( 0.000000000000000000, 1.000000000000000000, 0.000000000000000000 ) ) ;
#730 = CARTESIAN_POINT ( 'NONE',  ( -5.000000000000000000, 388.0000000000000000, 19.50000000000000000 ) ) ;
#731 = CARTESIAN_POINT ( 'NONE',  ( 0.000000000000000000, 138.0000000000000000, 40.99999999999997868 ) ) ;
#732 = VECTOR ( 'NONE', #368, 1000.000000000000000 ) ;
#733 = CARTESIAN_POINT ( 'NONE',  ( 0.000000000000000000, 368.8910689958312332, 40.99999999999997868 ) ) ;
#734 = CYLINDRICAL_SURFACE ( 'NONE', #516, 1.500000000000001332 ) ;
#735 = AXIS2_PLACEMENT_3D ( 'NONE', #105, #61, #620 ) ;
#736 = CC_DESIGN_APPROVAL ( #770, ( #164 ) ) ;
#737 = CARTESIAN_POINT ( 'NONE',  ( -9.500000000000001776, 129.0000000000000000, 6.500000000000000000 ) ) ;
#738 = CARTESIAN_POINT ( 'NONE',  ( 0.000000000000000000, 386.1999999999999886, 19.50000000000000000 ) ) ;
#739 = CARTESIAN_POINT ( 'NONE',  ( -12.49999999999999645, 129.0000000000000000, 6.500000000000000000 ) ) ;
#740 = EDGE_CURVE ( 'NONE', #367, #608, #571, .T. ) ;
#741 = DIRECTION ( 'NONE',  ( 0.000000000000000000, -1.000000000000000000, 0.000000000000000000 ) ) ;
#742 = DIRECTION ( 'NONE',  ( 1.000000000000000000, 0.000000000000000000, 0.000000000000000000 ) ) ;
#743 = DIRECTION ( 'NONE',  ( 1.000000000000000000, 0.000000000000000000, 0.000000000000000000 ) ) ;
#744 = DIRECTION ( 'NONE',  ( 0.000000000000000000, 0.000000000000000000, 1.000000000000000000 ) ) ;
#745 = CARTESIAN_POINT ( 'NONE',  ( 5.000000000000000000, 388.0000000000000000, 17.10000000000000142 ) ) ;
#746 = AXIS2_PLACEMENT_3D ( 'NONE', #188, #397, #47 ) ;
#747 = ADVANCED_FACE ( 'NONE', ( #447 ), #88, .T. ) ;
#748 = TOROIDAL_SURFACE ( 'NONE', #822, 3.000000000000000000, 1.500000000000000000 ) ;
#749 = PRODUCT_DEFINITION_FORMATION_WITH_SPECIFIED_SOURCE ( 'ANY', '', #419, .NOT_KNOWN. ) ;
#750 = DIRECTION ( 'NONE',  ( 1.000000000000000000, 0.000000000000000000, 0.000000000000000000 ) ) ;
#751 = EDGE_CURVE ( 'NONE', #434, #879, #175, .T. ) ;
#752 = CARTESIAN_POINT ( 'NONE',  ( -2.999999999999999112, 132.0000000000000000, 6.500000000000000000 ) ) ;
#753 = EDGE_CURVE ( 'NONE', #78, #112, #365, .T. ) ;
#754 = CALENDAR_DATE ( 2026, 29, 9 ) ;
#755 = ORIENTED_EDGE ( 'NONE', *, *, #505, .T. ) ;
#756 = ORIENTED_EDGE ( 'NONE', *, *, #442, .T. ) ;
#757 = AXIS2_PLACEMENT_3D ( 'NONE', #733, #466, #318 ) ;
#758 = ORIENTED_EDGE ( 'NONE', *, *, #598, .T. ) ;
#759 = VECTOR ( 'NONE', #610, 1000.000000000000000 ) ;
#760 = CARTESIAN_POINT ( 'NONE',  ( 0.000000000000000000, 132.0000000000000000, 9.500000000000000000 ) ) ;
#761 = AXIS2_PLACEMENT_3D ( 'NONE', #436, #725, #771 ) ;
#762 = COORDINATED_UNIVERSAL_TIME_OFFSET ( 12, 0, .AHEAD. ) ;
#763 = ORIENTED_EDGE ( 'NONE', *, *, #475, .T. ) ;
#764 = COORDINATED_UNIVERSAL_TIME_OFFSET ( 12, 0, .AHEAD. ) ;
#765 = ORIENTED_EDGE ( 'NONE', *, *, #539, .T. ) ;
#766 = DIRECTION ( 'NONE',  ( 0.000000000000000000, 0.000000000000000000, -1.000000000000000000 ) ) ;
#767 = EDGE_LOOP ( 'NONE', ( #686, #80, #577, #756, #446 ) ) ;
#768 = ORIENTED_EDGE ( 'NONE', *, *, #814, .T. ) ;
#769 = VERTEX_POINT ( 'NONE', #578 ) ;
#770 = APPROVAL ( #289, 'UNSPECIFIED' ) ;
#771 = DIRECTION ( 'NONE',  ( 1.000000000000000000, 0.000000000000000000, 0.000000000000000000 ) ) ;
#772 = AXIS2_PLACEMENT_3D ( 'NONE', #92, #86, #533 ) ;
#773 = AXIS2_PLACEMENT_3D ( 'NONE', #591, #853, #482 ) ;
#774 = CIRCLE ( 'NONE', #426, 1.500000000000000000 ) ;
#775 = PERSON_AND_ORGANIZATION_ROLE ( 'creator' ) ;
#776 = CIRCLE ( 'NONE', #262, 1.500000000000001332 ) ;
#777 = VERTEX_POINT ( 'NONE', #649 ) ;
#778 = CARTESIAN_POINT ( 'NONE',  ( 0.000000000000000000, 387.6999999999999886, 25.79858701345978744 ) ) ;
#779 = ORIENTED_EDGE ( 'NONE', *, *, #39, .T. ) ;
#780 = EDGE_CURVE ( 'NONE', #77, #777, #16, .T. ) ;
#781 = FACE_OUTER_BOUND ( 'NONE', #67, .T. ) ;
#782 = VERTEX_POINT ( 'NONE', #520 ) ;
#783 = DIRECTION ( 'NONE',  ( 1.000000000000000000, 0.000000000000000000, 0.000000000000000000 ) ) ;
#784 = CC_DESIGN_DATE_AND_TIME_ASSIGNMENT ( #221, #433, ( #164 ) ) ;
#785 = ORIENTED_EDGE ( 'NONE', *, *, #850, .T. ) ;
#786 = DIRECTION ( 'NONE',  ( 0.000000000000000000, 0.000000000000000000, -1.000000000000000000 ) ) ;
#787 = ORIENTED_EDGE ( 'NONE', *, *, #711, .T. ) ;
#788 = DIRECTION ( 'NONE',  ( 0.000000000000000000, -1.000000000000000000, 0.000000000000000000 ) ) ;
#789 = TOROIDAL_SURFACE ( 'NONE', #212, 5.000000000000004441, 1.500000000000000000 ) ;
#790 = ADVANCED_FACE ( 'NONE', ( #452 ), #536, .T. ) ;
#791 = AXIS2_PLACEMENT_3D ( 'NONE', #588, #710, #766 ) ;
#792 = CIRCLE ( 'NONE', #336, 7.500000000000034639 ) ;
#793 = ORIENTED_EDGE ( 'NONE', *, *, #366, .F. ) ;
#794 = DIRECTION ( 'NONE',  ( 0.000000000000000000, 0.000000000000000000, -1.000000000000000000 ) ) ;
#795 = CARTESIAN_POINT ( 'NONE',  ( 0.000000000000000000, 386.1999999999999886, 25.79858701345978744 ) ) ;
#796 = VERTEX_POINT ( 'NONE', #529 ) ;
#797 = CARTESIAN_POINT ( 'NONE',  ( 0.000000000000000000, 368.8910689958312332, 39.50000000000003553 ) ) ;
#798 = FACE_OUTER_BOUND ( 'NONE', #478, .T. ) ;
#799 = DIRECTION ( 'NONE',  ( 1.000000000000000000, 0.000000000000000000, 0.000000000000000000 ) ) ;
#800 = CARTESIAN_POINT ( 'NONE',  ( -12.49999999999999645, 108.5000000000000142, 8.000000000000000000 ) ) ;
#801 = ORIENTED_EDGE ( 'NONE', *, *, #753, .T. ) ;
#802 = FACE_OUTER_BOUND ( 'NONE', #708, .T. ) ;
#803 = DIRECTION ( 'NONE',  ( 1.000000000000000000, 0.000000000000000000, 0.000000000000000000 ) ) ;
#804 = CARTESIAN_POINT ( 'NONE',  ( 0.000000000000000000, 368.8910689958312332, 33.00000000000000000 ) ) ;
#805 = ORIENTED_EDGE ( 'NONE', *, *, #114, .T. ) ;
#806 = DESIGN_CONTEXT ( 'detailed design', #612, 'design' ) ;
#807 = AXIS2_PLACEMENT_3D ( 'NONE', #306, #609, #28 ) ;
#808 = CARTESIAN_POINT ( 'NONE',  ( -5.000000000000000000, 388.0000000000000000, 19.50000000000000000 ) ) ;
#809 = CARTESIAN_POINT ( 'NONE',  ( -12.49999999999999645, 129.0000000000000000, 6.500000000000000000 ) ) ;
#810 = EDGE_CURVE ( 'NONE', #648, #777, #358, .T. ) ;
#811 = CARTESIAN_POINT ( 'NONE',  ( 5.000000000000000000, 384.5000000000000000, 17.10000000000000142 ) ) ;
#812 = PERSON ( 'UNSPECIFIED', 'UNSPECIFIED', 'UNSPECIFIED', ('UNSPECIFIED'), ('UNSPECIFIED'), ('UNSPECIFIED') ) ;
#813 = FACE_OUTER_BOUND ( 'NONE', #194, .T. ) ;
#814 = EDGE_CURVE ( 'NONE', #629, #300, #82, .T. ) ;
#815 = FACE_OUTER_BOUND ( 'NONE', #287, .T. ) ;
#816 = ORIENTED_EDGE ( 'NONE', *, *, #554, .F. ) ;
#817 = ADVANCED_FACE ( 'NONE', ( #399 ), #48, .T. ) ;
#818 = CARTESIAN_POINT ( 'NONE',  ( -12.49999999999999645, 129.0000000000000000, 6.500000000000000000 ) ) ;
#819 = CARTESIAN_POINT ( 'NONE',  ( -9.499999999999998224, 132.0000000000000000, 6.500000000000000000 ) ) ;
#820 = AXIS2_PLACEMENT_3D ( 'NONE', #373, #590, #237 ) ;
#821 = PRODUCT_DEFINITION_SHAPE ( 'NONE', 'NONE',  #164 ) ;
#822 = AXIS2_PLACEMENT_3D ( 'NONE', #617, #481, #744 ) ;
#823 = PLANE ( 'NONE',  #439 ) ;
#824 = ORIENTED_EDGE ( 'NONE', *, *, #204, .F. ) ;
#825 = DIRECTION ( 'NONE',  ( 0.000000000000000000, 0.000000000000000000, -1.000000000000000000 ) ) ;
#826 = DIRECTION ( 'NONE',  ( 0.000000000000000000, -0.7375852118529971913, 0.6752540671893575430 ) ) ;
#827 = VERTEX_POINT ( 'NONE', #538 ) ;
#828 = CIRCLE ( 'NONE', #260, 1.500000000000000444 ) ;
#829 = ORIENTED_EDGE ( 'NONE', *, *, #530, .F. ) ;
#830 = CIRCLE ( 'NONE', #549, 1.500000000000000000 ) ;
#831 = EDGE_CURVE ( 'NONE', #511, #209, #200, .T. ) ;
#832 = ORIENTED_EDGE ( 'NONE', *, *, #148, .T. ) ;
#833 = ORIENTED_EDGE ( 'NONE', *, *, #310, .T. ) ;
#834 = DIRECTION ( 'NONE',  ( 0.000000000000000000, 0.000000000000000000, -1.000000000000000000 ) ) ;
#835 = PERSON_AND_ORGANIZATION ( #812, #379 ) ;
#836 = ADVANCED_FACE ( 'NONE', ( #678 ), #899, .T. ) ;
#837 = ORIENTED_EDGE ( 'NONE', *, *, #39, .F. ) ;
#838 = VERTEX_POINT ( 'NONE', #51 ) ;
#839 = LINE ( 'NONE', #594, #274 ) ;
#840 = ORIENTED_EDGE ( 'NONE', *, *, #429, .F. ) ;
#841 = VERTEX_POINT ( 'NONE', #255 ) ;
#842 = DIRECTION ( 'NONE',  ( 0.000000000000000000, -0.7375852118529923063, 0.6752540671893628721 ) ) ;
#843 = CIRCLE ( 'NONE', #412, 1.500000000000000000 ) ;
#844 = AXIS2_PLACEMENT_3D ( 'NONE', #623, #121, #690 ) ;
#845 = DIRECTION ( 'NONE',  ( 1.000000000000000000, 0.000000000000000000, 0.000000000000000000 ) ) ;
#846 = DIRECTION ( 'NONE',  ( -1.000000000000000000, 0.000000000000000000, -0.000000000000000000 ) ) ;
#847 = FACE_OUTER_BOUND ( 'NONE', #663, .T. ) ;
#848 = VERTEX_POINT ( 'NONE', #861 ) ;
#849 = DIRECTION ( 'NONE',  ( 0.000000000000000000, 0.000000000000000000, -1.000000000000000000 ) ) ;
#850 = EDGE_CURVE ( 'NONE', #642, #245, #84, .T. ) ;
#851 = VERTEX_POINT ( 'NONE', #797 ) ;
#852 = FACE_OUTER_BOUND ( 'NONE', #887, .T. ) ;
#853 = DIRECTION ( 'NONE',  ( 0.000000000000000000, -0.7375852118529923063, 0.6752540671893628721 ) ) ;
#854 = ORIENTED_EDGE ( 'NONE', *, *, #814, .F. ) ;
#855 = CARTESIAN_POINT ( 'NONE',  ( -2.999999999999999112, 132.0000000000000000, 6.500000000000000000 ) ) ;
#856 = EDGE_CURVE ( 'NONE', #494, #511, #776, .T. ) ;
#857 = DIRECTION ( 'NONE',  ( 0.000000000000000000, -1.000000000000000000, 0.000000000000000000 ) ) ;
#858 = CARTESIAN_POINT ( 'NONE',  ( -9.499999999999998224, 130.5000000000000000, 6.500000000000000000 ) ) ;
#859 = LINE ( 'NONE', #730, #272 ) ;
#860 = VERTEX_POINT ( 'NONE', #338 ) ;
#861 = CARTESIAN_POINT ( 'NONE',  ( -1.500000000000000000, 386.1999999999999886, 19.50000000000000000 ) ) ;
#862 = CIRCLE ( 'NONE', #371, 1.500000000000000000 ) ;
#863 = AXIS2_PLACEMENT_3D ( 'NONE', #163, #788, #173 ) ;
#864 = AXIS2_PLACEMENT_3D ( 'NONE', #605, #868, #252 ) ;
#865 = CYLINDRICAL_SURFACE ( 'NONE', #772, 1.500000000000000000 ) ;
#866 = CARTESIAN_POINT ( 'NONE',  ( 1.500000000000000000, 386.1999999999999886, 19.50000000000000000 ) ) ;
#867 = ORIENTED_EDGE ( 'NONE', *, *, #691, .F. ) ;
#868 = DIRECTION ( 'NONE',  ( 0.000000000000000000, 1.000000000000000000, 0.000000000000000000 ) ) ;
#869 = CARTESIAN_POINT ( 'NONE',  ( -12.49999999999999645, 108.5000000000000142, 6.500000000000000000 ) ) ;
#870 = EDGE_CURVE ( 'NONE', #782, #78, #388, .T. ) ;
#871 = DIRECTION ( 'NONE',  ( 0.000000000000000000, 0.000000000000000000, -1.000000000000000000 ) ) ;
#872 = CARTESIAN_POINT ( 'NONE',  ( -2.999999999999999556, 132.0000000000000000, 8.000000000000000000 ) ) ;
#873 = ORIENTED_EDGE ( 'NONE', *, *, #69, .T. ) ;
#874 = CARTESIAN_POINT ( 'NONE',  ( 5.000000000000000000, 384.5000000000000000, 19.50000000000000000 ) ) ;
#875 = EDGE_CURVE ( 'NONE', #300, #511, #659, .T. ) ;
#876 = CARTESIAN_POINT ( 'NONE',  ( -9.500000000000001776, 129.0000000000000000, 6.500000000000000000 ) ) ;
#877 = FACE_OUTER_BOUND ( 'NONE', #592, .T. ) ;
#878 = DIRECTION ( 'NONE',  ( 0.000000000000000000, 1.000000000000000000, 0.000000000000000000 ) ) ;
#879 = VERTEX_POINT ( 'NONE', #64 ) ;
#880 = CIRCLE ( 'NONE', #468, 1.500000000000000000 ) ;
#881 = CARTESIAN_POINT ( 'NONE',  ( 0.000000000000000000, 132.0000000000000000, 35.00000000000000000 ) ) ;
#882 = CARTESIAN_POINT ( 'NONE',  ( 0.000000000000000000, 383.5633892351626741, 28.38013525494527300 ) ) ;
#883 = DIRECTION ( 'NONE',  ( 0.000000000000000000, 0.000000000000000000, -1.000000000000000000 ) ) ;
#884 = CIRCLE ( 'NONE', #375, 1.500000000000000000 ) ;
#885 = LOCAL_TIME ( 17, 50, 25.00000000000000000, #492 ) ;
#886 = DIRECTION ( 'NONE',  ( 0.000000000000000000, 0.000000000000000000, -1.000000000000000000 ) ) ;
#887 = EDGE_LOOP ( 'NONE', ( #404, #873, #768, #34, #215, #226 ) ) ;
#888 = EDGE_CURVE ( 'NONE', #692, #380, #561, .T. ) ;
#889 = CARTESIAN_POINT ( 'NONE',  ( 0.000000000000000000, 381.1999999999999886, 25.79858701345978744 ) ) ;
#890 = DIRECTION ( 'NONE',  ( 0.000000000000000000, 1.000000000000000000, 0.000000000000000000 ) ) ;
#891 = DIRECTION ( 'NONE',  ( 0.000000000000000000, -1.000000000000000000, 0.000000000000000000 ) ) ;
#892 = ADVANCED_FACE ( 'NONE', ( #205 ), #500, .T. ) ;
#893 = CARTESIAN_POINT ( 'NONE',  ( 5.000000000000000000, 384.5000000000000000, 19.50000000000000000 ) ) ;
#894 = DIRECTION ( 'NONE',  ( 1.000000000000000000, 0.000000000000000000, 0.000000000000000000 ) ) ;
#895 = VECTOR ( 'NONE', #101, 1000.000000000000000 ) ;
#896 = DIRECTION ( 'NONE',  ( 1.000000000000000000, 0.000000000000000000, 0.000000000000000000 ) ) ;
#897 = DIRECTION ( 'NONE',  ( 1.000000000000000000, 0.000000000000000000, 0.000000000000000000 ) ) ;
#898 = CIRCLE ( 'NONE', #377, 1.500000000000000000 ) ;
#899 = TOROIDAL_SURFACE ( 'NONE', #141, 6.000000000000032863, 1.500000000000000000 ) ;
#900 = DIRECTION ( 'NONE',  ( 1.000000000000000000, 0.000000000000000000, 0.000000000000000000 ) ) ;
#901 = ORIENTED_EDGE ( 'NONE', *, *, #381, .T. ) ;
#902 = ORIENTED_EDGE ( 'NONE', *, *, #266, .T. ) ;
#903 = DIRECTION ( 'NONE',  ( -1.000000000000000000, 0.000000000000000000, 0.000000000000000000 ) ) ;
#904 = DATE_AND_TIME ( #754, #885 ) ;
#905 = EDGE_CURVE ( 'NONE', #777, #860, #792, .T. ) ;
#906 = ORIENTED_EDGE ( 'NONE', *, *, #266, .F. ) ;
#907 = APPROVAL_ROLE ( '' ) ;
ENDSEC;
END-ISO-10303-21;
