ISO-10303-21;
HEADER;
FILE_DESCRIPTION (( 'STEP AP203' ),
    '1' );
FILE_NAME ('Harness - RX Cable.step',
    '2026-09-29T04:50:25',
    ( '' ),
    ( '' ),
    '',
    '',
    '' );
FILE_SCHEMA (( 'CONFIG_CONTROL_DESIGN' ));
ENDSEC;

DATA;
#1 = DIRECTION ( 'NONE',  ( 0.000000000000000000, 1.000000000000000000, 0.000000000000000000 ) ) ;
#2 = CARTESIAN_POINT ( 'NONE',  ( -16.29999999999999361, 121.0000000000000000, 5.900000000000000355 ) ) ;
#3 = EDGE_CURVE ( 'NONE', #435, #765, #840, .T. ) ;
#4 = DIRECTION ( 'NONE',  ( 0.000000000000000000, 0.000000000000000000, 1.000000000000000000 ) ) ;
#5 = CARTESIAN_POINT ( 'NONE',  ( -26.49999999999999645, 121.0000000000000000, 4.899999999999999467 ) ) ;
#6 = DIRECTION ( 'NONE',  ( -0.000000000000000000, -0.000000000000000000, -1.000000000000000000 ) ) ;
#7 = EDGE_LOOP ( 'NONE', ( #939, #599 ) ) ;
#8 = PLANE ( 'NONE',  #919 ) ;
#9 = EDGE_CURVE ( 'NONE', #866, #465, #205, .T. ) ;
#10 = FACE_OUTER_BOUND ( 'NONE', #26, .T. ) ;
#11 = VERTEX_POINT ( 'NONE', #2 ) ;
#12 = VERTEX_POINT ( 'NONE', #742 ) ;
#13 = CARTESIAN_POINT ( 'NONE',  ( -29.50000000000000000, 231.0005950189229509, -10.75000000000000000 ) ) ;
#14 = CIRCLE ( 'NONE', #296, 1.000000000000000888 ) ;
#15 = AXIS2_PLACEMENT_3D ( 'NONE', #567, #936, #784 ) ;
#16 = DIRECTION ( 'NONE',  ( 0.000000000000000000, 0.8368318106743660723, 0.5474600630579934402 ) ) ;
#17 = ORIENTED_EDGE ( 'NONE', *, *, #760, .T. ) ;
#18 = ORIENTED_EDGE ( 'NONE', *, *, #177, .F. ) ;
#19 = FACE_OUTER_BOUND ( 'NONE', #537, .T. ) ;
#20 = DIRECTION ( 'NONE',  ( 0.000000000000000000, 0.000000000000000000, 1.000000000000000000 ) ) ;
#21 = EDGE_LOOP ( 'NONE', ( #555, #804, #527, #846, #612 ) ) ;
#22 = EDGE_LOOP ( 'NONE', ( #280, #165, #477, #106, #314 ) ) ;
#23 = COORDINATED_UNIVERSAL_TIME_OFFSET ( 12, 0, .AHEAD. ) ;
#24 = CARTESIAN_POINT ( 'NONE',  ( -29.50000000000000000, 134.7553341220813081, 4.899999999999991473 ) ) ;
#25 = DIRECTION ( 'NONE',  ( 0.000000000000000000, 0.000000000000000000, 1.000000000000000000 ) ) ;
#26 = EDGE_LOOP ( 'NONE', ( #136, #881, #406, #865, #910 ) ) ;
#27 = EDGE_CURVE ( 'NONE', #419, #470, #380, .T. ) ;
#28 = FACE_OUTER_BOUND ( 'NONE', #21, .T. ) ;
#29 = CIRCLE ( 'NONE', #679, 1.000000000000006661 ) ;
#30 = CIRCLE ( 'NONE', #377, 1.000000000000006661 ) ;
#31 = AXIS2_PLACEMENT_3D ( 'NONE', #134, #146, #440 ) ;
#32 = DIRECTION ( 'NONE',  ( -0.000000000000000000, -0.000000000000000000, -1.000000000000000000 ) ) ;
#33 = CARTESIAN_POINT ( 'NONE',  ( -29.50000000000000000, 222.4292390232176047, -12.50000000000000000 ) ) ;
#34 = EDGE_LOOP ( 'NONE', ( #608, #170, #860, #18 ) ) ;
#35 = LINE ( 'NONE', #430, #731 ) ;
#36 = DIRECTION ( 'NONE',  ( 0.000000000000000000, 0.000000000000000000, -1.000000000000000000 ) ) ;
#37 = CARTESIAN_POINT ( 'NONE',  ( -29.50000000000000000, 155.2446658779186919, -10.49999999999999822 ) ) ;
#38 = ORIENTED_EDGE ( 'NONE', *, *, #221, .T. ) ;
#39 = EDGE_CURVE ( 'NONE', #855, #88, #545, .T. ) ;
#40 = CYLINDRICAL_SURFACE ( 'NONE', #605, 1.000000000000005551 ) ;
#41 = CARTESIAN_POINT ( 'NONE',  ( -29.50000000000000000, 124.0000000000000000, 4.899999999999999467 ) ) ;
#42 = DIRECTION ( 'NONE',  ( -1.000000000000000000, -0.000000000000000000, 0.000000000000000000 ) ) ;
#43 = ORIENTED_EDGE ( 'NONE', *, *, #876, .T. ) ;
#44 = AXIS2_PLACEMENT_3D ( 'NONE', #301, #739, #661 ) ;
#45 = AXIS2_PLACEMENT_3D ( 'NONE', #387, #908, #317 ) ;
#46 = PRODUCT_DEFINITION_FORMATION_WITH_SPECIFIED_SOURCE ( 'ANY', '', #794, .NOT_KNOWN. ) ;
#47 = LINE ( 'NONE', #504, #349 ) ;
#48 = DIRECTION ( 'NONE',  ( -0.000000000000000000, -1.000000000000000000, -0.000000000000000000 ) ) ;
#49 = ORIENTED_EDGE ( 'NONE', *, *, #284, .T. ) ;
#50 = FACE_OUTER_BOUND ( 'NONE', #156, .T. ) ;
#51 = ORIENTED_EDGE ( 'NONE', *, *, #152, .T. ) ;
#52 = APPROVAL_STATUS ( 'not_yet_approved' ) ;
#53 = ADVANCED_FACE ( 'NONE', ( #631 ), #491, .T. ) ;
#54 = FACE_OUTER_BOUND ( 'NONE', #329, .T. ) ;
#55 = EDGE_LOOP ( 'NONE', ( #836, #58, #574, #389 ) ) ;
#56 =( NAMED_UNIT ( * ) SI_UNIT ( $, .STERADIAN. ) SOLID_ANGLE_UNIT ( ) );
#57 = FACE_OUTER_BOUND ( 'NONE', #283, .T. ) ;
#58 = ORIENTED_EDGE ( 'NONE', *, *, #760, .F. ) ;
#59 = ADVANCED_FACE ( 'NONE', ( #554 ), #153, .T. ) ;
#60 = CARTESIAN_POINT ( 'NONE',  ( -29.50000000000000000, 190.5000000000000000, -15.95000000000000284 ) ) ;
#61 = PERSON_AND_ORGANIZATION_ROLE ( 'creator' ) ;
#62 = CIRCLE ( 'NONE', #729, 1.000000000000000888 ) ;
#63 = CIRCLE ( 'NONE', #604, 0.5499999999999983791 ) ;
#64 = PLANE ( 'NONE',  #75 ) ;
#65 = ORIENTED_EDGE ( 'NONE', *, *, #290, .F. ) ;
#66 = AXIS2_PLACEMENT_3D ( 'NONE', #512, #801, #813 ) ;
#67 = DIRECTION ( 'NONE',  ( 0.000000000000000000, -0.6804510993672777674, 0.7327934916262991427 ) ) ;
#68 = DIRECTION ( 'NONE',  ( 0.000000000000000000, 0.000000000000000000, 1.000000000000000000 ) ) ;
#69 = EDGE_CURVE ( 'NONE', #12, #694, #744, .T. ) ;
#70 = PERSON_AND_ORGANIZATION ( #140, #763 ) ;
#71 = CARTESIAN_POINT ( 'NONE',  ( -29.50000000000000000, 225.1510434206867046, -15.43117396650520234 ) ) ;
#72 = CARTESIAN_POINT ( 'NONE',  ( -29.50000000000000000, 124.0000000000000000, 4.899999999999999467 ) ) ;
#73 = EDGE_CURVE ( 'NONE', #765, #338, #506, .T. ) ;
#74 = ORIENTED_EDGE ( 'NONE', *, *, #115, .T. ) ;
#75 = AXIS2_PLACEMENT_3D ( 'NONE', #957, #540, #236 ) ;
#76 = CARTESIAN_POINT ( 'NONE',  ( -29.50000000000000000, 170.0000000000000000, -16.50000000000000000 ) ) ;
#77 = VECTOR ( 'NONE', #288, 1000.000000000000114 ) ;
#78 = CARTESIAN_POINT ( 'NONE',  ( -29.50000000000000000, 229.3840203656924075, -10.75000000000000000 ) ) ;
#79 = CARTESIAN_POINT ( 'NONE',  ( -31.00000000000000000, 188.0000000000000000, -15.00000000000000000 ) ) ;
#80 = ORIENTED_EDGE ( 'NONE', *, *, #97, .T. ) ;
#81 = ADVANCED_FACE ( 'NONE', ( #418 ), #706, .T. ) ;
#82 = DIRECTION ( 'NONE',  ( 0.000000000000000000, 0.000000000000000000, -1.000000000000000000 ) ) ;
#83 = CARTESIAN_POINT ( 'NONE',  ( -29.50000000000000000, 200.0000000000000000, -10.00000000000000000 ) ) ;
#84 = CARTESIAN_POINT ( 'NONE',  ( -29.50000000000000000, 170.0000000000000000, -17.50000000000000000 ) ) ;
#85 = ORIENTED_EDGE ( 'NONE', *, *, #499, .F. ) ;
#86 = FACE_OUTER_BOUND ( 'NONE', #22, .T. ) ;
#87 = CARTESIAN_POINT ( 'NONE',  ( -29.50000000000000000, 134.7553341220813081, -1.100000000000001199 ) ) ;
#88 = VERTEX_POINT ( 'NONE', #636 ) ;
#89 = ORIENTED_EDGE ( 'NONE', *, *, #783, .F. ) ;
#90 = VECTOR ( 'NONE', #48, 1000.000000000000000 ) ;
#91 = CARTESIAN_POINT ( 'NONE',  ( -28.00000000000000000, 188.0000000000000000, -15.00000000000000000 ) ) ;
#92 = AXIS2_PLACEMENT_3D ( 'NONE', #734, #737, #447 ) ;
#93 = LINE ( 'NONE', #606, #812 ) ;
#94 = ORIENTED_EDGE ( 'NONE', *, *, #466, .T. ) ;
#95 = ORIENTED_EDGE ( 'NONE', *, *, #426, .F. ) ;
#96 = CARTESIAN_POINT ( 'NONE',  ( -29.50000000000000000, 140.6131567968018601, 2.732220441405971201 ) ) ;
#97 = EDGE_CURVE ( 'NONE', #821, #618, #701, .T. ) ;
#98 = FACE_OUTER_BOUND ( 'NONE', #313, .T. ) ;
#99 = CARTESIAN_POINT ( 'NONE',  ( -29.80282296261588471, 229.5753180180637969, -10.68928955083877064 ) ) ;
#100 = ORIENTED_EDGE ( 'NONE', *, *, #848, .T. ) ;
#101 = DIRECTION ( 'NONE',  ( 1.000000000000000000, 0.000000000000000000, 0.000000000000000000 ) ) ;
#102 = PERSON_AND_ORGANIZATION_ROLE ( 'classification_officer' ) ;
#103 = EDGE_CURVE ( 'NONE', #683, #319, #172, .T. ) ;
#104 = DIRECTION ( 'NONE',  ( 0.000000000000000000, 0.000000000000000000, 1.000000000000000000 ) ) ;
#105 = DIRECTION ( 'NONE',  ( 0.000000000000000000, 0.000000000000000000, 1.000000000000000000 ) ) ;
#106 = ORIENTED_EDGE ( 'NONE', *, *, #167, .T. ) ;
#107 = CYLINDRICAL_SURFACE ( 'NONE', #885, 1.000000000000005551 ) ;
#108 = APPROVAL_DATE_TIME ( #772, #306 ) ;
#109 = AXIS2_PLACEMENT_3D ( 'NONE', #497, #850, #345 ) ;
#110 = AXIS2_PLACEMENT_3D ( 'NONE', #616, #533, #228 ) ;
#111 = DIRECTION ( 'NONE',  ( 0.000000000000000000, 1.000000000000000000, 0.000000000000000000 ) ) ;
#112 = DIRECTION ( 'NONE',  ( 1.000000000000000000, 0.000000000000000000, 0.000000000000000000 ) ) ;
#113 = ORIENTED_EDGE ( 'NONE', *, *, #907, .T. ) ;
#114 = DIRECTION ( 'NONE',  ( 0.000000000000000000, 0.8368318106743655171, 0.5474600630579939953 ) ) ;
#115 = EDGE_CURVE ( 'NONE', #728, #12, #693, .T. ) ;
#116 = CARTESIAN_POINT ( 'NONE',  ( -29.50000000000000000, 124.0000000000000000, 5.900000000000000355 ) ) ;
#117 = DIRECTION ( 'NONE',  ( -1.000000000000000000, 0.000000000000000000, 0.000000000000000000 ) ) ;
#118 = ORIENTED_EDGE ( 'NONE', *, *, #284, .F. ) ;
#119 = EDGE_CURVE ( 'NONE', #224, #435, #493, .T. ) ;
#120 = CARTESIAN_POINT ( 'NONE',  ( -30.50000000000000000, 124.0000000000000000, 4.899999999999999467 ) ) ;
#121 = DIRECTION ( 'NONE',  ( 0.000000000000000000, 0.000000000000000000, 1.000000000000000000 ) ) ;
#122 = ORIENTED_EDGE ( 'NONE', *, *, #300, .T. ) ;
#123 = ORIENTED_EDGE ( 'NONE', *, *, #818, .F. ) ;
#124 = TOROIDAL_SURFACE ( 'NONE', #433, 5.999999999999986677, 1.000000000000000888 ) ;
#125 = EDGE_CURVE ( 'NONE', #129, #855, #603, .T. ) ;
#126 = LOCAL_TIME ( 17, 50, 25.00000000000000000, #23 ) ;
#127 = CYLINDRICAL_SURFACE ( 'NONE', #733, 0.7500000000000006661 ) ;
#128 = CARTESIAN_POINT ( 'NONE',  ( -28.00000000000000000, 188.0000000000000000, -18.00000000000000000 ) ) ;
#129 = VERTEX_POINT ( 'NONE', #428 ) ;
#130 = PERSON_AND_ORGANIZATION ( #140, #763 ) ;
#131 = CC_DESIGN_PERSON_AND_ORGANIZATION_ASSIGNMENT ( #777, #621, ( #46 ) ) ;
#132 = EDGE_LOOP ( 'NONE', ( #676, #922, #750, #441, #565 ) ) ;
#133 = DIRECTION ( 'NONE',  ( 0.000000000000000000, 0.7327934916262998088, 0.6804510993672772123 ) ) ;
#134 = CARTESIAN_POINT ( 'NONE',  ( -29.50000000000000000, 155.2446658779186919, -10.49999999999999822 ) ) ;
#135 = DIRECTION ( 'NONE',  ( 1.000000000000000000, 0.000000000000000000, 0.000000000000000000 ) ) ;
#136 = ORIENTED_EDGE ( 'NONE', *, *, #802, .F. ) ;
#137 = ORIENTED_EDGE ( 'NONE', *, *, #704, .F. ) ;
#138 = DIRECTION ( 'NONE',  ( 0.000000000000000000, 0.000000000000000000, 1.000000000000000000 ) ) ;
#139 = AXIS2_PLACEMENT_3D ( 'NONE', #71, #133, #439 ) ;
#140 = PERSON ( 'UNSPECIFIED', 'UNSPECIFIED', 'UNSPECIFIED', ('UNSPECIFIED'), ('UNSPECIFIED'), ('UNSPECIFIED') ) ;
#141 = VECTOR ( 'NONE', #381, 1000.000000000000000 ) ;
#142 = CIRCLE ( 'NONE', #680, 6.999999999999987566 ) ;
#143 = ORIENTED_EDGE ( 'NONE', *, *, #290, .T. ) ;
#144 = FACE_OUTER_BOUND ( 'NONE', #34, .T. ) ;
#145 = EDGE_CURVE ( 'NONE', #470, #569, #639, .T. ) ;
#146 = DIRECTION ( 'NONE',  ( -1.000000000000000000, -0.000000000000000000, 0.000000000000000000 ) ) ;
#147 = LINE ( 'NONE', #967, #141 ) ;
#148 = DIRECTION ( 'NONE',  ( -1.000000000000000000, 0.000000000000000000, 0.000000000000000000 ) ) ;
#149 = DIRECTION ( 'NONE',  ( 0.000000000000000000, 0.5474600630579961047, -0.8368318106743641849 ) ) ;
#150 = PLANE ( 'NONE',  #564 ) ;
#151 = DIRECTION ( 'NONE',  ( 0.000000000000000000, 0.000000000000000000, 1.000000000000000000 ) ) ;
#152 = EDGE_CURVE ( 'NONE', #904, #419, #845, .T. ) ;
#153 = TOROIDAL_SURFACE ( 'NONE', #285, 4.000000000000000000, 0.5499999999999983791 ) ;
#154 = AXIS2_PLACEMENT_3D ( 'NONE', #471, #620, #906 ) ;
#155 = FACE_OUTER_BOUND ( 'NONE', #354, .T. ) ;
#156 = EDGE_LOOP ( 'NONE', ( #171, #65 ) ) ;
#157 = VECTOR ( 'NONE', #827, 1000.000000000000000 ) ;
#158 = DIRECTION ( 'NONE',  ( 0.000000000000000000, -1.000000000000000000, 0.000000000000000000 ) ) ;
#159 = CIRCLE ( 'NONE', #901, 1.000000000000000888 ) ;
#160 = DIRECTION ( 'NONE',  ( 0.000000000000000000, 0.7327934916263002529, 0.6804510993672766572 ) ) ;
#161 = PLANE ( 'NONE',  #364 ) ;
#162 = VERTEX_POINT ( 'NONE', #200 ) ;
#163 = CARTESIAN_POINT ( 'NONE',  ( -29.50000000000000000, 150.2236750138725085, -13.78476037834797197 ) ) ;
#164 = CYLINDRICAL_SURFACE ( 'NONE', #45, 1.000000000000000888 ) ;
#165 = ORIENTED_EDGE ( 'NONE', *, *, #243, .F. ) ;
#166 = ORIENTED_EDGE ( 'NONE', *, *, #437, .T. ) ;
#167 = EDGE_CURVE ( 'NONE', #88, #299, #715, .T. ) ;
#168 = PLANE ( 'NONE',  #154 ) ;
#169 = DIRECTION ( 'NONE',  ( 0.000000000000000000, -1.000000000000000000, 0.000000000000000000 ) ) ;
#170 = ORIENTED_EDGE ( 'NONE', *, *, #552, .T. ) ;
#171 = ORIENTED_EDGE ( 'NONE', *, *, #258, .F. ) ;
#172 = CIRCLE ( 'NONE', #716, 4.999999999999993783 ) ;
#173 = CYLINDRICAL_SURFACE ( 'NONE', #252, 1.000000000000000888 ) ;
#174 = DATE_AND_TIME ( #916, #126 ) ;
#175 = AXIS2_PLACEMENT_3D ( 'NONE', #357, #923, #256 ) ;
#176 = SECURITY_CLASSIFICATION ( '', '', #544 ) ;
#177 = EDGE_CURVE ( 'NONE', #505, #234, #217, .T. ) ;
#178 = CARTESIAN_POINT ( 'NONE',  ( -29.50000000000000000, 170.0000000000000000, -16.50000000000000000 ) ) ;
#179 = CARTESIAN_POINT ( 'NONE',  ( -29.96502479915612227, 229.8987190673472298, -10.59527689848933285 ) ) ;
#180 = EDGE_LOOP ( 'NONE', ( #137, #943, #632, #707 ) ) ;
#181 = CARTESIAN_POINT ( 'NONE',  ( -28.96093886760478853, 230.6287001972171709, -10.52157217029370706 ) ) ;
#182 = EDGE_CURVE ( 'NONE', #765, #832, #432, .T. ) ;
#183 = LINE ( 'NONE', #927, #77 ) ;
#184 = DIRECTION ( 'NONE',  ( 0.000000000000000000, 1.000000000000000000, 0.000000000000000000 ) ) ;
#185 = ORIENTED_EDGE ( 'NONE', *, *, #466, .F. ) ;
#186 = MANIFOLD_SOLID_BREP ( 'Sweep9', #601 ) ;
#187 = DIRECTION ( 'NONE',  ( 1.000000000000000000, 0.000000000000000000, 0.000000000000000000 ) ) ;
#188 = EDGE_CURVE ( 'NONE', #770, #411, #249, .T. ) ;
#189 = DIRECTION ( 'NONE',  ( 0.000000000000000000, 0.000000000000000000, -1.000000000000000000 ) ) ;
#190 = ORIENTED_EDGE ( 'NONE', *, *, #867, .T. ) ;
#191 = MANIFOLD_SOLID_BREP ( 'Sweep7', #193 ) ;
#192 = CYLINDRICAL_SURFACE ( 'NONE', #175, 0.5500000000000002665 ) ;
#193 = CLOSED_SHELL ( 'NONE', ( #510, #629, #949, #513, #685, #596, #53, #634, #316, #889, #536, #736, #356, #472, #666, #521 ) ) ;
#194 = AXIS2_PLACEMENT_3D ( 'NONE', #83, #386, #740 ) ;
#195 = AXIS2_PLACEMENT_3D ( 'NONE', #940, #852, #339 ) ;
#196 = APPROVAL_PERSON_ORGANIZATION ( #924, #306, #245 ) ;
#197 = CARTESIAN_POINT ( 'NONE',  ( -29.50000000000000000, 155.2446658779186919, -17.50000000000000000 ) ) ;
#198 = CARTESIAN_POINT ( 'NONE',  ( -26.50000000000000000, 124.0000000000000000, 4.899999999999999467 ) ) ;
#199 = CARTESIAN_POINT ( 'NONE',  ( -28.00000000000000000, 190.5000000000000000, -18.00000000000000000 ) ) ;
#200 = CARTESIAN_POINT ( 'NONE',  ( -29.50000000000000000, 262.0000000000000000, -10.75000000000000000 ) ) ;
#201 = ORIENTED_EDGE ( 'NONE', *, *, #397, .F. ) ;
#202 = CARTESIAN_POINT ( 'NONE',  ( -29.50000000000000000, 200.0000000000000000, -10.75000000000000000 ) ) ;
#203 = DIRECTION ( 'NONE',  ( 0.000000000000000000, -0.000000000000000000, 1.000000000000000000 ) ) ;
#204 = EDGE_LOOP ( 'NONE', ( #796, #948 ) ) ;
#205 = CIRCLE ( 'NONE', #559, 1.000000000000005995 ) ;
#206 = ADVANCED_FACE ( 'NONE', ( #826 ), #819, .T. ) ;
#207 = CIRCLE ( 'NONE', #194, 0.7500000000000006661 ) ;
#208 = AXIS2_PLACEMENT_3D ( 'NONE', #896, #681, #16 ) ;
#209 = APPROVAL_PERSON_ORGANIZATION ( #721, #648, #646 ) ;
#210 = ORIENTED_EDGE ( 'NONE', *, *, #619, .T. ) ;
#211 = FACE_OUTER_BOUND ( 'NONE', #213, .T. ) ;
#212 = ORIENTED_EDGE ( 'NONE', *, *, #221, .F. ) ;
#213 = EDGE_LOOP ( 'NONE', ( #80, #933, #541, #255 ) ) ;
#214 = CARTESIAN_POINT ( 'NONE',  ( -28.00000000000000000, 190.5000000000000000, -15.00000000000000000 ) ) ;
#215 = EDGE_CURVE ( 'NONE', #797, #234, #530, .T. ) ;
#216 = CARTESIAN_POINT ( 'NONE',  ( -29.50000000000000000, 134.7553341220813081, 5.899999999999992362 ) ) ;
#217 = B_SPLINE_CURVE_WITH_KNOTS ( 'NONE', 3,
 ( #568, #501, #775, #625, #617, #921, #913, #247, #487, #548, #179, #769, #99, #405, #663, #456, #895, #78 ),
 .UNSPECIFIED., .F., .F.,
 ( 4, 2, 2, 2, 2, 2, 2, 2, 4 ),
 ( 0.002246361384130498347, 0.002526198062585525636, 0.002806034741040552925, 0.003085871419495580213, 0.003365708097950607935, 0.003925381454860664247, 0.004205218133315731868, 0.004345136472543268714, 0.004485054811770806428 ),
 .UNSPECIFIED. ) ;
#218 = VECTOR ( 'NONE', #478, 1000.000000000000000 ) ;
#219 = CIRCLE ( 'NONE', #762, 0.5499999999999983791 ) ;
#220 = AXIS2_PLACEMENT_3D ( 'NONE', #727, #436, #589 ) ;
#221 = EDGE_CURVE ( 'NONE', #162, #789, #622, .T. ) ;
#222 = CARTESIAN_POINT ( 'NONE',  ( -29.50000000000000000, 225.1510434206867046, -15.43117396650518813 ) ) ;
#223 = PLANE ( 'NONE',  #66 ) ;
#224 = VERTEX_POINT ( 'NONE', #382 ) ;
#225 = FACE_OUTER_BOUND ( 'NONE', #831, .T. ) ;
#226 = EDGE_CURVE ( 'NONE', #719, #234, #597, .T. ) ;
#227 = CARTESIAN_POINT ( 'NONE',  ( -29.50000000000000000, 170.0000000000000000, -17.50000000000000000 ) ) ;
#228 = DIRECTION ( 'NONE',  ( 0.000000000000000000, 0.000000000000000000, 1.000000000000000000 ) ) ;
#229 = VERTEX_POINT ( 'NONE', #227 ) ;
#230 = DIRECTION ( 'NONE',  ( 1.000000000000000000, 0.000000000000000000, 0.000000000000000000 ) ) ;
#231 = DIRECTION ( 'NONE',  ( 0.000000000000000000, 0.000000000000000000, 1.000000000000000000 ) ) ;
#232 = TOROIDAL_SURFACE ( 'NONE', #698, 5.999999999999986677, 1.000000000000000888 ) ;
#233 = DIRECTION ( 'NONE',  ( 0.000000000000000000, 0.000000000000000000, 1.000000000000000000 ) ) ;
#234 = VERTEX_POINT ( 'NONE', #668 ) ;
#235 = CARTESIAN_POINT ( 'NONE',  ( -28.95166159458813837, 230.3472289708836058, -10.51197656515390655 ) ) ;
#236 = DIRECTION ( 'NONE',  ( 0.000000000000000000, -0.000000000000000000, -1.000000000000000000 ) ) ;
#237 = ORIENTED_EDGE ( 'NONE', *, *, #27, .T. ) ;
#238 = ORIENTED_EDGE ( 'NONE', *, *, #321, .F. ) ;
#239 = CARTESIAN_POINT ( 'NONE',  ( -31.00000000000000000, 190.5000000000000000, -15.00000000000000000 ) ) ;
#240 = CARTESIAN_POINT ( 'NONE',  ( -29.50000000000000000, 200.0000000000000000, -10.75000000000000000 ) ) ;
#241 = ORIENTED_EDGE ( 'NONE', *, *, #258, .T. ) ;
#242 = ORIENTED_EDGE ( 'NONE', *, *, #300, .F. ) ;
#243 = EDGE_CURVE ( 'NONE', #338, #129, #14, .T. ) ;
#244 = LINE ( 'NONE', #483, #269 ) ;
#245 = APPROVAL_ROLE ( '' ) ;
#246 = DIRECTION ( 'NONE',  ( 1.000000000000000000, 0.000000000000000000, 0.000000000000000000 ) ) ;
#247 = CARTESIAN_POINT ( 'NONE',  ( -30.05436393284752583, 230.4457142331586113, -10.50528629652638379 ) ) ;
#248 = VERTEX_POINT ( 'NONE', #463 ) ;
#249 = CIRCLE ( 'NONE', #529, 6.999999999999995559 ) ;
#250 = CARTESIAN_POINT ( 'NONE',  ( -29.29054822145241488, 229.4745610309365134, -10.72089870598342287 ) ) ;
#251 = CALENDAR_DATE ( 2026, 29, 9 ) ;
#252 = AXIS2_PLACEMENT_3D ( 'NONE', #539, #101, #834 ) ;
#253 = DIRECTION ( 'NONE',  ( 0.000000000000000000, -0.5474600630579961047, 0.8368318106743640739 ) ) ;
#254 = DIRECTION ( 'NONE',  ( -1.000000000000000000, 0.000000000000000000, 0.000000000000000000 ) ) ;
#255 = ORIENTED_EDGE ( 'NONE', *, *, #870, .T. ) ;
#256 = DIRECTION ( 'NONE',  ( 0.000000000000000000, -0.6804510993672777674, 0.7327934916262991427 ) ) ;
#257 = SHAPE_DEFINITION_REPRESENTATION ( #507, #863 ) ;
#258 = EDGE_CURVE ( 'NONE', #514, #719, #207, .T. ) ;
#259 = DIRECTION ( 'NONE',  ( -1.000000000000000000, 0.000000000000000000, 0.000000000000000000 ) ) ;
#260 = DIRECTION ( 'NONE',  ( 0.000000000000000000, 0.000000000000000000, 1.000000000000000000 ) ) ;
#261 = ORIENTED_EDGE ( 'NONE', *, *, #732, .T. ) ;
#262 = DIRECTION ( 'NONE',  ( 0.000000000000000000, 0.000000000000000000, -1.000000000000000000 ) ) ;
#263 = PERSON_AND_ORGANIZATION ( #140, #763 ) ;
#264 = CC_DESIGN_PERSON_AND_ORGANIZATION_ASSIGNMENT ( #130, #61, ( #724 ) ) ;
#265 = LINE ( 'NONE', #700, #935 ) ;
#266 = DIRECTION ( 'NONE',  ( 0.000000000000000000, 1.000000000000000000, 0.000000000000000000 ) ) ;
#267 = ORIENTED_EDGE ( 'NONE', *, *, #437, .F. ) ;
#268 = CARTESIAN_POINT ( 'NONE',  ( -29.50000000000000000, 155.2446658779186919, -10.49999999999999822 ) ) ;
#269 = VECTOR ( 'NONE', #158, 1000.000000000000000 ) ;
#270 = AXIS2_PLACEMENT_3D ( 'NONE', #24, #709, #104 ) ;
#271 = TOROIDAL_SURFACE ( 'NONE', #494, 2.999999999999999112, 1.000000000000000888 ) ;
#272 = APPROVAL_PERSON_ORGANIZATION ( #839, #580, #340 ) ;
#273 = EDGE_CURVE ( 'NONE', #248, #12, #884, .T. ) ;
#274 = CARTESIAN_POINT ( 'NONE',  ( -29.50000000000000000, 190.5000000000000000, -16.50000000000000000 ) ) ;
#275 = CARTESIAN_POINT ( 'NONE',  ( -26.49999999999999645, 121.0000000000000000, 3.899999999999999023 ) ) ;
#276 = ORIENTED_EDGE ( 'NONE', *, *, #561, .T. ) ;
#277 = ORIENTED_EDGE ( 'NONE', *, *, #103, .T. ) ;
#278 = DIRECTION ( 'NONE',  ( 0.000000000000000000, 0.000000000000000000, 1.000000000000000000 ) ) ;
#279 = CARTESIAN_POINT ( 'NONE',  ( -29.50000000000000000, 200.0000000000000000, -10.00000000000000000 ) ) ;
#280 = ORIENTED_EDGE ( 'NONE', *, *, #391, .F. ) ;
#281 = EDGE_CURVE ( 'NONE', #88, #338, #965, .T. ) ;
#282 = DATE_AND_TIME ( #947, #550 ) ;
#283 = EDGE_LOOP ( 'NONE', ( #953, #498, #542, #702 ) ) ;
#284 = EDGE_CURVE ( 'NONE', #683, #770, #62, .T. ) ;
#285 = AXIS2_PLACEMENT_3D ( 'NONE', #33, #854, #189 ) ;
#286 = VECTOR ( 'NONE', #735, 1000.000000000000000 ) ;
#287 = CIRCLE ( 'NONE', #195, 0.5499999999999989342 ) ;
#288 = DIRECTION ( 'NONE',  ( 0.000000000000000000, -0.5474600630579961047, 0.8368318106743641849 ) ) ;
#289 = DIRECTION ( 'NONE',  ( 0.000000000000000000, 0.000000000000000000, 1.000000000000000000 ) ) ;
#290 = EDGE_CURVE ( 'NONE', #719, #514, #856, .T. ) ;
#291 = DIRECTION ( 'NONE',  ( 0.000000000000000000, -0.000000000000000000, 1.000000000000000000 ) ) ;
#292 = CARTESIAN_POINT ( 'NONE',  ( -29.50000000000000000, 222.4292390232176047, -16.50000000000000000 ) ) ;
#293 = APPLICATION_CONTEXT ( 'configuration controlled 3d designs of mechanical parts and assemblies' ) ;
#294 = ADVANCED_FACE ( 'NONE', ( #144 ), #374, .T. ) ;
#295 = CARTESIAN_POINT ( 'NONE',  ( -29.50000000000000000, 155.2446658779186919, -16.50000000000000000 ) ) ;
#296 = AXIS2_PLACEMENT_3D ( 'NONE', #5, #148, #231 ) ;
#297 = FACE_OUTER_BOUND ( 'NONE', #738, .T. ) ;
#298 = CIRCLE ( 'NONE', #842, 4.999999999999985789 ) ;
#299 = VERTEX_POINT ( 'NONE', #817 ) ;
#300 = EDGE_CURVE ( 'NONE', #851, #248, #743, .T. ) ;
#301 = CARTESIAN_POINT ( 'NONE',  ( -29.50000000000000000, 124.0000000000000000, 4.899999999999999467 ) ) ;
#302 = DIRECTION ( 'NONE',  ( 0.000000000000000000, 1.000000000000000000, 0.000000000000000000 ) ) ;
#303 = DIRECTION ( 'NONE',  ( 0.000000000000000000, -0.000000000000000000, 1.000000000000000000 ) ) ;
#304 = EDGE_LOOP ( 'NONE', ( #805, #201, #94, #323 ) ) ;
#305 = LINE ( 'NONE', #581, #824 ) ;
#306 = APPROVAL ( #484, 'UNSPECIFIED' ) ;
#307 = DIRECTION ( 'NONE',  ( 0.000000000000000000, 0.000000000000000000, 1.000000000000000000 ) ) ;
#308 = FACE_OUTER_BOUND ( 'NONE', #476, .T. ) ;
#309 = ORIENTED_EDGE ( 'NONE', *, *, #273, .F. ) ;
#310 = CARTESIAN_POINT ( 'NONE',  ( -16.29999999999999361, 121.0000000000000000, 4.899999999999999467 ) ) ;
#311 = VECTOR ( 'NONE', #410, 1000.000000000000000 ) ;
#312 = DIRECTION ( 'NONE',  ( 0.000000000000000000, -1.000000000000000000, 0.000000000000000000 ) ) ;
#313 = EDGE_LOOP ( 'NONE', ( #571, #431, #324, #267 ) ) ;
#314 = ORIENTED_EDGE ( 'NONE', *, *, #964, .T. ) ;
#315 = CARTESIAN_POINT ( 'NONE',  ( -29.31256878882593142, 230.9847066187708435, -10.73157032641040942 ) ) ;
#316 = ADVANCED_FACE ( 'NONE', ( #225 ), #232, .T. ) ;
#317 = DIRECTION ( 'NONE',  ( 0.000000000000000000, 0.000000000000000000, -1.000000000000000000 ) ) ;
#318 = EDGE_LOOP ( 'NONE', ( #641, #113, #828, #185 ) ) ;
#319 = VERTEX_POINT ( 'NONE', #959 ) ;
#320 = LINE ( 'NONE', #695, #577 ) ;
#321 = EDGE_CURVE ( 'NONE', #770, #683, #330, .T. ) ;
#322 = CARTESIAN_POINT ( 'NONE',  ( -29.50000000000000000, 190.5000000000000000, -17.05000000000000071 ) ) ;
#323 = ORIENTED_EDGE ( 'NONE', *, *, #9, .T. ) ;
#324 = ORIENTED_EDGE ( 'NONE', *, *, #583, .F. ) ;
#325 = CARTESIAN_POINT ( 'NONE',  ( -28.94566575546186726, 230.4423097101110329, -10.50530978480180444 ) ) ;
#326 = CALENDAR_DATE ( 2026, 29, 9 ) ;
#327 = DIRECTION ( 'NONE',  ( 0.000000000000000000, 0.000000000000000000, -1.000000000000000000 ) ) ;
#328 = CARTESIAN_POINT ( 'NONE',  ( -31.00000000000000000, 188.0000000000000000, -15.00000000000000000 ) ) ;
#329 = EDGE_LOOP ( 'NONE', ( #712, #276, #95, #670 ) ) ;
#330 = CIRCLE ( 'NONE', #662, 1.000000000000000888 ) ;
#331 = CARTESIAN_POINT ( 'NONE',  ( -26.50000000000000000, 124.0000000000000000, 4.899999999999999467 ) ) ;
#332 = PERSON_AND_ORGANIZATION_ROLE ( 'design_supplier' ) ;
#333 = AXIS2_PLACEMENT_3D ( 'NONE', #383, #233, #835 ) ;
#334 = EDGE_CURVE ( 'NONE', #832, #224, #872, .T. ) ;
#335 = LOCAL_TIME ( 17, 50, 25.00000000000000000, #402 ) ;
#336 = CARTESIAN_POINT ( 'NONE',  ( -26.49999999999999645, 122.0000000000000000, 4.899999999999999467 ) ) ;
#337 = CARTESIAN_POINT ( 'NONE',  ( -31.00000000000000000, 190.5000000000000000, -18.00000000000000000 ) ) ;
#338 = VERTEX_POINT ( 'NONE', #888 ) ;
#339 = DIRECTION ( 'NONE',  ( 0.000000000000000000, -0.6804510993672794328, 0.7327934916262978104 ) ) ;
#340 = APPROVAL_ROLE ( '' ) ;
#341 = DIRECTION ( 'NONE',  ( 0.000000000000000000, 1.000000000000000000, 0.000000000000000000 ) ) ;
#342 = DIRECTION ( 'NONE',  ( -1.000000000000000000, -0.000000000000000000, 0.000000000000000000 ) ) ;
#343 = ORIENTED_EDGE ( 'NONE', *, *, #69, .F. ) ;
#344 = CARTESIAN_POINT ( 'NONE',  ( -29.50000000000000000, 150.2236750138725085, -13.78476037834797197 ) ) ;
#345 = DIRECTION ( 'NONE',  ( 0.000000000000000000, 0.000000000000000000, 1.000000000000000000 ) ) ;
#346 = ORIENTED_EDGE ( 'NONE', *, *, #334, .F. ) ;
#347 = EDGE_LOOP ( 'NONE', ( #343, #837, #373, #502 ) ) ;
#348 = VECTOR ( 'NONE', #481, 1000.000000000000000 ) ;
#349 = VECTOR ( 'NONE', #560, 1000.000000000000000 ) ;
#350 = CC_DESIGN_APPROVAL ( #306, ( #46 ) ) ;
#351 = PLANE ( 'NONE',  #642 ) ;
#352 = ADVANCED_FACE ( 'NONE', ( #893 ), #150, .F. ) ;
#353 = ORIENTED_EDGE ( 'NONE', *, *, #798, .F. ) ;
#354 = EDGE_LOOP ( 'NONE', ( #766, #74, #309, #242 ) ) ;
#355 =( NAMED_UNIT ( * ) PLANE_ANGLE_UNIT ( ) SI_UNIT ( $, .RADIAN. ) );
#356 = ADVANCED_FACE ( 'NONE', ( #814 ), #453, .T. ) ;
#357 = CARTESIAN_POINT ( 'NONE',  ( -29.50000000000000000, 225.1510434206867046, -15.43117396650518813 ) ) ;
#358 = VERTEX_POINT ( 'NONE', #955 ) ;
#359 = CALENDAR_DATE ( 2026, 29, 9 ) ;
#360 = ORIENTED_EDGE ( 'NONE', *, *, #281, .T. ) ;
#361 = CARTESIAN_POINT ( 'NONE',  ( -26.49999999999999645, 121.0000000000000000, 4.899999999999999467 ) ) ;
#362 = EDGE_CURVE ( 'NONE', #637, #683, #147, .T. ) ;
#363 = AXIS2_PLACEMENT_3D ( 'NONE', #673, #525, #151 ) ;
#364 = AXIS2_PLACEMENT_3D ( 'NONE', #464, #1, #303 ) ;
#365 = AXIS2_PLACEMENT_3D ( 'NONE', #692, #327, #920 ) ;
#366 = FACE_OUTER_BOUND ( 'NONE', #791, .T. ) ;
#367 = FACE_BOUND ( 'NONE', #204, .T. ) ;
#368 = DIRECTION ( 'NONE',  ( 0.000000000000000000, 1.000000000000000000, 0.000000000000000000 ) ) ;
#369 = CC_DESIGN_PERSON_AND_ORGANIZATION_ASSIGNMENT ( #263, #102, ( #176 ) ) ;
#370 = APPLICATION_PROTOCOL_DEFINITION ( 'international standard', 'config_control_design', 1994, #585 ) ;
#371 = DIRECTION ( 'NONE',  ( 1.000000000000000000, 0.000000000000000000, 0.000000000000000000 ) ) ;
#372 = PERSON_AND_ORGANIZATION_ROLE ( 'design_owner' ) ;
#373 = ORIENTED_EDGE ( 'NONE', *, *, #917, .T. ) ;
#374 = CYLINDRICAL_SURFACE ( 'NONE', #650, 0.5500000000000002665 ) ;
#375 = AXIS2_PLACEMENT_3D ( 'NONE', #667, #730, #289 ) ;
#376 = DIRECTION ( 'NONE',  ( 0.000000000000000000, 1.000000000000000000, 0.000000000000000000 ) ) ;
#377 = AXIS2_PLACEMENT_3D ( 'NONE', #163, #467, #114 ) ;
#378 = EDGE_CURVE ( 'NONE', #789, #162, #455, .T. ) ;
#379 = DIRECTION ( 'NONE',  ( 0.000000000000000000, 0.000000000000000000, -1.000000000000000000 ) ) ;
#380 = LINE ( 'NONE', #665, #963 ) ;
#381 = DIRECTION ( 'NONE',  ( 0.000000000000000000, -1.000000000000000000, 0.000000000000000000 ) ) ;
#382 = CARTESIAN_POINT ( 'NONE',  ( -28.49999999999999645, 124.0000000000000000, 4.899999999999999467 ) ) ;
#383 = CARTESIAN_POINT ( 'NONE',  ( -26.50000000000000000, 124.0000000000000000, 4.899999999999999467 ) ) ;
#384 = ORIENTED_EDGE ( 'NONE', *, *, #9, .F. ) ;
#385 = CARTESIAN_POINT ( 'NONE',  ( -29.50000000000000000, 200.0000000000000000, -9.250000000000000000 ) ) ;
#386 = DIRECTION ( 'NONE',  ( 0.000000000000000000, 1.000000000000000000, 0.000000000000000000 ) ) ;
#387 = CARTESIAN_POINT ( 'NONE',  ( -29.50000000000000000, 134.7553341220813081, 4.900000000000001243 ) ) ;
#388 = ORIENTED_EDGE ( 'NONE', *, *, #378, .F. ) ;
#389 = ORIENTED_EDGE ( 'NONE', *, *, #321, .T. ) ;
#390 = CARTESIAN_POINT ( 'NONE',  ( -29.04323588010747059, 229.9020718954949984, -10.59572633775024642 ) ) ;
#391 = EDGE_CURVE ( 'NONE', #129, #11, #305, .T. ) ;
#392 = AXIS2_PLACEMENT_3D ( 'NONE', #862, #341, #572 ) ;
#393 = CARTESIAN_POINT ( 'NONE',  ( -29.50000000000000000, 134.7553341220813081, 4.900000000000001243 ) ) ;
#394 = VERTEX_POINT ( 'NONE', #511 ) ;
#395 = ORIENTED_EDGE ( 'NONE', *, *, #397, .T. ) ;
#396 = CARTESIAN_POINT ( 'NONE',  ( -29.07848041168654518, 230.8646791126648736, -10.62328402026312268 ) ) ;
#397 = EDGE_CURVE ( 'NONE', #411, #319, #29, .T. ) ;
#398 = CARTESIAN_POINT ( 'NONE',  ( -29.50000000000000000, 190.5000000000000000, -16.50000000000000000 ) ) ;
#399 = ORIENTED_EDGE ( 'NONE', *, *, #39, .T. ) ;
#400 = VERTEX_POINT ( 'NONE', #216 ) ;
#401 = DIRECTION ( 'NONE',  ( 0.000000000000000000, -0.5474600630579961047, 0.8368318106743641849 ) ) ;
#402 = COORDINATED_UNIVERSAL_TIME_OFFSET ( 12, 0, .AHEAD. ) ;
#403 = DIRECTION ( 'NONE',  ( -1.000000000000000000, 0.000000000000000000, -0.000000000000000000 ) ) ;
#404 = EDGE_CURVE ( 'NONE', #797, #694, #413, .T. ) ;
#405 = CARTESIAN_POINT ( 'NONE',  ( -29.70942191651623432, 229.4744970424172550, -10.72091810823456548 ) ) ;
#406 = ORIENTED_EDGE ( 'NONE', *, *, #334, .T. ) ;
#407 = CARTESIAN_POINT ( 'NONE',  ( -29.50000000000000000, 231.0005950189229509, -10.75000000000000000 ) ) ;
#408 = DATE_TIME_ROLE ( 'classification_date' ) ;
#409 = DIRECTION ( 'NONE',  ( 0.000000000000000000, -1.000000000000000000, 0.000000000000000000 ) ) ;
#410 = DIRECTION ( 'NONE',  ( -1.000000000000000000, -0.000000000000000000, -0.000000000000000000 ) ) ;
#411 = VERTEX_POINT ( 'NONE', #878 ) ;
#412 = PRODUCT_RELATED_PRODUCT_CATEGORY ( 'detail', '', ( #794 ) ) ;
#413 = CIRCLE ( 'NONE', #139, 0.5499999999999989342 ) ;
#414 = CARTESIAN_POINT ( 'NONE',  ( -29.50000000000000000, 150.2236750138725085, -13.78476037834797197 ) ) ;
#415 = TOROIDAL_SURFACE ( 'NONE', #333, 2.999999999999999112, 1.000000000000000888 ) ;
#416 = LOCAL_TIME ( 17, 50, 25.00000000000000000, #723 ) ;
#417 = CARTESIAN_POINT ( 'NONE',  ( -29.50000000000000000, 134.7553341220813081, 3.900000000000000799 ) ) ;
#418 = FACE_OUTER_BOUND ( 'NONE', #429, .T. ) ;
#419 = VERTEX_POINT ( 'NONE', #214 ) ;
#420 = DIRECTION ( 'NONE',  ( 0.000000000000000000, -0.5474600630579961047, 0.8368318106743640739 ) ) ;
#421 = DIRECTION ( 'NONE',  ( 0.000000000000000000, 0.000000000000000000, 1.000000000000000000 ) ) ;
#422 = DIRECTION ( 'NONE',  ( 0.000000000000000000, 0.000000000000000000, 1.000000000000000000 ) ) ;
#423 = ORIENTED_EDGE ( 'NONE', *, *, #792, .T. ) ;
#424 = DIRECTION ( 'NONE',  ( 1.000000000000000000, 0.000000000000000000, 0.000000000000000000 ) ) ;
#425 = ORIENTED_EDGE ( 'NONE', *, *, #378, .T. ) ;
#426 = EDGE_CURVE ( 'NONE', #234, #505, #926, .T. ) ;
#427 = CARTESIAN_POINT ( 'NONE',  ( -29.50000000000000000, 224.7767953160347076, -15.02813754611072916 ) ) ;
#428 = CARTESIAN_POINT ( 'NONE',  ( -26.49999999999999645, 121.0000000000000000, 5.900000000000000355 ) ) ;
#429 = EDGE_LOOP ( 'NONE', ( #241, #874, #905, #423, #388, #869 ) ) ;
#430 = CARTESIAN_POINT ( 'NONE',  ( -29.50000000000000000, 225.5252915253387016, -15.83421038689965243 ) ) ;
#431 = ORIENTED_EDGE ( 'NONE', *, *, #97, .F. ) ;
#432 = CIRCLE ( 'NONE', #444, 1.000000000000000888 ) ;
#433 = AXIS2_PLACEMENT_3D ( 'NONE', #87, #246, #830 ) ;
#434 = DIRECTION ( 'NONE',  ( 0.000000000000000000, 1.000000000000000000, 0.000000000000000000 ) ) ;
#435 = VERTEX_POINT ( 'NONE', #684 ) ;
#436 = DIRECTION ( 'NONE',  ( -1.000000000000000000, 0.000000000000000000, 0.000000000000000000 ) ) ;
#437 = EDGE_CURVE ( 'NONE', #394, #358, #320, .T. ) ;
#438 = ORIENTED_EDGE ( 'NONE', *, *, #3, .F. ) ;
#439 = DIRECTION ( 'NONE',  ( 0.000000000000000000, -0.6804510993672794328, 0.7327934916262978104 ) ) ;
#440 = DIRECTION ( 'NONE',  ( 0.000000000000000000, 0.000000000000000000, 1.000000000000000000 ) ) ;
#441 = ORIENTED_EDGE ( 'NONE', *, *, #3, .T. ) ;
#442 = EDGE_LOOP ( 'NONE', ( #123, #469, #49, #711 ) ) ;
#443 = DIRECTION ( 'NONE',  ( 0.000000000000000000, 0.8368318106743655171, 0.5474600630579939953 ) ) ;
#444 = AXIS2_PLACEMENT_3D ( 'NONE', #72, #376, #307 ) ;
#445 = CIRCLE ( 'NONE', #15, 1.999999999999998224 ) ;
#446 =( GEOMETRIC_REPRESENTATION_CONTEXT ( 3 ) GLOBAL_UNCERTAINTY_ASSIGNED_CONTEXT ( ( #713 ) ) GLOBAL_UNIT_ASSIGNED_CONTEXT ( ( #879, #355, #56 ) ) REPRESENTATION_CONTEXT ( 'NONE', 'WORKASPACE' ) );
#447 = DIRECTION ( 'NONE',  ( 1.000000000000000000, 0.000000000000000000, 0.000000000000000000 ) ) ;
#448 = DIRECTION ( 'NONE',  ( 0.000000000000000000, 0.7327934916263003640, 0.6804510993672766572 ) ) ;
#449 = DIRECTION ( 'NONE',  ( 1.000000000000000000, 0.000000000000000000, 0.000000000000000000 ) ) ;
#450 = ADVANCED_FACE ( 'NONE', ( #19 ), #168, .T. ) ;
#451 = CARTESIAN_POINT ( 'NONE',  ( -29.50000000000000000, 200.0000000000000000, -10.75000000000000000 ) ) ;
#452 = DIRECTION ( 'NONE',  ( 0.000000000000000000, 0.8368318106743660723, 0.5474600630579934402 ) ) ;
#453 = PLANE ( 'NONE',  #678 ) ;
#454 = AXIS2_PLACEMENT_3D ( 'NONE', #892, #254, #260 ) ;
#455 = CIRCLE ( 'NONE', #375, 0.7500000000000006661 ) ;
#456 = CARTESIAN_POINT ( 'NONE',  ( -29.59390740865533687, 229.3986922499011030, -10.74522489463286767 ) ) ;
#457 = EDGE_CURVE ( 'NONE', #400, #832, #244, .T. ) ;
#458 = VECTOR ( 'NONE', #434, 1000.000000000000000 ) ;
#459 = VECTOR ( 'NONE', #496, 1000.000000000000000 ) ;
#460 = FACE_OUTER_BOUND ( 'NONE', #180, .T. ) ;
#461 = EDGE_LOOP ( 'NONE', ( #675, #143, #210, #212, #647, #946 ) ) ;
#462 = DIRECTION ( 'NONE',  ( 1.000000000000000000, 0.000000000000000000, 0.000000000000000000 ) ) ;
#463 = CARTESIAN_POINT ( 'NONE',  ( -29.50000000000000000, 222.4292390232176047, -15.95000000000000284 ) ) ;
#464 = CARTESIAN_POINT ( 'NONE',  ( -31.00000000000000000, 188.0000000000000000, -15.00000000000000000 ) ) ;
#465 = VERTEX_POINT ( 'NONE', #96 ) ;
#466 = EDGE_CURVE ( 'NONE', #411, #866, #771, .T. ) ;
#467 = DIRECTION ( 'NONE',  ( 0.000000000000000000, 0.5474600630579976590, -0.8368318106743631857 ) ) ;
#468 = LINE ( 'NONE', #79, #699 ) ;
#469 = ORIENTED_EDGE ( 'NONE', *, *, #362, .T. ) ;
#470 = VERTEX_POINT ( 'NONE', #239 ) ;
#471 = CARTESIAN_POINT ( 'NONE',  ( -29.50000000000000000, 262.0000000000000000, -10.00000000000000000 ) ) ;
#472 = ADVANCED_FACE ( 'NONE', ( #86 ), #173, .T. ) ;
#473 = AXIS2_PLACEMENT_3D ( 'NONE', #806, #659, #4 ) ;
#474 = AXIS2_PLACEMENT_3D ( 'NONE', #803, #135, #654 ) ;
#475 = DIRECTION ( 'NONE',  ( 1.000000000000000000, 0.000000000000000000, 0.000000000000000000 ) ) ;
#476 = EDGE_LOOP ( 'NONE', ( #958, #438, #776, #754, #399, #360 ) ) ;
#477 = ORIENTED_EDGE ( 'NONE', *, *, #281, .F. ) ;
#478 = DIRECTION ( 'NONE',  ( -0.000000000000000000, -0.000000000000000000, -1.000000000000000000 ) ) ;
#479 = DATE_AND_TIME ( #251, #335 ) ;
#480 = DIRECTION ( 'NONE',  ( 0.000000000000000000, -1.000000000000000000, 0.000000000000000000 ) ) ;
#481 = DIRECTION ( 'NONE',  ( 1.000000000000000000, 0.000000000000000000, 0.000000000000000000 ) ) ;
#482 = ORIENTED_EDGE ( 'NONE', *, *, #960, .F. ) ;
#483 = CARTESIAN_POINT ( 'NONE',  ( -29.50000000000000000, 134.7553341220813081, 5.900000000000002132 ) ) ;
#484 = APPROVAL_STATUS ( 'not_yet_approved' ) ;
#485 = CC_DESIGN_DATE_AND_TIME_ASSIGNMENT ( #649, #950, ( #724 ) ) ;
#486 = CARTESIAN_POINT ( 'NONE',  ( -29.50000000000000000, 262.0000000000000000, -9.250000000000000000 ) ) ;
#487 = CARTESIAN_POINT ( 'NONE',  ( -30.04865974319494271, 230.3508749931601471, -10.51162924799575471 ) ) ;
#488 = EDGE_LOOP ( 'NONE', ( #17, #941 ) ) ;
#489 = COORDINATED_UNIVERSAL_TIME_OFFSET ( 12, 0, .AHEAD. ) ;
#490 = DIRECTION ( 'NONE',  ( 0.000000000000000000, -0.8368318106743664053, -0.5474600630579929961 ) ) ;
#491 = CYLINDRICAL_SURFACE ( 'NONE', #697, 1.000000000000000888 ) ;
#492 = ORIENTED_EDGE ( 'NONE', *, *, #570, .T. ) ;
#493 = CIRCLE ( 'NONE', #793, 1.000000000000000888 ) ;
#494 = AXIS2_PLACEMENT_3D ( 'NONE', #331, #628, #230 ) ;
#495 = CIRCLE ( 'NONE', #579, 0.5499999999999983791 ) ;
#496 = DIRECTION ( 'NONE',  ( -0.000000000000000000, -1.000000000000000000, -0.000000000000000000 ) ) ;
#497 = CARTESIAN_POINT ( 'NONE',  ( -29.50000000000000000, 200.0000000000000000, -10.00000000000000000 ) ) ;
#498 = ORIENTED_EDGE ( 'NONE', *, *, #69, .T. ) ;
#499 = EDGE_CURVE ( 'NONE', #904, #358, #759, .T. ) ;
#500 = CARTESIAN_POINT ( 'NONE',  ( -29.50000000000000000, 190.5000000000000000, -16.50000000000000000 ) ) ;
#501 = CARTESIAN_POINT ( 'NONE',  ( -29.59326705212611941, 231.0005950189229509, -10.74999999999999822 ) ) ;
#502 = ORIENTED_EDGE ( 'NONE', *, *, #552, .F. ) ;
#503 = ORIENTED_EDGE ( 'NONE', *, *, #657, .T. ) ;
#504 = CARTESIAN_POINT ( 'NONE',  ( -28.00000000000000000, 190.5000000000000000, -15.00000000000000000 ) ) ;
#505 = VERTEX_POINT ( 'NONE', #407 ) ;
#506 = CIRCLE ( 'NONE', #899, 4.000000000000000000 ) ;
#507 = PRODUCT_DEFINITION_SHAPE ( 'NONE', 'NONE',  #724 ) ;
#508 = TOROIDAL_SURFACE ( 'NONE', #652, 5.999999999999994671, 1.000000000000000888 ) ;
#509 = TOROIDAL_SURFACE ( 'NONE', #31, 5.999999999999994671, 1.000000000000000888 ) ;
#510 = ADVANCED_FACE ( 'NONE', ( #689 ), #271, .T. ) ;
#511 = CARTESIAN_POINT ( 'NONE',  ( -31.00000000000000000, 188.0000000000000000, -18.00000000000000000 ) ) ;
#512 = CARTESIAN_POINT ( 'NONE',  ( -28.00000000000000000, 188.0000000000000000, -15.00000000000000000 ) ) ;
#513 = ADVANCED_FACE ( 'NONE', ( #28 ), #528, .T. ) ;
#514 = VERTEX_POINT ( 'NONE', #385 ) ;
#515 = DIRECTION ( 'NONE',  ( 0.000000000000000000, 1.000000000000000000, 0.000000000000000000 ) ) ;
#516 = DIRECTION ( 'NONE',  ( 0.000000000000000000, 1.000000000000000000, 0.000000000000000000 ) ) ;
#517 = ORIENTED_EDGE ( 'NONE', *, *, #145, .T. ) ;
#518 = CARTESIAN_POINT ( 'NONE',  ( -29.50000000000000000, 155.2446658779186919, -16.50000000000000000 ) ) ;
#519 = CIRCLE ( 'NONE', #900, 1.000000000000000888 ) ;
#520 = DIRECTION ( 'NONE',  ( 1.000000000000000000, 0.000000000000000000, 0.000000000000000000 ) ) ;
#521 = ADVANCED_FACE ( 'NONE', ( #671 ), #8, .F. ) ;
#522 = CARTESIAN_POINT ( 'NONE',  ( -29.50000000000000000, 262.0000000000000000, -10.00000000000000000 ) ) ;
#523 = DIRECTION ( 'NONE',  ( 0.000000000000000000, 0.000000000000000000, 1.000000000000000000 ) ) ;
#524 = CARTESIAN_POINT ( 'NONE',  ( -29.50000000000000000, 134.7553341220813081, -1.100000000000001199 ) ) ;
#525 = DIRECTION ( 'NONE',  ( 0.000000000000000000, 1.000000000000000000, 0.000000000000000000 ) ) ;
#526 = CARTESIAN_POINT ( 'NONE',  ( -29.50000000000000000, 134.7553341220813081, 3.899999999999990141 ) ) ;
#527 = ORIENTED_EDGE ( 'NONE', *, *, #880, .T. ) ;
#528 = CYLINDRICAL_SURFACE ( 'NONE', #745, 1.000000000000000888 ) ;
#529 = AXIS2_PLACEMENT_3D ( 'NONE', #752, #591, #968 ) ;
#530 = LINE ( 'NONE', #890, #546 ) ;
#531 = AXIS2_PLACEMENT_3D ( 'NONE', #398, #686, #20 ) ;
#532 = EDGE_CURVE ( 'NONE', #319, #411, #30, .T. ) ;
#533 = DIRECTION ( 'NONE',  ( 0.000000000000000000, 1.000000000000000000, 0.000000000000000000 ) ) ;
#534 = ORIENTED_EDGE ( 'NONE', *, *, #657, .F. ) ;
#535 = CARTESIAN_POINT ( 'NONE',  ( -28.98400652462400018, 230.7199181341263454, -10.54764264499462278 ) ) ;
#536 = ADVANCED_FACE ( 'NONE', ( #786 ), #508, .T. ) ;
#537 = EDGE_LOOP ( 'NONE', ( #425, #38 ) ) ;
#538 = ORIENTED_EDGE ( 'NONE', *, *, #115, .F. ) ;
#539 = CARTESIAN_POINT ( 'NONE',  ( -26.49999999999999645, 121.0000000000000000, 4.899999999999999467 ) ) ;
#540 = DIRECTION ( 'NONE',  ( 0.000000000000000000, -1.000000000000000000, 0.000000000000000000 ) ) ;
#541 = ORIENTED_EDGE ( 'NONE', *, *, #27, .F. ) ;
#542 = ORIENTED_EDGE ( 'NONE', *, *, #404, .F. ) ;
#543 = CARTESIAN_POINT ( 'NONE',  ( -29.50000000000000000, 149.3868432031981399, -14.33222044140596729 ) ) ;
#544 = SECURITY_CLASSIFICATION_LEVEL ( 'unclassified' ) ;
#545 = CIRCLE ( 'NONE', #454, 1.000000000000000888 ) ;
#546 = VECTOR ( 'NONE', #160, 1000.000000000000114 ) ;
#547 = LINE ( 'NONE', #84, #578 ) ;
#548 = CARTESIAN_POINT ( 'NONE',  ( -30.01285291136337818, 230.0762253724952302, -10.54831550783823602 ) ) ;
#549 = ORIENTED_EDGE ( 'NONE', *, *, #583, .T. ) ;
#550 = LOCAL_TIME ( 17, 50, 25.00000000000000000, #877 ) ;
#551 = DIRECTION ( 'NONE',  ( 1.000000000000000000, 0.000000000000000000, 0.000000000000000000 ) ) ;
#552 = EDGE_CURVE ( 'NONE', #694, #797, #287, .T. ) ;
#553 = CARTESIAN_POINT ( 'NONE',  ( -28.00000000000000000, 188.0000000000000000, -15.00000000000000000 ) ) ;
#554 = FACE_OUTER_BOUND ( 'NONE', #347, .T. ) ;
#555 = ORIENTED_EDGE ( 'NONE', *, *, #125, .F. ) ;
#556 = FACE_OUTER_BOUND ( 'NONE', #318, .T. ) ;
#557 = CARTESIAN_POINT ( 'NONE',  ( 0.000000000000000000, 0.000000000000000000, -15.00000000000000000 ) ) ;
#558 = ORIENTED_EDGE ( 'NONE', *, *, #532, .T. ) ;
#559 = AXIS2_PLACEMENT_3D ( 'NONE', #816, #149, #452 ) ;
#560 = DIRECTION ( 'NONE',  ( -0.000000000000000000, -0.000000000000000000, -1.000000000000000000 ) ) ;
#561 = EDGE_CURVE ( 'NONE', #694, #505, #35, .T. ) ;
#562 = DIRECTION ( 'NONE',  ( 0.000000000000000000, 0.000000000000000000, -1.000000000000000000 ) ) ;
#563 = EDGE_LOOP ( 'NONE', ( #166, #85, #914, #503 ) ) ;
#564 = AXIS2_PLACEMENT_3D ( 'NONE', #586, #520, #651 ) ;
#565 = ORIENTED_EDGE ( 'NONE', *, *, #182, .T. ) ;
#566 = VECTOR ( 'NONE', #111, 1000.000000000000000 ) ;
#567 = CARTESIAN_POINT ( 'NONE',  ( -26.50000000000000000, 124.0000000000000000, 4.899999999999999467 ) ) ;
#568 = CARTESIAN_POINT ( 'NONE',  ( -29.50000000000000000, 231.0005950189229509, -10.75000000000000000 ) ) ;
#569 = VERTEX_POINT ( 'NONE', #930 ) ;
#570 = EDGE_CURVE ( 'NONE', #866, #643, #298, .T. ) ;
#571 = ORIENTED_EDGE ( 'NONE', *, *, #876, .F. ) ;
#572 = DIRECTION ( 'NONE',  ( 0.000000000000000000, 0.000000000000000000, 1.000000000000000000 ) ) ;
#573 = DIRECTION ( 'NONE',  ( 0.000000000000000000, 1.000000000000000000, 0.000000000000000000 ) ) ;
#574 = ORIENTED_EDGE ( 'NONE', *, *, #672, .T. ) ;
#575 = ADVANCED_FACE ( 'NONE', ( #50 ), #945, .F. ) ;
#576 = CARTESIAN_POINT ( 'NONE',  ( -29.50000000000000000, 222.4292390232176047, -12.50000000000000000 ) ) ;
#577 = VECTOR ( 'NONE', #551, 1000.000000000000000 ) ;
#578 = VECTOR ( 'NONE', #169, 1000.000000000000000 ) ;
#579 = AXIS2_PLACEMENT_3D ( 'NONE', #292, #658, #807 ) ;
#580 = APPROVAL ( #696, 'UNSPECIFIED' ) ;
#581 = CARTESIAN_POINT ( 'NONE',  ( -26.49999999999999645, 121.0000000000000000, 5.900000000000000355 ) ) ;
#582 = DIRECTION ( 'NONE',  ( 0.000000000000000000, 0.5474600630579976590, -0.8368318106743631857 ) ) ;
#583 = EDGE_CURVE ( 'NONE', #358, #821, #795, .T. ) ;
#584 = ORIENTED_EDGE ( 'NONE', *, *, #73, .T. ) ;
#585 = APPLICATION_CONTEXT ( 'configuration controlled 3d designs of mechanical parts and assemblies' ) ;
#586 = CARTESIAN_POINT ( 'NONE',  ( -31.00000000000000000, 188.0000000000000000, -15.00000000000000000 ) ) ;
#587 = AXIS2_PLACEMENT_3D ( 'NONE', #522, #302, #815 ) ;
#588 = CIRCLE ( 'NONE', #270, 1.000000000000000888 ) ;
#589 = DIRECTION ( 'NONE',  ( 0.000000000000000000, 0.000000000000000000, 1.000000000000000000 ) ) ;
#590 = DIRECTION ( 'NONE',  ( 0.000000000000000000, 0.000000000000000000, 1.000000000000000000 ) ) ;
#591 = DIRECTION ( 'NONE',  ( -1.000000000000000000, -0.000000000000000000, 0.000000000000000000 ) ) ;
#592 = CARTESIAN_POINT ( 'NONE',  ( -29.50000000000000000, 170.0000000000000000, -16.50000000000000000 ) ) ;
#593 = DIRECTION ( 'NONE',  ( -1.000000000000000000, -0.000000000000000000, -0.000000000000000000 ) ) ;
#594 = DIRECTION ( 'NONE',  ( -1.000000000000000000, 0.000000000000000000, 0.000000000000000000 ) ) ;
#595 = ADVANCED_FACE ( 'NONE', ( #54 ), #192, .T. ) ;
#596 = ADVANCED_FACE ( 'NONE', ( #556 ), #107, .T. ) ;
#597 = LINE ( 'NONE', #451, #640 ) ;
#598 = CYLINDRICAL_SURFACE ( 'NONE', #966, 1.000000000000000888 ) ;
#599 = ORIENTED_EDGE ( 'NONE', *, *, #880, .F. ) ;
#600 = DIRECTION ( 'NONE',  ( -1.000000000000000000, 0.000000000000000000, 0.000000000000000000 ) ) ;
#601 = CLOSED_SHELL ( 'NONE', ( #602, #81, #595, #722, #352, #741, #937, #610, #833, #902, #294, #59, #206, #944, #450, #575 ) ) ;
#602 = ADVANCED_FACE ( 'NONE', ( #57 ), #825, .T. ) ;
#603 = CIRCLE ( 'NONE', #951, 1.000000000000000888 ) ;
#604 = AXIS2_PLACEMENT_3D ( 'NONE', #274, #780, #278 ) ;
#605 = AXIS2_PLACEMENT_3D ( 'NONE', #344, #253, #490 ) ;
#606 = CARTESIAN_POINT ( 'NONE',  ( -31.00000000000000000, 188.0000000000000000, -15.00000000000000000 ) ) ;
#607 = ORIENTED_EDGE ( 'NONE', *, *, #499, .T. ) ;
#608 = ORIENTED_EDGE ( 'NONE', *, *, #561, .F. ) ;
#609 = CARTESIAN_POINT ( 'NONE',  ( -29.19780963589008493, 229.5745719498814594, -10.68952226297661312 ) ) ;
#610 = ADVANCED_FACE ( 'NONE', ( #367, #211 ), #64, .F. ) ;
#611 = FACE_OUTER_BOUND ( 'NONE', #132, .T. ) ;
#612 = ORIENTED_EDGE ( 'NONE', *, *, #39, .F. ) ;
#613 = ORIENTED_EDGE ( 'NONE', *, *, #152, .F. ) ;
#614 = CARTESIAN_POINT ( 'NONE',  ( -29.07393531029521938, 229.8161983425401047, -10.61886522488430273 ) ) ;
#615 = APPROVAL_DATE_TIME ( #479, #580 ) ;
#616 = CARTESIAN_POINT ( 'NONE',  ( -29.50000000000000000, 134.7553341220813081, 4.899999999999991473 ) ) ;
#617 = CARTESIAN_POINT ( 'NONE',  ( -29.92032868477089380, 230.8654752133906243, -10.62405133616151254 ) ) ;
#618 = VERTEX_POINT ( 'NONE', #749 ) ;
#619 = EDGE_CURVE ( 'NONE', #514, #789, #903, .T. ) ;
#620 = DIRECTION ( 'NONE',  ( 0.000000000000000000, 1.000000000000000000, 0.000000000000000000 ) ) ;
#621 = PERSON_AND_ORGANIZATION_ROLE ( 'creator' ) ;
#622 = CIRCLE ( 'NONE', #587, 0.7500000000000006661 ) ;
#623 = CIRCLE ( 'NONE', #208, 1.000000000000005995 ) ;
#624 = LINE ( 'NONE', #417, #717 ) ;
#625 = CARTESIAN_POINT ( 'NONE',  ( -29.85123705908959124, 230.9173060433139426, -10.66848978850509688 ) ) ;
#626 = EDGE_LOOP ( 'NONE', ( #897, #118, #277, #558 ) ) ;
#627 = CIRCLE ( 'NONE', #843, 3.450000000000001510 ) ;
#628 = DIRECTION ( 'NONE',  ( 0.000000000000000000, 0.000000000000000000, 1.000000000000000000 ) ) ;
#629 = ADVANCED_FACE ( 'NONE', ( #460 ), #124, .T. ) ;
#630 = DIRECTION ( 'NONE',  ( 0.000000000000000000, 0.000000000000000000, 1.000000000000000000 ) ) ;
#631 = FACE_OUTER_BOUND ( 'NONE', #442, .T. ) ;
#632 = ORIENTED_EDGE ( 'NONE', *, *, #802, .T. ) ;
#633 = DIRECTION ( 'NONE',  ( 0.000000000000000000, 0.7327934916263002529, 0.6804510993672766572 ) ) ;
#634 = ADVANCED_FACE ( 'NONE', ( #611 ), #164, .T. ) ;
#635 = FACE_OUTER_BOUND ( 'NONE', #688, .T. ) ;
#636 = CARTESIAN_POINT ( 'NONE',  ( -26.49999999999999645, 121.0000000000000000, 3.899999999999999023 ) ) ;
#637 = VERTEX_POINT ( 'NONE', #756 ) ;
#638 = PLANE ( 'NONE',  #365 ) ;
#639 = LINE ( 'NONE', #328, #90 ) ;
#640 = VECTOR ( 'NONE', #747, 1000.000000000000000 ) ;
#641 = ORIENTED_EDGE ( 'NONE', *, *, #532, .F. ) ;
#642 = AXIS2_PLACEMENT_3D ( 'NONE', #557, #931, #403 ) ;
#643 = VERTEX_POINT ( 'NONE', #526 ) ;
#644 = FACE_OUTER_BOUND ( 'NONE', #304, .T. ) ;
#645 = ORIENTED_EDGE ( 'NONE', *, *, #243, .T. ) ;
#646 = APPROVAL_ROLE ( '' ) ;
#647 = ORIENTED_EDGE ( 'NONE', *, *, #792, .F. ) ;
#648 = APPROVAL ( #52, 'UNSPECIFIED' ) ;
#649 = DATE_AND_TIME ( #359, #416 ) ;
#650 = AXIS2_PLACEMENT_3D ( 'NONE', #222, #448, #67 ) ;
#651 = DIRECTION ( 'NONE',  ( 0.000000000000000000, 0.000000000000000000, -1.000000000000000000 ) ) ;
#652 = AXIS2_PLACEMENT_3D ( 'NONE', #268, #42, #790 ) ;
#653 = DIRECTION ( 'NONE',  ( 0.000000000000000000, 0.000000000000000000, -1.000000000000000000 ) ) ;
#654 = DIRECTION ( 'NONE',  ( 0.000000000000000000, 0.000000000000000000, -1.000000000000000000 ) ) ;
#655 = EDGE_LOOP ( 'NONE', ( #757, #584, #645, #909, #89, #346 ) ) ;
#656 = DIRECTION ( 'NONE',  ( 0.000000000000000000, 0.000000000000000000, 1.000000000000000000 ) ) ;
#657 = EDGE_CURVE ( 'NONE', #569, #394, #468, .T. ) ;
#658 = DIRECTION ( 'NONE',  ( 0.000000000000000000, 1.000000000000000000, 0.000000000000000000 ) ) ;
#659 = DIRECTION ( 'NONE',  ( 0.000000000000000000, 1.000000000000000000, 0.000000000000000000 ) ) ;
#660 = APPLICATION_PROTOCOL_DEFINITION ( 'international standard', 'config_control_design', 1994, #293 ) ;
#661 = DIRECTION ( 'NONE',  ( 0.000000000000000000, 0.000000000000000000, 1.000000000000000000 ) ) ;
#662 = AXIS2_PLACEMENT_3D ( 'NONE', #295, #368, #138 ) ;
#663 = CARTESIAN_POINT ( 'NONE',  ( -29.67452952910807795, 229.4443003381999233, -10.73056018810926204 ) ) ;
#664 = FACE_OUTER_BOUND ( 'NONE', #563, .T. ) ;
#665 = CARTESIAN_POINT ( 'NONE',  ( -31.00000000000000000, 190.5000000000000000, -15.00000000000000000 ) ) ;
#666 = ADVANCED_FACE ( 'NONE', ( #308 ), #415, .T. ) ;
#667 = CARTESIAN_POINT ( 'NONE',  ( -29.50000000000000000, 262.0000000000000000, -10.00000000000000000 ) ) ;
#668 = CARTESIAN_POINT ( 'NONE',  ( -29.50000000000000000, 229.3840203656924075, -10.75000000000000000 ) ) ;
#669 = DIRECTION ( 'NONE',  ( 0.000000000000000000, 0.000000000000000000, -1.000000000000000000 ) ) ;
#670 = ORIENTED_EDGE ( 'NONE', *, *, #215, .F. ) ;
#671 = FACE_OUTER_BOUND ( 'NONE', #7, .T. ) ;
#672 = EDGE_CURVE ( 'NONE', #229, #770, #547, .T. ) ;
#673 = CARTESIAN_POINT ( 'NONE',  ( -29.50000000000000000, 190.5000000000000000, -16.50000000000000000 ) ) ;
#674 = CARTESIAN_POINT ( 'NONE',  ( -29.50000000000000000, 155.2446658779186919, -15.50000000000000000 ) ) ;
#675 = ORIENTED_EDGE ( 'NONE', *, *, #226, .F. ) ;
#676 = ORIENTED_EDGE ( 'NONE', *, *, #457, .F. ) ;
#677 = CARTESIAN_POINT ( 'NONE',  ( -29.15099503382344892, 229.6536613155121813, -10.66537269253286979 ) ) ;
#678 = AXIS2_PLACEMENT_3D ( 'NONE', #76, #882, #291 ) ;
#679 = AXIS2_PLACEMENT_3D ( 'NONE', #800, #582, #443 ) ;
#680 = AXIS2_PLACEMENT_3D ( 'NONE', #705, #187, #36 ) ;
#681 = DIRECTION ( 'NONE',  ( 0.000000000000000000, 0.5474600630579961047, -0.8368318106743641849 ) ) ;
#682 = ORIENTED_EDGE ( 'NONE', *, *, #145, .F. ) ;
#683 = VERTEX_POINT ( 'NONE', #674 ) ;
#684 = CARTESIAN_POINT ( 'NONE',  ( -29.50000000000000000, 124.0000000000000000, 3.899999999999999023 ) ) ;
#685 = ADVANCED_FACE ( 'NONE', ( #10 ), #598, .T. ) ;
#686 = DIRECTION ( 'NONE',  ( 0.000000000000000000, 1.000000000000000000, 0.000000000000000000 ) ) ;
#687 = CARTESIAN_POINT ( 'NONE',  ( -29.50000000000000000, 124.0000000000000000, 4.899999999999999467 ) ) ;
#688 = EDGE_LOOP ( 'NONE', ( #517, #725, #51, #237 ) ) ;
#689 = FACE_OUTER_BOUND ( 'NONE', #655, .T. ) ;
#690 = PERSON_AND_ORGANIZATION ( #140, #763 ) ;
#691 = EDGE_CURVE ( 'NONE', #569, #904, #93, .T. ) ;
#692 = CARTESIAN_POINT ( 'NONE',  ( 0.000000000000000000, 0.000000000000000000, -18.00000000000000000 ) ) ;
#693 = LINE ( 'NONE', #932, #778 ) ;
#694 = VERTEX_POINT ( 'NONE', #844 ) ;
#695 = CARTESIAN_POINT ( 'NONE',  ( -31.00000000000000000, 188.0000000000000000, -18.00000000000000000 ) ) ;
#696 = APPROVAL_STATUS ( 'not_yet_approved' ) ;
#697 = AXIS2_PLACEMENT_3D ( 'NONE', #928, #858, #562 ) ;
#698 = AXIS2_PLACEMENT_3D ( 'NONE', #524, #371, #961 ) ;
#699 = VECTOR ( 'NONE', #6, 1000.000000000000000 ) ;
#700 = CARTESIAN_POINT ( 'NONE',  ( -31.00000000000000000, 190.5000000000000000, -15.00000000000000000 ) ) ;
#701 = LINE ( 'NONE', #337, #311 ) ;
#702 = ORIENTED_EDGE ( 'NONE', *, *, #917, .F. ) ;
#703 = CIRCLE ( 'NONE', #220, 1.000000000000000888 ) ;
#704 = EDGE_CURVE ( 'NONE', #465, #866, #623, .T. ) ;
#705 = CARTESIAN_POINT ( 'NONE',  ( -29.50000000000000000, 134.7553341220813081, -1.100000000000001199 ) ) ;
#706 = CYLINDRICAL_SURFACE ( 'NONE', #109, 0.7500000000000006661 ) ;
#707 = ORIENTED_EDGE ( 'NONE', *, *, #570, .F. ) ;
#708 = DIRECTION ( 'NONE',  ( 0.000000000000000000, -0.8368318106743664053, -0.5474600630579929961 ) ) ;
#709 = DIRECTION ( 'NONE',  ( 0.000000000000000000, 1.000000000000000000, 0.000000000000000000 ) ) ;
#710 = CARTESIAN_POINT ( 'NONE',  ( -29.50000000000000000, 222.4292390232176047, -12.50000000000000000 ) ) ;
#711 = ORIENTED_EDGE ( 'NONE', *, *, #672, .F. ) ;
#712 = ORIENTED_EDGE ( 'NONE', *, *, #404, .T. ) ;
#713 = UNCERTAINTY_MEASURE_WITH_UNIT (LENGTH_MEASURE( 1.000000000000000082E-05 ), #879, 'distance_accuracy_value', 'NONE');
#714 = DIRECTION ( 'NONE',  ( 0.000000000000000000, 1.000000000000000000, 0.000000000000000000 ) ) ;
#715 = LINE ( 'NONE', #275, #348 ) ;
#716 = AXIS2_PLACEMENT_3D ( 'NONE', #37, #342, #25 ) ;
#717 = VECTOR ( 'NONE', #409, 1000.000000000000000 ) ;
#718 = CARTESIAN_POINT ( 'NONE',  ( -29.50000000000000000, 134.7553341220813081, -1.100000000000001199 ) ) ;
#719 = VERTEX_POINT ( 'NONE', #240 ) ;
#720 = CC_DESIGN_SECURITY_CLASSIFICATION ( #176, ( #46 ) ) ;
#721 = PERSON_AND_ORGANIZATION ( #140, #763 ) ;
#722 = ADVANCED_FACE ( 'NONE', ( #155 ), #764, .T. ) ;
#723 = COORDINATED_UNIVERSAL_TIME_OFFSET ( 12, 0, .AHEAD. ) ;
#724 = PRODUCT_DEFINITION ( 'UNKNOWN', '', #46, #861 ) ;
#725 = ORIENTED_EDGE ( 'NONE', *, *, #691, .T. ) ;
#726 = DIRECTION ( 'NONE',  ( 0.000000000000000000, 0.000000000000000000, 1.000000000000000000 ) ) ;
#727 = CARTESIAN_POINT ( 'NONE',  ( -16.29999999999999361, 121.0000000000000000, 4.899999999999999467 ) ) ;
#728 = VERTEX_POINT ( 'NONE', #322 ) ;
#729 = AXIS2_PLACEMENT_3D ( 'NONE', #518, #811, #726 ) ;
#730 = DIRECTION ( 'NONE',  ( 0.000000000000000000, 1.000000000000000000, 0.000000000000000000 ) ) ;
#731 = VECTOR ( 'NONE', #633, 1000.000000000000114 ) ;
#732 = EDGE_CURVE ( 'NONE', #643, #400, #952, .T. ) ;
#733 = AXIS2_PLACEMENT_3D ( 'NONE', #956, #516, #68 ) ;
#734 = CARTESIAN_POINT ( 'NONE',  ( 0.000000000000000000, 0.000000000000000000, 0.000000000000000000 ) ) ;
#735 = DIRECTION ( 'NONE',  ( 0.000000000000000000, 1.000000000000000000, 0.000000000000000000 ) ) ;
#736 = ADVANCED_FACE ( 'NONE', ( #912 ), #820, .T. ) ;
#737 = DIRECTION ( 'NONE',  ( 0.000000000000000000, 0.000000000000000000, 1.000000000000000000 ) ) ;
#738 = EDGE_LOOP ( 'NONE', ( #238, #782, #395, #859 ) ) ;
#739 = DIRECTION ( 'NONE',  ( 0.000000000000000000, 1.000000000000000000, 0.000000000000000000 ) ) ;
#740 = DIRECTION ( 'NONE',  ( 0.000000000000000000, 0.000000000000000000, 1.000000000000000000 ) ) ;
#741 = ADVANCED_FACE ( 'NONE', ( #664 ), #161, .F. ) ;
#742 = CARTESIAN_POINT ( 'NONE',  ( -29.50000000000000000, 222.4292390232176047, -17.05000000000000071 ) ) ;
#743 = LINE ( 'NONE', #60, #286 ) ;
#744 = CIRCLE ( 'NONE', #934, 4.549999999999998934 ) ;
#745 = AXIS2_PLACEMENT_3D ( 'NONE', #823, #462, #82 ) ;
#746 = CC_DESIGN_APPROVAL ( #648, ( #724 ) ) ;
#747 = DIRECTION ( 'NONE',  ( 0.000000000000000000, 1.000000000000000000, 0.000000000000000000 ) ) ;
#748 = CC_DESIGN_DATE_AND_TIME_ASSIGNMENT ( #174, #408, ( #176 ) ) ;
#749 = CARTESIAN_POINT ( 'NONE',  ( -31.00000000000000000, 190.5000000000000000, -18.00000000000000000 ) ) ;
#750 = ORIENTED_EDGE ( 'NONE', *, *, #768, .T. ) ;
#751 = CARTESIAN_POINT ( 'NONE',  ( -29.40641349024343043, 231.0005950189229225, -10.75000000000000000 ) ) ;
#752 = CARTESIAN_POINT ( 'NONE',  ( -29.50000000000000000, 155.2446658779186919, -10.49999999999999822 ) ) ;
#753 = CARTESIAN_POINT ( 'NONE',  ( -29.50000000000000000, 200.0000000000000000, -9.250000000000000000 ) ) ;
#754 = ORIENTED_EDGE ( 'NONE', *, *, #783, .T. ) ;
#755 = CARTESIAN_POINT ( 'NONE',  ( -29.14750306437012384, 230.9166235261936038, -10.66788585235649833 ) ) ;
#756 = CARTESIAN_POINT ( 'NONE',  ( -29.50000000000000000, 170.0000000000000000, -15.50000000000000000 ) ) ;
#757 = ORIENTED_EDGE ( 'NONE', *, *, #182, .F. ) ;
#758 = EDGE_LOOP ( 'NONE', ( #43, #534, #682, #100 ) ) ;
#759 = LINE ( 'NONE', #91, #218 ) ;
#760 = EDGE_CURVE ( 'NONE', #229, #637, #519, .T. ) ;
#761 = AXIS2_PLACEMENT_3D ( 'NONE', #361, #594, #656 ) ;
#762 = AXIS2_PLACEMENT_3D ( 'NONE', #500, #714, #630 ) ;
#763 = ORGANIZATION ( 'UNSPECIFIED', 'UNSPECIFIED', '' ) ;
#764 = CYLINDRICAL_SURFACE ( 'NONE', #531, 0.5499999999999983791 ) ;
#765 = VERTEX_POINT ( 'NONE', #120 ) ;
#766 = ORIENTED_EDGE ( 'NONE', *, *, #774, .T. ) ;
#767 = CARTESIAN_POINT ( 'NONE',  ( -29.40649115924653501, 229.3985481997456475, -10.74527170108307317 ) ) ;
#768 = EDGE_CURVE ( 'NONE', #643, #435, #624, .T. ) ;
#769 = CARTESIAN_POINT ( 'NONE',  ( -29.84947408631795085, 229.6544799665673224, -10.66512669877139707 ) ) ;
#770 = VERTEX_POINT ( 'NONE', #197 ) ;
#771 = LINE ( 'NONE', #543, #808 ) ;
#772 = DATE_AND_TIME ( #326, #954 ) ;
#773 = LINE ( 'NONE', #202, #566 ) ;
#774 = EDGE_CURVE ( 'NONE', #851, #728, #63, .T. ) ;
#775 = CARTESIAN_POINT ( 'NONE',  ( -29.68693280993683103, 230.9847475682306026, -10.73164348803403989 ) ) ;
#776 = ORIENTED_EDGE ( 'NONE', *, *, #119, .F. ) ;
#777 = PERSON_AND_ORGANIZATION ( #140, #763 ) ;
#778 = VECTOR ( 'NONE', #266, 1000.000000000000000 ) ;
#779 = AXIS2_PLACEMENT_3D ( 'NONE', #178, #480, #379 ) ;
#780 = DIRECTION ( 'NONE',  ( 0.000000000000000000, 1.000000000000000000, 0.000000000000000000 ) ) ;
#781 = DIRECTION ( 'NONE',  ( 1.000000000000000000, 0.000000000000000000, 0.000000000000000000 ) ) ;
#782 = ORIENTED_EDGE ( 'NONE', *, *, #188, .T. ) ;
#783 = EDGE_CURVE ( 'NONE', #224, #855, #445, .T. ) ;
#784 = DIRECTION ( 'NONE',  ( 1.000000000000000000, 0.000000000000000000, 0.000000000000000000 ) ) ;
#785 = CARTESIAN_POINT ( 'NONE',  ( -26.49999999999999645, 121.0000000000000000, 4.899999999999999467 ) ) ;
#786 = FACE_OUTER_BOUND ( 'NONE', #626, .T. ) ;
#787 = DIRECTION ( 'NONE',  ( 0.000000000000000000, 0.000000000000000000, 1.000000000000000000 ) ) ;
#788 = DIRECTION ( 'NONE',  ( 0.000000000000000000, 0.000000000000000000, -1.000000000000000000 ) ) ;
#789 = VERTEX_POINT ( 'NONE', #486 ) ;
#790 = DIRECTION ( 'NONE',  ( 0.000000000000000000, 0.000000000000000000, 1.000000000000000000 ) ) ;
#791 = EDGE_LOOP ( 'NONE', ( #549, #809, #613, #607 ) ) ;
#792 = EDGE_CURVE ( 'NONE', #505, #162, #773, .T. ) ;
#793 = AXIS2_PLACEMENT_3D ( 'NONE', #41, #864, #105 ) ;
#794 = PRODUCT ( 'Harness - RX Cable', 'Harness - RX Cable', '', ( #883 ) ) ;
#795 = LINE ( 'NONE', #128, #458 ) ;
#796 = ORIENTED_EDGE ( 'NONE', *, *, #774, .F. ) ;
#797 = VERTEX_POINT ( 'NONE', #427 ) ;
#798 = EDGE_CURVE ( 'NONE', #465, #400, #142, .T. ) ;
#799 = APPROVAL_DATE_TIME ( #282, #648 ) ;
#800 = CARTESIAN_POINT ( 'NONE',  ( -29.50000000000000000, 150.2236750138725085, -13.78476037834797197 ) ) ;
#801 = DIRECTION ( 'NONE',  ( -1.000000000000000000, 0.000000000000000000, 0.000000000000000000 ) ) ;
#802 = EDGE_CURVE ( 'NONE', #400, #643, #588, .T. ) ;
#803 = CARTESIAN_POINT ( 'NONE',  ( -29.50000000000000000, 222.4292390232176047, -12.50000000000000000 ) ) ;
#804 = ORIENTED_EDGE ( 'NONE', *, *, #391, .T. ) ;
#805 = ORIENTED_EDGE ( 'NONE', *, *, #907, .F. ) ;
#806 = CARTESIAN_POINT ( 'NONE',  ( -29.50000000000000000, 200.0000000000000000, -10.00000000000000000 ) ) ;
#807 = DIRECTION ( 'NONE',  ( 0.000000000000000000, 0.000000000000000000, 1.000000000000000000 ) ) ;
#808 = VECTOR ( 'NONE', #401, 1000.000000000000114 ) ;
#809 = ORIENTED_EDGE ( 'NONE', *, *, #870, .F. ) ;
#810 = CIRCLE ( 'NONE', #392, 1.000000000000000888 ) ;
#811 = DIRECTION ( 'NONE',  ( 0.000000000000000000, 1.000000000000000000, 0.000000000000000000 ) ) ;
#812 = VECTOR ( 'NONE', #475, 1000.000000000000000 ) ;
#813 = DIRECTION ( 'NONE',  ( 0.000000000000000000, 0.000000000000000000, 1.000000000000000000 ) ) ;
#814 = FACE_OUTER_BOUND ( 'NONE', #488, .T. ) ;
#815 = DIRECTION ( 'NONE',  ( 0.000000000000000000, 0.000000000000000000, 1.000000000000000000 ) ) ;
#816 = CARTESIAN_POINT ( 'NONE',  ( -29.50000000000000000, 139.7763249861274915, 2.184760378347971876 ) ) ;
#817 = CARTESIAN_POINT ( 'NONE',  ( -16.29999999999999361, 121.0000000000000000, 3.899999999999999023 ) ) ;
#818 = EDGE_CURVE ( 'NONE', #637, #229, #810, .T. ) ;
#819 = CYLINDRICAL_SURFACE ( 'NONE', #363, 0.5499999999999983791 ) ;
#820 = CYLINDRICAL_SURFACE ( 'NONE', #779, 1.000000000000000888 ) ;
#821 = VERTEX_POINT ( 'NONE', #199 ) ;
#822 = AXIS2_PLACEMENT_3D ( 'NONE', #687, #887, #523 ) ;
#823 = CARTESIAN_POINT ( 'NONE',  ( -26.49999999999999645, 121.0000000000000000, 4.899999999999999467 ) ) ;
#824 = VECTOR ( 'NONE', #449, 1000.000000000000000 ) ;
#825 = TOROIDAL_SURFACE ( 'NONE', #474, 4.000000000000000000, 0.5499999999999983791 ) ;
#826 = FACE_OUTER_BOUND ( 'NONE', #929, .T. ) ;
#827 = DIRECTION ( 'NONE',  ( 0.000000000000000000, 1.000000000000000000, 0.000000000000000000 ) ) ;
#828 = ORIENTED_EDGE ( 'NONE', *, *, #704, .T. ) ;
#829 = DIRECTION ( 'NONE',  ( 0.000000000000000000, 0.000000000000000000, 1.000000000000000000 ) ) ;
#830 = DIRECTION ( 'NONE',  ( 0.000000000000000000, 0.000000000000000000, -1.000000000000000000 ) ) ;
#831 = EDGE_LOOP ( 'NONE', ( #353, #384, #492, #261 ) ) ;
#832 = VERTEX_POINT ( 'NONE', #116 ) ;
#833 = ADVANCED_FACE ( 'NONE', ( #635 ), #351, .F. ) ;
#834 = DIRECTION ( 'NONE',  ( 0.000000000000000000, 0.000000000000000000, -1.000000000000000000 ) ) ;
#835 = DIRECTION ( 'NONE',  ( 1.000000000000000000, 0.000000000000000000, 0.000000000000000000 ) ) ;
#836 = ORIENTED_EDGE ( 'NONE', *, *, #362, .F. ) ;
#837 = ORIENTED_EDGE ( 'NONE', *, *, #960, .T. ) ;
#838 = CARTESIAN_POINT ( 'NONE',  ( -29.45242626856577317, 229.3840203656923791, -10.75000000000000355 ) ) ;
#839 = PERSON_AND_ORGANIZATION ( #140, #763 ) ;
#840 = CIRCLE ( 'NONE', #822, 1.000000000000000888 ) ;
#841 = AXIS2_PLACEMENT_3D ( 'NONE', #886, #515, #590 ) ;
#842 = AXIS2_PLACEMENT_3D ( 'NONE', #718, #424, #262 ) ;
#843 = AXIS2_PLACEMENT_3D ( 'NONE', #576, #962, #653 ) ;
#844 = CARTESIAN_POINT ( 'NONE',  ( -29.50000000000000000, 225.5252915253387016, -15.83421038689965954 ) ) ;
#845 = LINE ( 'NONE', #938, #918 ) ;
#846 = ORIENTED_EDGE ( 'NONE', *, *, #167, .F. ) ;
#847 = CARTESIAN_POINT ( 'NONE',  ( -29.50000000000000000, 229.3840203656924075, -10.75000000000000000 ) ) ;
#848 = EDGE_CURVE ( 'NONE', #470, #618, #265, .T. ) ;
#849 = CARTESIAN_POINT ( 'NONE',  ( -29.50000000000000000, 138.9394931754531228, 1.637300315289972552 ) ) ;
#850 = DIRECTION ( 'NONE',  ( 0.000000000000000000, 1.000000000000000000, 0.000000000000000000 ) ) ;
#851 = VERTEX_POINT ( 'NONE', #853 ) ;
#852 = DIRECTION ( 'NONE',  ( 0.000000000000000000, 0.7327934916262998088, 0.6804510993672772123 ) ) ;
#853 = CARTESIAN_POINT ( 'NONE',  ( -29.50000000000000000, 190.5000000000000000, -15.95000000000000284 ) ) ;
#854 = DIRECTION ( 'NONE',  ( 1.000000000000000000, 0.000000000000000000, 0.000000000000000000 ) ) ;
#855 = VERTEX_POINT ( 'NONE', #336 ) ;
#856 = CIRCLE ( 'NONE', #473, 0.7500000000000006661 ) ;
#857 = LINE ( 'NONE', #868, #459 ) ;
#858 = DIRECTION ( 'NONE',  ( 0.000000000000000000, -1.000000000000000000, 0.000000000000000000 ) ) ;
#859 = ORIENTED_EDGE ( 'NONE', *, *, #103, .F. ) ;
#860 = ORIENTED_EDGE ( 'NONE', *, *, #215, .T. ) ;
#861 = DESIGN_CONTEXT ( 'detailed design', #293, 'design' ) ;
#862 = CARTESIAN_POINT ( 'NONE',  ( -29.50000000000000000, 170.0000000000000000, -16.50000000000000000 ) ) ;
#863 = ADVANCED_BREP_SHAPE_REPRESENTATION ( 'Harness - RX Cable', ( #191, #186, #92 ), #446 ) ;
#864 = DIRECTION ( 'NONE',  ( 0.000000000000000000, 1.000000000000000000, 0.000000000000000000 ) ) ;
#865 = ORIENTED_EDGE ( 'NONE', *, *, #119, .T. ) ;
#866 = VERTEX_POINT ( 'NONE', #849 ) ;
#867 = EDGE_CURVE ( 'NONE', #728, #851, #219, .T. ) ;
#868 = CARTESIAN_POINT ( 'NONE',  ( -31.00000000000000000, 188.0000000000000000, -18.00000000000000000 ) ) ;
#869 = ORIENTED_EDGE ( 'NONE', *, *, #619, .F. ) ;
#870 = EDGE_CURVE ( 'NONE', #419, #821, #47, .T. ) ;
#871 = FACE_OUTER_BOUND ( 'NONE', #461, .T. ) ;
#872 = CIRCLE ( 'NONE', #44, 1.000000000000000888 ) ;
#873 = AXIS2_PLACEMENT_3D ( 'NONE', #279, #573, #203 ) ;
#874 = ORIENTED_EDGE ( 'NONE', *, *, #226, .T. ) ;
#875 = CC_DESIGN_APPROVAL ( #580, ( #176 ) ) ;
#876 = EDGE_CURVE ( 'NONE', #618, #394, #857, .T. ) ;
#877 = COORDINATED_UNIVERSAL_TIME_OFFSET ( 12, 0, .AHEAD. ) ;
#878 = CARTESIAN_POINT ( 'NONE',  ( -29.50000000000000000, 149.3868432031981399, -14.33222044140597262 ) ) ;
#879 =( LENGTH_UNIT ( ) NAMED_UNIT ( * ) SI_UNIT ( .MILLI., .METRE. ) );
#880 = EDGE_CURVE ( 'NONE', #11, #299, #159, .T. ) ;
#881 = ORIENTED_EDGE ( 'NONE', *, *, #457, .T. ) ;
#882 = DIRECTION ( 'NONE',  ( 0.000000000000000000, 1.000000000000000000, 0.000000000000000000 ) ) ;
#883 = MECHANICAL_CONTEXT ( 'NONE', #585, 'mechanical' ) ;
#884 = CIRCLE ( 'NONE', #841, 0.5499999999999983791 ) ;
#885 = AXIS2_PLACEMENT_3D ( 'NONE', #414, #420, #708 ) ;
#886 = CARTESIAN_POINT ( 'NONE',  ( -29.50000000000000000, 222.4292390232176047, -16.50000000000000000 ) ) ;
#887 = DIRECTION ( 'NONE',  ( 0.000000000000000000, 1.000000000000000000, 0.000000000000000000 ) ) ;
#888 = CARTESIAN_POINT ( 'NONE',  ( -26.49999999999999645, 120.0000000000000000, 4.899999999999999467 ) ) ;
#889 = ADVANCED_FACE ( 'NONE', ( #644 ), #40, .T. ) ;
#890 = CARTESIAN_POINT ( 'NONE',  ( -29.50000000000000000, 224.7767953160347076, -15.02813754611072383 ) ) ;
#891 = DIRECTION ( 'NONE',  ( 0.000000000000000000, 1.000000000000000000, 0.000000000000000000 ) ) ;
#892 = CARTESIAN_POINT ( 'NONE',  ( -26.49999999999999645, 121.0000000000000000, 4.899999999999999467 ) ) ;
#893 = FACE_OUTER_BOUND ( 'NONE', #758, .T. ) ;
#894 = CC_DESIGN_PERSON_AND_ORGANIZATION_ASSIGNMENT ( #70, #372, ( #794 ) ) ;
#895 = CARTESIAN_POINT ( 'NONE',  ( -29.54741133846162171, 229.3840203656924075, -10.75000000000000000 ) ) ;
#896 = CARTESIAN_POINT ( 'NONE',  ( -29.50000000000000000, 139.7763249861274915, 2.184760378347971876 ) ) ;
#897 = ORIENTED_EDGE ( 'NONE', *, *, #188, .F. ) ;
#898 = CARTESIAN_POINT ( 'NONE',  ( -28.99416838843452027, 230.0766743001986754, -10.55466901071863717 ) ) ;
#899 = AXIS2_PLACEMENT_3D ( 'NONE', #198, #121, #781 ) ;
#900 = AXIS2_PLACEMENT_3D ( 'NONE', #592, #891, #787 ) ;
#901 = AXIS2_PLACEMENT_3D ( 'NONE', #942, #259, #421 ) ;
#902 = ADVANCED_FACE ( 'NONE', ( #98 ), #638, .T. ) ;
#903 = LINE ( 'NONE', #753, #157 ) ;
#904 = VERTEX_POINT ( 'NONE', #553 ) ;
#905 = ORIENTED_EDGE ( 'NONE', *, *, #426, .T. ) ;
#906 = DIRECTION ( 'NONE',  ( 0.000000000000000000, 0.000000000000000000, 1.000000000000000000 ) ) ;
#907 = EDGE_CURVE ( 'NONE', #319, #465, #183, .T. ) ;
#908 = DIRECTION ( 'NONE',  ( 0.000000000000000000, -1.000000000000000000, 0.000000000000000000 ) ) ;
#909 = ORIENTED_EDGE ( 'NONE', *, *, #125, .T. ) ;
#910 = ORIENTED_EDGE ( 'NONE', *, *, #768, .F. ) ;
#911 = CARTESIAN_POINT ( 'NONE',  ( -28.97567386565501479, 230.1654493248070992, -10.53654181100754528 ) ) ;
#912 = FACE_OUTER_BOUND ( 'NONE', #55, .T. ) ;
#913 = CARTESIAN_POINT ( 'NONE',  ( -30.03852933204265696, 230.6312997374560609, -10.52213003172506056 ) ) ;
#914 = ORIENTED_EDGE ( 'NONE', *, *, #691, .F. ) ;
#915 = CARTESIAN_POINT ( 'NONE',  ( -29.32597860525828892, 229.4439323770155283, -10.73067801794392828 ) ) ;
#916 = CALENDAR_DATE ( 2026, 29, 9 ) ;
#917 = EDGE_CURVE ( 'NONE', #248, #797, #627, .T. ) ;
#918 = VECTOR ( 'NONE', #184, 1000.000000000000000 ) ;
#919 = AXIS2_PLACEMENT_3D ( 'NONE', #310, #600, #829 ) ;
#920 = DIRECTION ( 'NONE',  ( -1.000000000000000000, 0.000000000000000000, -0.000000000000000000 ) ) ;
#921 = CARTESIAN_POINT ( 'NONE',  ( -30.01439305942893299, 230.7233689189107224, -10.54910477489958964 ) ) ;
#922 = ORIENTED_EDGE ( 'NONE', *, *, #732, .F. ) ;
#923 = DIRECTION ( 'NONE',  ( 0.000000000000000000, 0.7327934916263003640, 0.6804510993672766572 ) ) ;
#924 = PERSON_AND_ORGANIZATION ( #140, #763 ) ;
#925 = CC_DESIGN_PERSON_AND_ORGANIZATION_ASSIGNMENT ( #690, #332, ( #46 ) ) ;
#926 = B_SPLINE_CURVE_WITH_KNOTS ( 'NONE', 3,
 ( #847, #838, #767, #915, #250, #609, #677, #614, #390, #898, #911, #235, #325, #181, #535, #396, #755, #315, #751, #13 ),
 .UNSPECIFIED., .F., .F.,
 ( 4, 2, 2, 2, 2, 2, 2, 2, 2, 4 ),
 ( 0.000000000000000000, 0.0001403975865081300445, 0.0002807951730162600891, 0.0005615903460325798093, 0.0008423855190488994211, 0.001123180692065219250, 0.001403975865081538970, 0.001684771038097858473, 0.001965566211114178410, 0.002246361384130498347 ),
 .UNSPECIFIED. ) ;
#927 = CARTESIAN_POINT ( 'NONE',  ( -29.50000000000000000, 151.0605068245468772, -13.23730031528997486 ) ) ;
#928 = CARTESIAN_POINT ( 'NONE',  ( -29.50000000000000000, 170.0000000000000000, -16.50000000000000000 ) ) ;
#929 = EDGE_LOOP ( 'NONE', ( #538, #190, #122, #482 ) ) ;
#930 = CARTESIAN_POINT ( 'NONE',  ( -31.00000000000000000, 188.0000000000000000, -15.00000000000000000 ) ) ;
#931 = DIRECTION ( 'NONE',  ( 0.000000000000000000, 0.000000000000000000, -1.000000000000000000 ) ) ;
#932 = CARTESIAN_POINT ( 'NONE',  ( -29.50000000000000000, 190.5000000000000000, -17.05000000000000071 ) ) ;
#933 = ORIENTED_EDGE ( 'NONE', *, *, #848, .F. ) ;
#934 = AXIS2_PLACEMENT_3D ( 'NONE', #710, #112, #788 ) ;
#935 = VECTOR ( 'NONE', #32, 1000.000000000000000 ) ;
#936 = DIRECTION ( 'NONE',  ( 0.000000000000000000, 0.000000000000000000, 1.000000000000000000 ) ) ;
#937 = ADVANCED_FACE ( 'NONE', ( #366 ), #223, .F. ) ;
#938 = CARTESIAN_POINT ( 'NONE',  ( -28.00000000000000000, 188.0000000000000000, -15.00000000000000000 ) ) ;
#939 = ORIENTED_EDGE ( 'NONE', *, *, #964, .F. ) ;
#940 = CARTESIAN_POINT ( 'NONE',  ( -29.50000000000000000, 225.1510434206867046, -15.43117396650520234 ) ) ;
#941 = ORIENTED_EDGE ( 'NONE', *, *, #818, .T. ) ;
#942 = CARTESIAN_POINT ( 'NONE',  ( -16.29999999999999361, 121.0000000000000000, 4.899999999999999467 ) ) ;
#943 = ORIENTED_EDGE ( 'NONE', *, *, #798, .T. ) ;
#944 = ADVANCED_FACE ( 'NONE', ( #871 ), #127, .T. ) ;
#945 = PLANE ( 'NONE',  #873 ) ;
#946 = ORIENTED_EDGE ( 'NONE', *, *, #177, .T. ) ;
#947 = CALENDAR_DATE ( 2026, 29, 9 ) ;
#948 = ORIENTED_EDGE ( 'NONE', *, *, #867, .F. ) ;
#949 = ADVANCED_FACE ( 'NONE', ( #297 ), #509, .T. ) ;
#950 = DATE_TIME_ROLE ( 'creation_date' ) ;
#951 = AXIS2_PLACEMENT_3D ( 'NONE', #785, #117, #422 ) ;
#952 = CIRCLE ( 'NONE', #110, 1.000000000000000888 ) ;
#953 = ORIENTED_EDGE ( 'NONE', *, *, #273, .T. ) ;
#954 = LOCAL_TIME ( 17, 50, 25.00000000000000000, #489 ) ;
#955 = CARTESIAN_POINT ( 'NONE',  ( -28.00000000000000000, 188.0000000000000000, -18.00000000000000000 ) ) ;
#956 = CARTESIAN_POINT ( 'NONE',  ( -29.50000000000000000, 200.0000000000000000, -10.00000000000000000 ) ) ;
#957 = CARTESIAN_POINT ( 'NONE',  ( -31.00000000000000000, 190.5000000000000000, -15.00000000000000000 ) ) ;
#958 = ORIENTED_EDGE ( 'NONE', *, *, #73, .F. ) ;
#959 = CARTESIAN_POINT ( 'NONE',  ( -29.50000000000000000, 151.0605068245468772, -13.23730031528996953 ) ) ;
#960 = EDGE_CURVE ( 'NONE', #12, #248, #495, .T. ) ;
#961 = DIRECTION ( 'NONE',  ( 0.000000000000000000, 0.000000000000000000, -1.000000000000000000 ) ) ;
#962 = DIRECTION ( 'NONE',  ( 1.000000000000000000, 0.000000000000000000, 0.000000000000000000 ) ) ;
#963 = VECTOR ( 'NONE', #593, 1000.000000000000000 ) ;
#964 = EDGE_CURVE ( 'NONE', #299, #11, #703, .T. ) ;
#965 = CIRCLE ( 'NONE', #761, 1.000000000000000888 ) ;
#966 = AXIS2_PLACEMENT_3D ( 'NONE', #393, #312, #669 ) ;
#967 = CARTESIAN_POINT ( 'NONE',  ( -29.50000000000000000, 170.0000000000000000, -15.50000000000000000 ) ) ;
#968 = DIRECTION ( 'NONE',  ( 0.000000000000000000, 0.000000000000000000, 1.000000000000000000 ) ) ;
ENDSEC;
END-ISO-10303-21;
