ISO-10303-21;
HEADER;
FILE_DESCRIPTION (( 'STEP AP203' ),
    '1' );
FILE_NAME ('Harness - Camera MIPI Cable.step',
    '2026-09-29T04:50:24',
    ( '' ),
    ( '' ),
    '',
    '',
    '' );
FILE_SCHEMA (( 'CONFIG_CONTROL_DESIGN' ));
ENDSEC;

DATA;
#1 = ADVANCED_FACE ( 'NONE', ( #49 ), #288, .F. ) ;
#2 = DIRECTION ( 'NONE',  ( 0.000000000000000000, 0.7163892455684479632, 0.6977008304666623140 ) ) ;
#3 = EDGE_CURVE ( 'NONE', #877, #944, #673, .T. ) ;
#4 = DIRECTION ( 'NONE',  ( 0.000000000000000000, 0.000000000000000000, -1.000000000000000000 ) ) ;
#5 = DIRECTION ( 'NONE',  ( 0.000000000000000000, 1.000000000000000000, 0.000000000000000000 ) ) ;
#6 = LINE ( 'NONE', #860, #385 ) ;
#7 = CARTESIAN_POINT ( 'NONE',  ( 0.000000000000000000, 310.9000000000000341, -0.4000000000000000222 ) ) ;
#8 = VERTEX_POINT ( 'NONE', #449 ) ;
#9 = ORIENTED_EDGE ( 'NONE', *, *, #588, .T. ) ;
#10 = FACE_OUTER_BOUND ( 'NONE', #970, .T. ) ;
#11 = VECTOR ( 'NONE', #390, 1000.000000000000000 ) ;
#12 = CIRCLE ( 'NONE', #311, 0.7600000000000000089 ) ;
#13 = VECTOR ( 'NONE', #794, 1000.000000000000000 ) ;
#14 = VERTEX_POINT ( 'NONE', #44 ) ;
#15 = ORIENTED_EDGE ( 'NONE', *, *, #251, .F. ) ;
#16 = COORDINATED_UNIVERSAL_TIME_OFFSET ( 12, 0, .AHEAD. ) ;
#17 = DIRECTION ( 'NONE',  ( 0.000000000000000000, 1.000000000000000000, 0.000000000000000000 ) ) ;
#18 = ORIENTED_EDGE ( 'NONE', *, *, #966, .T. ) ;
#19 = VERTEX_POINT ( 'NONE', #841 ) ;
#20 = ORIENTED_EDGE ( 'NONE', *, *, #227, .T. ) ;
#21 = CARTESIAN_POINT ( 'NONE',  ( -4.500000000000000000, 401.5000000000000000, -6.400000000000000355 ) ) ;
#22 = DIRECTION ( 'NONE',  ( 0.000000000000000000, 0.000000000000000000, 1.000000000000000000 ) ) ;
#23 = EDGE_LOOP ( 'NONE', ( #435, #802, #50, #184 ) ) ;
#24 = VERTEX_POINT ( 'NONE', #677 ) ;
#25 = ORIENTED_EDGE ( 'NONE', *, *, #110, .T. ) ;
#26 = PERSON_AND_ORGANIZATION_ROLE ( 'design_owner' ) ;
#27 = VECTOR ( 'NONE', #459, 1000.000000000000000 ) ;
#28 = TOROIDAL_SURFACE ( 'NONE', #942, 2.999999999999992895, 0.7600000000000000089 ) ;
#29 = CIRCLE ( 'NONE', #294, 0.7599999999999829114 ) ;
#30 = VERTEX_POINT ( 'NONE', #908 ) ;
#31 = DIRECTION ( 'NONE',  ( 0.6689647316224406337, 0.7432941462471744920, 0.000000000000000000 ) ) ;
#32 = DATE_AND_TIME ( #668, #617 ) ;
#33 = EDGE_CURVE ( 'NONE', #30, #448, #371, .T. ) ;
#34 = ORIENTED_EDGE ( 'NONE', *, *, #33, .T. ) ;
#35 = CARTESIAN_POINT ( 'NONE',  ( 3.600000000000000089, 399.5000000000000000, 20.19999999999999574 ) ) ;
#36 = APPROVAL_DATE_TIME ( #32, #939 ) ;
#37 = VERTEX_POINT ( 'NONE', #833 ) ;
#38 = DIRECTION ( 'NONE',  ( 0.000000000000000000, 0.000000000000000000, 1.000000000000000000 ) ) ;
#39 = VERTEX_POINT ( 'NONE', #822 ) ;
#40 = APPROVAL_STATUS ( 'not_yet_approved' ) ;
#41 = CIRCLE ( 'NONE', #679, 0.7600000000000002309 ) ;
#42 = VERTEX_POINT ( 'NONE', #603 ) ;
#43 = VECTOR ( 'NONE', #649, 1000.000000000000000 ) ;
#44 = CARTESIAN_POINT ( 'NONE',  ( 0.2052140101106436632, 317.3640993752091504, -0.4000000000000000222 ) ) ;
#45 = EDGE_CURVE ( 'NONE', #887, #260, #204, .T. ) ;
#46 = AXIS2_PLACEMENT_3D ( 'NONE', #560, #863, #478 ) ;
#47 = VERTEX_POINT ( 'NONE', #594 ) ;
#48 = EDGE_CURVE ( 'NONE', #178, #565, #563, .T. ) ;
#49 = FACE_OUTER_BOUND ( 'NONE', #967, .T. ) ;
#50 = ORIENTED_EDGE ( 'NONE', *, *, #444, .F. ) ;
#51 = CARTESIAN_POINT ( 'NONE',  ( 3.600000000000000089, 331.7480531248115767, 0.3600000000000002642 ) ) ;
#52 = DATE_TIME_ROLE ( 'creation_date' ) ;
#53 = LINE ( 'NONE', #541, #452 ) ;
#54 = EDGE_LOOP ( 'NONE', ( #766, #651, #103, #431, #118 ) ) ;
#55 = LINE ( 'NONE', #988, #697 ) ;
#56 = PERSON_AND_ORGANIZATION ( #69, #601 ) ;
#57 = DIRECTION ( 'NONE',  ( -1.000000000000000000, 0.000000000000000000, 0.000000000000000000 ) ) ;
#58 = DIRECTION ( 'NONE',  ( -1.000000000000000000, 0.000000000000000000, 0.000000000000000000 ) ) ;
#59 = AXIS2_PLACEMENT_3D ( 'NONE', #533, #128, #612 ) ;
#60 = CARTESIAN_POINT ( 'NONE',  ( 0.000000000000000000, 314.8487919843087752, -0.4000000000000000222 ) ) ;
#61 = VECTOR ( 'NONE', #90, 1000.000000000000000 ) ;
#62 = EDGE_CURVE ( 'NONE', #426, #328, #664, .T. ) ;
#63 = AXIS2_PLACEMENT_3D ( 'NONE', #479, #787, #79 ) ;
#64 = PRODUCT_DEFINITION_FORMATION_WITH_SPECIFIED_SOURCE ( 'ANY', '', #568, .NOT_KNOWN. ) ;
#65 = DIRECTION ( 'NONE',  ( 1.000000000000000000, 0.000000000000000000, 0.000000000000000000 ) ) ;
#66 = EDGE_CURVE ( 'NONE', #369, #42, #763, .T. ) ;
#67 = DIRECTION ( 'NONE',  ( 0.000000000000000000, 0.000000000000000000, 1.000000000000000000 ) ) ;
#68 = DIRECTION ( 'NONE',  ( 0.000000000000000000, 0.000000000000000000, 1.000000000000000000 ) ) ;
#69 = PERSON ( 'UNSPECIFIED', 'UNSPECIFIED', 'UNSPECIFIED', ('UNSPECIFIED'), ('UNSPECIFIED'), ('UNSPECIFIED') ) ;
#70 = DIRECTION ( 'NONE',  ( 0.000000000000000000, 0.000000000000000000, 1.000000000000000000 ) ) ;
#71 = DIRECTION ( 'NONE',  ( 1.000000000000000000, 0.000000000000000000, 0.000000000000000000 ) ) ;
#72 = FACE_OUTER_BOUND ( 'NONE', #662, .T. ) ;
#73 = LINE ( 'NONE', #790, #806 ) ;
#74 = CARTESIAN_POINT ( 'NONE',  ( -4.500000000000000000, 401.5000000000000000, -6.400000000000000355 ) ) ;
#75 = DIRECTION ( 'NONE',  ( 1.000000000000000000, 0.000000000000000000, 0.000000000000000000 ) ) ;
#76 = EDGE_CURVE ( 'NONE', #433, #675, #330, .T. ) ;
#77 = DIRECTION ( 'NONE',  ( 0.000000000000000000, -0.6977008304666456606, 0.7163892455684639504 ) ) ;
#78 = CIRCLE ( 'NONE', #631, 1.040000000000013136 ) ;
#79 = DIRECTION ( 'NONE',  ( 0.000000000000000000, 0.000000000000000000, -1.000000000000000000 ) ) ;
#80 = VECTOR ( 'NONE', #111, 1000.000000000000000 ) ;
#81 = MANIFOLD_SOLID_BREP ( 'Sweep3', #144 ) ;
#82 = DIRECTION ( 'NONE',  ( 0.000000000000000000, 1.000000000000000000, 0.000000000000000000 ) ) ;
#83 = ADVANCED_FACE ( 'NONE', ( #193 ), #519, .T. ) ;
#84 = DIRECTION ( 'NONE',  ( 0.000000000000000000, 1.000000000000000000, 0.000000000000000000 ) ) ;
#85 = CARTESIAN_POINT ( 'NONE',  ( 3.600000000000000089, 361.2519468751884233, 22.00000000000000000 ) ) ;
#86 = CARTESIAN_POINT ( 'NONE',  ( 3.600000000000000089, 398.7400000000000659, -7.000000000000006217 ) ) ;
#87 = LINE ( 'NONE', #570, #564 ) ;
#88 = ORIENTED_EDGE ( 'NONE', *, *, #212, .F. ) ;
#89 = CARTESIAN_POINT ( 'NONE',  ( -4.500000000000000000, 404.0000000000000000, -6.400000000000000355 ) ) ;
#90 = DIRECTION ( 'NONE',  ( -1.000000000000000000, -0.000000000000000000, -0.000000000000000000 ) ) ;
#91 = ORIENTED_EDGE ( 'NONE', *, *, #907, .T. ) ;
#92 = ORIENTED_EDGE ( 'NONE', *, *, #797, .F. ) ;
#93 = CARTESIAN_POINT ( 'NONE',  ( 0.7701175612584987284, 316.8556861791760753, -0.4000000000000000222 ) ) ;
#94 = CIRCLE ( 'NONE', #682, 0.7600000000000000089 ) ;
#95 = TOROIDAL_SURFACE ( 'NONE', #383, 2.999999999999980460, 0.7600000000000000089 ) ;
#96 = AXIS2_PLACEMENT_3D ( 'NONE', #105, #591, #436 ) ;
#97 = ORIENTED_EDGE ( 'NONE', *, *, #62, .T. ) ;
#98 = VERTEX_POINT ( 'NONE', #368 ) ;
#99 = ORIENTED_EDGE ( 'NONE', *, *, #290, .F. ) ;
#100 = DIRECTION ( 'NONE',  ( 0.000000000000000000, 0.000000000000000000, 1.000000000000000000 ) ) ;
#101 = LINE ( 'NONE', #337, #61 ) ;
#102 = ORIENTED_EDGE ( 'NONE', *, *, #575, .T. ) ;
#103 = ORIENTED_EDGE ( 'NONE', *, *, #987, .T. ) ;
#104 = ORIENTED_EDGE ( 'NONE', *, *, #486, .T. ) ;
#105 = CARTESIAN_POINT ( 'NONE',  ( 3.000000000000000000, 314.8487919843087752, -0.4000000000000000222 ) ) ;
#106 = FACE_OUTER_BOUND ( 'NONE', #518, .T. ) ;
#107 = ORIENTED_EDGE ( 'NONE', *, *, #166, .F. ) ;
#108 = ORIENTED_EDGE ( 'NONE', *, *, #588, .F. ) ;
#109 = ORIENTED_EDGE ( 'NONE', *, *, #698, .F. ) ;
#110 = EDGE_CURVE ( 'NONE', #98, #979, #927, .T. ) ;
#111 = DIRECTION ( 'NONE',  ( -0.000000000000000000, -0.000000000000000000, -1.000000000000000000 ) ) ;
#112 = AXIS2_PLACEMENT_3D ( 'NONE', #795, #319, #22 ) ;
#113 = CIRCLE ( 'NONE', #149, 8.760000000000001563 ) ;
#114 = EDGE_LOOP ( 'NONE', ( #888, #282, #9, #189 ) ) ;
#115 = DIRECTION ( 'NONE',  ( 0.000000000000000000, -0.6977008304666444394, 0.7163892455684650606 ) ) ;
#116 = ORIENTED_EDGE ( 'NONE', *, *, #323, .F. ) ;
#117 = CARTESIAN_POINT ( 'NONE',  ( 3.600000000000000089, 400.4000000000000341, -7.900000000000000355 ) ) ;
#118 = ORIENTED_EDGE ( 'NONE', *, *, #641, .F. ) ;
#119 = ADVANCED_FACE ( 'NONE', ( #608 ), #687, .T. ) ;
#120 = EDGE_LOOP ( 'NONE', ( #199, #508, #25, #498, #269, #818 ) ) ;
#121 = DIRECTION ( 'NONE',  ( 0.000000000000000000, 1.000000000000000000, 0.000000000000000000 ) ) ;
#122 = ORIENTED_EDGE ( 'NONE', *, *, #727, .F. ) ;
#123 = FACE_OUTER_BOUND ( 'NONE', #974, .T. ) ;
#124 = PERSON_AND_ORGANIZATION ( #69, #601 ) ;
#125 = ADVANCED_FACE ( 'NONE', ( #890 ), #827, .T. ) ;
#126 = AXIS2_PLACEMENT_3D ( 'NONE', #590, #31, #980 ) ;
#127 = TOROIDAL_SURFACE ( 'NONE', #148, 2.999999999999992895, 0.7600000000000000089 ) ;
#128 = DIRECTION ( 'NONE',  ( 0.000000000000000000, -1.000000000000000000, 0.000000000000000000 ) ) ;
#129 = TOROIDAL_SURFACE ( 'NONE', #248, 8.000000000000000000, 0.7600000000000002309 ) ;
#130 = VERTEX_POINT ( 'NONE', #356 ) ;
#131 = CARTESIAN_POINT ( 'NONE',  ( 3.600000000000000089, 400.4000000000000341, -7.900000000000007461 ) ) ;
#132 = APPLICATION_CONTEXT ( 'configuration controlled 3d designs of mechanical parts and assemblies' ) ;
#133 = EDGE_CURVE ( 'NONE', #952, #19, #893, .T. ) ;
#134 = CARTESIAN_POINT ( 'NONE',  ( 3.600000000000000089, 361.2519468751884233, 22.75999999999999801 ) ) ;
#135 = ORIENTED_EDGE ( 'NONE', *, *, #138, .F. ) ;
#136 = DIRECTION ( 'NONE',  ( 1.000000000000000000, 0.000000000000000000, 0.000000000000000000 ) ) ;
#137 = CARTESIAN_POINT ( 'NONE',  ( -4.500000000000000000, 404.0000000000000000, -6.400000000000000355 ) ) ;
#138 = EDGE_CURVE ( 'NONE', #30, #412, #710, .T. ) ;
#139 = ORIENTED_EDGE ( 'NONE', *, *, #379, .T. ) ;
#140 = CALENDAR_DATE ( 2026, 29, 9 ) ;
#141 = CC_DESIGN_PERSON_AND_ORGANIZATION_ASSIGNMENT ( #124, #620, ( #64 ) ) ;
#142 = CARTESIAN_POINT ( 'NONE',  ( -4.500000000000000000, 401.5000000000000000, -6.400000000000000355 ) ) ;
#143 = DIRECTION ( 'NONE',  ( 0.000000000000000000, 0.000000000000000000, 1.000000000000000000 ) ) ;
#144 = CLOSED_SHELL ( 'NONE', ( #981, #456, #936, #897, #963, #344, #83, #950, #119, #341, #725, #915, #545, #513, #799, #235, #1, #483, #755, #317, #607, #474, #265, #610, #816, #125, #828, #719, #525, #714, #669, #655, #842 ) ) ;
#145 = FACE_OUTER_BOUND ( 'NONE', #745, .T. ) ;
#146 = CARTESIAN_POINT ( 'NONE',  ( 3.600000000000000089, 400.4000000000000341, -7.900000000000000355 ) ) ;
#147 = CYLINDRICAL_SURFACE ( 'NONE', #730, 0.7599999999999822453 ) ;
#148 = AXIS2_PLACEMENT_3D ( 'NONE', #394, #150, #57 ) ;
#149 = AXIS2_PLACEMENT_3D ( 'NONE', #569, #654, #815 ) ;
#150 = DIRECTION ( 'NONE',  ( -0.000000000000000000, -0.000000000000000000, -1.000000000000000000 ) ) ;
#151 = DIRECTION ( 'NONE',  ( 0.000000000000000000, 0.7163892455684468530, 0.6977008304666632021 ) ) ;
#152 = DIRECTION ( 'NONE',  ( 0.000000000000000000, 0.000000000000000000, -1.000000000000000000 ) ) ;
#153 = DIRECTION ( 'NONE',  ( 0.000000000000000000, 0.000000000000000000, 1.000000000000000000 ) ) ;
#154 = DIRECTION ( 'NONE',  ( 0.000000000000000000, 1.000000000000000000, 0.000000000000000000 ) ) ;
#155 = DIRECTION ( 'NONE',  ( -1.000000000000000000, -0.000000000000000000, 0.000000000000000000 ) ) ;
#156 = CARTESIAN_POINT ( 'NONE',  ( 3.600000000000000089, 331.7480531248115767, 7.599999999999997868 ) ) ;
#157 = DIRECTION ( 'NONE',  ( 1.000000000000000000, 0.000000000000000000, 0.000000000000000000 ) ) ;
#158 = AXIS2_PLACEMENT_3D ( 'NONE', #35, #985, #351 ) ;
#159 = CARTESIAN_POINT ( 'NONE',  ( 3.600000000000000089, 400.4000000000000341, -7.140000000000007674 ) ) ;
#160 = CARTESIAN_POINT ( 'NONE',  ( 2.264978887593638746, 319.6527270168569999, -0.4000000000000000222 ) ) ;
#161 = LOCAL_TIME ( 17, 50, 24.00000000000000000, #754 ) ;
#162 = ORIENTED_EDGE ( 'NONE', *, *, #783, .T. ) ;
#163 = CARTESIAN_POINT ( 'NONE',  ( 3.600000000000000089, 399.5000000000000000, -7.000000000000006217 ) ) ;
#164 = CYLINDRICAL_SURFACE ( 'NONE', #824, 0.7600000000000062261 ) ;
#165 = ORIENTED_EDGE ( 'NONE', *, *, #48, .F. ) ;
#166 = EDGE_CURVE ( 'NONE', #37, #42, #360, .T. ) ;
#167 = ORIENTED_EDGE ( 'NONE', *, *, #861, .T. ) ;
#168 = EDGE_CURVE ( 'NONE', #609, #37, #384, .T. ) ;
#169 = LINE ( 'NONE', #496, #566 ) ;
#170 = ORIENTED_EDGE ( 'NONE', *, *, #181, .T. ) ;
#171 = DIRECTION ( 'NONE',  ( 1.000000000000000000, 0.000000000000000000, 0.000000000000000000 ) ) ;
#172 = TOROIDAL_SURFACE ( 'NONE', #262, 1.800000000000013367, 0.7600000000000002309 ) ;
#173 = CARTESIAN_POINT ( 'NONE',  ( 0.000000000000000000, 314.8487919843087752, -0.4000000000000000222 ) ) ;
#174 = AXIS2_PLACEMENT_3D ( 'NONE', #537, #136, #451 ) ;
#175 = CIRCLE ( 'NONE', #488, 2.560000000000013820 ) ;
#176 = LOCAL_TIME ( 17, 50, 24.00000000000000000, #977 ) ;
#177 = ORIENTED_EDGE ( 'NONE', *, *, #444, .T. ) ;
#178 = VERTEX_POINT ( 'NONE', #765 ) ;
#179 = DIRECTION ( 'NONE',  ( 0.000000000000000000, 0.000000000000000000, 1.000000000000000000 ) ) ;
#180 = CARTESIAN_POINT ( 'NONE',  ( 3.600000000000000089, 337.3296597685449001, 1.868886035452432814 ) ) ;
#181 = EDGE_CURVE ( 'NONE', #940, #14, #530, .T. ) ;
#182 = EDGE_CURVE ( 'NONE', #47, #887, #53, .T. ) ;
#183 = ORIENTED_EDGE ( 'NONE', *, *, #278, .F. ) ;
#184 = ORIENTED_EDGE ( 'NONE', *, *, #813, .F. ) ;
#185 = COORDINATED_UNIVERSAL_TIME_OFFSET ( 12, 0, .AHEAD. ) ;
#186 = ORIENTED_EDGE ( 'NONE', *, *, #486, .F. ) ;
#187 = DIRECTION ( 'NONE',  ( -0.000000000000000000, -1.000000000000000000, -0.000000000000000000 ) ) ;
#188 = AXIS2_PLACEMENT_3D ( 'NONE', #690, #121, #757 ) ;
#189 = ORIENTED_EDGE ( 'NONE', *, *, #534, .T. ) ;
#190 = VECTOR ( 'NONE', #348, 1000.000000000000000 ) ;
#191 = AXIS2_PLACEMENT_3D ( 'NONE', #556, #2, #77 ) ;
#192 = EDGE_LOOP ( 'NONE', ( #457, #424, #576, #663, #411 ) ) ;
#193 = FACE_OUTER_BOUND ( 'NONE', #23, .T. ) ;
#194 =( NAMED_UNIT ( * ) PLANE_ANGLE_UNIT ( ) SI_UNIT ( $, .RADIAN. ) );
#195 = APPLICATION_CONTEXT ( 'configuration controlled 3d designs of mechanical parts and assemblies' ) ;
#196 = EDGE_CURVE ( 'NONE', #759, #8, #597, .T. ) ;
#197 = ORIENTED_EDGE ( 'NONE', *, *, #999, .T. ) ;
#198 = DIRECTION ( 'NONE',  ( 0.000000000000000000, 1.000000000000000000, 0.000000000000000000 ) ) ;
#199 = ORIENTED_EDGE ( 'NONE', *, *, #777, .F. ) ;
#200 = DATE_AND_TIME ( #693, #176 ) ;
#201 = DIRECTION ( 'NONE',  ( 0.000000000000000000, 0.000000000000000000, 1.000000000000000000 ) ) ;
#202 = ORIENTED_EDGE ( 'NONE', *, *, #984, .T. ) ;
#203 = DIRECTION ( 'NONE',  ( -1.000000000000000000, 0.000000000000000000, 0.000000000000000000 ) ) ;
#204 = CIRCLE ( 'NONE', #437, 0.7599999999999809130 ) ;
#205 = AXIS2_PLACEMENT_3D ( 'NONE', #142, #75, #397 ) ;
#206 = CC_DESIGN_DATE_AND_TIME_ASSIGNMENT ( #696, #362, ( #250 ) ) ;
#207 = DIRECTION ( 'NONE',  ( 0.000000000000000000, -0.6977008304666456606, 0.7163892455684639504 ) ) ;
#208 = AXIS2_PLACEMENT_3D ( 'NONE', #156, #482, #152 ) ;
#209 = ORIENTED_EDGE ( 'NONE', *, *, #375, .F. ) ;
#210 = CARTESIAN_POINT ( 'NONE',  ( 4.360000000000000320, 399.5000000000000000, -7.000000000000006217 ) ) ;
#211 = PERSON_AND_ORGANIZATION_ROLE ( 'design_supplier' ) ;
#212 = EDGE_CURVE ( 'NONE', #743, #39, #41, .T. ) ;
#213 = CARTESIAN_POINT ( 'NONE',  ( 3.600000000000000089, 401.5000000000000000, -7.900000000000000355 ) ) ;
#214 = EDGE_CURVE ( 'NONE', #464, #47, #821, .T. ) ;
#215 = ORIENTED_EDGE ( 'NONE', *, *, #393, .F. ) ;
#216 = LINE ( 'NONE', #538, #347 ) ;
#217 = PERSON_AND_ORGANIZATION ( #69, #601 ) ;
#218 = CARTESIAN_POINT ( 'NONE',  ( 3.600000000000000089, 400.4000000000000341, -7.000000000000000888 ) ) ;
#219 = DIRECTION ( 'NONE',  ( 0.6689647316224406337, 0.7432941462471744920, 0.000000000000000000 ) ) ;
#220 = DIRECTION ( 'NONE',  ( 0.000000000000000000, 0.000000000000000000, 1.000000000000000000 ) ) ;
#221 = CARTESIAN_POINT ( 'NONE',  ( 3.000000000000000000, 314.8487919843087752, -0.3999999999999999112 ) ) ;
#222 = DIRECTION ( 'NONE',  ( -1.000000000000000000, -0.000000000000000000, 0.000000000000000000 ) ) ;
#223 = CARTESIAN_POINT ( 'NONE',  ( 3.600000000000000089, 361.2519468751884233, 21.23999999999999844 ) ) ;
#224 = DIRECTION ( 'NONE',  ( -1.000000000000000000, 0.000000000000000000, -0.000000000000000000 ) ) ;
#225 = AXIS2_PLACEMENT_3D ( 'NONE', #715, #154, #793 ) ;
#226 = CIRCLE ( 'NONE', #788, 0.1400000000000116429 ) ;
#227 = EDGE_CURVE ( 'NONE', #877, #609, #304, .T. ) ;
#228 = DIRECTION ( 'NONE',  ( 0.000000000000000000, 0.000000000000000000, -1.000000000000000000 ) ) ;
#229 = DIRECTION ( 'NONE',  ( 0.000000000000000000, -0.6977008304666451055, 0.7163892455684646166 ) ) ;
#230 = AXIS2_PLACEMENT_3D ( 'NONE', #544, #151, #229 ) ;
#231 = LOCAL_TIME ( 17, 50, 24.00000000000000000, #381 ) ;
#232 = EDGE_CURVE ( 'NONE', #891, #98, #78, .T. ) ;
#233 = FACE_BOUND ( 'NONE', #736, .T. ) ;
#234 = DIRECTION ( 'NONE',  ( 0.000000000000000000, 0.000000000000000000, -1.000000000000000000 ) ) ;
#235 = ADVANCED_FACE ( 'NONE', ( #1001 ), #989, .F. ) ;
#236 = DIRECTION ( 'NONE',  ( 0.000000000000000000, 1.000000000000000000, 0.000000000000000000 ) ) ;
#237 = CARTESIAN_POINT ( 'NONE',  ( 3.600000000000000089, 331.7480531248115767, -1.160000000000000142 ) ) ;
#238 = FACE_OUTER_BOUND ( 'NONE', #252, .T. ) ;
#239 = CARTESIAN_POINT ( 'NONE',  ( 3.600000000000000089, 337.3296597685449001, 1.868886035452432814 ) ) ;
#240 = CARTESIAN_POINT ( 'NONE',  ( 0.000000000000000000, 310.9000000000000341, -0.4000000000000000222 ) ) ;
#241 = CYLINDRICAL_SURFACE ( 'NONE', #867, 0.7600000000000000089 ) ;
#242 = EDGE_CURVE ( 'NONE', #565, #986, #94, .T. ) ;
#243 = CARTESIAN_POINT ( 'NONE',  ( 3.600000000000000089, 399.5000000000000000, 20.19999999999999574 ) ) ;
#244 = CC_DESIGN_PERSON_AND_ORGANIZATION_ASSIGNMENT ( #217, #524, ( #250 ) ) ;
#245 = EDGE_LOOP ( 'NONE', ( #91, #958, #723, #116 ) ) ;
#246 = CARTESIAN_POINT ( 'NONE',  ( 3.600000000000000089, 400.4000000000000341, -7.000000000000000888 ) ) ;
#247 = AXIS2_PLACEMENT_3D ( 'NONE', #469, #771, #298 ) ;
#248 = AXIS2_PLACEMENT_3D ( 'NONE', #859, #155, #481 ) ;
#249 = DIRECTION ( 'NONE',  ( 0.000000000000000000, 1.000000000000000000, 0.000000000000000000 ) ) ;
#250 = SECURITY_CLASSIFICATION ( '', '', #374 ) ;
#251 = EDGE_CURVE ( 'NONE', #426, #759, #226, .T. ) ;
#252 = EDGE_LOOP ( 'NONE', ( #256, #982, #729, #280, #500 ) ) ;
#253 = ORIENTED_EDGE ( 'NONE', *, *, #45, .F. ) ;
#254 = EDGE_CURVE ( 'NONE', #986, #24, #613, .T. ) ;
#255 = CARTESIAN_POINT ( 'NONE',  ( 3.000000000000000000, 314.8487919843087752, -0.4000000000000000222 ) ) ;
#256 = ORIENTED_EDGE ( 'NONE', *, *, #857, .F. ) ;
#257 = ORIENTED_EDGE ( 'NONE', *, *, #442, .T. ) ;
#258 = CARTESIAN_POINT ( 'NONE',  ( 3.600000000000000089, 397.6999999999999886, 22.00000000000000000 ) ) ;
#259 = ORIENTED_EDGE ( 'NONE', *, *, #196, .F. ) ;
#260 = VERTEX_POINT ( 'NONE', #305 ) ;
#261 =( LENGTH_UNIT ( ) NAMED_UNIT ( * ) SI_UNIT ( .MILLI., .METRE. ) );
#262 = AXIS2_PLACEMENT_3D ( 'NONE', #551, #222, #387 ) ;
#263 = DIRECTION ( 'NONE',  ( 0.000000000000000000, 1.000000000000000000, 0.000000000000000000 ) ) ;
#264 = CIRCLE ( 'NONE', #501, 2.239999999999980673 ) ;
#265 = ADVANCED_FACE ( 'NONE', ( #238 ), #172, .T. ) ;
#266 = AXIS2_PLACEMENT_3D ( 'NONE', #85, #236, #402 ) ;
#267 = VERTEX_POINT ( 'NONE', #466 ) ;
#268 = ORIENTED_EDGE ( 'NONE', *, *, #242, .F. ) ;
#269 = ORIENTED_EDGE ( 'NONE', *, *, #879, .F. ) ;
#270 = ORIENTED_EDGE ( 'NONE', *, *, #840, .F. ) ;
#271 = DIRECTION ( 'NONE',  ( 0.000000000000000000, 0.000000000000000000, -1.000000000000000000 ) ) ;
#272 = EDGE_LOOP ( 'NONE', ( #965, #506, #801, #20 ) ) ;
#273 = DIRECTION ( 'NONE',  ( 0.000000000000000000, 0.000000000000000000, -1.000000000000000000 ) ) ;
#274 = CARTESIAN_POINT ( 'NONE',  ( 0.000000000000000000, 310.9000000000000341, 0.3600000000000000422 ) ) ;
#275 = ADVANCED_BREP_SHAPE_REPRESENTATION ( 'Harness - Camera MIPI Cable', ( #81, #334 ), #567 ) ;
#276 = AXIS2_PLACEMENT_3D ( 'NONE', #704, #923, #143 ) ;
#277 = AXIS2_PLACEMENT_3D ( 'NONE', #146, #295, #542 ) ;
#278 = EDGE_CURVE ( 'NONE', #944, #369, #785, .T. ) ;
#279 = AXIS2_PLACEMENT_3D ( 'NONE', #246, #71, #406 ) ;
#280 = ORIENTED_EDGE ( 'NONE', *, *, #685, .F. ) ;
#281 = DIRECTION ( 'NONE',  ( 0.000000000000000000, 1.000000000000000000, 0.000000000000000000 ) ) ;
#282 = ORIENTED_EDGE ( 'NONE', *, *, #278, .T. ) ;
#283 = DIRECTION ( 'NONE',  ( 0.000000000000000000, 0.000000000000000000, 1.000000000000000000 ) ) ;
#284 = EDGE_LOOP ( 'NONE', ( #878, #589, #829, #820 ) ) ;
#285 = DIRECTION ( 'NONE',  ( 0.000000000000000000, 0.7163892455684479632, 0.6977008304666620919 ) ) ;
#286 = EDGE_LOOP ( 'NONE', ( #910, #884, #953, #253 ) ) ;
#287 = APPROVAL_DATE_TIME ( #200, #805 ) ;
#288 = PLANE ( 'NONE',  #59 ) ;
#289 = ORIENTED_EDGE ( 'NONE', *, *, #353, .T. ) ;
#290 = EDGE_CURVE ( 'NONE', #979, #593, #216, .T. ) ;
#291 = EDGE_CURVE ( 'NONE', #979, #952, #310, .T. ) ;
#292 = CIRCLE ( 'NONE', #913, 0.7600000000000000089 ) ;
#293 = CARTESIAN_POINT ( 'NONE',  ( 4.500000000000000000, 401.5000000000000000, -6.400000000000000355 ) ) ;
#294 = AXIS2_PLACEMENT_3D ( 'NONE', #718, #640, #935 ) ;
#295 = DIRECTION ( 'NONE',  ( 0.000000000000000000, 1.000000000000000000, 0.000000000000000000 ) ) ;
#296 = APPROVAL_DATE_TIME ( #768, #326 ) ;
#297 = FACE_OUTER_BOUND ( 'NONE', #120, .T. ) ;
#298 = DIRECTION ( 'NONE',  ( 0.000000000000000000, 0.000000000000000000, 1.000000000000000000 ) ) ;
#299 = DIRECTION ( 'NONE',  ( 0.000000000000000000, 0.000000000000000000, 1.000000000000000000 ) ) ;
#300 = CARTESIAN_POINT ( 'NONE',  ( 3.600000000000000089, 397.6999999999999886, 22.00000000000000000 ) ) ;
#301 = PERSON_AND_ORGANIZATION ( #69, #601 ) ;
#302 = FACE_OUTER_BOUND ( 'NONE', #949, .T. ) ;
#303 = CARTESIAN_POINT ( 'NONE',  ( 0.000000000000000000, 314.8487919843087752, -0.4000000000000000222 ) ) ;
#304 = LINE ( 'NONE', #137, #850 ) ;
#305 = CARTESIAN_POINT ( 'NONE',  ( 3.600000000000000089, 355.1400876003004896, 20.27556979117958846 ) ) ;
#306 = EDGE_CURVE ( 'NONE', #448, #891, #834, .T. ) ;
#307 = FACE_OUTER_BOUND ( 'NONE', #826, .T. ) ;
#308 = LINE ( 'NONE', #223, #401 ) ;
#309 = CARTESIAN_POINT ( 'NONE',  ( -4.500000000000000000, 404.0000000000000000, -6.400000000000000355 ) ) ;
#310 = CIRCLE ( 'NONE', #880, 0.7599999999999829114 ) ;
#311 = AXIS2_PLACEMENT_3D ( 'NONE', #639, #633, #918 ) ;
#312 = CARTESIAN_POINT ( 'NONE',  ( 3.600000000000000089, 400.4000000000000341, -7.000000000000000888 ) ) ;
#313 = DIRECTION ( 'NONE',  ( -1.000000000000000000, -0.000000000000000000, 0.000000000000000000 ) ) ;
#314 = CIRCLE ( 'NONE', #667, 0.7599999999999829114 ) ;
#315 = DIRECTION ( 'NONE',  ( -1.000000000000000000, -0.000000000000000000, 0.000000000000000000 ) ) ;
#316 = CARTESIAN_POINT ( 'NONE',  ( 3.600000000000000089, 325.0000000000000000, -0.4000000000000000222 ) ) ;
#317 = ADVANCED_FACE ( 'NONE', ( #543 ), #849, .T. ) ;
#318 = CARTESIAN_POINT ( 'NONE',  ( 3.600000000000000089, 331.7480531248115767, -0.4000000000000000222 ) ) ;
#319 = DIRECTION ( 'NONE',  ( 0.000000000000000000, 1.000000000000000000, 0.000000000000000000 ) ) ;
#320 = CARTESIAN_POINT ( 'NONE',  ( 3.600000000000000089, 321.1512080156912248, -1.159999999999999920 ) ) ;
#321 = EDGE_LOOP ( 'NONE', ( #270, #896, #167, #807, #742 ) ) ;
#322 = CARTESIAN_POINT ( 'NONE',  ( 4.500000000000000000, 404.0000000000000000, -9.400000000000000355 ) ) ;
#323 = EDGE_CURVE ( 'NONE', #675, #260, #911, .T. ) ;
#324 = LINE ( 'NONE', #778, #516 ) ;
#325 = DIRECTION ( 'NONE',  ( 0.000000000000000000, 0.000000000000000000, 1.000000000000000000 ) ) ;
#326 = APPROVAL ( #917, 'UNSPECIFIED' ) ;
#327 = ORIENTED_EDGE ( 'NONE', *, *, #227, .F. ) ;
#328 = VERTEX_POINT ( 'NONE', #210 ) ;
#329 = DIRECTION ( 'NONE',  ( 0.000000000000000000, 0.000000000000000000, 1.000000000000000000 ) ) ;
#330 = CIRCLE ( 'NONE', #363, 7.240000000000000213 ) ;
#331 = VECTOR ( 'NONE', #461, 1000.000000000000000 ) ;
#332 = AXIS2_PLACEMENT_3D ( 'NONE', #240, #408, #626 ) ;
#333 = CARTESIAN_POINT ( 'NONE',  ( 3.600000000000000089, 361.2519468751884233, 22.00000000000000000 ) ) ;
#334 = AXIS2_PLACEMENT_3D ( 'NONE', #577, #100, #171 ) ;
#335 = ORIENTED_EDGE ( 'NONE', *, *, #442, .F. ) ;
#336 = ORIENTED_EDGE ( 'NONE', *, *, #166, .T. ) ;
#337 = CARTESIAN_POINT ( 'NONE',  ( -4.500000000000000000, 404.0000000000000000, -9.400000000000000355 ) ) ;
#338 = EDGE_CURVE ( 'NONE', #738, #905, #55, .T. ) ;
#339 = ORIENTED_EDGE ( 'NONE', *, *, #780, .F. ) ;
#340 = ORIENTED_EDGE ( 'NONE', *, *, #357, .F. ) ;
#341 = ADVANCED_FACE ( 'NONE', ( #145 ), #843, .T. ) ;
#342 = DIRECTION ( 'NONE',  ( 0.000000000000000000, 0.7163892455684468530, 0.6977008304666632021 ) ) ;
#343 = ORIENTED_EDGE ( 'NONE', *, *, #783, .F. ) ;
#344 = ADVANCED_FACE ( 'NONE', ( #123 ), #650, .T. ) ;
#345 = ORIENTED_EDGE ( 'NONE', *, *, #678, .F. ) ;
#346 = LINE ( 'NONE', #274, #854 ) ;
#347 = VECTOR ( 'NONE', #855, 1000.000000000000000 ) ;
#348 = DIRECTION ( 'NONE',  ( 0.000000000000000000, 0.7163892455684479632, 0.6977008304666620919 ) ) ;
#349 = AXIS2_PLACEMENT_3D ( 'NONE', #562, #938, #325 ) ;
#350 = ORIENTED_EDGE ( 'NONE', *, *, #168, .F. ) ;
#351 = DIRECTION ( 'NONE',  ( 0.000000000000000000, 1.000000000000000000, 0.000000000000000000 ) ) ;
#352 = PERSON_AND_ORGANIZATION ( #69, #601 ) ;
#353 = EDGE_CURVE ( 'NONE', #759, #39, #619, .T. ) ;
#354 = UNCERTAINTY_MEASURE_WITH_UNIT (LENGTH_MEASURE( 1.000000000000000082E-05 ), #261, 'distance_accuracy_value', 'NONE');
#355 = ORIENTED_EDGE ( 'NONE', *, *, #744, .F. ) ;
#356 = CARTESIAN_POINT ( 'NONE',  ( 9.307315673519884720E-17, 310.9000000000000341, -1.159999999999999920 ) ) ;
#357 = EDGE_CURVE ( 'NONE', #940, #505, #611, .T. ) ;
#358 = EDGE_CURVE ( 'NONE', #24, #178, #599, .T. ) ;
#359 = ORIENTED_EDGE ( 'NONE', *, *, #358, .T. ) ;
#360 = LINE ( 'NONE', #521, #467 ) ;
#361 = ORIENTED_EDGE ( 'NONE', *, *, #291, .T. ) ;
#362 = DATE_TIME_ROLE ( 'classification_date' ) ;
#363 = AXIS2_PLACEMENT_3D ( 'NONE', #441, #968, #749 ) ;
#364 = AXIS2_PLACEMENT_3D ( 'NONE', #60, #471, #299 ) ;
#365 = AXIS2_PLACEMENT_3D ( 'NONE', #316, #82, #1000 ) ;
#366 = CIRCLE ( 'NONE', #882, 0.7600000000000002309 ) ;
#367 = ORIENTED_EDGE ( 'NONE', *, *, #502, .T. ) ;
#368 = CARTESIAN_POINT ( 'NONE',  ( 3.600000000000000089, 398.7400000000000659, 20.19999999999999574 ) ) ;
#369 = VERTEX_POINT ( 'NONE', #695 ) ;
#370 = APPROVAL_ROLE ( '' ) ;
#371 = LINE ( 'NONE', #134, #398 ) ;
#372 = ORIENTED_EDGE ( 'NONE', *, *, #66, .T. ) ;
#373 = CARTESIAN_POINT ( 'NONE',  ( 0.5999999999999998668, 321.1512080156912248, -0.4000000000000000222 ) ) ;
#374 = SECURITY_CLASSIFICATION_LEVEL ( 'unclassified' ) ;
#375 = EDGE_CURVE ( 'NONE', #572, #130, #789, .T. ) ;
#376 = CARTESIAN_POINT ( 'NONE',  ( -4.500000000000000000, 404.0000000000000000, -9.400000000000000355 ) ) ;
#377 = DIRECTION ( 'NONE',  ( 0.000000000000000000, 0.000000000000000000, -1.000000000000000000 ) ) ;
#378 = VERTEX_POINT ( 'NONE', #983 ) ;
#379 = EDGE_CURVE ( 'NONE', #267, #819, #804, .T. ) ;
#380 = CARTESIAN_POINT ( 'NONE',  ( 1.335021112406351351, 316.3472729831430001, -0.3999999999999999112 ) ) ;
#381 = COORDINATED_UNIVERSAL_TIME_OFFSET ( 12, 0, .AHEAD. ) ;
#382 = FACE_OUTER_BOUND ( 'NONE', #272, .T. ) ;
#383 = AXIS2_PLACEMENT_3D ( 'NONE', #403, #67, #712 ) ;
#384 = LINE ( 'NONE', #848, #11 ) ;
#385 = VECTOR ( 'NONE', #929, 1000.000000000000000 ) ;
#386 = DIRECTION ( 'NONE',  ( 0.000000000000000000, 1.000000000000000000, 0.000000000000000000 ) ) ;
#387 = DIRECTION ( 'NONE',  ( 0.000000000000000000, 0.000000000000000000, 1.000000000000000000 ) ) ;
#388 = SHAPE_DEFINITION_REPRESENTATION ( #410, #275 ) ;
#389 = DIRECTION ( 'NONE',  ( -1.000000000000000000, -0.000000000000000000, -0.000000000000000000 ) ) ;
#390 = DIRECTION ( 'NONE',  ( -0.000000000000000000, -1.000000000000000000, -0.000000000000000000 ) ) ;
#391 = DIRECTION ( 'NONE',  ( 0.000000000000000000, 1.000000000000000000, 0.000000000000000000 ) ) ;
#392 = CARTESIAN_POINT ( 'NONE',  ( 0.000000000000000000, 310.9000000000000341, -0.4000000000000000222 ) ) ;
#393 = EDGE_CURVE ( 'NONE', #433, #464, #957, .T. ) ;
#394 = CARTESIAN_POINT ( 'NONE',  ( 3.000000000000000000, 314.8487919843087752, -0.4000000000000000222 ) ) ;
#395 = FACE_OUTER_BOUND ( 'NONE', #812, .T. ) ;
#396 = DIRECTION ( 'NONE',  ( 0.000000000000000000, 1.000000000000000000, 0.000000000000000000 ) ) ;
#397 = DIRECTION ( 'NONE',  ( 0.000000000000000000, 0.000000000000000000, -1.000000000000000000 ) ) ;
#398 = VECTOR ( 'NONE', #904, 1000.000000000000000 ) ;
#399 = AXIS2_PLACEMENT_3D ( 'NONE', #767, #689, #760 ) ;
#400 = CARTESIAN_POINT ( 'NONE',  ( 2.839999999999999858, 399.5000000000000000, 20.19999999999999574 ) ) ;
#401 = VECTOR ( 'NONE', #396, 1000.000000000000000 ) ;
#402 = DIRECTION ( 'NONE',  ( 0.000000000000000000, 0.000000000000000000, 1.000000000000000000 ) ) ;
#403 = CARTESIAN_POINT ( 'NONE',  ( 0.5999999999999998668, 321.1512080156912248, -0.4000000000000000222 ) ) ;
#404 = EDGE_CURVE ( 'NONE', #267, #940, #468, .T. ) ;
#405 = CARTESIAN_POINT ( 'NONE',  ( -4.500000000000000000, 401.5000000000000000, -6.400000000000000355 ) ) ;
#406 = DIRECTION ( 'NONE',  ( 0.000000000000000000, 0.000000000000000000, -1.000000000000000000 ) ) ;
#407 = CC_DESIGN_DATE_AND_TIME_ASSIGNMENT ( #912, #52, ( #739 ) ) ;
#408 = DIRECTION ( 'NONE',  ( 0.000000000000000000, 1.000000000000000000, 0.000000000000000000 ) ) ;
#409 = CARTESIAN_POINT ( 'NONE',  ( 3.600000000000000089, 399.5000000000000000, -7.000000000000006217 ) ) ;
#410 = PRODUCT_DEFINITION_SHAPE ( 'NONE', 'NONE',  #739 ) ;
#411 = ORIENTED_EDGE ( 'NONE', *, *, #987, .F. ) ;
#412 = VERTEX_POINT ( 'NONE', #528 ) ;
#413 = CARTESIAN_POINT ( 'NONE',  ( 3.600000000000000089, 397.6999999999999886, 20.19999999999999929 ) ) ;
#414 = DIRECTION ( 'NONE',  ( -0.7432941462471686078, 0.6689647316224471840, 0.000000000000000000 ) ) ;
#415 = DIRECTION ( 'NONE',  ( 0.000000000000000000, 1.000000000000000000, 0.000000000000000000 ) ) ;
#416 = EDGE_LOOP ( 'NONE', ( #336, #592, #183, #202 ) ) ;
#417 = ORIENTED_EDGE ( 'NONE', *, *, #338, .T. ) ;
#418 = AXIS2_PLACEMENT_3D ( 'NONE', #117, #198, #201 ) ;
#419 = VECTOR ( 'NONE', #389, 1000.000000000000000 ) ;
#420 = DIRECTION ( 'NONE',  ( 1.000000000000000000, 0.000000000000000000, 0.000000000000000000 ) ) ;
#421 = CIRCLE ( 'NONE', #63, 1.660000000000012133 ) ;
#422 = CARTESIAN_POINT ( 'NONE',  ( 4.500000000000000000, 404.0000000000000000, -6.400000000000000355 ) ) ;
#423 = APPROVAL_PERSON_ORGANIZATION ( #352, #939, #750 ) ;
#424 = ORIENTED_EDGE ( 'NONE', *, *, #924, .T. ) ;
#425 = ORIENTED_EDGE ( 'NONE', *, *, #212, .T. ) ;
#426 = VERTEX_POINT ( 'NONE', #836 ) ;
#427 = PERSON_AND_ORGANIZATION ( #69, #601 ) ;
#428 = CYLINDRICAL_SURFACE ( 'NONE', #914, 0.7600000000000002309 ) ;
#429 = EDGE_CURVE ( 'NONE', #8, #759, #582, .T. ) ;
#430 = ORIENTED_EDGE ( 'NONE', *, *, #861, .F. ) ;
#431 = ORIENTED_EDGE ( 'NONE', *, *, #559, .F. ) ;
#432 = DIRECTION ( 'NONE',  ( 0.000000000000000000, 0.000000000000000000, 1.000000000000000000 ) ) ;
#433 = VERTEX_POINT ( 'NONE', #51 ) ;
#434 = ORIENTED_EDGE ( 'NONE', *, *, #353, .F. ) ;
#435 = ORIENTED_EDGE ( 'NONE', *, *, #637, .T. ) ;
#436 = DIRECTION ( 'NONE',  ( -1.000000000000000000, 0.000000000000000000, 0.000000000000000000 ) ) ;
#437 = AXIS2_PLACEMENT_3D ( 'NONE', #901, #455, #207 ) ;
#438 = AXIS2_PLACEMENT_3D ( 'NONE', #373, #462, #157 ) ;
#439 = VECTOR ( 'NONE', #84, 1000.000000000000000 ) ;
#440 = ORIENTED_EDGE ( 'NONE', *, *, #857, .T. ) ;
#441 = CARTESIAN_POINT ( 'NONE',  ( 3.600000000000000089, 331.7480531248115767, 7.599999999999997868 ) ) ;
#442 = EDGE_CURVE ( 'NONE', #505, #178, #531, .T. ) ;
#443 = APPROVAL_STATUS ( 'not_yet_approved' ) ;
#444 = EDGE_CURVE ( 'NONE', #657, #505, #973, .T. ) ;
#445 = ORIENTED_EDGE ( 'NONE', *, *, #291, .F. ) ;
#446 = DIRECTION ( 'NONE',  ( 0.000000000000000000, 1.000000000000000000, 0.000000000000000000 ) ) ;
#447 = EDGE_LOOP ( 'NONE', ( #162, #991, #108, #372 ) ) ;
#448 = VERTEX_POINT ( 'NONE', #862 ) ;
#449 = CARTESIAN_POINT ( 'NONE',  ( 3.600000000000000089, 400.4000000000000341, -8.660000000000007248 ) ) ;
#450 = ORIENTED_EDGE ( 'NONE', *, *, #871, .T. ) ;
#451 = DIRECTION ( 'NONE',  ( 0.000000000000000000, 0.000000000000000000, -1.000000000000000000 ) ) ;
#452 = VECTOR ( 'NONE', #618, 1000.000000000000000 ) ;
#453 = CIRCLE ( 'NONE', #837, 0.7599999999999814682 ) ;
#454 = AXIS2_PLACEMENT_3D ( 'NONE', #318, #638, #546 ) ;
#455 = DIRECTION ( 'NONE',  ( 0.000000000000000000, 0.7163892455684479632, 0.6977008304666623140 ) ) ;
#456 = ADVANCED_FACE ( 'NONE', ( #476 ), #127, .T. ) ;
#457 = ORIENTED_EDGE ( 'NONE', *, *, #375, .T. ) ;
#458 = DIRECTION ( 'NONE',  ( 0.000000000000000000, 1.000000000000000000, 0.000000000000000000 ) ) ;
#459 = DIRECTION ( 'NONE',  ( -0.000000000000000000, -0.000000000000000000, -1.000000000000000000 ) ) ;
#460 = ORIENTED_EDGE ( 'NONE', *, *, #242, .T. ) ;
#461 = DIRECTION ( 'NONE',  ( 0.6689647316224406337, 0.7432941462471744920, 0.000000000000000000 ) ) ;
#462 = DIRECTION ( 'NONE',  ( 0.000000000000000000, 0.000000000000000000, 1.000000000000000000 ) ) ;
#463 = CARTESIAN_POINT ( 'NONE',  ( 3.599999999999992539, 321.1512080156912248, -0.4000000000000000222 ) ) ;
#464 = VERTEX_POINT ( 'NONE', #237 ) ;
#465 = CARTESIAN_POINT ( 'NONE',  ( 3.600000000000000089, 336.7994071373902329, 2.413341862084453560 ) ) ;
#466 = CARTESIAN_POINT ( 'NONE',  ( 0.7600000000000000089, 314.8487919843087752, -0.3999999999999999112 ) ) ;
#467 = VECTOR ( 'NONE', #830, 1000.000000000000000 ) ;
#468 = CIRCLE ( 'NONE', #683, 2.239999999999992664 ) ;
#469 = CARTESIAN_POINT ( 'NONE',  ( 3.600000000000000089, 400.4000000000000341, -7.900000000000007461 ) ) ;
#470 = CIRCLE ( 'NONE', #230, 0.7599999999999814682 ) ;
#471 = DIRECTION ( 'NONE',  ( 0.000000000000000000, 1.000000000000000000, 0.000000000000000000 ) ) ;
#472 = CC_DESIGN_APPROVAL ( #326, ( #64 ) ) ;
#473 = CARTESIAN_POINT ( 'NONE',  ( 9.307315673519884720E-17, 310.9000000000000341, -1.159999999999999920 ) ) ;
#474 = ADVANCED_FACE ( 'NONE', ( #297 ), #621, .T. ) ;
#475 = DIRECTION ( 'NONE',  ( 0.000000000000000000, -0.000000000000000000, 1.000000000000000000 ) ) ;
#476 = FACE_OUTER_BOUND ( 'NONE', #691, .T. ) ;
#477 = DIRECTION ( 'NONE',  ( 0.000000000000000000, 0.000000000000000000, -1.000000000000000000 ) ) ;
#478 = DIRECTION ( 'NONE',  ( 0.000000000000000000, 0.000000000000000000, 1.000000000000000000 ) ) ;
#479 = CARTESIAN_POINT ( 'NONE',  ( 3.600000000000000089, 400.4000000000000341, -7.000000000000000888 ) ) ;
#480 = DIRECTION ( 'NONE',  ( 0.000000000000000000, 0.000000000000000000, 1.000000000000000000 ) ) ;
#481 = DIRECTION ( 'NONE',  ( 0.000000000000000000, 0.000000000000000000, 1.000000000000000000 ) ) ;
#482 = DIRECTION ( 'NONE',  ( 1.000000000000000000, 0.000000000000000000, 0.000000000000000000 ) ) ;
#483 = ADVANCED_FACE ( 'NONE', ( #484 ), #779, .F. ) ;
#484 = FACE_OUTER_BOUND ( 'NONE', #114, .T. ) ;
#485 = AXIS2_PLACEMENT_3D ( 'NONE', #218, #65, #702 ) ;
#486 = EDGE_CURVE ( 'NONE', #505, #657, #12, .T. ) ;
#487 = LINE ( 'NONE', #473, #439 ) ;
#488 = AXIS2_PLACEMENT_3D ( 'NONE', #709, #315, #933 ) ;
#489 = DIRECTION ( 'NONE',  ( -1.000000000000000000, 0.000000000000000000, 0.000000000000000000 ) ) ;
#490 = DIRECTION ( 'NONE',  ( 1.000000000000000000, 0.000000000000000000, 0.000000000000000000 ) ) ;
#491 = EDGE_LOOP ( 'NONE', ( #340, #170, #892, #186 ) ) ;
#492 = DIRECTION ( 'NONE',  ( 0.000000000000000000, 0.000000000000000000, -1.000000000000000000 ) ) ;
#493 = DIRECTION ( 'NONE',  ( 0.000000000000000000, 1.000000000000000000, 0.000000000000000000 ) ) ;
#494 = ORIENTED_EDGE ( 'NONE', *, *, #196, .T. ) ;
#495 = ORIENTED_EDGE ( 'NONE', *, *, #404, .F. ) ;
#496 = CARTESIAN_POINT ( 'NONE',  ( 3.600000000000000089, 325.0000000000000000, -1.160000000000000142 ) ) ;
#497 = EDGE_CURVE ( 'NONE', #887, #412, #993, .T. ) ;
#498 = ORIENTED_EDGE ( 'NONE', *, *, #290, .T. ) ;
#499 = AXIS2_PLACEMENT_3D ( 'NONE', #512, #285, #115 ) ;
#500 = ORIENTED_EDGE ( 'NONE', *, *, #133, .F. ) ;
#501 = AXIS2_PLACEMENT_3D ( 'NONE', #868, #585, #490 ) ;
#502 = EDGE_CURVE ( 'NONE', #8, #743, #73, .T. ) ;
#503 = TOROIDAL_SURFACE ( 'NONE', #762, 2.999999999999980460, 0.7600000000000000089 ) ;
#504 = CARTESIAN_POINT ( 'NONE',  ( 3.600000000000000089, 399.5000000000000000, 20.19999999999999574 ) ) ;
#505 = VERTEX_POINT ( 'NONE', #707 ) ;
#506 = ORIENTED_EDGE ( 'NONE', *, *, #984, .F. ) ;
#507 = CARTESIAN_POINT ( 'NONE',  ( 3.600000000000000089, 336.7994071373902329, 2.413341862084439793 ) ) ;
#508 = ORIENTED_EDGE ( 'NONE', *, *, #685, .T. ) ;
#509 = EDGE_LOOP ( 'NONE', ( #948, #960, #259, #15, #97 ) ) ;
#510 =( NAMED_UNIT ( * ) SI_UNIT ( $, .STERADIAN. ) SOLID_ANGLE_UNIT ( ) );
#511 = EDGE_LOOP ( 'NONE', ( #753, #808, #34, #355 ) ) ;
#512 = CARTESIAN_POINT ( 'NONE',  ( 3.600000000000000089, 337.3296597685449001, 1.868886035452432814 ) ) ;
#513 = ADVANCED_FACE ( 'NONE', ( #382 ), #770, .F. ) ;
#514 = LINE ( 'NONE', #21, #80 ) ;
#515 = AXIS2_PLACEMENT_3D ( 'NONE', #243, #234, #555 ) ;
#516 = VECTOR ( 'NONE', #642, 1000.000000000000000 ) ;
#517 = LOCAL_TIME ( 17, 50, 24.00000000000000000, #185 ) ;
#518 = EDGE_LOOP ( 'NONE', ( #122, #460, #733, #659, #339 ) ) ;
#519 = CYLINDRICAL_SURFACE ( 'NONE', #126, 0.7600000000000062261 ) ;
#520 = ORIENTED_EDGE ( 'NONE', *, *, #727, .T. ) ;
#521 = CARTESIAN_POINT ( 'NONE',  ( -4.500000000000000000, 401.5000000000000000, -9.400000000000000355 ) ) ;
#522 = ORIENTED_EDGE ( 'NONE', *, *, #534, .F. ) ;
#523 = DIRECTION ( 'NONE',  ( 0.000000000000000000, 0.000000000000000000, -1.000000000000000000 ) ) ;
#524 = PERSON_AND_ORGANIZATION_ROLE ( 'classification_officer' ) ;
#525 = ADVANCED_FACE ( 'NONE', ( #1004 ), #95, .T. ) ;
#526 = CARTESIAN_POINT ( 'NONE',  ( 3.600000000000000089, 399.5000000000000000, -7.000000000000006217 ) ) ;
#527 = ORIENTED_EDGE ( 'NONE', *, *, #497, .F. ) ;
#528 = CARTESIAN_POINT ( 'NONE',  ( 3.600000000000000089, 361.2519468751884233, 21.23999999999999844 ) ) ;
#529 = CALENDAR_DATE ( 2026, 29, 9 ) ;
#530 = CIRCLE ( 'NONE', #276, 0.7600000000000000089 ) ;
#531 = CIRCLE ( 'NONE', #438, 3.759999999999980247 ) ;
#532 = AXIS2_PLACEMENT_3D ( 'NONE', #74, #706, #475 ) ;
#533 = CARTESIAN_POINT ( 'NONE',  ( -4.500000000000000000, 404.0000000000000000, -6.400000000000000355 ) ) ;
#534 = EDGE_CURVE ( 'NONE', #738, #877, #1009, .T. ) ;
#535 = CARTESIAN_POINT ( 'NONE',  ( 3.600000000000000089, 397.6999999999999886, 20.19999999999999929 ) ) ;
#536 = ORIENTED_EDGE ( 'NONE', *, *, #45, .T. ) ;
#537 = CARTESIAN_POINT ( 'NONE',  ( 3.600000000000000089, 331.7480531248115767, 7.599999999999997868 ) ) ;
#538 = CARTESIAN_POINT ( 'NONE',  ( 2.839999999999999858, 399.5000000000000000, 20.19999999999999574 ) ) ;
#539 = APPROVAL_ROLE ( '' ) ;
#540 = DIRECTION ( 'NONE',  ( -1.000000000000000000, -0.000000000000000000, 0.000000000000000000 ) ) ;
#541 = CARTESIAN_POINT ( 'NONE',  ( 3.600000000000000089, 337.8599123996995104, 1.324430208820412069 ) ) ;
#542 = DIRECTION ( 'NONE',  ( 0.000000000000000000, 0.000000000000000000, 1.000000000000000000 ) ) ;
#543 = FACE_OUTER_BOUND ( 'NONE', #751, .T. ) ;
#544 = CARTESIAN_POINT ( 'NONE',  ( 3.600000000000000089, 337.3296597685449001, 1.868886035452432814 ) ) ;
#545 = ADVANCED_FACE ( 'NONE', ( #703 ), #922, .T. ) ;
#546 = DIRECTION ( 'NONE',  ( 0.000000000000000000, 0.000000000000000000, 1.000000000000000000 ) ) ;
#547 = AXIS2_PLACEMENT_3D ( 'NONE', #293, #58, #844 ) ;
#548 = CARTESIAN_POINT ( 'NONE',  ( 3.600000000000000089, 361.2519468751884233, 14.00000000000000000 ) ) ;
#549 = AXIS2_PLACEMENT_3D ( 'NONE', #975, #523, #832 ) ;
#550 = CIRCLE ( 'NONE', #96, 3.759999999999992681 ) ;
#551 = CARTESIAN_POINT ( 'NONE',  ( 3.600000000000000089, 397.6999999999999886, 20.19999999999999929 ) ) ;
#552 = CC_DESIGN_APPROVAL ( #805, ( #250 ) ) ;
#553 = CYLINDRICAL_SURFACE ( 'NONE', #46, 0.7600000000000000089 ) ;
#554 = LINE ( 'NONE', #557, #13 ) ;
#555 = DIRECTION ( 'NONE',  ( -1.000000000000000000, 0.000000000000000000, 0.000000000000000000 ) ) ;
#556 = CARTESIAN_POINT ( 'NONE',  ( 3.600000000000000089, 355.6703402314550999, 19.73111396454757482 ) ) ;
#557 = CARTESIAN_POINT ( 'NONE',  ( 4.360000000000000320, 399.5000000000000000, 20.19999999999999574 ) ) ;
#558 = CARTESIAN_POINT ( 'NONE',  ( 0.000000000000000000, 0.000000000000000000, -6.400000000000000355 ) ) ;
#559 = EDGE_CURVE ( 'NONE', #874, #378, #615, .T. ) ;
#560 = CARTESIAN_POINT ( 'NONE',  ( 0.000000000000000000, 310.9000000000000341, -0.4000000000000000222 ) ) ;
#561 = PLANE ( 'NONE',  #532 ) ;
#562 = CARTESIAN_POINT ( 'NONE',  ( 0.7701175612584987284, 316.8556861791760753, -0.4000000000000000222 ) ) ;
#563 = CIRCLE ( 'NONE', #188, 0.7600000000000000089 ) ;
#564 = VECTOR ( 'NONE', #415, 1000.000000000000000 ) ;
#565 = VERTEX_POINT ( 'NONE', #320 ) ;
#566 = VECTOR ( 'NONE', #803, 1000.000000000000000 ) ;
#567 =( GEOMETRIC_REPRESENTATION_CONTEXT ( 3 ) GLOBAL_UNCERTAINTY_ASSIGNED_CONTEXT ( ( #354 ) ) GLOBAL_UNIT_ASSIGNED_CONTEXT ( ( #261, #194, #510 ) ) REPRESENTATION_CONTEXT ( 'NONE', 'WORKASPACE' ) );
#568 = PRODUCT ( 'Harness - Camera MIPI Cable', 'Harness - Camera MIPI Cable', '', ( #809 ) ) ;
#569 = CARTESIAN_POINT ( 'NONE',  ( 3.600000000000000089, 361.2519468751884233, 14.00000000000000000 ) ) ;
#570 = CARTESIAN_POINT ( 'NONE',  ( 3.600000000000000089, 325.0000000000000000, 0.3600000000000002642 ) ) ;
#571 = ORIENTED_EDGE ( 'NONE', *, *, #575, .F. ) ;
#572 = VERTEX_POINT ( 'NONE', #644 ) ;
#573 = DIRECTION ( 'NONE',  ( 0.000000000000000000, 0.000000000000000000, 1.000000000000000000 ) ) ;
#574 = ORIENTED_EDGE ( 'NONE', *, *, #678, .T. ) ;
#575 = EDGE_CURVE ( 'NONE', #657, #986, #264, .T. ) ;
#576 = ORIENTED_EDGE ( 'NONE', *, *, #379, .F. ) ;
#577 = CARTESIAN_POINT ( 'NONE',  ( 0.000000000000000000, 0.000000000000000000, 0.000000000000000000 ) ) ;
#578 = DIRECTION ( 'NONE',  ( 0.000000000000000000, -0.6977008304666451055, 0.7163892455684646166 ) ) ;
#579 = ORIENTED_EDGE ( 'NONE', *, *, #138, .T. ) ;
#580 = AXIS2_PLACEMENT_3D ( 'NONE', #622, #629, #377 ) ;
#581 = ORIENTED_EDGE ( 'NONE', *, *, #497, .T. ) ;
#582 = CIRCLE ( 'NONE', #746, 0.7600000000000002309 ) ;
#583 = CIRCLE ( 'NONE', #653, 0.7599999999999829114 ) ;
#584 = FACE_OUTER_BOUND ( 'NONE', #945, .T. ) ;
#585 = DIRECTION ( 'NONE',  ( 0.000000000000000000, 0.000000000000000000, 1.000000000000000000 ) ) ;
#586 = ORIENTED_EDGE ( 'NONE', *, *, #907, .F. ) ;
#587 = ORIENTED_EDGE ( 'NONE', *, *, #48, .T. ) ;
#588 = EDGE_CURVE ( 'NONE', #369, #738, #817, .T. ) ;
#589 = ORIENTED_EDGE ( 'NONE', *, *, #780, .T. ) ;
#590 = CARTESIAN_POINT ( 'NONE',  ( 0.7701175612584987284, 316.8556861791760753, -0.4000000000000000222 ) ) ;
#591 = DIRECTION ( 'NONE',  ( -0.000000000000000000, -0.000000000000000000, -1.000000000000000000 ) ) ;
#592 = ORIENTED_EDGE ( 'NONE', *, *, #66, .F. ) ;
#593 = VERTEX_POINT ( 'NONE', #873 ) ;
#594 = CARTESIAN_POINT ( 'NONE',  ( 3.600000000000000089, 337.8599123996995104, 1.324430208820425836 ) ) ;
#595 = ORIENTED_EDGE ( 'NONE', *, *, #214, .T. ) ;
#596 = CARTESIAN_POINT ( 'NONE',  ( 2.839999999999992752, 321.1512080156912248, -0.4000000000000001332 ) ) ;
#597 = CIRCLE ( 'NONE', #247, 0.7600000000000002309 ) ;
#598 = PRODUCT_RELATED_PRODUCT_CATEGORY ( 'detail', '', ( #568 ) ) ;
#599 = CIRCLE ( 'NONE', #399, 0.7600000000000000089 ) ;
#600 = AXIS2_PLACEMENT_3D ( 'NONE', #720, #647, #937 ) ;
#601 = ORGANIZATION ( 'UNSPECIFIED', 'UNSPECIFIED', '' ) ;
#602 = ORIENTED_EDGE ( 'NONE', *, *, #777, .T. ) ;
#603 = CARTESIAN_POINT ( 'NONE',  ( 4.500000000000000000, 401.5000000000000000, -9.400000000000000355 ) ) ;
#604 = EDGE_CURVE ( 'NONE', #24, #433, #87, .T. ) ;
#605 = ORIENTED_EDGE ( 'NONE', *, *, #110, .F. ) ;
#606 = DIRECTION ( 'NONE',  ( -0.000000000000000000, -0.000000000000000000, -1.000000000000000000 ) ) ;
#607 = ADVANCED_FACE ( 'NONE', ( #839 ), #711, .T. ) ;
#608 = FACE_OUTER_BOUND ( 'NONE', #825, .T. ) ;
#609 = VERTEX_POINT ( 'NONE', #376 ) ;
#610 = ADVANCED_FACE ( 'NONE', ( #627 ), #921, .T. ) ;
#611 = LINE ( 'NONE', #380, #331 ) ;
#612 = DIRECTION ( 'NONE',  ( 0.000000000000000000, -0.000000000000000000, -1.000000000000000000 ) ) ;
#613 = CIRCLE ( 'NONE', #225, 0.7600000000000000089 ) ;
#614 = EDGE_CURVE ( 'NONE', #47, #675, #453, .T. ) ;
#615 = CIRCLE ( 'NONE', #928, 0.7600000000000000089 ) ;
#616 = TOROIDAL_SURFACE ( 'NONE', #600, 8.000000000000000000, 0.7600000000000002309 ) ;
#617 = LOCAL_TIME ( 17, 50, 24.00000000000000000, #16 ) ;
#618 = DIRECTION ( 'NONE',  ( 0.000000000000000000, 0.7163892455684479632, 0.6977008304666620919 ) ) ;
#619 = LINE ( 'NONE', #624, #773 ) ;
#620 = PERSON_AND_ORGANIZATION_ROLE ( 'creator' ) ;
#621 = CYLINDRICAL_SURFACE ( 'NONE', #515, 0.7600000000000002309 ) ;
#622 = CARTESIAN_POINT ( 'NONE',  ( 3.600000000000000089, 331.7480531248115767, 7.599999999999997868 ) ) ;
#623 = EDGE_CURVE ( 'NONE', #378, #267, #666, .T. ) ;
#624 = CARTESIAN_POINT ( 'NONE',  ( 3.600000000000000089, 400.4000000000000341, -7.140000000000000568 ) ) ;
#625 = DIRECTION ( 'NONE',  ( 0.000000000000000000, 1.000000000000000000, 0.000000000000000000 ) ) ;
#626 = DIRECTION ( 'NONE',  ( 0.000000000000000000, 0.000000000000000000, 1.000000000000000000 ) ) ;
#627 = FACE_OUTER_BOUND ( 'NONE', #511, .T. ) ;
#628 = DIRECTION ( 'NONE',  ( 0.000000000000000000, 0.000000000000000000, 1.000000000000000000 ) ) ;
#629 = DIRECTION ( 'NONE',  ( 1.000000000000000000, 0.000000000000000000, 0.000000000000000000 ) ) ;
#630 = CARTESIAN_POINT ( 'NONE',  ( -4.500000000000000000, 401.5000000000000000, -6.400000000000000355 ) ) ;
#631 = AXIS2_PLACEMENT_3D ( 'NONE', #535, #775, #68 ) ;
#632 = AXIS2_PLACEMENT_3D ( 'NONE', #955, #886, #810 ) ;
#633 = DIRECTION ( 'NONE',  ( 0.6689647316224406337, 0.7432941462471744920, 0.000000000000000000 ) ) ;
#634 = AXIS2_PLACEMENT_3D ( 'NONE', #392, #1003, #920 ) ;
#635 = DIRECTION ( 'NONE',  ( 1.000000000000000000, 0.000000000000000000, 0.000000000000000000 ) ) ;
#636 = CARTESIAN_POINT ( 'NONE',  ( -0.7599999999999962341, 314.8487919843087752, -0.4000000000000000222 ) ) ;
#637 = EDGE_CURVE ( 'NONE', #14, #940, #1007, .T. ) ;
#638 = DIRECTION ( 'NONE',  ( 0.000000000000000000, 1.000000000000000000, 0.000000000000000000 ) ) ;
#639 = CARTESIAN_POINT ( 'NONE',  ( 2.829882438741493367, 319.1443138208239247, -0.4000000000000000222 ) ) ;
#640 = DIRECTION ( 'NONE',  ( 0.000000000000000000, 0.000000000000000000, -1.000000000000000000 ) ) ;
#641 = EDGE_CURVE ( 'NONE', #819, #874, #292, .T. ) ;
#642 = DIRECTION ( 'NONE',  ( 0.6689647316224406337, 0.7432941462471744920, 0.000000000000000000 ) ) ;
#643 = DIRECTION ( 'NONE',  ( 0.000000000000000000, 0.000000000000000000, 1.000000000000000000 ) ) ;
#644 = CARTESIAN_POINT ( 'NONE',  ( 0.000000000000000000, 310.9000000000000341, 0.3600000000000000422 ) ) ;
#645 = ORIENTED_EDGE ( 'NONE', *, *, #641, .T. ) ;
#646 = FACE_OUTER_BOUND ( 'NONE', #509, .T. ) ;
#647 = DIRECTION ( 'NONE',  ( -1.000000000000000000, -0.000000000000000000, 0.000000000000000000 ) ) ;
#648 = DIRECTION ( 'NONE',  ( 0.000000000000000000, 1.000000000000000000, 0.000000000000000000 ) ) ;
#649 = DIRECTION ( 'NONE',  ( 0.000000000000000000, 1.000000000000000000, 0.000000000000000000 ) ) ;
#650 = TOROIDAL_SURFACE ( 'NONE', #174, 8.000000000000000000, 0.7600000000000002309 ) ;
#651 = ORIENTED_EDGE ( 'NONE', *, *, #811, .T. ) ;
#652 = ORIENTED_EDGE ( 'NONE', *, *, #232, .F. ) ;
#653 = AXIS2_PLACEMENT_3D ( 'NONE', #163, #492, #798 ) ;
#654 = DIRECTION ( 'NONE',  ( -1.000000000000000000, -0.000000000000000000, 0.000000000000000000 ) ) ;
#655 = ADVANCED_FACE ( 'NONE', ( #735 ), #241, .T. ) ;
#656 = ORIENTED_EDGE ( 'NONE', *, *, #698, .T. ) ;
#657 = VERTEX_POINT ( 'NONE', #160 ) ;
#658 = DIRECTION ( 'NONE',  ( 0.000000000000000000, 0.000000000000000000, 1.000000000000000000 ) ) ;
#659 = ORIENTED_EDGE ( 'NONE', *, *, #604, .T. ) ;
#660 = EDGE_LOOP ( 'NONE', ( #359, #587, #520, #215, #954 ) ) ;
#661 = DIRECTION ( 'NONE',  ( 0.000000000000000000, 0.000000000000000000, 1.000000000000000000 ) ) ;
#662 = EDGE_LOOP ( 'NONE', ( #209, #902 ) ) ;
#663 = ORIENTED_EDGE ( 'NONE', *, *, #623, .F. ) ;
#664 = CIRCLE ( 'NONE', #866, 0.7599999999999829114 ) ;
#665 = ORIENTED_EDGE ( 'NONE', *, *, #744, .T. ) ;
#666 = CIRCLE ( 'NONE', #112, 0.7600000000000000089 ) ;
#667 = AXIS2_PLACEMENT_3D ( 'NONE', #504, #865, #249 ) ;
#668 = CALENDAR_DATE ( 2026, 29, 9 ) ;
#669 = ADVANCED_FACE ( 'NONE', ( #584 ), #28, .T. ) ;
#670 = EDGE_LOOP ( 'NONE', ( #335, #104, #102, #268, #165 ) ) ;
#671 = CARTESIAN_POINT ( 'NONE',  ( -4.500000000000000000, 401.5000000000000000, -6.400000000000000355 ) ) ;
#672 = ORIENTED_EDGE ( 'NONE', *, *, #429, .T. ) ;
#673 = LINE ( 'NONE', #671, #971 ) ;
#674 = PERSON_AND_ORGANIZATION_ROLE ( 'creator' ) ;
#675 = VERTEX_POINT ( 'NONE', #507 ) ;
#676 = ORIENTED_EDGE ( 'NONE', *, *, #62, .F. ) ;
#677 = CARTESIAN_POINT ( 'NONE',  ( 3.599999999999992539, 321.1512080156912248, 0.3600000000000000422 ) ) ;
#678 = EDGE_CURVE ( 'NONE', #905, #609, #101, .T. ) ;
#679 = AXIS2_PLACEMENT_3D ( 'NONE', #213, #995, #700 ) ;
#680 = ORIENTED_EDGE ( 'NONE', *, *, #637, .F. ) ;
#681 = PERSON_AND_ORGANIZATION ( #69, #601 ) ;
#682 = AXIS2_PLACEMENT_3D ( 'NONE', #463, #919, #220 ) ;
#683 = AXIS2_PLACEMENT_3D ( 'NONE', #221, #606, #203 ) ;
#684 = AXIS2_PLACEMENT_3D ( 'NONE', #409, #721, #648 ) ;
#685 = EDGE_CURVE ( 'NONE', #19, #98, #314, .T. ) ;
#686 = VERTEX_POINT ( 'NONE', #86 ) ;
#687 = CYLINDRICAL_SURFACE ( 'NONE', #418, 0.7600000000000002309 ) ;
#688 = ORIENTED_EDGE ( 'NONE', *, *, #999, .F. ) ;
#689 = DIRECTION ( 'NONE',  ( 0.000000000000000000, 1.000000000000000000, 0.000000000000000000 ) ) ;
#690 = CARTESIAN_POINT ( 'NONE',  ( 3.599999999999992539, 321.1512080156912248, -0.4000000000000000222 ) ) ;
#691 = EDGE_LOOP ( 'NONE', ( #645, #197, #875, #495, #139 ) ) ;
#692 = EDGE_CURVE ( 'NONE', #328, #686, #699, .T. ) ;
#693 = CALENDAR_DATE ( 2026, 29, 9 ) ;
#694 = DIRECTION ( 'NONE',  ( -0.000000000000000000, -0.000000000000000000, -1.000000000000000000 ) ) ;
#695 = CARTESIAN_POINT ( 'NONE',  ( 4.500000000000000000, 401.5000000000000000, -6.400000000000000355 ) ) ;
#696 = DATE_AND_TIME ( #529, #231 ) ;
#697 = VECTOR ( 'NONE', #992, 1000.000000000000000 ) ;
#698 = EDGE_CURVE ( 'NONE', #260, #30, #113, .T. ) ;
#699 = CIRCLE ( 'NONE', #684, 0.7599999999999829114 ) ;
#700 = DIRECTION ( 'NONE',  ( 0.000000000000000000, 0.000000000000000000, 1.000000000000000000 ) ) ;
#701 = CARTESIAN_POINT ( 'NONE',  ( 9.307315673519884720E-17, 314.8487919843087752, -1.159999999999999920 ) ) ;
#702 = DIRECTION ( 'NONE',  ( 0.000000000000000000, 0.000000000000000000, -1.000000000000000000 ) ) ;
#703 = FACE_OUTER_BOUND ( 'NONE', #660, .T. ) ;
#704 = CARTESIAN_POINT ( 'NONE',  ( 0.7701175612584987284, 316.8556861791760753, -0.4000000000000000222 ) ) ;
#705 = CARTESIAN_POINT ( 'NONE',  ( 3.600000000000000089, 397.6999999999999886, 21.23999999999999844 ) ) ;
#706 = DIRECTION ( 'NONE',  ( 0.000000000000000000, 1.000000000000000000, 0.000000000000000000 ) ) ;
#707 = CARTESIAN_POINT ( 'NONE',  ( 3.394785989889352873, 318.6359006247908496, -0.3999999999999999112 ) ) ;
#708 = CC_DESIGN_PERSON_AND_ORGANIZATION_ASSIGNMENT ( #427, #26, ( #568 ) ) ;
#709 = CARTESIAN_POINT ( 'NONE',  ( 3.600000000000000089, 397.6999999999999886, 20.19999999999999929 ) ) ;
#710 = CIRCLE ( 'NONE', #1006, 0.7600000000000002309 ) ;
#711 = TOROIDAL_SURFACE ( 'NONE', #485, 0.9000000000000119016, 0.7600000000000002309 ) ;
#712 = DIRECTION ( 'NONE',  ( 1.000000000000000000, 0.000000000000000000, 0.000000000000000000 ) ) ;
#713 = AXIS2_PLACEMENT_3D ( 'NONE', #333, #947, #573 ) ;
#714 = ADVANCED_FACE ( 'NONE', ( #872 ), #164, .T. ) ;
#715 = CARTESIAN_POINT ( 'NONE',  ( 3.599999999999992539, 321.1512080156912248, -0.4000000000000000222 ) ) ;
#716 = FACE_OUTER_BOUND ( 'NONE', #734, .T. ) ;
#717 = CARTESIAN_POINT ( 'NONE',  ( 0.000000000000000000, 0.000000000000000000, -9.400000000000000355 ) ) ;
#718 = CARTESIAN_POINT ( 'NONE',  ( 3.600000000000000089, 399.5000000000000000, -7.000000000000006217 ) ) ;
#719 = ADVANCED_FACE ( 'NONE', ( #106 ), #428, .T. ) ;
#720 = CARTESIAN_POINT ( 'NONE',  ( 3.600000000000000089, 361.2519468751884233, 14.00000000000000000 ) ) ;
#721 = DIRECTION ( 'NONE',  ( 0.000000000000000000, 0.000000000000000000, -1.000000000000000000 ) ) ;
#722 = ORIENTED_EDGE ( 'NONE', *, *, #502, .F. ) ;
#723 = ORIENTED_EDGE ( 'NONE', *, *, #966, .F. ) ;
#724 = DIRECTION ( 'NONE',  ( 0.000000000000000000, 0.000000000000000000, 1.000000000000000000 ) ) ;
#725 = ADVANCED_FACE ( 'NONE', ( #10 ), #876, .T. ) ;
#726 = CARTESIAN_POINT ( 'NONE',  ( 3.600000000000000089, 325.0000000000000000, -0.4000000000000000222 ) ) ;
#727 = EDGE_CURVE ( 'NONE', #565, #464, #169, .T. ) ;
#728 = ORIENTED_EDGE ( 'NONE', *, *, #623, .T. ) ;
#729 = ORIENTED_EDGE ( 'NONE', *, *, #232, .T. ) ;
#730 = AXIS2_PLACEMENT_3D ( 'NONE', #239, #932, #786 ) ;
#731 = APPLICATION_PROTOCOL_DEFINITION ( 'international standard', 'config_control_design', 1994, #195 ) ;
#732 = CARTESIAN_POINT ( 'NONE',  ( 3.600000000000000089, 401.5000000000000000, -8.660000000000000142 ) ) ;
#733 = ORIENTED_EDGE ( 'NONE', *, *, #254, .T. ) ;
#734 = EDGE_LOOP ( 'NONE', ( #177, #257, #883, #889, #571 ) ) ;
#735 = FACE_OUTER_BOUND ( 'NONE', #54, .T. ) ;
#736 = EDGE_LOOP ( 'NONE', ( #450, #425 ) ) ;
#737 = ORIENTED_EDGE ( 'NONE', *, *, #133, .T. ) ;
#738 = VERTEX_POINT ( 'NONE', #422 ) ;
#739 = PRODUCT_DEFINITION ( 'UNKNOWN', '', #64, #964 ) ;
#740 = APPLICATION_PROTOCOL_DEFINITION ( 'international standard', 'config_control_design', 1994, #132 ) ;
#741 = DIRECTION ( 'NONE',  ( 0.000000000000000000, 1.000000000000000000, 0.000000000000000000 ) ) ;
#742 = ORIENTED_EDGE ( 'NONE', *, *, #429, .F. ) ;
#743 = VERTEX_POINT ( 'NONE', #732 ) ;
#744 = EDGE_CURVE ( 'NONE', #891, #448, #366, .T. ) ;
#745 = EDGE_LOOP ( 'NONE', ( #361, #737, #602, #676, #430, #99 ) ) ;
#746 = AXIS2_PLACEMENT_3D ( 'NONE', #131, #458, #764 ) ;
#747 = CIRCLE ( 'NONE', #791, 0.7600000000000002309 ) ;
#748 = ORIENTED_EDGE ( 'NONE', *, *, #404, .T. ) ;
#749 = DIRECTION ( 'NONE',  ( 0.000000000000000000, 0.000000000000000000, -1.000000000000000000 ) ) ;
#750 = APPROVAL_ROLE ( '' ) ;
#751 = EDGE_LOOP ( 'NONE', ( #722, #672, #289, #88 ) ) ;
#752 = CARTESIAN_POINT ( 'NONE',  ( 3.600000000000000089, 361.2519468751884233, 22.00000000000000000 ) ) ;
#753 = ORIENTED_EDGE ( 'NONE', *, *, #851, .F. ) ;
#754 = COORDINATED_UNIVERSAL_TIME_OFFSET ( 12, 0, .AHEAD. ) ;
#755 = ADVANCED_FACE ( 'NONE', ( #951 ), #1008, .T. ) ;
#756 = ORIENTED_EDGE ( 'NONE', *, *, #851, .T. ) ;
#757 = DIRECTION ( 'NONE',  ( 0.000000000000000000, 0.000000000000000000, 1.000000000000000000 ) ) ;
#758 = VECTOR ( 'NONE', #916, 1000.000000000000000 ) ;
#759 = VERTEX_POINT ( 'NONE', #159 ) ;
#760 = DIRECTION ( 'NONE',  ( 0.000000000000000000, 0.000000000000000000, 1.000000000000000000 ) ) ;
#761 = AXIS2_PLACEMENT_3D ( 'NONE', #906, #386, #283 ) ;
#762 = AXIS2_PLACEMENT_3D ( 'NONE', #885, #179, #420 ) ;
#763 = LINE ( 'NONE', #894, #27 ) ;
#764 = DIRECTION ( 'NONE',  ( 0.000000000000000000, 0.000000000000000000, 1.000000000000000000 ) ) ;
#765 = CARTESIAN_POINT ( 'NONE',  ( 4.359999999999986109, 321.1512080156912248, -0.4000000000000000222 ) ) ;
#766 = ORIENTED_EDGE ( 'NONE', *, *, #924, .F. ) ;
#767 = CARTESIAN_POINT ( 'NONE',  ( 3.599999999999992539, 321.1512080156912248, -0.4000000000000000222 ) ) ;
#768 = DATE_AND_TIME ( #998, #161 ) ;
#769 = CC_DESIGN_PERSON_AND_ORGANIZATION_ASSIGNMENT ( #959, #674, ( #739 ) ) ;
#770 = PLANE ( 'NONE',  #205 ) ;
#771 = DIRECTION ( 'NONE',  ( 0.000000000000000000, 1.000000000000000000, 0.000000000000000000 ) ) ;
#772 = DIRECTION ( 'NONE',  ( 0.000000000000000000, 1.000000000000000000, 0.000000000000000000 ) ) ;
#773 = VECTOR ( 'NONE', #903, 1000.000000000000000 ) ;
#774 = CIRCLE ( 'NONE', #454, 0.7600000000000002309 ) ;
#775 = DIRECTION ( 'NONE',  ( -1.000000000000000000, -0.000000000000000000, 0.000000000000000000 ) ) ;
#776 = CARTESIAN_POINT ( 'NONE',  ( 1.335021112406353794, 316.3472729831430001, -0.3999999999999999112 ) ) ;
#777 = EDGE_CURVE ( 'NONE', #19, #328, #554, .T. ) ;
#778 = CARTESIAN_POINT ( 'NONE',  ( 0.2052140101106460501, 317.3640993752091504, -0.4000000000000000222 ) ) ;
#779 = PLANE ( 'NONE',  #881 ) ;
#780 = EDGE_CURVE ( 'NONE', #464, #433, #774, .T. ) ;
#781 = CARTESIAN_POINT ( 'NONE',  ( 3.600000000000000089, 400.2599999999999909, 20.19999999999999574 ) ) ;
#782 = FACE_OUTER_BOUND ( 'NONE', #284, .T. ) ;
#783 = EDGE_CURVE ( 'NONE', #42, #905, #6, .T. ) ;
#784 = DIRECTION ( 'NONE',  ( 0.000000000000000000, 0.000000000000000000, -1.000000000000000000 ) ) ;
#785 = LINE ( 'NONE', #405, #758 ) ;
#786 = DIRECTION ( 'NONE',  ( 0.000000000000000000, -0.6977008304666444394, 0.7163892455684650606 ) ) ;
#787 = DIRECTION ( 'NONE',  ( 1.000000000000000000, 0.000000000000000000, 0.000000000000000000 ) ) ;
#788 = AXIS2_PLACEMENT_3D ( 'NONE', #312, #635, #477 ) ;
#789 = CIRCLE ( 'NONE', #895, 0.7600000000000000089 ) ;
#790 = CARTESIAN_POINT ( 'NONE',  ( 3.600000000000000089, 400.4000000000000341, -8.660000000000000142 ) ) ;
#791 = AXIS2_PLACEMENT_3D ( 'NONE', #856, #391, #329 ) ;
#792 = CC_DESIGN_SECURITY_CLASSIFICATION ( #250, ( #64 ) ) ;
#793 = DIRECTION ( 'NONE',  ( 0.000000000000000000, 0.000000000000000000, 1.000000000000000000 ) ) ;
#794 = DIRECTION ( 'NONE',  ( 0.000000000000000000, 0.000000000000000000, -1.000000000000000000 ) ) ;
#795 = CARTESIAN_POINT ( 'NONE',  ( 0.000000000000000000, 314.8487919843087752, -0.4000000000000000222 ) ) ;
#796 = CARTESIAN_POINT ( 'NONE',  ( 4.500000000000000000, 401.5000000000000000, -6.400000000000000355 ) ) ;
#797 = EDGE_CURVE ( 'NONE', #412, #30, #930, .T. ) ;
#798 = DIRECTION ( 'NONE',  ( 0.000000000000000000, 1.000000000000000000, 0.000000000000000000 ) ) ;
#799 = ADVANCED_FACE ( 'NONE', ( #233, #852 ), #561, .F. ) ;
#800 = DIRECTION ( 'NONE',  ( 0.6689647316224406337, 0.7432941462471744920, 0.000000000000000000 ) ) ;
#801 = ORIENTED_EDGE ( 'NONE', *, *, #3, .F. ) ;
#802 = ORIENTED_EDGE ( 'NONE', *, *, #357, .T. ) ;
#803 = DIRECTION ( 'NONE',  ( 0.000000000000000000, 1.000000000000000000, 0.000000000000000000 ) ) ;
#804 = CIRCLE ( 'NONE', #364, 0.7600000000000000089 ) ;
#805 = APPROVAL ( #40, 'UNSPECIFIED' ) ;
#806 = VECTOR ( 'NONE', #847, 1000.000000000000000 ) ;
#807 = ORIENTED_EDGE ( 'NONE', *, *, #251, .T. ) ;
#808 = ORIENTED_EDGE ( 'NONE', *, *, #797, .T. ) ;
#809 = MECHANICAL_CONTEXT ( 'NONE', #132, 'mechanical' ) ;
#810 = DIRECTION ( 'NONE',  ( 0.000000000000000000, 0.000000000000000000, 1.000000000000000000 ) ) ;
#811 = EDGE_CURVE ( 'NONE', #130, #572, #943, .T. ) ;
#812 = EDGE_LOOP ( 'NONE', ( #536, #656, #92, #527 ) ) ;
#813 = EDGE_CURVE ( 'NONE', #14, #657, #324, .T. ) ;
#814 = ORIENTED_EDGE ( 'NONE', *, *, #393, .T. ) ;
#815 = DIRECTION ( 'NONE',  ( 0.000000000000000000, 0.000000000000000000, 1.000000000000000000 ) ) ;
#816 = ADVANCED_FACE ( 'NONE', ( #302 ), #616, .T. ) ;
#817 = LINE ( 'NONE', #796, #43 ) ;
#818 = ORIENTED_EDGE ( 'NONE', *, *, #692, .F. ) ;
#819 = VERTEX_POINT ( 'NONE', #701 ) ;
#820 = ORIENTED_EDGE ( 'NONE', *, *, #614, .F. ) ;
#821 = CIRCLE ( 'NONE', #580, 8.759999999999999787 ) ;
#822 = CARTESIAN_POINT ( 'NONE',  ( 3.600000000000000089, 401.5000000000000000, -7.140000000000000568 ) ) ;
#823 = AXIS2_PLACEMENT_3D ( 'NONE', #934, #219, #480 ) ;
#824 = AXIS2_PLACEMENT_3D ( 'NONE', #93, #800, #414 ) ;
#825 = EDGE_LOOP ( 'NONE', ( #494, #367, #835, #434 ) ) ;
#826 = EDGE_LOOP ( 'NONE', ( #665, #440, #445, #605, #652 ) ) ;
#827 = CYLINDRICAL_SURFACE ( 'NONE', #499, 0.7599999999999822453 ) ;
#828 = ADVANCED_FACE ( 'NONE', ( #782 ), #838, .T. ) ;
#829 = ORIENTED_EDGE ( 'NONE', *, *, #76, .T. ) ;
#830 = DIRECTION ( 'NONE',  ( 1.000000000000000000, 0.000000000000000000, 0.000000000000000000 ) ) ;
#831 = ORIENTED_EDGE ( 'NONE', *, *, #306, .F. ) ;
#832 = DIRECTION ( 'NONE',  ( -1.000000000000000000, 0.000000000000000000, 0.000000000000000000 ) ) ;
#833 = CARTESIAN_POINT ( 'NONE',  ( -4.500000000000000000, 401.5000000000000000, -9.400000000000000355 ) ) ;
#834 = CIRCLE ( 'NONE', #909, 0.7600000000000002309 ) ;
#835 = ORIENTED_EDGE ( 'NONE', *, *, #871, .F. ) ;
#836 = CARTESIAN_POINT ( 'NONE',  ( 3.600000000000000089, 400.2599999999999909, -7.000000000000006217 ) ) ;
#837 = AXIS2_PLACEMENT_3D ( 'NONE', #180, #342, #578 ) ;
#838 = TOROIDAL_SURFACE ( 'NONE', #208, 8.000000000000000000, 0.7600000000000002309 ) ;
#839 = FACE_OUTER_BOUND ( 'NONE', #321, .T. ) ;
#840 = EDGE_CURVE ( 'NONE', #686, #8, #421, .T. ) ;
#841 = CARTESIAN_POINT ( 'NONE',  ( 4.360000000000000320, 399.5000000000000000, 20.19999999999999574 ) ) ;
#842 = ADVANCED_FACE ( 'NONE', ( #72 ), #858, .F. ) ;
#843 = CYLINDRICAL_SURFACE ( 'NONE', #549, 0.7600000000000002309 ) ;
#844 = DIRECTION ( 'NONE',  ( 0.000000000000000000, 0.000000000000000000, 1.000000000000000000 ) ) ;
#845 = ORIENTED_EDGE ( 'NONE', *, *, #33, .F. ) ;
#846 = DIRECTION ( 'NONE',  ( 0.000000000000000000, 0.000000000000000000, 1.000000000000000000 ) ) ;
#847 = DIRECTION ( 'NONE',  ( 0.000000000000000000, 1.000000000000000000, 0.000000000000000000 ) ) ;
#848 = CARTESIAN_POINT ( 'NONE',  ( -4.500000000000000000, 401.5000000000000000, -9.400000000000000355 ) ) ;
#849 = CYLINDRICAL_SURFACE ( 'NONE', #277, 0.7600000000000002309 ) ;
#850 = VECTOR ( 'NONE', #694, 1000.000000000000000 ) ;
#851 = EDGE_CURVE ( 'NONE', #412, #891, #308, .T. ) ;
#852 = FACE_OUTER_BOUND ( 'NONE', #416, .T. ) ;
#853 = AXIS2_PLACEMENT_3D ( 'NONE', #548, #540, #153 ) ;
#854 = VECTOR ( 'NONE', #962, 1000.000000000000000 ) ;
#855 = DIRECTION ( 'NONE',  ( 0.000000000000000000, 0.000000000000000000, -1.000000000000000000 ) ) ;
#856 = CARTESIAN_POINT ( 'NONE',  ( 3.600000000000000089, 401.5000000000000000, -7.900000000000000355 ) ) ;
#857 = EDGE_CURVE ( 'NONE', #448, #952, #175, .T. ) ;
#858 = PLANE ( 'NONE',  #634 ) ;
#859 = CARTESIAN_POINT ( 'NONE',  ( 3.600000000000000089, 361.2519468751884233, 14.00000000000000000 ) ) ;
#860 = CARTESIAN_POINT ( 'NONE',  ( 4.500000000000000000, 401.5000000000000000, -9.400000000000000355 ) ) ;
#861 = EDGE_CURVE ( 'NONE', #593, #426, #583, .T. ) ;
#862 = CARTESIAN_POINT ( 'NONE',  ( 3.600000000000000089, 397.6999999999999886, 22.75999999999999801 ) ) ;
#863 = DIRECTION ( 'NONE',  ( 0.000000000000000000, 1.000000000000000000, 0.000000000000000000 ) ) ;
#864 = DIRECTION ( 'NONE',  ( -1.000000000000000000, 0.000000000000000000, -0.000000000000000000 ) ) ;
#865 = DIRECTION ( 'NONE',  ( 0.000000000000000000, 0.000000000000000000, -1.000000000000000000 ) ) ;
#866 = AXIS2_PLACEMENT_3D ( 'NONE', #526, #271, #961 ) ;
#867 = AXIS2_PLACEMENT_3D ( 'NONE', #7, #263, #432 ) ;
#868 = CARTESIAN_POINT ( 'NONE',  ( 0.5999999999999998668, 321.1512080156912248, -0.4000000000000001332 ) ) ;
#869 = AXIS2_PLACEMENT_3D ( 'NONE', #413, #313, #724 ) ;
#870 = APPROVAL_PERSON_ORGANIZATION ( #681, #805, #370 ) ;
#871 = EDGE_CURVE ( 'NONE', #39, #743, #747, .T. ) ;
#872 = FACE_OUTER_BOUND ( 'NONE', #491, .T. ) ;
#873 = CARTESIAN_POINT ( 'NONE',  ( 2.839999999999999858, 399.5000000000000000, -7.000000000000006217 ) ) ;
#874 = VERTEX_POINT ( 'NONE', #636 ) ;
#875 = ORIENTED_EDGE ( 'NONE', *, *, #181, .F. ) ;
#876 = CYLINDRICAL_SURFACE ( 'NONE', #713, 0.7600000000000002309 ) ;
#877 = VERTEX_POINT ( 'NONE', #89 ) ;
#878 = ORIENTED_EDGE ( 'NONE', *, *, #214, .F. ) ;
#879 = EDGE_CURVE ( 'NONE', #686, #593, #29, .T. ) ;
#880 = AXIS2_PLACEMENT_3D ( 'NONE', #925, #228, #997 ) ;
#881 = AXIS2_PLACEMENT_3D ( 'NONE', #558, #784, #224 ) ;
#882 = AXIS2_PLACEMENT_3D ( 'NONE', #258, #17, #658 ) ;
#883 = ORIENTED_EDGE ( 'NONE', *, *, #358, .F. ) ;
#884 = ORIENTED_EDGE ( 'NONE', *, *, #614, .T. ) ;
#885 = CARTESIAN_POINT ( 'NONE',  ( 0.5999999999999998668, 321.1512080156912248, -0.4000000000000000222 ) ) ;
#886 = DIRECTION ( 'NONE',  ( 0.000000000000000000, 1.000000000000000000, 0.000000000000000000 ) ) ;
#887 = VERTEX_POINT ( 'NONE', #1002 ) ;
#888 = ORIENTED_EDGE ( 'NONE', *, *, #3, .T. ) ;
#889 = ORIENTED_EDGE ( 'NONE', *, *, #254, .F. ) ;
#890 = FACE_OUTER_BOUND ( 'NONE', #286, .T. ) ;
#891 = VERTEX_POINT ( 'NONE', #705 ) ;
#892 = ORIENTED_EDGE ( 'NONE', *, *, #813, .T. ) ;
#893 = CIRCLE ( 'NONE', #990, 0.7599999999999829114 ) ;
#894 = CARTESIAN_POINT ( 'NONE',  ( 4.500000000000000000, 401.5000000000000000, -6.400000000000000355 ) ) ;
#895 = AXIS2_PLACEMENT_3D ( 'NONE', #996, #772, #846 ) ;
#896 = ORIENTED_EDGE ( 'NONE', *, *, #879, .T. ) ;
#897 = ADVANCED_FACE ( 'NONE', ( #307 ), #898, .T. ) ;
#898 = TOROIDAL_SURFACE ( 'NONE', #869, 1.800000000000013367, 0.7600000000000002309 ) ;
#899 = CC_DESIGN_APPROVAL ( #939, ( #739 ) ) ;
#900 = ORIENTED_EDGE ( 'NONE', *, *, #76, .F. ) ;
#901 = CARTESIAN_POINT ( 'NONE',  ( 3.600000000000000089, 355.6703402314550999, 19.73111396454757482 ) ) ;
#902 = ORIENTED_EDGE ( 'NONE', *, *, #811, .F. ) ;
#903 = DIRECTION ( 'NONE',  ( 0.000000000000000000, 1.000000000000000000, 0.000000000000000000 ) ) ;
#904 = DIRECTION ( 'NONE',  ( 0.000000000000000000, 1.000000000000000000, 0.000000000000000000 ) ) ;
#905 = VERTEX_POINT ( 'NONE', #322 ) ;
#906 = CARTESIAN_POINT ( 'NONE',  ( 3.600000000000000089, 331.7480531248115767, -0.4000000000000000222 ) ) ;
#907 = EDGE_CURVE ( 'NONE', #675, #47, #470, .T. ) ;
#908 = CARTESIAN_POINT ( 'NONE',  ( 3.600000000000000089, 361.2519468751884233, 22.75999999999999801 ) ) ;
#909 = AXIS2_PLACEMENT_3D ( 'NONE', #300, #625, #70 ) ;
#910 = ORIENTED_EDGE ( 'NONE', *, *, #182, .F. ) ;
#911 = LINE ( 'NONE', #465, #190 ) ;
#912 = DATE_AND_TIME ( #140, #517 ) ;
#913 = AXIS2_PLACEMENT_3D ( 'NONE', #173, #493, #661 ) ;
#914 = AXIS2_PLACEMENT_3D ( 'NONE', #726, #741, #643 ) ;
#915 = ADVANCED_FACE ( 'NONE', ( #1005 ), #147, .T. ) ;
#916 = DIRECTION ( 'NONE',  ( 1.000000000000000000, 0.000000000000000000, 0.000000000000000000 ) ) ;
#917 = APPROVAL_STATUS ( 'not_yet_approved' ) ;
#918 = DIRECTION ( 'NONE',  ( 0.000000000000000000, 0.000000000000000000, 1.000000000000000000 ) ) ;
#919 = DIRECTION ( 'NONE',  ( 0.000000000000000000, 1.000000000000000000, 0.000000000000000000 ) ) ;
#920 = DIRECTION ( 'NONE',  ( 0.000000000000000000, -0.000000000000000000, 1.000000000000000000 ) ) ;
#921 = CYLINDRICAL_SURFACE ( 'NONE', #632, 0.7600000000000002309 ) ;
#922 = CYLINDRICAL_SURFACE ( 'NONE', #365, 0.7600000000000002309 ) ;
#923 = DIRECTION ( 'NONE',  ( 0.6689647316224437423, 0.7432941462471717164, 0.000000000000000000 ) ) ;
#924 = EDGE_CURVE ( 'NONE', #130, #819, #487, .T. ) ;
#925 = CARTESIAN_POINT ( 'NONE',  ( 3.600000000000000089, 399.5000000000000000, 20.19999999999999574 ) ) ;
#926 = FACE_OUTER_BOUND ( 'NONE', #192, .T. ) ;
#927 = CIRCLE ( 'NONE', #158, 0.7599999999999829114 ) ;
#928 = AXIS2_PLACEMENT_3D ( 'NONE', #303, #5, #628 ) ;
#929 = DIRECTION ( 'NONE',  ( 0.000000000000000000, 1.000000000000000000, 0.000000000000000000 ) ) ;
#930 = CIRCLE ( 'NONE', #266, 0.7600000000000002309 ) ;
#931 = AXIS2_PLACEMENT_3D ( 'NONE', #717, #4, #864 ) ;
#932 = DIRECTION ( 'NONE',  ( 0.000000000000000000, 0.7163892455684479632, 0.6977008304666620919 ) ) ;
#933 = DIRECTION ( 'NONE',  ( 0.000000000000000000, 0.000000000000000000, 1.000000000000000000 ) ) ;
#934 = CARTESIAN_POINT ( 'NONE',  ( 2.829882438741493367, 319.1443138208239247, -0.4000000000000000222 ) ) ;
#935 = DIRECTION ( 'NONE',  ( 0.000000000000000000, 1.000000000000000000, 0.000000000000000000 ) ) ;
#936 = ADVANCED_FACE ( 'NONE', ( #646 ), #994, .T. ) ;
#937 = DIRECTION ( 'NONE',  ( 0.000000000000000000, 0.000000000000000000, 1.000000000000000000 ) ) ;
#938 = DIRECTION ( 'NONE',  ( 0.6689647316224437423, 0.7432941462471717164, 0.000000000000000000 ) ) ;
#939 = APPROVAL ( #443, 'UNSPECIFIED' ) ;
#940 = VERTEX_POINT ( 'NONE', #776 ) ;
#941 = DIRECTION ( 'NONE',  ( -0.000000000000000000, -0.000000000000000000, -1.000000000000000000 ) ) ;
#942 = AXIS2_PLACEMENT_3D ( 'NONE', #255, #941, #489 ) ;
#943 = CIRCLE ( 'NONE', #332, 0.7600000000000000089 ) ;
#944 = VERTEX_POINT ( 'NONE', #630 ) ;
#945 = EDGE_LOOP ( 'NONE', ( #688, #969, #728, #748, #680 ) ) ;
#946 = CC_DESIGN_PERSON_AND_ORGANIZATION_ASSIGNMENT ( #301, #211, ( #64 ) ) ;
#947 = DIRECTION ( 'NONE',  ( 0.000000000000000000, 1.000000000000000000, 0.000000000000000000 ) ) ;
#948 = ORIENTED_EDGE ( 'NONE', *, *, #692, .T. ) ;
#949 = EDGE_LOOP ( 'NONE', ( #109, #18, #581, #135 ) ) ;
#950 = ADVANCED_FACE ( 'NONE', ( #926 ), #553, .T. ) ;
#951 = FACE_OUTER_BOUND ( 'NONE', #956, .T. ) ;
#952 = VERTEX_POINT ( 'NONE', #781 ) ;
#953 = ORIENTED_EDGE ( 'NONE', *, *, #323, .T. ) ;
#954 = ORIENTED_EDGE ( 'NONE', *, *, #604, .F. ) ;
#955 = CARTESIAN_POINT ( 'NONE',  ( 3.600000000000000089, 361.2519468751884233, 22.00000000000000000 ) ) ;
#956 = EDGE_LOOP ( 'NONE', ( #350, #345, #343, #107 ) ) ;
#957 = CIRCLE ( 'NONE', #761, 0.7600000000000002309 ) ;
#958 = ORIENTED_EDGE ( 'NONE', *, *, #182, .T. ) ;
#959 = PERSON_AND_ORGANIZATION ( #69, #601 ) ;
#960 = ORIENTED_EDGE ( 'NONE', *, *, #840, .T. ) ;
#961 = DIRECTION ( 'NONE',  ( 0.000000000000000000, 1.000000000000000000, 0.000000000000000000 ) ) ;
#962 = DIRECTION ( 'NONE',  ( 0.000000000000000000, 1.000000000000000000, 0.000000000000000000 ) ) ;
#963 = ADVANCED_FACE ( 'NONE', ( #395 ), #129, .T. ) ;
#964 = DESIGN_CONTEXT ( 'detailed design', #195, 'design' ) ;
#965 = ORIENTED_EDGE ( 'NONE', *, *, #168, .T. ) ;
#966 = EDGE_CURVE ( 'NONE', #260, #887, #976, .T. ) ;
#967 = EDGE_LOOP ( 'NONE', ( #574, #327, #522, #417 ) ) ;
#968 = DIRECTION ( 'NONE',  ( 1.000000000000000000, 0.000000000000000000, 0.000000000000000000 ) ) ;
#969 = ORIENTED_EDGE ( 'NONE', *, *, #559, .T. ) ;
#970 = EDGE_LOOP ( 'NONE', ( #579, #756, #831, #845 ) ) ;
#971 = VECTOR ( 'NONE', #187, 1000.000000000000000 ) ;
#972 = CARTESIAN_POINT ( 'NONE',  ( 3.600000000000000089, 399.5000000000000000, 20.19999999999999574 ) ) ;
#973 = CIRCLE ( 'NONE', #823, 0.7600000000000000089 ) ;
#974 = EDGE_LOOP ( 'NONE', ( #814, #595, #586, #900 ) ) ;
#975 = CARTESIAN_POINT ( 'NONE',  ( 3.600000000000000089, 399.5000000000000000, 20.19999999999999574 ) ) ;
#976 = CIRCLE ( 'NONE', #191, 0.7599999999999809130 ) ;
#977 = COORDINATED_UNIVERSAL_TIME_OFFSET ( 12, 0, .AHEAD. ) ;
#978 = APPROVAL_PERSON_ORGANIZATION ( #56, #326, #539 ) ;
#979 = VERTEX_POINT ( 'NONE', #400 ) ;
#980 = DIRECTION ( 'NONE',  ( -0.7432941462471686078, 0.6689647316224471840, 0.000000000000000000 ) ) ;
#981 = ADVANCED_FACE ( 'NONE', ( #716 ), #503, .T. ) ;
#982 = ORIENTED_EDGE ( 'NONE', *, *, #306, .T. ) ;
#983 = CARTESIAN_POINT ( 'NONE',  ( 0.000000000000000000, 314.8487919843087752, 0.3600000000000000422 ) ) ;
#984 = EDGE_CURVE ( 'NONE', #944, #37, #514, .T. ) ;
#985 = DIRECTION ( 'NONE',  ( 0.000000000000000000, 0.000000000000000000, -1.000000000000000000 ) ) ;
#986 = VERTEX_POINT ( 'NONE', #596 ) ;
#987 = EDGE_CURVE ( 'NONE', #572, #378, #346, .T. ) ;
#988 = CARTESIAN_POINT ( 'NONE',  ( 4.500000000000000000, 404.0000000000000000, -6.400000000000000355 ) ) ;
#989 = PLANE ( 'NONE',  #547 ) ;
#990 = AXIS2_PLACEMENT_3D ( 'NONE', #972, #273, #446 ) ;
#991 = ORIENTED_EDGE ( 'NONE', *, *, #338, .F. ) ;
#992 = DIRECTION ( 'NONE',  ( -0.000000000000000000, -0.000000000000000000, -1.000000000000000000 ) ) ;
#993 = CIRCLE ( 'NONE', #853, 7.240000000000001990 ) ;
#994 = TOROIDAL_SURFACE ( 'NONE', #279, 0.9000000000000119016, 0.7600000000000002309 ) ;
#995 = DIRECTION ( 'NONE',  ( 0.000000000000000000, 1.000000000000000000, 0.000000000000000000 ) ) ;
#996 = CARTESIAN_POINT ( 'NONE',  ( 0.000000000000000000, 310.9000000000000341, -0.4000000000000000222 ) ) ;
#997 = DIRECTION ( 'NONE',  ( 0.000000000000000000, 1.000000000000000000, 0.000000000000000000 ) ) ;
#998 = CALENDAR_DATE ( 2026, 29, 9 ) ;
#999 = EDGE_CURVE ( 'NONE', #874, #14, #550, .T. ) ;
#1000 = DIRECTION ( 'NONE',  ( 0.000000000000000000, 0.000000000000000000, 1.000000000000000000 ) ) ;
#1001 = FACE_OUTER_BOUND ( 'NONE', #447, .T. ) ;
#1002 = CARTESIAN_POINT ( 'NONE',  ( 3.600000000000000089, 356.2005928626097671, 19.18665813791557184 ) ) ;
#1003 = DIRECTION ( 'NONE',  ( 0.000000000000000000, 1.000000000000000000, 0.000000000000000000 ) ) ;
#1004 = FACE_OUTER_BOUND ( 'NONE', #670, .T. ) ;
#1005 = FACE_OUTER_BOUND ( 'NONE', #245, .T. ) ;
#1006 = AXIS2_PLACEMENT_3D ( 'NONE', #752, #281, #38 ) ;
#1007 = CIRCLE ( 'NONE', #349, 0.7600000000000000089 ) ;
#1008 = PLANE ( 'NONE',  #931 ) ;
#1009 = LINE ( 'NONE', #309, #419 ) ;
ENDSEC;
END-ISO-10303-21;
