ISO-10303-21;
HEADER;
FILE_DESCRIPTION (( 'STEP AP203' ),
    '1' );
FILE_NAME ('Motor.step',
    '2026-09-29T04:50:23',
    ( '' ),
    ( '' ),
    '',
    '',
    '' );
FILE_SCHEMA (( 'CONFIG_CONTROL_DESIGN' ));
ENDSEC;

DATA;
#1 = ORIENTED_EDGE ( 'NONE', *, *, #1201, .T. ) ;
#2 = DIRECTION ( 'NONE',  ( 0.000000000000000000, 1.000000000000000000, 0.000000000000000000 ) ) ;
#3 = CARTESIAN_POINT ( 'NONE',  ( 5.750000000000000000, 17.49999999999999645, -12.46000000000000085 ) ) ;
#4 = DIRECTION ( 'NONE',  ( 0.000000000000000000, 0.000000000000000000, 1.000000000000000000 ) ) ;
#5 = EDGE_CURVE ( 'NONE', #168, #11, #918, .T. ) ;
#6 = ORIENTED_EDGE ( 'NONE', *, *, #905, .F. ) ;
#7 = DIRECTION ( 'NONE',  ( 0.000000000000000000, -0.000000000000000000, -1.000000000000000000 ) ) ;
#8 = ORIENTED_EDGE ( 'NONE', *, *, #403, .F. ) ;
#9 = CARTESIAN_POINT ( 'NONE',  ( 6.717999999999999972, 0.000000000000000000, 6.717999999999999972 ) ) ;
#10 = CARTESIAN_POINT ( 'NONE',  ( 0.000000000000000000, 0.000000000000000000, 0.000000000000000000 ) ) ;
#11 = VERTEX_POINT ( 'NONE', #520 ) ;
#12 = CARTESIAN_POINT ( 'NONE',  ( 5.750000000000000000, 17.49999999999999645, -7.459999999999999964 ) ) ;
#13 = ORIENTED_EDGE ( 'NONE', *, *, #268, .T. ) ;
#14 = CARTESIAN_POINT ( 'NONE',  ( 0.000000000000000000, 3.000000000000002665, 0.000000000000000000 ) ) ;
#15 = CIRCLE ( 'NONE', #902, 2.500000000000000444 ) ;
#16 = CIRCLE ( 'NONE', #275, 1.250000000000000222 ) ;
#17 = CIRCLE ( 'NONE', #237, 1.250000000000000222 ) ;
#18 = CIRCLE ( 'NONE', #961, 1.250000000000000222 ) ;
#19 = EDGE_CURVE ( 'NONE', #990, #823, #1099, .T. ) ;
#20 = PLANE ( 'NONE',  #1160 ) ;
#21 = ORIENTED_EDGE ( 'NONE', *, *, #1075, .F. ) ;
#22 = VERTEX_POINT ( 'NONE', #717 ) ;
#23 = DIRECTION ( 'NONE',  ( 0.000000000000000000, 0.000000000000000000, -1.000000000000000000 ) ) ;
#24 = DIRECTION ( 'NONE',  ( 0.000000000000000000, 1.000000000000000000, 0.000000000000000000 ) ) ;
#25 = EDGE_LOOP ( 'NONE', ( #515, #574, #60, #833 ) ) ;
#26 = PLANE ( 'NONE',  #1227 ) ;
#27 = ORIENTED_EDGE ( 'NONE', *, *, #121, .T. ) ;
#28 = CARTESIAN_POINT ( 'NONE',  ( -5.750000000000000000, 20.50000000000000000, -7.459999999999999964 ) ) ;
#29 = EDGE_CURVE ( 'NONE', #11, #168, #445, .T. ) ;
#30 = LINE ( 'NONE', #994, #1082 ) ;
#31 = DIRECTION ( 'NONE',  ( -0.000000000000000000, 1.000000000000000000, -0.000000000000000000 ) ) ;
#32 = CARTESIAN_POINT ( 'NONE',  ( 0.000000000000000000, 0.000000000000000000, 0.000000000000000000 ) ) ;
#33 = ADVANCED_FACE ( 'NONE', ( #40 ), #1210, .F. ) ;
#34 = VERTEX_POINT ( 'NONE', #563 ) ;
#35 = DIRECTION ( 'NONE',  ( 0.000000000000000000, 0.000000000000000000, 1.000000000000000000 ) ) ;
#36 = AXIS2_PLACEMENT_3D ( 'NONE', #808, #24, #790 ) ;
#37 = CARTESIAN_POINT ( 'NONE',  ( -6.717999999999999972, 5.000000000000000000, -7.967999999999999083 ) ) ;
#38 = CIRCLE ( 'NONE', #1026, 2.500000000000000444 ) ;
#39 = AXIS2_PLACEMENT_3D ( 'NONE', #354, #262, #751 ) ;
#40 = FACE_OUTER_BOUND ( 'NONE', #349, .T. ) ;
#41 = ORIENTED_EDGE ( 'NONE', *, *, #97, .F. ) ;
#42 = CARTESIAN_POINT ( 'NONE',  ( 0.000000000000000000, 22.50000000000000000, 0.000000000000000000 ) ) ;
#43 = CARTESIAN_POINT ( 'NONE',  ( 3.061616997868383141E-16, 35.50000000000000000, -2.500000000000000000 ) ) ;
#44 = ORIENTED_EDGE ( 'NONE', *, *, #1009, .F. ) ;
#45 = DIRECTION ( 'NONE',  ( 0.000000000000000000, 0.000000000000000000, 1.000000000000000000 ) ) ;
#46 = EDGE_LOOP ( 'NONE', ( #410, #1096 ) ) ;
#47 = FACE_OUTER_BOUND ( 'NONE', #621, .T. ) ;
#48 = DIRECTION ( 'NONE',  ( 0.000000000000000000, -1.000000000000000000, 0.000000000000000000 ) ) ;
#49 = CARTESIAN_POINT ( 'NONE',  ( -5.750000000000000000, 17.49999999999999645, 9.960000000000000853 ) ) ;
#50 = DATE_AND_TIME ( #935, #130 ) ;
#51 = ORIENTED_EDGE ( 'NONE', *, *, #940, .F. ) ;
#52 = DIRECTION ( 'NONE',  ( 0.000000000000000000, 0.000000000000000000, -1.000000000000000000 ) ) ;
#53 = CARTESIAN_POINT ( 'NONE',  ( 0.000000000000000000, 0.000000000000000000, 0.000000000000000000 ) ) ;
#54 = CIRCLE ( 'NONE', #837, 1.249999999999999334 ) ;
#55 = ADVANCED_FACE ( 'NONE', ( #658 ), #1214, .F. ) ;
#56 = CYLINDRICAL_SURFACE ( 'NONE', #133, 17.00000000000000000 ) ;
#57 = AXIS2_PLACEMENT_3D ( 'NONE', #890, #557, #338 ) ;
#58 = DATE_AND_TIME ( #1129, #464 ) ;
#59 = AXIS2_PLACEMENT_3D ( 'NONE', #397, #191, #376 ) ;
#60 = ORIENTED_EDGE ( 'NONE', *, *, #29, .F. ) ;
#61 = DIRECTION ( 'NONE',  ( 0.000000000000000000, 0.000000000000000000, 1.000000000000000000 ) ) ;
#62 = ADVANCED_FACE ( 'NONE', ( #1229 ), #642, .T. ) ;
#63 = DIRECTION ( 'NONE',  ( 0.000000000000000000, 1.000000000000000000, 0.000000000000000000 ) ) ;
#64 = DIRECTION ( 'NONE',  ( -0.000000000000000000, 1.000000000000000000, -0.000000000000000000 ) ) ;
#65 = EDGE_LOOP ( 'NONE', ( #391, #711 ) ) ;
#66 = CARTESIAN_POINT ( 'NONE',  ( -5.750000000000000000, 17.49999999999999645, 9.960000000000000853 ) ) ;
#67 = DIRECTION ( 'NONE',  ( 0.000000000000000000, 0.000000000000000000, -1.000000000000000000 ) ) ;
#68 = ADVANCED_FACE ( 'NONE', ( #653 ), #157, .F. ) ;
#69 = LINE ( 'NONE', #460, #686 ) ;
#70 = EDGE_CURVE ( 'NONE', #1069, #478, #1158, .T. ) ;
#71 = ORIENTED_EDGE ( 'NONE', *, *, #107, .T. ) ;
#72 = CARTESIAN_POINT ( 'NONE',  ( 1.898202538678397557E-15, 0.000000000000000000, -15.50000000000000000 ) ) ;
#73 = EDGE_CURVE ( 'NONE', #1134, #1169, #16, .T. ) ;
#74 = DIRECTION ( 'NONE',  ( 0.000000000000000000, 0.000000000000000000, 1.000000000000000000 ) ) ;
#75 = CARTESIAN_POINT ( 'NONE',  ( 0.000000000000000000, 20.50000000000000000, 0.000000000000000000 ) ) ;
#76 = AXIS2_PLACEMENT_3D ( 'NONE', #102, #952, #1248 ) ;
#77 = EDGE_LOOP ( 'NONE', ( #1211, #315 ) ) ;
#78 = DIRECTION ( 'NONE',  ( -0.000000000000000000, 1.000000000000000000, -0.000000000000000000 ) ) ;
#79 = AXIS2_PLACEMENT_3D ( 'NONE', #1058, #549, #254 ) ;
#80 = VECTOR ( 'NONE', #138, 1000.000000000000000 ) ;
#81 = DIRECTION ( 'NONE',  ( 0.000000000000000000, -1.000000000000000000, 0.000000000000000000 ) ) ;
#82 = ORIENTED_EDGE ( 'NONE', *, *, #167, .F. ) ;
#83 = DIRECTION ( 'NONE',  ( -0.000000000000000000, 1.000000000000000000, -0.000000000000000000 ) ) ;
#84 = ADVANCED_FACE ( 'NONE', ( #1145 ), #547, .T. ) ;
#85 = DIRECTION ( 'NONE',  ( -0.000000000000000000, 1.000000000000000000, -0.000000000000000000 ) ) ;
#86 = ORIENTED_EDGE ( 'NONE', *, *, #620, .F. ) ;
#87 = CARTESIAN_POINT ( 'NONE',  ( -5.750000000000000000, 17.49999999999999645, -9.960000000000000853 ) ) ;
#88 = ORIENTED_EDGE ( 'NONE', *, *, #752, .F. ) ;
#89 = FACE_BOUND ( 'NONE', #120, .T. ) ;
#90 = ORIENTED_EDGE ( 'NONE', *, *, #696, .F. ) ;
#91 = DIRECTION ( 'NONE',  ( 0.000000000000000000, 0.000000000000000000, 1.000000000000000000 ) ) ;
#92 = CIRCLE ( 'NONE', #959, 1.249999999999999334 ) ;
#93 = ORIENTED_EDGE ( 'NONE', *, *, #726, .F. ) ;
#94 = DIRECTION ( 'NONE',  ( 0.000000000000000000, 0.000000000000000000, 1.000000000000000000 ) ) ;
#95 = CIRCLE ( 'NONE', #1222, 17.00000000000000000 ) ;
#96 = AXIS2_PLACEMENT_3D ( 'NONE', #106, #503, #894 ) ;
#97 = EDGE_CURVE ( 'NONE', #871, #873, #69, .T. ) ;
#98 = DIRECTION ( 'NONE',  ( 0.000000000000000000, 0.000000000000000000, 1.000000000000000000 ) ) ;
#99 = ORIENTED_EDGE ( 'NONE', *, *, #201, .F. ) ;
#100 = CYLINDRICAL_SURFACE ( 'NONE', #607, 2.500000000000000000 ) ;
#101 = EDGE_LOOP ( 'NONE', ( #1139, #491, #878, #385 ) ) ;
#102 = CARTESIAN_POINT ( 'NONE',  ( -5.750000000000000000, 17.49999999999999645, 9.960000000000000853 ) ) ;
#103 = CARTESIAN_POINT ( 'NONE',  ( 6.717999999999999972, 5.000000000000000000, 6.717999999999999972 ) ) ;
#104 = ORIENTED_EDGE ( 'NONE', *, *, #163, .F. ) ;
#105 = CARTESIAN_POINT ( 'NONE',  ( 5.750000000000000000, 20.50000000000000000, -7.459999999999999964 ) ) ;
#106 = CARTESIAN_POINT ( 'NONE',  ( -6.717999999999999972, 0.000000000000000000, 6.717999999999999972 ) ) ;
#107 = EDGE_CURVE ( 'NONE', #214, #992, #507, .T. ) ;
#108 = DIRECTION ( 'NONE',  ( -0.000000000000000000, 1.000000000000000000, -0.000000000000000000 ) ) ;
#109 = ORIENTED_EDGE ( 'NONE', *, *, #292, .T. ) ;
#110 = DIRECTION ( 'NONE',  ( -0.000000000000000000, 1.000000000000000000, -0.000000000000000000 ) ) ;
#111 = EDGE_LOOP ( 'NONE', ( #506, #598 ) ) ;
#112 = PLANE ( 'NONE',  #1024 ) ;
#113 = CIRCLE ( 'NONE', #1000, 2.500000000000000444 ) ;
#114 = AXIS2_PLACEMENT_3D ( 'NONE', #827, #48, #67 ) ;
#115 = AXIS2_PLACEMENT_3D ( 'NONE', #806, #127, #821 ) ;
#116 = CARTESIAN_POINT ( 'NONE',  ( 0.000000000000000000, 19.50000000000000000, 0.000000000000000000 ) ) ;
#117 = CC_DESIGN_APPROVAL ( #789, ( #850 ) ) ;
#118 = ORIENTED_EDGE ( 'NONE', *, *, #483, .T. ) ;
#119 =( NAMED_UNIT ( * ) SI_UNIT ( $, .STERADIAN. ) SOLID_ANGLE_UNIT ( ) );
#120 = EDGE_LOOP ( 'NONE', ( #325, #987 ) ) ;
#121 = EDGE_CURVE ( 'NONE', #945, #22, #438, .T. ) ;
#122 = CARTESIAN_POINT ( 'NONE',  ( -6.717999999999999972, 5.000000000000000000, -5.467999999999999972 ) ) ;
#123 = UNCERTAINTY_MEASURE_WITH_UNIT (LENGTH_MEASURE( 1.000000000000000082E-05 ), #1025, 'distance_accuracy_value', 'NONE');
#124 = FACE_OUTER_BOUND ( 'NONE', #750, .T. ) ;
#125 = EDGE_LOOP ( 'NONE', ( #900, #626 ) ) ;
#126 = ORIENTED_EDGE ( 'NONE', *, *, #19, .T. ) ;
#127 = DIRECTION ( 'NONE',  ( 0.000000000000000000, 1.000000000000000000, 0.000000000000000000 ) ) ;
#128 = FACE_OUTER_BOUND ( 'NONE', #697, .T. ) ;
#129 = CARTESIAN_POINT ( 'NONE',  ( -11.50000000000000000, 20.50000000000000000, 0.000000000000000000 ) ) ;
#130 = LOCAL_TIME ( 17, 50, 23.00000000000000000, #150 ) ;
#131 = ORIENTED_EDGE ( 'NONE', *, *, #845, .F. ) ;
#132 = DIRECTION ( 'NONE',  ( 0.000000000000000000, -1.000000000000000000, 0.000000000000000000 ) ) ;
#133 = AXIS2_PLACEMENT_3D ( 'NONE', #251, #352, #98 ) ;
#134 = AXIS2_PLACEMENT_3D ( 'NONE', #75, #1241, #943 ) ;
#135 = FACE_BOUND ( 'NONE', #476, .T. ) ;
#136 = CIRCLE ( 'NONE', #114, 2.500000000000000444 ) ;
#137 = VERTEX_POINT ( 'NONE', #1051 ) ;
#138 = DIRECTION ( 'NONE',  ( -0.000000000000000000, 1.000000000000000000, -0.000000000000000000 ) ) ;
#139 = ORIENTED_EDGE ( 'NONE', *, *, #371, .F. ) ;
#140 = CARTESIAN_POINT ( 'NONE',  ( 0.000000000000000000, 22.50000000000000000, 0.000000000000000000 ) ) ;
#141 = PERSON ( 'UNSPECIFIED', 'UNSPECIFIED', 'UNSPECIFIED', ('UNSPECIFIED'), ('UNSPECIFIED'), ('UNSPECIFIED') ) ;
#142 = DIRECTION ( 'NONE',  ( 0.000000000000000000, -1.000000000000000000, 0.000000000000000000 ) ) ;
#143 = DIRECTION ( 'NONE',  ( 0.000000000000000000, 0.000000000000000000, 1.000000000000000000 ) ) ;
#144 = DIRECTION ( 'NONE',  ( 0.000000000000000000, 0.000000000000000000, -1.000000000000000000 ) ) ;
#145 = ORIENTED_EDGE ( 'NONE', *, *, #5, .F. ) ;
#146 = CARTESIAN_POINT ( 'NONE',  ( 5.750000000000000000, 17.49999999999999645, -9.960000000000000853 ) ) ;
#147 = CC_DESIGN_PERSON_AND_ORGANIZATION_ASSIGNMENT ( #326, #924, ( #970 ) ) ;
#148 = FACE_OUTER_BOUND ( 'NONE', #77, .T. ) ;
#149 = DIRECTION ( 'NONE',  ( -0.000000000000000000, 1.000000000000000000, -0.000000000000000000 ) ) ;
#150 = COORDINATED_UNIVERSAL_TIME_OFFSET ( 12, 0, .AHEAD. ) ;
#151 = ORIENTED_EDGE ( 'NONE', *, *, #399, .F. ) ;
#152 = DIRECTION ( 'NONE',  ( 0.000000000000000000, 1.000000000000000000, 0.000000000000000000 ) ) ;
#153 = ADVANCED_FACE ( 'NONE', ( #1042 ), #929, .F. ) ;
#154 = CC_DESIGN_SECURITY_CLASSIFICATION ( #440, ( #294 ) ) ;
#155 = CARTESIAN_POINT ( 'NONE',  ( 6.717999999999999972, 5.000000000000000000, 6.717999999999999972 ) ) ;
#156 = AXIS2_PLACEMENT_3D ( 'NONE', #771, #869, #1259 ) ;
#157 = CYLINDRICAL_SURFACE ( 'NONE', #979, 2.500000000000000444 ) ;
#158 = AXIS2_PLACEMENT_3D ( 'NONE', #1080, #594, #199 ) ;
#159 = PERSON_AND_ORGANIZATION ( #141, #505 ) ;
#160 = AXIS2_PLACEMENT_3D ( 'NONE', #712, #530, #920 ) ;
#161 = ORIENTED_EDGE ( 'NONE', *, *, #863, .F. ) ;
#162 = DIRECTION ( 'NONE',  ( -0.000000000000000000, 1.000000000000000000, -0.000000000000000000 ) ) ;
#163 = EDGE_CURVE ( 'NONE', #680, #1034, #788, .T. ) ;
#164 = EDGE_CURVE ( 'NONE', #775, #11, #455, .T. ) ;
#165 = FACE_BOUND ( 'NONE', #111, .T. ) ;
#166 = DIRECTION ( 'NONE',  ( -0.000000000000000000, 1.000000000000000000, -0.000000000000000000 ) ) ;
#167 = EDGE_CURVE ( 'NONE', #359, #616, #336, .T. ) ;
#168 = VERTEX_POINT ( 'NONE', #247 ) ;
#169 = CARTESIAN_POINT ( 'NONE',  ( -6.717999999999999972, 5.000000000000000000, -5.467999999999999972 ) ) ;
#170 = DIRECTION ( 'NONE',  ( -0.000000000000000000, 1.000000000000000000, -0.000000000000000000 ) ) ;
#171 = DIRECTION ( 'NONE',  ( 0.000000000000000000, 1.000000000000000000, 0.000000000000000000 ) ) ;
#172 = CALENDAR_DATE ( 2026, 29, 9 ) ;
#173 = ORIENTED_EDGE ( 'NONE', *, *, #940, .T. ) ;
#174 = FACE_OUTER_BOUND ( 'NONE', #413, .T. ) ;
#175 = ADVANCED_FACE ( 'NONE', ( #846 ), #1037, .T. ) ;
#176 = DIRECTION ( 'NONE',  ( -0.000000000000000000, 1.000000000000000000, -0.000000000000000000 ) ) ;
#177 = AXIS2_PLACEMENT_3D ( 'NONE', #215, #637, #1012 ) ;
#178 = AXIS2_PLACEMENT_3D ( 'NONE', #1032, #829, #341 ) ;
#179 = AXIS2_PLACEMENT_3D ( 'NONE', #600, #318, #906 ) ;
#180 = ADVANCED_FACE ( 'NONE', ( #1236 ), #56, .T. ) ;
#181 = EDGE_LOOP ( 'NONE', ( #799, #487 ) ) ;
#182 = LINE ( 'NONE', #556, #300 ) ;
#183 = CIRCLE ( 'NONE', #899, 4.000000000000000000 ) ;
#184 = AXIS2_PLACEMENT_3D ( 'NONE', #1090, #872, #7 ) ;
#185 = DIRECTION ( 'NONE',  ( 0.000000000000000000, 0.000000000000000000, -1.000000000000000000 ) ) ;
#186 = ORIENTED_EDGE ( 'NONE', *, *, #456, .F. ) ;
#187 = DIRECTION ( 'NONE',  ( 0.000000000000000000, -1.000000000000000000, 0.000000000000000000 ) ) ;
#188 = ADVANCED_FACE ( 'NONE', ( #273 ), #876, .F. ) ;
#189 = DIRECTION ( 'NONE',  ( 0.000000000000000000, 0.000000000000000000, 1.000000000000000000 ) ) ;
#190 = ORIENTED_EDGE ( 'NONE', *, *, #167, .T. ) ;
#191 = DIRECTION ( 'NONE',  ( 0.000000000000000000, -1.000000000000000000, 0.000000000000000000 ) ) ;
#192 = ORIENTED_EDGE ( 'NONE', *, *, #164, .T. ) ;
#193 = ADVANCED_FACE ( 'NONE', ( #282 ), #595, .F. ) ;
#194 = CARTESIAN_POINT ( 'NONE',  ( 0.000000000000000000, 3.000000000000002665, 0.000000000000000000 ) ) ;
#195 = DIRECTION ( 'NONE',  ( -0.000000000000000000, 1.000000000000000000, 0.000000000000000000 ) ) ;
#196 = ORIENTED_EDGE ( 'NONE', *, *, #715, .F. ) ;
#197 = DIRECTION ( 'NONE',  ( 0.000000000000000000, -0.000000000000000000, -1.000000000000000000 ) ) ;
#198 = VERTEX_POINT ( 'NONE', #381 ) ;
#199 = DIRECTION ( 'NONE',  ( 0.000000000000000000, 0.000000000000000000, 1.000000000000000000 ) ) ;
#200 = AXIS2_PLACEMENT_3D ( 'NONE', #9, #904, #74 ) ;
#201 = EDGE_CURVE ( 'NONE', #253, #1103, #1081, .T. ) ;
#202 = CIRCLE ( 'NONE', #772, 2.500000000000000444 ) ;
#203 = CARTESIAN_POINT ( 'NONE',  ( -6.717999999999999972, 0.000000000000000000, 5.467999999999999972 ) ) ;
#204 = ORIENTED_EDGE ( 'NONE', *, *, #430, .F. ) ;
#205 = CARTESIAN_POINT ( 'NONE',  ( -6.717999999999999972, 5.000000000000000000, 5.467999999999999972 ) ) ;
#206 = ADVANCED_FACE ( 'NONE', ( #1254, #89 ), #1154, .F. ) ;
#207 = ORIENTED_EDGE ( 'NONE', *, *, #1009, .T. ) ;
#208 = CARTESIAN_POINT ( 'NONE',  ( 6.717999999999999972, 5.000000000000000000, -6.717999999999999972 ) ) ;
#209 = LINE ( 'NONE', #911, #467 ) ;
#210 = ORIENTED_EDGE ( 'NONE', *, *, #163, .T. ) ;
#211 = CYLINDRICAL_SURFACE ( 'NONE', #59, 1.250000000000000222 ) ;
#212 = VERTEX_POINT ( 'NONE', #675 ) ;
#213 = CARTESIAN_POINT ( 'NONE',  ( 0.000000000000000000, 35.50000000000000000, 0.000000000000000000 ) ) ;
#214 = VERTEX_POINT ( 'NONE', #777 ) ;
#215 = CARTESIAN_POINT ( 'NONE',  ( -5.750000000000000000, 17.49999999999999645, -9.960000000000000853 ) ) ;
#216 = ORIENTED_EDGE ( 'NONE', *, *, #562, .T. ) ;
#217 = DIRECTION ( 'NONE',  ( -0.000000000000000000, 1.000000000000000000, -0.000000000000000000 ) ) ;
#218 = AXIS2_PLACEMENT_3D ( 'NONE', #765, #982, #4 ) ;
#219 = VECTOR ( 'NONE', #858, 1000.000000000000000 ) ;
#220 = CIRCLE ( 'NONE', #339, 1.249999999999999334 ) ;
#221 = FACE_OUTER_BOUND ( 'NONE', #1147, .T. ) ;
#222 = ORIENTED_EDGE ( 'NONE', *, *, #785, .T. ) ;
#223 = DIRECTION ( 'NONE',  ( 0.000000000000000000, 1.000000000000000000, 0.000000000000000000 ) ) ;
#224 = VERTEX_POINT ( 'NONE', #287 ) ;
#225 = CYLINDRICAL_SURFACE ( 'NONE', #1048, 15.50000000000000000 ) ;
#226 = CARTESIAN_POINT ( 'NONE',  ( 5.750000000000000000, 17.49999999999999645, 9.960000000000000853 ) ) ;
#227 = ORIENTED_EDGE ( 'NONE', *, *, #752, .T. ) ;
#228 =( NAMED_UNIT ( * ) PLANE_ANGLE_UNIT ( ) SI_UNIT ( $, .RADIAN. ) );
#229 = VERTEX_POINT ( 'NONE', #203 ) ;
#230 = DIRECTION ( 'NONE',  ( 0.000000000000000000, -1.000000000000000000, 0.000000000000000000 ) ) ;
#231 = CARTESIAN_POINT ( 'NONE',  ( 6.717999999999999972, 0.000000000000000000, 6.717999999999999972 ) ) ;
#232 = VERTEX_POINT ( 'NONE', #361 ) ;
#233 = ORIENTED_EDGE ( 'NONE', *, *, #308, .F. ) ;
#234 = DIRECTION ( 'NONE',  ( -0.000000000000000000, 1.000000000000000000, -0.000000000000000000 ) ) ;
#235 = VECTOR ( 'NONE', #1188, 1000.000000000000000 ) ;
#236 = AXIS2_PLACEMENT_3D ( 'NONE', #49, #64, #743 ) ;
#237 = AXIS2_PLACEMENT_3D ( 'NONE', #539, #652, #928 ) ;
#238 = FACE_BOUND ( 'NONE', #654, .T. ) ;
#239 = VECTOR ( 'NONE', #826, 1000.000000000000000 ) ;
#240 = CIRCLE ( 'NONE', #958, 2.500000000000000444 ) ;
#241 = DIRECTION ( 'NONE',  ( 0.000000000000000000, 0.000000000000000000, -1.000000000000000000 ) ) ;
#242 = CC_DESIGN_PERSON_AND_ORGANIZATION_ASSIGNMENT ( #930, #663, ( #294 ) ) ;
#243 = ORIENTED_EDGE ( 'NONE', *, *, #371, .T. ) ;
#244 = CARTESIAN_POINT ( 'NONE',  ( 2.081899558550500280E-15, 35.50000000000000000, -17.00000000000000000 ) ) ;
#245 = LINE ( 'NONE', #641, #898 ) ;
#246 = EDGE_CURVE ( 'NONE', #426, #405, #1070, .T. ) ;
#247 = CARTESIAN_POINT ( 'NONE',  ( -11.50000000000000000, 20.50000000000000000, -2.500000000000000444 ) ) ;
#248 = VERTEX_POINT ( 'NONE', #761 ) ;
#249 = CARTESIAN_POINT ( 'NONE',  ( -11.50000000000000000, 17.49999999999999645, 0.000000000000000000 ) ) ;
#250 = DIRECTION ( 'NONE',  ( 0.000000000000000000, 0.000000000000000000, 1.000000000000000000 ) ) ;
#251 = CARTESIAN_POINT ( 'NONE',  ( 0.000000000000000000, 35.50000000000000000, 0.000000000000000000 ) ) ;
#252 = EDGE_CURVE ( 'NONE', #775, #630, #832, .T. ) ;
#253 = VERTEX_POINT ( 'NONE', #1149 ) ;
#254 = DIRECTION ( 'NONE',  ( 0.000000000000000000, 0.000000000000000000, 1.000000000000000000 ) ) ;
#255 = DIRECTION ( 'NONE',  ( -0.000000000000000000, 1.000000000000000000, -0.000000000000000000 ) ) ;
#256 = EDGE_CURVE ( 'NONE', #271, #1045, #373, .T. ) ;
#257 = VECTOR ( 'NONE', #293, 1000.000000000000114 ) ;
#258 = DIRECTION ( 'NONE',  ( 0.000000000000000000, -1.000000000000000000, 0.000000000000000000 ) ) ;
#259 = AXIS2_PLACEMENT_3D ( 'NONE', #801, #424, #1186 ) ;
#260 = AXIS2_PLACEMENT_3D ( 'NONE', #140, #703, #35 ) ;
#261 = EDGE_LOOP ( 'NONE', ( #368, #548, #82, #854 ) ) ;
#262 = DIRECTION ( 'NONE',  ( 0.000000000000000000, -1.000000000000000000, 0.000000000000000000 ) ) ;
#263 = DIRECTION ( 'NONE',  ( 0.000000000000000000, -1.000000000000000000, 0.000000000000000000 ) ) ;
#264 = DIRECTION ( 'NONE',  ( 0.000000000000000000, -1.000000000000000000, 0.000000000000000000 ) ) ;
#265 = DATE_AND_TIME ( #554, #975 ) ;
#266 = ORIENTED_EDGE ( 'NONE', *, *, #425, .F. ) ;
#267 = FACE_OUTER_BOUND ( 'NONE', #1238, .T. ) ;
#268 = EDGE_CURVE ( 'NONE', #288, #793, #92, .T. ) ;
#269 = DIRECTION ( 'NONE',  ( -0.000000000000000000, 1.000000000000000000, -0.000000000000000000 ) ) ;
#270 = APPROVAL_STATUS ( 'not_yet_approved' ) ;
#271 = VERTEX_POINT ( 'NONE', #1173 ) ;
#272 = LINE ( 'NONE', #1239, #1224 ) ;
#273 = FACE_OUTER_BOUND ( 'NONE', #277, .T. ) ;
#274 = AXIS2_PLACEMENT_3D ( 'NONE', #1104, #1215, #427 ) ;
#275 = AXIS2_PLACEMENT_3D ( 'NONE', #558, #948, #347 ) ;
#276 = AXIS2_PLACEMENT_3D ( 'NONE', #351, #776, #386 ) ;
#277 = EDGE_LOOP ( 'NONE', ( #707, #825, #395, #664 ) ) ;
#278 = CARTESIAN_POINT ( 'NONE',  ( 0.000000000000000000, 35.50000000000000000, 0.000000000000000000 ) ) ;
#279 = CIRCLE ( 'NONE', #401, 1.249999999999999334 ) ;
#280 = APPROVAL ( #1230, 'UNSPECIFIED' ) ;
#281 = ORIENTED_EDGE ( 'NONE', *, *, #367, .F. ) ;
#282 = FACE_OUTER_BOUND ( 'NONE', #472, .T. ) ;
#283 = ORIENTED_EDGE ( 'NONE', *, *, #348, .T. ) ;
#284 = CYLINDRICAL_SURFACE ( 'NONE', #568, 17.00000000000000000 ) ;
#285 = VERTEX_POINT ( 'NONE', #963 ) ;
#286 = DIRECTION ( 'NONE',  ( 0.000000000000000000, 0.000000000000000000, -1.000000000000000000 ) ) ;
#287 = CARTESIAN_POINT ( 'NONE',  ( -5.750000000000000000, 20.50000000000000000, -12.46000000000000085 ) ) ;
#288 = VERTEX_POINT ( 'NONE', #1066 ) ;
#289 = PLANE ( 'NONE',  #1021 ) ;
#290 = EDGE_CURVE ( 'NONE', #1103, #359, #989, .T. ) ;
#291 = ORIENTED_EDGE ( 'NONE', *, *, #944, .F. ) ;
#292 = EDGE_CURVE ( 'NONE', #253, #616, #669, .T. ) ;
#293 = DIRECTION ( 'NONE',  ( 0.000000000000000000, -0.7071067811865474617, -0.7071067811865474617 ) ) ;
#294 = PRODUCT_DEFINITION_FORMATION_WITH_SPECIFIED_SOURCE ( 'ANY', '', #970, .NOT_KNOWN. ) ;
#295 = VERTEX_POINT ( 'NONE', #372 ) ;
#296 = VECTOR ( 'NONE', #1093, 1000.000000000000000 ) ;
#297 = CARTESIAN_POINT ( 'NONE',  ( 0.000000000000000000, 35.50000000000000000, 0.000000000000000000 ) ) ;
#298 = CARTESIAN_POINT ( 'NONE',  ( 11.50000000000000000, 20.50000000000000000, 0.000000000000000000 ) ) ;
#299 = AXIS2_PLACEMENT_3D ( 'NONE', #684, #977, #94 ) ;
#300 = VECTOR ( 'NONE', #162, 1000.000000000000000 ) ;
#301 = CARTESIAN_POINT ( 'NONE',  ( -6.717999999999999972, 5.000000000000000000, 5.467999999999999972 ) ) ;
#302 = ORIENTED_EDGE ( 'NONE', *, *, #874, .F. ) ;
#303 = DIRECTION ( 'NONE',  ( 0.000000000000000000, 0.000000000000000000, 1.000000000000000000 ) ) ;
#304 = ORIENTED_EDGE ( 'NONE', *, *, #706, .T. ) ;
#305 = DIRECTION ( 'NONE',  ( -0.000000000000000000, 1.000000000000000000, -0.000000000000000000 ) ) ;
#306 = ADVANCED_FACE ( 'NONE', ( #685 ), #967, .F. ) ;
#307 = CYLINDRICAL_SURFACE ( 'NONE', #509, 1.249999999999999334 ) ;
#308 = EDGE_CURVE ( 'NONE', #214, #1159, #782, .T. ) ;
#309 = ORIENTED_EDGE ( 'NONE', *, *, #874, .T. ) ;
#310 = CARTESIAN_POINT ( 'NONE',  ( 5.750000000000000000, 17.49999999999999645, -7.459999999999999964 ) ) ;
#311 = VERTEX_POINT ( 'NONE', #479 ) ;
#312 = CARTESIAN_POINT ( 'NONE',  ( 0.000000000000000000, 35.50000000000000000, 2.500000000000000000 ) ) ;
#313 = CARTESIAN_POINT ( 'NONE',  ( 5.750000000000000000, 17.49999999999999645, 7.459999999999999964 ) ) ;
#314 = DIRECTION ( 'NONE',  ( 0.000000000000000000, 0.000000000000000000, -1.000000000000000000 ) ) ;
#315 = ORIENTED_EDGE ( 'NONE', *, *, #1258, .T. ) ;
#316 = CARTESIAN_POINT ( 'NONE',  ( 6.717999999999999972, 5.000000000000000000, 5.468000000000000860 ) ) ;
#317 = CIRCLE ( 'NONE', #1084, 4.000000000000000000 ) ;
#318 = DIRECTION ( 'NONE',  ( 0.000000000000000000, -1.000000000000000000, 0.000000000000000000 ) ) ;
#319 = EDGE_LOOP ( 'NONE', ( #919, #375, #190, #1110 ) ) ;
#320 = CARTESIAN_POINT ( 'NONE',  ( 6.717999999999999972, 5.000000000000000000, -7.967999999999999083 ) ) ;
#321 = ADVANCED_FACE ( 'NONE', ( #679 ), #1265, .F. ) ;
#322 = ORIENTED_EDGE ( 'NONE', *, *, #308, .T. ) ;
#323 = CARTESIAN_POINT ( 'NONE',  ( -11.50000000000000000, 17.49999999999999645, 0.000000000000000000 ) ) ;
#324 = DIRECTION ( 'NONE',  ( 0.000000000000000000, -1.000000000000000000, 0.000000000000000000 ) ) ;
#325 = ORIENTED_EDGE ( 'NONE', *, *, #618, .T. ) ;
#326 = PERSON_AND_ORGANIZATION ( #141, #505 ) ;
#327 = VERTEX_POINT ( 'NONE', #393 ) ;
#328 = DIRECTION ( 'NONE',  ( 0.000000000000000000, 0.000000000000000000, 1.000000000000000000 ) ) ;
#329 = CYLINDRICAL_SURFACE ( 'NONE', #532, 1.249999999999999334 ) ;
#330 = EDGE_CURVE ( 'NONE', #311, #1169, #404, .T. ) ;
#331 = CARTESIAN_POINT ( 'NONE',  ( -11.50000000000000000, 17.49999999999999645, 0.000000000000000000 ) ) ;
#332 = DIRECTION ( 'NONE',  ( -0.000000000000000000, 1.000000000000000000, 0.000000000000000000 ) ) ;
#333 = ORIENTED_EDGE ( 'NONE', *, *, #755, .T. ) ;
#334 = CARTESIAN_POINT ( 'NONE',  ( -6.717999999999999972, 0.000000000000000000, -6.717999999999999972 ) ) ;
#335 = AXIS2_PLACEMENT_3D ( 'NONE', #87, #985, #488 ) ;
#336 = CIRCLE ( 'NONE', #1063, 17.00000000000000000 ) ;
#337 = CIRCLE ( 'NONE', #1122, 15.50000000000000000 ) ;
#338 = DIRECTION ( 'NONE',  ( 0.000000000000000000, 0.000000000000000000, 1.000000000000000000 ) ) ;
#339 = AXIS2_PLACEMENT_3D ( 'NONE', #720, #132, #1126 ) ;
#340 = CIRCLE ( 'NONE', #274, 4.000000000000000000 ) ;
#341 = DIRECTION ( 'NONE',  ( 0.000000000000000000, 0.000000000000000000, 1.000000000000000000 ) ) ;
#342 = APPROVAL_ROLE ( '' ) ;
#343 = ORIENTED_EDGE ( 'NONE', *, *, #656, .F. ) ;
#344 = DIRECTION ( 'NONE',  ( 0.000000000000000000, 0.000000000000000000, 1.000000000000000000 ) ) ;
#345 = DIRECTION ( 'NONE',  ( 0.000000000000000000, 0.000000000000000000, 1.000000000000000000 ) ) ;
#346 = ADVANCED_FACE ( 'NONE', ( #1113 ), #1002, .T. ) ;
#347 = DIRECTION ( 'NONE',  ( 0.000000000000000000, 0.000000000000000000, 1.000000000000000000 ) ) ;
#348 = EDGE_CURVE ( 'NONE', #1125, #229, #1209, .T. ) ;
#349 = EDGE_LOOP ( 'NONE', ( #1166, #27, #688, #580 ) ) ;
#350 = LINE ( 'NONE', #169, #471 ) ;
#351 = CARTESIAN_POINT ( 'NONE',  ( 11.50000000000000000, 17.49999999999999645, 0.000000000000000000 ) ) ;
#352 = DIRECTION ( 'NONE',  ( -0.000000000000000000, 1.000000000000000000, -0.000000000000000000 ) ) ;
#353 = ORIENTED_EDGE ( 'NONE', *, *, #721, .T. ) ;
#354 = CARTESIAN_POINT ( 'NONE',  ( 6.717999999999999972, 5.000000000000000000, 6.717999999999999972 ) ) ;
#355 = CARTESIAN_POINT ( 'NONE',  ( 0.000000000000000000, 35.50000000000000000, 0.000000000000000000 ) ) ;
#356 = AXIS2_PLACEMENT_3D ( 'NONE', #803, #1194, #314 ) ;
#357 = CARTESIAN_POINT ( 'NONE',  ( -6.717999999999999972, 5.000000000000000000, 7.967999999999999083 ) ) ;
#358 = AXIS2_PLACEMENT_3D ( 'NONE', #213, #613, #897 ) ;
#359 = VERTEX_POINT ( 'NONE', #498 ) ;
#360 = CARTESIAN_POINT ( 'NONE',  ( 6.717999999999999972, 0.000000000000000000, -7.967999999999999083 ) ) ;
#361 = CARTESIAN_POINT ( 'NONE',  ( -5.750000000000000000, 17.49999999999999645, 12.46000000000000085 ) ) ;
#362 = DATE_TIME_ROLE ( 'creation_date' ) ;
#363 = ORIENTED_EDGE ( 'NONE', *, *, #870, .T. ) ;
#364 = CARTESIAN_POINT ( 'NONE',  ( 4.898587196589412829E-16, 20.50000000000000000, -4.000000000000000000 ) ) ;
#365 = PRODUCT_DEFINITION_SHAPE ( 'NONE', 'NONE',  #850 ) ;
#366 = CARTESIAN_POINT ( 'NONE',  ( 15.50000000000000000, 3.000000000000000000, 0.000000000000000000 ) ) ;
#367 = EDGE_CURVE ( 'NONE', #793, #288, #465, .T. ) ;
#368 = ORIENTED_EDGE ( 'NONE', *, *, #635, .T. ) ;
#369 = CARTESIAN_POINT ( 'NONE',  ( 0.000000000000000000, 22.50000000000000000, 2.500000000000000000 ) ) ;
#370 = VERTEX_POINT ( 'NONE', #916 ) ;
#371 = EDGE_CURVE ( 'NONE', #907, #871, #629, .T. ) ;
#372 = CARTESIAN_POINT ( 'NONE',  ( 5.750000000000000000, 20.50000000000000000, 12.46000000000000085 ) ) ;
#373 = CIRCLE ( 'NONE', #550, 2.500000000000000444 ) ;
#374 = CIRCLE ( 'NONE', #1142, 1.249999999999999334 ) ;
#375 = ORIENTED_EDGE ( 'NONE', *, *, #290, .T. ) ;
#376 = DIRECTION ( 'NONE',  ( 0.000000000000000000, 0.000000000000000000, -1.000000000000000000 ) ) ;
#377 = CIRCLE ( 'NONE', #941, 2.500000000000000444 ) ;
#378 = ORIENTED_EDGE ( 'NONE', *, *, #430, .T. ) ;
#379 = DIRECTION ( 'NONE',  ( 0.000000000000000000, -0.000000000000000000, 1.000000000000000000 ) ) ;
#380 = EDGE_CURVE ( 'NONE', #616, #359, #446, .T. ) ;
#381 = CARTESIAN_POINT ( 'NONE',  ( -5.750000000000000000, 20.50000000000000000, 12.46000000000000085 ) ) ;
#382 = ADVANCED_FACE ( 'NONE', ( #124 ), #1101, .T. ) ;
#383 = EDGE_LOOP ( 'NONE', ( #499, #1018, #283, #719 ) ) ;
#384 = CARTESIAN_POINT ( 'NONE',  ( 0.000000000000000000, 22.50000000000000000, 4.000000000000000000 ) ) ;
#385 = ORIENTED_EDGE ( 'NONE', *, *, #256, .F. ) ;
#386 = DIRECTION ( 'NONE',  ( 0.000000000000000000, 0.000000000000000000, 1.000000000000000000 ) ) ;
#387 = ADVANCED_FACE ( 'NONE', ( #128 ), #307, .F. ) ;
#388 = DIRECTION ( 'NONE',  ( 8.659560562354932858E-17, -0.7071067811865474617, 0.7071067811865474617 ) ) ;
#389 = ORIENTED_EDGE ( 'NONE', *, *, #828, .F. ) ;
#390 = CARTESIAN_POINT ( 'NONE',  ( -6.717999999999999972, 0.000000000000000000, -5.467999999999999972 ) ) ;
#391 = ORIENTED_EDGE ( 'NONE', *, *, #605, .T. ) ;
#392 = CARTESIAN_POINT ( 'NONE',  ( 0.000000000000000000, 35.50000000000000000, 17.00000000000000000 ) ) ;
#393 = CARTESIAN_POINT ( 'NONE',  ( -5.750000000000000000, 17.49999999999999645, 7.459999999999999964 ) ) ;
#394 = AXIS2_PLACEMENT_3D ( 'NONE', #677, #689, #508 ) ;
#395 = ORIENTED_EDGE ( 'NONE', *, *, #73, .T. ) ;
#396 = AXIS2_PLACEMENT_3D ( 'NONE', #10, #619, #409 ) ;
#397 = CARTESIAN_POINT ( 'NONE',  ( -6.717999999999999972, 5.000000000000000000, 6.717999999999999972 ) ) ;
#398 = CIRCLE ( 'NONE', #358, 2.500000000000000000 ) ;
#399 = EDGE_CURVE ( 'NONE', #327, #34, #209, .T. ) ;
#400 = DIRECTION ( 'NONE',  ( -0.000000000000000000, 1.000000000000000000, -0.000000000000000000 ) ) ;
#401 = AXIS2_PLACEMENT_3D ( 'NONE', #855, #453, #1245 ) ;
#402 = VECTOR ( 'NONE', #1195, 1000.000000000000000 ) ;
#403 = EDGE_CURVE ( 'NONE', #887, #1260, #374, .T. ) ;
#404 = LINE ( 'NONE', #37, #856 ) ;
#405 = VERTEX_POINT ( 'NONE', #1100 ) ;
#406 = FACE_BOUND ( 'NONE', #181, .T. ) ;
#407 = ORIENTED_EDGE ( 'NONE', *, *, #870, .F. ) ;
#408 = CYLINDRICAL_SURFACE ( 'NONE', #299, 2.500000000000000444 ) ;
#409 = DIRECTION ( 'NONE',  ( 0.000000000000000000, 0.000000000000000000, 1.000000000000000000 ) ) ;
#410 = ORIENTED_EDGE ( 'NONE', *, *, #252, .T. ) ;
#411 = CARTESIAN_POINT ( 'NONE',  ( 5.750000000000000000, 17.49999999999999645, 9.960000000000000853 ) ) ;
#412 = ADVANCED_FACE ( 'NONE', ( #625 ), #20, .T. ) ;
#413 = EDGE_LOOP ( 'NONE', ( #462, #1005, #1190, #964 ) ) ;
#414 = DIRECTION ( 'NONE',  ( 0.000000000000000000, -1.000000000000000000, 0.000000000000000000 ) ) ;
#415 = PLANE ( 'NONE',  #1047 ) ;
#416 = EDGE_CURVE ( 'NONE', #212, #137, #398, .T. ) ;
#417 = VERTEX_POINT ( 'NONE', #606 ) ;
#418 = FACE_BOUND ( 'NONE', #903, .T. ) ;
#419 = EDGE_LOOP ( 'NONE', ( #950, #93 ) ) ;
#420 = DIRECTION ( 'NONE',  ( 0.000000000000000000, 0.000000000000000000, 1.000000000000000000 ) ) ;
#421 = VECTOR ( 'NONE', #269, 1000.000000000000000 ) ;
#422 = AXIS2_PLACEMENT_3D ( 'NONE', #355, #1213, #1041 ) ;
#423 = CIRCLE ( 'NONE', #533, 2.500000000000000444 ) ;
#424 = DIRECTION ( 'NONE',  ( -0.000000000000000000, 1.000000000000000000, -0.000000000000000000 ) ) ;
#425 = EDGE_CURVE ( 'NONE', #224, #813, #610, .T. ) ;
#426 = VERTEX_POINT ( 'NONE', #313 ) ;
#427 = DIRECTION ( 'NONE',  ( 0.000000000000000000, 0.000000000000000000, 1.000000000000000000 ) ) ;
#428 = EDGE_LOOP ( 'NONE', ( #1130, #968 ) ) ;
#429 = DIRECTION ( 'NONE',  ( 0.000000000000000000, 0.000000000000000000, -1.000000000000000000 ) ) ;
#430 = EDGE_CURVE ( 'NONE', #643, #973, #30, .T. ) ;
#431 = FACE_OUTER_BOUND ( 'NONE', #1007, .T. ) ;
#432 = ADVANCED_BREP_SHAPE_REPRESENTATION ( 'Motor', ( #746, #831 ), #895 ) ;
#433 = ORIENTED_EDGE ( 'NONE', *, *, #605, .F. ) ;
#434 = APPLICATION_PROTOCOL_DEFINITION ( 'international standard', 'config_control_design', 1994, #714 ) ;
#435 = EDGE_LOOP ( 'NONE', ( #161, #126, #1164, #773 ) ) ;
#436 = LINE ( 'NONE', #244, #239 ) ;
#437 = DIRECTION ( 'NONE',  ( 0.000000000000000000, -1.000000000000000000, 0.000000000000000000 ) ) ;
#438 = LINE ( 'NONE', #357, #753 ) ;
#439 = APPROVAL_DATE_TIME ( #949, #1151 ) ;
#440 = SECURITY_CLASSIFICATION ( '', '', #1043 ) ;
#441 = VERTEX_POINT ( 'NONE', #705 ) ;
#442 = FACE_OUTER_BOUND ( 'NONE', #101, .T. ) ;
#443 = ADVANCED_FACE ( 'NONE', ( #221 ), #415, .F. ) ;
#444 = CIRCLE ( 'NONE', #735, 2.500000000000000444 ) ;
#445 = CIRCLE ( 'NONE', #1220, 2.500000000000000444 ) ;
#446 = CIRCLE ( 'NONE', #259, 17.00000000000000000 ) ;
#447 = ADVANCED_FACE ( 'NONE', ( #716 ), #519, .F. ) ;
#448 = FACE_OUTER_BOUND ( 'NONE', #601, .T. ) ;
#449 = CIRCLE ( 'NONE', #572, 1.249999999999999334 ) ;
#450 = CARTESIAN_POINT ( 'NONE',  ( -6.717999999999999972, 5.000000000000000000, 6.717999999999999972 ) ) ;
#451 = COORDINATED_UNIVERSAL_TIME_OFFSET ( 12, 0, .AHEAD. ) ;
#452 = VERTEX_POINT ( 'NONE', #742 ) ;
#453 = DIRECTION ( 'NONE',  ( 0.000000000000000000, 1.000000000000000000, 0.000000000000000000 ) ) ;
#454 = FACE_OUTER_BOUND ( 'NONE', #1203, .T. ) ;
#455 = LINE ( 'NONE', #1221, #936 ) ;
#456 = EDGE_CURVE ( 'NONE', #478, #137, #1137, .T. ) ;
#457 = ORIENTED_EDGE ( 'NONE', *, *, #1249, .F. ) ;
#458 = CARTESIAN_POINT ( 'NONE',  ( 5.750000000000000000, 17.49999999999999645, 12.46000000000000085 ) ) ;
#459 = DIRECTION ( 'NONE',  ( -0.000000000000000000, 1.000000000000000000, -0.000000000000000000 ) ) ;
#460 = CARTESIAN_POINT ( 'NONE',  ( 0.000000000000000000, 35.50000000000000000, 15.50000000000000000 ) ) ;
#461 = PERSON_AND_ORGANIZATION_ROLE ( 'creator' ) ;
#462 = ORIENTED_EDGE ( 'NONE', *, *, #246, .F. ) ;
#463 = DIRECTION ( 'NONE',  ( 0.000000000000000000, 1.000000000000000000, 0.000000000000000000 ) ) ;
#464 = LOCAL_TIME ( 17, 50, 23.00000000000000000, #541 ) ;
#465 = CIRCLE ( 'NONE', #1178, 1.249999999999999334 ) ;
#466 = DIRECTION ( 'NONE',  ( -0.000000000000000000, 1.000000000000000000, -0.000000000000000000 ) ) ;
#467 = VECTOR ( 'NONE', #524, 1000.000000000000000 ) ;
#468 = DIRECTION ( 'NONE',  ( 0.000000000000000000, 0.000000000000000000, 1.000000000000000000 ) ) ;
#469 = VECTOR ( 'NONE', #993, 1000.000000000000000 ) ;
#470 = CALENDAR_DATE ( 2026, 29, 9 ) ;
#471 = VECTOR ( 'NONE', #965, 1000.000000000000000 ) ;
#472 = EDGE_LOOP ( 'NONE', ( #1174, #1039, #192, #145 ) ) ;
#473 = DIRECTION ( 'NONE',  ( 0.000000000000000000, 0.000000000000000000, 1.000000000000000000 ) ) ;
#474 = CC_DESIGN_PERSON_AND_ORGANIZATION_ASSIGNMENT ( #159, #461, ( #850 ) ) ;
#475 = CARTESIAN_POINT ( 'NONE',  ( 0.000000000000000000, 19.50000000000000000, -17.00000000000000000 ) ) ;
#476 = EDGE_LOOP ( 'NONE', ( #1052, #925 ) ) ;
#477 = CARTESIAN_POINT ( 'NONE',  ( 11.50000000000000000, 17.49999999999999645, -2.500000000000000444 ) ) ;
#478 = VERTEX_POINT ( 'NONE', #947 ) ;
#479 = CARTESIAN_POINT ( 'NONE',  ( -6.717999999999999972, 5.000000000000000000, -7.967999999999999083 ) ) ;
#480 = EDGE_LOOP ( 'NONE', ( #291, #433, #378, #90 ) ) ;
#481 = CARTESIAN_POINT ( 'NONE',  ( 11.50000000000000000, 17.49999999999999645, -2.500000000000000444 ) ) ;
#482 = ORIENTED_EDGE ( 'NONE', *, *, #1141, .F. ) ;
#483 = EDGE_CURVE ( 'NONE', #984, #426, #857, .T. ) ;
#484 = ADVANCED_FACE ( 'NONE', ( #942 ), #727, .F. ) ;
#485 = DIRECTION ( 'NONE',  ( 0.000000000000000000, 0.000000000000000000, 1.000000000000000000 ) ) ;
#486 = CIRCLE ( 'NONE', #76, 2.500000000000000444 ) ;
#487 = ORIENTED_EDGE ( 'NONE', *, *, #73, .F. ) ;
#488 = DIRECTION ( 'NONE',  ( 0.000000000000000000, 0.000000000000000000, 1.000000000000000000 ) ) ;
#489 = ADVANCED_FACE ( 'NONE', ( #454 ), #329, .F. ) ;
#490 = AXIS2_PLACEMENT_3D ( 'NONE', #249, #83, #946 ) ;
#491 = ORIENTED_EDGE ( 'NONE', *, *, #785, .F. ) ;
#492 = FACE_OUTER_BOUND ( 'NONE', #809, .T. ) ;
#493 = CARTESIAN_POINT ( 'NONE',  ( 0.000000000000000000, 20.50000000000000000, 0.000000000000000000 ) ) ;
#494 = EDGE_LOOP ( 'NONE', ( #885, #768 ) ) ;
#495 = DIRECTION ( 'NONE',  ( 0.000000000000000000, 1.000000000000000000, 0.000000000000000000 ) ) ;
#496 = EDGE_LOOP ( 'NONE', ( #1071, #227, #797, #41 ) ) ;
#497 = FACE_OUTER_BOUND ( 'NONE', #319, .T. ) ;
#498 = CARTESIAN_POINT ( 'NONE',  ( 0.000000000000000000, 19.50000000000000000, 17.00000000000000000 ) ) ;
#499 = ORIENTED_EDGE ( 'NONE', *, *, #121, .F. ) ;
#500 = DIRECTION ( 'NONE',  ( 0.000000000000000000, 0.000000000000000000, 1.000000000000000000 ) ) ;
#501 = EDGE_CURVE ( 'NONE', #311, #820, #17, .T. ) ;
#502 = ORIENTED_EDGE ( 'NONE', *, *, #659, .F. ) ;
#503 = DIRECTION ( 'NONE',  ( 0.000000000000000000, -1.000000000000000000, 0.000000000000000000 ) ) ;
#504 = CARTESIAN_POINT ( 'NONE',  ( -6.717999999999999972, 5.000000000000000000, -6.717999999999999972 ) ) ;
#505 = ORGANIZATION ( 'UNSPECIFIED', 'UNSPECIFIED', '' ) ;
#506 = ORIENTED_EDGE ( 'NONE', *, *, #828, .T. ) ;
#507 = CIRCLE ( 'NONE', #134, 4.000000000000000000 ) ;
#508 = DIRECTION ( 'NONE',  ( 0.000000000000000000, 0.000000000000000000, 1.000000000000000000 ) ) ;
#509 = AXIS2_PLACEMENT_3D ( 'NONE', #1192, #324, #1107 ) ;
#510 = ORIENTED_EDGE ( 'NONE', *, *, #620, .T. ) ;
#511 = DIRECTION ( 'NONE',  ( 0.000000000000000000, 0.000000000000000000, 1.000000000000000000 ) ) ;
#512 = CIRCLE ( 'NONE', #573, 2.500000000000000444 ) ;
#513 = CC_DESIGN_PERSON_AND_ORGANIZATION_ASSIGNMENT ( #853, #564, ( #440 ) ) ;
#514 = DIRECTION ( 'NONE',  ( 0.000000000000000000, -0.000000000000000000, 1.000000000000000000 ) ) ;
#515 = ORIENTED_EDGE ( 'NONE', *, *, #764, .F. ) ;
#516 = LINE ( 'NONE', #1095, #80 ) ;
#517 = VERTEX_POINT ( 'NONE', #634 ) ;
#518 = CARTESIAN_POINT ( 'NONE',  ( 5.750000000000000000, 20.50000000000000000, 9.960000000000000853 ) ) ;
#519 = CYLINDRICAL_SURFACE ( 'NONE', #57, 2.500000000000000444 ) ;
#520 = CARTESIAN_POINT ( 'NONE',  ( -11.50000000000000000, 20.50000000000000000, 2.500000000000000444 ) ) ;
#521 = ORIENTED_EDGE ( 'NONE', *, *, #1075, .T. ) ;
#522 = DIRECTION ( 'NONE',  ( 0.000000000000000000, 0.000000000000000000, -1.000000000000000000 ) ) ;
#523 = EDGE_CURVE ( 'NONE', #871, #907, #709, .T. ) ;
#524 = DIRECTION ( 'NONE',  ( -0.000000000000000000, 1.000000000000000000, -0.000000000000000000 ) ) ;
#525 = EDGE_CURVE ( 'NONE', #813, #224, #136, .T. ) ;
#526 = DIRECTION ( 'NONE',  ( 0.000000000000000000, -1.000000000000000000, 0.000000000000000000 ) ) ;
#527 = DIRECTION ( 'NONE',  ( 1.000000000000000000, 0.000000000000000000, 0.000000000000000000 ) ) ;
#528 = ADVANCED_FACE ( 'NONE', ( #431 ), #1118, .T. ) ;
#529 = ORIENTED_EDGE ( 'NONE', *, *, #683, .F. ) ;
#530 = DIRECTION ( 'NONE',  ( 0.000000000000000000, 1.000000000000000000, 0.000000000000000000 ) ) ;
#531 = VECTOR ( 'NONE', #388, 1000.000000000000114 ) ;
#532 = AXIS2_PLACEMENT_3D ( 'NONE', #155, #142, #922 ) ;
#533 = AXIS2_PLACEMENT_3D ( 'NONE', #323, #915, #1197 ) ;
#534 = DIRECTION ( 'NONE',  ( 0.000000000000000000, 0.000000000000000000, -1.000000000000000000 ) ) ;
#535 = EDGE_LOOP ( 'NONE', ( #502, #44 ) ) ;
#536 = LINE ( 'NONE', #310, #402 ) ;
#537 = ORIENTED_EDGE ( 'NONE', *, *, #201, .T. ) ;
#538 = LINE ( 'NONE', #932, #756 ) ;
#539 = CARTESIAN_POINT ( 'NONE',  ( -6.717999999999999972, 5.000000000000000000, -6.717999999999999972 ) ) ;
#540 = DIRECTION ( 'NONE',  ( -0.000000000000000000, 1.000000000000000000, -0.000000000000000000 ) ) ;
#541 = COORDINATED_UNIVERSAL_TIME_OFFSET ( 12, 0, .AHEAD. ) ;
#542 = ADVANCED_FACE ( 'NONE', ( #1218, #238, #165, #1031, #135, #822, #1127, #933 ), #1234, .F. ) ;
#543 = ORIENTED_EDGE ( 'NONE', *, *, #1208, .F. ) ;
#544 = DIRECTION ( 'NONE',  ( 0.000000000000000000, 1.000000000000000000, 0.000000000000000000 ) ) ;
#545 = ADVANCED_FACE ( 'NONE', ( #448 ), #552, .T. ) ;
#546 = DIRECTION ( 'NONE',  ( 0.000000000000000000, 1.000000000000000000, 0.000000000000000000 ) ) ;
#547 = CYLINDRICAL_SURFACE ( 'NONE', #730, 2.500000000000000000 ) ;
#548 = ORIENTED_EDGE ( 'NONE', *, *, #863, .T. ) ;
#549 = DIRECTION ( 'NONE',  ( -0.000000000000000000, 1.000000000000000000, -0.000000000000000000 ) ) ;
#550 = AXIS2_PLACEMENT_3D ( 'NONE', #662, #81, #1059 ) ;
#551 = AXIS2_PLACEMENT_3D ( 'NONE', #1074, #170, #511 ) ;
#552 = CYLINDRICAL_SURFACE ( 'NONE', #422, 4.000000000000000000 ) ;
#553 = DIRECTION ( 'NONE',  ( 0.000000000000000000, -0.000000000000000000, 1.000000000000000000 ) ) ;
#554 = CALENDAR_DATE ( 2026, 29, 9 ) ;
#555 = EDGE_LOOP ( 'NONE', ( #1078, #648, #407, #1094 ) ) ;
#556 = CARTESIAN_POINT ( 'NONE',  ( -5.750000000000000000, 17.49999999999999645, 12.46000000000000085 ) ) ;
#557 = DIRECTION ( 'NONE',  ( -0.000000000000000000, 1.000000000000000000, -0.000000000000000000 ) ) ;
#558 = CARTESIAN_POINT ( 'NONE',  ( -6.717999999999999972, 0.000000000000000000, -6.717999999999999972 ) ) ;
#559 = EDGE_LOOP ( 'NONE', ( #521, #995, #207, #731 ) ) ;
#560 = CARTESIAN_POINT ( 'NONE',  ( 11.50000000000000000, 20.50000000000000000, 2.500000000000000444 ) ) ;
#561 = DIRECTION ( 'NONE',  ( 0.000000000000000000, -1.000000000000000000, 0.000000000000000000 ) ) ;
#562 = EDGE_CURVE ( 'NONE', #405, #295, #960, .T. ) ;
#563 = CARTESIAN_POINT ( 'NONE',  ( -5.750000000000000000, 20.50000000000000000, 7.459999999999999964 ) ) ;
#564 = PERSON_AND_ORGANIZATION_ROLE ( 'classification_officer' ) ;
#565 = ORIENTED_EDGE ( 'NONE', *, *, #1038, .F. ) ;
#566 = CYLINDRICAL_SURFACE ( 'NONE', #734, 2.500000000000000444 ) ;
#567 = CC_DESIGN_DATE_AND_TIME_ASSIGNMENT ( #58, #362, ( #850 ) ) ;
#568 = AXIS2_PLACEMENT_3D ( 'NONE', #297, #110, #1156 ) ;
#569 = AXIS2_PLACEMENT_3D ( 'NONE', #493, #576, #972 ) ;
#570 = AXIS2_PLACEMENT_3D ( 'NONE', #1132, #546, #345 ) ;
#571 = DIRECTION ( 'NONE',  ( 0.000000000000000000, 1.000000000000000000, 0.000000000000000000 ) ) ;
#572 = AXIS2_PLACEMENT_3D ( 'NONE', #578, #187, #991 ) ;
#573 = AXIS2_PLACEMENT_3D ( 'NONE', #794, #597, #1261 ) ;
#574 = ORIENTED_EDGE ( 'NONE', *, *, #579, .T. ) ;
#575 = CARTESIAN_POINT ( 'NONE',  ( -6.717999999999999972, 5.000000000000000000, 7.967999999999999083 ) ) ;
#576 = DIRECTION ( 'NONE',  ( -0.000000000000000000, 1.000000000000000000, -0.000000000000000000 ) ) ;
#577 = ORIENTED_EDGE ( 'NONE', *, *, #683, .T. ) ;
#578 = CARTESIAN_POINT ( 'NONE',  ( 6.717999999999999972, 0.000000000000000000, -6.717999999999999972 ) ) ;
#579 = EDGE_CURVE ( 'NONE', #630, #168, #245, .T. ) ;
#580 = ORIENTED_EDGE ( 'NONE', *, *, #348, .F. ) ;
#581 = DIRECTION ( 'NONE',  ( 0.000000000000000000, 0.000000000000000000, 1.000000000000000000 ) ) ;
#582 = ORIENTED_EDGE ( 'NONE', *, *, #330, .T. ) ;
#583 = DIRECTION ( 'NONE',  ( -0.000000000000000000, 1.000000000000000000, -0.000000000000000000 ) ) ;
#584 = ORIENTED_EDGE ( 'NONE', *, *, #696, .T. ) ;
#585 = DIRECTION ( 'NONE',  ( 0.000000000000000000, 0.000000000000000000, 1.000000000000000000 ) ) ;
#586 = DIRECTION ( 'NONE',  ( 0.000000000000000000, 0.000000000000000000, 1.000000000000000000 ) ) ;
#587 = AXIS2_PLACEMENT_3D ( 'NONE', #1162, #1077, #581 ) ;
#588 = ADVANCED_FACE ( 'NONE', ( #148 ), #839, .T. ) ;
#589 = AXIS2_PLACEMENT_3D ( 'NONE', #888, #998, #286 ) ;
#590 = ORIENTED_EDGE ( 'NONE', *, *, #882, .F. ) ;
#591 = CARTESIAN_POINT ( 'NONE',  ( -6.717999999999999972, 0.000000000000000000, -7.967999999999999083 ) ) ;
#592 = AXIS2_PLACEMENT_3D ( 'NONE', #518, #414, #429 ) ;
#593 = ORIENTED_EDGE ( 'NONE', *, *, #927, .F. ) ;
#594 = DIRECTION ( 'NONE',  ( 0.000000000000000000, -1.000000000000000000, 0.000000000000000000 ) ) ;
#595 = CYLINDRICAL_SURFACE ( 'NONE', #810, 2.500000000000000444 ) ;
#596 = EDGE_LOOP ( 'NONE', ( #104, #304, #565, #457 ) ) ;
#597 = DIRECTION ( 'NONE',  ( 0.000000000000000000, -1.000000000000000000, 0.000000000000000000 ) ) ;
#598 = ORIENTED_EDGE ( 'NONE', *, *, #1257, .T. ) ;
#599 = CARTESIAN_POINT ( 'NONE',  ( 5.750000000000000000, 17.49999999999999645, -12.46000000000000085 ) ) ;
#600 = CARTESIAN_POINT ( 'NONE',  ( -5.750000000000000000, 20.50000000000000000, -9.960000000000000853 ) ) ;
#601 = EDGE_LOOP ( 'NONE', ( #543, #724, #322, #1196 ) ) ;
#602 = DIRECTION ( 'NONE',  ( 0.000000000000000000, 1.000000000000000000, 0.000000000000000000 ) ) ;
#603 = EDGE_LOOP ( 'NONE', ( #88, #243, #1252, #196 ) ) ;
#604 = DIRECTION ( 'NONE',  ( -0.000000000000000000, 1.000000000000000000, -0.000000000000000000 ) ) ;
#605 = EDGE_CURVE ( 'NONE', #643, #1108, #835, .T. ) ;
#606 = CARTESIAN_POINT ( 'NONE',  ( 11.50000000000000000, 20.50000000000000000, -2.500000000000000444 ) ) ;
#607 = AXIS2_PLACEMENT_3D ( 'NONE', #278, #583, #892 ) ;
#608 = EDGE_LOOP ( 'NONE', ( #118, #614 ) ) ;
#609 = EDGE_CURVE ( 'NONE', #823, #359, #678, .T. ) ;
#610 = CIRCLE ( 'NONE', #179, 2.500000000000000444 ) ;
#611 = ORIENTED_EDGE ( 'NONE', *, *, #668, .F. ) ;
#612 = DIRECTION ( 'NONE',  ( 0.000000000000000000, 0.000000000000000000, 1.000000000000000000 ) ) ;
#613 = DIRECTION ( 'NONE',  ( -0.000000000000000000, 1.000000000000000000, -0.000000000000000000 ) ) ;
#614 = ORIENTED_EDGE ( 'NONE', *, *, #1243, .T. ) ;
#615 = CARTESIAN_POINT ( 'NONE',  ( 0.000000000000000000, 35.50000000000000000, 0.000000000000000000 ) ) ;
#616 = VERTEX_POINT ( 'NONE', #988 ) ;
#617 = DIRECTION ( 'NONE',  ( 0.000000000000000000, -1.000000000000000000, 0.000000000000000000 ) ) ;
#618 = EDGE_CURVE ( 'NONE', #873, #370, #337, .T. ) ;
#619 = DIRECTION ( 'NONE',  ( -0.000000000000000000, 1.000000000000000000, -0.000000000000000000 ) ) ;
#620 = EDGE_CURVE ( 'NONE', #1069, #212, #781, .T. ) ;
#621 = EDGE_LOOP ( 'NONE', ( #131, #1171 ) ) ;
#622 = DIRECTION ( 'NONE',  ( -0.000000000000000000, 1.000000000000000000, -0.000000000000000000 ) ) ;
#623 = EDGE_LOOP ( 'NONE', ( #537, #691 ) ) ;
#624 = DIRECTION ( 'NONE',  ( 0.000000000000000000, 0.000000000000000000, 1.000000000000000000 ) ) ;
#625 = FACE_OUTER_BOUND ( 'NONE', #608, .T. ) ;
#626 = ORIENTED_EDGE ( 'NONE', *, *, #1111, .T. ) ;
#627 = FACE_BOUND ( 'NONE', #535, .T. ) ;
#628 = LOCAL_TIME ( 17, 50, 23.00000000000000000, #451 ) ;
#629 = CIRCLE ( 'NONE', #396, 15.50000000000000000 ) ;
#630 = VERTEX_POINT ( 'NONE', #1054 ) ;
#631 = DIRECTION ( 'NONE',  ( 0.000000000000000000, 0.000000000000000000, 1.000000000000000000 ) ) ;
#632 = AXIS2_PLACEMENT_3D ( 'NONE', #754, #263, #736 ) ;
#633 = CIRCLE ( 'NONE', #394, 2.500000000000000000 ) ;
#634 = CARTESIAN_POINT ( 'NONE',  ( 4.898587196589412829E-16, 22.50000000000000000, -4.000000000000000000 ) ) ;
#635 = EDGE_CURVE ( 'NONE', #823, #990, #95, .T. ) ;
#636 = DIRECTION ( 'NONE',  ( -0.000000000000000000, 1.000000000000000000, -0.000000000000000000 ) ) ;
#637 = DIRECTION ( 'NONE',  ( 0.000000000000000000, 1.000000000000000000, 0.000000000000000000 ) ) ;
#638 = ADVANCED_FACE ( 'NONE', ( #1172 ), #408, .F. ) ;
#639 = ORIENTED_EDGE ( 'NONE', *, *, #966, .F. ) ;
#640 = PLANE ( 'NONE',  #115 ) ;
#641 = CARTESIAN_POINT ( 'NONE',  ( -11.50000000000000000, 17.49999999999999645, -2.500000000000000444 ) ) ;
#642 = PLANE ( 'NONE',  #896 ) ;
#643 = VERTEX_POINT ( 'NONE', #1191 ) ;
#644 = FACE_OUTER_BOUND ( 'NONE', #65, .T. ) ;
#645 = EDGE_CURVE ( 'NONE', #1103, #253, #687, .T. ) ;
#646 = CARTESIAN_POINT ( 'NONE',  ( 16.00000000000000000, 20.50000000000000000, 0.000000000000000000 ) ) ;
#647 = DIRECTION ( 'NONE',  ( 0.000000000000000000, 0.000000000000000000, 1.000000000000000000 ) ) ;
#648 = ORIENTED_EDGE ( 'NONE', *, *, #246, .T. ) ;
#649 = DIRECTION ( 'NONE',  ( -0.000000000000000000, 1.000000000000000000, -0.000000000000000000 ) ) ;
#650 = ADVANCED_FACE ( 'NONE', ( #492 ), #112, .F. ) ;
#651 = AXIS2_PLACEMENT_3D ( 'NONE', #865, #1250, #185 ) ;
#652 = DIRECTION ( 'NONE',  ( 0.000000000000000000, 1.000000000000000000, 0.000000000000000000 ) ) ;
#653 = FACE_OUTER_BOUND ( 'NONE', #956, .T. ) ;
#654 = EDGE_LOOP ( 'NONE', ( #363, #216 ) ) ;
#655 = CYLINDRICAL_SURFACE ( 'NONE', #859, 2.500000000000000444 ) ;
#656 = EDGE_CURVE ( 'NONE', #441, #248, #881, .T. ) ;
#657 = CARTESIAN_POINT ( 'NONE',  ( 6.717999999999999972, 5.000000000000000000, -6.717999999999999972 ) ) ;
#658 = FACE_OUTER_BOUND ( 'NONE', #891, .T. ) ;
#659 = EDGE_CURVE ( 'NONE', #893, #248, #939, .T. ) ;
#660 = ORIENTED_EDGE ( 'NONE', *, *, #1136, .F. ) ;
#661 = CARTESIAN_POINT ( 'NONE',  ( -5.750000000000000000, 17.49999999999999645, -7.459999999999999964 ) ) ;
#662 = CARTESIAN_POINT ( 'NONE',  ( 5.750000000000000000, 20.50000000000000000, -9.960000000000000853 ) ) ;
#663 = PERSON_AND_ORGANIZATION_ROLE ( 'creator' ) ;
#664 = ORIENTED_EDGE ( 'NONE', *, *, #330, .F. ) ;
#665 = FACE_OUTER_BOUND ( 'NONE', #25, .T. ) ;
#666 = CIRCLE ( 'NONE', #769, 1.249999999999999334 ) ;
#667 = AXIS2_PLACEMENT_3D ( 'NONE', #657, #437, #534 ) ;
#668 = EDGE_CURVE ( 'NONE', #232, #327, #486, .T. ) ;
#669 = LINE ( 'NONE', #475, #257 ) ;
#670 = APPROVAL_PERSON_ORGANIZATION ( #1033, #789, #1146 ) ;
#671 = ADVANCED_FACE ( 'NONE', ( #497 ), #812, .T. ) ;
#672 = EDGE_LOOP ( 'NONE', ( #1, #333 ) ) ;
#673 = CARTESIAN_POINT ( 'NONE',  ( 6.717999999999999972, 5.000000000000000000, -6.717999999999999972 ) ) ;
#674 = ORIENTED_EDGE ( 'NONE', *, *, #1235, .T. ) ;
#675 = CARTESIAN_POINT ( 'NONE',  ( 0.000000000000000000, 35.50000000000000000, 2.500000000000000000 ) ) ;
#676 = EDGE_LOOP ( 'NONE', ( #931, #1011 ) ) ;
#677 = CARTESIAN_POINT ( 'NONE',  ( 0.000000000000000000, 35.50000000000000000, 0.000000000000000000 ) ) ;
#678 = LINE ( 'NONE', #392, #1003 ) ;
#679 = FACE_OUTER_BOUND ( 'NONE', #596, .T. ) ;
#680 = VERTEX_POINT ( 'NONE', #3 ) ;
#681 = CARTESIAN_POINT ( 'NONE',  ( 2.500000000000000000, 35.50000000000000000, 0.000000000000000000 ) ) ;
#682 = EDGE_LOOP ( 'NONE', ( #71, #702, #1023, #233 ) ) ;
#683 = EDGE_CURVE ( 'NONE', #1260, #887, #1200, .T. ) ;
#684 = CARTESIAN_POINT ( 'NONE',  ( -5.750000000000000000, 17.49999999999999645, -9.960000000000000853 ) ) ;
#685 = FACE_OUTER_BOUND ( 'NONE', #1263, .T. ) ;
#686 = VECTOR ( 'NONE', #852, 1000.000000000000000 ) ;
#687 = CIRCLE ( 'NONE', #551, 16.00000000000000000 ) ;
#688 = ORIENTED_EDGE ( 'NONE', *, *, #710, .T. ) ;
#689 = DIRECTION ( 'NONE',  ( -0.000000000000000000, 1.000000000000000000, -0.000000000000000000 ) ) ;
#690 = AXIS2_PLACEMENT_3D ( 'NONE', #66, #463, #61 ) ;
#691 = ORIENTED_EDGE ( 'NONE', *, *, #645, .T. ) ;
#692 = LINE ( 'NONE', #599, #469 ) ;
#693 = DIRECTION ( 'NONE',  ( 0.000000000000000000, -1.000000000000000000, 0.000000000000000000 ) ) ;
#694 = VERTEX_POINT ( 'NONE', #1176 ) ;
#695 = CYLINDRICAL_SURFACE ( 'NONE', #335, 2.500000000000000444 ) ;
#696 = EDGE_CURVE ( 'NONE', #417, #973, #38, .T. ) ;
#697 = EDGE_LOOP ( 'NONE', ( #639, #1183, #582, #923 ) ) ;
#698 = CARTESIAN_POINT ( 'NONE',  ( 6.717999999999999972, 5.000000000000000000, -5.468000000000000860 ) ) ;
#699 = DIRECTION ( 'NONE',  ( 0.000000000000000000, 1.000000000000000000, 0.000000000000000000 ) ) ;
#700 = ORIENTED_EDGE ( 'NONE', *, *, #19, .F. ) ;
#701 = CARTESIAN_POINT ( 'NONE',  ( -5.750000000000000000, 20.50000000000000000, 9.960000000000000853 ) ) ;
#702 = ORIENTED_EDGE ( 'NONE', *, *, #1208, .T. ) ;
#703 = DIRECTION ( 'NONE',  ( -0.000000000000000000, 1.000000000000000000, -0.000000000000000000 ) ) ;
#704 = APPROVAL_PERSON_ORGANIZATION ( #1223, #280, #342 ) ;
#705 = CARTESIAN_POINT ( 'NONE',  ( 6.717999999999999972, 5.000000000000000000, -5.468000000000000860 ) ) ;
#706 = EDGE_CURVE ( 'NONE', #680, #271, #692, .T. ) ;
#707 = ORIENTED_EDGE ( 'NONE', *, *, #501, .T. ) ;
#708 = AXIS2_PLACEMENT_3D ( 'NONE', #450, #258, #241 ) ;
#709 = CIRCLE ( 'NONE', #1246, 15.50000000000000000 ) ;
#710 = EDGE_CURVE ( 'NONE', #22, #229, #1264, .T. ) ;
#711 = ORIENTED_EDGE ( 'NONE', *, *, #1064, .T. ) ;
#712 = CARTESIAN_POINT ( 'NONE',  ( -6.717999999999999972, 5.000000000000000000, 6.717999999999999972 ) ) ;
#713 = CIRCLE ( 'NONE', #983, 2.500000000000000444 ) ;
#714 = APPLICATION_CONTEXT ( 'configuration controlled 3d designs of mechanical parts and assemblies' ) ;
#715 = EDGE_CURVE ( 'NONE', #370, #873, #877, .T. ) ;
#716 = FACE_OUTER_BOUND ( 'NONE', #480, .T. ) ;
#717 = CARTESIAN_POINT ( 'NONE',  ( -6.717999999999999972, 0.000000000000000000, 7.967999999999999083 ) ) ;
#718 = MECHANICAL_CONTEXT ( 'NONE', #962, 'mechanical' ) ;
#719 = ORIENTED_EDGE ( 'NONE', *, *, #802, .T. ) ;
#720 = CARTESIAN_POINT ( 'NONE',  ( -6.717999999999999972, 0.000000000000000000, 6.717999999999999972 ) ) ;
#721 = EDGE_CURVE ( 'NONE', #973, #417, #377, .T. ) ;
#722 = DIRECTION ( 'NONE',  ( 0.000000000000000000, -1.000000000000000000, 0.000000000000000000 ) ) ;
#723 = ORIENTED_EDGE ( 'NONE', *, *, #70, .T. ) ;
#724 = ORIENTED_EDGE ( 'NONE', *, *, #726, .T. ) ;
#725 = LINE ( 'NONE', #1207, #815 ) ;
#726 = EDGE_CURVE ( 'NONE', #992, #214, #183, .T. ) ;
#727 = CYLINDRICAL_SURFACE ( 'NONE', #667, 1.249999999999999334 ) ;
#728 = DIRECTION ( 'NONE',  ( 0.000000000000000000, 1.000000000000000000, 0.000000000000000000 ) ) ;
#729 = DIRECTION ( 'NONE',  ( 0.000000000000000000, 0.000000000000000000, 1.000000000000000000 ) ) ;
#730 = AXIS2_PLACEMENT_3D ( 'NONE', #757, #540, #647 ) ;
#731 = ORIENTED_EDGE ( 'NONE', *, *, #1235, .F. ) ;
#732 = CARTESIAN_POINT ( 'NONE',  ( -5.750000000000000000, 20.50000000000000000, 9.960000000000000853 ) ) ;
#733 = AXIS2_PLACEMENT_3D ( 'NONE', #646, #1240, #1144 ) ;
#734 = AXIS2_PLACEMENT_3D ( 'NONE', #957, #78, #473 ) ;
#735 = AXIS2_PLACEMENT_3D ( 'NONE', #879, #2, #886 ) ;
#736 = DIRECTION ( 'NONE',  ( 0.000000000000000000, 0.000000000000000000, -1.000000000000000000 ) ) ;
#737 = DIRECTION ( 'NONE',  ( -0.000000000000000000, 1.000000000000000000, -0.000000000000000000 ) ) ;
#738 = APPROVAL_DATE_TIME ( #265, #280 ) ;
#739 = ADVANCED_FACE ( 'NONE', ( #442 ), #1008, .F. ) ;
#740 = ORIENTED_EDGE ( 'NONE', *, *, #816, .F. ) ;
#741 = DIRECTION ( 'NONE',  ( 0.000000000000000000, -1.000000000000000000, 0.000000000000000000 ) ) ;
#742 = CARTESIAN_POINT ( 'NONE',  ( -5.750000000000000000, 17.49999999999999645, -12.46000000000000085 ) ) ;
#743 = DIRECTION ( 'NONE',  ( 0.000000000000000000, 0.000000000000000000, 1.000000000000000000 ) ) ;
#744 = ORIENTED_EDGE ( 'NONE', *, *, #29, .T. ) ;
#745 = CYLINDRICAL_SURFACE ( 'NONE', #79, 2.500000000000000444 ) ;
#746 = MANIFOLD_SOLID_BREP ( 'Cut-Extrude3', #1001 ) ;
#747 = CARTESIAN_POINT ( 'NONE',  ( -5.750000000000000000, 17.49999999999999645, 9.960000000000000853 ) ) ;
#748 = CARTESIAN_POINT ( 'NONE',  ( 0.000000000000000000, 35.50000000000000000, 0.000000000000000000 ) ) ;
#749 = ADVANCED_FACE ( 'NONE', ( #47 ), #640, .F. ) ;
#750 = EDGE_LOOP ( 'NONE', ( #976, #99, #109, #805 ) ) ;
#751 = DIRECTION ( 'NONE',  ( 0.000000000000000000, 0.000000000000000000, -1.000000000000000000 ) ) ;
#752 = EDGE_CURVE ( 'NONE', #907, #370, #725, .T. ) ;
#753 = VECTOR ( 'NONE', #264, 1000.000000000000000 ) ;
#754 = CARTESIAN_POINT ( 'NONE',  ( 5.750000000000000000, 20.50000000000000000, 9.960000000000000853 ) ) ;
#755 = EDGE_CURVE ( 'NONE', #517, #1159, #317, .T. ) ;
#756 = VECTOR ( 'NONE', #1097, 1000.000000000000000 ) ;
#757 = CARTESIAN_POINT ( 'NONE',  ( 0.000000000000000000, 35.50000000000000000, 0.000000000000000000 ) ) ;
#758 = PERSON_AND_ORGANIZATION_ROLE ( 'design_supplier' ) ;
#759 = ORIENTED_EDGE ( 'NONE', *, *, #1136, .T. ) ;
#760 = LINE ( 'NONE', #661, #1102 ) ;
#761 = CARTESIAN_POINT ( 'NONE',  ( 6.717999999999999972, 0.000000000000000000, -5.468000000000000860 ) ) ;
#762 = EDGE_LOOP ( 'NONE', ( #1216, #700 ) ) ;
#763 = FACE_OUTER_BOUND ( 'NONE', #555, .T. ) ;
#764 = EDGE_CURVE ( 'NONE', #630, #775, #423, .T. ) ;
#765 = CARTESIAN_POINT ( 'NONE',  ( -11.50000000000000000, 17.49999999999999645, 0.000000000000000000 ) ) ;
#766 = ORIENTED_EDGE ( 'NONE', *, *, #1257, .F. ) ;
#767 = FACE_OUTER_BOUND ( 'NONE', #383, .T. ) ;
#768 = ORIENTED_EDGE ( 'NONE', *, *, #256, .T. ) ;
#769 = AXIS2_PLACEMENT_3D ( 'NONE', #673, #495, #91 ) ;
#770 = AXIS2_PLACEMENT_3D ( 'NONE', #366, #195, #586 ) ;
#771 = CARTESIAN_POINT ( 'NONE',  ( 6.717999999999999972, 5.000000000000000000, -6.717999999999999972 ) ) ;
#772 = AXIS2_PLACEMENT_3D ( 'NONE', #814, #544, #910 ) ;
#773 = ORIENTED_EDGE ( 'NONE', *, *, #380, .F. ) ;
#774 = CARTESIAN_POINT ( 'NONE',  ( 11.50000000000000000, 17.49999999999999645, 0.000000000000000000 ) ) ;
#775 = VERTEX_POINT ( 'NONE', #1029 ) ;
#776 = DIRECTION ( 'NONE',  ( 0.000000000000000000, 1.000000000000000000, 0.000000000000000000 ) ) ;
#777 = CARTESIAN_POINT ( 'NONE',  ( 0.000000000000000000, 20.50000000000000000, 4.000000000000000000 ) ) ;
#778 = EDGE_CURVE ( 'NONE', #478, #1069, #792, .T. ) ;
#779 = ORIENTED_EDGE ( 'NONE', *, *, #523, .F. ) ;
#780 = FACE_OUTER_BOUND ( 'NONE', #125, .T. ) ;
#781 = LINE ( 'NONE', #312, #1065 ) ;
#782 = LINE ( 'NONE', #1083, #1262 ) ;
#783 = EDGE_LOOP ( 'NONE', ( #186, #1061, #510, #1152 ) ) ;
#784 = FACE_OUTER_BOUND ( 'NONE', #1057, .T. ) ;
#785 = EDGE_CURVE ( 'NONE', #1034, #680, #202, .T. ) ;
#786 = CARTESIAN_POINT ( 'NONE',  ( 0.000000000000000000, 3.000000000000002665, 0.000000000000000000 ) ) ;
#787 = LOCAL_TIME ( 17, 50, 23.00000000000000000, #1251 ) ;
#788 = CIRCLE ( 'NONE', #1022, 2.500000000000000444 ) ;
#789 = APPROVAL ( #824, 'UNSPECIFIED' ) ;
#790 = DIRECTION ( 'NONE',  ( 0.000000000000000000, -0.000000000000000000, 1.000000000000000000 ) ) ;
#791 = VECTOR ( 'NONE', #459, 1000.000000000000000 ) ;
#792 = CIRCLE ( 'NONE', #260, 2.500000000000000000 ) ;
#793 = VERTEX_POINT ( 'NONE', #316 ) ;
#794 = CARTESIAN_POINT ( 'NONE',  ( 5.750000000000000000, 20.50000000000000000, -9.960000000000000853 ) ) ;
#795 = DIRECTION ( 'NONE',  ( 0.000000000000000000, 0.000000000000000000, 1.000000000000000000 ) ) ;
#796 = CARTESIAN_POINT ( 'NONE',  ( 6.717999999999999972, 5.000000000000000000, 6.717999999999999972 ) ) ;
#797 = ORIENTED_EDGE ( 'NONE', *, *, #618, .F. ) ;
#798 = DIRECTION ( 'NONE',  ( 0.000000000000000000, 0.000000000000000000, 1.000000000000000000 ) ) ;
#799 = ORIENTED_EDGE ( 'NONE', *, *, #838, .F. ) ;
#800 = DIRECTION ( 'NONE',  ( 0.000000000000000000, 0.000000000000000000, 1.000000000000000000 ) ) ;
#801 = CARTESIAN_POINT ( 'NONE',  ( 0.000000000000000000, 19.50000000000000000, 0.000000000000000000 ) ) ;
#802 = EDGE_CURVE ( 'NONE', #229, #22, #220, .T. ) ;
#803 = CARTESIAN_POINT ( 'NONE',  ( -11.50000000000000000, 20.50000000000000000, 0.000000000000000000 ) ) ;
#804 = FACE_BOUND ( 'NONE', #428, .T. ) ;
#805 = ORIENTED_EDGE ( 'NONE', *, *, #380, .T. ) ;
#806 = CARTESIAN_POINT ( 'NONE',  ( -6.717999999999999972, 5.000000000000000000, 6.717999999999999972 ) ) ;
#807 = CC_DESIGN_APPROVAL ( #280, ( #440 ) ) ;
#808 = CARTESIAN_POINT ( 'NONE',  ( 5.750000000000000000, 17.49999999999999645, -9.960000000000000853 ) ) ;
#809 = EDGE_LOOP ( 'NONE', ( #21, #660 ) ) ;
#810 = AXIS2_PLACEMENT_3D ( 'NONE', #1168, #176, #485 ) ;
#811 = CYLINDRICAL_SURFACE ( 'NONE', #1157, 4.000000000000000000 ) ;
#812 = CONICAL_SURFACE ( 'NONE', #589, 17.00000000000000000, 0.7853981633974482790 ) ;
#813 = VERTEX_POINT ( 'NONE', #28 ) ;
#814 = CARTESIAN_POINT ( 'NONE',  ( 5.750000000000000000, 17.49999999999999645, -9.960000000000000853 ) ) ;
#815 = VECTOR ( 'NONE', #234, 1000.000000000000000 ) ;
#816 = EDGE_CURVE ( 'NONE', #452, #224, #538, .T. ) ;
#817 = DIRECTION ( 'NONE',  ( 0.000000000000000000, 0.000000000000000000, 1.000000000000000000 ) ) ;
#818 = ORIENTED_EDGE ( 'NONE', *, *, #882, .T. ) ;
#819 = DIRECTION ( 'NONE',  ( 0.000000000000000000, 0.000000000000000000, 1.000000000000000000 ) ) ;
#820 = VERTEX_POINT ( 'NONE', #122 ) ;
#821 = DIRECTION ( 'NONE',  ( 0.000000000000000000, -0.000000000000000000, 1.000000000000000000 ) ) ;
#822 = FACE_BOUND ( 'NONE', #494, .T. ) ;
#823 = VERTEX_POINT ( 'NONE', #1212 ) ;
#824 = APPROVAL_STATUS ( 'not_yet_approved' ) ;
#825 = ORIENTED_EDGE ( 'NONE', *, *, #966, .T. ) ;
#826 = DIRECTION ( 'NONE',  ( -0.000000000000000000, 1.000000000000000000, -0.000000000000000000 ) ) ;
#827 = CARTESIAN_POINT ( 'NONE',  ( -5.750000000000000000, 20.50000000000000000, -9.960000000000000853 ) ) ;
#828 = EDGE_CURVE ( 'NONE', #198, #34, #713, .T. ) ;
#829 = DIRECTION ( 'NONE',  ( -0.000000000000000000, 1.000000000000000000, -0.000000000000000000 ) ) ;
#830 = PERSON_AND_ORGANIZATION ( #141, #505 ) ;
#831 = AXIS2_PLACEMENT_3D ( 'NONE', #1109, #45, #527 ) ;
#832 = CIRCLE ( 'NONE', #218, 2.500000000000000444 ) ;
#833 = ORIENTED_EDGE ( 'NONE', *, *, #164, .F. ) ;
#834 = DIRECTION ( 'NONE',  ( -0.000000000000000000, 1.000000000000000000, -0.000000000000000000 ) ) ;
#835 = CIRCLE ( 'NONE', #276, 2.500000000000000444 ) ;
#836 = CIRCLE ( 'NONE', #690, 2.500000000000000444 ) ;
#837 = AXIS2_PLACEMENT_3D ( 'NONE', #974, #602, #500 ) ;
#838 = EDGE_CURVE ( 'NONE', #1169, #1134, #1004, .T. ) ;
#839 = PLANE ( 'NONE',  #980 ) ;
#840 = DIRECTION ( 'NONE',  ( 0.000000000000000000, 1.000000000000000000, 0.000000000000000000 ) ) ;
#841 = APPROVAL_ROLE ( '' ) ;
#842 = EDGE_LOOP ( 'NONE', ( #779, #139 ) ) ;
#843 = CYLINDRICAL_SURFACE ( 'NONE', #39, 1.249999999999999334 ) ;
#844 = DIRECTION ( 'NONE',  ( 0.000000000000000000, -0.000000000000000000, 1.000000000000000000 ) ) ;
#845 = EDGE_CURVE ( 'NONE', #1125, #945, #1202, .T. ) ;
#846 = FACE_OUTER_BOUND ( 'NONE', #603, .T. ) ;
#847 = EDGE_CURVE ( 'NONE', #820, #311, #18, .T. ) ;
#848 = ORIENTED_EDGE ( 'NONE', *, *, #816, .T. ) ;
#849 = FACE_OUTER_BOUND ( 'NONE', #880, .T. ) ;
#850 = PRODUCT_DEFINITION ( 'UNKNOWN', '', #294, #999 ) ;
#851 = DIRECTION ( 'NONE',  ( 0.000000000000000000, 1.000000000000000000, 0.000000000000000000 ) ) ;
#852 = DIRECTION ( 'NONE',  ( -0.000000000000000000, 1.000000000000000000, -0.000000000000000000 ) ) ;
#853 = PERSON_AND_ORGANIZATION ( #141, #505 ) ;
#854 = ORIENTED_EDGE ( 'NONE', *, *, #609, .F. ) ;
#855 = CARTESIAN_POINT ( 'NONE',  ( -6.717999999999999972, 5.000000000000000000, 6.717999999999999972 ) ) ;
#856 = VECTOR ( 'NONE', #722, 1000.000000000000000 ) ;
#857 = CIRCLE ( 'NONE', #570, 2.500000000000000444 ) ;
#858 = DIRECTION ( 'NONE',  ( 0.000000000000000000, -1.000000000000000000, 0.000000000000000000 ) ) ;
#859 = AXIS2_PLACEMENT_3D ( 'NONE', #1153, #1046, #344 ) ;
#860 = CARTESIAN_POINT ( 'NONE',  ( 2.081899558550500280E-15, 19.50000000000000000, 17.00000000000000000 ) ) ;
#861 = ORIENTED_EDGE ( 'NONE', *, *, #416, .F. ) ;
#862 = CARTESIAN_POINT ( 'NONE',  ( 2.081899558550500280E-15, 3.000000000000002665, -17.00000000000000000 ) ) ;
#863 = EDGE_CURVE ( 'NONE', #990, #616, #436, .T. ) ;
#864 = ADVANCED_FACE ( 'NONE', ( #1217 ), #225, .T. ) ;
#865 = CARTESIAN_POINT ( 'NONE',  ( -6.717999999999999972, 5.000000000000000000, -6.717999999999999972 ) ) ;
#866 = ORIENTED_EDGE ( 'NONE', *, *, #927, .T. ) ;
#867 = LINE ( 'NONE', #477, #1030 ) ;
#868 = ORIENTED_EDGE ( 'NONE', *, *, #5, .T. ) ;
#869 = DIRECTION ( 'NONE',  ( 0.000000000000000000, -1.000000000000000000, 0.000000000000000000 ) ) ;
#870 = EDGE_CURVE ( 'NONE', #295, #405, #1161, .T. ) ;
#871 = VERTEX_POINT ( 'NONE', #1053 ) ;
#872 = DIRECTION ( 'NONE',  ( 0.000000000000000000, -1.000000000000000000, 0.000000000000000000 ) ) ;
#873 = VERTEX_POINT ( 'NONE', #1140 ) ;
#874 = EDGE_CURVE ( 'NONE', #327, #232, #836, .T. ) ;
#875 = AXIS2_PLACEMENT_3D ( 'NONE', #116, #1199, #1181 ) ;
#876 = CYLINDRICAL_SURFACE ( 'NONE', #651, 1.249999999999999334 ) ;
#877 = CIRCLE ( 'NONE', #921, 15.50000000000000000 ) ;
#878 = ORIENTED_EDGE ( 'NONE', *, *, #1249, .T. ) ;
#879 = CARTESIAN_POINT ( 'NONE',  ( -5.750000000000000000, 17.49999999999999645, -9.960000000000000853 ) ) ;
#880 = EDGE_LOOP ( 'NONE', ( #6, #13, #818, #1244 ) ) ;
#881 = LINE ( 'NONE', #698, #219 ) ;
#882 = EDGE_CURVE ( 'NONE', #793, #887, #938, .T. ) ;
#883 = CARTESIAN_POINT ( 'NONE',  ( 5.750000000000000000, 17.49999999999999645, 7.459999999999999964 ) ) ;
#884 = EDGE_CURVE ( 'NONE', #945, #1125, #279, .T. ) ;
#885 = ORIENTED_EDGE ( 'NONE', *, *, #1038, .T. ) ;
#886 = DIRECTION ( 'NONE',  ( 0.000000000000000000, 0.000000000000000000, 1.000000000000000000 ) ) ;
#887 = VERTEX_POINT ( 'NONE', #951 ) ;
#888 = CARTESIAN_POINT ( 'NONE',  ( 0.000000000000000000, 19.50000000000000000, 0.000000000000000000 ) ) ;
#889 = ADVANCED_FACE ( 'NONE', ( #763 ), #655, .F. ) ;
#890 = CARTESIAN_POINT ( 'NONE',  ( 11.50000000000000000, 17.49999999999999645, 0.000000000000000000 ) ) ;
#891 = EDGE_LOOP ( 'NONE', ( #281, #1187 ) ) ;
#892 = DIRECTION ( 'NONE',  ( 0.000000000000000000, 0.000000000000000000, 1.000000000000000000 ) ) ;
#893 = VERTEX_POINT ( 'NONE', #360 ) ;
#894 = DIRECTION ( 'NONE',  ( 0.000000000000000000, 0.000000000000000000, 1.000000000000000000 ) ) ;
#895 =( GEOMETRIC_REPRESENTATION_CONTEXT ( 3 ) GLOBAL_UNCERTAINTY_ASSIGNED_CONTEXT ( ( #123 ) ) GLOBAL_UNIT_ASSIGNED_CONTEXT ( ( #1025, #228, #119 ) ) REPRESENTATION_CONTEXT ( 'NONE', 'WORKASPACE' ) );
#896 = AXIS2_PLACEMENT_3D ( 'NONE', #331, #728, #553 ) ;
#897 = DIRECTION ( 'NONE',  ( 0.000000000000000000, 0.000000000000000000, 1.000000000000000000 ) ) ;
#898 = VECTOR ( 'NONE', #1036, 1000.000000000000000 ) ;
#899 = AXIS2_PLACEMENT_3D ( 'NONE', #1019, #1014, #631 ) ;
#900 = ORIENTED_EDGE ( 'NONE', *, *, #416, .T. ) ;
#901 = FACE_OUTER_BOUND ( 'NONE', #682, .T. ) ;
#902 = AXIS2_PLACEMENT_3D ( 'NONE', #411, #223, #819 ) ;
#903 = EDGE_LOOP ( 'NONE', ( #8, #529 ) ) ;
#904 = DIRECTION ( 'NONE',  ( 0.000000000000000000, -1.000000000000000000, 0.000000000000000000 ) ) ;
#905 = EDGE_CURVE ( 'NONE', #288, #1260, #272, .T. ) ;
#906 = DIRECTION ( 'NONE',  ( 0.000000000000000000, 0.000000000000000000, -1.000000000000000000 ) ) ;
#907 = VERTEX_POINT ( 'NONE', #72 ) ;
#908 = FACE_OUTER_BOUND ( 'NONE', #842, .T. ) ;
#909 = ORIENTED_EDGE ( 'NONE', *, *, #456, .T. ) ;
#910 = DIRECTION ( 'NONE',  ( 0.000000000000000000, 0.000000000000000000, 1.000000000000000000 ) ) ;
#911 = CARTESIAN_POINT ( 'NONE',  ( -5.750000000000000000, 17.49999999999999645, 7.459999999999999964 ) ) ;
#912 = CARTESIAN_POINT ( 'NONE',  ( 0.000000000000000000, 3.000000000000002665, 0.000000000000000000 ) ) ;
#913 = ADVANCED_FACE ( 'NONE', ( #665 ), #1062, .F. ) ;
#914 = EDGE_LOOP ( 'NONE', ( #744, #868 ) ) ;
#915 = DIRECTION ( 'NONE',  ( 0.000000000000000000, 1.000000000000000000, 0.000000000000000000 ) ) ;
#916 = CARTESIAN_POINT ( 'NONE',  ( 1.898202538678397557E-15, 3.000000000000002665, -15.50000000000000000 ) ) ;
#917 = DIRECTION ( 'NONE',  ( 0.000000000000000000, 0.000000000000000000, -1.000000000000000000 ) ) ;
#918 = CIRCLE ( 'NONE', #356, 2.500000000000000444 ) ;
#919 = ORIENTED_EDGE ( 'NONE', *, *, #645, .F. ) ;
#920 = DIRECTION ( 'NONE',  ( 0.000000000000000000, 0.000000000000000000, 1.000000000000000000 ) ) ;
#921 = AXIS2_PLACEMENT_3D ( 'NONE', #14, #400, #795 ) ;
#922 = DIRECTION ( 'NONE',  ( 0.000000000000000000, 0.000000000000000000, -1.000000000000000000 ) ) ;
#923 = ORIENTED_EDGE ( 'NONE', *, *, #838, .T. ) ;
#924 = PERSON_AND_ORGANIZATION_ROLE ( 'design_owner' ) ;
#925 = ORIENTED_EDGE ( 'NONE', *, *, #425, .T. ) ;
#926 = DIRECTION ( 'NONE',  ( -0.000000000000000000, 1.000000000000000000, -0.000000000000000000 ) ) ;
#927 = EDGE_CURVE ( 'NONE', #285, #813, #760, .T. ) ;
#928 = DIRECTION ( 'NONE',  ( 0.000000000000000000, 0.000000000000000000, 1.000000000000000000 ) ) ;
#929 = CYLINDRICAL_SURFACE ( 'NONE', #236, 2.500000000000000444 ) ;
#930 = PERSON_AND_ORGANIZATION ( #141, #505 ) ;
#931 = ORIENTED_EDGE ( 'NONE', *, *, #70, .F. ) ;
#932 = CARTESIAN_POINT ( 'NONE',  ( -5.750000000000000000, 17.49999999999999645, -12.46000000000000085 ) ) ;
#933 = FACE_OUTER_BOUND ( 'NONE', #623, .T. ) ;
#934 = DIRECTION ( 'NONE',  ( 0.000000000000000000, 0.000000000000000000, 1.000000000000000000 ) ) ;
#935 = CALENDAR_DATE ( 2026, 29, 9 ) ;
#936 = VECTOR ( 'NONE', #166, 1000.000000000000000 ) ;
#937 = ORIENTED_EDGE ( 'NONE', *, *, #399, .T. ) ;
#938 = LINE ( 'NONE', #1135, #1180 ) ;
#939 = CIRCLE ( 'NONE', #158, 1.249999999999999334 ) ;
#940 = EDGE_CURVE ( 'NONE', #232, #198, #182, .T. ) ;
#941 = AXIS2_PLACEMENT_3D ( 'NONE', #1185, #617, #522 ) ;
#942 = FACE_OUTER_BOUND ( 'NONE', #559, .T. ) ;
#943 = DIRECTION ( 'NONE',  ( 0.000000000000000000, 0.000000000000000000, 1.000000000000000000 ) ) ;
#944 = EDGE_CURVE ( 'NONE', #1108, #417, #867, .T. ) ;
#945 = VERTEX_POINT ( 'NONE', #575 ) ;
#946 = DIRECTION ( 'NONE',  ( 0.000000000000000000, 0.000000000000000000, 1.000000000000000000 ) ) ;
#947 = CARTESIAN_POINT ( 'NONE',  ( 3.061616997868383141E-16, 22.50000000000000000, -2.500000000000000000 ) ) ;
#948 = DIRECTION ( 'NONE',  ( 0.000000000000000000, -1.000000000000000000, 0.000000000000000000 ) ) ;
#949 = DATE_AND_TIME ( #470, #628 ) ;
#950 = ORIENTED_EDGE ( 'NONE', *, *, #107, .F. ) ;
#951 = CARTESIAN_POINT ( 'NONE',  ( 6.717999999999999972, 0.000000000000000000, 5.468000000000000860 ) ) ;
#952 = DIRECTION ( 'NONE',  ( 0.000000000000000000, 1.000000000000000000, 0.000000000000000000 ) ) ;
#953 = CARTESIAN_POINT ( 'NONE',  ( -5.750000000000000000, 17.49999999999999645, 9.960000000000000853 ) ) ;
#954 = PERSON_AND_ORGANIZATION ( #141, #505 ) ;
#955 = ADVANCED_FACE ( 'NONE', ( #849 ), #843, .F. ) ;
#956 = EDGE_LOOP ( 'NONE', ( #151, #611, #173, #766 ) ) ;
#957 = CARTESIAN_POINT ( 'NONE',  ( 5.750000000000000000, 17.49999999999999645, 9.960000000000000853 ) ) ;
#958 = AXIS2_PLACEMENT_3D ( 'NONE', #774, #1184, #303 ) ;
#959 = AXIS2_PLACEMENT_3D ( 'NONE', #103, #571, #189 ) ;
#960 = CIRCLE ( 'NONE', #632, 2.500000000000000444 ) ;
#961 = AXIS2_PLACEMENT_3D ( 'NONE', #1106, #1117, #328 ) ;
#962 = APPLICATION_CONTEXT ( 'configuration controlled 3d designs of mechanical parts and assemblies' ) ;
#963 = CARTESIAN_POINT ( 'NONE',  ( -5.750000000000000000, 17.49999999999999645, -7.459999999999999964 ) ) ;
#964 = ORIENTED_EDGE ( 'NONE', *, *, #562, .F. ) ;
#965 = DIRECTION ( 'NONE',  ( 0.000000000000000000, -1.000000000000000000, 0.000000000000000000 ) ) ;
#966 = EDGE_CURVE ( 'NONE', #820, #1134, #350, .T. ) ;
#967 = CYLINDRICAL_SURFACE ( 'NONE', #156, 1.249999999999999334 ) ;
#968 = ORIENTED_EDGE ( 'NONE', *, *, #710, .F. ) ;
#969 = PLANE ( 'NONE',  #184 ) ;
#970 = PRODUCT ( 'Motor', 'Motor', '', ( #718 ) ) ;
#971 = EDGE_LOOP ( 'NONE', ( #723, #909, #861, #86 ) ) ;
#972 = DIRECTION ( 'NONE',  ( 0.000000000000000000, 0.000000000000000000, 1.000000000000000000 ) ) ;
#973 = VERTEX_POINT ( 'NONE', #560 ) ;
#974 = CARTESIAN_POINT ( 'NONE',  ( 6.717999999999999972, 5.000000000000000000, -6.717999999999999972 ) ) ;
#975 = LOCAL_TIME ( 17, 50, 23.00000000000000000, #1242 ) ;
#976 = ORIENTED_EDGE ( 'NONE', *, *, #290, .F. ) ;
#977 = DIRECTION ( 'NONE',  ( -0.000000000000000000, 1.000000000000000000, -0.000000000000000000 ) ) ;
#978 = ADVANCED_FACE ( 'NONE', ( #644 ), #1040, .T. ) ;
#979 = AXIS2_PLACEMENT_3D ( 'NONE', #953, #636, #143 ) ;
#980 = AXIS2_PLACEMENT_3D ( 'NONE', #1228, #63, #844 ) ;
#981 = ADVANCED_FACE ( 'NONE', ( #267 ), #745, .F. ) ;
#982 = DIRECTION ( 'NONE',  ( 0.000000000000000000, 1.000000000000000000, 0.000000000000000000 ) ) ;
#983 = AXIS2_PLACEMENT_3D ( 'NONE', #732, #1112, #52 ) ;
#984 = VERTEX_POINT ( 'NONE', #458 ) ;
#985 = DIRECTION ( 'NONE',  ( -0.000000000000000000, 1.000000000000000000, -0.000000000000000000 ) ) ;
#986 = ADVANCED_FACE ( 'NONE', ( #174 ), #566, .F. ) ;
#987 = ORIENTED_EDGE ( 'NONE', *, *, #715, .T. ) ;
#988 = CARTESIAN_POINT ( 'NONE',  ( 2.081899558550500280E-15, 19.50000000000000000, -17.00000000000000000 ) ) ;
#989 = LINE ( 'NONE', #860, #531 ) ;
#990 = VERTEX_POINT ( 'NONE', #862 ) ;
#991 = DIRECTION ( 'NONE',  ( 0.000000000000000000, 0.000000000000000000, 1.000000000000000000 ) ) ;
#992 = VERTEX_POINT ( 'NONE', #364 ) ;
#993 = DIRECTION ( 'NONE',  ( -0.000000000000000000, 1.000000000000000000, -0.000000000000000000 ) ) ;
#994 = CARTESIAN_POINT ( 'NONE',  ( 11.50000000000000000, 17.49999999999999645, 2.500000000000000444 ) ) ;
#995 = ORIENTED_EDGE ( 'NONE', *, *, #656, .T. ) ;
#996 = DIRECTION ( 'NONE',  ( -0.000000000000000000, 1.000000000000000000, -0.000000000000000000 ) ) ;
#997 = EDGE_LOOP ( 'NONE', ( #1105, #848, #1089, #593 ) ) ;
#998 = DIRECTION ( 'NONE',  ( 0.000000000000000000, -1.000000000000000000, 0.000000000000000000 ) ) ;
#999 = DESIGN_CONTEXT ( 'detailed design', #714, 'design' ) ;
#1000 = AXIS2_PLACEMENT_3D ( 'NONE', #701, #1017, #144 ) ;
#1001 = CLOSED_SHELL ( 'NONE', ( #981, #889, #153, #913, #638, #321, #489, #188, #33, #484, #84, #1205, #671, #1088, #864, #1193, #175, #206, #180, #382, #542, #545, #1050, #1114, #1163, #306, #650, #1027, #749, #387, #443, #955, #55, #739, #346, #1073, #588, #193, #62, #68, #528, #986, #412, #447, #978 ) ) ;
#1002 = PLANE ( 'NONE',  #36 ) ;
#1003 = VECTOR ( 'NONE', #466, 1000.000000000000000 ) ;
#1004 = CIRCLE ( 'NONE', #1143, 1.250000000000000222 ) ;
#1005 = ORIENTED_EDGE ( 'NONE', *, *, #483, .F. ) ;
#1006 = APPLICATION_PROTOCOL_DEFINITION ( 'international standard', 'config_control_design', 1994, #962 ) ;
#1007 = EDGE_LOOP ( 'NONE', ( #1085, #309 ) ) ;
#1008 = CYLINDRICAL_SURFACE ( 'NONE', #1247, 2.500000000000000444 ) ;
#1009 = EDGE_CURVE ( 'NONE', #248, #893, #449, .T. ) ;
#1010 = DIRECTION ( 'NONE',  ( 0.000000000000000000, 1.000000000000000000, 0.000000000000000000 ) ) ;
#1011 = ORIENTED_EDGE ( 'NONE', *, *, #778, .F. ) ;
#1012 = DIRECTION ( 'NONE',  ( 0.000000000000000000, 0.000000000000000000, 1.000000000000000000 ) ) ;
#1013 = ORIENTED_EDGE ( 'NONE', *, *, #1064, .F. ) ;
#1014 = DIRECTION ( 'NONE',  ( -0.000000000000000000, 1.000000000000000000, -0.000000000000000000 ) ) ;
#1015 = DIRECTION ( 'NONE',  ( 0.000000000000000000, 1.000000000000000000, 0.000000000000000000 ) ) ;
#1016 = DIRECTION ( 'NONE',  ( 0.000000000000000000, 0.000000000000000000, 1.000000000000000000 ) ) ;
#1017 = DIRECTION ( 'NONE',  ( 0.000000000000000000, -1.000000000000000000, 0.000000000000000000 ) ) ;
#1018 = ORIENTED_EDGE ( 'NONE', *, *, #884, .T. ) ;
#1019 = CARTESIAN_POINT ( 'NONE',  ( 0.000000000000000000, 20.50000000000000000, 0.000000000000000000 ) ) ;
#1020 = DIRECTION ( 'NONE',  ( 0.000000000000000000, -0.000000000000000000, 1.000000000000000000 ) ) ;
#1021 = AXIS2_PLACEMENT_3D ( 'NONE', #681, #1079, #197 ) ;
#1022 = AXIS2_PLACEMENT_3D ( 'NONE', #1055, #171, #468 ) ;
#1023 = ORIENTED_EDGE ( 'NONE', *, *, #1201, .F. ) ;
#1024 = AXIS2_PLACEMENT_3D ( 'NONE', #208, #1167, #379 ) ;
#1025 =( LENGTH_UNIT ( ) NAMED_UNIT ( * ) SI_UNIT ( .MILLI., .METRE. ) );
#1026 = AXIS2_PLACEMENT_3D ( 'NONE', #298, #561, #23 ) ;
#1027 = ADVANCED_FACE ( 'NONE', ( #767 ), #211, .F. ) ;
#1028 = EDGE_LOOP ( 'NONE', ( #353, #584 ) ) ;
#1029 = CARTESIAN_POINT ( 'NONE',  ( -11.50000000000000000, 17.49999999999999645, 2.500000000000000444 ) ) ;
#1030 = VECTOR ( 'NONE', #1131, 1000.000000000000000 ) ;
#1031 = FACE_BOUND ( 'NONE', #914, .T. ) ;
#1032 = CARTESIAN_POINT ( 'NONE',  ( 0.000000000000000000, 22.50000000000000000, 0.000000000000000000 ) ) ;
#1033 = PERSON_AND_ORGANIZATION ( #141, #505 ) ;
#1034 = VERTEX_POINT ( 'NONE', #12 ) ;
#1035 = CARTESIAN_POINT ( 'NONE',  ( 0.000000000000000000, 35.50000000000000000, 0.000000000000000000 ) ) ;
#1036 = DIRECTION ( 'NONE',  ( -0.000000000000000000, 1.000000000000000000, -0.000000000000000000 ) ) ;
#1037 = CYLINDRICAL_SURFACE ( 'NONE', #1044, 15.50000000000000000 ) ;
#1038 = EDGE_CURVE ( 'NONE', #1045, #271, #512, .T. ) ;
#1039 = ORIENTED_EDGE ( 'NONE', *, *, #252, .F. ) ;
#1040 = PLANE ( 'NONE',  #1124 ) ;
#1041 = DIRECTION ( 'NONE',  ( 0.000000000000000000, 0.000000000000000000, 1.000000000000000000 ) ) ;
#1042 = FACE_OUTER_BOUND ( 'NONE', #1225, .T. ) ;
#1043 = SECURITY_CLASSIFICATION_LEVEL ( 'unclassified' ) ;
#1044 = AXIS2_PLACEMENT_3D ( 'NONE', #748, #149, #934 ) ;
#1045 = VERTEX_POINT ( 'NONE', #105 ) ;
#1046 = DIRECTION ( 'NONE',  ( -0.000000000000000000, 1.000000000000000000, -0.000000000000000000 ) ) ;
#1047 = AXIS2_PLACEMENT_3D ( 'NONE', #504, #1010, #1020 ) ;
#1048 = AXIS2_PLACEMENT_3D ( 'NONE', #1035, #217, #612 ) ;
#1049 = DIRECTION ( 'NONE',  ( 0.000000000000000000, -0.000000000000000000, 1.000000000000000000 ) ) ;
#1050 = ADVANCED_FACE ( 'NONE', ( #1072, #1175 ), #969, .F. ) ;
#1051 = CARTESIAN_POINT ( 'NONE',  ( 3.061616997868383141E-16, 35.50000000000000000, -2.500000000000000000 ) ) ;
#1052 = ORIENTED_EDGE ( 'NONE', *, *, #525, .T. ) ;
#1053 = CARTESIAN_POINT ( 'NONE',  ( 0.000000000000000000, 0.000000000000000000, 15.50000000000000000 ) ) ;
#1054 = CARTESIAN_POINT ( 'NONE',  ( -11.50000000000000000, 17.49999999999999645, -2.500000000000000444 ) ) ;
#1055 = CARTESIAN_POINT ( 'NONE',  ( 5.750000000000000000, 17.49999999999999645, -9.960000000000000853 ) ) ;
#1056 = DATE_TIME_ROLE ( 'classification_date' ) ;
#1057 = EDGE_LOOP ( 'NONE', ( #740, #482, #866, #266 ) ) ;
#1058 = CARTESIAN_POINT ( 'NONE',  ( 11.50000000000000000, 17.49999999999999645, 0.000000000000000000 ) ) ;
#1059 = DIRECTION ( 'NONE',  ( 0.000000000000000000, 0.000000000000000000, -1.000000000000000000 ) ) ;
#1060 = DATE_AND_TIME ( #172, #787 ) ;
#1061 = ORIENTED_EDGE ( 'NONE', *, *, #778, .T. ) ;
#1062 = CYLINDRICAL_SURFACE ( 'NONE', #490, 2.500000000000000444 ) ;
#1063 = AXIS2_PLACEMENT_3D ( 'NONE', #1133, #737, #1128 ) ;
#1064 = EDGE_CURVE ( 'NONE', #1108, #643, #240, .T. ) ;
#1065 = VECTOR ( 'NONE', #1092, 1000.000000000000000 ) ;
#1066 = CARTESIAN_POINT ( 'NONE',  ( 6.717999999999999972, 5.000000000000000000, 7.967999999999999083 ) ) ;
#1067 = ORIENTED_EDGE ( 'NONE', *, *, #659, .T. ) ;
#1068 = CARTESIAN_POINT ( 'NONE',  ( 2.020667218593133100E-15, 20.50000000000000000, 16.00000000000000000 ) ) ;
#1069 = VERTEX_POINT ( 'NONE', #369 ) ;
#1070 = LINE ( 'NONE', #883, #421 ) ;
#1071 = ORIENTED_EDGE ( 'NONE', *, *, #523, .T. ) ;
#1072 = FACE_BOUND ( 'NONE', #676, .T. ) ;
#1073 = ADVANCED_FACE ( 'NONE', ( #784 ), #695, .F. ) ;
#1074 = CARTESIAN_POINT ( 'NONE',  ( 0.000000000000000000, 20.50000000000000000, 0.000000000000000000 ) ) ;
#1075 = EDGE_CURVE ( 'NONE', #694, #441, #54, .T. ) ;
#1076 = EDGE_CURVE ( 'NONE', #984, #295, #1165, .T. ) ;
#1077 = DIRECTION ( 'NONE',  ( -0.000000000000000000, 1.000000000000000000, -0.000000000000000000 ) ) ;
#1078 = ORIENTED_EDGE ( 'NONE', *, *, #1243, .F. ) ;
#1079 = DIRECTION ( 'NONE',  ( 0.000000000000000000, -1.000000000000000000, 0.000000000000000000 ) ) ;
#1080 = CARTESIAN_POINT ( 'NONE',  ( 6.717999999999999972, 0.000000000000000000, -6.717999999999999972 ) ) ;
#1081 = CIRCLE ( 'NONE', #569, 16.00000000000000000 ) ;
#1082 = VECTOR ( 'NONE', #108, 1000.000000000000000 ) ;
#1083 = CARTESIAN_POINT ( 'NONE',  ( 0.000000000000000000, 35.50000000000000000, 4.000000000000000000 ) ) ;
#1084 = AXIS2_PLACEMENT_3D ( 'NONE', #42, #926, #1226 ) ;
#1085 = ORIENTED_EDGE ( 'NONE', *, *, #668, .T. ) ;
#1086 = FACE_OUTER_BOUND ( 'NONE', #261, .T. ) ;
#1087 = DIRECTION ( 'NONE',  ( 0.000000000000000000, 0.000000000000000000, 1.000000000000000000 ) ) ;
#1088 = ADVANCED_FACE ( 'NONE', ( #1086 ), #284, .T. ) ;
#1089 = ORIENTED_EDGE ( 'NONE', *, *, #525, .F. ) ;
#1090 = CARTESIAN_POINT ( 'NONE',  ( 4.000000000000000000, 22.50000000000000000, 0.000000000000000000 ) ) ;
#1091 = ORIENTED_EDGE ( 'NONE', *, *, #721, .F. ) ;
#1092 = DIRECTION ( 'NONE',  ( -0.000000000000000000, 1.000000000000000000, -0.000000000000000000 ) ) ;
#1093 = DIRECTION ( 'NONE',  ( 0.000000000000000000, -1.000000000000000000, 0.000000000000000000 ) ) ;
#1094 = ORIENTED_EDGE ( 'NONE', *, *, #1076, .F. ) ;
#1095 = CARTESIAN_POINT ( 'NONE',  ( 4.898587196589412829E-16, 35.50000000000000000, -4.000000000000000000 ) ) ;
#1096 = ORIENTED_EDGE ( 'NONE', *, *, #764, .T. ) ;
#1097 = DIRECTION ( 'NONE',  ( -0.000000000000000000, 1.000000000000000000, -0.000000000000000000 ) ) ;
#1098 = PRODUCT_RELATED_PRODUCT_CATEGORY ( 'detail', '', ( #970 ) ) ;
#1099 = CIRCLE ( 'NONE', #1120, 17.00000000000000000 ) ;
#1100 = CARTESIAN_POINT ( 'NONE',  ( 5.750000000000000000, 20.50000000000000000, 7.459999999999999964 ) ) ;
#1101 = CONICAL_SURFACE ( 'NONE', #875, 17.00000000000000000, 0.7853981633974482790 ) ;
#1102 = VECTOR ( 'NONE', #649, 1000.000000000000000 ) ;
#1103 = VERTEX_POINT ( 'NONE', #1068 ) ;
#1104 = CARTESIAN_POINT ( 'NONE',  ( 0.000000000000000000, 22.50000000000000000, 0.000000000000000000 ) ) ;
#1105 = ORIENTED_EDGE ( 'NONE', *, *, #1258, .F. ) ;
#1106 = CARTESIAN_POINT ( 'NONE',  ( -6.717999999999999972, 5.000000000000000000, -6.717999999999999972 ) ) ;
#1107 = DIRECTION ( 'NONE',  ( 0.000000000000000000, 0.000000000000000000, -1.000000000000000000 ) ) ;
#1108 = VERTEX_POINT ( 'NONE', #481 ) ;
#1109 = CARTESIAN_POINT ( 'NONE',  ( 0.000000000000000000, 0.000000000000000000, 0.000000000000000000 ) ) ;
#1110 = ORIENTED_EDGE ( 'NONE', *, *, #292, .F. ) ;
#1111 = EDGE_CURVE ( 'NONE', #137, #212, #633, .T. ) ;
#1112 = DIRECTION ( 'NONE',  ( 0.000000000000000000, -1.000000000000000000, 0.000000000000000000 ) ) ;
#1113 = FACE_OUTER_BOUND ( 'NONE', #1155, .T. ) ;
#1114 = ADVANCED_FACE ( 'NONE', ( #1256 ), #100, .T. ) ;
#1115 = ORIENTED_EDGE ( 'NONE', *, *, #501, .F. ) ;
#1116 = ORIENTED_EDGE ( 'NONE', *, *, #944, .T. ) ;
#1117 = DIRECTION ( 'NONE',  ( 0.000000000000000000, 1.000000000000000000, 0.000000000000000000 ) ) ;
#1118 = PLANE ( 'NONE',  #1179 ) ;
#1119 = VECTOR ( 'NONE', #996, 1000.000000000000000 ) ;
#1120 = AXIS2_PLACEMENT_3D ( 'NONE', #912, #31, #1016 ) ;
#1121 = DIRECTION ( 'NONE',  ( 0.000000000000000000, -0.000000000000000000, 1.000000000000000000 ) ) ;
#1122 = AXIS2_PLACEMENT_3D ( 'NONE', #194, #305, #585 ) ;
#1123 = CARTESIAN_POINT ( 'NONE',  ( 6.717999999999999972, 0.000000000000000000, 7.967999999999999083 ) ) ;
#1124 = AXIS2_PLACEMENT_3D ( 'NONE', #1253, #152, #1148 ) ;
#1125 = VERTEX_POINT ( 'NONE', #205 ) ;
#1126 = DIRECTION ( 'NONE',  ( 0.000000000000000000, 0.000000000000000000, 1.000000000000000000 ) ) ;
#1127 = FACE_BOUND ( 'NONE', #419, .T. ) ;
#1128 = DIRECTION ( 'NONE',  ( 0.000000000000000000, 0.000000000000000000, 1.000000000000000000 ) ) ;
#1129 = CALENDAR_DATE ( 2026, 29, 9 ) ;
#1130 = ORIENTED_EDGE ( 'NONE', *, *, #802, .F. ) ;
#1131 = DIRECTION ( 'NONE',  ( -0.000000000000000000, 1.000000000000000000, -0.000000000000000000 ) ) ;
#1132 = CARTESIAN_POINT ( 'NONE',  ( 5.750000000000000000, 17.49999999999999645, 9.960000000000000853 ) ) ;
#1133 = CARTESIAN_POINT ( 'NONE',  ( 0.000000000000000000, 19.50000000000000000, 0.000000000000000000 ) ) ;
#1134 = VERTEX_POINT ( 'NONE', #390 ) ;
#1135 = CARTESIAN_POINT ( 'NONE',  ( 6.717999999999999972, 5.000000000000000000, 5.468000000000000860 ) ) ;
#1136 = EDGE_CURVE ( 'NONE', #441, #694, #666, .T. ) ;
#1137 = LINE ( 'NONE', #43, #791 ) ;
#1138 = CARTESIAN_POINT ( 'NONE',  ( 6.717999999999999972, 5.000000000000000000, 6.717999999999999972 ) ) ;
#1139 = ORIENTED_EDGE ( 'NONE', *, *, #706, .F. ) ;
#1140 = CARTESIAN_POINT ( 'NONE',  ( 0.000000000000000000, 3.000000000000002665, 15.50000000000000000 ) ) ;
#1141 = EDGE_CURVE ( 'NONE', #285, #452, #444, .T. ) ;
#1142 = AXIS2_PLACEMENT_3D ( 'NONE', #231, #693, #1087 ) ;
#1143 = AXIS2_PLACEMENT_3D ( 'NONE', #334, #230, #624 ) ;
#1144 = DIRECTION ( 'NONE',  ( 0.000000000000000000, -0.000000000000000000, -1.000000000000000000 ) ) ;
#1145 = FACE_OUTER_BOUND ( 'NONE', #971, .T. ) ;
#1146 = APPROVAL_ROLE ( '' ) ;
#1147 = EDGE_LOOP ( 'NONE', ( #1115, #1255 ) ) ;
#1148 = DIRECTION ( 'NONE',  ( 0.000000000000000000, -0.000000000000000000, 1.000000000000000000 ) ) ;
#1149 = CARTESIAN_POINT ( 'NONE',  ( 0.000000000000000000, 20.50000000000000000, -16.00000000000000000 ) ) ;
#1150 = APPROVAL_DATE_TIME ( #1060, #789 ) ;
#1151 = APPROVAL ( #270, 'UNSPECIFIED' ) ;
#1152 = ORIENTED_EDGE ( 'NONE', *, *, #1111, .F. ) ;
#1153 = CARTESIAN_POINT ( 'NONE',  ( 5.750000000000000000, 17.49999999999999645, 9.960000000000000853 ) ) ;
#1154 = PLANE ( 'NONE',  #770 ) ;
#1155 = EDGE_LOOP ( 'NONE', ( #222, #210 ) ) ;
#1156 = DIRECTION ( 'NONE',  ( 0.000000000000000000, 0.000000000000000000, 1.000000000000000000 ) ) ;
#1157 = AXIS2_PLACEMENT_3D ( 'NONE', #615, #622, #729 ) ;
#1158 = CIRCLE ( 'NONE', #178, 2.500000000000000000 ) ;
#1159 = VERTEX_POINT ( 'NONE', #384 ) ;
#1160 = AXIS2_PLACEMENT_3D ( 'NONE', #226, #1015, #514 ) ;
#1161 = CIRCLE ( 'NONE', #592, 2.500000000000000444 ) ;
#1162 = CARTESIAN_POINT ( 'NONE',  ( 5.750000000000000000, 17.49999999999999645, -9.960000000000000853 ) ) ;
#1163 = ADVANCED_FACE ( 'NONE', ( #780 ), #289, .F. ) ;
#1164 = ORIENTED_EDGE ( 'NONE', *, *, #609, .T. ) ;
#1165 = LINE ( 'NONE', #1170, #1119 ) ;
#1166 = ORIENTED_EDGE ( 'NONE', *, *, #845, .T. ) ;
#1167 = DIRECTION ( 'NONE',  ( 0.000000000000000000, 1.000000000000000000, 0.000000000000000000 ) ) ;
#1168 = CARTESIAN_POINT ( 'NONE',  ( -11.50000000000000000, 17.49999999999999645, 0.000000000000000000 ) ) ;
#1169 = VERTEX_POINT ( 'NONE', #591 ) ;
#1170 = CARTESIAN_POINT ( 'NONE',  ( 5.750000000000000000, 17.49999999999999645, 12.46000000000000085 ) ) ;
#1171 = ORIENTED_EDGE ( 'NONE', *, *, #884, .F. ) ;
#1172 = FACE_OUTER_BOUND ( 'NONE', #997, .T. ) ;
#1173 = CARTESIAN_POINT ( 'NONE',  ( 5.750000000000000000, 20.50000000000000000, -12.46000000000000085 ) ) ;
#1174 = ORIENTED_EDGE ( 'NONE', *, *, #579, .F. ) ;
#1175 = FACE_OUTER_BOUND ( 'NONE', #672, .T. ) ;
#1176 = CARTESIAN_POINT ( 'NONE',  ( 6.717999999999999972, 5.000000000000000000, -7.967999999999999083 ) ) ;
#1177 = APPROVAL_PERSON_ORGANIZATION ( #830, #1151, #841 ) ;
#1178 = AXIS2_PLACEMENT_3D ( 'NONE', #796, #699, #817 ) ;
#1179 = AXIS2_PLACEMENT_3D ( 'NONE', #747, #851, #1049 ) ;
#1180 = VECTOR ( 'NONE', #1233, 1000.000000000000000 ) ;
#1181 = DIRECTION ( 'NONE',  ( 0.000000000000000000, 0.000000000000000000, -1.000000000000000000 ) ) ;
#1182 = CIRCLE ( 'NONE', #177, 2.500000000000000444 ) ;
#1183 = ORIENTED_EDGE ( 'NONE', *, *, #847, .T. ) ;
#1184 = DIRECTION ( 'NONE',  ( 0.000000000000000000, 1.000000000000000000, 0.000000000000000000 ) ) ;
#1185 = CARTESIAN_POINT ( 'NONE',  ( 11.50000000000000000, 20.50000000000000000, 0.000000000000000000 ) ) ;
#1186 = DIRECTION ( 'NONE',  ( 0.000000000000000000, 0.000000000000000000, 1.000000000000000000 ) ) ;
#1187 = ORIENTED_EDGE ( 'NONE', *, *, #268, .F. ) ;
#1188 = DIRECTION ( 'NONE',  ( 0.000000000000000000, -1.000000000000000000, 0.000000000000000000 ) ) ;
#1189 = CC_DESIGN_PERSON_AND_ORGANIZATION_ASSIGNMENT ( #954, #758, ( #294 ) ) ;
#1190 = ORIENTED_EDGE ( 'NONE', *, *, #1076, .T. ) ;
#1191 = CARTESIAN_POINT ( 'NONE',  ( 11.50000000000000000, 17.49999999999999645, 2.500000000000000444 ) ) ;
#1192 = CARTESIAN_POINT ( 'NONE',  ( -6.717999999999999972, 5.000000000000000000, -6.717999999999999972 ) ) ;
#1193 = ADVANCED_FACE ( 'NONE', ( #418, #406, #804, #627, #908 ), #26, .F. ) ;
#1194 = DIRECTION ( 'NONE',  ( 0.000000000000000000, -1.000000000000000000, 0.000000000000000000 ) ) ;
#1195 = DIRECTION ( 'NONE',  ( -0.000000000000000000, 1.000000000000000000, -0.000000000000000000 ) ) ;
#1196 = ORIENTED_EDGE ( 'NONE', *, *, #755, .F. ) ;
#1197 = DIRECTION ( 'NONE',  ( 0.000000000000000000, 0.000000000000000000, 1.000000000000000000 ) ) ;
#1198 = AXIS2_PLACEMENT_3D ( 'NONE', #1138, #840, #1121 ) ;
#1199 = DIRECTION ( 'NONE',  ( 0.000000000000000000, -1.000000000000000000, 0.000000000000000000 ) ) ;
#1200 = CIRCLE ( 'NONE', #200, 1.249999999999999334 ) ;
#1201 = EDGE_CURVE ( 'NONE', #1159, #517, #340, .T. ) ;
#1202 = CIRCLE ( 'NONE', #160, 1.249999999999999334 ) ;
#1203 = EDGE_LOOP ( 'NONE', ( #1206, #1232, #577, #590 ) ) ;
#1204 = LINE ( 'NONE', #320, #235 ) ;
#1205 = ADVANCED_FACE ( 'NONE', ( #901 ), #811, .T. ) ;
#1206 = ORIENTED_EDGE ( 'NONE', *, *, #367, .T. ) ;
#1207 = CARTESIAN_POINT ( 'NONE',  ( 1.898202538678397557E-15, 35.50000000000000000, -15.50000000000000000 ) ) ;
#1208 = EDGE_CURVE ( 'NONE', #992, #517, #516, .T. ) ;
#1209 = LINE ( 'NONE', #301, #296 ) ;
#1210 = CYLINDRICAL_SURFACE ( 'NONE', #708, 1.250000000000000222 ) ;
#1211 = ORIENTED_EDGE ( 'NONE', *, *, #1141, .T. ) ;
#1212 = CARTESIAN_POINT ( 'NONE',  ( 0.000000000000000000, 3.000000000000002665, 17.00000000000000000 ) ) ;
#1213 = DIRECTION ( 'NONE',  ( -0.000000000000000000, 1.000000000000000000, -0.000000000000000000 ) ) ;
#1214 = PLANE ( 'NONE',  #1198 ) ;
#1215 = DIRECTION ( 'NONE',  ( -0.000000000000000000, 1.000000000000000000, -0.000000000000000000 ) ) ;
#1216 = ORIENTED_EDGE ( 'NONE', *, *, #635, .F. ) ;
#1217 = FACE_OUTER_BOUND ( 'NONE', #496, .T. ) ;
#1218 = FACE_BOUND ( 'NONE', #1028, .T. ) ;
#1219 = CC_DESIGN_APPROVAL ( #1151, ( #294 ) ) ;
#1220 = AXIS2_PLACEMENT_3D ( 'NONE', #129, #526, #917 ) ;
#1221 = CARTESIAN_POINT ( 'NONE',  ( -11.50000000000000000, 17.49999999999999645, 2.500000000000000444 ) ) ;
#1222 = AXIS2_PLACEMENT_3D ( 'NONE', #786, #604, #800 ) ;
#1223 = PERSON_AND_ORGANIZATION ( #141, #505 ) ;
#1224 = VECTOR ( 'NONE', #741, 1000.000000000000000 ) ;
#1225 = EDGE_LOOP ( 'NONE', ( #302, #937, #389, #51 ) ) ;
#1226 = DIRECTION ( 'NONE',  ( 0.000000000000000000, 0.000000000000000000, 1.000000000000000000 ) ) ;
#1227 = AXIS2_PLACEMENT_3D ( 'NONE', #32, #332, #798 ) ;
#1228 = CARTESIAN_POINT ( 'NONE',  ( -5.750000000000000000, 17.49999999999999645, -9.960000000000000853 ) ) ;
#1229 = FACE_OUTER_BOUND ( 'NONE', #46, .T. ) ;
#1230 = APPROVAL_STATUS ( 'not_yet_approved' ) ;
#1231 = CC_DESIGN_DATE_AND_TIME_ASSIGNMENT ( #50, #1056, ( #440 ) ) ;
#1232 = ORIENTED_EDGE ( 'NONE', *, *, #905, .T. ) ;
#1233 = DIRECTION ( 'NONE',  ( 0.000000000000000000, -1.000000000000000000, 0.000000000000000000 ) ) ;
#1234 = PLANE ( 'NONE',  #733 ) ;
#1235 = EDGE_CURVE ( 'NONE', #694, #893, #1204, .T. ) ;
#1236 = FACE_OUTER_BOUND ( 'NONE', #435, .T. ) ;
#1237 = SHAPE_DEFINITION_REPRESENTATION ( #365, #432 ) ;
#1238 = EDGE_LOOP ( 'NONE', ( #1013, #1116, #1091, #204 ) ) ;
#1239 = CARTESIAN_POINT ( 'NONE',  ( 6.717999999999999972, 5.000000000000000000, 7.967999999999999083 ) ) ;
#1240 = DIRECTION ( 'NONE',  ( 0.000000000000000000, -1.000000000000000000, 0.000000000000000000 ) ) ;
#1241 = DIRECTION ( 'NONE',  ( -0.000000000000000000, 1.000000000000000000, -0.000000000000000000 ) ) ;
#1242 = COORDINATED_UNIVERSAL_TIME_OFFSET ( 12, 0, .AHEAD. ) ;
#1243 = EDGE_CURVE ( 'NONE', #426, #984, #15, .T. ) ;
#1244 = ORIENTED_EDGE ( 'NONE', *, *, #403, .T. ) ;
#1245 = DIRECTION ( 'NONE',  ( 0.000000000000000000, 0.000000000000000000, 1.000000000000000000 ) ) ;
#1246 = AXIS2_PLACEMENT_3D ( 'NONE', #53, #255, #250 ) ;
#1247 = AXIS2_PLACEMENT_3D ( 'NONE', #146, #834, #420 ) ;
#1248 = DIRECTION ( 'NONE',  ( 0.000000000000000000, 0.000000000000000000, 1.000000000000000000 ) ) ;
#1249 = EDGE_CURVE ( 'NONE', #1034, #1045, #536, .T. ) ;
#1250 = DIRECTION ( 'NONE',  ( 0.000000000000000000, -1.000000000000000000, 0.000000000000000000 ) ) ;
#1251 = COORDINATED_UNIVERSAL_TIME_OFFSET ( 12, 0, .AHEAD. ) ;
#1252 = ORIENTED_EDGE ( 'NONE', *, *, #97, .T. ) ;
#1253 = CARTESIAN_POINT ( 'NONE',  ( 11.50000000000000000, 17.49999999999999645, 0.000000000000000000 ) ) ;
#1254 = FACE_OUTER_BOUND ( 'NONE', #762, .T. ) ;
#1255 = ORIENTED_EDGE ( 'NONE', *, *, #847, .F. ) ;
#1256 = FACE_OUTER_BOUND ( 'NONE', #783, .T. ) ;
#1257 = EDGE_CURVE ( 'NONE', #34, #198, #113, .T. ) ;
#1258 = EDGE_CURVE ( 'NONE', #452, #285, #1182, .T. ) ;
#1259 = DIRECTION ( 'NONE',  ( 0.000000000000000000, 0.000000000000000000, -1.000000000000000000 ) ) ;
#1260 = VERTEX_POINT ( 'NONE', #1123 ) ;
#1261 = DIRECTION ( 'NONE',  ( 0.000000000000000000, 0.000000000000000000, -1.000000000000000000 ) ) ;
#1262 = VECTOR ( 'NONE', #85, 1000.000000000000000 ) ;
#1263 = EDGE_LOOP ( 'NONE', ( #343, #759, #674, #1067 ) ) ;
#1264 = CIRCLE ( 'NONE', #96, 1.249999999999999334 ) ;
#1265 = CYLINDRICAL_SURFACE ( 'NONE', #587, 2.500000000000000444 ) ;
ENDSEC;
END-ISO-10303-21;
