ISO-10303-21;
HEADER;
FILE_DESCRIPTION (( 'STEP AP203' ),
    '1' );
FILE_NAME ('Receiver ELRS.step',
    '2026-09-29T04:50:24',
    ( '' ),
    ( '' ),
    '',
    '',
    '' );
FILE_SCHEMA (( 'CONFIG_CONTROL_DESIGN' ));
ENDSEC;

DATA;
#1 = EDGE_CURVE ( 'NONE', #41, #235, #26, .T. ) ;
#2 = PERSON_AND_ORGANIZATION_ROLE ( 'design_supplier' ) ;
#3 = CC_DESIGN_APPROVAL ( #172, ( #116 ) ) ;
#4 = LOCAL_TIME ( 17, 50, 24.00000000000000000, #55 ) ;
#5 = LINE ( 'NONE', #62, #64 ) ;
#6 = CC_DESIGN_PERSON_AND_ORGANIZATION_ASSIGNMENT ( #74, #147, ( #138 ) ) ;
#7 = EDGE_LOOP ( 'NONE', ( #100, #110, #113, #175 ) ) ;
#8 = DIRECTION ( 'NONE',  ( 0.000000000000000000, 1.000000000000000000, 0.000000000000000000 ) ) ;
#9 = ORIENTED_EDGE ( 'NONE', *, *, #190, .F. ) ;
#10 = DIRECTION ( 'NONE',  ( -1.000000000000000000, 0.000000000000000000, -0.000000000000000000 ) ) ;
#11 = AXIS2_PLACEMENT_3D ( 'NONE', #236, #50, #122 ) ;
#12 = FACE_OUTER_BOUND ( 'NONE', #33, .T. ) ;
#13 = CARTESIAN_POINT ( 'NONE',  ( -5.500000000000000000, 137.0000000000000000, -15.00000000000000000 ) ) ;
#14 = PERSON_AND_ORGANIZATION_ROLE ( 'creator' ) ;
#15 = VECTOR ( 'NONE', #176, 1000.000000000000000 ) ;
#16 = PLANE ( 'NONE',  #11 ) ;
#17 = APPROVAL_ROLE ( '' ) ;
#18 = ADVANCED_FACE ( 'NONE', ( #81 ), #42, .F. ) ;
#19 = DATE_AND_TIME ( #107, #136 ) ;
#20 = DATE_TIME_ROLE ( 'classification_date' ) ;
#21 = VECTOR ( 'NONE', #114, 1000.000000000000000 ) ;
#22 = CC_DESIGN_PERSON_AND_ORGANIZATION_ASSIGNMENT ( #178, #211, ( #226 ) ) ;
#23 = PLANE ( 'NONE',  #214 ) ;
#24 = DIRECTION ( 'NONE',  ( -1.000000000000000000, -0.000000000000000000, -0.000000000000000000 ) ) ;
#25 = PRODUCT_DEFINITION_SHAPE ( 'NONE', 'NONE',  #159 ) ;
#26 = LINE ( 'NONE', #170, #118 ) ;
#27 = PERSON ( 'UNSPECIFIED', 'UNSPECIFIED', 'UNSPECIFIED', ('UNSPECIFIED'), ('UNSPECIFIED'), ('UNSPECIFIED') ) ;
#28 = FACE_OUTER_BOUND ( 'NONE', #187, .T. ) ;
#29 = VERTEX_POINT ( 'NONE', #154 ) ;
#30 = LINE ( 'NONE', #87, #205 ) ;
#31 = CC_DESIGN_PERSON_AND_ORGANIZATION_ASSIGNMENT ( #179, #2, ( #116 ) ) ;
#32 = LINE ( 'NONE', #65, #127 ) ;
#33 = EDGE_LOOP ( 'NONE', ( #54, #77, #182, #9 ) ) ;
#34 = ORGANIZATION ( 'UNSPECIFIED', 'UNSPECIFIED', '' ) ;
#35 = CARTESIAN_POINT ( 'NONE',  ( -5.500000000000000000, 155.0000000000000000, -15.00000000000000000 ) ) ;
#36 = APPROVAL_PERSON_ORGANIZATION ( #215, #106, #200 ) ;
#37 = COORDINATED_UNIVERSAL_TIME_OFFSET ( 12, 0, .AHEAD. ) ;
#38 = DATE_TIME_ROLE ( 'creation_date' ) ;
#39 = ADVANCED_FACE ( 'NONE', ( #155 ), #206, .F. ) ;
#40 = APPROVAL_STATUS ( 'not_yet_approved' ) ;
#41 = VERTEX_POINT ( 'NONE', #167 ) ;
#42 = PLANE ( 'NONE',  #85 ) ;
#43 = ORIENTED_EDGE ( 'NONE', *, *, #125, .F. ) ;
#44 = EDGE_LOOP ( 'NONE', ( #137, #57, #128, #71 ) ) ;
#45 = LOCAL_TIME ( 17, 50, 24.00000000000000000, #37 ) ;
#46 = CC_DESIGN_APPROVAL ( #92, ( #159 ) ) ;
#47 = LINE ( 'NONE', #78, #196 ) ;
#48 = EDGE_CURVE ( 'NONE', #235, #201, #96, .T. ) ;
#49 = CC_DESIGN_PERSON_AND_ORGANIZATION_ASSIGNMENT ( #193, #14, ( #159 ) ) ;
#50 = DIRECTION ( 'NONE',  ( 0.000000000000000000, 0.000000000000000000, -1.000000000000000000 ) ) ;
#51 = COORDINATED_UNIVERSAL_TIME_OFFSET ( 12, 0, .AHEAD. ) ;
#52 = MECHANICAL_CONTEXT ( 'NONE', #133, 'mechanical' ) ;
#53 = SHAPE_DEFINITION_REPRESENTATION ( #25, #69 ) ;
#54 = ORIENTED_EDGE ( 'NONE', *, *, #48, .F. ) ;
#55 = COORDINATED_UNIVERSAL_TIME_OFFSET ( 12, 0, .AHEAD. ) ;
#56 = ADVANCED_FACE ( 'NONE', ( #80 ), #189, .F. ) ;
#57 = ORIENTED_EDGE ( 'NONE', *, *, #84, .T. ) ;
#58 = FACE_OUTER_BOUND ( 'NONE', #44, .T. ) ;
#59 = ADVANCED_FACE ( 'NONE', ( #28 ), #23, .F. ) ;
#60 = CARTESIAN_POINT ( 'NONE',  ( -5.500000000000000000, 137.0000000000000000, -15.00000000000000000 ) ) ;
#61 = DIRECTION ( 'NONE',  ( 0.000000000000000000, 0.000000000000000000, -1.000000000000000000 ) ) ;
#62 = CARTESIAN_POINT ( 'NONE',  ( -5.500000000000000000, 155.0000000000000000, -15.00000000000000000 ) ) ;
#63 = AXIS2_PLACEMENT_3D ( 'NONE', #227, #188, #168 ) ;
#64 = VECTOR ( 'NONE', #135, 1000.000000000000000 ) ;
#65 = CARTESIAN_POINT ( 'NONE',  ( -5.500000000000000000, 137.0000000000000000, -18.00000000000000000 ) ) ;
#66 = CARTESIAN_POINT ( 'NONE',  ( 5.500000000000000000, 137.0000000000000000, -15.00000000000000000 ) ) ;
#67 = APPLICATION_CONTEXT ( 'configuration controlled 3d designs of mechanical parts and assemblies' ) ;
#68 = CARTESIAN_POINT ( 'NONE',  ( 5.500000000000000000, 137.0000000000000000, -15.00000000000000000 ) ) ;
#69 = ADVANCED_BREP_SHAPE_REPRESENTATION ( 'Receiver ELRS', ( #111, #156 ), #144 ) ;
#70 = DATE_AND_TIME ( #180, #4 ) ;
#71 = ORIENTED_EDGE ( 'NONE', *, *, #163, .T. ) ;
#72 = CC_DESIGN_PERSON_AND_ORGANIZATION_ASSIGNMENT ( #109, #217, ( #116 ) ) ;
#73 = CC_DESIGN_SECURITY_CLASSIFICATION ( #138, ( #116 ) ) ;
#74 = PERSON_AND_ORGANIZATION ( #27, #34 ) ;
#75 = EDGE_CURVE ( 'NONE', #186, #235, #5, .T. ) ;
#76 = CLOSED_SHELL ( 'NONE', ( #56, #18, #39, #59, #99, #233 ) ) ;
#77 = ORIENTED_EDGE ( 'NONE', *, *, #1, .F. ) ;
#78 = CARTESIAN_POINT ( 'NONE',  ( 5.500000000000000000, 137.0000000000000000, -18.00000000000000000 ) ) ;
#79 = EDGE_CURVE ( 'NONE', #94, #41, #47, .T. ) ;
#80 = FACE_OUTER_BOUND ( 'NONE', #103, .T. ) ;
#81 = FACE_OUTER_BOUND ( 'NONE', #7, .T. ) ;
#82 = VERTEX_POINT ( 'NONE', #60 ) ;
#83 = CARTESIAN_POINT ( 'NONE',  ( -5.500000000000000000, 155.0000000000000000, -15.00000000000000000 ) ) ;
#84 = EDGE_CURVE ( 'NONE', #82, #115, #134, .T. ) ;
#85 = AXIS2_PLACEMENT_3D ( 'NONE', #185, #8, #225 ) ;
#86 = APPLICATION_PROTOCOL_DEFINITION ( 'international standard', 'config_control_design', 1994, #133 ) ;
#87 = CARTESIAN_POINT ( 'NONE',  ( -5.500000000000000000, 137.0000000000000000, -15.00000000000000000 ) ) ;
#88 = LINE ( 'NONE', #66, #149 ) ;
#89 = AXIS2_PLACEMENT_3D ( 'NONE', #98, #202, #10 ) ;
#90 = CARTESIAN_POINT ( 'NONE',  ( -5.500000000000000000, 155.0000000000000000, -18.00000000000000000 ) ) ;
#91 = CALENDAR_DATE ( 2026, 29, 9 ) ;
#92 = APPROVAL ( #102, 'UNSPECIFIED' ) ;
#93 = DATE_AND_TIME ( #143, #45 ) ;
#94 = VERTEX_POINT ( 'NONE', #120 ) ;
#95 = DIRECTION ( 'NONE',  ( 0.000000000000000000, -1.000000000000000000, 0.000000000000000000 ) ) ;
#96 = LINE ( 'NONE', #169, #218 ) ;
#97 = ORIENTED_EDGE ( 'NONE', *, *, #222, .T. ) ;
#98 = CARTESIAN_POINT ( 'NONE',  ( 0.000000000000000000, 0.000000000000000000, -15.00000000000000000 ) ) ;
#99 = ADVANCED_FACE ( 'NONE', ( #58 ), #203, .F. ) ;
#100 = ORIENTED_EDGE ( 'NONE', *, *, #190, .T. ) ;
#101 = APPROVAL_ROLE ( '' ) ;
#102 = APPROVAL_STATUS ( 'not_yet_approved' ) ;
#103 = EDGE_LOOP ( 'NONE', ( #145, #43, #161, #220 ) ) ;
#104 = APPROVAL_PERSON_ORGANIZATION ( #210, #92, #101 ) ;
#105 =( NAMED_UNIT ( * ) PLANE_ANGLE_UNIT ( ) SI_UNIT ( $, .RADIAN. ) );
#106 = APPROVAL ( #199, 'UNSPECIFIED' ) ;
#107 = CALENDAR_DATE ( 2026, 29, 9 ) ;
#108 = SECURITY_CLASSIFICATION_LEVEL ( 'unclassified' ) ;
#109 = PERSON_AND_ORGANIZATION ( #27, #34 ) ;
#110 = ORIENTED_EDGE ( 'NONE', *, *, #119, .F. ) ;
#111 = MANIFOLD_SOLID_BREP ( 'Boss-Extrude1', #76 ) ;
#112 = VECTOR ( 'NONE', #158, 1000.000000000000000 ) ;
#113 = ORIENTED_EDGE ( 'NONE', *, *, #84, .F. ) ;
#114 = DIRECTION ( 'NONE',  ( 1.000000000000000000, 0.000000000000000000, 0.000000000000000000 ) ) ;
#115 = VERTEX_POINT ( 'NONE', #230 ) ;
#116 = PRODUCT_DEFINITION_FORMATION_WITH_SPECIFIED_SOURCE ( 'ANY', '', #226, .NOT_KNOWN. ) ;
#117 = CARTESIAN_POINT ( 'NONE',  ( -5.500000000000000000, 137.0000000000000000, -15.00000000000000000 ) ) ;
#118 = VECTOR ( 'NONE', #24, 1000.000000000000000 ) ;
#119 = EDGE_CURVE ( 'NONE', #115, #94, #209, .T. ) ;
#120 = CARTESIAN_POINT ( 'NONE',  ( 5.500000000000000000, 137.0000000000000000, -18.00000000000000000 ) ) ;
#121 = DIRECTION ( 'NONE',  ( 1.000000000000000000, 0.000000000000000000, 0.000000000000000000 ) ) ;
#122 = DIRECTION ( 'NONE',  ( -1.000000000000000000, 0.000000000000000000, -0.000000000000000000 ) ) ;
#123 = EDGE_CURVE ( 'NONE', #115, #29, #88, .T. ) ;
#124 = APPROVAL_DATE_TIME ( #171, #92 ) ;
#125 = EDGE_CURVE ( 'NONE', #82, #201, #30, .T. ) ;
#126 = DIRECTION ( 'NONE',  ( 1.000000000000000000, 0.000000000000000000, 0.000000000000000000 ) ) ;
#127 = VECTOR ( 'NONE', #126, 1000.000000000000000 ) ;
#128 = ORIENTED_EDGE ( 'NONE', *, *, #123, .T. ) ;
#129 = COORDINATED_UNIVERSAL_TIME_OFFSET ( 12, 0, .AHEAD. ) ;
#130 = ORIENTED_EDGE ( 'NONE', *, *, #1, .T. ) ;
#131 = EDGE_LOOP ( 'NONE', ( #152, #157, #166, #151 ) ) ;
#132 = DIRECTION ( 'NONE',  ( 1.000000000000000000, 0.000000000000000000, 0.000000000000000000 ) ) ;
#133 = APPLICATION_CONTEXT ( 'configuration controlled 3d designs of mechanical parts and assemblies' ) ;
#134 = LINE ( 'NONE', #204, #21 ) ;
#135 = DIRECTION ( 'NONE',  ( -0.000000000000000000, -0.000000000000000000, -1.000000000000000000 ) ) ;
#136 = LOCAL_TIME ( 17, 50, 24.00000000000000000, #129 ) ;
#137 = ORIENTED_EDGE ( 'NONE', *, *, #146, .T. ) ;
#138 = SECURITY_CLASSIFICATION ( '', '', #108 ) ;
#139 = CARTESIAN_POINT ( 'NONE',  ( 5.500000000000000000, 155.0000000000000000, -15.00000000000000000 ) ) ;
#140 = CARTESIAN_POINT ( 'NONE',  ( -5.500000000000000000, 137.0000000000000000, -18.00000000000000000 ) ) ;
#141 = CALENDAR_DATE ( 2026, 29, 9 ) ;
#142 = LINE ( 'NONE', #13, #150 ) ;
#143 = CALENDAR_DATE ( 2026, 29, 9 ) ;
#144 =( GEOMETRIC_REPRESENTATION_CONTEXT ( 3 ) GLOBAL_UNCERTAINTY_ASSIGNED_CONTEXT ( ( #164 ) ) GLOBAL_UNIT_ASSIGNED_CONTEXT ( ( #195, #105, #208 ) ) REPRESENTATION_CONTEXT ( 'NONE', 'WORKASPACE' ) );
#145 = ORIENTED_EDGE ( 'NONE', *, *, #48, .T. ) ;
#146 = EDGE_CURVE ( 'NONE', #186, #82, #142, .T. ) ;
#147 = PERSON_AND_ORGANIZATION_ROLE ( 'classification_officer' ) ;
#148 = PRODUCT_RELATED_PRODUCT_CATEGORY ( 'detail', '', ( #226 ) ) ;
#149 = VECTOR ( 'NONE', #173, 1000.000000000000000 ) ;
#150 = VECTOR ( 'NONE', #160, 1000.000000000000000 ) ;
#151 = ORIENTED_EDGE ( 'NONE', *, *, #119, .T. ) ;
#152 = ORIENTED_EDGE ( 'NONE', *, *, #79, .T. ) ;
#153 = DIRECTION ( 'NONE',  ( 0.000000000000000000, -0.000000000000000000, -1.000000000000000000 ) ) ;
#154 = CARTESIAN_POINT ( 'NONE',  ( 5.500000000000000000, 155.0000000000000000, -15.00000000000000000 ) ) ;
#155 = FACE_OUTER_BOUND ( 'NONE', #131, .T. ) ;
#156 = AXIS2_PLACEMENT_3D ( 'NONE', #194, #192, #121 ) ;
#157 = ORIENTED_EDGE ( 'NONE', *, *, #222, .F. ) ;
#158 = DIRECTION ( 'NONE',  ( -0.000000000000000000, -0.000000000000000000, -1.000000000000000000 ) ) ;
#159 = PRODUCT_DEFINITION ( 'UNKNOWN', '', #116, #183 ) ;
#160 = DIRECTION ( 'NONE',  ( -0.000000000000000000, -1.000000000000000000, -0.000000000000000000 ) ) ;
#161 = ORIENTED_EDGE ( 'NONE', *, *, #146, .F. ) ;
#162 = DIRECTION ( 'NONE',  ( -0.000000000000000000, -0.000000000000000000, -1.000000000000000000 ) ) ;
#163 = EDGE_CURVE ( 'NONE', #29, #186, #212, .T. ) ;
#164 = UNCERTAINTY_MEASURE_WITH_UNIT (LENGTH_MEASURE( 1.000000000000000082E-05 ), #195, 'distance_accuracy_value', 'NONE');
#165 = CC_DESIGN_APPROVAL ( #106, ( #138 ) ) ;
#166 = ORIENTED_EDGE ( 'NONE', *, *, #123, .F. ) ;
#167 = CARTESIAN_POINT ( 'NONE',  ( 5.500000000000000000, 155.0000000000000000, -18.00000000000000000 ) ) ;
#168 = DIRECTION ( 'NONE',  ( 0.000000000000000000, 0.000000000000000000, 1.000000000000000000 ) ) ;
#169 = CARTESIAN_POINT ( 'NONE',  ( -5.500000000000000000, 137.0000000000000000, -18.00000000000000000 ) ) ;
#170 = CARTESIAN_POINT ( 'NONE',  ( -5.500000000000000000, 155.0000000000000000, -18.00000000000000000 ) ) ;
#171 = DATE_AND_TIME ( #141, #184 ) ;
#172 = APPROVAL ( #40, 'UNSPECIFIED' ) ;
#173 = DIRECTION ( 'NONE',  ( 0.000000000000000000, 1.000000000000000000, 0.000000000000000000 ) ) ;
#174 = LINE ( 'NONE', #139, #112 ) ;
#175 = ORIENTED_EDGE ( 'NONE', *, *, #125, .T. ) ;
#176 = DIRECTION ( 'NONE',  ( -0.000000000000000000, -0.000000000000000000, -1.000000000000000000 ) ) ;
#177 = LOCAL_TIME ( 17, 50, 24.00000000000000000, #219 ) ;
#178 = PERSON_AND_ORGANIZATION ( #27, #34 ) ;
#179 = PERSON_AND_ORGANIZATION ( #27, #34 ) ;
#180 = CALENDAR_DATE ( 2026, 29, 9 ) ;
#181 = APPROVAL_DATE_TIME ( #19, #106 ) ;
#182 = ORIENTED_EDGE ( 'NONE', *, *, #79, .F. ) ;
#183 = DESIGN_CONTEXT ( 'detailed design', #67, 'design' ) ;
#184 = LOCAL_TIME ( 17, 50, 24.00000000000000000, #51 ) ;
#185 = CARTESIAN_POINT ( 'NONE',  ( -5.500000000000000000, 137.0000000000000000, -15.00000000000000000 ) ) ;
#186 = VERTEX_POINT ( 'NONE', #35 ) ;
#187 = EDGE_LOOP ( 'NONE', ( #130, #198, #221, #97 ) ) ;
#188 = DIRECTION ( 'NONE',  ( -1.000000000000000000, 0.000000000000000000, 0.000000000000000000 ) ) ;
#189 = PLANE ( 'NONE',  #231 ) ;
#190 = EDGE_CURVE ( 'NONE', #201, #94, #32, .T. ) ;
#191 = APPLICATION_PROTOCOL_DEFINITION ( 'international standard', 'config_control_design', 1994, #67 ) ;
#192 = DIRECTION ( 'NONE',  ( 0.000000000000000000, 0.000000000000000000, 1.000000000000000000 ) ) ;
#193 = PERSON_AND_ORGANIZATION ( #27, #34 ) ;
#194 = CARTESIAN_POINT ( 'NONE',  ( 0.000000000000000000, 0.000000000000000000, 0.000000000000000000 ) ) ;
#195 =( LENGTH_UNIT ( ) NAMED_UNIT ( * ) SI_UNIT ( .MILLI., .METRE. ) );
#196 = VECTOR ( 'NONE', #223, 1000.000000000000000 ) ;
#197 = CC_DESIGN_DATE_AND_TIME_ASSIGNMENT ( #213, #38, ( #159 ) ) ;
#198 = ORIENTED_EDGE ( 'NONE', *, *, #75, .F. ) ;
#199 = APPROVAL_STATUS ( 'not_yet_approved' ) ;
#200 = APPROVAL_ROLE ( '' ) ;
#201 = VERTEX_POINT ( 'NONE', #140 ) ;
#202 = DIRECTION ( 'NONE',  ( 0.000000000000000000, 0.000000000000000000, -1.000000000000000000 ) ) ;
#203 = PLANE ( 'NONE',  #89 ) ;
#204 = CARTESIAN_POINT ( 'NONE',  ( -5.500000000000000000, 137.0000000000000000, -15.00000000000000000 ) ) ;
#205 = VECTOR ( 'NONE', #162, 1000.000000000000000 ) ;
#206 = PLANE ( 'NONE',  #63 ) ;
#207 = APPROVAL_PERSON_ORGANIZATION ( #216, #172, #17 ) ;
#208 =( NAMED_UNIT ( * ) SI_UNIT ( $, .STERADIAN. ) SOLID_ANGLE_UNIT ( ) );
#209 = LINE ( 'NONE', #68, #15 ) ;
#210 = PERSON_AND_ORGANIZATION ( #27, #34 ) ;
#211 = PERSON_AND_ORGANIZATION_ROLE ( 'design_owner' ) ;
#212 = LINE ( 'NONE', #232, #229 ) ;
#213 = DATE_AND_TIME ( #91, #177 ) ;
#214 = AXIS2_PLACEMENT_3D ( 'NONE', #83, #95, #153 ) ;
#215 = PERSON_AND_ORGANIZATION ( #27, #34 ) ;
#216 = PERSON_AND_ORGANIZATION ( #27, #34 ) ;
#217 = PERSON_AND_ORGANIZATION_ROLE ( 'creator' ) ;
#218 = VECTOR ( 'NONE', #228, 1000.000000000000000 ) ;
#219 = COORDINATED_UNIVERSAL_TIME_OFFSET ( 12, 0, .AHEAD. ) ;
#220 = ORIENTED_EDGE ( 'NONE', *, *, #75, .T. ) ;
#221 = ORIENTED_EDGE ( 'NONE', *, *, #163, .F. ) ;
#222 = EDGE_CURVE ( 'NONE', #29, #41, #174, .T. ) ;
#223 = DIRECTION ( 'NONE',  ( 0.000000000000000000, 1.000000000000000000, 0.000000000000000000 ) ) ;
#224 = CC_DESIGN_DATE_AND_TIME_ASSIGNMENT ( #93, #20, ( #138 ) ) ;
#225 = DIRECTION ( 'NONE',  ( 0.000000000000000000, -0.000000000000000000, 1.000000000000000000 ) ) ;
#226 = PRODUCT ( 'Receiver ELRS', 'Receiver ELRS', '', ( #52 ) ) ;
#227 = CARTESIAN_POINT ( 'NONE',  ( 5.500000000000000000, 137.0000000000000000, -15.00000000000000000 ) ) ;
#228 = DIRECTION ( 'NONE',  ( -0.000000000000000000, -1.000000000000000000, -0.000000000000000000 ) ) ;
#229 = VECTOR ( 'NONE', #234, 1000.000000000000000 ) ;
#230 = CARTESIAN_POINT ( 'NONE',  ( 5.500000000000000000, 137.0000000000000000, -15.00000000000000000 ) ) ;
#231 = AXIS2_PLACEMENT_3D ( 'NONE', #117, #132, #61 ) ;
#232 = CARTESIAN_POINT ( 'NONE',  ( -5.500000000000000000, 155.0000000000000000, -15.00000000000000000 ) ) ;
#233 = ADVANCED_FACE ( 'NONE', ( #12 ), #16, .T. ) ;
#234 = DIRECTION ( 'NONE',  ( -1.000000000000000000, -0.000000000000000000, -0.000000000000000000 ) ) ;
#235 = VERTEX_POINT ( 'NONE', #90 ) ;
#236 = CARTESIAN_POINT ( 'NONE',  ( 0.000000000000000000, 0.000000000000000000, -18.00000000000000000 ) ) ;
#237 = APPROVAL_DATE_TIME ( #70, #172 ) ;
ENDSEC;
END-ISO-10303-21;
