ISO-10303-21;
HEADER;
FILE_DESCRIPTION (( 'STEP AP203' ),
    '1' );
FILE_NAME ('Spike.step',
    '2026-09-29T04:50:23',
    ( '' ),
    ( '' ),
    '',
    '',
    '' );
FILE_SCHEMA (( 'CONFIG_CONTROL_DESIGN' ));
ENDSEC;

DATA;
#1 = LOCAL_TIME ( 17, 50, 23.00000000000000000, #127 ) ;
#2 = VERTEX_POINT ( 'NONE', #49 ) ;
#3 = ORIENTED_EDGE ( 'NONE', *, *, #51, .T. ) ;
#4 = EDGE_LOOP ( 'NONE', ( #194, #131, #3, #147 ) ) ;
#5 = VECTOR ( 'NONE', #83, 1000.000000000000000 ) ;
#6 = DATE_TIME_ROLE ( 'classification_date' ) ;
#7 = ORIENTED_EDGE ( 'NONE', *, *, #24, .T. ) ;
#8 = EDGE_CURVE ( 'NONE', #46, #132, #153, .T. ) ;
#9 = ORIENTED_EDGE ( 'NONE', *, *, #190, .T. ) ;
#10 = FACE_OUTER_BOUND ( 'NONE', #206, .T. ) ;
#11 = CC_DESIGN_APPROVAL ( #214, ( #114 ) ) ;
#12 = ORIENTED_EDGE ( 'NONE', *, *, #8, .T. ) ;
#13 = FACE_BOUND ( 'NONE', #178, .T. ) ;
#14 = FACE_OUTER_BOUND ( 'NONE', #212, .T. ) ;
#15 = CIRCLE ( 'NONE', #78, 12.80000000000000604 ) ;
#16 = DATE_AND_TIME ( #55, #179 ) ;
#17 = AXIS2_PLACEMENT_3D ( 'NONE', #209, #76, #72 ) ;
#18 = CYLINDRICAL_SURFACE ( 'NONE', #185, 12.80000000000000604 ) ;
#19 = PERSON_AND_ORGANIZATION ( #116, #208 ) ;
#20 = CC_DESIGN_PERSON_AND_ORGANIZATION_ASSIGNMENT ( #19, #158, ( #222 ) ) ;
#21 = COORDINATED_UNIVERSAL_TIME_OFFSET ( 12, 0, .AHEAD. ) ;
#22 = EDGE_LOOP ( 'NONE', ( #115, #12 ) ) ;
#23 = APPROVAL_STATUS ( 'not_yet_approved' ) ;
#24 = EDGE_CURVE ( 'NONE', #2, #81, #28, .T. ) ;
#25 = VERTEX_POINT ( 'NONE', #70 ) ;
#26 = DIRECTION ( 'NONE',  ( -0.000000000000000000, 1.000000000000000000, -0.000000000000000000 ) ) ;
#27 = CC_DESIGN_PERSON_AND_ORGANIZATION_ASSIGNMENT ( #210, #229, ( #114 ) ) ;
#28 = LINE ( 'NONE', #216, #5 ) ;
#29 = AXIS2_PLACEMENT_3D ( 'NONE', #228, #142, #175 ) ;
#30 = DIRECTION ( 'NONE',  ( -0.000000000000000000, 1.000000000000000000, -0.000000000000000000 ) ) ;
#31 = APPLICATION_CONTEXT ( 'configuration controlled 3d designs of mechanical parts and assemblies' ) ;
#32 = FACE_OUTER_BOUND ( 'NONE', #61, .T. ) ;
#33 = CARTESIAN_POINT ( 'NONE',  ( 190.0000000000000000, 1030.000000000000000, 0.000000000000000000 ) ) ;
#34 =( LENGTH_UNIT ( ) NAMED_UNIT ( * ) SI_UNIT ( .MILLI., .METRE. ) );
#35 = APPROVAL ( #173, 'UNSPECIFIED' ) ;
#36 = LOCAL_TIME ( 17, 50, 23.00000000000000000, #156 ) ;
#37 =( NAMED_UNIT ( * ) PLANE_ANGLE_UNIT ( ) SI_UNIT ( $, .RADIAN. ) );
#38 = DATE_AND_TIME ( #224, #36 ) ;
#39 = APPROVAL_DATE_TIME ( #16, #35 ) ;
#40 = APPROVAL_PERSON_ORGANIZATION ( #162, #35, #94 ) ;
#41 = PERSON_AND_ORGANIZATION_ROLE ( 'creator' ) ;
#42 = DESIGN_CONTEXT ( 'detailed design', #31, 'design' ) ;
#43 = ADVANCED_FACE ( 'NONE', ( #32 ), #137, .T. ) ;
#44 = SHAPE_DEFINITION_REPRESENTATION ( #155, #219 ) ;
#45 = APPROVAL_PERSON_ORGANIZATION ( #166, #220, #47 ) ;
#46 = VERTEX_POINT ( 'NONE', #104 ) ;
#47 = APPROVAL_ROLE ( '' ) ;
#48 = ORIENTED_EDGE ( 'NONE', *, *, #197, .F. ) ;
#49 = CARTESIAN_POINT ( 'NONE',  ( 190.0000000000000000, 30.00000000000000000, 0.000000000000000000 ) ) ;
#50 = EDGE_LOOP ( 'NONE', ( #169, #64, #48 ) ) ;
#51 = EDGE_CURVE ( 'NONE', #183, #132, #221, .T. ) ;
#52 = CARTESIAN_POINT ( 'NONE',  ( 190.0000000000000000, 105.0000000000000000, -16.99999999999998579 ) ) ;
#53 = APPROVAL_PERSON_ORGANIZATION ( #177, #214, #111 ) ;
#54 = DIRECTION ( 'NONE',  ( 0.000000000000000000, 0.000000000000000000, 1.000000000000000000 ) ) ;
#55 = CALENDAR_DATE ( 2026, 29, 9 ) ;
#56 = CARTESIAN_POINT ( 'NONE',  ( 190.0000000000000000, 113.0000000000000000, 0.000000000000000000 ) ) ;
#57 = CONICAL_SURFACE ( 'NONE', #181, 226.6666666666665151, 0.2229002323283756637 ) ;
#58 = MECHANICAL_CONTEXT ( 'NONE', #126, 'mechanical' ) ;
#59 = EDGE_CURVE ( 'NONE', #80, #183, #167, .T. ) ;
#60 = CC_DESIGN_DATE_AND_TIME_ASSIGNMENT ( #180, #6, ( #141 ) ) ;
#61 = EDGE_LOOP ( 'NONE', ( #99, #7, #121 ) ) ;
#62 = VECTOR ( 'NONE', #187, 1000.000000000000000 ) ;
#63 = DATE_AND_TIME ( #164, #73 ) ;
#64 = ORIENTED_EDGE ( 'NONE', *, *, #100, .T. ) ;
#65 = DIRECTION ( 'NONE',  ( -0.000000000000000000, 1.000000000000000000, -0.000000000000000000 ) ) ;
#66 = AXIS2_PLACEMENT_3D ( 'NONE', #33, #30, #54 ) ;
#67 = CARTESIAN_POINT ( 'NONE',  ( 190.0000000000000000, 113.0000000000000000, 0.000000000000000000 ) ) ;
#68 = DIRECTION ( 'NONE',  ( -0.000000000000000000, 1.000000000000000000, -0.000000000000000000 ) ) ;
#69 = DIRECTION ( 'NONE',  ( -0.000000000000000000, 1.000000000000000000, -0.000000000000000000 ) ) ;
#70 = CARTESIAN_POINT ( 'NONE',  ( 190.0000000000000000, 105.0000000000000000, 16.99999999999998579 ) ) ;
#71 = CC_DESIGN_DATE_AND_TIME_ASSIGNMENT ( #112, #207, ( #113 ) ) ;
#72 = DIRECTION ( 'NONE',  ( 1.000000000000000000, 0.000000000000000000, 0.000000000000000000 ) ) ;
#73 = LOCAL_TIME ( 17, 50, 23.00000000000000000, #82 ) ;
#74 = APPLICATION_PROTOCOL_DEFINITION ( 'international standard', 'config_control_design', 1994, #31 ) ;
#75 = ADVANCED_FACE ( 'NONE', ( #14 ), #102, .T. ) ;
#76 = DIRECTION ( 'NONE',  ( 0.000000000000000000, 0.000000000000000000, 1.000000000000000000 ) ) ;
#77 = SECURITY_CLASSIFICATION_LEVEL ( 'unclassified' ) ;
#78 = AXIS2_PLACEMENT_3D ( 'NONE', #133, #199, #119 ) ;
#79 = ADVANCED_FACE ( 'NONE', ( #188 ), #57, .T. ) ;
#80 = VERTEX_POINT ( 'NONE', #122 ) ;
#81 = VERTEX_POINT ( 'NONE', #52 ) ;
#82 = COORDINATED_UNIVERSAL_TIME_OFFSET ( 12, 0, .AHEAD. ) ;
#83 = DIRECTION ( 'NONE',  ( 2.707192342993518792E-17, 0.9752604293065799679, -0.2210590306428246443 ) ) ;
#84 = EDGE_CURVE ( 'NONE', #132, #46, #15, .T. ) ;
#85 = CARTESIAN_POINT ( 'NONE',  ( 207.0000000000000000, 105.0000000000000000, 0.000000000000000000 ) ) ;
#86 = DIRECTION ( 'NONE',  ( -0.000000000000000000, 1.000000000000000000, -0.000000000000000000 ) ) ;
#87 = CARTESIAN_POINT ( 'NONE',  ( 190.0000000000000000, 113.0000000000000000, 12.80000000000000604 ) ) ;
#88 = DIRECTION ( 'NONE',  ( 0.000000000000000000, 0.000000000000000000, 1.000000000000000000 ) ) ;
#89 = AXIS2_PLACEMENT_3D ( 'NONE', #152, #69, #136 ) ;
#90 = ADVANCED_FACE ( 'NONE', ( #13, #10 ), #105, .F. ) ;
#91 = APPLICATION_PROTOCOL_DEFINITION ( 'international standard', 'config_control_design', 1994, #126 ) ;
#92 = APPROVAL_STATUS ( 'not_yet_approved' ) ;
#93 = AXIS2_PLACEMENT_3D ( 'NONE', #85, #108, #150 ) ;
#94 = APPROVAL_ROLE ( '' ) ;
#95 = DIRECTION ( 'NONE',  ( -0.000000000000000000, 1.000000000000000000, -0.000000000000000000 ) ) ;
#96 = PRODUCT_RELATED_PRODUCT_CATEGORY ( 'detail', '', ( #222 ) ) ;
#97 = CIRCLE ( 'NONE', #89, 12.80000000000000604 ) ;
#98 = ORIENTED_EDGE ( 'NONE', *, *, #148, .T. ) ;
#99 = ORIENTED_EDGE ( 'NONE', *, *, #100, .F. ) ;
#100 = EDGE_CURVE ( 'NONE', #2, #25, #107, .T. ) ;
#101 = CLOSED_SHELL ( 'NONE', ( #75, #43, #79, #90, #200, #109 ) ) ;
#102 = CYLINDRICAL_SURFACE ( 'NONE', #117, 12.80000000000000604 ) ;
#103 = EDGE_CURVE ( 'NONE', #80, #46, #201, .T. ) ;
#104 = CARTESIAN_POINT ( 'NONE',  ( 190.0000000000000000, 113.0000000000000000, -12.80000000000000604 ) ) ;
#105 = PLANE ( 'NONE',  #93 ) ;
#106 = CC_DESIGN_SECURITY_CLASSIFICATION ( #141, ( #114 ) ) ;
#107 = LINE ( 'NONE', #171, #130 ) ;
#108 = DIRECTION ( 'NONE',  ( 0.000000000000000000, -1.000000000000000000, 0.000000000000000000 ) ) ;
#109 = ADVANCED_FACE ( 'NONE', ( #217 ), #184, .F. ) ;
#110 =( GEOMETRIC_REPRESENTATION_CONTEXT ( 3 ) GLOBAL_UNCERTAINTY_ASSIGNED_CONTEXT ( ( #128 ) ) GLOBAL_UNIT_ASSIGNED_CONTEXT ( ( #34, #37, #124 ) ) REPRESENTATION_CONTEXT ( 'NONE', 'WORKASPACE' ) );
#111 = APPROVAL_ROLE ( '' ) ;
#112 = DATE_AND_TIME ( #139, #1 ) ;
#113 = PRODUCT_DEFINITION ( 'UNKNOWN', '', #114, #42 ) ;
#114 = PRODUCT_DEFINITION_FORMATION_WITH_SPECIFIED_SOURCE ( 'ANY', '', #222, .NOT_KNOWN. ) ;
#115 = ORIENTED_EDGE ( 'NONE', *, *, #84, .T. ) ;
#116 = PERSON ( 'UNSPECIFIED', 'UNSPECIFIED', 'UNSPECIFIED', ('UNSPECIFIED'), ('UNSPECIFIED'), ('UNSPECIFIED') ) ;
#117 = AXIS2_PLACEMENT_3D ( 'NONE', #67, #68, #149 ) ;
#118 = DIRECTION ( 'NONE',  ( -0.000000000000000000, 1.000000000000000000, -0.000000000000000000 ) ) ;
#119 = DIRECTION ( 'NONE',  ( 0.000000000000000000, 0.000000000000000000, 1.000000000000000000 ) ) ;
#120 = CARTESIAN_POINT ( 'NONE',  ( 190.0000000000000000, 113.0000000000000000, -12.80000000000000604 ) ) ;
#121 = ORIENTED_EDGE ( 'NONE', *, *, #190, .F. ) ;
#122 = CARTESIAN_POINT ( 'NONE',  ( 190.0000000000000000, 105.0000000000000000, -12.80000000000000604 ) ) ;
#123 = PERSON_AND_ORGANIZATION ( #116, #208 ) ;
#124 =( NAMED_UNIT ( * ) SI_UNIT ( $, .STERADIAN. ) SOLID_ANGLE_UNIT ( ) );
#125 = DIRECTION ( 'NONE',  ( 0.000000000000000000, 0.000000000000000000, 1.000000000000000000 ) ) ;
#126 = APPLICATION_CONTEXT ( 'configuration controlled 3d designs of mechanical parts and assemblies' ) ;
#127 = COORDINATED_UNIVERSAL_TIME_OFFSET ( 12, 0, .AHEAD. ) ;
#128 = UNCERTAINTY_MEASURE_WITH_UNIT (LENGTH_MEASURE( 1.000000000000000082E-05 ), #34, 'distance_accuracy_value', 'NONE');
#129 = ORIENTED_EDGE ( 'NONE', *, *, #148, .F. ) ;
#130 = VECTOR ( 'NONE', #134, 1000.000000000000000 ) ;
#131 = ORIENTED_EDGE ( 'NONE', *, *, #59, .T. ) ;
#132 = VERTEX_POINT ( 'NONE', #87 ) ;
#133 = CARTESIAN_POINT ( 'NONE',  ( 190.0000000000000000, 113.0000000000000000, 0.000000000000000000 ) ) ;
#134 = DIRECTION ( 'NONE',  ( 0.000000000000000000, 0.9752604293065799679, 0.2210590306428246443 ) ) ;
#135 = CARTESIAN_POINT ( 'NONE',  ( 202.8000000000000114, 113.0000000000000000, 0.000000000000000000 ) ) ;
#136 = DIRECTION ( 'NONE',  ( 0.000000000000000000, 0.000000000000000000, 1.000000000000000000 ) ) ;
#137 = CONICAL_SURFACE ( 'NONE', #66, 226.6666666666665151, 0.2229002323283756637 ) ;
#138 = ORIENTED_EDGE ( 'NONE', *, *, #59, .F. ) ;
#139 = CALENDAR_DATE ( 2026, 29, 9 ) ;
#140 = COORDINATED_UNIVERSAL_TIME_OFFSET ( 12, 0, .AHEAD. ) ;
#141 = SECURITY_CLASSIFICATION ( '', '', #77 ) ;
#142 = DIRECTION ( 'NONE',  ( -0.000000000000000000, 1.000000000000000000, -0.000000000000000000 ) ) ;
#143 = PERSON_AND_ORGANIZATION ( #116, #208 ) ;
#144 = ORIENTED_EDGE ( 'NONE', *, *, #103, .T. ) ;
#145 = ORIENTED_EDGE ( 'NONE', *, *, #197, .T. ) ;
#146 = CC_DESIGN_PERSON_AND_ORGANIZATION_ASSIGNMENT ( #123, #189, ( #141 ) ) ;
#147 = ORIENTED_EDGE ( 'NONE', *, *, #8, .F. ) ;
#148 = EDGE_CURVE ( 'NONE', #183, #80, #97, .T. ) ;
#149 = DIRECTION ( 'NONE',  ( 0.000000000000000000, 0.000000000000000000, 1.000000000000000000 ) ) ;
#150 = DIRECTION ( 'NONE',  ( 0.000000000000000000, -0.000000000000000000, -1.000000000000000000 ) ) ;
#151 = DIRECTION ( 'NONE',  ( 0.000000000000000000, 0.000000000000000000, 1.000000000000000000 ) ) ;
#152 = CARTESIAN_POINT ( 'NONE',  ( 190.0000000000000000, 105.0000000000000000, 0.000000000000000000 ) ) ;
#153 = CIRCLE ( 'NONE', #226, 12.80000000000000604 ) ;
#154 = DIRECTION ( 'NONE',  ( 0.000000000000000000, 0.000000000000000000, 1.000000000000000000 ) ) ;
#155 = PRODUCT_DEFINITION_SHAPE ( 'NONE', 'NONE',  #113 ) ;
#156 = COORDINATED_UNIVERSAL_TIME_OFFSET ( 12, 0, .AHEAD. ) ;
#157 = VECTOR ( 'NONE', #86, 1000.000000000000000 ) ;
#158 = PERSON_AND_ORGANIZATION_ROLE ( 'design_owner' ) ;
#159 = AXIS2_PLACEMENT_3D ( 'NONE', #168, #26, #88 ) ;
#160 = FACE_OUTER_BOUND ( 'NONE', #4, .T. ) ;
#161 = CC_DESIGN_PERSON_AND_ORGANIZATION_ASSIGNMENT ( #192, #227, ( #113 ) ) ;
#162 = PERSON_AND_ORGANIZATION ( #116, #208 ) ;
#163 = CIRCLE ( 'NONE', #29, 16.99999999999998579 ) ;
#164 = CALENDAR_DATE ( 2026, 29, 9 ) ;
#165 = APPROVAL_DATE_TIME ( #63, #220 ) ;
#166 = PERSON_AND_ORGANIZATION ( #116, #208 ) ;
#167 = CIRCLE ( 'NONE', #159, 12.80000000000000604 ) ;
#168 = CARTESIAN_POINT ( 'NONE',  ( 190.0000000000000000, 105.0000000000000000, 0.000000000000000000 ) ) ;
#169 = ORIENTED_EDGE ( 'NONE', *, *, #24, .F. ) ;
#170 = DIRECTION ( 'NONE',  ( 0.000000000000000000, -0.000000000000000000, -1.000000000000000000 ) ) ;
#171 = CARTESIAN_POINT ( 'NONE',  ( 190.0000000000000000, 30.00000000000000000, 0.000000000000000000 ) ) ;
#172 = AXIS2_PLACEMENT_3D ( 'NONE', #191, #174, #223 ) ;
#173 = APPROVAL_STATUS ( 'not_yet_approved' ) ;
#174 = DIRECTION ( 'NONE',  ( -0.000000000000000000, 1.000000000000000000, -0.000000000000000000 ) ) ;
#175 = DIRECTION ( 'NONE',  ( 0.000000000000000000, 0.000000000000000000, 1.000000000000000000 ) ) ;
#176 = LOCAL_TIME ( 17, 50, 23.00000000000000000, #21 ) ;
#177 = PERSON_AND_ORGANIZATION ( #116, #208 ) ;
#178 = EDGE_LOOP ( 'NONE', ( #129, #138 ) ) ;
#179 = LOCAL_TIME ( 17, 50, 23.00000000000000000, #140 ) ;
#180 = DATE_AND_TIME ( #196, #176 ) ;
#181 = AXIS2_PLACEMENT_3D ( 'NONE', #215, #65, #151 ) ;
#182 = CARTESIAN_POINT ( 'NONE',  ( 190.0000000000000000, 113.0000000000000000, 12.80000000000000604 ) ) ;
#183 = VERTEX_POINT ( 'NONE', #205 ) ;
#184 = PLANE ( 'NONE',  #213 ) ;
#185 = AXIS2_PLACEMENT_3D ( 'NONE', #56, #95, #125 ) ;
#186 = CC_DESIGN_APPROVAL ( #35, ( #113 ) ) ;
#187 = DIRECTION ( 'NONE',  ( -0.000000000000000000, 1.000000000000000000, -0.000000000000000000 ) ) ;
#188 = FACE_OUTER_BOUND ( 'NONE', #50, .T. ) ;
#189 = PERSON_AND_ORGANIZATION_ROLE ( 'classification_officer' ) ;
#190 = EDGE_CURVE ( 'NONE', #25, #81, #204, .T. ) ;
#191 = CARTESIAN_POINT ( 'NONE',  ( 190.0000000000000000, 105.0000000000000000, 0.000000000000000000 ) ) ;
#192 = PERSON_AND_ORGANIZATION ( #116, #208 ) ;
#193 = APPROVAL_DATE_TIME ( #38, #214 ) ;
#194 = ORIENTED_EDGE ( 'NONE', *, *, #103, .F. ) ;
#195 = CC_DESIGN_APPROVAL ( #220, ( #141 ) ) ;
#196 = CALENDAR_DATE ( 2026, 29, 9 ) ;
#197 = EDGE_CURVE ( 'NONE', #81, #25, #163, .T. ) ;
#198 = ORIENTED_EDGE ( 'NONE', *, *, #51, .F. ) ;
#199 = DIRECTION ( 'NONE',  ( -0.000000000000000000, 1.000000000000000000, -0.000000000000000000 ) ) ;
#200 = ADVANCED_FACE ( 'NONE', ( #160 ), #18, .T. ) ;
#201 = LINE ( 'NONE', #120, #157 ) ;
#202 = MANIFOLD_SOLID_BREP ( 'Revolve1', #101 ) ;
#203 = CARTESIAN_POINT ( 'NONE',  ( 190.0000000000000000, 113.0000000000000000, 0.000000000000000000 ) ) ;
#204 = CIRCLE ( 'NONE', #172, 16.99999999999998579 ) ;
#205 = CARTESIAN_POINT ( 'NONE',  ( 190.0000000000000000, 105.0000000000000000, 12.80000000000000604 ) ) ;
#206 = EDGE_LOOP ( 'NONE', ( #9, #145 ) ) ;
#207 = DATE_TIME_ROLE ( 'creation_date' ) ;
#208 = ORGANIZATION ( 'UNSPECIFIED', 'UNSPECIFIED', '' ) ;
#209 = CARTESIAN_POINT ( 'NONE',  ( 0.000000000000000000, 0.000000000000000000, 0.000000000000000000 ) ) ;
#210 = PERSON_AND_ORGANIZATION ( #116, #208 ) ;
#211 = ORIENTED_EDGE ( 'NONE', *, *, #84, .F. ) ;
#212 = EDGE_LOOP ( 'NONE', ( #98, #144, #211, #198 ) ) ;
#213 = AXIS2_PLACEMENT_3D ( 'NONE', #135, #218, #170 ) ;
#214 = APPROVAL ( #92, 'UNSPECIFIED' ) ;
#215 = CARTESIAN_POINT ( 'NONE',  ( 190.0000000000000000, 1030.000000000000000, 0.000000000000000000 ) ) ;
#216 = CARTESIAN_POINT ( 'NONE',  ( 190.0000000000000000, 30.00000000000000000, 0.000000000000000000 ) ) ;
#217 = FACE_OUTER_BOUND ( 'NONE', #22, .T. ) ;
#218 = DIRECTION ( 'NONE',  ( 0.000000000000000000, -1.000000000000000000, 0.000000000000000000 ) ) ;
#219 = ADVANCED_BREP_SHAPE_REPRESENTATION ( 'Spike', ( #202, #17 ), #110 ) ;
#220 = APPROVAL ( #23, 'UNSPECIFIED' ) ;
#221 = LINE ( 'NONE', #182, #62 ) ;
#222 = PRODUCT ( 'Spike', 'Spike', '', ( #58 ) ) ;
#223 = DIRECTION ( 'NONE',  ( 0.000000000000000000, 0.000000000000000000, 1.000000000000000000 ) ) ;
#224 = CALENDAR_DATE ( 2026, 29, 9 ) ;
#225 = CC_DESIGN_PERSON_AND_ORGANIZATION_ASSIGNMENT ( #143, #41, ( #114 ) ) ;
#226 = AXIS2_PLACEMENT_3D ( 'NONE', #203, #118, #154 ) ;
#227 = PERSON_AND_ORGANIZATION_ROLE ( 'creator' ) ;
#228 = CARTESIAN_POINT ( 'NONE',  ( 190.0000000000000000, 105.0000000000000000, 0.000000000000000000 ) ) ;
#229 = PERSON_AND_ORGANIZATION_ROLE ( 'design_supplier' ) ;
ENDSEC;
END-ISO-10303-21;
