ISO-10303-21;
HEADER;
FILE_DESCRIPTION (( 'STEP AP203' ),
    '1' );
FILE_NAME ('Tail Cap Rev 2.step',
    '2026-09-30T09:37:13',
    ( '' ),
    ( '' ),
    '',
    '',
    '' );
FILE_SCHEMA (( 'CONFIG_CONTROL_DESIGN' ));
ENDSEC;

DATA;
#1 = DIRECTION ( 'NONE',  ( -0.000000000000000000, -1.000000000000000000, -0.000000000000000000 ) ) ;
#2 = CARTESIAN_POINT ( 'NONE',  ( 45.69999999999999574, 33.50000000000000000, 0.000000000000000000 ) ) ;
#3 = AXIS2_PLACEMENT_3D ( 'NONE', #1096, #1091, #622 ) ;
#4 = FACE_OUTER_BOUND ( 'NONE', #40, .T. ) ;
#5 = TOROIDAL_SURFACE ( 'NONE', #233, -106.2500000000000000, 156.2500000000000000 ) ;
#6 = AXIS2_PLACEMENT_3D ( 'NONE', #77, #803, #522 ) ;
#7 = ORIENTED_EDGE ( 'NONE', *, *, #325, .T. ) ;
#8 = CARTESIAN_POINT ( 'NONE',  ( 0.000000000000000000, 39.00000000000000000, 0.000000000000000000 ) ) ;
#9 = DIRECTION ( 'NONE',  ( 0.000000000000000000, 0.000000000000000000, 1.000000000000000000 ) ) ;
#10 = EDGE_LOOP ( 'NONE', ( #500, #651, #50, #387 ) ) ;
#11 = CARTESIAN_POINT ( 'NONE',  ( 0.000000000000000000, 2.000000000000000000, -0.4000000000000000222 ) ) ;
#12 = EDGE_LOOP ( 'NONE', ( #878, #726, #154, #653 ) ) ;
#13 = DIRECTION ( 'NONE',  ( -0.000000000000000000, -1.000000000000000000, -0.000000000000000000 ) ) ;
#14 = DIRECTION ( 'NONE',  ( -0.6990395791467096664, 0.000000000000000000, 0.7150829789516677248 ) ) ;
#15 = EDGE_LOOP ( 'NONE', ( #58, #504, #1155, #497 ) ) ;
#16 = DIRECTION ( 'NONE',  ( 0.000000000000000000, 0.000000000000000000, -1.000000000000000000 ) ) ;
#17 = ORIENTED_EDGE ( 'NONE', *, *, #722, .T. ) ;
#18 = DIRECTION ( 'NONE',  ( -0.000000000000000000, -1.000000000000000000, -0.000000000000000000 ) ) ;
#19 =( NAMED_UNIT ( * ) PLANE_ANGLE_UNIT ( ) SI_UNIT ( $, .RADIAN. ) );
#20 = DIRECTION ( 'NONE',  ( -0.9629275232676670626, 0.000000000000000000, 0.2697602360126419296 ) ) ;
#21 = CIRCLE ( 'NONE', #329, 46.30000000000000426 ) ;
#22 = DIRECTION ( 'NONE',  ( 0.9858501284635584616, 0.000000000000000000, 0.1676291269689882957 ) ) ;
#23 = APPROVAL_PERSON_ORGANIZATION ( #840, #564, #135 ) ;
#24 = ADVANCED_FACE ( 'NONE', ( #157 ), #882, .F. ) ;
#25 = SECURITY_CLASSIFICATION ( '', '', #855 ) ;
#26 = EDGE_CURVE ( 'NONE', #784, #105, #432, .T. ) ;
#27 = ORIENTED_EDGE ( 'NONE', *, *, #443, .F. ) ;
#28 = VERTEX_POINT ( 'NONE', #978 ) ;
#29 = DIRECTION ( 'NONE',  ( -0.000000000000000000, 1.000000000000000000, -0.000000000000000000 ) ) ;
#30 = DIRECTION ( 'NONE',  ( 0.000000000000000000, -1.000000000000000000, -0.000000000000000000 ) ) ;
#31 = EDGE_LOOP ( 'NONE', ( #115, #244, #782, #419 ) ) ;
#32 = CARTESIAN_POINT ( 'NONE',  ( 5.596635872103403844E-15, 33.50000000000000000, 45.69999999999999574 ) ) ;
#33 = ORIENTED_EDGE ( 'NONE', *, *, #1110, .F. ) ;
#34 = ORIENTED_EDGE ( 'NONE', *, *, #486, .F. ) ;
#35 = PERSON ( 'UNSPECIFIED', 'UNSPECIFIED', 'UNSPECIFIED', ('UNSPECIFIED'), ('UNSPECIFIED'), ('UNSPECIFIED') ) ;
#36 = CARTESIAN_POINT ( 'NONE',  ( -36.11096885897879361, 36.00000000000000000, -29.92670927559300509 ) ) ;
#37 = VECTOR ( 'NONE', #1076, 1000.000000000000114 ) ;
#38 = APPROVAL_ROLE ( '' ) ;
#39 = CIRCLE ( 'NONE', #440, 45.69999999999999574 ) ;
#40 = EDGE_LOOP ( 'NONE', ( #491, #1098, #563, #1139 ) ) ;
#41 = CIRCLE ( 'NONE', #778, 44.86353574172903791 ) ;
#42 = ORIENTED_EDGE ( 'NONE', *, *, #147, .F. ) ;
#43 = DIRECTION ( 'NONE',  ( -0.000000000000000000, -1.000000000000000000, -0.000000000000000000 ) ) ;
#44 = CIRCLE ( 'NONE', #84, 2.899999999999999911 ) ;
#45 = ORIENTED_EDGE ( 'NONE', *, *, #913, .T. ) ;
#46 = EDGE_CURVE ( 'NONE', #930, #856, #61, .T. ) ;
#47 = FACE_OUTER_BOUND ( 'NONE', #884, .T. ) ;
#48 = PERSON_AND_ORGANIZATION ( #35, #441 ) ;
#49 = ORIENTED_EDGE ( 'NONE', *, *, #412, .T. ) ;
#50 = ORIENTED_EDGE ( 'NONE', *, *, #857, .F. ) ;
#51 = DIRECTION ( 'NONE',  ( 1.000000000000000000, 0.000000000000000000, 1.224646799147353207E-16 ) ) ;
#52 = ORIENTED_EDGE ( 'NONE', *, *, #433, .F. ) ;
#53 = CARTESIAN_POINT ( 'NONE',  ( -11.47520240183079032, 36.00000000000000000, 44.85543144187801090 ) ) ;
#54 = ORIENTED_EDGE ( 'NONE', *, *, #183, .T. ) ;
#55 = DIRECTION ( 'NONE',  ( -0.000000000000000000, 1.000000000000000000, -0.000000000000000000 ) ) ;
#56 = FACE_OUTER_BOUND ( 'NONE', #580, .T. ) ;
#57 = VECTOR ( 'NONE', #953, 1000.000000000000114 ) ;
#58 = ORIENTED_EDGE ( 'NONE', *, *, #1165, .F. ) ;
#59 = ADVANCED_FACE ( 'NONE', ( #90 ), #786, .T. ) ;
#60 = FACE_OUTER_BOUND ( 'NONE', #65, .T. ) ;
#61 = CIRCLE ( 'NONE', #920, 2.899999999999999911 ) ;
#62 = VECTOR ( 'NONE', #1085, 1000.000000000000114 ) ;
#63 = VECTOR ( 'NONE', #13, 1000.000000000000000 ) ;
#64 = CARTESIAN_POINT ( 'NONE',  ( 44.33765815639092267, 36.00000000000000000, -12.42101491494199905 ) ) ;
#65 = EDGE_LOOP ( 'NONE', ( #554, #562, #957, #689 ) ) ;
#66 = DIRECTION ( 'NONE',  ( 0.000000000000000000, 0.000000000000000000, 1.000000000000000000 ) ) ;
#67 = DIRECTION ( 'NONE',  ( 0.000000000000000000, 0.000000000000000000, -1.000000000000000000 ) ) ;
#68 = CARTESIAN_POINT ( 'NONE',  ( 0.000000000000000000, 0.000000000000000000, 0.000000000000000000 ) ) ;
#69 = EDGE_CURVE ( 'NONE', #196, #151, #424, .T. ) ;
#70 = EDGE_CURVE ( 'NONE', #584, #1015, #586, .T. ) ;
#71 = VERTEX_POINT ( 'NONE', #1167 ) ;
#72 = CARTESIAN_POINT ( 'NONE',  ( 3.551475717527323832E-16, 2.000000000000000000, 2.499999999999999556 ) ) ;
#73 = CARTESIAN_POINT ( 'NONE',  ( 0.000000000000000000, 2.000000000000000000, -3.299999999999999822 ) ) ;
#74 = CC_DESIGN_PERSON_AND_ORGANIZATION_ASSIGNMENT ( #241, #487, ( #1164 ) ) ;
#75 = DIRECTION ( 'NONE',  ( 0.8660254037844387076, 0.000000000000000000, 0.4999999999999997780 ) ) ;
#76 = EDGE_CURVE ( 'NONE', #221, #930, #168, .T. ) ;
#77 = CARTESIAN_POINT ( 'NONE',  ( 0.000000000000000000, 36.00000000000000000, 0.000000000000000000 ) ) ;
#78 = VECTOR ( 'NONE', #618, 1000.000000000000000 ) ;
#79 = CIRCLE ( 'NONE', #134, 44.79999999999999716 ) ;
#80 = AXIS2_PLACEMENT_3D ( 'NONE', #724, #266, #283 ) ;
#81 = AXIS2_PLACEMENT_3D ( 'NONE', #199, #818, #9 ) ;
#82 = CARTESIAN_POINT ( 'NONE',  ( -33.10834192546221999, 35.50000000000000000, -32.36553251449265645 ) ) ;
#83 = EDGE_CURVE ( 'NONE', #365, #223, #153, .T. ) ;
#84 = AXIS2_PLACEMENT_3D ( 'NONE', #833, #1013, #656 ) ;
#85 = CARTESIAN_POINT ( 'NONE',  ( -7.744465665967262602, 39.00000000000000000, 45.54627593501641059 ) ) ;
#86 = DIRECTION ( 'NONE',  ( 0.000000000000000000, -1.000000000000000000, 0.000000000000000000 ) ) ;
#87 = DIRECTION ( 'NONE',  ( 0.8660254037844383745, 0.000000000000000000, -0.5000000000000004441 ) ) ;
#88 = CARTESIAN_POINT ( 'NONE',  ( 5.596635872103403844E-15, 0.000000000000000000, 45.69999999999999574 ) ) ;
#89 = CARTESIAN_POINT ( 'NONE',  ( 0.000000000000000000, 2.000000000000000000, -0.4000000000000000222 ) ) ;
#90 = FACE_OUTER_BOUND ( 'NONE', #242, .T. ) ;
#91 = ORIENTED_EDGE ( 'NONE', *, *, #76, .T. ) ;
#92 = CARTESIAN_POINT ( 'NONE',  ( 0.000000000000000000, 39.00000000000000000, 0.000000000000000000 ) ) ;
#93 = DIRECTION ( 'NONE',  ( -0.000000000000000000, -1.000000000000000000, -0.000000000000000000 ) ) ;
#94 = CC_DESIGN_PERSON_AND_ORGANIZATION_ASSIGNMENT ( #128, #301, ( #757 ) ) ;
#95 = ADVANCED_FACE ( 'NONE', ( #355, #347 ), #712, .T. ) ;
#96 = AXIS2_PLACEMENT_3D ( 'NONE', #598, #671, #1145 ) ;
#97 = DIRECTION ( 'NONE',  ( 0.000000000000000000, 0.000000000000000000, -1.000000000000000000 ) ) ;
#98 = DIRECTION ( 'NONE',  ( -0.000000000000000000, -1.000000000000000000, -0.000000000000000000 ) ) ;
#99 = AXIS2_PLACEMENT_3D ( 'NONE', #92, #469, #546 ) ;
#100 = AXIS2_PLACEMENT_3D ( 'NONE', #1031, #1048, #1117 ) ;
#101 = ORIENTED_EDGE ( 'NONE', *, *, #531, .T. ) ;
#102 = FACE_BOUND ( 'NONE', #599, .T. ) ;
#103 = VECTOR ( 'NONE', #575, 1000.000000000000000 ) ;
#104 = FACE_OUTER_BOUND ( 'NONE', #1034, .T. ) ;
#105 = VERTEX_POINT ( 'NONE', #269 ) ;
#106 = CARTESIAN_POINT ( 'NONE',  ( -33.53739171283321241, 39.00000000000000000, -32.78495626198068180 ) ) ;
#107 = ORIENTED_EDGE ( 'NONE', *, *, #768, .F. ) ;
#108 = DIRECTION ( 'NONE',  ( -0.000000000000000000, -1.000000000000000000, -0.000000000000000000 ) ) ;
#109 = EDGE_CURVE ( 'NONE', #223, #365, #963, .T. ) ;
#110 =( LENGTH_UNIT ( ) NAMED_UNIT ( * ) SI_UNIT ( .MILLI., .METRE. ) );
#111 = DIRECTION ( 'NONE',  ( 0.000000000000000000, 0.000000000000000000, -1.000000000000000000 ) ) ;
#112 = CC_DESIGN_DATE_AND_TIME_ASSIGNMENT ( #940, #123, ( #25 ) ) ;
#113 = ADVANCED_FACE ( 'NONE', ( #351, #451 ), #790, .T. ) ;
#114 = DIRECTION ( 'NONE',  ( -0.000000000000000000, -1.000000000000000000, -0.000000000000000000 ) ) ;
#115 = ORIENTED_EDGE ( 'NONE', *, *, #886, .F. ) ;
#116 = CIRCLE ( 'NONE', #777, 44.86353574172903791 ) ;
#117 = CARTESIAN_POINT ( 'NONE',  ( -35.64899484372533323, 0.000000000000000000, -29.54385158763232511 ) ) ;
#118 = VECTOR ( 'NONE', #455, 1000.000000000000000 ) ;
#119 = FACE_OUTER_BOUND ( 'NONE', #375, .T. ) ;
#120 = AXIS2_PLACEMENT_3D ( 'NONE', #394, #308, #127 ) ;
#121 = EDGE_LOOP ( 'NONE', ( #42, #336, #865, #693 ) ) ;
#122 = DIRECTION ( 'NONE',  ( 0.000000000000000000, 0.000000000000000000, 1.000000000000000000 ) ) ;
#123 = DATE_TIME_ROLE ( 'classification_date' ) ;
#124 = VERTEX_POINT ( 'NONE', #255 ) ;
#125 = ORIENTED_EDGE ( 'NONE', *, *, #633, .F. ) ;
#126 = EDGE_LOOP ( 'NONE', ( #829, #1022, #1135, #107 ) ) ;
#127 = DIRECTION ( 'NONE',  ( 0.000000000000000000, 0.000000000000000000, -1.000000000000000000 ) ) ;
#128 = PERSON_AND_ORGANIZATION ( #35, #441 ) ;
#129 = ORIENTED_EDGE ( 'NONE', *, *, #239, .T. ) ;
#130 = ORIENTED_EDGE ( 'NONE', *, *, #913, .F. ) ;
#131 = CARTESIAN_POINT ( 'NONE',  ( 0.000000000000000000, 0.000000000000000000, 40.00000000000000000 ) ) ;
#132 = EDGE_LOOP ( 'NONE', ( #1025, #415, #597, #734 ) ) ;
#133 = CARTESIAN_POINT ( 'NONE',  ( 45.16130084125359190, 39.00000000000000000, -12.65175506899290525 ) ) ;
#134 = AXIS2_PLACEMENT_3D ( 'NONE', #684, #1050, #243 ) ;
#135 = APPROVAL_ROLE ( '' ) ;
#136 = VECTOR ( 'NONE', #277, 1000.000000000000000 ) ;
#137 = EDGE_LOOP ( 'NONE', ( #822, #903, #672, #276 ) ) ;
#138 = ORIENTED_EDGE ( 'NONE', *, *, #26, .T. ) ;
#139 = DIRECTION ( 'NONE',  ( 1.000000000000000000, 0.000000000000000000, 1.224646799147353207E-16 ) ) ;
#140 = ORIENTED_EDGE ( 'NONE', *, *, #444, .F. ) ;
#141 = PLANE ( 'NONE',  #156 ) ;
#142 = ADVANCED_FACE ( 'NONE', ( #611 ), #5, .T. ) ;
#143 = DIRECTION ( 'NONE',  ( -0.000000000000000000, -1.000000000000000000, -0.000000000000000000 ) ) ;
#144 = EDGE_LOOP ( 'NONE', ( #815, #766 ) ) ;
#145 = DIRECTION ( 'NONE',  ( 0.8660254037844388186, 0.000000000000000000, 0.4999999999999997780 ) ) ;
#146 = LINE ( 'NONE', #328, #457 ) ;
#147 = EDGE_CURVE ( 'NONE', #639, #338, #346, .T. ) ;
#148 = APPROVAL_DATE_TIME ( #496, #773 ) ;
#149 = VERTEX_POINT ( 'NONE', #929 ) ;
#150 = DIRECTION ( 'NONE',  ( -0.000000000000000000, -1.000000000000000000, -0.000000000000000000 ) ) ;
#151 = VERTEX_POINT ( 'NONE', #659 ) ;
#152 = FACE_OUTER_BOUND ( 'NONE', #216, .T. ) ;
#153 = CIRCLE ( 'NONE', #569, 47.98703349066331469 ) ;
#154 = ORIENTED_EDGE ( 'NONE', *, *, #70, .F. ) ;
#155 = DIRECTION ( 'NONE',  ( 0.2478445443159996708, 0.000000000000000000, -0.9687998151593519847 ) ) ;
#156 = AXIS2_PLACEMENT_3D ( 'NONE', #860, #327, #1045 ) ;
#157 = FACE_OUTER_BOUND ( 'NONE', #1133, .T. ) ;
#158 = CIRCLE ( 'NONE', #760, 153.2499806421508879 ) ;
#159 = ADVANCED_FACE ( 'NONE', ( #1111, #299 ), #141, .T. ) ;
#160 = PLANE ( 'NONE',  #381 ) ;
#161 = VERTEX_POINT ( 'NONE', #697 ) ;
#162 = DIRECTION ( 'NONE',  ( -0.000000000000000000, 1.000000000000000000, -0.000000000000000000 ) ) ;
#163 = ORIENTED_EDGE ( 'NONE', *, *, #821, .T. ) ;
#164 = PLANE ( 'NONE',  #1020 ) ;
#165 = VERTEX_POINT ( 'NONE', #264 ) ;
#166 = PLANE ( 'NONE',  #830 ) ;
#167 = ADVANCED_FACE ( 'NONE', ( #797 ), #984, .T. ) ;
#168 = LINE ( 'NONE', #73, #78 ) ;
#169 = CARTESIAN_POINT ( 'NONE',  ( 5.486417660180142053E-15, 0.000000000000000000, 44.79999999999999716 ) ) ;
#170 = CARTESIAN_POINT ( 'NONE',  ( 0.000000000000000000, 0.000000000000000000, 0.000000000000000000 ) ) ;
#171 = EDGE_CURVE ( 'NONE', #665, #781, #39, .T. ) ;
#172 = CIRCLE ( 'NONE', #493, 45.69999999999999574 ) ;
#173 = CARTESIAN_POINT ( 'NONE',  ( 0.000000000000000000, 0.000000000000000000, -0.4000000000000000222 ) ) ;
#174 = CC_DESIGN_APPROVAL ( #564, ( #25 ) ) ;
#175 = DIRECTION ( 'NONE',  ( 0.9375858190580882434, 0.000000000000000000, -0.3477539818624280077 ) ) ;
#176 = DIRECTION ( 'NONE',  ( 0.7699566920890998922, 0.000000000000000000, 0.6380961466011301209 ) ) ;
#177 = CARTESIAN_POINT ( 'NONE',  ( 5.486417660180142053E-15, 42.00000000000000000, 44.79999999999999716 ) ) ;
#178 = LINE ( 'NONE', #539, #472 ) ;
#179 = DIRECTION ( 'NONE',  ( 0.000000000000000000, 0.000000000000000000, 1.000000000000000000 ) ) ;
#180 = CARTESIAN_POINT ( 'NONE',  ( 0.000000000000000000, 0.000000000000000000, 0.000000000000000000 ) ) ;
#181 = EDGE_CURVE ( 'NONE', #165, #191, #1154, .T. ) ;
#182 = DIRECTION ( 'NONE',  ( 0.000000000000000000, 0.000000000000000000, 1.000000000000000000 ) ) ;
#183 = EDGE_CURVE ( 'NONE', #507, #295, #307, .T. ) ;
#184 = VECTOR ( 'NONE', #854, 1000.000000000000000 ) ;
#185 = DIRECTION ( 'NONE',  ( -0.000000000000000000, -1.000000000000000000, -0.000000000000000000 ) ) ;
#186 = CARTESIAN_POINT ( 'NONE',  ( 0.000000000000000000, 31.50000000000000000, 0.000000000000000000 ) ) ;
#187 = DIRECTION ( 'NONE',  ( 0.000000000000000000, -1.000000000000000000, 0.000000000000000000 ) ) ;
#188 = EDGE_LOOP ( 'NONE', ( #220, #774, #959, #981 ) ) ;
#189 = DIRECTION ( 'NONE',  ( 0.000000000000000000, 1.000000000000000000, 0.000000000000000000 ) ) ;
#190 = CARTESIAN_POINT ( 'NONE',  ( 5.494198544454135354E-15, 29.50000000000000000, -44.86353574172903791 ) ) ;
#191 = VERTEX_POINT ( 'NONE', #751 ) ;
#192 = VECTOR ( 'NONE', #579, 1000.000000000000000 ) ;
#193 = DIRECTION ( 'NONE',  ( -0.000000000000000000, -1.000000000000000000, -0.000000000000000000 ) ) ;
#194 = VECTOR ( 'NONE', #155, 1000.000000000000114 ) ;
#195 = EDGE_CURVE ( 'NONE', #784, #594, #1004, .T. ) ;
#196 = VERTEX_POINT ( 'NONE', #358 ) ;
#197 = CARTESIAN_POINT ( 'NONE',  ( 0.000000000000000000, 0.000000000000000000, -46.30000000000000426 ) ) ;
#198 = VECTOR ( 'NONE', #1030, 1000.000000000000227 ) ;
#199 = CARTESIAN_POINT ( 'NONE',  ( 0.000000000000000000, 55.00000568419856961, 0.000000000000000000 ) ) ;
#200 = ADVANCED_FACE ( 'NONE', ( #1002 ), #894, .T. ) ;
#201 = ORIENTED_EDGE ( 'NONE', *, *, #805, .T. ) ;
#202 = EDGE_CURVE ( 'NONE', #105, #209, #458, .T. ) ;
#203 = DIRECTION ( 'NONE',  ( -0.000000000000000000, -1.000000000000000000, 0.000000000000000000 ) ) ;
#204 = LINE ( 'NONE', #88, #965 ) ;
#205 = DIRECTION ( 'NONE',  ( 0.7150829789516676138, 0.000000000000000000, 0.6990395791467095554 ) ) ;
#206 = VERTEX_POINT ( 'NONE', #366 ) ;
#207 = LINE ( 'NONE', #667, #198 ) ;
#208 = LINE ( 'NONE', #811, #62 ) ;
#209 = VERTEX_POINT ( 'NONE', #1093 ) ;
#210 = TOROIDAL_SURFACE ( 'NONE', #851, -106.2500000000000000, 156.2500000000000000 ) ;
#211 = LINE ( 'NONE', #300, #1067 ) ;
#212 = CC_DESIGN_APPROVAL ( #773, ( #1164 ) ) ;
#213 = PERSON_AND_ORGANIZATION ( #35, #441 ) ;
#214 = CIRCLE ( 'NONE', #646, 46.90000000000000568 ) ;
#215 = VERTEX_POINT ( 'NONE', #177 ) ;
#216 = EDGE_LOOP ( 'NONE', ( #417, #484, #702, #696 ) ) ;
#217 = LINE ( 'NONE', #479, #103 ) ;
#218 = EDGE_CURVE ( 'NONE', #377, #781, #204, .T. ) ;
#219 = PERSON_AND_ORGANIZATION_ROLE ( 'creator' ) ;
#220 = ORIENTED_EDGE ( 'NONE', *, *, #775, .F. ) ;
#221 = VERTEX_POINT ( 'NONE', #454 ) ;
#222 = DIRECTION ( 'NONE',  ( 0.000000000000000000, -1.000000000000000000, 0.000000000000000000 ) ) ;
#223 = VERTEX_POINT ( 'NONE', #649 ) ;
#224 = PRODUCT_DEFINITION_SHAPE ( 'NONE', 'NONE',  #1164 ) ;
#225 = CARTESIAN_POINT ( 'NONE',  ( 5.876716696491767894E-15, 30.00000000000000000, -47.98703349066331469 ) ) ;
#226 = EDGE_CURVE ( 'NONE', #28, #584, #372, .T. ) ;
#227 = COORDINATED_UNIVERSAL_TIME_OFFSET ( 12, 0, .AHEAD. ) ;
#228 = ORIENTED_EDGE ( 'NONE', *, *, #948, .F. ) ;
#229 = CARTESIAN_POINT ( 'NONE',  ( 0.000000000000000000, 42.00000000000000000, 0.000000000000000000 ) ) ;
#230 = CARTESIAN_POINT ( 'NONE',  ( 0.000000000000000000, 36.00000000000000000, 0.000000000000000000 ) ) ;
#231 = AXIS2_PLACEMENT_3D ( 'NONE', #850, #43, #408 ) ;
#232 = CALENDAR_DATE ( 2026, 30, 9 ) ;
#233 = AXIS2_PLACEMENT_3D ( 'NONE', #973, #844, #302 ) ;
#234 = ORIENTED_EDGE ( 'NONE', *, *, #863, .T. ) ;
#235 = CARTESIAN_POINT ( 'NONE',  ( 0.000000000000000000, 33.50000000000000000, 0.000000000000000000 ) ) ;
#236 = AXIS2_PLACEMENT_3D ( 'NONE', #924, #29, #839 ) ;
#237 = ORIENTED_EDGE ( 'NONE', *, *, #722, .F. ) ;
#238 = EDGE_CURVE ( 'NONE', #165, #745, #1118, .T. ) ;
#239 = EDGE_CURVE ( 'NONE', #124, #935, #826, .T. ) ;
#240 = CARTESIAN_POINT ( 'NONE',  ( 0.000000000000000000, 0.000000000000000000, 0.000000000000000000 ) ) ;
#241 = PERSON_AND_ORGANIZATION ( #35, #441 ) ;
#242 = EDGE_LOOP ( 'NONE', ( #33, #380, #657, #7 ) ) ;
#243 = DIRECTION ( 'NONE',  ( 0.000000000000000000, 0.000000000000000000, -1.000000000000000000 ) ) ;
#244 = ORIENTED_EDGE ( 'NONE', *, *, #474, .T. ) ;
#245 = DIRECTION ( 'NONE',  ( 0.000000000000000000, -1.000000000000000000, -0.000000000000000000 ) ) ;
#246 = ORIENTED_EDGE ( 'NONE', *, *, #970, .T. ) ;
#247 = CARTESIAN_POINT ( 'NONE',  ( 0.000000000000000000, 0.000000000000000000, -3.299999999999999822 ) ) ;
#248 = DIRECTION ( 'NONE',  ( 0.000000000000000000, -1.000000000000000000, 0.000000000000000000 ) ) ;
#249 = CARTESIAN_POINT ( 'NONE',  ( 45.69999999999999574, 31.50000000000000000, 0.000000000000000000 ) ) ;
#250 = AXIS2_PLACEMENT_3D ( 'NONE', #1170, #265, #465 ) ;
#251 = ORIENTED_EDGE ( 'NONE', *, *, #908, .F. ) ;
#252 = PLANE ( 'NONE',  #983 ) ;
#253 = AXIS2_PLACEMENT_3D ( 'NONE', #353, #904, #635 ) ;
#254 = APPROVAL_PERSON_ORGANIZATION ( #310, #392, #506 ) ;
#255 = CARTESIAN_POINT ( 'NONE',  ( 0.000000000000000000, 31.50000000000000000, -46.30000000000000426 ) ) ;
#256 = DIRECTION ( 'NONE',  ( 0.000000000000000000, -1.000000000000000000, 0.000000000000000000 ) ) ;
#257 = DIRECTION ( 'NONE',  ( 0.9629275232676670626, 0.000000000000000000, -0.2697602360126419296 ) ) ;
#258 = VERTEX_POINT ( 'NONE', #802 ) ;
#259 = FACE_OUTER_BOUND ( 'NONE', #1103, .T. ) ;
#260 = DIRECTION ( 'NONE',  ( 0.000000000000000000, 0.000000000000000000, -1.000000000000000000 ) ) ;
#261 = DIRECTION ( 'NONE',  ( 0.000000000000000000, 0.000000000000000000, -1.000000000000000000 ) ) ;
#262 = CARTESIAN_POINT ( 'NONE',  ( 0.000000000000000000, 0.000000000000000000, 0.000000000000000000 ) ) ;
#263 = CARTESIAN_POINT ( 'NONE',  ( 0.000000000000000000, 0.000000000000000000, -0.4000000000000000222 ) ) ;
#264 = CARTESIAN_POINT ( 'NONE',  ( -36.11096885897879361, 39.00000000000000000, -29.92670927559300509 ) ) ;
#265 = DIRECTION ( 'NONE',  ( -0.000000000000000000, 1.000000000000000000, 0.000000000000000000 ) ) ;
#266 = DIRECTION ( 'NONE',  ( -0.000000000000000000, -1.000000000000000000, -0.000000000000000000 ) ) ;
#267 = DIRECTION ( 'NONE',  ( 0.000000000000000000, 1.000000000000000000, 0.000000000000000000 ) ) ;
#268 = AXIS2_PLACEMENT_3D ( 'NONE', #991, #638, #537 ) ;
#269 = CARTESIAN_POINT ( 'NONE',  ( 0.000000000000000000, 2.000000000000000000, -2.200000000000000178 ) ) ;
#270 = CIRCLE ( 'NONE', #570, 2.899999999999999911 ) ;
#271 = FACE_BOUND ( 'NONE', #430, .T. ) ;
#272 = ADVANCED_FACE ( 'NONE', ( #462 ), #809, .T. ) ;
#273 = CARTESIAN_POINT ( 'NONE',  ( 0.000000000000000000, 2.000000000000000000, -0.4000000000000000222 ) ) ;
#274 = CARTESIAN_POINT ( 'NONE',  ( 0.000000000000000000, 0.000000000000000000, 0.000000000000000000 ) ) ;
#275 = PLANE ( 'NONE',  #716 ) ;
#276 = ORIENTED_EDGE ( 'NONE', *, *, #1142, .F. ) ;
#277 = DIRECTION ( 'NONE',  ( 0.000000000000000000, -1.000000000000000000, 0.000000000000000000 ) ) ;
#278 = DIRECTION ( 'NONE',  ( -0.000000000000000000, 1.000000000000000000, -0.000000000000000000 ) ) ;
#279 = ORIENTED_EDGE ( 'NONE', *, *, #861, .T. ) ;
#280 = ADVANCED_FACE ( 'NONE', ( #449 ), #729, .F. ) ;
#281 = CARTESIAN_POINT ( 'NONE',  ( 43.31646484048367540, 36.00000000000000000, -16.06623396204417276 ) ) ;
#282 = ORIENTED_EDGE ( 'NONE', *, *, #939, .T. ) ;
#283 = DIRECTION ( 'NONE',  ( 0.000000000000000000, 0.000000000000000000, -1.000000000000000000 ) ) ;
#284 = EDGE_CURVE ( 'NONE', #191, #311, #1160, .T. ) ;
#285 = CARTESIAN_POINT ( 'NONE',  ( 0.000000000000000000, 42.00000000000000000, -44.79999999999999716 ) ) ;
#286 = EDGE_CURVE ( 'NONE', #934, #856, #640, .T. ) ;
#287 = ORIENTED_EDGE ( 'NONE', *, *, #720, .F. ) ;
#288 = VECTOR ( 'NONE', #203, 1000.000000000000000 ) ;
#289 = FACE_OUTER_BOUND ( 'NONE', #15, .T. ) ;
#290 = AXIS2_PLACEMENT_3D ( 'NONE', #719, #93, #293 ) ;
#291 = DIRECTION ( 'NONE',  ( 0.000000000000000000, -1.000000000000000000, 0.000000000000000000 ) ) ;
#292 = CIRCLE ( 'NONE', #1124, 40.24419999999999931 ) ;
#293 = DIRECTION ( 'NONE',  ( 0.000000000000000000, 0.000000000000000000, -1.000000000000000000 ) ) ;
#294 = EDGE_CURVE ( 'NONE', #1125, #1016, #992, .T. ) ;
#295 = VERTEX_POINT ( 'NONE', #988 ) ;
#296 = ORIENTED_EDGE ( 'NONE', *, *, #720, .T. ) ;
#297 = CARTESIAN_POINT ( 'NONE',  ( 43.97277491382433823, 39.00000000000000000, -16.30966174934787105 ) ) ;
#298 = APPLICATION_PROTOCOL_DEFINITION ( 'international standard', 'config_control_design', 1994, #627 ) ;
#299 = FACE_OUTER_BOUND ( 'NONE', #477, .T. ) ;
#300 = CARTESIAN_POINT ( 'NONE',  ( 0.000000000000000000, 0.000000000000000000, -45.69999999999999574 ) ) ;
#301 = PERSON_AND_ORGANIZATION_ROLE ( 'design_supplier' ) ;
#302 = DIRECTION ( 'NONE',  ( 0.000000000000000000, 0.000000000000000000, 1.000000000000000000 ) ) ;
#303 = ADVANCED_FACE ( 'NONE', ( #102, #1077 ), #1084, .F. ) ;
#304 = AXIS2_PLACEMENT_3D ( 'NONE', #518, #86, #67 ) ;
#305 = CIRCLE ( 'NONE', #1116, 46.30000000000000426 ) ;
#306 = EDGE_CURVE ( 'NONE', #540, #1123, #997, .T. ) ;
#307 = CIRCLE ( 'NONE', #549, 46.30000000000000426 ) ;
#308 = DIRECTION ( 'NONE',  ( -0.000000000000000000, -1.000000000000000000, -0.000000000000000000 ) ) ;
#309 = AXIS2_PLACEMENT_3D ( 'NONE', #610, #162, #1073 ) ;
#310 = PERSON_AND_ORGANIZATION ( #35, #441 ) ;
#311 = VERTEX_POINT ( 'NONE', #911 ) ;
#312 = ORIENTED_EDGE ( 'NONE', *, *, #619, .F. ) ;
#313 = DIRECTION ( 'NONE',  ( 0.000000000000000000, 0.000000000000000000, 1.000000000000000000 ) ) ;
#314 = ORIENTED_EDGE ( 'NONE', *, *, #294, .T. ) ;
#315 = DIRECTION ( 'NONE',  ( 0.1676291269689883234, 0.000000000000000000, -0.9858501284635584616 ) ) ;
#316 = APPROVAL_STATUS ( 'not_yet_approved' ) ;
#317 = ORIENTED_EDGE ( 'NONE', *, *, #171, .T. ) ;
#318 = ORIENTED_EDGE ( 'NONE', *, *, #320, .T. ) ;
#319 = DIRECTION ( 'NONE',  ( 0.000000000000000000, 0.000000000000000000, -1.000000000000000000 ) ) ;
#320 = EDGE_CURVE ( 'NONE', #453, #28, #875, .T. ) ;
#321 = LINE ( 'NONE', #1019, #907 ) ;
#322 = DATE_AND_TIME ( #576, #1065 ) ;
#323 = EDGE_CURVE ( 'NONE', #161, #334, #158, .T. ) ;
#324 = EDGE_LOOP ( 'NONE', ( #937, #870 ) ) ;
#325 = EDGE_CURVE ( 'NONE', #426, #498, #214, .T. ) ;
#326 = PLANE ( 'NONE',  #533 ) ;
#327 = DIRECTION ( 'NONE',  ( 0.000000000000000000, 1.000000000000000000, 0.000000000000000000 ) ) ;
#328 = CARTESIAN_POINT ( 'NONE',  ( -7.761228578664161049, 0.000000000000000000, 45.64486094786276738 ) ) ;
#329 = AXIS2_PLACEMENT_3D ( 'NONE', #229, #416, #1054 ) ;
#330 = AXIS2_PLACEMENT_3D ( 'NONE', #1006, #1089, #730 ) ;
#331 = EDGE_LOOP ( 'NONE', ( #971, #17 ) ) ;
#332 = CARTESIAN_POINT ( 'NONE',  ( 5.211345807939362522E-15, 10.00000000000000888, -40.24419999999999931 ) ) ;
#333 = DIRECTION ( 'NONE',  ( -0.000000000000000000, -1.000000000000000000, -0.000000000000000000 ) ) ;
#334 = VERTEX_POINT ( 'NONE', #673 ) ;
#335 = CARTESIAN_POINT ( 'NONE',  ( 0.000000000000000000, 30.00000000000000000, 0.000000000000000000 ) ) ;
#336 = ORIENTED_EDGE ( 'NONE', *, *, #861, .F. ) ;
#337 = PLANE ( 'NONE',  #658 ) ;
#338 = VERTEX_POINT ( 'NONE', #386 ) ;
#339 = FACE_OUTER_BOUND ( 'NONE', #10, .T. ) ;
#340 = DIRECTION ( 'NONE',  ( 0.000000000000000000, -1.000000000000000000, -0.000000000000000000 ) ) ;
#341 = CARTESIAN_POINT ( 'NONE',  ( 0.000000000000000000, 30.00000000000000000, 0.000000000000000000 ) ) ;
#342 = DIRECTION ( 'NONE',  ( -0.000000000000000000, -1.000000000000000000, -0.000000000000000000 ) ) ;
#343 = AXIS2_PLACEMENT_3D ( 'NONE', #1066, #1143, #348 ) ;
#344 = ORIENTED_EDGE ( 'NONE', *, *, #476, .F. ) ;
#345 = DIRECTION ( 'NONE',  ( 0.000000000000000000, 0.000000000000000000, -1.000000000000000000 ) ) ;
#346 = CIRCLE ( 'NONE', #607, 46.30000000000000426 ) ;
#347 = FACE_OUTER_BOUND ( 'NONE', #435, .T. ) ;
#348 = DIRECTION ( 'NONE',  ( 0.000000000000000000, 0.000000000000000000, -1.000000000000000000 ) ) ;
#349 = EDGE_CURVE ( 'NONE', #405, #665, #211, .T. ) ;
#350 = DIRECTION ( 'NONE',  ( -0.000000000000000000, -1.000000000000000000, -0.000000000000000000 ) ) ;
#351 = FACE_BOUND ( 'NONE', #764, .T. ) ;
#352 = DIRECTION ( 'NONE',  ( 0.000000000000000000, -1.000000000000000000, 0.000000000000000000 ) ) ;
#353 = CARTESIAN_POINT ( 'NONE',  ( 0.000000000000000000, 0.000000000000000000, 0.000000000000000000 ) ) ;
#354 = CARTESIAN_POINT ( 'NONE',  ( 0.000000000000000000, 29.50000000000000000, 0.000000000000000000 ) ) ;
#355 = FACE_BOUND ( 'NONE', #954, .T. ) ;
#356 = EDGE_CURVE ( 'NONE', #807, #223, #742, .T. ) ;
#357 = FACE_OUTER_BOUND ( 'NONE', #12, .T. ) ;
#358 = CARTESIAN_POINT ( 'NONE',  ( -36.11096885897879361, 36.00000000000000000, -29.92670927559300509 ) ) ;
#359 = FACE_OUTER_BOUND ( 'NONE', #137, .T. ) ;
#360 = AXIS2_PLACEMENT_3D ( 'NONE', #1134, #771, #145 ) ;
#361 = MANIFOLD_SOLID_BREP ( 'CirPattern2', #828 ) ;
#362 = CIRCLE ( 'NONE', #6, 46.30000000000000426 ) ;
#363 = DIRECTION ( 'NONE',  ( -0.000000000000000000, -1.000000000000000000, -0.000000000000000000 ) ) ;
#364 = APPLICATION_CONTEXT ( 'configuration controlled 3d designs of mechanical parts and assemblies' ) ;
#365 = VERTEX_POINT ( 'NONE', #225 ) ;
#366 = CARTESIAN_POINT ( 'NONE',  ( -7.761228578664162825, 36.00000000000000000, 45.64486094786276738 ) ) ;
#367 = EDGE_CURVE ( 'NONE', #161, #838, #292, .T. ) ;
#368 =( NAMED_UNIT ( * ) SI_UNIT ( $, .STERADIAN. ) SOLID_ANGLE_UNIT ( ) );
#369 = ORIENTED_EDGE ( 'NONE', *, *, #356, .F. ) ;
#370 = CARTESIAN_POINT ( 'NONE',  ( 0.000000000000000000, 29.50000000000000000, 0.000000000000000000 ) ) ;
#371 = ORIENTED_EDGE ( 'NONE', *, *, #294, .F. ) ;
#372 = LINE ( 'NONE', #197, #494 ) ;
#373 = EDGE_CURVE ( 'NONE', #515, #206, #923, .T. ) ;
#374 = DIRECTION ( 'NONE',  ( 0.000000000000000000, -1.000000000000000000, 0.000000000000000000 ) ) ;
#375 = EDGE_LOOP ( 'NONE', ( #1053, #296, #1092, #1119 ) ) ;
#376 = FACE_OUTER_BOUND ( 'NONE', #573, .T. ) ;
#377 = VERTEX_POINT ( 'NONE', #32 ) ;
#378 = DIRECTION ( 'NONE',  ( 0.000000000000000000, 0.000000000000000000, -1.000000000000000000 ) ) ;
#379 = DIRECTION ( 'NONE',  ( 0.000000000000000000, 0.000000000000000000, -1.000000000000000000 ) ) ;
#380 = ORIENTED_EDGE ( 'NONE', *, *, #805, .F. ) ;
#381 = AXIS2_PLACEMENT_3D ( 'NONE', #240, #422, #1162 ) ;
#382 = FACE_OUTER_BOUND ( 'NONE', #526, .T. ) ;
#383 = EDGE_CURVE ( 'NONE', #338, #836, #217, .T. ) ;
#384 = AXIS2_PLACEMENT_3D ( 'NONE', #509, #291, #182 ) ;
#385 =( GEOMETRIC_REPRESENTATION_CONTEXT ( 3 ) GLOBAL_UNCERTAINTY_ASSIGNED_CONTEXT ( ( #519 ) ) GLOBAL_UNIT_ASSIGNED_CONTEXT ( ( #110, #19, #368 ) ) REPRESENTATION_CONTEXT ( 'NONE', 'WORKASPACE' ) );
#386 = CARTESIAN_POINT ( 'NONE',  ( 43.41022342238949250, 36.00000000000000000, -16.10100936023041740 ) ) ;
#387 = ORIENTED_EDGE ( 'NONE', *, *, #239, .F. ) ;
#388 = ORIENTED_EDGE ( 'NONE', *, *, #286, .F. ) ;
#389 = DIRECTION ( 'NONE',  ( -0.000000000000000000, 1.000000000000000000, -0.000000000000000000 ) ) ;
#390 = PERSON_AND_ORGANIZATION_ROLE ( 'classification_officer' ) ;
#391 = EDGE_LOOP ( 'NONE', ( #927, #279, #660, #282 ) ) ;
#392 = APPROVAL ( #933, 'UNSPECIFIED' ) ;
#393 = EDGE_CURVE ( 'NONE', #849, #426, #321, .T. ) ;
#394 = CARTESIAN_POINT ( 'NONE',  ( 0.000000000000000000, 39.00000000000000000, 0.000000000000000000 ) ) ;
#395 = APPROVAL_DATE_TIME ( #591, #392 ) ;
#396 = ORIENTED_EDGE ( 'NONE', *, *, #367, .T. ) ;
#397 = ORIENTED_EDGE ( 'NONE', *, *, #46, .T. ) ;
#398 = ORIENTED_EDGE ( 'NONE', *, *, #306, .F. ) ;
#399 = AXIS2_PLACEMENT_3D ( 'NONE', #727, #985, #87 ) ;
#400 = AXIS2_PLACEMENT_3D ( 'NONE', #899, #560, #1009 ) ;
#401 = DIRECTION ( 'NONE',  ( 0.000000000000000000, -1.000000000000000000, 0.000000000000000000 ) ) ;
#402 = VECTOR ( 'NONE', #30, 1000.000000000000000 ) ;
#403 = CALENDAR_DATE ( 2026, 30, 9 ) ;
#404 = AXIS2_PLACEMENT_3D ( 'NONE', #938, #22, #1126 ) ;
#405 = VERTEX_POINT ( 'NONE', #917 ) ;
#406 = ADVANCED_FACE ( 'NONE', ( #1131 ), #1108, .T. ) ;
#407 = ORIENTED_EDGE ( 'NONE', *, *, #195, .F. ) ;
#408 = DIRECTION ( 'NONE',  ( 0.000000000000000000, 0.000000000000000000, -1.000000000000000000 ) ) ;
#409 = VERTEX_POINT ( 'NONE', #297 ) ;
#410 = EDGE_CURVE ( 'NONE', #928, #191, #1112, .T. ) ;
#411 = FACE_BOUND ( 'NONE', #132, .T. ) ;
#412 = EDGE_CURVE ( 'NONE', #426, #507, #931, .T. ) ;
#413 = COORDINATED_UNIVERSAL_TIME_OFFSET ( 12, 0, .AHEAD. ) ;
#414 = ORIENTED_EDGE ( 'NONE', *, *, #325, .F. ) ;
#415 = ORIENTED_EDGE ( 'NONE', *, *, #1104, .F. ) ;
#416 = DIRECTION ( 'NONE',  ( -0.000000000000000000, -1.000000000000000000, -0.000000000000000000 ) ) ;
#417 = ORIENTED_EDGE ( 'NONE', *, *, #804, .T. ) ;
#418 = CARTESIAN_POINT ( 'NONE',  ( 2.204364238465235576E-16, 10.00000000000000000, 1.399999999999999911 ) ) ;
#419 = ORIENTED_EDGE ( 'NONE', *, *, #109, .T. ) ;
#420 = CARTESIAN_POINT ( 'NONE',  ( -7.744465665967262602, 36.00000000000000000, 45.54627593501641059 ) ) ;
#421 = ORIENTED_EDGE ( 'NONE', *, *, #1147, .F. ) ;
#422 = DIRECTION ( 'NONE',  ( 0.9687998151593519847, 0.000000000000000000, 0.2478445443159996708 ) ) ;
#423 = AXIS2_PLACEMENT_3D ( 'NONE', #262, #688, #779 ) ;
#424 = CIRCLE ( 'NONE', #642, 46.89999999999999858 ) ;
#425 = CIRCLE ( 'NONE', #947, 45.69999999999999574 ) ;
#426 = VERTEX_POINT ( 'NONE', #747 ) ;
#427 = LINE ( 'NONE', #871, #192 ) ;
#428 = ORIENTED_EDGE ( 'NONE', *, *, #76, .F. ) ;
#429 = DIRECTION ( 'NONE',  ( 0.000000000000000000, -0.000000000000000000, 1.000000000000000000 ) ) ;
#430 = EDGE_LOOP ( 'NONE', ( #961, #130 ) ) ;
#431 = CARTESIAN_POINT ( 'NONE',  ( -11.41191462107027199, 39.00000000000000000, 44.60804576521586284 ) ) ;
#432 = LINE ( 'NONE', #1061, #511 ) ;
#433 = EDGE_CURVE ( 'NONE', #221, #934, #44, .T. ) ;
#434 = PLANE ( 'NONE',  #1101 ) ;
#435 = EDGE_LOOP ( 'NONE', ( #396, #675 ) ) ;
#436 = DIRECTION ( 'NONE',  ( 0.000000000000000000, 1.000000000000000000, 0.000000000000000000 ) ) ;
#437 = LINE ( 'NONE', #868, #1080 ) ;
#438 = CIRCLE ( 'NONE', #889, 156.2500000000000000 ) ;
#439 = DIRECTION ( 'NONE',  ( 0.000000000000000000, 1.000000000000000000, 0.000000000000000000 ) ) ;
#440 = AXIS2_PLACEMENT_3D ( 'NONE', #733, #98, #1097 ) ;
#441 = ORGANIZATION ( 'UNSPECIFIED', 'UNSPECIFIED', '' ) ;
#442 = CYLINDRICAL_SURFACE ( 'NONE', #1138, 46.30000000000000426 ) ;
#443 = EDGE_CURVE ( 'NONE', #928, #196, #207, .T. ) ;
#444 = EDGE_CURVE ( 'NONE', #151, #745, #589, .T. ) ;
#445 = DIRECTION ( 'NONE',  ( -0.8660254037844387076, 0.000000000000000000, -0.4999999999999997780 ) ) ;
#446 = DIRECTION ( 'NONE',  ( 0.000000000000000000, 0.000000000000000000, 1.000000000000000000 ) ) ;
#447 = FACE_OUTER_BOUND ( 'NONE', #126, .T. ) ;
#448 = CARTESIAN_POINT ( 'NONE',  ( 0.000000000000000000, 39.00000000000000000, 0.000000000000000000 ) ) ;
#449 = FACE_OUTER_BOUND ( 'NONE', #523, .T. ) ;
#450 = CARTESIAN_POINT ( 'NONE',  ( 5.670114680052245564E-15, 33.50000000000000000, 46.30000000000000426 ) ) ;
#451 = FACE_OUTER_BOUND ( 'NONE', #331, .T. ) ;
#452 = CARTESIAN_POINT ( 'NONE',  ( 0.000000000000000000, 0.000000000000000000, 0.000000000000000000 ) ) ;
#453 = VERTEX_POINT ( 'NONE', #566 ) ;
#454 = CARTESIAN_POINT ( 'NONE',  ( 0.000000000000000000, 2.000000000000000000, -3.299999999999999822 ) ) ;
#455 = DIRECTION ( 'NONE',  ( -0.000000000000000000, -1.000000000000000000, -0.000000000000000000 ) ) ;
#456 = AXIS2_PLACEMENT_3D ( 'NONE', #626, #1070, #261 ) ;
#457 = VECTOR ( 'NONE', #874, 1000.000000000000000 ) ;
#458 = CIRCLE ( 'NONE', #1064, 1.800000000000000044 ) ;
#459 = ORIENTED_EDGE ( 'NONE', *, *, #841, .F. ) ;
#460 = FACE_OUTER_BOUND ( 'NONE', #867, .T. ) ;
#461 = ORIENTED_EDGE ( 'NONE', *, *, #775, .T. ) ;
#462 = FACE_OUTER_BOUND ( 'NONE', #1051, .T. ) ;
#463 = LINE ( 'NONE', #650, #118 ) ;
#464 = ORIENTED_EDGE ( 'NONE', *, *, #367, .F. ) ;
#465 = DIRECTION ( 'NONE',  ( 0.000000000000000000, 0.000000000000000000, 1.000000000000000000 ) ) ;
#466 = ORIENTED_EDGE ( 'NONE', *, *, #1110, .T. ) ;
#467 = CARTESIAN_POINT ( 'NONE',  ( 0.000000000000000000, 42.00000000000000000, 0.000000000000000000 ) ) ;
#468 = DIRECTION ( 'NONE',  ( 1.224646799147353207E-16, 0.000000000000000000, -1.000000000000000000 ) ) ;
#469 = DIRECTION ( 'NONE',  ( 0.000000000000000000, -1.000000000000000000, 0.000000000000000000 ) ) ;
#470 = EDGE_LOOP ( 'NONE', ( #1095, #583 ) ) ;
#471 = AXIS2_PLACEMENT_3D ( 'NONE', #664, #503, #319 ) ;
#472 = VECTOR ( 'NONE', #977, 1000.000000000000000 ) ;
#473 = CARTESIAN_POINT ( 'NONE',  ( 0.000000000000000000, 55.00000000000000000, -106.2500000000000000 ) ) ;
#474 = EDGE_CURVE ( 'NONE', #71, #807, #949, .T. ) ;
#475 = CARTESIAN_POINT ( 'NONE',  ( -11.62390912842038482, 0.000000000000000000, 45.43671133097360837 ) ) ;
#476 = EDGE_CURVE ( 'NONE', #409, #483, #891, .T. ) ;
#477 = EDGE_LOOP ( 'NONE', ( #1026, #753 ) ) ;
#478 = ORIENTED_EDGE ( 'NONE', *, *, #821, .F. ) ;
#479 = CARTESIAN_POINT ( 'NONE',  ( 43.41022342238949250, 0.000000000000000000, -16.10100936023041740 ) ) ;
#480 = APPROVAL_STATUS ( 'not_yet_approved' ) ;
#481 = ORIENTED_EDGE ( 'NONE', *, *, #486, .T. ) ;
#482 = VERTEX_POINT ( 'NONE', #485 ) ;
#483 = VERTEX_POINT ( 'NONE', #133 ) ;
#484 = ORIENTED_EDGE ( 'NONE', *, *, #218, .T. ) ;
#485 = CARTESIAN_POINT ( 'NONE',  ( -33.10834192546221999, 36.00000000000000000, -32.36553251449265645 ) ) ;
#486 = EDGE_CURVE ( 'NONE', #196, #165, #846, .T. ) ;
#487 = PERSON_AND_ORGANIZATION_ROLE ( 'creator' ) ;
#488 = ORIENTED_EDGE ( 'NONE', *, *, #323, .T. ) ;
#489 = ORIENTED_EDGE ( 'NONE', *, *, #181, .F. ) ;
#490 = FACE_OUTER_BOUND ( 'NONE', #1012, .T. ) ;
#491 = ORIENTED_EDGE ( 'NONE', *, *, #982, .F. ) ;
#492 = ADVANCED_FACE ( 'NONE', ( #47, #767, #411 ), #772, .T. ) ;
#493 = AXIS2_PLACEMENT_3D ( 'NONE', #235, #942, #111 ) ;
#494 = VECTOR ( 'NONE', #629, 1000.000000000000000 ) ;
#495 = DIRECTION ( 'NONE',  ( 0.000000000000000000, 0.000000000000000000, -1.000000000000000000 ) ) ;
#496 = DATE_AND_TIME ( #403, #718 ) ;
#497 = ORIENTED_EDGE ( 'NONE', *, *, #26, .F. ) ;
#498 = VERTEX_POINT ( 'NONE', #698 ) ;
#499 = CYLINDRICAL_SURFACE ( 'NONE', #96, 46.30000000000000426 ) ;
#500 = ORIENTED_EDGE ( 'NONE', *, *, #731, .F. ) ;
#501 = DIRECTION ( 'NONE',  ( 0.000000000000000000, 1.000000000000000000, 0.000000000000000000 ) ) ;
#502 = ORIENTED_EDGE ( 'NONE', *, *, #654, .T. ) ;
#503 = DIRECTION ( 'NONE',  ( -0.000000000000000000, -1.000000000000000000, -0.000000000000000000 ) ) ;
#504 = ORIENTED_EDGE ( 'NONE', *, *, #619, .T. ) ;
#505 = CARTESIAN_POINT ( 'NONE',  ( 5.670114680052245564E-15, 31.50000000000000000, 46.30000000000000426 ) ) ;
#506 = APPROVAL_ROLE ( '' ) ;
#507 = VERTEX_POINT ( 'NONE', #967 ) ;
#508 = DIRECTION ( 'NONE',  ( -0.2697602360126419851, 0.000000000000000000, -0.9629275232676672847 ) ) ;
#509 = CARTESIAN_POINT ( 'NONE',  ( 0.000000000000000000, 10.00000000000000000, -0.4000000000000000222 ) ) ;
#510 = FACE_OUTER_BOUND ( 'NONE', #788, .T. ) ;
#511 = VECTOR ( 'NONE', #256, 1000.000000000000000 ) ;
#512 = AXIS2_PLACEMENT_3D ( 'NONE', #452, #1086, #732 ) ;
#513 = AXIS2_PLACEMENT_3D ( 'NONE', #274, #14, #205 ) ;
#514 = EDGE_CURVE ( 'NONE', #836, #149, #632, .T. ) ;
#515 = VERTEX_POINT ( 'NONE', #53 ) ;
#516 = EDGE_CURVE ( 'NONE', #515, #258, #979, .T. ) ;
#517 = CARTESIAN_POINT ( 'NONE',  ( -32.92574353532065601, 39.00000000000000000, -32.18703085027384247 ) ) ;
#518 = CARTESIAN_POINT ( 'NONE',  ( 0.000000000000000000, 2.000000000000000000, -0.4000000000000000222 ) ) ;
#519 = UNCERTAINTY_MEASURE_WITH_UNIT (LENGTH_MEASURE( 1.000000000000000082E-05 ), #110, 'distance_accuracy_value', 'NONE');
#520 = DIRECTION ( 'NONE',  ( 0.000000000000000000, 0.000000000000000000, -1.000000000000000000 ) ) ;
#521 = ORIENTED_EDGE ( 'NONE', *, *, #886, .T. ) ;
#522 = DIRECTION ( 'NONE',  ( 0.000000000000000000, 0.000000000000000000, -1.000000000000000000 ) ) ;
#523 = EDGE_LOOP ( 'NONE', ( #996, #835, #314, #683 ) ) ;
#524 = CARTESIAN_POINT ( 'NONE',  ( -7.744465665967262602, 36.00000000000000000, 45.54627593501641059 ) ) ;
#525 = EDGE_CURVE ( 'NONE', #639, #1068, #1153, .T. ) ;
#526 = EDGE_LOOP ( 'NONE', ( #246, #521, #952, #369 ) ) ;
#527 = DIRECTION ( 'NONE',  ( -0.000000000000000000, -1.000000000000000000, -0.000000000000000000 ) ) ;
#528 = CARTESIAN_POINT ( 'NONE',  ( 0.000000000000000000, 10.00000000000000000, 0.000000000000000000 ) ) ;
#529 = EDGE_CURVE ( 'NONE', #206, #507, #146, .T. ) ;
#530 = CARTESIAN_POINT ( 'NONE',  ( 0.000000000000000000, 11.00000000000000000, -0.4000000000000000222 ) ) ;
#531 = EDGE_CURVE ( 'NONE', #215, #1090, #1072, .T. ) ;
#532 = VECTOR ( 'NONE', #333, 1000.000000000000000 ) ;
#533 = AXIS2_PLACEMENT_3D ( 'NONE', #825, #222, #776 ) ;
#534 = CARTESIAN_POINT ( 'NONE',  ( 0.000000000000000000, 29.50000000000000000, -44.79999999999999716 ) ) ;
#535 = CIRCLE ( 'NONE', #1023, 1.800000000000000044 ) ;
#536 = DIRECTION ( 'NONE',  ( -0.8660254037844384856, 0.000000000000000000, 0.5000000000000004441 ) ) ;
#537 = DIRECTION ( 'NONE',  ( 0.000000000000000000, 0.000000000000000000, 1.000000000000000000 ) ) ;
#538 = DIRECTION ( 'NONE',  ( 0.000000000000000000, 1.000000000000000000, 0.000000000000000000 ) ) ;
#539 = CARTESIAN_POINT ( 'NONE',  ( 45.16130084125359190, 0.000000000000000000, -12.65175506899290525 ) ) ;
#540 = VERTEX_POINT ( 'NONE', #505 ) ;
#541 = PLANE ( 'NONE',  #399 ) ;
#542 = DIRECTION ( 'NONE',  ( 0.000000000000000000, -0.000000000000000000, 1.000000000000000000 ) ) ;
#543 = CARTESIAN_POINT ( 'NONE',  ( 0.000000000000000000, 10.00000000000000000, -0.4000000000000000222 ) ) ;
#544 = PLANE ( 'NONE',  #250 ) ;
#545 = ORIENTED_EDGE ( 'NONE', *, *, #226, .T. ) ;
#546 = DIRECTION ( 'NONE',  ( -0.8660254037844384856, 0.000000000000000000, 0.5000000000000004441 ) ) ;
#547 = ADVANCED_FACE ( 'NONE', ( #1052 ), #160, .F. ) ;
#548 = CIRCLE ( 'NONE', #1003, 44.79999999999999716 ) ;
#549 = AXIS2_PLACEMENT_3D ( 'NONE', #448, #342, #887 ) ;
#550 = ORIENTED_EDGE ( 'NONE', *, *, #925, .T. ) ;
#551 = CIRCLE ( 'NONE', #290, 46.30000000000000426 ) ;
#552 = VECTOR ( 'NONE', #315, 1000.000000000000114 ) ;
#553 = DIRECTION ( 'NONE',  ( 0.000000000000000000, -1.000000000000000000, 0.000000000000000000 ) ) ;
#554 = ORIENTED_EDGE ( 'NONE', *, *, #1035, .F. ) ;
#555 = DIRECTION ( 'NONE',  ( -0.000000000000000000, -1.000000000000000000, -0.000000000000000000 ) ) ;
#556 = CYLINDRICAL_SURFACE ( 'NONE', #330, 1.800000000000000266 ) ;
#557 = ORIENTED_EDGE ( 'NONE', *, *, #1142, .T. ) ;
#558 = ADVANCED_FACE ( 'NONE', ( #56 ), #337, .T. ) ;
#559 = DIRECTION ( 'NONE',  ( 0.000000000000000000, -1.000000000000000000, 0.000000000000000000 ) ) ;
#560 = DIRECTION ( 'NONE',  ( 0.000000000000000000, -1.000000000000000000, -0.000000000000000000 ) ) ;
#561 = CYLINDRICAL_SURFACE ( 'NONE', #966, 44.79999999999999716 ) ;
#562 = ORIENTED_EDGE ( 'NONE', *, *, #1017, .T. ) ;
#563 = ORIENTED_EDGE ( 'NONE', *, *, #181, .T. ) ;
#564 = APPROVAL ( #480, 'UNSPECIFIED' ) ;
#565 = ADVANCED_FACE ( 'NONE', ( #152 ), #705, .T. ) ;
#566 = CARTESIAN_POINT ( 'NONE',  ( 5.670114680052245564E-15, 42.00000000000000000, 46.30000000000000426 ) ) ;
#567 = CARTESIAN_POINT ( 'NONE',  ( 5.670114680052245564E-15, 30.00000000000000000, 46.30000000000000426 ) ) ;
#568 = ORIENTED_EDGE ( 'NONE', *, *, #516, .T. ) ;
#569 = AXIS2_PLACEMENT_3D ( 'NONE', #800, #1158, #990 ) ;
#570 = AXIS2_PLACEMENT_3D ( 'NONE', #263, #1156, #881 ) ;
#571 = AXIS2_PLACEMENT_3D ( 'NONE', #473, #761, #122 ) ;
#572 = DIRECTION ( 'NONE',  ( -0.000000000000000000, 1.000000000000000000, -0.000000000000000000 ) ) ;
#573 = EDGE_LOOP ( 'NONE', ( #478, #464, #488, #237 ) ) ;
#574 = ORIENTED_EDGE ( 'NONE', *, *, #925, .F. ) ;
#575 = DIRECTION ( 'NONE',  ( 0.000000000000000000, 1.000000000000000000, 0.000000000000000000 ) ) ;
#576 = CALENDAR_DATE ( 2026, 30, 9 ) ;
#577 = AXIS2_PLACEMENT_3D ( 'NONE', #960, #787, #862 ) ;
#578 = EDGE_LOOP ( 'NONE', ( #52, #1087 ) ) ;
#579 = DIRECTION ( 'NONE',  ( 0.000000000000000000, 1.000000000000000000, 0.000000000000000000 ) ) ;
#580 = EDGE_LOOP ( 'NONE', ( #858, #344, #1007, #1058 ) ) ;
#581 = DIRECTION ( 'NONE',  ( 0.8660254037844388186, 0.000000000000000000, 0.4999999999999997780 ) ) ;
#582 = CALENDAR_DATE ( 2026, 30, 9 ) ;
#583 = ORIENTED_EDGE ( 'NONE', *, *, #474, .F. ) ;
#584 = VERTEX_POINT ( 'NONE', #596 ) ;
#585 = CARTESIAN_POINT ( 'NONE',  ( 5.596635872103403844E-15, 31.50000000000000000, 45.69999999999999574 ) ) ;
#586 = CIRCLE ( 'NONE', #1082, 46.30000000000000426 ) ;
#587 = TOROIDAL_SURFACE ( 'NONE', #268, -106.2500185044916066, 153.2499806421508879 ) ;
#588 = VECTOR ( 'NONE', #108, 1000.000000000000000 ) ;
#589 = LINE ( 'NONE', #950, #1163 ) ;
#590 = CIRCLE ( 'NONE', #645, 46.30000000000000426 ) ;
#591 = DATE_AND_TIME ( #232, #890 ) ;
#592 = EDGE_LOOP ( 'NONE', ( #670, #1040, #461, #201 ) ) ;
#593 = PLANE ( 'NONE',  #699 ) ;
#594 = VERTEX_POINT ( 'NONE', #418 ) ;
#595 = EDGE_CURVE ( 'NONE', #377, #405, #1063, .T. ) ;
#596 = CARTESIAN_POINT ( 'NONE',  ( 0.000000000000000000, 33.50000000000000000, -46.30000000000000426 ) ) ;
#597 = ORIENTED_EDGE ( 'NONE', *, *, #183, .F. ) ;
#598 = CARTESIAN_POINT ( 'NONE',  ( 0.000000000000000000, 0.000000000000000000, 0.000000000000000000 ) ) ;
#599 = EDGE_LOOP ( 'NONE', ( #615, #1128 ) ) ;
#600 = PRODUCT_RELATED_PRODUCT_CATEGORY ( 'detail', '', ( #864 ) ) ;
#601 = CARTESIAN_POINT ( 'NONE',  ( 43.97277491382433823, 36.00000000000000000, -16.30966174934787105 ) ) ;
#602 = ADVANCED_FACE ( 'NONE', ( #510, #680 ), #1056, .F. ) ;
#603 = VERTEX_POINT ( 'NONE', #601 ) ;
#604 = DIRECTION ( 'NONE',  ( 0.000000000000000000, 0.000000000000000000, -1.000000000000000000 ) ) ;
#605 = ORIENTED_EDGE ( 'NONE', *, *, #969, .T. ) ;
#606 = FACE_BOUND ( 'NONE', #1105, .T. ) ;
#607 = AXIS2_PLACEMENT_3D ( 'NONE', #837, #746, #1114 ) ;
#608 = AXIS2_PLACEMENT_3D ( 'NONE', #230, #1024, #495 ) ;
#609 = ORIENTED_EDGE ( 'NONE', *, *, #476, .T. ) ;
#610 = CARTESIAN_POINT ( 'NONE',  ( 0.000000000000000000, 0.000000000000000000, 0.000000000000000000 ) ) ;
#611 = FACE_OUTER_BOUND ( 'NONE', #31, .T. ) ;
#612 = CARTESIAN_POINT ( 'NONE',  ( 0.000000000000000000, 0.000000000000000000, 0.000000000000000000 ) ) ;
#613 = ADVANCED_FACE ( 'NONE', ( #606, #1047 ), #434, .F. ) ;
#614 = DIRECTION ( 'NONE',  ( 0.000000000000000000, -1.000000000000000000, -0.000000000000000000 ) ) ;
#615 = ORIENTED_EDGE ( 'NONE', *, *, #202, .T. ) ;
#616 = FACE_BOUND ( 'NONE', #324, .T. ) ;
#617 = ADVANCED_FACE ( 'NONE', ( #975 ), #164, .T. ) ;
#618 = DIRECTION ( 'NONE',  ( 0.000000000000000000, -1.000000000000000000, 0.000000000000000000 ) ) ;
#619 = EDGE_CURVE ( 'NONE', #594, #209, #437, .T. ) ;
#620 = DIRECTION ( 'NONE',  ( 0.000000000000000000, -1.000000000000000000, 0.000000000000000000 ) ) ;
#621 = FACE_OUTER_BOUND ( 'NONE', #876, .T. ) ;
#622 = DIRECTION ( 'NONE',  ( 0.000000000000000000, 0.000000000000000000, -1.000000000000000000 ) ) ;
#623 = CARTESIAN_POINT ( 'NONE',  ( 3.551475717527323832E-16, 2.000000000000000000, 2.499999999999999556 ) ) ;
#624 = AXIS2_PLACEMENT_3D ( 'NONE', #1094, #630, #919 ) ;
#625 = DIRECTION ( 'NONE',  ( -0.000000000000000000, -1.000000000000000000, -0.000000000000000000 ) ) ;
#626 = CARTESIAN_POINT ( 'NONE',  ( 0.000000000000000000, 30.00000000000000000, 0.000000000000000000 ) ) ;
#627 = APPLICATION_CONTEXT ( 'configuration controlled 3d designs of mechanical parts and assemblies' ) ;
#628 = DIRECTION ( 'NONE',  ( 0.000000000000000000, 0.000000000000000000, -1.000000000000000000 ) ) ;
#629 = DIRECTION ( 'NONE',  ( -0.000000000000000000, -1.000000000000000000, -0.000000000000000000 ) ) ;
#630 = DIRECTION ( 'NONE',  ( -0.000000000000000000, 1.000000000000000000, -0.000000000000000000 ) ) ;
#631 = DIRECTION ( 'NONE',  ( -0.3477539818624280077, 0.000000000000000000, -0.9375858190580882434 ) ) ;
#632 = CIRCLE ( 'NONE', #577, 46.30000000000000426 ) ;
#633 = EDGE_CURVE ( 'NONE', #1090, #1016, #548, .T. ) ;
#634 = ORIENTED_EDGE ( 'NONE', *, *, #195, .T. ) ;
#635 = DIRECTION ( 'NONE',  ( 0.7699566920890998922, 0.000000000000000000, 0.6380961466011300098 ) ) ;
#636 = FACE_OUTER_BOUND ( 'NONE', #763, .T. ) ;
#637 = ORIENTED_EDGE ( 'NONE', *, *, #1018, .F. ) ;
#638 = DIRECTION ( 'NONE',  ( -0.000000000000000000, 1.000000000000000000, -0.000000000000000000 ) ) ;
#639 = VERTEX_POINT ( 'NONE', #893 ) ;
#640 = LINE ( 'NONE', #623, #136 ) ;
#641 = DIRECTION ( 'NONE',  ( 0.000000000000000000, 0.000000000000000000, -1.000000000000000000 ) ) ;
#642 = AXIS2_PLACEMENT_3D ( 'NONE', #1074, #691, #536 ) ;
#643 = CIRCLE ( 'NONE', #827, 153.2499806421508879 ) ;
#644 = AXIS2_PLACEMENT_3D ( 'NONE', #8, #1, #1088 ) ;
#645 = AXIS2_PLACEMENT_3D ( 'NONE', #789, #1069, #785 ) ;
#646 = AXIS2_PLACEMENT_3D ( 'NONE', #662, #401, #581 ) ;
#647 = FACE_OUTER_BOUND ( 'NONE', #470, .T. ) ;
#648 = ADVANCED_FACE ( 'NONE', ( #4 ), #541, .T. ) ;
#649 = CARTESIAN_POINT ( 'NONE',  ( 0.000000000000000000, 30.00000000000000000, 47.98703349066331469 ) ) ;
#650 = CARTESIAN_POINT ( 'NONE',  ( 5.670114680052245564E-15, 0.000000000000000000, 46.30000000000000426 ) ) ;
#651 = ORIENTED_EDGE ( 'NONE', *, *, #306, .T. ) ;
#652 = ADVANCED_FACE ( 'NONE', ( #898, #357 ), #442, .T. ) ;
#653 = ORIENTED_EDGE ( 'NONE', *, *, #226, .F. ) ;
#654 = EDGE_CURVE ( 'NONE', #338, #603, #1081, .T. ) ;
#655 = DIRECTION ( 'NONE',  ( 0.000000000000000000, 0.000000000000000000, 1.000000000000000000 ) ) ;
#656 = DIRECTION ( 'NONE',  ( 0.000000000000000000, 0.000000000000000000, 1.000000000000000000 ) ) ;
#657 = ORIENTED_EDGE ( 'NONE', *, *, #393, .T. ) ;
#658 = AXIS2_PLACEMENT_3D ( 'NONE', #692, #883, #429 ) ;
#659 = CARTESIAN_POINT ( 'NONE',  ( -33.53739171283321241, 36.00000000000000000, -32.78495626198068180 ) ) ;
#660 = ORIENTED_EDGE ( 'NONE', *, *, #525, .T. ) ;
#661 = CIRCLE ( 'NONE', #905, 1.800000000000000044 ) ;
#662 = CARTESIAN_POINT ( 'NONE',  ( 0.000000000000000000, 39.00000000000000000, 0.000000000000000000 ) ) ;
#663 = ORIENTED_EDGE ( 'NONE', *, *, #525, .F. ) ;
#664 = CARTESIAN_POINT ( 'NONE',  ( 0.000000000000000000, 42.00000000000000000, 0.000000000000000000 ) ) ;
#665 = VERTEX_POINT ( 'NONE', #714 ) ;
#666 = VECTOR ( 'NONE', #257, 1000.000000000000114 ) ;
#667 = CARTESIAN_POINT ( 'NONE',  ( -35.57199917451642079, 36.00000000000000000, -29.48004197297221296 ) ) ;
#668 = COORDINATED_UNIVERSAL_TIME_OFFSET ( 12, 0, .AHEAD. ) ;
#669 = ORIENTED_EDGE ( 'NONE', *, *, #948, .T. ) ;
#670 = ORIENTED_EDGE ( 'NONE', *, *, #516, .F. ) ;
#671 = DIRECTION ( 'NONE',  ( -0.000000000000000000, -1.000000000000000000, -0.000000000000000000 ) ) ;
#672 = ORIENTED_EDGE ( 'NONE', *, *, #349, .T. ) ;
#673 = CARTESIAN_POINT ( 'NONE',  ( 0.000000000000000000, 29.50000000000000000, 44.86353574172903791 ) ) ;
#674 = PERSON_AND_ORGANIZATION ( #35, #441 ) ;
#675 = ORIENTED_EDGE ( 'NONE', *, *, #1121, .T. ) ;
#676 = LINE ( 'NONE', #420, #57 ) ;
#677 = ADVANCED_FACE ( 'NONE', ( #271, #647 ), #544, .F. ) ;
#678 = AXIS2_PLACEMENT_3D ( 'NONE', #249, #245, #783 ) ;
#679 = LOCAL_TIME ( 22, 37, 13.00000000000000000, #413 ) ;
#680 = FACE_BOUND ( 'NONE', #999, .T. ) ;
#681 = LOCAL_TIME ( 22, 37, 13.00000000000000000, #668 ) ;
#682 = APPLICATION_PROTOCOL_DEFINITION ( 'international standard', 'config_control_design', 1994, #364 ) ;
#683 = ORIENTED_EDGE ( 'NONE', *, *, #841, .T. ) ;
#684 = CARTESIAN_POINT ( 'NONE',  ( 0.000000000000000000, 29.50000000000000000, 0.000000000000000000 ) ) ;
#685 = EDGE_CURVE ( 'NONE', #603, #1068, #918, .T. ) ;
#686 = ADVANCED_FACE ( 'NONE', ( #376 ), #587, .F. ) ;
#687 = CARTESIAN_POINT ( 'NONE',  ( 0.000000000000000000, 0.000000000000000000, 0.000000000000000000 ) ) ;
#688 = DIRECTION ( 'NONE',  ( -0.000000000000000000, -1.000000000000000000, -0.000000000000000000 ) ) ;
#689 = ORIENTED_EDGE ( 'NONE', *, *, #69, .T. ) ;
#690 = DIRECTION ( 'NONE',  ( 0.000000000000000000, 0.000000000000000000, -1.000000000000000000 ) ) ;
#691 = DIRECTION ( 'NONE',  ( 0.000000000000000000, -1.000000000000000000, 0.000000000000000000 ) ) ;
#692 = CARTESIAN_POINT ( 'NONE',  ( 43.31646484048367540, 39.00000000000000000, -16.06623396204417276 ) ) ;
#693 = ORIENTED_EDGE ( 'NONE', *, *, #383, .F. ) ;
#694 = DIRECTION ( 'NONE',  ( 0.000000000000000000, 0.000000000000000000, 1.000000000000000000 ) ) ;
#695 = ADVANCED_FACE ( 'NONE', ( #819 ), #721, .T. ) ;
#696 = ORIENTED_EDGE ( 'NONE', *, *, #349, .F. ) ;
#697 = CARTESIAN_POINT ( 'NONE',  ( 0.000000000000000000, 10.00000000000000888, 40.24419999999999931 ) ) ;
#698 = CARTESIAN_POINT ( 'NONE',  ( -11.62390912842038482, 39.00000000000000000, 45.43671133097360837 ) ) ;
#699 = AXIS2_PLACEMENT_3D ( 'NONE', #1130, #508, #20 ) ;
#700 = VECTOR ( 'NONE', #972, 1000.000000000000227 ) ;
#701 = EDGE_CURVE ( 'NONE', #483, #149, #798, .T. ) ;
#702 = ORIENTED_EDGE ( 'NONE', *, *, #171, .F. ) ;
#703 = CARTESIAN_POINT ( 'NONE',  ( 0.000000000000000000, 33.50000000000000000, 0.000000000000000000 ) ) ;
#704 = DIRECTION ( 'NONE',  ( -0.000000000000000000, 1.000000000000000000, 0.000000000000000000 ) ) ;
#705 = CYLINDRICAL_SURFACE ( 'NONE', #423, 45.69999999999999574 ) ;
#706 = DIRECTION ( 'NONE',  ( -0.000000000000000000, -1.000000000000000000, -0.000000000000000000 ) ) ;
#707 = DIRECTION ( 'NONE',  ( 0.8660254037844388186, 0.000000000000000000, 0.4999999999999997780 ) ) ;
#708 = DIRECTION ( 'NONE',  ( 0.000000000000000000, 0.000000000000000000, -1.000000000000000000 ) ) ;
#709 = CARTESIAN_POINT ( 'NONE',  ( -35.57199917451642079, 39.00000000000000000, -29.48004197297221296 ) ) ;
#710 = CARTESIAN_POINT ( 'NONE',  ( 0.000000000000000000, 0.000000000000000000, -44.79999999999999716 ) ) ;
#711 = CYLINDRICAL_SURFACE ( 'NONE', #1161, 45.69999999999999574 ) ;
#712 = PLANE ( 'NONE',  #808 ) ;
#713 = ADVANCED_FACE ( 'NONE', ( #447 ), #275, .T. ) ;
#714 = CARTESIAN_POINT ( 'NONE',  ( 0.000000000000000000, 31.50000000000000000, -45.69999999999999574 ) ) ;
#715 = CARTESIAN_POINT ( 'NONE',  ( 0.000000000000000000, 0.000000000000000000, -46.30000000000000426 ) ) ;
#716 = AXIS2_PLACEMENT_3D ( 'NONE', #180, #631, #1000 ) ;
#717 = ADVANCED_BREP_SHAPE_REPRESENTATION ( 'Tail Cap Rev 2', ( #361, #100 ), #385 ) ;
#718 = LOCAL_TIME ( 22, 37, 13.00000000000000000, #227 ) ;
#719 = CARTESIAN_POINT ( 'NONE',  ( 0.000000000000000000, 30.00000000000000000, 0.000000000000000000 ) ) ;
#720 = EDGE_CURVE ( 'NONE', #311, #482, #888, .T. ) ;
#721 = CYLINDRICAL_SURFACE ( 'NONE', #512, 46.89999999999999858 ) ;
#722 = EDGE_CURVE ( 'NONE', #1113, #334, #116, .T. ) ;
#723 = ORIENTED_EDGE ( 'NONE', *, *, #410, .T. ) ;
#724 = CARTESIAN_POINT ( 'NONE',  ( 0.000000000000000000, 0.000000000000000000, 0.000000000000000000 ) ) ;
#725 = CARTESIAN_POINT ( 'NONE',  ( 0.000000000000000000, 0.000000000000000000, 0.000000000000000000 ) ) ;
#726 = ORIENTED_EDGE ( 'NONE', *, *, #1147, .T. ) ;
#727 = CARTESIAN_POINT ( 'NONE',  ( -35.57199917451642079, 39.00000000000000000, -29.48004197297221296 ) ) ;
#728 = ORIENTED_EDGE ( 'NONE', *, *, #323, .F. ) ;
#729 = CYLINDRICAL_SURFACE ( 'NONE', #80, 44.79999999999999716 ) ;
#730 = DIRECTION ( 'NONE',  ( 0.000000000000000000, 0.000000000000000000, -1.000000000000000000 ) ) ;
#731 = EDGE_CURVE ( 'NONE', #540, #124, #305, .T. ) ;
#732 = DIRECTION ( 'NONE',  ( 0.000000000000000000, 0.000000000000000000, -1.000000000000000000 ) ) ;
#733 = CARTESIAN_POINT ( 'NONE',  ( 0.000000000000000000, 31.50000000000000000, 0.000000000000000000 ) ) ;
#734 = ORIENTED_EDGE ( 'NONE', *, *, #529, .F. ) ;
#735 = CARTESIAN_POINT ( 'NONE',  ( 0.000000000000000000, 55.00000568419856961, -106.2500185044916066 ) ) ;
#736 = CC_DESIGN_PERSON_AND_ORGANIZATION_ASSIGNMENT ( #48, #219, ( #757 ) ) ;
#737 = DIRECTION ( 'NONE',  ( -0.000000000000000000, -1.000000000000000000, -0.000000000000000000 ) ) ;
#738 = ADVANCED_FACE ( 'NONE', ( #460 ), #814, .F. ) ;
#739 = AXIS2_PLACEMENT_3D ( 'NONE', #530, #559, #936 ) ;
#740 = ORIENTED_EDGE ( 'NONE', *, *, #1136, .T. ) ;
#741 = APPROVAL_PERSON_ORGANIZATION ( #1127, #773, #38 ) ;
#742 = CIRCLE ( 'NONE', #571, 156.2500000000000000 ) ;
#743 = CARTESIAN_POINT ( 'NONE',  ( 43.41022342238949250, 39.00000000000000000, -16.10100936023041740 ) ) ;
#744 = DIRECTION ( 'NONE',  ( 0.000000000000000000, 0.000000000000000000, 1.000000000000000000 ) ) ;
#745 = VERTEX_POINT ( 'NONE', #106 ) ;
#746 = DIRECTION ( 'NONE',  ( 0.000000000000000000, 1.000000000000000000, 0.000000000000000000 ) ) ;
#747 = CARTESIAN_POINT ( 'NONE',  ( -7.861806054845554392, 39.00000000000000000, 46.23637102494090101 ) ) ;
#748 = EDGE_LOOP ( 'NONE', ( #140, #880, #481, #941 ) ) ;
#749 = DESIGN_CONTEXT ( 'detailed design', #364, 'design' ) ;
#750 = DIRECTION ( 'NONE',  ( 0.000000000000000000, 1.000000000000000000, 0.000000000000000000 ) ) ;
#751 = CARTESIAN_POINT ( 'NONE',  ( -35.64899484372533323, 39.00000000000000000, -29.54385158763232866 ) ) ;
#752 = ORIENTED_EDGE ( 'NONE', *, *, #286, .T. ) ;
#753 = ORIENTED_EDGE ( 'NONE', *, *, #320, .F. ) ;
#754 = CIRCLE ( 'NONE', #793, 46.30000000000000426 ) ;
#755 = ORIENTED_EDGE ( 'NONE', *, *, #70, .T. ) ;
#756 = AXIS2_PLACEMENT_3D ( 'NONE', #687, #187, #1171 ) ;
#757 = PRODUCT_DEFINITION_FORMATION_WITH_SPECIFIED_SOURCE ( 'ANY', '', #864, .NOT_KNOWN. ) ;
#758 = ADVANCED_FACE ( 'NONE', ( #289 ), #1008, .F. ) ;
#759 = ADVANCED_FACE ( 'NONE', ( #1140 ), #593, .F. ) ;
#760 = AXIS2_PLACEMENT_3D ( 'NONE', #735, #1100, #655 ) ;
#761 = DIRECTION ( 'NONE',  ( -1.000000000000000000, 0.000000000000000000, 0.000000000000000000 ) ) ;
#762 = DATE_TIME_ROLE ( 'creation_date' ) ;
#763 = EDGE_LOOP ( 'NONE', ( #312, #407, #138, #637 ) ) ;
#764 = EDGE_LOOP ( 'NONE', ( #459, #125 ) ) ;
#765 = CARTESIAN_POINT ( 'NONE',  ( -1.301187224094062685E-14, 55.00000000000000000, 106.2500000000000000 ) ) ;
#766 = ORIENTED_EDGE ( 'NONE', *, *, #83, .F. ) ;
#767 = FACE_BOUND ( 'NONE', #1001, .T. ) ;
#768 = EDGE_CURVE ( 'NONE', #603, #409, #427, .T. ) ;
#769 = CALENDAR_DATE ( 2026, 30, 9 ) ;
#770 = ORIENTED_EDGE ( 'NONE', *, *, #768, .T. ) ;
#771 = DIRECTION ( 'NONE',  ( 0.000000000000000000, -1.000000000000000000, 0.000000000000000000 ) ) ;
#772 = CYLINDRICAL_SURFACE ( 'NONE', #932, 46.30000000000000426 ) ;
#773 = APPROVAL ( #316, 'UNSPECIFIED' ) ;
#774 = ORIENTED_EDGE ( 'NONE', *, *, #529, .T. ) ;
#775 = EDGE_CURVE ( 'NONE', #206, #849, #676, .T. ) ;
#776 = DIRECTION ( 'NONE',  ( -0.8660254037844383745, 0.000000000000000000, 0.5000000000000004441 ) ) ;
#777 = AXIS2_PLACEMENT_3D ( 'NONE', #995, #193, #708 ) ;
#778 = AXIS2_PLACEMENT_3D ( 'NONE', #354, #706, #877 ) ;
#779 = DIRECTION ( 'NONE',  ( 0.000000000000000000, 0.000000000000000000, -1.000000000000000000 ) ) ;
#780 = VECTOR ( 'NONE', #501, 1000.000000000000000 ) ;
#781 = VERTEX_POINT ( 'NONE', #585 ) ;
#782 = ORIENTED_EDGE ( 'NONE', *, *, #356, .T. ) ;
#783 = DIRECTION ( 'NONE',  ( 0.000000000000000000, 0.000000000000000000, -1.000000000000000000 ) ) ;
#784 = VERTEX_POINT ( 'NONE', #1041 ) ;
#785 = DIRECTION ( 'NONE',  ( 0.000000000000000000, 0.000000000000000000, -1.000000000000000000 ) ) ;
#786 = CYLINDRICAL_SURFACE ( 'NONE', #1099, 46.90000000000000568 ) ;
#787 = DIRECTION ( 'NONE',  ( -0.000000000000000000, -1.000000000000000000, -0.000000000000000000 ) ) ;
#788 = EDGE_LOOP ( 'NONE', ( #669, #842 ) ) ;
#789 = CARTESIAN_POINT ( 'NONE',  ( 0.000000000000000000, 31.50000000000000000, 0.000000000000000000 ) ) ;
#790 = PLANE ( 'NONE',  #1062 ) ;
#791 = ADVANCED_FACE ( 'NONE', ( #382 ), #210, .T. ) ;
#792 = DIRECTION ( 'NONE',  ( 0.000000000000000000, -1.000000000000000000, 0.000000000000000000 ) ) ;
#793 = AXIS2_PLACEMENT_3D ( 'NONE', #335, #150, #690 ) ;
#794 = CIRCLE ( 'NONE', #624, 40.24419999999999931 ) ;
#795 = AXIS2_PLACEMENT_3D ( 'NONE', #273, #538, #542 ) ;
#796 = DIRECTION ( 'NONE',  ( 0.000000000000000000, 0.000000000000000000, 1.000000000000000000 ) ) ;
#797 = FACE_OUTER_BOUND ( 'NONE', #748, .T. ) ;
#798 = LINE ( 'NONE', #1168, #37 ) ;
#799 = LINE ( 'NONE', #1169, #1141 ) ;
#800 = CARTESIAN_POINT ( 'NONE',  ( 0.000000000000000000, 30.00000000000000000, 0.000000000000000000 ) ) ;
#801 = DIRECTION ( 'NONE',  ( -0.000000000000000000, -1.000000000000000000, -0.000000000000000000 ) ) ;
#802 = CARTESIAN_POINT ( 'NONE',  ( -11.62390912842038659, 36.00000000000000000, 45.43671133097360837 ) ) ;
#803 = DIRECTION ( 'NONE',  ( -0.000000000000000000, 1.000000000000000000, -0.000000000000000000 ) ) ;
#804 = EDGE_CURVE ( 'NONE', #405, #377, #172, .T. ) ;
#805 = EDGE_CURVE ( 'NONE', #849, #258, #872, .T. ) ;
#806 = CARTESIAN_POINT ( 'NONE',  ( 0.000000000000000000, 0.000000000000000000, 0.000000000000000000 ) ) ;
#807 = VERTEX_POINT ( 'NONE', #131 ) ;
#808 = AXIS2_PLACEMENT_3D ( 'NONE', #528, #704, #1079 ) ;
#809 = PLANE ( 'NONE',  #253 ) ;
#810 = CIRCLE ( 'NONE', #987, 2.899999999999999911 ) ;
#811 = CARTESIAN_POINT ( 'NONE',  ( 43.31646484048367540, 39.00000000000000000, -16.06623396204417276 ) ) ;
#812 = VECTOR ( 'NONE', #555, 1000.000000000000000 ) ;
#813 = EDGE_LOOP ( 'NONE', ( #1049, #101, #912, #371 ) ) ;
#814 = CYLINDRICAL_SURFACE ( 'NONE', #964, 2.899999999999999911 ) ;
#815 = ORIENTED_EDGE ( 'NONE', *, *, #109, .F. ) ;
#816 = CARTESIAN_POINT ( 'NONE',  ( 5.670114680052245564E-15, 0.000000000000000000, 46.30000000000000426 ) ) ;
#817 = EDGE_CURVE ( 'NONE', #1125, #215, #1042, .T. ) ;
#818 = DIRECTION ( 'NONE',  ( -0.000000000000000000, 1.000000000000000000, -0.000000000000000000 ) ) ;
#819 = FACE_OUTER_BOUND ( 'NONE', #1146, .T. ) ;
#820 = CC_DESIGN_PERSON_AND_ORGANIZATION_ASSIGNMENT ( #674, #847, ( #864 ) ) ;
#821 = EDGE_CURVE ( 'NONE', #838, #1113, #643, .T. ) ;
#822 = ORIENTED_EDGE ( 'NONE', *, *, #218, .F. ) ;
#823 = DIRECTION ( 'NONE',  ( 0.000000000000000000, 0.000000000000000000, 1.000000000000000000 ) ) ;
#824 = LINE ( 'NONE', #475, #922 ) ;
#825 = CARTESIAN_POINT ( 'NONE',  ( -35.57199917451642079, 36.00000000000000000, -29.48004197297221296 ) ) ;
#826 = LINE ( 'NONE', #715, #588 ) ;
#827 = AXIS2_PLACEMENT_3D ( 'NONE', #866, #139, #468 ) ;
#828 = CLOSED_SHELL ( 'NONE', ( #565, #1157, #986, #24, #758, #1122, #791, #652, #492, #677, #142, #95, #686, #1075, #738, #303, #613, #113, #843, #280, #159, #1057, #902, #602, #558, #695, #200, #713, #759, #1029, #59, #617, #406, #648, #167, #832, #272, #547, #1148 ) ) ;
#829 = ORIENTED_EDGE ( 'NONE', *, *, #654, .F. ) ;
#830 = AXIS2_PLACEMENT_3D ( 'NONE', #85, #439, #445 ) ;
#831 = ORIENTED_EDGE ( 'NONE', *, *, #939, .F. ) ;
#832 = ADVANCED_FACE ( 'NONE', ( #60 ), #326, .T. ) ;
#833 = CARTESIAN_POINT ( 'NONE',  ( 0.000000000000000000, 2.000000000000000000, -0.4000000000000000222 ) ) ;
#834 = CARTESIAN_POINT ( 'NONE',  ( 5.486417660180142053E-15, 29.50000000000000000, 44.79999999999999716 ) ) ;
#835 = ORIENTED_EDGE ( 'NONE', *, *, #817, .F. ) ;
#836 = VERTEX_POINT ( 'NONE', #743 ) ;
#837 = CARTESIAN_POINT ( 'NONE',  ( 0.000000000000000000, 36.00000000000000000, 0.000000000000000000 ) ) ;
#838 = VERTEX_POINT ( 'NONE', #332 ) ;
#839 = DIRECTION ( 'NONE',  ( 0.000000000000000000, 0.000000000000000000, 1.000000000000000000 ) ) ;
#840 = PERSON_AND_ORGANIZATION ( #35, #441 ) ;
#841 = EDGE_CURVE ( 'NONE', #1016, #1090, #79, .T. ) ;
#842 = ORIENTED_EDGE ( 'NONE', *, *, #731, .T. ) ;
#843 = ADVANCED_FACE ( 'NONE', ( #490 ), #499, .T. ) ;
#844 = DIRECTION ( 'NONE',  ( -0.000000000000000000, 1.000000000000000000, -0.000000000000000000 ) ) ;
#845 = ORIENTED_EDGE ( 'NONE', *, *, #857, .T. ) ;
#846 = LINE ( 'NONE', #36, #184 ) ;
#847 = PERSON_AND_ORGANIZATION_ROLE ( 'design_owner' ) ;
#848 = EDGE_LOOP ( 'NONE', ( #852, #234 ) ) ;
#849 = VERTEX_POINT ( 'NONE', #859 ) ;
#850 = CARTESIAN_POINT ( 'NONE',  ( 0.000000000000000000, 42.00000000000000000, 0.000000000000000000 ) ) ;
#851 = AXIS2_PLACEMENT_3D ( 'NONE', #914, #55, #313 ) ;
#852 = ORIENTED_EDGE ( 'NONE', *, *, #817, .T. ) ;
#853 = CIRCLE ( 'NONE', #1083, 46.30000000000000426 ) ;
#854 = DIRECTION ( 'NONE',  ( 0.000000000000000000, 1.000000000000000000, 0.000000000000000000 ) ) ;
#855 = SECURITY_CLASSIFICATION_LEVEL ( 'unclassified' ) ;
#856 = VERTEX_POINT ( 'NONE', #958 ) ;
#857 = EDGE_CURVE ( 'NONE', #935, #1123, #754, .T. ) ;
#858 = ORIENTED_EDGE ( 'NONE', *, *, #701, .F. ) ;
#859 = CARTESIAN_POINT ( 'NONE',  ( -7.861806054845554392, 36.00000000000000000, 46.23637102494090101 ) ) ;
#860 = CARTESIAN_POINT ( 'NONE',  ( 44.79999999999999716, 42.00000000000000000, 0.000000000000000000 ) ) ;
#861 = EDGE_CURVE ( 'NONE', #149, #639, #1106, .T. ) ;
#862 = DIRECTION ( 'NONE',  ( -1.243449787580175325E-14, 0.000000000000000000, 1.000000000000000000 ) ) ;
#863 = EDGE_CURVE ( 'NONE', #215, #1125, #943, .T. ) ;
#864 = PRODUCT ( 'Tail Cap Rev 2', 'Tail Cap Rev 2', '', ( #951 ) ) ;
#865 = ORIENTED_EDGE ( 'NONE', *, *, #514, .F. ) ;
#866 = CARTESIAN_POINT ( 'NONE',  ( -1.301187450708726811E-14, 55.00000568419856961, 106.2500185044916066 ) ) ;
#867 = EDGE_LOOP ( 'NONE', ( #388, #605, #91, #397 ) ) ;
#868 = CARTESIAN_POINT ( 'NONE',  ( 2.204364238465235576E-16, 11.00000000000000000, 1.399999999999999911 ) ) ;
#869 = COORDINATED_UNIVERSAL_TIME_OFFSET ( 12, 0, .AHEAD. ) ;
#870 = ORIENTED_EDGE ( 'NONE', *, *, #595, .F. ) ;
#871 = CARTESIAN_POINT ( 'NONE',  ( 43.97277491382433823, 36.00000000000000000, -16.30966174934787105 ) ) ;
#872 = CIRCLE ( 'NONE', #360, 46.90000000000000568 ) ;
#873 = CIRCLE ( 'NONE', #309, 40.00000000000000000 ) ;
#874 = DIRECTION ( 'NONE',  ( 0.000000000000000000, 1.000000000000000000, 0.000000000000000000 ) ) ;
#875 = CIRCLE ( 'NONE', #968, 46.30000000000000426 ) ;
#876 = EDGE_LOOP ( 'NONE', ( #755, #1144 ) ) ;
#877 = DIRECTION ( 'NONE',  ( 0.000000000000000000, 0.000000000000000000, -1.000000000000000000 ) ) ;
#878 = ORIENTED_EDGE ( 'NONE', *, *, #895, .T. ) ;
#879 = CARTESIAN_POINT ( 'NONE',  ( -11.41191462107027199, 36.00000000000000000, 44.60804576521586284 ) ) ;
#880 = ORIENTED_EDGE ( 'NONE', *, *, #69, .F. ) ;
#881 = DIRECTION ( 'NONE',  ( 0.000000000000000000, 0.000000000000000000, 1.000000000000000000 ) ) ;
#882 = CYLINDRICAL_SURFACE ( 'NONE', #304, 2.899999999999999911 ) ;
#883 = DIRECTION ( 'NONE',  ( 0.000000000000000000, 1.000000000000000000, 0.000000000000000000 ) ) ;
#884 = EDGE_LOOP ( 'NONE', ( #421, #318, #545, #251 ) ) ;
#885 = LINE ( 'NONE', #517, #700 ) ;
#886 = EDGE_CURVE ( 'NONE', #71, #365, #438, .T. ) ;
#887 = DIRECTION ( 'NONE',  ( 0.000000000000000000, 0.000000000000000000, 1.000000000000000000 ) ) ;
#888 = LINE ( 'NONE', #82, #1159 ) ;
#889 = AXIS2_PLACEMENT_3D ( 'NONE', #765, #51, #1036 ) ;
#890 = LOCAL_TIME ( 22, 37, 13.00000000000000000, #869 ) ;
#891 = CIRCLE ( 'NONE', #120, 46.89999999999999858 ) ;
#892 = CARTESIAN_POINT ( 'NONE',  ( 0.000000000000000000, 2.000000000000000000, -0.4000000000000000222 ) ) ;
#893 = CARTESIAN_POINT ( 'NONE',  ( 44.58354432729299077, 36.00000000000000000, -12.48989892738532248 ) ) ;
#894 = PLANE ( 'NONE',  #400 ) ;
#895 = EDGE_CURVE ( 'NONE', #28, #453, #21, .T. ) ;
#896 = LINE ( 'NONE', #431, #194 ) ;
#897 = ORIENTED_EDGE ( 'NONE', *, *, #284, .F. ) ;
#898 = FACE_BOUND ( 'NONE', #121, .T. ) ;
#899 = CARTESIAN_POINT ( 'NONE',  ( 43.31646484048367540, 36.00000000000000000, -16.06623396204417276 ) ) ;
#900 = DIRECTION ( 'NONE',  ( 0.000000000000000000, 0.000000000000000000, 1.000000000000000000 ) ) ;
#901 = DIRECTION ( 'NONE',  ( 0.000000000000000000, 1.000000000000000000, 0.000000000000000000 ) ) ;
#902 = ADVANCED_FACE ( 'NONE', ( #621, #616 ), #252, .F. ) ;
#903 = ORIENTED_EDGE ( 'NONE', *, *, #595, .T. ) ;
#904 = DIRECTION ( 'NONE',  ( -0.6380961466011301209, 0.000000000000000000, 0.7699566920891000033 ) ) ;
#905 = AXIS2_PLACEMENT_3D ( 'NONE', #543, #374, #900 ) ;
#906 = LINE ( 'NONE', #998, #402 ) ;
#907 = VECTOR ( 'NONE', #750, 1000.000000000000000 ) ;
#908 = EDGE_CURVE ( 'NONE', #1015, #584, #853, .T. ) ;
#909 = DIRECTION ( 'NONE',  ( 0.000000000000000000, 0.000000000000000000, -1.000000000000000000 ) ) ;
#910 = ORIENTED_EDGE ( 'NONE', *, *, #1121, .F. ) ;
#911 = CARTESIAN_POINT ( 'NONE',  ( -33.10834192546221999, 39.00000000000000000, -32.36553251449265645 ) ) ;
#912 = ORIENTED_EDGE ( 'NONE', *, *, #633, .T. ) ;
#913 = EDGE_CURVE ( 'NONE', #856, #930, #270, .T. ) ;
#914 = CARTESIAN_POINT ( 'NONE',  ( 0.000000000000000000, 55.00000000000000000, 0.000000000000000000 ) ) ;
#915 = CARTESIAN_POINT ( 'NONE',  ( 0.000000000000000000, 2.000000000000000000, -0.4000000000000000222 ) ) ;
#916 = ORIENTED_EDGE ( 'NONE', *, *, #1136, .F. ) ;
#917 = CARTESIAN_POINT ( 'NONE',  ( 0.000000000000000000, 33.50000000000000000, -45.69999999999999574 ) ) ;
#918 = CIRCLE ( 'NONE', #3, 46.89999999999999858 ) ;
#919 = DIRECTION ( 'NONE',  ( 0.000000000000000000, 0.000000000000000000, 1.000000000000000000 ) ) ;
#920 = AXIS2_PLACEMENT_3D ( 'NONE', #173, #1152, #179 ) ;
#921 = ORIENTED_EDGE ( 'NONE', *, *, #410, .F. ) ;
#922 = VECTOR ( 'NONE', #278, 1000.000000000000000 ) ;
#923 = CIRCLE ( 'NONE', #608, 46.30000000000000426 ) ;
#924 = CARTESIAN_POINT ( 'NONE',  ( 0.000000000000000000, 0.000000000000000000, 0.000000000000000000 ) ) ;
#925 = EDGE_CURVE ( 'NONE', #498, #295, #896, .T. ) ;
#926 = EDGE_CURVE ( 'NONE', #334, #1113, #41, .T. ) ;
#927 = ORIENTED_EDGE ( 'NONE', *, *, #701, .T. ) ;
#928 = VERTEX_POINT ( 'NONE', #989 ) ;
#929 = CARTESIAN_POINT ( 'NONE',  ( 44.58354432729299077, 39.00000000000000000, -12.48989892738532248 ) ) ;
#930 = VERTEX_POINT ( 'NONE', #247 ) ;
#931 = LINE ( 'NONE', #1037, #552 ) ;
#932 = AXIS2_PLACEMENT_3D ( 'NONE', #68, #1149, #520 ) ;
#933 = APPROVAL_STATUS ( 'not_yet_approved' ) ;
#934 = VERTEX_POINT ( 'NONE', #72 ) ;
#935 = VERTEX_POINT ( 'NONE', #980 ) ;
#936 = DIRECTION ( 'NONE',  ( 0.000000000000000000, 0.000000000000000000, -1.000000000000000000 ) ) ;
#937 = ORIENTED_EDGE ( 'NONE', *, *, #804, .F. ) ;
#938 = CARTESIAN_POINT ( 'NONE',  ( 0.000000000000000000, 0.000000000000000000, 0.000000000000000000 ) ) ;
#939 = EDGE_CURVE ( 'NONE', #1068, #483, #178, .T. ) ;
#940 = DATE_AND_TIME ( #582, #681 ) ;
#941 = ORIENTED_EDGE ( 'NONE', *, *, #238, .T. ) ;
#942 = DIRECTION ( 'NONE',  ( -0.000000000000000000, -1.000000000000000000, -0.000000000000000000 ) ) ;
#943 = CIRCLE ( 'NONE', #231, 44.79999999999999716 ) ;
#944 = ORIENTED_EDGE ( 'NONE', *, *, #1165, .T. ) ;
#945 = CC_DESIGN_PERSON_AND_ORGANIZATION_ASSIGNMENT ( #213, #390, ( #25 ) ) ;
#946 = VECTOR ( 'NONE', #176, 1000.000000000000227 ) ;
#947 = AXIS2_PLACEMENT_3D ( 'NONE', #994, #737, #641 ) ;
#948 = EDGE_CURVE ( 'NONE', #124, #540, #590, .T. ) ;
#949 = CIRCLE ( 'NONE', #236, 40.00000000000000000 ) ;
#950 = CARTESIAN_POINT ( 'NONE',  ( -33.53739171283321241, 0.000000000000000000, -32.78495626198068180 ) ) ;
#951 = MECHANICAL_CONTEXT ( 'NONE', #627, 'mechanical' ) ;
#952 = ORIENTED_EDGE ( 'NONE', *, *, #83, .T. ) ;
#953 = DIRECTION ( 'NONE',  ( -0.1676291269689883234, 0.000000000000000000, 0.9858501284635584616 ) ) ;
#954 = EDGE_LOOP ( 'NONE', ( #634, #944 ) ) ;
#955 = DIRECTION ( 'NONE',  ( 0.000000000000000000, 0.000000000000000000, -1.000000000000000000 ) ) ;
#956 = COORDINATED_UNIVERSAL_TIME_OFFSET ( 12, 0, .AHEAD. ) ;
#957 = ORIENTED_EDGE ( 'NONE', *, *, #443, .T. ) ;
#958 = CARTESIAN_POINT ( 'NONE',  ( 3.551475717527323832E-16, 0.000000000000000000, 2.499999999999999556 ) ) ;
#959 = ORIENTED_EDGE ( 'NONE', *, *, #412, .F. ) ;
#960 = CARTESIAN_POINT ( 'NONE',  ( 0.000000000000000000, 39.00000000000000000, 0.000000000000000000 ) ) ;
#961 = ORIENTED_EDGE ( 'NONE', *, *, #46, .F. ) ;
#962 = DIRECTION ( 'NONE',  ( 0.000000000000000000, -0.000000000000000000, 1.000000000000000000 ) ) ;
#963 = CIRCLE ( 'NONE', #456, 47.98703349066331469 ) ;
#964 = AXIS2_PLACEMENT_3D ( 'NONE', #11, #553, #909 ) ;
#965 = VECTOR ( 'NONE', #114, 1000.000000000000000 ) ;
#966 = AXIS2_PLACEMENT_3D ( 'NONE', #725, #185, #379 ) ;
#967 = CARTESIAN_POINT ( 'NONE',  ( -7.761228578664162825, 39.00000000000000000, 45.64486094786276738 ) ) ;
#968 = AXIS2_PLACEMENT_3D ( 'NONE', #467, #18, #378 ) ;
#969 = EDGE_CURVE ( 'NONE', #934, #221, #810, .T. ) ;
#970 = EDGE_CURVE ( 'NONE', #807, #71, #873, .T. ) ;
#971 = ORIENTED_EDGE ( 'NONE', *, *, #926, .T. ) ;
#972 = DIRECTION ( 'NONE',  ( 0.7150829789516676138, -0.000000000000000000, 0.6990395791467095554 ) ) ;
#973 = CARTESIAN_POINT ( 'NONE',  ( 0.000000000000000000, 55.00000000000000000, 0.000000000000000000 ) ) ;
#974 = CARTESIAN_POINT ( 'NONE',  ( 0.000000000000000000, 33.50000000000000000, 0.000000000000000000 ) ) ;
#975 = FACE_OUTER_BOUND ( 'NONE', #592, .T. ) ;
#976 = EDGE_LOOP ( 'NONE', ( #550, #1011, #568, #466 ) ) ;
#977 = DIRECTION ( 'NONE',  ( 0.000000000000000000, 1.000000000000000000, 0.000000000000000000 ) ) ;
#978 = CARTESIAN_POINT ( 'NONE',  ( 0.000000000000000000, 42.00000000000000000, -46.30000000000000426 ) ) ;
#979 = LINE ( 'NONE', #879, #993 ) ;
#980 = CARTESIAN_POINT ( 'NONE',  ( 0.000000000000000000, 30.00000000000000000, -46.30000000000000426 ) ) ;
#981 = ORIENTED_EDGE ( 'NONE', *, *, #393, .F. ) ;
#982 = EDGE_CURVE ( 'NONE', #745, #311, #885, .T. ) ;
#983 = AXIS2_PLACEMENT_3D ( 'NONE', #2, #1166, #962 ) ;
#984 = CYLINDRICAL_SURFACE ( 'NONE', #756, 46.89999999999999858 ) ;
#985 = DIRECTION ( 'NONE',  ( 0.000000000000000000, 1.000000000000000000, 0.000000000000000000 ) ) ;
#986 = ADVANCED_FACE ( 'NONE', ( #339 ), #1151, .T. ) ;
#987 = AXIS2_PLACEMENT_3D ( 'NONE', #89, #267, #796 ) ;
#988 = CARTESIAN_POINT ( 'NONE',  ( -11.47520240183079032, 39.00000000000000000, 44.85543144187801090 ) ) ;
#989 = CARTESIAN_POINT ( 'NONE',  ( -35.64899484372533323, 36.00000000000000000, -29.54385158763232866 ) ) ;
#990 = DIRECTION ( 'NONE',  ( 0.000000000000000000, 0.000000000000000000, -1.000000000000000000 ) ) ;
#991 = CARTESIAN_POINT ( 'NONE',  ( 0.000000000000000000, 55.00000568419856961, 0.000000000000000000 ) ) ;
#992 = LINE ( 'NONE', #710, #63 ) ;
#993 = VECTOR ( 'NONE', #1137, 1000.000000000000114 ) ;
#994 = CARTESIAN_POINT ( 'NONE',  ( 0.000000000000000000, 31.50000000000000000, 0.000000000000000000 ) ) ;
#995 = CARTESIAN_POINT ( 'NONE',  ( 0.000000000000000000, 29.50000000000000000, 0.000000000000000000 ) ) ;
#996 = ORIENTED_EDGE ( 'NONE', *, *, #531, .F. ) ;
#997 = LINE ( 'NONE', #816, #812 ) ;
#998 = CARTESIAN_POINT ( 'NONE',  ( -11.47520240183079032, 35.50000000000000000, 44.85543144187801090 ) ) ;
#999 = EDGE_LOOP ( 'NONE', ( #317, #557 ) ) ;
#1000 = DIRECTION ( 'NONE',  ( -0.9375858190580882434, 0.000000000000000000, 0.3477539818624280077 ) ) ;
#1001 = EDGE_LOOP ( 'NONE', ( #1129, #287, #897, #921 ) ) ;
#1002 = FACE_OUTER_BOUND ( 'NONE', #1033, .T. ) ;
#1003 = AXIS2_PLACEMENT_3D ( 'NONE', #370, #801, #16 ) ;
#1004 = CIRCLE ( 'NONE', #384, 1.800000000000000044 ) ;
#1005 = AXIS2_PLACEMENT_3D ( 'NONE', #170, #527, #345 ) ;
#1006 = CARTESIAN_POINT ( 'NONE',  ( 0.000000000000000000, 11.00000000000000000, -0.4000000000000000222 ) ) ;
#1007 = ORIENTED_EDGE ( 'NONE', *, *, #1071, .T. ) ;
#1008 = CYLINDRICAL_SURFACE ( 'NONE', #739, 1.800000000000000266 ) ;
#1009 = DIRECTION ( 'NONE',  ( 0.000000000000000000, 0.000000000000000000, -1.000000000000000000 ) ) ;
#1010 = PLANE ( 'NONE',  #513 ) ;
#1011 = ORIENTED_EDGE ( 'NONE', *, *, #1104, .T. ) ;
#1012 = EDGE_LOOP ( 'NONE', ( #398, #228, #129, #916 ) ) ;
#1013 = DIRECTION ( 'NONE',  ( 0.000000000000000000, 1.000000000000000000, 0.000000000000000000 ) ) ;
#1014 = CARTESIAN_POINT ( 'NONE',  ( 45.16130084125359900, 36.00000000000000000, -12.65175506899290525 ) ) ;
#1015 = VERTEX_POINT ( 'NONE', #450 ) ;
#1016 = VERTEX_POINT ( 'NONE', #534 ) ;
#1017 = EDGE_CURVE ( 'NONE', #482, #928, #362, .T. ) ;
#1018 = EDGE_CURVE ( 'NONE', #209, #105, #535, .T. ) ;
#1019 = CARTESIAN_POINT ( 'NONE',  ( -7.861806054845554392, 36.00000000000000000, 46.23637102494090101 ) ) ;
#1020 = AXIS2_PLACEMENT_3D ( 'NONE', #524, #620, #75 ) ;
#1021 = APPROVAL_DATE_TIME ( #1132, #564 ) ;
#1022 = ORIENTED_EDGE ( 'NONE', *, *, #383, .T. ) ;
#1023 = AXIS2_PLACEMENT_3D ( 'NONE', #892, #436, #694 ) ;
#1024 = DIRECTION ( 'NONE',  ( -0.000000000000000000, 1.000000000000000000, -0.000000000000000000 ) ) ;
#1025 = ORIENTED_EDGE ( 'NONE', *, *, #373, .F. ) ;
#1026 = ORIENTED_EDGE ( 'NONE', *, *, #895, .F. ) ;
#1027 = CARTESIAN_POINT ( 'NONE',  ( 44.58354432729299077, 35.50000000000000000, -12.48989892738532248 ) ) ;
#1028 = ORIENTED_EDGE ( 'NONE', *, *, #433, .T. ) ;
#1029 = ADVANCED_FACE ( 'NONE', ( #259 ), #166, .T. ) ;
#1030 = DIRECTION ( 'NONE',  ( -0.7699566920890998922, 0.000000000000000000, -0.6380961466011301209 ) ) ;
#1031 = CARTESIAN_POINT ( 'NONE',  ( 0.000000000000000000, 0.000000000000000000, 0.000000000000000000 ) ) ;
#1032 = CC_DESIGN_DATE_AND_TIME_ASSIGNMENT ( #322, #762, ( #1164 ) ) ;
#1033 = EDGE_LOOP ( 'NONE', ( #663, #1150, #502, #1043 ) ) ;
#1034 = EDGE_LOOP ( 'NONE', ( #910, #163, #1107, #728 ) ) ;
#1035 = EDGE_CURVE ( 'NONE', #482, #151, #799, .T. ) ;
#1036 = DIRECTION ( 'NONE',  ( 1.224646799147353207E-16, 0.000000000000000000, -1.000000000000000000 ) ) ;
#1037 = CARTESIAN_POINT ( 'NONE',  ( -7.744465665967262602, 39.00000000000000000, 45.54627593501641059 ) ) ;
#1038 = SHAPE_DEFINITION_REPRESENTATION ( #224, #717 ) ;
#1039 = VECTOR ( 'NONE', #175, 1000.000000000000114 ) ;
#1040 = ORIENTED_EDGE ( 'NONE', *, *, #373, .T. ) ;
#1041 = CARTESIAN_POINT ( 'NONE',  ( 0.000000000000000000, 10.00000000000000000, -2.200000000000000178 ) ) ;
#1042 = CIRCLE ( 'NONE', #471, 44.79999999999999716 ) ;
#1043 = ORIENTED_EDGE ( 'NONE', *, *, #685, .T. ) ;
#1044 = CC_DESIGN_APPROVAL ( #392, ( #757 ) ) ;
#1045 = DIRECTION ( 'NONE',  ( 0.000000000000000000, -0.000000000000000000, 1.000000000000000000 ) ) ;
#1046 = CC_DESIGN_SECURITY_CLASSIFICATION ( #25, ( #757 ) ) ;
#1047 = FACE_OUTER_BOUND ( 'NONE', #144, .T. ) ;
#1048 = DIRECTION ( 'NONE',  ( 0.000000000000000000, 0.000000000000000000, 1.000000000000000000 ) ) ;
#1049 = ORIENTED_EDGE ( 'NONE', *, *, #863, .F. ) ;
#1050 = DIRECTION ( 'NONE',  ( -0.000000000000000000, -1.000000000000000000, -0.000000000000000000 ) ) ;
#1051 = EDGE_LOOP ( 'NONE', ( #27, #723, #489, #34 ) ) ;
#1052 = FACE_OUTER_BOUND ( 'NONE', #976, .T. ) ;
#1053 = ORIENTED_EDGE ( 'NONE', *, *, #982, .T. ) ;
#1054 = DIRECTION ( 'NONE',  ( 0.000000000000000000, 0.000000000000000000, -1.000000000000000000 ) ) ;
#1055 = DIRECTION ( 'NONE',  ( -0.000000000000000000, -1.000000000000000000, -0.000000000000000000 ) ) ;
#1056 = PLANE ( 'NONE',  #678 ) ;
#1057 = ADVANCED_FACE ( 'NONE', ( #359 ), #711, .T. ) ;
#1058 = ORIENTED_EDGE ( 'NONE', *, *, #514, .T. ) ;
#1059 = DIRECTION ( 'NONE',  ( -0.7150829789516676138, 0.000000000000000000, -0.6990395791467095554 ) ) ;
#1060 = CARTESIAN_POINT ( 'NONE',  ( 44.79999999999999716, 29.50000000000000000, 0.000000000000000000 ) ) ;
#1061 = CARTESIAN_POINT ( 'NONE',  ( 0.000000000000000000, 11.00000000000000000, -2.200000000000000178 ) ) ;
#1062 = AXIS2_PLACEMENT_3D ( 'NONE', #1060, #340, #260 ) ;
#1063 = CIRCLE ( 'NONE', #343, 45.69999999999999574 ) ;
#1064 = AXIS2_PLACEMENT_3D ( 'NONE', #915, #189, #823 ) ;
#1065 = LOCAL_TIME ( 22, 37, 13.00000000000000000, #956 ) ;
#1066 = CARTESIAN_POINT ( 'NONE',  ( 0.000000000000000000, 33.50000000000000000, 0.000000000000000000 ) ) ;
#1067 = VECTOR ( 'NONE', #143, 1000.000000000000000 ) ;
#1068 = VERTEX_POINT ( 'NONE', #1014 ) ;
#1069 = DIRECTION ( 'NONE',  ( 0.000000000000000000, 1.000000000000000000, 0.000000000000000000 ) ) ;
#1070 = DIRECTION ( 'NONE',  ( -0.000000000000000000, -1.000000000000000000, -0.000000000000000000 ) ) ;
#1071 = EDGE_CURVE ( 'NONE', #409, #836, #208, .T. ) ;
#1072 = LINE ( 'NONE', #169, #532 ) ;
#1073 = DIRECTION ( 'NONE',  ( 0.000000000000000000, 0.000000000000000000, 1.000000000000000000 ) ) ;
#1074 = CARTESIAN_POINT ( 'NONE',  ( 0.000000000000000000, 36.00000000000000000, 0.000000000000000000 ) ) ;
#1075 = ADVANCED_FACE ( 'NONE', ( #636 ), #556, .F. ) ;
#1076 = DIRECTION ( 'NONE',  ( -0.9629275232676670626, 0.000000000000000000, 0.2697602360126419296 ) ) ;
#1077 = FACE_OUTER_BOUND ( 'NONE', #578, .T. ) ;
#1078 = CARTESIAN_POINT ( 'NONE',  ( 0.000000000000000000, 0.000000000000000000, 0.000000000000000000 ) ) ;
#1079 = DIRECTION ( 'NONE',  ( 0.000000000000000000, 0.000000000000000000, 1.000000000000000000 ) ) ;
#1080 = VECTOR ( 'NONE', #792, 1000.000000000000000 ) ;
#1081 = LINE ( 'NONE', #281, #1039 ) ;
#1082 = AXIS2_PLACEMENT_3D ( 'NONE', #974, #1055, #446 ) ;
#1083 = AXIS2_PLACEMENT_3D ( 'NONE', #703, #350, #66 ) ;
#1084 = PLANE ( 'NONE',  #795 ) ;
#1085 = DIRECTION ( 'NONE',  ( -0.9375858190580882434, -0.000000000000000000, 0.3477539818624280077 ) ) ;
#1086 = DIRECTION ( 'NONE',  ( -0.000000000000000000, -1.000000000000000000, -0.000000000000000000 ) ) ;
#1087 = ORIENTED_EDGE ( 'NONE', *, *, #969, .F. ) ;
#1088 = DIRECTION ( 'NONE',  ( 1.243449787580175325E-14, 0.000000000000000000, 1.000000000000000000 ) ) ;
#1089 = DIRECTION ( 'NONE',  ( 0.000000000000000000, -1.000000000000000000, 0.000000000000000000 ) ) ;
#1090 = VERTEX_POINT ( 'NONE', #834 ) ;
#1091 = DIRECTION ( 'NONE',  ( -0.000000000000000000, -1.000000000000000000, -0.000000000000000000 ) ) ;
#1092 = ORIENTED_EDGE ( 'NONE', *, *, #1035, .T. ) ;
#1093 = CARTESIAN_POINT ( 'NONE',  ( 2.204364238465235576E-16, 2.000000000000000000, 1.399999999999999911 ) ) ;
#1094 = CARTESIAN_POINT ( 'NONE',  ( 0.000000000000000000, 10.00000000000000888, 0.000000000000000000 ) ) ;
#1095 = ORIENTED_EDGE ( 'NONE', *, *, #970, .F. ) ;
#1096 = CARTESIAN_POINT ( 'NONE',  ( 0.000000000000000000, 36.00000000000000000, 0.000000000000000000 ) ) ;
#1097 = DIRECTION ( 'NONE',  ( 0.000000000000000000, 0.000000000000000000, -1.000000000000000000 ) ) ;
#1098 = ORIENTED_EDGE ( 'NONE', *, *, #238, .F. ) ;
#1099 = AXIS2_PLACEMENT_3D ( 'NONE', #612, #248, #707 ) ;
#1100 = DIRECTION ( 'NONE',  ( -1.000000000000000000, 0.000000000000000000, 0.000000000000000000 ) ) ;
#1101 = AXIS2_PLACEMENT_3D ( 'NONE', #341, #614, #955 ) ;
#1102 = FACE_OUTER_BOUND ( 'NONE', #813, .T. ) ;
#1103 = EDGE_LOOP ( 'NONE', ( #574, #414, #49, #54 ) ) ;
#1104 = EDGE_CURVE ( 'NONE', #295, #515, #906, .T. ) ;
#1105 = EDGE_LOOP ( 'NONE', ( #845, #740 ) ) ;
#1106 = LINE ( 'NONE', #1027, #288 ) ;
#1107 = ORIENTED_EDGE ( 'NONE', *, *, #926, .F. ) ;
#1108 = PLANE ( 'NONE',  #404 ) ;
#1109 = ORIENTED_EDGE ( 'NONE', *, *, #685, .F. ) ;
#1110 = EDGE_CURVE ( 'NONE', #258, #498, #824, .T. ) ;
#1111 = FACE_BOUND ( 'NONE', #848, .T. ) ;
#1112 = LINE ( 'NONE', #117, #780 ) ;
#1113 = VERTEX_POINT ( 'NONE', #190 ) ;
#1114 = DIRECTION ( 'NONE',  ( -1.332267629550187691E-14, 0.000000000000000000, -1.000000000000000000 ) ) ;
#1115 = CARTESIAN_POINT ( 'NONE',  ( 0.000000000000000000, 10.00000000000000888, 0.000000000000000000 ) ) ;
#1116 = AXIS2_PLACEMENT_3D ( 'NONE', #186, #901, #97 ) ;
#1117 = DIRECTION ( 'NONE',  ( 1.000000000000000000, 0.000000000000000000, 0.000000000000000000 ) ) ;
#1118 = CIRCLE ( 'NONE', #99, 46.89999999999999858 ) ;
#1119 = ORIENTED_EDGE ( 'NONE', *, *, #444, .T. ) ;
#1120 = TOROIDAL_SURFACE ( 'NONE', #81, -106.2500185044916066, 153.2499806421508879 ) ;
#1121 = EDGE_CURVE ( 'NONE', #838, #161, #794, .T. ) ;
#1122 = ADVANCED_FACE ( 'NONE', ( #104 ), #1120, .F. ) ;
#1123 = VERTEX_POINT ( 'NONE', #567 ) ;
#1124 = AXIS2_PLACEMENT_3D ( 'NONE', #1115, #389, #744 ) ;
#1125 = VERTEX_POINT ( 'NONE', #285 ) ;
#1126 = DIRECTION ( 'NONE',  ( 0.1676291269689882957, 0.000000000000000000, -0.9858501284635584616 ) ) ;
#1127 = PERSON_AND_ORGANIZATION ( #35, #441 ) ;
#1128 = ORIENTED_EDGE ( 'NONE', *, *, #1018, .T. ) ;
#1129 = ORIENTED_EDGE ( 'NONE', *, *, #1017, .F. ) ;
#1130 = CARTESIAN_POINT ( 'NONE',  ( 0.000000000000000000, 0.000000000000000000, 0.000000000000000000 ) ) ;
#1131 = FACE_OUTER_BOUND ( 'NONE', #188, .T. ) ;
#1132 = DATE_AND_TIME ( #769, #679 ) ;
#1133 = EDGE_LOOP ( 'NONE', ( #1028, #752, #45, #428 ) ) ;
#1134 = CARTESIAN_POINT ( 'NONE',  ( 0.000000000000000000, 36.00000000000000000, 0.000000000000000000 ) ) ;
#1135 = ORIENTED_EDGE ( 'NONE', *, *, #1071, .F. ) ;
#1136 = EDGE_CURVE ( 'NONE', #1123, #935, #551, .T. ) ;
#1137 = DIRECTION ( 'NONE',  ( -0.2478445443159996708, 0.000000000000000000, 0.9687998151593519847 ) ) ;
#1138 = AXIS2_PLACEMENT_3D ( 'NONE', #806, #363, #628 ) ;
#1139 = ORIENTED_EDGE ( 'NONE', *, *, #284, .T. ) ;
#1140 = FACE_OUTER_BOUND ( 'NONE', #391, .T. ) ;
#1141 = VECTOR ( 'NONE', #1059, 1000.000000000000227 ) ;
#1142 = EDGE_CURVE ( 'NONE', #781, #665, #425, .T. ) ;
#1143 = DIRECTION ( 'NONE',  ( -0.000000000000000000, -1.000000000000000000, -0.000000000000000000 ) ) ;
#1144 = ORIENTED_EDGE ( 'NONE', *, *, #908, .T. ) ;
#1145 = DIRECTION ( 'NONE',  ( 0.000000000000000000, 0.000000000000000000, -1.000000000000000000 ) ) ;
#1146 = EDGE_LOOP ( 'NONE', ( #831, #1109, #770, #609 ) ) ;
#1147 = EDGE_CURVE ( 'NONE', #453, #1015, #463, .T. ) ;
#1148 = ADVANCED_FACE ( 'NONE', ( #119 ), #1010, .F. ) ;
#1149 = DIRECTION ( 'NONE',  ( -0.000000000000000000, -1.000000000000000000, -0.000000000000000000 ) ) ;
#1150 = ORIENTED_EDGE ( 'NONE', *, *, #147, .T. ) ;
#1151 = CYLINDRICAL_SURFACE ( 'NONE', #1005, 46.30000000000000426 ) ;
#1152 = DIRECTION ( 'NONE',  ( 0.000000000000000000, -1.000000000000000000, 0.000000000000000000 ) ) ;
#1153 = LINE ( 'NONE', #64, #666 ) ;
#1154 = LINE ( 'NONE', #709, #946 ) ;
#1155 = ORIENTED_EDGE ( 'NONE', *, *, #202, .F. ) ;
#1156 = DIRECTION ( 'NONE',  ( 0.000000000000000000, -1.000000000000000000, 0.000000000000000000 ) ) ;
#1157 = ADVANCED_FACE ( 'NONE', ( #1102 ), #561, .F. ) ;
#1158 = DIRECTION ( 'NONE',  ( -0.000000000000000000, -1.000000000000000000, -0.000000000000000000 ) ) ;
#1159 = VECTOR ( 'NONE', #352, 1000.000000000000000 ) ;
#1160 = CIRCLE ( 'NONE', #644, 46.30000000000000426 ) ;
#1161 = AXIS2_PLACEMENT_3D ( 'NONE', #1078, #625, #604 ) ;
#1162 = DIRECTION ( 'NONE',  ( 0.2478445443159996708, 0.000000000000000000, -0.9687998151593519847 ) ) ;
#1163 = VECTOR ( 'NONE', #572, 1000.000000000000000 ) ;
#1164 = PRODUCT_DEFINITION ( 'UNKNOWN', '', #757, #749 ) ;
#1165 = EDGE_CURVE ( 'NONE', #594, #784, #661, .T. ) ;
#1166 = DIRECTION ( 'NONE',  ( 0.000000000000000000, 1.000000000000000000, 0.000000000000000000 ) ) ;
#1167 = CARTESIAN_POINT ( 'NONE',  ( 5.387651946540591249E-15, 0.000000000000000000, -40.00000000000000000 ) ) ;
#1168 = CARTESIAN_POINT ( 'NONE',  ( 44.33765815639092267, 39.00000000000000000, -12.42101491494199905 ) ) ;
#1169 = CARTESIAN_POINT ( 'NONE',  ( -32.92574353532065601, 36.00000000000000000, -32.18703085027384247 ) ) ;
#1170 = CARTESIAN_POINT ( 'NONE',  ( 0.000000000000000000, 0.000000000000000000, 0.000000000000000000 ) ) ;
#1171 = DIRECTION ( 'NONE',  ( -0.8660254037844384856, 0.000000000000000000, 0.5000000000000004441 ) ) ;
ENDSEC;
END-ISO-10303-21;
